ISO-10303-21;
HEADER;
/****************************************************************
 * Generated by software with PDElib inside                    *
 * PDElib Version v51a, created Wed 11/30/2011                  *
 * ITI Transcendata (http://www.transcendata.com/)              *
 ****************************************************************/
FILE_DESCRIPTION((''),'2;1');
FILE_NAME('C:\\Dokumente und Einstellungen\\Andi.LEMAR\\Desktop\\Notstopp.stp','2014-08-08T21:55:53',('Andi'),(''),'Autodesk Inventor 2013','Autodesk Inventor 2013','');
FILE_SCHEMA(('AUTOMOTIVE_DESIGN { 1 0 10303 214 1 1 1 1 }'));
ENDSEC;
DATA;
#5=APPLICATION_CONTEXT('automotive design');
#6=APPLICATION_PROTOCOL_DEFINITION('International Standard','automotive_design',2001,#5);
#7=PRODUCT_CONTEXT('',#5,'mechanical');
#8=PRODUCT('008764','008764',$,(#7));
#9=PRODUCT_RELATED_PRODUCT_CATEGORY('part',$,(#8));
#10=PRODUCT_DEFINITION_FORMATION('',$,#8);
#11=PRODUCT_DEFINITION_CONTEXT('part definition',#5,'design');
#12=PRODUCT_DEFINITION('',$,#10,#11);
#18=(NAMED_UNIT(*)PLANE_ANGLE_UNIT()SI_UNIT($,.RADIAN.));
#19=DIMENSIONAL_EXPONENTS(0.0,0.0,0.0,0.0,0.0,0.0,0.0);
#20=PLANE_ANGLE_MEASURE_WITH_UNIT(PLANE_ANGLE_MEASURE(0.0174532925),#18);
#24=(CONVERSION_BASED_UNIT('DEGREE',#20)NAMED_UNIT(#19)PLANE_ANGLE_UNIT());
#28=(NAMED_UNIT(*)SI_UNIT($,.STERADIAN.)SOLID_ANGLE_UNIT());
#32=(LENGTH_UNIT()NAMED_UNIT(*)SI_UNIT(.MILLI.,.METRE.));
#34=UNCERTAINTY_MEASURE_WITH_UNIT(LENGTH_MEASURE(0.01),#32,'DISTANCE_ACCURACY_VALUE','');
#36=(GEOMETRIC_REPRESENTATION_CONTEXT(3)GLOBAL_UNCERTAINTY_ASSIGNED_CONTEXT((#34))GLOBAL_UNIT_ASSIGNED_CONTEXT((#24,#28,#32))REPRESENTATION_CONTEXT('None','None'));
#37=AXIS2_PLACEMENT_3D('',#38,#39,#40);
#38=CARTESIAN_POINT('',(0.0,0.0,0.0));
#39=DIRECTION('',(0.0,0.0,1.0));
#40=DIRECTION('',(1.0,0.0,0.0));
#41=SHAPE_REPRESENTATION('',(#37),#36);
#42=PRODUCT_DEFINITION_SHAPE('','',#12);
#43=SHAPE_DEFINITION_REPRESENTATION(#42,#41);
#49=(NAMED_UNIT(*)PLANE_ANGLE_UNIT()SI_UNIT($,.RADIAN.));
#50=DIMENSIONAL_EXPONENTS(0.0,0.0,0.0,0.0,0.0,0.0,0.0);
#51=PLANE_ANGLE_MEASURE_WITH_UNIT(PLANE_ANGLE_MEASURE(0.0174532925),#49);
#55=(CONVERSION_BASED_UNIT('DEGREE',#51)NAMED_UNIT(#50)PLANE_ANGLE_UNIT());
#59=(NAMED_UNIT(*)SI_UNIT($,.STERADIAN.)SOLID_ANGLE_UNIT());
#63=(LENGTH_UNIT()NAMED_UNIT(*)SI_UNIT(.MILLI.,.METRE.));
#65=UNCERTAINTY_MEASURE_WITH_UNIT(LENGTH_MEASURE(0.000001),#63,'DISTANCE_ACCURACY_VALUE','');
#67=(GEOMETRIC_REPRESENTATION_CONTEXT(3)GLOBAL_UNCERTAINTY_ASSIGNED_CONTEXT((#65))GLOBAL_UNIT_ASSIGNED_CONTEXT((#55,#59,#63))REPRESENTATION_CONTEXT('','3D'));
#68=CARTESIAN_POINT('',(0.0,0.0,-3.500000000000001));
#69=DIRECTION('',(0.0,0.0,-1.0));
#70=DIRECTION('',(1.0,0.0,0.0));
#71=AXIS2_PLACEMENT_3D('',#68,#69,#70);
#72=CYLINDRICAL_SURFACE('',#71,8.000000000000002);
#73=CARTESIAN_POINT('',(8.000000000000002,0.0,-5.500000000000002));
#74=VERTEX_POINT('',#73);
#75=CARTESIAN_POINT('',(0.0,0.0,-5.500000000000002));
#76=DIRECTION('',(0.0,0.0,-1.0));
#77=DIRECTION('',(1.0,0.0,0.0));
#78=AXIS2_PLACEMENT_3D('',#75,#76,#77);
#79=CIRCLE('',#78,8.000000000000002);
#80=EDGE_CURVE('',#74,#74,#79,.T.);
#81=ORIENTED_EDGE('',*,*,#80,.F.);
#82=EDGE_LOOP('',(#81));
#83=FACE_OUTER_BOUND('',#82,.T.);
#84=CARTESIAN_POINT('',(8.000000000000002,0.0,-3.500000000000001));
#85=VERTEX_POINT('',#84);
#86=CARTESIAN_POINT('',(0.0,0.0,-3.500000000000001));
#87=DIRECTION('',(0.0,0.0,1.0));
#88=DIRECTION('',(1.0,0.0,0.0));
#89=AXIS2_PLACEMENT_3D('',#86,#87,#88);
#90=CIRCLE('',#89,8.000000000000002);
#91=EDGE_CURVE('',#85,#85,#90,.T.);
#92=ORIENTED_EDGE('',*,*,#91,.F.);
#93=EDGE_LOOP('',(#92));
#94=FACE_BOUND('',#93,.T.);
#95=ADVANCED_FACE('',(#83,#94),#72,.T.);
#96=CARTESIAN_POINT('',(0.707106781186516,-6.363961030678933,-31.500000000000007));
#97=DIRECTION('',(-0.707106781186551,-0.707106781186544,0.0));
#98=DIRECTION('',(0.0,0.0,1.0));
#99=AXIS2_PLACEMENT_3D('',#96,#97,#98);
#100=PLANE('',#99);
#101=CARTESIAN_POINT('',(-6.363961030678925,0.707106781186579,-24.500000000000007));
#102=VERTEX_POINT('',#101);
#103=CARTESIAN_POINT('',(0.707106781186516,-6.363961030678933,-24.500000000000007));
#104=VERTEX_POINT('',#103);
#105=CARTESIAN_POINT('',(-6.363961030678925,0.707106781186579,-24.500000000000007));
#106=DIRECTION('',(0.707106781186544,-0.707106781186551,0.0));
#107=VECTOR('',#106,10.000000000000002);
#108=LINE('',#105,#107);
#109=EDGE_CURVE('',#102,#104,#108,.T.);
#110=ORIENTED_EDGE('',*,*,#109,.F.);
#111=CARTESIAN_POINT('',(-6.363961030678925,0.707106781186579,-31.500000000000007));
#112=VERTEX_POINT('',#111);
#113=CARTESIAN_POINT('',(-6.363961030678925,0.707106781186579,-31.500000000000007));
#114=DIRECTION('',(0.0,0.0,1.0));
#115=VECTOR('',#114,7.0);
#116=LINE('',#113,#115);
#117=EDGE_CURVE('',#112,#102,#116,.T.);
#118=ORIENTED_EDGE('',*,*,#117,.F.);
#119=CARTESIAN_POINT('',(0.707106781186516,-6.363961030678933,-31.500000000000007));
#120=VERTEX_POINT('',#119);
#121=CARTESIAN_POINT('',(0.707106781186516,-6.363961030678932,-31.500000000000007));
#122=DIRECTION('',(-0.707106781186544,0.707106781186551,0.0));
#123=VECTOR('',#122,10.000000000000002);
#124=LINE('',#121,#123);
#125=EDGE_CURVE('',#120,#112,#124,.T.);
#126=ORIENTED_EDGE('',*,*,#125,.F.);
#127=CARTESIAN_POINT('',(0.707106781186516,-6.363961030678933,-31.500000000000007));
#128=DIRECTION('',(0.0,0.0,1.0));
#129=VECTOR('',#128,7.0);
#130=LINE('',#127,#129);
#131=EDGE_CURVE('',#120,#104,#130,.T.);
#132=ORIENTED_EDGE('',*,*,#131,.T.);
#133=EDGE_LOOP('',(#110,#118,#126,#132));
#134=FACE_OUTER_BOUND('',#133,.T.);
#135=ADVANCED_FACE('',(#134),#100,.T.);
#136=CARTESIAN_POINT('',(-6.363961030678925,0.707106781186579,-31.500000000000007));
#137=DIRECTION('',(-1.0,0.0,0.0));
#138=DIRECTION('',(0.0,0.0,1.0));
#139=AXIS2_PLACEMENT_3D('',#136,#137,#138);
#140=PLANE('',#139);
#141=CARTESIAN_POINT('',(-6.363961030678919,2.121320343559674,-24.500000000000007));
#142=VERTEX_POINT('',#141);
#143=CARTESIAN_POINT('',(-6.363961030678919,2.121320343559674,-24.500000000000007));
#144=DIRECTION('',(0.0,-1.0,0.0));
#145=VECTOR('',#144,1.414213562373095);
#146=LINE('',#143,#145);
#147=EDGE_CURVE('',#142,#102,#146,.T.);
#148=ORIENTED_EDGE('',*,*,#147,.F.);
#149=CARTESIAN_POINT('',(-6.363961030678919,2.121320343559674,-31.500000000000007));
#150=VERTEX_POINT('',#149);
#151=CARTESIAN_POINT('',(-6.363961030678919,2.121320343559674,-31.500000000000007));
#152=DIRECTION('',(0.0,0.0,1.0));
#153=VECTOR('',#152,7.0);
#154=LINE('',#151,#153);
#155=EDGE_CURVE('',#150,#142,#154,.T.);
#156=ORIENTED_EDGE('',*,*,#155,.F.);
#157=CARTESIAN_POINT('',(-6.363961030678926,0.707106781186579,-31.500000000000007));
#158=DIRECTION('',(0.0,1.0,0.0));
#159=VECTOR('',#158,1.414213562373095);
#160=LINE('',#157,#159);
#161=EDGE_CURVE('',#112,#150,#160,.T.);
#162=ORIENTED_EDGE('',*,*,#161,.F.);
#163=ORIENTED_EDGE('',*,*,#117,.T.);
#164=EDGE_LOOP('',(#148,#156,#162,#163));
#165=FACE_OUTER_BOUND('',#164,.T.);
#166=ADVANCED_FACE('',(#165),#140,.T.);
#167=CARTESIAN_POINT('',(-6.363961030678919,2.121320343559674,-31.500000000000007));
#168=DIRECTION('',(-0.707106781186544,0.707106781186551,0.0));
#169=DIRECTION('',(0.0,0.0,1.0));
#170=AXIS2_PLACEMENT_3D('',#167,#168,#169);
#171=PLANE('',#170);
#172=CARTESIAN_POINT('',(-2.121320343559622,6.363961030678929,-24.500000000000007));
#173=VERTEX_POINT('',#172);
#174=CARTESIAN_POINT('',(-2.121320343559623,6.363961030678929,-24.500000000000007));
#175=DIRECTION('',(-0.707106781186551,-0.707106781186544,0.0));
#176=VECTOR('',#175,5.999999999999985);
#177=LINE('',#174,#176);
#178=EDGE_CURVE('',#173,#142,#177,.T.);
#179=ORIENTED_EDGE('',*,*,#178,.F.);
#180=CARTESIAN_POINT('',(-2.121320343559622,6.363961030678929,-31.500000000000007));
#181=VERTEX_POINT('',#180);
#182=CARTESIAN_POINT('',(-2.121320343559622,6.363961030678929,-31.500000000000007));
#183=DIRECTION('',(0.0,0.0,1.0));
#184=VECTOR('',#183,7.0);
#185=LINE('',#182,#184);
#186=EDGE_CURVE('',#181,#173,#185,.T.);
#187=ORIENTED_EDGE('',*,*,#186,.F.);
#188=CARTESIAN_POINT('',(-6.363961030678919,2.121320343559675,-31.500000000000007));
#189=DIRECTION('',(0.707106781186551,0.707106781186544,0.0));
#190=VECTOR('',#189,5.999999999999986);
#191=LINE('',#188,#190);
#192=EDGE_CURVE('',#150,#181,#191,.T.);
#193=ORIENTED_EDGE('',*,*,#192,.F.);
#194=ORIENTED_EDGE('',*,*,#155,.T.);
#195=EDGE_LOOP('',(#179,#187,#193,#194));
#196=FACE_OUTER_BOUND('',#195,.T.);
#197=ADVANCED_FACE('',(#196),#171,.T.);
#198=CARTESIAN_POINT('',(-2.121320343559622,6.363961030678929,-31.500000000000007));
#199=DIRECTION('',(0.0,1.0,0.0));
#200=DIRECTION('',(0.0,0.0,-1.0));
#201=AXIS2_PLACEMENT_3D('',#198,#199,#200);
#202=PLANE('',#201);
#203=CARTESIAN_POINT('',(-0.707106781186496,6.363961030678913,-24.500000000000007));
#204=VERTEX_POINT('',#203);
#205=CARTESIAN_POINT('',(-0.707106781186496,6.363961030678922,-24.500000000000007));
#206=DIRECTION('',(-1.0,0.0,0.0));
#207=VECTOR('',#206,1.414213562373126);
#208=LINE('',#205,#207);
#209=EDGE_CURVE('',#204,#173,#208,.T.);
#210=ORIENTED_EDGE('',*,*,#209,.F.);
#211=CARTESIAN_POINT('',(-0.707106781186496,6.363961030678913,-31.500000000000007));
#212=VERTEX_POINT('',#211);
#213=CARTESIAN_POINT('',(-0.707106781186496,6.363961030678913,-31.500000000000007));
#214=DIRECTION('',(0.0,0.0,1.0));
#215=VECTOR('',#214,7.0);
#216=LINE('',#213,#215);
#217=EDGE_CURVE('',#212,#204,#216,.T.);
#218=ORIENTED_EDGE('',*,*,#217,.F.);
#219=CARTESIAN_POINT('',(-2.121320343559622,6.363961030678929,-31.500000000000007));
#220=DIRECTION('',(1.0,0.0,0.0));
#221=VECTOR('',#220,1.414213562373126);
#222=LINE('',#219,#221);
#223=EDGE_CURVE('',#181,#212,#222,.T.);
#224=ORIENTED_EDGE('',*,*,#223,.F.);
#225=ORIENTED_EDGE('',*,*,#186,.T.);
#226=EDGE_LOOP('',(#210,#218,#224,#225));
#227=FACE_OUTER_BOUND('',#226,.T.);
#228=ADVANCED_FACE('',(#227),#202,.T.);
#229=CARTESIAN_POINT('',(-0.707106781186496,6.363961030678913,-31.500000000000007));
#230=DIRECTION('',(0.70710678118655,0.707106781186545,0.0));
#231=DIRECTION('',(0.0,0.0,-1.0));
#232=AXIS2_PLACEMENT_3D('',#229,#230,#231);
#233=PLANE('',#232);
#234=CARTESIAN_POINT('',(6.363961030678925,-0.707106781186579,-24.500000000000007));
#235=VERTEX_POINT('',#234);
#236=CARTESIAN_POINT('',(6.363961030678936,-0.707106781186569,-24.500000000000007));
#237=DIRECTION('',(-0.707106781186545,0.70710678118655,0.0));
#238=VECTOR('',#237,9.999999999999975);
#239=LINE('',#236,#238);
#240=EDGE_CURVE('',#235,#204,#239,.T.);
#241=ORIENTED_EDGE('',*,*,#240,.F.);
#242=CARTESIAN_POINT('',(6.363961030678925,-0.707106781186579,-31.500000000000007));
#243=VERTEX_POINT('',#242);
#244=CARTESIAN_POINT('',(6.363961030678925,-0.707106781186579,-31.500000000000007));
#245=DIRECTION('',(0.0,0.0,1.0));
#246=VECTOR('',#245,7.0);
#247=LINE('',#244,#246);
#248=EDGE_CURVE('',#243,#235,#247,.T.);
#249=ORIENTED_EDGE('',*,*,#248,.F.);
#250=CARTESIAN_POINT('',(-0.707106781186501,6.363961030678907,-31.500000000000007));
#251=DIRECTION('',(0.707106781186545,-0.70710678118655,0.0));
#252=VECTOR('',#251,9.999999999999973);
#253=LINE('',#250,#252);
#254=EDGE_CURVE('',#212,#243,#253,.T.);
#255=ORIENTED_EDGE('',*,*,#254,.F.);
#256=ORIENTED_EDGE('',*,*,#217,.T.);
#257=EDGE_LOOP('',(#241,#249,#255,#256));
#258=FACE_OUTER_BOUND('',#257,.T.);
#259=ADVANCED_FACE('',(#258),#233,.T.);
#260=CARTESIAN_POINT('',(6.363961030678925,-0.707106781186579,-31.500000000000007));
#261=DIRECTION('',(1.0,0.0,0.0));
#262=DIRECTION('',(0.0,0.0,-1.0));
#263=AXIS2_PLACEMENT_3D('',#260,#261,#262);
#264=PLANE('',#263);
#265=CARTESIAN_POINT('',(6.363961030678919,-2.121320343559674,-24.500000000000007));
#266=VERTEX_POINT('',#265);
#267=CARTESIAN_POINT('',(6.363961030678919,-2.121320343559674,-24.500000000000007));
#268=DIRECTION('',(0.0,1.0,0.0));
#269=VECTOR('',#268,1.414213562373095);
#270=LINE('',#267,#269);
#271=EDGE_CURVE('',#266,#235,#270,.T.);
#272=ORIENTED_EDGE('',*,*,#271,.F.);
#273=CARTESIAN_POINT('',(6.363961030678919,-2.121320343559674,-31.500000000000007));
#274=VERTEX_POINT('',#273);
#275=CARTESIAN_POINT('',(6.363961030678919,-2.121320343559674,-31.500000000000007));
#276=DIRECTION('',(0.0,0.0,1.0));
#277=VECTOR('',#276,7.0);
#278=LINE('',#275,#277);
#279=EDGE_CURVE('',#274,#266,#278,.T.);
#280=ORIENTED_EDGE('',*,*,#279,.F.);
#281=CARTESIAN_POINT('',(6.363961030678926,-0.707106781186579,-31.500000000000007));
#282=DIRECTION('',(0.0,-1.0,0.0));
#283=VECTOR('',#282,1.414213562373095);
#284=LINE('',#281,#283);
#285=EDGE_CURVE('',#243,#274,#284,.T.);
#286=ORIENTED_EDGE('',*,*,#285,.F.);
#287=ORIENTED_EDGE('',*,*,#248,.T.);
#288=EDGE_LOOP('',(#272,#280,#286,#287));
#289=FACE_OUTER_BOUND('',#288,.T.);
#290=ADVANCED_FACE('',(#289),#264,.T.);
#291=CARTESIAN_POINT('',(6.363961030678919,-2.121320343559674,-31.500000000000007));
#292=DIRECTION('',(0.707106781186544,-0.707106781186551,0.0));
#293=DIRECTION('',(0.0,0.0,-1.0));
#294=AXIS2_PLACEMENT_3D('',#291,#292,#293);
#295=PLANE('',#294);
#296=CARTESIAN_POINT('',(2.121320343559612,-6.36396103067894,-24.500000000000007));
#297=VERTEX_POINT('',#296);
#298=CARTESIAN_POINT('',(2.121320343559613,-6.363961030678939,-24.500000000000007));
#299=DIRECTION('',(0.707106781186551,0.707106781186544,0.0));
#300=VECTOR('',#299,6.0);
#301=LINE('',#298,#300);
#302=EDGE_CURVE('',#297,#266,#301,.T.);
#303=ORIENTED_EDGE('',*,*,#302,.F.);
#304=CARTESIAN_POINT('',(2.121320343559612,-6.36396103067894,-31.500000000000007));
#305=VERTEX_POINT('',#304);
#306=CARTESIAN_POINT('',(2.121320343559612,-6.36396103067894,-31.500000000000007));
#307=DIRECTION('',(0.0,0.0,1.0));
#308=VECTOR('',#307,7.0);
#309=LINE('',#306,#308);
#310=EDGE_CURVE('',#305,#297,#309,.T.);
#311=ORIENTED_EDGE('',*,*,#310,.F.);
#312=CARTESIAN_POINT('',(6.363961030678919,-2.121320343559675,-31.500000000000007));
#313=DIRECTION('',(-0.707106781186551,-0.707106781186544,0.0));
#314=VECTOR('',#313,6.000000000000001);
#315=LINE('',#312,#314);
#316=EDGE_CURVE('',#274,#305,#315,.T.);
#317=ORIENTED_EDGE('',*,*,#316,.F.);
#318=ORIENTED_EDGE('',*,*,#279,.T.);
#319=EDGE_LOOP('',(#303,#311,#317,#318));
#320=FACE_OUTER_BOUND('',#319,.T.);
#321=ADVANCED_FACE('',(#320),#295,.T.);
#322=CARTESIAN_POINT('',(2.121320343559612,-6.36396103067894,-31.500000000000007));
#323=DIRECTION('',(0.0,-1.0,0.0));
#324=DIRECTION('',(0.0,0.0,1.0));
#325=AXIS2_PLACEMENT_3D('',#322,#323,#324);
#326=PLANE('',#325);
#327=CARTESIAN_POINT('',(0.707106781186516,-6.363961030678933,-24.500000000000007));
#328=DIRECTION('',(1.0,0.0,0.0));
#329=VECTOR('',#328,1.414213562373095);
#330=LINE('',#327,#329);
#331=EDGE_CURVE('',#104,#297,#330,.T.);
#332=ORIENTED_EDGE('',*,*,#331,.F.);
#333=ORIENTED_EDGE('',*,*,#131,.F.);
#334=CARTESIAN_POINT('',(2.121320343559612,-6.36396103067894,-31.500000000000007));
#335=DIRECTION('',(-1.0,0.0,0.0));
#336=VECTOR('',#335,1.414213562373095);
#337=LINE('',#334,#336);
#338=EDGE_CURVE('',#305,#120,#337,.T.);
#339=ORIENTED_EDGE('',*,*,#338,.F.);
#340=ORIENTED_EDGE('',*,*,#310,.T.);
#341=EDGE_LOOP('',(#332,#333,#339,#340));
#342=FACE_OUTER_BOUND('',#341,.T.);
#343=ADVANCED_FACE('',(#342),#326,.T.);
#344=CARTESIAN_POINT('',(1.414213562373067,-5.656854249492388,-31.500000000000007));
#345=DIRECTION('',(-0.707106781186544,0.707106781186551,0.0));
#346=DIRECTION('',(0.0,0.0,1.0));
#347=AXIS2_PLACEMENT_3D('',#344,#345,#346);
#348=PLANE('',#347);
#349=CARTESIAN_POINT('',(5.656854249492374,-1.414213562373123,-24.500000000000007));
#350=VERTEX_POINT('',#349);
#351=CARTESIAN_POINT('',(1.414213562373067,-5.656854249492388,-24.500000000000007));
#352=VERTEX_POINT('',#351);
#353=CARTESIAN_POINT('',(5.656854249492374,-1.414213562373123,-24.500000000000007));
#354=DIRECTION('',(-0.707106781186551,-0.707106781186544,0.0));
#355=VECTOR('',#354,6.000000000000001);
#356=LINE('',#353,#355);
#357=EDGE_CURVE('',#350,#352,#356,.T.);
#358=ORIENTED_EDGE('',*,*,#357,.F.);
#359=CARTESIAN_POINT('',(5.656854249492374,-1.414213562373123,-31.500000000000007));
#360=VERTEX_POINT('',#359);
#361=CARTESIAN_POINT('',(5.656854249492374,-1.414213562373123,-31.500000000000007));
#362=DIRECTION('',(0.0,0.0,1.0));
#363=VECTOR('',#362,7.0);
#364=LINE('',#361,#363);
#365=EDGE_CURVE('',#360,#350,#364,.T.);
#366=ORIENTED_EDGE('',*,*,#365,.F.);
#367=CARTESIAN_POINT('',(1.414213562373067,-5.656854249492388,-31.500000000000007));
#368=VERTEX_POINT('',#367);
#369=CARTESIAN_POINT('',(5.656854249492374,-1.414213562373123,-31.500000000000007));
#370=DIRECTION('',(-0.707106781186551,-0.707106781186544,0.0));
#371=VECTOR('',#370,6.000000000000001);
#372=LINE('',#369,#371);
#373=EDGE_CURVE('',#360,#368,#372,.T.);
#374=ORIENTED_EDGE('',*,*,#373,.T.);
#375=CARTESIAN_POINT('',(1.414213562373067,-5.656854249492388,-31.500000000000007));
#376=DIRECTION('',(0.0,0.0,1.0));
#377=VECTOR('',#376,7.0);
#378=LINE('',#375,#377);
#379=EDGE_CURVE('',#368,#352,#378,.T.);
#380=ORIENTED_EDGE('',*,*,#379,.T.);
#381=EDGE_LOOP('',(#358,#366,#374,#380));
#382=FACE_OUTER_BOUND('',#381,.T.);
#383=ADVANCED_FACE('',(#382),#348,.T.);
#384=CARTESIAN_POINT('',(5.656854249492374,-1.414213562373123,-31.500000000000007));
#385=DIRECTION('',(-0.707106781186551,-0.707106781186544,0.0));
#386=DIRECTION('',(0.0,0.0,1.0));
#387=AXIS2_PLACEMENT_3D('',#384,#385,#386);
#388=PLANE('',#387);
#389=CARTESIAN_POINT('',(-1.414213562373067,5.656854249492388,-24.500000000000007));
#390=VERTEX_POINT('',#389);
#391=CARTESIAN_POINT('',(-1.414213562373067,5.656854249492388,-24.500000000000007));
#392=DIRECTION('',(0.707106781186544,-0.707106781186551,0.0));
#393=VECTOR('',#392,10.000000000000002);
#394=LINE('',#391,#393);
#395=EDGE_CURVE('',#390,#350,#394,.T.);
#396=ORIENTED_EDGE('',*,*,#395,.F.);
#397=CARTESIAN_POINT('',(-1.414213562373067,5.656854249492388,-31.500000000000007));
#398=VERTEX_POINT('',#397);
#399=CARTESIAN_POINT('',(-1.414213562373067,5.656854249492388,-31.500000000000007));
#400=DIRECTION('',(0.0,0.0,1.0));
#401=VECTOR('',#400,7.0);
#402=LINE('',#399,#401);
#403=EDGE_CURVE('',#398,#390,#402,.T.);
#404=ORIENTED_EDGE('',*,*,#403,.F.);
#405=CARTESIAN_POINT('',(-1.414213562373067,5.656854249492389,-31.500000000000007));
#406=DIRECTION('',(0.707106781186544,-0.707106781186551,0.0));
#407=VECTOR('',#406,10.000000000000002);
#408=LINE('',#405,#407);
#409=EDGE_CURVE('',#398,#360,#408,.T.);
#410=ORIENTED_EDGE('',*,*,#409,.T.);
#411=ORIENTED_EDGE('',*,*,#365,.T.);
#412=EDGE_LOOP('',(#396,#404,#410,#411));
#413=FACE_OUTER_BOUND('',#412,.T.);
#414=ADVANCED_FACE('',(#413),#388,.T.);
#415=CARTESIAN_POINT('',(-1.414213562373067,5.656854249492388,-31.500000000000007));
#416=DIRECTION('',(0.707106781186544,-0.707106781186551,0.0));
#417=DIRECTION('',(0.0,0.0,-1.0));
#418=AXIS2_PLACEMENT_3D('',#415,#416,#417);
#419=PLANE('',#418);
#420=CARTESIAN_POINT('',(-5.656854249492374,1.414213562373123,-24.500000000000007));
#421=VERTEX_POINT('',#420);
#422=CARTESIAN_POINT('',(-5.656854249492374,1.414213562373123,-24.500000000000007));
#423=DIRECTION('',(0.707106781186551,0.707106781186544,0.0));
#424=VECTOR('',#423,6.000000000000001);
#425=LINE('',#422,#424);
#426=EDGE_CURVE('',#421,#390,#425,.T.);
#427=ORIENTED_EDGE('',*,*,#426,.F.);
#428=CARTESIAN_POINT('',(-5.656854249492374,1.414213562373123,-31.500000000000007));
#429=VERTEX_POINT('',#428);
#430=CARTESIAN_POINT('',(-5.656854249492374,1.414213562373123,-31.500000000000007));
#431=DIRECTION('',(0.0,0.0,1.0));
#432=VECTOR('',#431,7.0);
#433=LINE('',#430,#432);
#434=EDGE_CURVE('',#429,#421,#433,.T.);
#435=ORIENTED_EDGE('',*,*,#434,.F.);
#436=CARTESIAN_POINT('',(-5.656854249492374,1.414213562373123,-31.500000000000007));
#437=DIRECTION('',(0.707106781186551,0.707106781186544,0.0));
#438=VECTOR('',#437,6.000000000000001);
#439=LINE('',#436,#438);
#440=EDGE_CURVE('',#429,#398,#439,.T.);
#441=ORIENTED_EDGE('',*,*,#440,.T.);
#442=ORIENTED_EDGE('',*,*,#403,.T.);
#443=EDGE_LOOP('',(#427,#435,#441,#442));
#444=FACE_OUTER_BOUND('',#443,.T.);
#445=ADVANCED_FACE('',(#444),#419,.T.);
#446=CARTESIAN_POINT('',(-5.656854249492374,1.414213562373123,-31.500000000000007));
#447=DIRECTION('',(0.707106781186551,0.707106781186544,0.0));
#448=DIRECTION('',(0.0,0.0,-1.0));
#449=AXIS2_PLACEMENT_3D('',#446,#447,#448);
#450=PLANE('',#449);
#451=CARTESIAN_POINT('',(1.414213562373067,-5.656854249492388,-24.500000000000007));
#452=DIRECTION('',(-0.707106781186544,0.707106781186551,0.0));
#453=VECTOR('',#452,10.000000000000002);
#454=LINE('',#451,#453);
#455=EDGE_CURVE('',#352,#421,#454,.T.);
#456=ORIENTED_EDGE('',*,*,#455,.F.);
#457=ORIENTED_EDGE('',*,*,#379,.F.);
#458=CARTESIAN_POINT('',(1.414213562373067,-5.656854249492389,-31.500000000000007));
#459=DIRECTION('',(-0.707106781186544,0.707106781186551,0.0));
#460=VECTOR('',#459,10.000000000000002);
#461=LINE('',#458,#460);
#462=EDGE_CURVE('',#368,#429,#461,.T.);
#463=ORIENTED_EDGE('',*,*,#462,.T.);
#464=ORIENTED_EDGE('',*,*,#434,.T.);
#465=EDGE_LOOP('',(#456,#457,#463,#464));
#466=FACE_OUTER_BOUND('',#465,.T.);
#467=ADVANCED_FACE('',(#466),#450,.T.);
#468=CARTESIAN_POINT('',(-3.014578E-014,-3.014578E-014,-31.500000000000007));
#469=DIRECTION('',(0.0,0.0,1.0));
#470=DIRECTION('',(0.707106781186551,0.707106781186544,0.0));
#471=AXIS2_PLACEMENT_3D('',#468,#469,#470);
#472=PLANE('',#471);
#473=ORIENTED_EDGE('',*,*,#338,.T.);
#474=ORIENTED_EDGE('',*,*,#125,.T.);
#475=ORIENTED_EDGE('',*,*,#161,.T.);
#476=ORIENTED_EDGE('',*,*,#192,.T.);
#477=ORIENTED_EDGE('',*,*,#223,.T.);
#478=ORIENTED_EDGE('',*,*,#254,.T.);
#479=ORIENTED_EDGE('',*,*,#285,.T.);
#480=ORIENTED_EDGE('',*,*,#316,.T.);
#481=EDGE_LOOP('',(#473,#474,#475,#476,#477,#478,#479,#480));
#482=FACE_OUTER_BOUND('',#481,.T.);
#483=ORIENTED_EDGE('',*,*,#462,.F.);
#484=ORIENTED_EDGE('',*,*,#373,.F.);
#485=ORIENTED_EDGE('',*,*,#409,.F.);
#486=ORIENTED_EDGE('',*,*,#440,.F.);
#487=EDGE_LOOP('',(#483,#484,#485,#486));
#488=FACE_BOUND('',#487,.T.);
#489=ADVANCED_FACE('',(#482,#488),#472,.F.);
#490=CARTESIAN_POINT('',(0.636363636363626,0.0,-24.500000000000007));
#491=DIRECTION('',(0.0,0.0,1.0));
#492=DIRECTION('',(1.0,0.0,0.0));
#493=AXIS2_PLACEMENT_3D('',#490,#491,#492);
#494=PLANE('',#493);
#495=ORIENTED_EDGE('',*,*,#357,.T.);
#496=ORIENTED_EDGE('',*,*,#455,.T.);
#497=ORIENTED_EDGE('',*,*,#426,.T.);
#498=ORIENTED_EDGE('',*,*,#395,.T.);
#499=EDGE_LOOP('',(#495,#496,#497,#498));
#500=FACE_OUTER_BOUND('',#499,.T.);
#501=ADVANCED_FACE('',(#500),#494,.F.);
#502=CARTESIAN_POINT('',(0.0,0.0,-24.500000000000007));
#503=DIRECTION('',(0.0,0.0,1.0));
#504=DIRECTION('',(1.0,0.0,0.0));
#505=AXIS2_PLACEMENT_3D('',#502,#503,#504);
#506=CYLINDRICAL_SURFACE('',#505,7.000000000000002);
#507=CARTESIAN_POINT('',(7.000000000000002,0.0,-13.500000000000005));
#508=VERTEX_POINT('',#507);
#509=CARTESIAN_POINT('',(0.0,0.0,-13.500000000000004));
#510=DIRECTION('',(0.0,0.0,1.0));
#511=DIRECTION('',(1.0,0.0,0.0));
#512=AXIS2_PLACEMENT_3D('',#509,#510,#511);
#513=CIRCLE('',#512,7.000000000000002);
#514=EDGE_CURVE('',#508,#508,#513,.T.);
#515=ORIENTED_EDGE('',*,*,#514,.F.);
#516=EDGE_LOOP('',(#515));
#517=FACE_OUTER_BOUND('',#516,.T.);
#518=CARTESIAN_POINT('',(7.000000000000002,0.0,-24.500000000000007));
#519=VERTEX_POINT('',#518);
#520=CARTESIAN_POINT('',(0.0,0.0,-24.500000000000007));
#521=DIRECTION('',(0.0,0.0,1.0));
#522=DIRECTION('',(1.0,0.0,0.0));
#523=AXIS2_PLACEMENT_3D('',#520,#521,#522);
#524=CIRCLE('',#523,7.000000000000002);
#525=EDGE_CURVE('',#519,#519,#524,.T.);
#526=ORIENTED_EDGE('',*,*,#525,.T.);
#527=EDGE_LOOP('',(#526));
#528=FACE_BOUND('',#527,.T.);
#529=ADVANCED_FACE('',(#517,#528),#506,.T.);
#530=CARTESIAN_POINT('',(0.636363636363626,0.0,-24.500000000000007));
#531=DIRECTION('',(0.0,0.0,1.0));
#532=DIRECTION('',(1.0,0.0,0.0));
#533=AXIS2_PLACEMENT_3D('',#530,#531,#532);
#534=PLANE('',#533);
#535=ORIENTED_EDGE('',*,*,#525,.F.);
#536=EDGE_LOOP('',(#535));
#537=FACE_OUTER_BOUND('',#536,.T.);
#538=ORIENTED_EDGE('',*,*,#109,.T.);
#539=ORIENTED_EDGE('',*,*,#331,.T.);
#540=ORIENTED_EDGE('',*,*,#302,.T.);
#541=ORIENTED_EDGE('',*,*,#271,.T.);
#542=ORIENTED_EDGE('',*,*,#240,.T.);
#543=ORIENTED_EDGE('',*,*,#209,.T.);
#544=ORIENTED_EDGE('',*,*,#178,.T.);
#545=ORIENTED_EDGE('',*,*,#147,.T.);
#546=EDGE_LOOP('',(#538,#539,#540,#541,#542,#543,#544,#545));
#547=FACE_BOUND('',#546,.T.);
#548=ADVANCED_FACE('',(#537,#547),#534,.F.);
#549=CARTESIAN_POINT('',(0.0,0.0,-13.500000000000004));
#550=DIRECTION('',(0.0,0.0,1.0));
#551=DIRECTION('',(1.0,0.0,0.0));
#552=AXIS2_PLACEMENT_3D('',#549,#550,#551);
#553=CYLINDRICAL_SURFACE('',#552,8.750000000000002);
#554=CARTESIAN_POINT('',(8.750000000000002,0.0,-5.500000000000002));
#555=VERTEX_POINT('',#554);
#556=CARTESIAN_POINT('',(0.0,0.0,-5.500000000000002));
#557=DIRECTION('',(0.0,0.0,-1.0));
#558=DIRECTION('',(1.0,0.0,0.0));
#559=AXIS2_PLACEMENT_3D('',#556,#557,#558);
#560=CIRCLE('',#559,8.750000000000002);
#561=EDGE_CURVE('',#555,#555,#560,.T.);
#562=ORIENTED_EDGE('',*,*,#561,.T.);
#563=EDGE_LOOP('',(#562));
#564=FACE_OUTER_BOUND('',#563,.T.);
#565=CARTESIAN_POINT('',(8.750000000000002,0.0,-13.500000000000004));
#566=VERTEX_POINT('',#565);
#567=CARTESIAN_POINT('',(0.0,0.0,-13.500000000000004));
#568=DIRECTION('',(0.0,0.0,1.0));
#569=DIRECTION('',(1.0,0.0,0.0));
#570=AXIS2_PLACEMENT_3D('',#567,#568,#569);
#571=CIRCLE('',#570,8.750000000000002);
#572=EDGE_CURVE('',#566,#566,#571,.T.);
#573=ORIENTED_EDGE('',*,*,#572,.T.);
#574=EDGE_LOOP('',(#573));
#575=FACE_BOUND('',#574,.T.);
#576=ADVANCED_FACE('',(#564,#575),#553,.T.);
#577=CARTESIAN_POINT('',(0.795454545454546,8.074349E-017,-13.500000000000004));
#578=DIRECTION('',(0.0,0.0,1.0));
#579=DIRECTION('',(1.0,0.0,0.0));
#580=AXIS2_PLACEMENT_3D('',#577,#578,#579);
#581=PLANE('',#580);
#582=ORIENTED_EDGE('',*,*,#572,.F.);
#583=EDGE_LOOP('',(#582));
#584=FACE_OUTER_BOUND('',#583,.T.);
#585=ORIENTED_EDGE('',*,*,#514,.T.);
#586=EDGE_LOOP('',(#585));
#587=FACE_BOUND('',#586,.T.);
#588=ADVANCED_FACE('',(#584,#587),#581,.F.);
#589=CARTESIAN_POINT('',(0.795454545454546,8.074349E-017,-5.500000000000002));
#590=DIRECTION('',(0.0,0.0,1.0));
#591=DIRECTION('',(1.0,0.0,0.0));
#592=AXIS2_PLACEMENT_3D('',#589,#590,#591);
#593=PLANE('',#592);
#594=ORIENTED_EDGE('',*,*,#561,.F.);
#595=EDGE_LOOP('',(#594));
#596=FACE_OUTER_BOUND('',#595,.T.);
#597=ORIENTED_EDGE('',*,*,#80,.T.);
#598=EDGE_LOOP('',(#597));
#599=FACE_BOUND('',#598,.T.);
#600=ADVANCED_FACE('',(#596,#599),#593,.T.);
#601=CARTESIAN_POINT('',(1.136363636363626,0.0,9.500000000000002));
#602=DIRECTION('',(0.0,0.0,1.0));
#603=DIRECTION('',(1.0,0.0,0.0));
#604=AXIS2_PLACEMENT_3D('',#601,#602,#603);
#605=PLANE('',#604);
#606=CARTESIAN_POINT('',(12.000000000000002,0.0,9.500000000000002));
#607=VERTEX_POINT('',#606);
#608=CARTESIAN_POINT('',(0.0,0.0,9.500000000000002));
#609=DIRECTION('',(0.0,0.0,1.0));
#610=DIRECTION('',(-1.0,0.0,0.0));
#611=AXIS2_PLACEMENT_3D('',#608,#609,#610);
#612=CIRCLE('',#611,12.000000000000002);
#613=EDGE_CURVE('',#607,#607,#612,.T.);
#614=ORIENTED_EDGE('',*,*,#613,.F.);
#615=EDGE_LOOP('',(#614));
#616=FACE_OUTER_BOUND('',#615,.T.);
#617=CARTESIAN_POINT('',(11.000000000000004,0.0,9.500000000000002));
#618=VERTEX_POINT('',#617);
#619=CARTESIAN_POINT('',(0.0,0.0,9.500000000000002));
#620=DIRECTION('',(0.0,0.0,-1.0));
#621=DIRECTION('',(1.0,0.0,0.0));
#622=AXIS2_PLACEMENT_3D('',#619,#620,#621);
#623=CIRCLE('',#622,11.000000000000004);
#624=EDGE_CURVE('',#618,#618,#623,.T.);
#625=ORIENTED_EDGE('',*,*,#624,.F.);
#626=EDGE_LOOP('',(#625));
#627=FACE_BOUND('',#626,.T.);
#628=ADVANCED_FACE('',(#616,#627),#605,.F.);
#629=CARTESIAN_POINT('',(0.0,0.0,10.000000000000002));
#630=DIRECTION('',(0.0,0.0,1.0));
#631=DIRECTION('',(1.0,0.0,0.0));
#632=AXIS2_PLACEMENT_3D('',#629,#630,#631);
#633=TOROIDAL_SURFACE('',#632,12.000000000000002,0.5);
#634=ORIENTED_EDGE('',*,*,#613,.T.);
#635=EDGE_LOOP('',(#634));
#636=FACE_OUTER_BOUND('',#635,.T.);
#637=CARTESIAN_POINT('',(12.500000000000002,0.0,10.000000000000002));
#638=VERTEX_POINT('',#637);
#639=CARTESIAN_POINT('',(0.0,0.0,10.000000000000002));
#640=DIRECTION('',(0.0,0.0,-1.0));
#641=DIRECTION('',(-1.0,0.0,0.0));
#642=AXIS2_PLACEMENT_3D('',#639,#640,#641);
#643=CIRCLE('',#642,12.500000000000002);
#644=EDGE_CURVE('',#638,#638,#643,.T.);
#645=ORIENTED_EDGE('',*,*,#644,.T.);
#646=EDGE_LOOP('',(#645));
#647=FACE_BOUND('',#646,.T.);
#648=ADVANCED_FACE('',(#636,#647),#633,.T.);
#649=CARTESIAN_POINT('',(0.0,0.0,9.500000000000002));
#650=DIRECTION('',(0.0,0.0,1.0));
#651=DIRECTION('',(1.0,0.0,0.0));
#652=AXIS2_PLACEMENT_3D('',#649,#650,#651);
#653=CYLINDRICAL_SURFACE('',#652,12.500000000000002);
#654=CARTESIAN_POINT('',(12.500000000000002,0.0,13.500000000000004));
#655=VERTEX_POINT('',#654);
#656=CARTESIAN_POINT('',(0.0,0.0,13.500000000000004));
#657=DIRECTION('',(0.0,0.0,1.0));
#658=DIRECTION('',(-1.0,0.0,0.0));
#659=AXIS2_PLACEMENT_3D('',#656,#657,#658);
#660=CIRCLE('',#659,12.500000000000002);
#661=EDGE_CURVE('',#655,#655,#660,.T.);
#662=ORIENTED_EDGE('',*,*,#661,.F.);
#663=EDGE_LOOP('',(#662));
#664=FACE_OUTER_BOUND('',#663,.T.);
#665=ORIENTED_EDGE('',*,*,#644,.F.);
#666=EDGE_LOOP('',(#665));
#667=FACE_BOUND('',#666,.T.);
#668=ADVANCED_FACE('',(#664,#667),#653,.T.);
#669=CARTESIAN_POINT('',(0.0,0.0,13.500000000000004));
#670=DIRECTION('',(0.0,0.0,-1.0));
#671=DIRECTION('',(-1.0,0.0,0.0));
#672=AXIS2_PLACEMENT_3D('',#669,#670,#671);
#673=TOROIDAL_SURFACE('',#672,11.500000000000002,1.0);
#674=CARTESIAN_POINT('',(11.500000000000002,0.0,14.500000000000002));
#675=VERTEX_POINT('',#674);
#676=CARTESIAN_POINT('',(0.0,0.0,14.500000000000002));
#677=DIRECTION('',(0.0,0.0,-1.0));
#678=DIRECTION('',(-1.0,0.0,0.0));
#679=AXIS2_PLACEMENT_3D('',#676,#677,#678);
#680=CIRCLE('',#679,11.500000000000002);
#681=EDGE_CURVE('',#675,#675,#680,.T.);
#682=ORIENTED_EDGE('',*,*,#681,.T.);
#683=EDGE_LOOP('',(#682));
#684=FACE_OUTER_BOUND('',#683,.T.);
#685=ORIENTED_EDGE('',*,*,#661,.T.);
#686=EDGE_LOOP('',(#685));
#687=FACE_BOUND('',#686,.T.);
#688=ADVANCED_FACE('',(#684,#687),#673,.T.);
#689=CARTESIAN_POINT('',(1.136363636363626,0.0,14.500000000000002));
#690=DIRECTION('',(0.0,0.0,1.0));
#691=DIRECTION('',(1.0,0.0,0.0));
#692=AXIS2_PLACEMENT_3D('',#689,#690,#691);
#693=PLANE('',#692);
#694=ORIENTED_EDGE('',*,*,#681,.F.);
#695=EDGE_LOOP('',(#694));
#696=FACE_OUTER_BOUND('',#695,.T.);
#697=ADVANCED_FACE('',(#696),#693,.T.);
#698=CARTESIAN_POINT('',(0.0,0.0,3.500000000000001));
#699=DIRECTION('',(0.0,0.0,1.0));
#700=DIRECTION('',(1.0,0.0,0.0));
#701=AXIS2_PLACEMENT_3D('',#698,#699,#700);
#702=CYLINDRICAL_SURFACE('',#701,11.000000000000004);
#703=ORIENTED_EDGE('',*,*,#624,.T.);
#704=EDGE_LOOP('',(#703));
#705=FACE_OUTER_BOUND('',#704,.T.);
#706=CARTESIAN_POINT('',(11.000000000000004,0.0,3.500000000000001));
#707=VERTEX_POINT('',#706);
#708=CARTESIAN_POINT('',(0.0,0.0,3.500000000000001));
#709=DIRECTION('',(0.0,0.0,-1.0));
#710=DIRECTION('',(1.0,0.0,0.0));
#711=AXIS2_PLACEMENT_3D('',#708,#709,#710);
#712=CIRCLE('',#711,11.000000000000004);
#713=EDGE_CURVE('',#707,#707,#712,.T.);
#714=ORIENTED_EDGE('',*,*,#713,.F.);
#715=EDGE_LOOP('',(#714));
#716=FACE_BOUND('',#715,.T.);
#717=ADVANCED_FACE('',(#705,#716),#702,.T.);
#718=CARTESIAN_POINT('',(-9.763338148326882,-9.763338148326881,1.754446049442293));
#719=DIRECTION('',(-0.162221421130763,-0.162221421130763,-0.973328526784575));
#720=DIRECTION('',(-0.688247201611685,-0.688247201611686,0.229415733870562));
#721=AXIS2_PLACEMENT_3D('',#718,#719,#720);
#722=CYLINDRICAL_SURFACE('',#721,2.0);
#723=CARTESIAN_POINT('',(-11.494117332794376,-12.500000000000002,-3.500000000000001));
#724=VERTEX_POINT('',#723);
#725=CARTESIAN_POINT('',(-10.527212152335716,-12.500000000000002,-2.5));
#726=VERTEX_POINT('',#725);
#727=CARTESIAN_POINT('',(-12.500000000000004,-12.500000000000002,-14.665525060596437));
#728=DIRECTION('',(0.0,1.0,0.0));
#729=DIRECTION('',(0.164398987305357,0.0,0.986393923832144));
#730=AXIS2_PLACEMENT_3D('',#727,#728,#729);
#731=ELLIPSE('',#730,12.328828005937956,2.0);
#732=EDGE_CURVE('',#724,#726,#731,.T.);
#733=ORIENTED_EDGE('',*,*,#732,.T.);
#734=CARTESIAN_POINT('',(-9.527212152335718,-11.500000000000002,3.500000000000001));
#735=VERTEX_POINT('',#734);
#736=CARTESIAN_POINT('',(-10.527212152335718,-12.500000000000005,-2.5));
#737=DIRECTION('',(0.162221421130763,0.162221421130763,0.973328526784575));
#738=VECTOR('',#737,6.164414002968977);
#739=LINE('',#736,#738);
#740=EDGE_CURVE('',#726,#735,#739,.T.);
#741=ORIENTED_EDGE('',*,*,#740,.T.);
#742=CARTESIAN_POINT('',(-11.500000000000002,-9.527212152335716,3.500000000000001));
#743=VERTEX_POINT('',#742);
#744=CARTESIAN_POINT('',(-9.472412489900599,-9.472412489900597,3.500000000000001));
#745=DIRECTION('',(0.0,0.0,-1.0));
#746=DIRECTION('',(-0.707106781186547,-0.707106781186548,0.0));
#747=AXIS2_PLACEMENT_3D('',#744,#745,#746);
#748=ELLIPSE('',#747,2.054804667656326,2.0);
#749=EDGE_CURVE('',#735,#743,#748,.T.);
#750=ORIENTED_EDGE('',*,*,#749,.T.);
#751=CARTESIAN_POINT('',(-12.500000000000002,-10.527212152335714,-2.5));
#752=VERTEX_POINT('',#751);
#753=CARTESIAN_POINT('',(-11.500000000000004,-9.527212152335714,3.500000000000001));
#754=DIRECTION('',(-0.162221421130763,-0.162221421130763,-0.973328526784575));
#755=VECTOR('',#754,6.164414002968977);
#756=LINE('',#753,#755);
#757=EDGE_CURVE('',#743,#752,#756,.T.);
#758=ORIENTED_EDGE('',*,*,#757,.T.);
#759=CARTESIAN_POINT('',(-12.500000000000002,-11.49411733279438,-3.5));
#760=VERTEX_POINT('',#759);
#761=CARTESIAN_POINT('',(-12.500000000000002,-12.5,-14.665525060596424));
#762=DIRECTION('',(1.0,-2.065156E-018,-1.239094E-017));
#763=DIRECTION('',(1.256186E-017,0.164398987305357,0.986393923832144));
#764=AXIS2_PLACEMENT_3D('',#761,#762,#763);
#765=ELLIPSE('',#764,12.328828005937956,2.0);
#766=EDGE_CURVE('',#752,#760,#765,.T.);
#767=ORIENTED_EDGE('',*,*,#766,.T.);
#768=CARTESIAN_POINT('',(-10.639079156567266,-10.639079156567263,-3.500000000000001));
#769=DIRECTION('',(0.0,0.0,1.0));
#770=DIRECTION('',(-0.707106781186547,-0.707106781186548,0.0));
#771=AXIS2_PLACEMENT_3D('',#768,#769,#770);
#772=ELLIPSE('',#771,2.054804667656326,2.0);
#773=EDGE_CURVE('',#760,#724,#772,.T.);
#774=ORIENTED_EDGE('',*,*,#773,.T.);
#775=EDGE_LOOP('',(#733,#741,#750,#758,#767,#774));
#776=FACE_OUTER_BOUND('',#775,.T.);
#777=ADVANCED_FACE('',(#776),#722,.T.);
#778=CARTESIAN_POINT('',(6.250000000000001,-12.000000000000002,0.5));
#779=DIRECTION('',(0.0,-0.986393923832144,0.164398987305357));
#780=DIRECTION('',(0.0,-0.164398987305357,-0.986393923832144));
#781=AXIS2_PLACEMENT_3D('',#778,#779,#780);
#782=PLANE('',#781);
#783=ORIENTED_EDGE('',*,*,#740,.F.);
#784=CARTESIAN_POINT('',(10.500000000000004,-12.500000000000002,-2.5));
#785=VERTEX_POINT('',#784);
#786=CARTESIAN_POINT('',(-10.527212152335718,-12.500000000000002,-2.5));
#787=DIRECTION('',(1.0,0.0,0.0));
#788=VECTOR('',#787,21.027212152335721);
#789=LINE('',#786,#788);
#790=EDGE_CURVE('',#726,#785,#789,.T.);
#791=ORIENTED_EDGE('',*,*,#790,.T.);
#792=CARTESIAN_POINT('',(10.527029495586923,-12.499817343251209,-2.498904059507244));
#793=VERTEX_POINT('',#792);
#794=CARTESIAN_POINT('',(10.500000000000004,-10.500000000000004,9.500000000000002));
#795=DIRECTION('',(0.0,0.986393923832144,-0.164398987305357));
#796=DIRECTION('',(1.825195E-017,-0.164398987305357,-0.986393923832144));
#797=AXIS2_PLACEMENT_3D('',#794,#795,#796);
#798=ELLIPSE('',#797,12.16552506059644,2.0);
#799=EDGE_CURVE('',#793,#785,#798,.T.);
#800=ORIENTED_EDGE('',*,*,#799,.F.);
#801=CARTESIAN_POINT('',(9.527212152335716,-11.500000000000002,3.500000000000001));
#802=VERTEX_POINT('',#801);
#803=CARTESIAN_POINT('',(9.527212152335714,-11.500000000000004,3.500000000000001));
#804=DIRECTION('',(0.162221421130763,-0.162221421130763,-0.973328526784575));
#805=VECTOR('',#804,6.163288031148984);
#806=LINE('',#803,#805);
#807=EDGE_CURVE('',#802,#793,#806,.T.);
#808=ORIENTED_EDGE('',*,*,#807,.F.);
#809=CARTESIAN_POINT('',(9.527212152335716,-11.500000000000002,3.500000000000001));
#810=DIRECTION('',(-1.0,0.0,0.0));
#811=VECTOR('',#810,19.054424304671436);
#812=LINE('',#809,#811);
#813=EDGE_CURVE('',#802,#735,#812,.T.);
#814=ORIENTED_EDGE('',*,*,#813,.T.);
#815=EDGE_LOOP('',(#783,#791,#800,#808,#814));
#816=FACE_OUTER_BOUND('',#815,.T.);
#817=ADVANCED_FACE('',(#816),#782,.T.);
#818=CARTESIAN_POINT('',(12.500000000000002,-12.500000000000002,-3.500000000000001));
#819=DIRECTION('',(0.0,-1.0,0.0));
#820=DIRECTION('',(0.0,0.0,-1.0));
#821=AXIS2_PLACEMENT_3D('',#818,#819,#820);
#822=PLANE('',#821);
#823=ORIENTED_EDGE('',*,*,#732,.F.);
#824=CARTESIAN_POINT('',(10.500000000000004,-12.500000000000002,-3.500000000000001));
#825=VERTEX_POINT('',#824);
#826=CARTESIAN_POINT('',(10.500000000000002,-12.500000000000002,-3.500000000000001));
#827=DIRECTION('',(-1.0,0.0,0.0));
#828=VECTOR('',#827,21.994117332794378);
#829=LINE('',#826,#828);
#830=EDGE_CURVE('',#825,#724,#829,.T.);
#831=ORIENTED_EDGE('',*,*,#830,.F.);
#832=CARTESIAN_POINT('',(10.500000000000004,-12.500000000000002,-2.500000000000001));
#833=DIRECTION('',(0.0,0.0,-1.0));
#834=VECTOR('',#833,1.0);
#835=LINE('',#832,#834);
#836=EDGE_CURVE('',#785,#825,#835,.T.);
#837=ORIENTED_EDGE('',*,*,#836,.F.);
#838=ORIENTED_EDGE('',*,*,#790,.F.);
#839=EDGE_LOOP('',(#823,#831,#837,#838));
#840=FACE_OUTER_BOUND('',#839,.T.);
#841=ADVANCED_FACE('',(#840),#822,.T.);
#842=CARTESIAN_POINT('',(0.0,0.0,-3.500000000000001));
#843=DIRECTION('',(0.0,0.0,1.0));
#844=DIRECTION('',(1.0,0.0,0.0));
#845=AXIS2_PLACEMENT_3D('',#842,#843,#844);
#846=PLANE('',#845);
#847=ORIENTED_EDGE('',*,*,#773,.F.);
#848=CARTESIAN_POINT('',(-12.500000000000002,10.500000000000004,-3.500000000000001));
#849=VERTEX_POINT('',#848);
#850=CARTESIAN_POINT('',(-12.500000000000002,-11.49411733279438,-3.500000000000001));
#851=DIRECTION('',(0.0,1.0,0.0));
#852=VECTOR('',#851,21.994117332794382);
#853=LINE('',#850,#852);
#854=EDGE_CURVE('',#760,#849,#853,.T.);
#855=ORIENTED_EDGE('',*,*,#854,.T.);
#856=CARTESIAN_POINT('',(-10.500000000000004,12.500000000000002,-3.500000000000001));
#857=VERTEX_POINT('',#856);
#858=CARTESIAN_POINT('',(-10.500000000000004,10.500000000000004,-3.500000000000001));
#859=DIRECTION('',(0.0,0.0,1.0));
#860=DIRECTION('',(-0.707106781186548,0.707106781186548,0.0));
#861=AXIS2_PLACEMENT_3D('',#858,#859,#860);
#862=CIRCLE('',#861,2.0);
#863=EDGE_CURVE('',#857,#849,#862,.T.);
#864=ORIENTED_EDGE('',*,*,#863,.F.);
#865=CARTESIAN_POINT('',(10.500000000000004,12.500000000000002,-3.500000000000001));
#866=VERTEX_POINT('',#865);
#867=CARTESIAN_POINT('',(-10.500000000000002,12.500000000000002,-3.500000000000001));
#868=DIRECTION('',(1.0,0.0,0.0));
#869=VECTOR('',#868,21.000000000000004);
#870=LINE('',#867,#869);
#871=EDGE_CURVE('',#857,#866,#870,.T.);
#872=ORIENTED_EDGE('',*,*,#871,.T.);
#873=CARTESIAN_POINT('',(12.500000000000002,10.500000000000004,-3.500000000000001));
#874=VERTEX_POINT('',#873);
#875=CARTESIAN_POINT('',(10.500000000000004,10.500000000000004,-3.500000000000001));
#876=DIRECTION('',(0.0,0.0,1.0));
#877=DIRECTION('',(0.707106781186548,0.707106781186548,0.0));
#878=AXIS2_PLACEMENT_3D('',#875,#876,#877);
#879=CIRCLE('',#878,2.0);
#880=EDGE_CURVE('',#874,#866,#879,.T.);
#881=ORIENTED_EDGE('',*,*,#880,.F.);
#882=CARTESIAN_POINT('',(12.500000000000002,-10.500000000000004,-3.500000000000001));
#883=VERTEX_POINT('',#882);
#884=CARTESIAN_POINT('',(12.500000000000002,10.500000000000002,-3.500000000000001));
#885=DIRECTION('',(0.0,-1.0,0.0));
#886=VECTOR('',#885,21.000000000000004);
#887=LINE('',#884,#886);
#888=EDGE_CURVE('',#874,#883,#887,.T.);
#889=ORIENTED_EDGE('',*,*,#888,.T.);
#890=CARTESIAN_POINT('',(10.500000000000004,-10.500000000000004,-3.500000000000001));
#891=DIRECTION('',(0.0,0.0,1.0));
#892=DIRECTION('',(0.707106781186548,-0.707106781186548,0.0));
#893=AXIS2_PLACEMENT_3D('',#890,#891,#892);
#894=CIRCLE('',#893,2.0);
#895=EDGE_CURVE('',#825,#883,#894,.T.);
#896=ORIENTED_EDGE('',*,*,#895,.F.);
#897=ORIENTED_EDGE('',*,*,#830,.T.);
#898=EDGE_LOOP('',(#847,#855,#864,#872,#881,#889,#896,#897));
#899=FACE_OUTER_BOUND('',#898,.T.);
#900=ORIENTED_EDGE('',*,*,#91,.T.);
#901=EDGE_LOOP('',(#900));
#902=FACE_BOUND('',#901,.T.);
#903=ADVANCED_FACE('',(#899,#902),#846,.F.);
#904=CARTESIAN_POINT('',(-9.763338148326881,9.763338148326882,1.754446049442293));
#905=DIRECTION('',(-0.162221421130763,0.162221421130763,-0.973328526784575));
#906=DIRECTION('',(-0.688247201611686,0.688247201611685,0.229415733870562));
#907=AXIS2_PLACEMENT_3D('',#904,#905,#906);
#908=CYLINDRICAL_SURFACE('',#907,2.0);
#909=CARTESIAN_POINT('',(-11.500000000000002,9.527212152335718,3.500000000000001));
#910=VERTEX_POINT('',#909);
#911=CARTESIAN_POINT('',(-9.527212152335716,11.500000000000002,3.500000000000001));
#912=VERTEX_POINT('',#911);
#913=CARTESIAN_POINT('',(-9.472412489900597,9.472412489900599,3.500000000000001));
#914=DIRECTION('',(0.0,0.0,-1.0));
#915=DIRECTION('',(-0.707106781186548,0.707106781186547,0.0));
#916=AXIS2_PLACEMENT_3D('',#913,#914,#915);
#917=ELLIPSE('',#916,2.054804667656326,2.0);
#918=EDGE_CURVE('',#910,#912,#917,.T.);
#919=ORIENTED_EDGE('',*,*,#918,.T.);
#920=CARTESIAN_POINT('',(-10.527029495586923,12.499817343251209,-2.498904059507244));
#921=VERTEX_POINT('',#920);
#922=CARTESIAN_POINT('',(-9.527212152335714,11.500000000000004,3.500000000000001));
#923=DIRECTION('',(-0.162221421130763,0.162221421130763,-0.973328526784575));
#924=VECTOR('',#923,6.163288031148984);
#925=LINE('',#922,#924);
#926=EDGE_CURVE('',#912,#921,#925,.T.);
#927=ORIENTED_EDGE('',*,*,#926,.T.);
#928=CARTESIAN_POINT('',(-12.499817343251209,10.527029495586923,-2.498904059507238));
#929=VERTEX_POINT('',#928);
#930=CARTESIAN_POINT('',(-10.5,10.500000000000004,-2.665525060596425));
#931=DIRECTION('',(0.081657016256139,-0.081657016256136,0.993309751986906));
#932=DIRECTION('',(0.702376061448658,-0.702376061448681,-0.11548045985235));
#933=AXIS2_PLACEMENT_3D('',#930,#931,#932);
#934=ELLIPSE('',#933,2.013470617800164,2.0);
#935=EDGE_CURVE('',#921,#929,#934,.T.);
#936=ORIENTED_EDGE('',*,*,#935,.T.);
#937=CARTESIAN_POINT('',(-12.499817343251211,10.527029495586923,-2.498904059507239));
#938=DIRECTION('',(0.162221421130763,-0.162221421130763,0.973328526784575));
#939=VECTOR('',#938,6.163288031148978);
#940=LINE('',#937,#939);
#941=EDGE_CURVE('',#929,#910,#940,.T.);
#942=ORIENTED_EDGE('',*,*,#941,.T.);
#943=EDGE_LOOP('',(#919,#927,#936,#942));
#944=FACE_OUTER_BOUND('',#943,.T.);
#945=ADVANCED_FACE('',(#944),#908,.T.);
#946=CARTESIAN_POINT('',(-10.500000000000004,10.500000000000004,-3.500000000000001));
#947=DIRECTION('',(0.0,0.0,1.0));
#948=DIRECTION('',(-0.707106781186548,0.707106781186548,0.0));
#949=AXIS2_PLACEMENT_3D('',#946,#947,#948);
#950=CYLINDRICAL_SURFACE('',#949,2.0);
#951=ORIENTED_EDGE('',*,*,#863,.T.);
#952=CARTESIAN_POINT('',(-12.500000000000002,10.500000000000004,-2.5));
#953=VERTEX_POINT('',#952);
#954=CARTESIAN_POINT('',(-12.500000000000002,10.500000000000004,-3.500000000000001));
#955=DIRECTION('',(0.0,0.0,1.0));
#956=VECTOR('',#955,1.0);
#957=LINE('',#954,#956);
#958=EDGE_CURVE('',#849,#953,#957,.T.);
#959=ORIENTED_EDGE('',*,*,#958,.T.);
#960=CARTESIAN_POINT('',(-10.500000000000004,10.500000000000004,9.500000000000002));
#961=DIRECTION('',(0.986393923832144,0.0,-0.164398987305357));
#962=DIRECTION('',(-0.164398987305357,1.825195E-017,-0.986393923832144));
#963=AXIS2_PLACEMENT_3D('',#960,#961,#962);
#964=ELLIPSE('',#963,12.16552506059644,2.0);
#965=EDGE_CURVE('',#953,#929,#964,.T.);
#966=ORIENTED_EDGE('',*,*,#965,.T.);
#967=ORIENTED_EDGE('',*,*,#935,.F.);
#968=CARTESIAN_POINT('',(-10.500000000000004,12.500000000000002,-2.5));
#969=VERTEX_POINT('',#968);
#970=CARTESIAN_POINT('',(-10.500000000000004,10.500000000000004,9.500000000000002));
#971=DIRECTION('',(0.0,-0.986393923832144,-0.164398987305357));
#972=DIRECTION('',(-1.825195E-017,0.164398987305357,-0.986393923832144));
#973=AXIS2_PLACEMENT_3D('',#970,#971,#972);
#974=ELLIPSE('',#973,12.16552506059644,2.0);
#975=EDGE_CURVE('',#921,#969,#974,.T.);
#976=ORIENTED_EDGE('',*,*,#975,.T.);
#977=CARTESIAN_POINT('',(-10.500000000000004,12.500000000000002,-2.500000000000001));
#978=DIRECTION('',(0.0,0.0,-1.0));
#979=VECTOR('',#978,1.0);
#980=LINE('',#977,#979);
#981=EDGE_CURVE('',#969,#857,#980,.T.);
#982=ORIENTED_EDGE('',*,*,#981,.T.);
#983=EDGE_LOOP('',(#951,#959,#966,#967,#976,#982));
#984=FACE_OUTER_BOUND('',#983,.T.);
#985=ADVANCED_FACE('',(#984),#950,.T.);
#986=CARTESIAN_POINT('',(-6.250000000000001,12.000000000000002,0.5));
#987=DIRECTION('',(0.0,0.986393923832144,0.164398987305357));
#988=DIRECTION('',(0.0,-0.164398987305357,0.986393923832144));
#989=AXIS2_PLACEMENT_3D('',#986,#987,#988);
#990=PLANE('',#989);
#991=ORIENTED_EDGE('',*,*,#975,.F.);
#992=ORIENTED_EDGE('',*,*,#926,.F.);
#993=CARTESIAN_POINT('',(9.527212152335718,11.500000000000002,3.500000000000001));
#994=VERTEX_POINT('',#993);
#995=CARTESIAN_POINT('',(-9.527212152335716,11.500000000000002,3.500000000000001));
#996=DIRECTION('',(1.0,0.0,0.0));
#997=VECTOR('',#996,19.054424304671436);
#998=LINE('',#995,#997);
#999=EDGE_CURVE('',#912,#994,#998,.T.);
#1000=ORIENTED_EDGE('',*,*,#999,.T.);
#1001=CARTESIAN_POINT('',(10.527029495586923,12.499817343251209,-2.498904059507238));
#1002=VERTEX_POINT('',#1001);
#1003=CARTESIAN_POINT('',(10.527029495586923,12.499817343251211,-2.498904059507239));
#1004=DIRECTION('',(-0.162221421130763,-0.162221421130763,0.973328526784575));
#1005=VECTOR('',#1004,6.163288031148978);
#1006=LINE('',#1003,#1005);
#1007=EDGE_CURVE('',#1002,#994,#1006,.T.);
#1008=ORIENTED_EDGE('',*,*,#1007,.F.);
#1009=CARTESIAN_POINT('',(10.500000000000004,12.500000000000002,-2.5));
#1010=VERTEX_POINT('',#1009);
#1011=CARTESIAN_POINT('',(10.500000000000004,10.500000000000004,9.500000000000002));
#1012=DIRECTION('',(0.0,-0.986393923832144,-0.164398987305357));
#1013=DIRECTION('',(1.825195E-017,0.164398987305357,-0.986393923832144));
#1014=AXIS2_PLACEMENT_3D('',#1011,#1012,#1013);
#1015=ELLIPSE('',#1014,12.16552506059644,2.0);
#1016=EDGE_CURVE('',#1010,#1002,#1015,.T.);
#1017=ORIENTED_EDGE('',*,*,#1016,.F.);
#1018=CARTESIAN_POINT('',(10.500000000000004,12.500000000000002,-2.5));
#1019=DIRECTION('',(-1.0,0.0,0.0));
#1020=VECTOR('',#1019,21.000000000000007);
#1021=LINE('',#1018,#1020);
#1022=EDGE_CURVE('',#1010,#969,#1021,.T.);
#1023=ORIENTED_EDGE('',*,*,#1022,.T.);
#1024=EDGE_LOOP('',(#991,#992,#1000,#1008,#1017,#1023));
#1025=FACE_OUTER_BOUND('',#1024,.T.);
#1026=ADVANCED_FACE('',(#1025),#990,.T.);
#1027=CARTESIAN_POINT('',(0.0,0.0,3.500000000000001));
#1028=DIRECTION('',(0.0,0.0,1.0));
#1029=DIRECTION('',(1.0,0.0,0.0));
#1030=AXIS2_PLACEMENT_3D('',#1027,#1028,#1029);
#1031=PLANE('',#1030);
#1032=ORIENTED_EDGE('',*,*,#749,.F.);
#1033=ORIENTED_EDGE('',*,*,#813,.F.);
#1034=CARTESIAN_POINT('',(11.500000000000002,-9.527212152335718,3.500000000000001));
#1035=VERTEX_POINT('',#1034);
#1036=CARTESIAN_POINT('',(9.472412489900597,-9.472412489900599,3.500000000000001));
#1037=DIRECTION('',(0.0,0.0,-1.0));
#1038=DIRECTION('',(0.707106781186548,-0.707106781186547,0.0));
#1039=AXIS2_PLACEMENT_3D('',#1036,#1037,#1038);
#1040=ELLIPSE('',#1039,2.054804667656326,2.0);
#1041=EDGE_CURVE('',#1035,#802,#1040,.T.);
#1042=ORIENTED_EDGE('',*,*,#1041,.F.);
#1043=CARTESIAN_POINT('',(11.500000000000002,9.527212152335716,3.500000000000001));
#1044=VERTEX_POINT('',#1043);
#1045=CARTESIAN_POINT('',(11.500000000000002,9.527212152335716,3.500000000000001));
#1046=DIRECTION('',(0.0,-1.0,0.0));
#1047=VECTOR('',#1046,19.054424304671436);
#1048=LINE('',#1045,#1047);
#1049=EDGE_CURVE('',#1044,#1035,#1048,.T.);
#1050=ORIENTED_EDGE('',*,*,#1049,.F.);
#1051=CARTESIAN_POINT('',(9.472412489900599,9.472412489900597,3.500000000000001));
#1052=DIRECTION('',(0.0,0.0,-1.0));
#1053=DIRECTION('',(0.707106781186547,0.707106781186548,0.0));
#1054=AXIS2_PLACEMENT_3D('',#1051,#1052,#1053);
#1055=ELLIPSE('',#1054,2.054804667656326,2.0);
#1056=EDGE_CURVE('',#994,#1044,#1055,.T.);
#1057=ORIENTED_EDGE('',*,*,#1056,.F.);
#1058=ORIENTED_EDGE('',*,*,#999,.F.);
#1059=ORIENTED_EDGE('',*,*,#918,.F.);
#1060=CARTESIAN_POINT('',(-11.500000000000002,-9.527212152335716,3.500000000000001));
#1061=DIRECTION('',(0.0,1.0,0.0));
#1062=VECTOR('',#1061,19.054424304671436);
#1063=LINE('',#1060,#1062);
#1064=EDGE_CURVE('',#743,#910,#1063,.T.);
#1065=ORIENTED_EDGE('',*,*,#1064,.F.);
#1066=EDGE_LOOP('',(#1032,#1033,#1042,#1050,#1057,#1058,#1059,#1065));
#1067=FACE_OUTER_BOUND('',#1066,.T.);
#1068=ORIENTED_EDGE('',*,*,#713,.T.);
#1069=EDGE_LOOP('',(#1068));
#1070=FACE_BOUND('',#1069,.T.);
#1071=ADVANCED_FACE('',(#1067,#1070),#1031,.T.);
#1072=CARTESIAN_POINT('',(9.763338148326882,9.763338148326881,1.754446049442293));
#1073=DIRECTION('',(0.162221421130763,0.162221421130763,-0.973328526784575));
#1074=DIRECTION('',(0.688247201611685,0.688247201611686,0.229415733870562));
#1075=AXIS2_PLACEMENT_3D('',#1072,#1073,#1074);
#1076=CYLINDRICAL_SURFACE('',#1075,2.0);
#1077=ORIENTED_EDGE('',*,*,#1056,.T.);
#1078=CARTESIAN_POINT('',(12.499817343251209,10.527029495586923,-2.498904059507244));
#1079=VERTEX_POINT('',#1078);
#1080=CARTESIAN_POINT('',(11.500000000000004,9.527212152335714,3.500000000000001));
#1081=DIRECTION('',(0.162221421130763,0.162221421130763,-0.973328526784575));
#1082=VECTOR('',#1081,6.163288031148984);
#1083=LINE('',#1080,#1082);
#1084=EDGE_CURVE('',#1044,#1079,#1083,.T.);
#1085=ORIENTED_EDGE('',*,*,#1084,.T.);
#1086=CARTESIAN_POINT('',(10.500000000000005,10.500000000000004,-2.665525060596435));
#1087=DIRECTION('',(-0.081657016256142,-0.081657016256144,0.993309751986906));
#1088=DIRECTION('',(-0.70237606144868,-0.702376061448657,-0.115480459852358));
#1089=AXIS2_PLACEMENT_3D('',#1086,#1087,#1088);
#1090=ELLIPSE('',#1089,2.013470617800163,2.0);
#1091=EDGE_CURVE('',#1079,#1002,#1090,.T.);
#1092=ORIENTED_EDGE('',*,*,#1091,.T.);
#1093=ORIENTED_EDGE('',*,*,#1007,.T.);
#1094=EDGE_LOOP('',(#1077,#1085,#1092,#1093));
#1095=FACE_OUTER_BOUND('',#1094,.T.);
#1096=ADVANCED_FACE('',(#1095),#1076,.T.);
#1097=CARTESIAN_POINT('',(10.500000000000004,10.500000000000004,-3.500000000000001));
#1098=DIRECTION('',(0.0,0.0,1.0));
#1099=DIRECTION('',(0.707106781186548,0.707106781186548,0.0));
#1100=AXIS2_PLACEMENT_3D('',#1097,#1098,#1099);
#1101=CYLINDRICAL_SURFACE('',#1100,2.0);
#1102=ORIENTED_EDGE('',*,*,#880,.T.);
#1103=CARTESIAN_POINT('',(10.500000000000004,12.500000000000002,-3.500000000000001));
#1104=DIRECTION('',(0.0,0.0,1.0));
#1105=VECTOR('',#1104,1.0);
#1106=LINE('',#1103,#1105);
#1107=EDGE_CURVE('',#866,#1010,#1106,.T.);
#1108=ORIENTED_EDGE('',*,*,#1107,.T.);
#1109=ORIENTED_EDGE('',*,*,#1016,.T.);
#1110=ORIENTED_EDGE('',*,*,#1091,.F.);
#1111=CARTESIAN_POINT('',(12.500000000000002,10.500000000000004,-2.5));
#1112=VERTEX_POINT('',#1111);
#1113=CARTESIAN_POINT('',(10.500000000000004,10.500000000000004,9.500000000000002));
#1114=DIRECTION('',(-0.986393923832144,0.0,-0.164398987305357));
#1115=DIRECTION('',(0.164398987305357,1.825195E-017,-0.986393923832144));
#1116=AXIS2_PLACEMENT_3D('',#1113,#1114,#1115);
#1117=ELLIPSE('',#1116,12.16552506059644,2.0);
#1118=EDGE_CURVE('',#1079,#1112,#1117,.T.);
#1119=ORIENTED_EDGE('',*,*,#1118,.T.);
#1120=CARTESIAN_POINT('',(12.500000000000002,10.500000000000004,-2.500000000000001));
#1121=DIRECTION('',(0.0,0.0,-1.0));
#1122=VECTOR('',#1121,1.0);
#1123=LINE('',#1120,#1122);
#1124=EDGE_CURVE('',#1112,#874,#1123,.T.);
#1125=ORIENTED_EDGE('',*,*,#1124,.T.);
#1126=EDGE_LOOP('',(#1102,#1108,#1109,#1110,#1119,#1125));
#1127=FACE_OUTER_BOUND('',#1126,.T.);
#1128=ADVANCED_FACE('',(#1127),#1101,.T.);
#1129=CARTESIAN_POINT('',(-12.500000000000002,12.500000000000002,-3.500000000000001));
#1130=DIRECTION('',(0.0,1.0,0.0));
#1131=DIRECTION('',(0.0,0.0,1.0));
#1132=AXIS2_PLACEMENT_3D('',#1129,#1130,#1131);
#1133=PLANE('',#1132);
#1134=ORIENTED_EDGE('',*,*,#981,.F.);
#1135=ORIENTED_EDGE('',*,*,#1022,.F.);
#1136=ORIENTED_EDGE('',*,*,#1107,.F.);
#1137=ORIENTED_EDGE('',*,*,#871,.F.);
#1138=EDGE_LOOP('',(#1134,#1135,#1136,#1137));
#1139=FACE_OUTER_BOUND('',#1138,.T.);
#1140=ADVANCED_FACE('',(#1139),#1133,.T.);
#1141=CARTESIAN_POINT('',(12.500000000000002,12.500000000000002,-3.500000000000001));
#1142=DIRECTION('',(1.0,0.0,0.0));
#1143=DIRECTION('',(0.0,0.0,-1.0));
#1144=AXIS2_PLACEMENT_3D('',#1141,#1142,#1143);
#1145=PLANE('',#1144);
#1146=ORIENTED_EDGE('',*,*,#1124,.F.);
#1147=CARTESIAN_POINT('',(12.500000000000002,-10.500000000000004,-2.5));
#1148=VERTEX_POINT('',#1147);
#1149=CARTESIAN_POINT('',(12.500000000000002,-10.500000000000004,-2.5));
#1150=DIRECTION('',(0.0,1.0,0.0));
#1151=VECTOR('',#1150,21.000000000000007);
#1152=LINE('',#1149,#1151);
#1153=EDGE_CURVE('',#1148,#1112,#1152,.T.);
#1154=ORIENTED_EDGE('',*,*,#1153,.F.);
#1155=CARTESIAN_POINT('',(12.500000000000002,-10.500000000000004,-3.500000000000001));
#1156=DIRECTION('',(0.0,0.0,1.0));
#1157=VECTOR('',#1156,1.0);
#1158=LINE('',#1155,#1157);
#1159=EDGE_CURVE('',#883,#1148,#1158,.T.);
#1160=ORIENTED_EDGE('',*,*,#1159,.F.);
#1161=ORIENTED_EDGE('',*,*,#888,.F.);
#1162=EDGE_LOOP('',(#1146,#1154,#1160,#1161));
#1163=FACE_OUTER_BOUND('',#1162,.T.);
#1164=ADVANCED_FACE('',(#1163),#1145,.T.);
#1165=CARTESIAN_POINT('',(10.500000000000004,-10.500000000000004,-3.500000000000001));
#1166=DIRECTION('',(0.0,0.0,1.0));
#1167=DIRECTION('',(0.707106781186548,-0.707106781186548,0.0));
#1168=AXIS2_PLACEMENT_3D('',#1165,#1166,#1167);
#1169=CYLINDRICAL_SURFACE('',#1168,2.0);
#1170=ORIENTED_EDGE('',*,*,#895,.T.);
#1171=ORIENTED_EDGE('',*,*,#1159,.T.);
#1172=CARTESIAN_POINT('',(12.499817343251209,-10.527029495586923,-2.498904059507238));
#1173=VERTEX_POINT('',#1172);
#1174=CARTESIAN_POINT('',(10.500000000000004,-10.500000000000004,9.500000000000002));
#1175=DIRECTION('',(-0.986393923832144,0.0,-0.164398987305357));
#1176=DIRECTION('',(0.164398987305357,-1.825195E-017,-0.986393923832144));
#1177=AXIS2_PLACEMENT_3D('',#1174,#1175,#1176);
#1178=ELLIPSE('',#1177,12.16552506059644,2.0);
#1179=EDGE_CURVE('',#1148,#1173,#1178,.T.);
#1180=ORIENTED_EDGE('',*,*,#1179,.T.);
#1181=CARTESIAN_POINT('',(10.500000000000004,-10.500000000000004,-2.665525060596425));
#1182=DIRECTION('',(0.081657016256139,-0.081657016256136,-0.993309751986907));
#1183=DIRECTION('',(-0.702376061448681,0.702376061448658,-0.11548045985235));
#1184=AXIS2_PLACEMENT_3D('',#1181,#1182,#1183);
#1185=ELLIPSE('',#1184,2.01347061780016,2.0);
#1186=EDGE_CURVE('',#1173,#793,#1185,.T.);
#1187=ORIENTED_EDGE('',*,*,#1186,.T.);
#1188=ORIENTED_EDGE('',*,*,#799,.T.);
#1189=ORIENTED_EDGE('',*,*,#836,.T.);
#1190=EDGE_LOOP('',(#1170,#1171,#1180,#1187,#1188,#1189));
#1191=FACE_OUTER_BOUND('',#1190,.T.);
#1192=ADVANCED_FACE('',(#1191),#1169,.T.);
#1193=CARTESIAN_POINT('',(9.763338148326881,-9.763338148326882,1.754446049442293));
#1194=DIRECTION('',(0.162221421130763,-0.162221421130763,-0.973328526784575));
#1195=DIRECTION('',(0.688247201611686,-0.688247201611685,0.229415733870562));
#1196=AXIS2_PLACEMENT_3D('',#1193,#1194,#1195);
#1197=CYLINDRICAL_SURFACE('',#1196,2.0);
#1198=ORIENTED_EDGE('',*,*,#1041,.T.);
#1199=ORIENTED_EDGE('',*,*,#807,.T.);
#1200=ORIENTED_EDGE('',*,*,#1186,.F.);
#1201=CARTESIAN_POINT('',(12.499817343251211,-10.527029495586923,-2.498904059507239));
#1202=DIRECTION('',(-0.162221421130763,0.162221421130763,0.973328526784575));
#1203=VECTOR('',#1202,6.163288031148978);
#1204=LINE('',#1201,#1203);
#1205=EDGE_CURVE('',#1173,#1035,#1204,.T.);
#1206=ORIENTED_EDGE('',*,*,#1205,.T.);
#1207=EDGE_LOOP('',(#1198,#1199,#1200,#1206));
#1208=FACE_OUTER_BOUND('',#1207,.T.);
#1209=ADVANCED_FACE('',(#1208),#1197,.T.);
#1210=CARTESIAN_POINT('',(-12.000000000000002,-6.250000000000001,0.5));
#1211=DIRECTION('',(-0.986393923832144,0.0,0.164398987305357));
#1212=DIRECTION('',(0.164398987305357,0.0,0.986393923832144));
#1213=AXIS2_PLACEMENT_3D('',#1210,#1211,#1212);
#1214=PLANE('',#1213);
#1215=ORIENTED_EDGE('',*,*,#757,.F.);
#1216=ORIENTED_EDGE('',*,*,#1064,.T.);
#1217=ORIENTED_EDGE('',*,*,#941,.F.);
#1218=ORIENTED_EDGE('',*,*,#965,.F.);
#1219=CARTESIAN_POINT('',(-12.500000000000002,10.500000000000004,-2.5));
#1220=DIRECTION('',(0.0,-1.0,0.0));
#1221=VECTOR('',#1220,21.027212152335718);
#1222=LINE('',#1219,#1221);
#1223=EDGE_CURVE('',#953,#752,#1222,.T.);
#1224=ORIENTED_EDGE('',*,*,#1223,.T.);
#1225=EDGE_LOOP('',(#1215,#1216,#1217,#1218,#1224));
#1226=FACE_OUTER_BOUND('',#1225,.T.);
#1227=ADVANCED_FACE('',(#1226),#1214,.T.);
#1228=CARTESIAN_POINT('',(12.000000000000002,6.250000000000001,0.5));
#1229=DIRECTION('',(0.986393923832144,0.0,0.164398987305357));
#1230=DIRECTION('',(0.164398987305357,0.0,-0.986393923832144));
#1231=AXIS2_PLACEMENT_3D('',#1228,#1229,#1230);
#1232=PLANE('',#1231);
#1233=ORIENTED_EDGE('',*,*,#1084,.F.);
#1234=ORIENTED_EDGE('',*,*,#1049,.T.);
#1235=ORIENTED_EDGE('',*,*,#1205,.F.);
#1236=ORIENTED_EDGE('',*,*,#1179,.F.);
#1237=ORIENTED_EDGE('',*,*,#1153,.T.);
#1238=ORIENTED_EDGE('',*,*,#1118,.F.);
#1239=EDGE_LOOP('',(#1233,#1234,#1235,#1236,#1237,#1238));
#1240=FACE_OUTER_BOUND('',#1239,.T.);
#1241=ADVANCED_FACE('',(#1240),#1232,.T.);
#1242=CARTESIAN_POINT('',(-12.500000000000002,-12.500000000000002,-3.500000000000001));
#1243=DIRECTION('',(-1.0,0.0,0.0));
#1244=DIRECTION('',(0.0,0.0,1.0));
#1245=AXIS2_PLACEMENT_3D('',#1242,#1243,#1244);
#1246=PLANE('',#1245);
#1247=ORIENTED_EDGE('',*,*,#766,.F.);
#1248=ORIENTED_EDGE('',*,*,#1223,.F.);
#1249=ORIENTED_EDGE('',*,*,#958,.F.);
#1250=ORIENTED_EDGE('',*,*,#854,.F.);
#1251=EDGE_LOOP('',(#1247,#1248,#1249,#1250));
#1252=FACE_OUTER_BOUND('',#1251,.T.);
#1253=ADVANCED_FACE('',(#1252),#1246,.T.);
#1254=CLOSED_SHELL('',(#95,#135,#166,#197,#228,#259,#290,#321,#343,#383,#414,#445,#467,#489,#501,#529,#548,#576,#588,#600,#628,#648,#668,#688,#697,#717,#777,#817,#841,#903,#945,#985,#1026,#1071,#1096,#1128,#1140,#1164,#1192,#1209,#1227,#1241,#1253));
#1255=MANIFOLD_SOLID_BREP('Volumenk\S\vrper1',#1254);
#1256=COLOUR_RGB('',0.321568995714188,0.321568995714188,0.321568995714188);
#1257=FILL_AREA_STYLE_COLOUR('',#1256);
#1258=FILL_AREA_STYLE('',(#1257));
#1259=SURFACE_STYLE_FILL_AREA(#1258);
#1260=SURFACE_SIDE_STYLE('',(#1259));
#1261=SURFACE_STYLE_USAGE(.BOTH.,#1260);
#1262=PRESENTATION_STYLE_ASSIGNMENT((#1261));
#1263=STYLED_ITEM('',(#1262),#95);
#1264=COLOUR_RGB('',1.0,1.0,1.0);
#1265=FILL_AREA_STYLE_COLOUR('',#1264);
#1266=FILL_AREA_STYLE('',(#1265));
#1267=SURFACE_STYLE_FILL_AREA(#1266);
#1268=SURFACE_SIDE_STYLE('',(#1267));
#1269=SURFACE_STYLE_USAGE(.BOTH.,#1268);
#1270=PRESENTATION_STYLE_ASSIGNMENT((#1269));
#1271=STYLED_ITEM('',(#1270),#135);
#1272=STYLED_ITEM('',(#1270),#166);
#1273=STYLED_ITEM('',(#1270),#197);
#1274=STYLED_ITEM('',(#1270),#228);
#1275=STYLED_ITEM('',(#1270),#259);
#1276=STYLED_ITEM('',(#1270),#290);
#1277=STYLED_ITEM('',(#1270),#321);
#1278=STYLED_ITEM('',(#1270),#343);
#1279=STYLED_ITEM('',(#1270),#489);
#1280=STYLED_ITEM('',(#1262),#529);
#1281=STYLED_ITEM('',(#1262),#548);
#1282=STYLED_ITEM('',(#1262),#576);
#1283=STYLED_ITEM('',(#1262),#588);
#1284=STYLED_ITEM('',(#1262),#600);
#1285=STYLED_ITEM('',(#1262),#628);
#1286=COLOUR_RGB('',1.0,0.0,0.0);
#1287=FILL_AREA_STYLE_COLOUR('',#1286);
#1288=FILL_AREA_STYLE('',(#1287));
#1289=SURFACE_STYLE_FILL_AREA(#1288);
#1290=SURFACE_SIDE_STYLE('',(#1289));
#1291=SURFACE_STYLE_USAGE(.BOTH.,#1290);
#1292=PRESENTATION_STYLE_ASSIGNMENT((#1291));
#1293=STYLED_ITEM('',(#1292),#648);
#1294=STYLED_ITEM('',(#1292),#668);
#1295=STYLED_ITEM('',(#1292),#688);
#1296=STYLED_ITEM('',(#1292),#697);
#1297=STYLED_ITEM('',(#1262),#717);
#1298=STYLED_ITEM('',(#1262),#777);
#1299=STYLED_ITEM('',(#1262),#817);
#1300=STYLED_ITEM('',(#1262),#841);
#1301=STYLED_ITEM('',(#1262),#903);
#1302=STYLED_ITEM('',(#1262),#945);
#1303=STYLED_ITEM('',(#1262),#985);
#1304=STYLED_ITEM('',(#1262),#1026);
#1305=STYLED_ITEM('',(#1262),#1071);
#1306=STYLED_ITEM('',(#1262),#1096);
#1307=STYLED_ITEM('',(#1262),#1128);
#1308=STYLED_ITEM('',(#1262),#1140);
#1309=STYLED_ITEM('',(#1262),#1164);
#1310=STYLED_ITEM('',(#1262),#1192);
#1311=STYLED_ITEM('',(#1262),#1209);
#1312=STYLED_ITEM('',(#1262),#1227);
#1313=STYLED_ITEM('',(#1262),#1241);
#1314=STYLED_ITEM('',(#1262),#1253);
#1315=MECHANICAL_DESIGN_GEOMETRIC_PRESENTATION_REPRESENTATION('',(#1263,#1271,#1272,#1273,#1274,#1275,#1276,#1277,#1278,#1279,#1280,#1281,#1282,#1283,#1284,#1285,#1293,#1294,#1295,#1296,#1297,#1298,#1299,#1300,#1301,#1302,#1303,#1304,#1305,#1306,#1307,#1308,#1309,#1310,#1311,#1312,#1313,#1314,#1323),#67);
#1316=COLOUR_RGB('Glnzend - schwarz',0.321568995714188,0.321568995714188,0.321568995714188);
#1317=FILL_AREA_STYLE_COLOUR('Glnzend - schwarz',#1316);
#1318=FILL_AREA_STYLE('Glnzend - schwarz',(#1317));
#1319=SURFACE_STYLE_FILL_AREA(#1318);
#1320=SURFACE_SIDE_STYLE('Glnzend - schwarz',(#1319));
#1321=SURFACE_STYLE_USAGE(.BOTH.,#1320);
#1322=PRESENTATION_STYLE_ASSIGNMENT((#1321));
#1323=STYLED_ITEM('',(#1322),#1255);
#1324=ADVANCED_BREP_SHAPE_REPRESENTATION('ABSR',(#1255),#36);
#1325=SHAPE_REPRESENTATION_RELATIONSHIP('SRR','None',#1324,#41);
ENDSEC;
END-ISO-10303-21;
