ISO-10303-21;
HEADER;
FILE_DESCRIPTION (( 'STEP AP214' ),
    '1' );
FILE_NAME ('AB6-V.STEP',
    '2024-08-30T18:14:36',
    ( '' ),
    ( '' ),
    'SwSTEP 2.0',
    'SolidWorks 2023',
    '' );
FILE_SCHEMA (( 'AUTOMOTIVE_DESIGN' ));
ENDSEC;

DATA;
#1 = LINE ( 'NONE', #175, #138 ) ;
#2 = EDGE_CURVE ( 'NONE', #354, #1080, #563, .T. ) ;
#3 = FACE_OUTER_BOUND ( 'NONE', #234, .T. ) ;
#4 = EDGE_LOOP ( 'NONE', ( #444, #940, #759, #427 ) ) ;
#5 = LINE ( 'NONE', #923, #484 ) ;
#6 = CARTESIAN_POINT ( 'NONE',  ( 0.000000000000000000, -8.400000000000000355, 0.000000000000000000 ) ) ;
#7 = EDGE_CURVE ( 'NONE', #272, #536, #806, .T. ) ;
#8 =( NAMED_UNIT ( * ) PLANE_ANGLE_UNIT ( ) SI_UNIT ( $, .RADIAN. ) );
#9 = EDGE_LOOP ( 'NONE', ( #947, #554, #968, #465 ) ) ;
#10 = AXIS2_PLACEMENT_3D ( 'NONE', #337, #77, #1109 ) ;
#11 = CARTESIAN_POINT ( 'NONE',  ( 3.550000000000001155, -30.00000000000000000, 3.299999999999999822 ) ) ;
#12 = CARTESIAN_POINT ( 'NONE',  ( 6.350000000000000533, -37.60000000000000142, 3.299999999999999822 ) ) ;
#13 = ORIENTED_EDGE ( 'NONE', *, *, #347, .T. ) ;
#14 = CARTESIAN_POINT ( 'NONE',  ( -8.999999999999996447, -9.300000000000000711, -9.000000000000001776 ) ) ;
#15 = DIRECTION ( 'NONE',  ( 0.000000000000000000, 1.000000000000000000, 0.000000000000000000 ) ) ;
#16 = CARTESIAN_POINT ( 'NONE',  ( 9.000000000000003553, -9.300000000000000711, 9.000000000000000000 ) ) ;
#17 = ORIENTED_EDGE ( 'NONE', *, *, #518, .F. ) ;
#18 = LINE ( 'NONE', #587, #823 ) ;
#19 = EDGE_CURVE ( 'NONE', #306, #679, #487, .T. ) ;
#20 = CARTESIAN_POINT ( 'NONE',  ( -3.550000000000001155, -30.00000000000000000, 3.299999999999999822 ) ) ;
#21 = FACE_OUTER_BOUND ( 'NONE', #121, .T. ) ;
#22 = EDGE_LOOP ( 'NONE', ( #329, #991, #696, #573 ) ) ;
#23 = CARTESIAN_POINT ( 'NONE',  ( 0.000000000000000000, -30.00000000000000000, 0.000000000000000000 ) ) ;
#24 = EDGE_CURVE ( 'NONE', #241, #973, #207, .T. ) ;
#25 = DIRECTION ( 'NONE',  ( -0.000000000000000000, 1.000000000000000000, -0.000000000000000000 ) ) ;
#26 = AXIS2_PLACEMENT_3D ( 'NONE', #1065, #198, #42 ) ;
#27 = CARTESIAN_POINT ( 'NONE',  ( 6.349999999999998757, -30.00000000000000000, 3.299999999999999822 ) ) ;
#28 = VECTOR ( 'NONE', #370, 1000.000000000000000 ) ;
#29 = ORIENTED_EDGE ( 'NONE', *, *, #391, .T. ) ;
#30 = CIRCLE ( 'NONE', #677, 8.949999999999997513 ) ;
#31 = PRODUCT_DEFINITION_SHAPE ( 'NONE', 'NONE',  #33 ) ;
#32 = DIRECTION ( 'NONE',  ( -0.000000000000000000, 1.000000000000000000, -0.000000000000000000 ) ) ;
#33 = PRODUCT_DEFINITION ( 'UNKNOWN', '', #878, #635 ) ;
#34 = CARTESIAN_POINT ( 'NONE',  ( 1.400000000000001021, -30.00000000000000000, 3.299999999999999822 ) ) ;
#35 = ADVANCED_FACE ( 'NONE', ( #556 ), #225, .T. ) ;
#36 = EDGE_LOOP ( 'NONE', ( #700, #1058, #450, #224 ) ) ;
#37 = ORIENTED_EDGE ( 'NONE', *, *, #1105, .F. ) ;
#38 = DIRECTION ( 'NONE',  ( 1.177544999180148879E-17, -1.000000000000000000, -0.000000000000000000 ) ) ;
#39 = DIRECTION ( 'NONE',  ( -2.282530889443166529E-16, -1.000000000000000000, 0.000000000000000000 ) ) ;
#40 = ORIENTED_EDGE ( 'NONE', *, *, #1099, .T. ) ;
#41 = EDGE_CURVE ( 'NONE', #584, #860, #902, .T. ) ;
#42 = DIRECTION ( 'NONE',  ( 0.000000000000000000, 0.000000000000000000, 1.000000000000000000 ) ) ;
#43 = EDGE_LOOP ( 'NONE', ( #421, #412 ) ) ;
#44 = DIRECTION ( 'NONE',  ( 0.000000000000000000, 0.000000000000000000, 1.000000000000000000 ) ) ;
#45 = DIRECTION ( 'NONE',  ( -0.000000000000000000, 0.000000000000000000, 1.000000000000000000 ) ) ;
#46 = VERTEX_POINT ( 'NONE', #721 ) ;
#47 = AXIS2_PLACEMENT_3D ( 'NONE', #401, #307, #994 ) ;
#48 = CARTESIAN_POINT ( 'NONE',  ( 9.000000000000003553, -8.400000000000000355, 9.000000000000000000 ) ) ;
#49 = AXIS2_PLACEMENT_3D ( 'NONE', #1030, #352, #1025 ) ;
#50 = CIRCLE ( 'NONE', #1018, 11.75000000000000178 ) ;
#51 = DIRECTION ( 'NONE',  ( -1.000000000000000000, -0.000000000000000000, -0.000000000000000000 ) ) ;
#52 = APPLICATION_PROTOCOL_DEFINITION ( 'draft international standard', 'automotive_design', 1998, #433 ) ;
#53 = FACE_OUTER_BOUND ( 'NONE', #869, .T. ) ;
#54 = ORIENTED_EDGE ( 'NONE', *, *, #313, .F. ) ;
#55 = DIRECTION ( 'NONE',  ( -1.000000000000000000, 0.000000000000000000, -1.927470528863119049E-16 ) ) ;
#56 = ORIENTED_EDGE ( 'NONE', *, *, #986, .F. ) ;
#57 = MANIFOLD_SOLID_BREP ( 'Ressalto-extrusão2', #189 ) ;
#58 = CARTESIAN_POINT ( 'NONE',  ( 3.549999999999999822, -37.60000000000000142, 2.799999999999999822 ) ) ;
#59 = EDGE_LOOP ( 'NONE', ( #147, #211, #772, #631 ) ) ;
#60 = CARTESIAN_POINT ( 'NONE',  ( -6.349999999999998757, -30.00000000000000000, 3.299999999999999822 ) ) ;
#61 = PLANE ( 'NONE',  #101 ) ;
#62 =( LENGTH_UNIT ( ) NAMED_UNIT ( * ) SI_UNIT ( .MILLI., .METRE. ) );
#63 = ADVANCED_FACE ( 'NONE', ( #268 ), #61, .F. ) ;
#64 = LINE ( 'NONE', #140, #264 ) ;
#65 = CARTESIAN_POINT ( 'NONE',  ( 0.000000000000000000, 0.000000000000000000, 7.449999999999999289 ) ) ;
#66 = CIRCLE ( 'NONE', #689, 7.449999999999999289 ) ;
#67 = VERTEX_POINT ( 'NONE', #948 ) ;
#68 = AXIS2_PLACEMENT_3D ( 'NONE', #767, #331, #1023 ) ;
#69 = VECTOR ( 'NONE', #280, 1000.000000000000000 ) ;
#70 = FACE_BOUND ( 'NONE', #36, .T. ) ;
#71 = DIRECTION ( 'NONE',  ( -0.000000000000000000, 1.000000000000000000, -0.000000000000000000 ) ) ;
#72 = ORIENTED_EDGE ( 'NONE', *, *, #244, .F. ) ;
#73 = EDGE_CURVE ( 'NONE', #212, #1110, #784, .T. ) ;
#74 = CYLINDRICAL_SURFACE ( 'NONE', #958, 7.449999999999999289 ) ;
#75 = ORIENTED_EDGE ( 'NONE', *, *, #160, .F. ) ;
#76 = CARTESIAN_POINT ( 'NONE',  ( 0.000000000000000000, -10.80000000000000071, 9.049999999999998934 ) ) ;
#77 = DIRECTION ( 'NONE',  ( -0.000000000000000000, 0.000000000000000000, 1.000000000000000000 ) ) ;
#78 = VERTEX_POINT ( 'NONE', #952 ) ;
#79 = EDGE_CURVE ( 'NONE', #170, #540, #18, .T. ) ;
#80 = LINE ( 'NONE', #1108, #800 ) ;
#81 = CARTESIAN_POINT ( 'NONE',  ( 9.000000000000003553, -9.300000000000000711, 9.000000000000000000 ) ) ;
#82 = EDGE_LOOP ( 'NONE', ( #545, #1063, #29, #492 ) ) ;
#83 = MECHANICAL_DESIGN_GEOMETRIC_PRESENTATION_REPRESENTATION (  '', ( #1103 ), #638 ) ;
#84 = VECTOR ( 'NONE', #651, 1000.000000000000000 ) ;
#85 = CARTESIAN_POINT ( 'NONE',  ( 0.000000000000000000, -19.70000000000000284, 9.049999999999995381 ) ) ;
#86 = VECTOR ( 'NONE', #748, 1000.000000000000000 ) ;
#87 =( LENGTH_UNIT ( ) NAMED_UNIT ( * ) SI_UNIT ( .MILLI., .METRE. ) );
#88 = ORIENTED_EDGE ( 'NONE', *, *, #1015, .F. ) ;
#89 = FACE_OUTER_BOUND ( 'NONE', #983, .T. ) ;
#90 = ADVANCED_FACE ( 'NONE', ( #693 ), #97, .F. ) ;
#91 = DIRECTION ( 'NONE',  ( 0.000000000000000000, 0.000000000000000000, 1.000000000000000000 ) ) ;
#92 = CARTESIAN_POINT ( 'NONE',  ( 0.000000000000000000, 0.000000000000000000, 3.299999999999999822 ) ) ;
#93 = ORIENTED_EDGE ( 'NONE', *, *, #1082, .F. ) ;
#94 = DIRECTION ( 'NONE',  ( -0.000000000000000000, 0.000000000000000000, -1.000000000000000000 ) ) ;
#95 = DIRECTION ( 'NONE',  ( -0.000000000000000000, 1.000000000000000000, -0.000000000000000000 ) ) ;
#96 = ORIENTED_EDGE ( 'NONE', *, *, #1092, .F. ) ;
#97 = PLANE ( 'NONE',  #252 ) ;
#98 = AXIS2_PLACEMENT_3D ( 'NONE', #982, #805, #715 ) ;
#99 = VECTOR ( 'NONE', #786, 1000.000000000000000 ) ;
#100 = DIRECTION ( 'NONE',  ( 0.000000000000000000, 0.000000000000000000, 1.000000000000000000 ) ) ;
#101 = AXIS2_PLACEMENT_3D ( 'NONE', #245, #608, #778 ) ;
#102 = CARTESIAN_POINT ( 'NONE',  ( 9.000000000000003553, -9.300000000000000711, -9.000000000000000000 ) ) ;
#103 = VERTEX_POINT ( 'NONE', #178 ) ;
#104 = EDGE_CURVE ( 'NONE', #860, #540, #5, .T. ) ;
#105 = FACE_BOUND ( 'NONE', #673, .T. ) ;
#106 = CARTESIAN_POINT ( 'NONE',  ( 1.400000000000000133, -37.60000000000000142, 2.799999999999999822 ) ) ;
#107 = CARTESIAN_POINT ( 'NONE',  ( -1.400000000000001021, -30.00000000000000000, 2.799999999999999822 ) ) ;
#108 = ORIENTED_EDGE ( 'NONE', *, *, #1092, .T. ) ;
#109 = CARTESIAN_POINT ( 'NONE',  ( -1.400000000000000133, -37.60000000000000142, 2.799999999999999822 ) ) ;
#110 = ADVANCED_FACE ( 'NONE', ( #612, #445 ), #325, .T. ) ;
#111 = DIRECTION ( 'NONE',  ( -1.000000000000000000, 0.000000000000000000, -1.927470528863119049E-16 ) ) ;
#112 = LINE ( 'NONE', #1053, #99 ) ;
#113 = ORIENTED_EDGE ( 'NONE', *, *, #491, .F. ) ;
#114 = LINE ( 'NONE', #546, #908 ) ;
#115 = ADVANCED_FACE ( 'NONE', ( #89 ), #527, .F. ) ;
#116 = CARTESIAN_POINT ( 'NONE',  ( 0.000000000000000000, 0.000000000000000000, 0.000000000000000000 ) ) ;
#117 = AXIS2_PLACEMENT_3D ( 'NONE', #956, #451, #840 ) ;
#118 = VECTOR ( 'NONE', #266, 1000.000000000000000 ) ;
#119 = DIRECTION ( 'NONE',  ( 1.000000000000000000, 1.177544999180148879E-17, 0.000000000000000000 ) ) ;
#120 = AXIS2_PLACEMENT_3D ( 'NONE', #1010, #592, #596 ) ;
#121 = EDGE_LOOP ( 'NONE', ( #135, #237, #745, #626 ) ) ;
#122 = DIRECTION ( 'NONE',  ( 1.000000000000000000, 0.000000000000000000, 0.000000000000000000 ) ) ;
#123 = CARTESIAN_POINT ( 'NONE',  ( -11.75000000000000178, 5.399999999999998579, 0.000000000000000000 ) ) ;
#124 = EDGE_CURVE ( 'NONE', #502, #282, #500, .T. ) ;
#125 = CARTESIAN_POINT ( 'NONE',  ( 1.400000000000001021, -30.00000000000000000, 3.299999999999999822 ) ) ;
#126 = VERTEX_POINT ( 'NONE', #930 ) ;
#127 = DIRECTION ( 'NONE',  ( 0.000000000000000000, 0.000000000000000000, 1.000000000000000000 ) ) ;
#128 = CARTESIAN_POINT ( 'NONE',  ( 9.000000000000003553, -9.300000000000000711, -9.000000000000000000 ) ) ;
#129 = CYLINDRICAL_SURFACE ( 'NONE', #946, 7.799999999999999822 ) ;
#130 = EDGE_LOOP ( 'NONE', ( #418, #641, #909, #659 ) ) ;
#131 = ORIENTED_EDGE ( 'NONE', *, *, #827, .F. ) ;
#132 = DIRECTION ( 'NONE',  ( 0.000000000000000000, 0.000000000000000000, 1.000000000000000000 ) ) ;
#133 =( NAMED_UNIT ( * ) SI_UNIT ( $, .STERADIAN. ) SOLID_ANGLE_UNIT ( ) );
#134 = DIRECTION ( 'NONE',  ( 1.177544999180148879E-17, -1.000000000000000000, -0.000000000000000000 ) ) ;
#135 = ORIENTED_EDGE ( 'NONE', *, *, #1022, .T. ) ;
#136 = VECTOR ( 'NONE', #260, 1000.000000000000000 ) ;
#137 = EDGE_CURVE ( 'NONE', #473, #170, #531, .T. ) ;
#138 = VECTOR ( 'NONE', #437, 1000.000000000000000 ) ;
#139 = VERTEX_POINT ( 'NONE', #877 ) ;
#140 = CARTESIAN_POINT ( 'NONE',  ( -8.999999999999996447, -8.400000000000000355, -9.000000000000001776 ) ) ;
#141 = EDGE_LOOP ( 'NONE', ( #182, #483, #309, #595 ) ) ;
#142 = DIRECTION ( 'NONE',  ( 1.177544999180148879E-17, -1.000000000000000000, -0.000000000000000000 ) ) ;
#143 = ADVANCED_FACE ( 'NONE', ( #522, #70, #105, #662 ), #413, .T. ) ;
#144 = CARTESIAN_POINT ( 'NONE',  ( 3.550000000000001155, -30.00000000000000000, 3.299999999999999822 ) ) ;
#145 = DIRECTION ( 'NONE',  ( 1.000000000000000000, 0.000000000000000000, 0.000000000000000000 ) ) ;
#146 = LINE ( 'NONE', #493, #750 ) ;
#147 = ORIENTED_EDGE ( 'NONE', *, *, #221, .T. ) ;
#148 = CARTESIAN_POINT ( 'NONE',  ( 0.000000000000000000, -8.400000000000000355, 0.000000000000000000 ) ) ;
#149 = ORIENTED_EDGE ( 'NONE', *, *, #588, .F. ) ;
#150 = CARTESIAN_POINT ( 'NONE',  ( -7.349999999999996092, -30.00000000000000000, 0.000000000000000000 ) ) ;
#151 = CARTESIAN_POINT ( 'NONE',  ( 0.000000000000000000, -19.70000000000000639, 0.000000000000000000 ) ) ;
#152 = ADVANCED_FACE ( 'NONE', ( #238 ), #1029, .F. ) ;
#153 = CARTESIAN_POINT ( 'NONE',  ( -8.999999999999996447, -9.300000000000000711, -9.000000000000001776 ) ) ;
#154 = ORIENTED_EDGE ( 'NONE', *, *, #269, .F. ) ;
#155 = CARTESIAN_POINT ( 'NONE',  ( -7.799999999999999822, -6.505213034913026604E-16, 9.552245033349354572E-16 ) ) ;
#156 = CIRCLE ( 'NONE', #292, 7.449999999999999289 ) ;
#157 = ORIENTED_EDGE ( 'NONE', *, *, #1035, .F. ) ;
#158 = STYLED_ITEM ( 'NONE', ( #776 ), #417 ) ;
#159 = DIRECTION ( 'NONE',  ( 1.000000000000000000, 1.845450506358305387E-17, 0.000000000000000000 ) ) ;
#160 = EDGE_CURVE ( 'NONE', #616, #67, #581, .T. ) ;
#161 = DIRECTION ( 'NONE',  ( 0.000000000000000000, 0.000000000000000000, 1.000000000000000000 ) ) ;
#162 = EDGE_LOOP ( 'NONE', ( #921, #825, #839, #691 ) ) ;
#163 = APPLICATION_CONTEXT ( 'automotive_design' ) ;
#164 = FACE_OUTER_BOUND ( 'NONE', #792, .T. ) ;
#165 = PRODUCT_RELATED_PRODUCT_CATEGORY ( 'part', '', ( #562 ) ) ;
#166 = CARTESIAN_POINT ( 'NONE',  ( 6.350000000000000533, -37.60000000000000142, 2.799999999999999822 ) ) ;
#167 = VERTEX_POINT ( 'NONE', #263 ) ;
#168 = CYLINDRICAL_SURFACE ( 'NONE', #997, 7.349999999999996980 ) ;
#169 = SURFACE_STYLE_FILL_AREA ( #341 ) ;
#170 = VERTEX_POINT ( 'NONE', #541 ) ;
#171 = DIRECTION ( 'NONE',  ( 2.282530889443166529E-16, 1.000000000000000000, 0.000000000000000000 ) ) ;
#172 = AXIS2_PLACEMENT_3D ( 'NONE', #455, #617, #1043 ) ;
#173 = EDGE_CURVE ( 'NONE', #1091, #812, #372, .T. ) ;
#174 = AXIS2_PLACEMENT_3D ( 'NONE', #925, #45, #1005 ) ;
#175 = CARTESIAN_POINT ( 'NONE',  ( 6.349999999999998757, -30.00000000000000000, 3.299999999999999822 ) ) ;
#176 = CARTESIAN_POINT ( 'NONE',  ( 3.549999999999999822, -37.60000000000000142, 3.299999999999999822 ) ) ;
#177 = ORIENTED_EDGE ( 'NONE', *, *, #124, .F. ) ;
#178 = CARTESIAN_POINT ( 'NONE',  ( -8.999999999999996447, -9.300000000000000711, 8.999999999999996447 ) ) ;
#179 = EDGE_CURVE ( 'NONE', #167, #1054, #228, .T. ) ;
#180 = DIRECTION ( 'NONE',  ( 1.177544999180148879E-17, -1.000000000000000000, -0.000000000000000000 ) ) ;
#181 = LINE ( 'NONE', #176, #446 ) ;
#182 = ORIENTED_EDGE ( 'NONE', *, *, #660, .F. ) ;
#183 = DIRECTION ( 'NONE',  ( -1.000000000000000000, -0.000000000000000000, -0.000000000000000000 ) ) ;
#184 = FACE_BOUND ( 'NONE', #916, .T. ) ;
#185 = EDGE_CURVE ( 'NONE', #996, #476, #618, .T. ) ;
#186 = DIRECTION ( 'NONE',  ( 1.000000000000000000, 0.000000000000000000, 0.000000000000000000 ) ) ;
#187 = ORIENTED_EDGE ( 'NONE', *, *, #229, .T. ) ;
#188 = DIRECTION ( 'NONE',  ( -2.282530889443166529E-16, 1.000000000000000000, -0.000000000000000000 ) ) ;
#189 = CLOSED_SHELL ( 'NONE', ( #941, #685, #470, #35, #256, #969, #115, #63, #702, #557, #1046, #274, #143, #802, #542, #782, #1002, #753, #152, #599, #905, #460, #719, #340, #922, #537, #674, #697, #430, #90, #835, #628, #438 ) ) ;
#190 = CIRCLE ( 'NONE', #385, 11.75000000000000178 ) ;
#191 = CARTESIAN_POINT ( 'NONE',  ( 1.096058885236881035E-15, -1.096058885236881035E-15, -8.949999999999999289 ) ) ;
#192 = CIRCLE ( 'NONE', #428, 9.049999999999995381 ) ;
#193 = VECTOR ( 'NONE', #122, 1000.000000000000000 ) ;
#194 = EDGE_CURVE ( 'NONE', #306, #509, #114, .T. ) ;
#195 = CARTESIAN_POINT ( 'NONE',  ( -11.75000000000000000, -1.000000000000001110, 1.438959988998140160E-15 ) ) ;
#196 =( GEOMETRIC_REPRESENTATION_CONTEXT ( 3 ) GLOBAL_UNCERTAINTY_ASSIGNED_CONTEXT ( ( #497 ) ) GLOBAL_UNIT_ASSIGNED_CONTEXT ( ( #62, #298, #133 ) ) REPRESENTATION_CONTEXT ( 'NONE', 'WORKASPACE' ) );
#197 = EDGE_LOOP ( 'NONE', ( #187, #392, #290, #93 ) ) ;
#198 = DIRECTION ( 'NONE',  ( -0.000000000000000000, 1.000000000000000000, -0.000000000000000000 ) ) ;
#199 = CYLINDRICAL_SURFACE ( 'NONE', #910, 8.949999999999997513 ) ;
#200 = CARTESIAN_POINT ( 'NONE',  ( -6.350000000000000533, -37.60000000000000142, 3.299999999999999822 ) ) ;
#201 = ORIENTED_EDGE ( 'NONE', *, *, #185, .F. ) ;
#202 = EDGE_CURVE ( 'NONE', #126, #1078, #66, .T. ) ;
#203 = CARTESIAN_POINT ( 'NONE',  ( -3.550000000000001155, -30.00000000000000000, 3.299999999999999822 ) ) ;
#204 = FACE_OUTER_BOUND ( 'NONE', #809, .T. ) ;
#205 = ORIENTED_EDGE ( 'NONE', *, *, #1068, .F. ) ;
#206 = EDGE_CURVE ( 'NONE', #267, #363, #701, .T. ) ;
#207 = LINE ( 'NONE', #970, #424 ) ;
#208 = DIRECTION ( 'NONE',  ( 0.000000000000000000, -1.000000000000000000, 0.000000000000000000 ) ) ;
#209 = AXIS2_PLACEMENT_3D ( 'NONE', #1057, #980, #712 ) ;
#210 = DIRECTION ( 'NONE',  ( 1.000000000000000000, 0.000000000000000000, 0.000000000000000000 ) ) ;
#211 = ORIENTED_EDGE ( 'NONE', *, *, #549, .F. ) ;
#212 = VERTEX_POINT ( 'NONE', #965 ) ;
#213 = DIRECTION ( 'NONE',  ( 1.141265444721583264E-16, 1.000000000000000000, -0.000000000000000000 ) ) ;
#214 = CARTESIAN_POINT ( 'NONE',  ( 1.400000000000000133, -37.60000000000000142, 3.299999999999999822 ) ) ;
#215 = ORIENTED_EDGE ( 'NONE', *, *, #335, .F. ) ;
#216 = CARTESIAN_POINT ( 'NONE',  ( -3.550000000000001155, -30.00000000000000000, 2.799999999999999822 ) ) ;
#217 = ORIENTED_EDGE ( 'NONE', *, *, #73, .F. ) ;
#218 = ORIENTED_EDGE ( 'NONE', *, *, #633, .T. ) ;
#219 = DIRECTION ( 'NONE',  ( -2.282530889443166529E-16, 1.000000000000000000, -0.000000000000000000 ) ) ;
#220 = DIRECTION ( 'NONE',  ( 1.000000000000000000, 0.000000000000000000, 0.000000000000000000 ) ) ;
#221 = EDGE_CURVE ( 'NONE', #509, #1048, #725, .T. ) ;
#222 = ORIENTED_EDGE ( 'NONE', *, *, #1035, .T. ) ;
#223 = DIRECTION ( 'NONE',  ( 1.000000000000000000, -0.000000000000000000, 9.637352644315595243E-17 ) ) ;
#224 = ORIENTED_EDGE ( 'NONE', *, *, #775, .F. ) ;
#225 = CYLINDRICAL_SURFACE ( 'NONE', #817, 8.949999999999997513 ) ;
#226 = CARTESIAN_POINT ( 'NONE',  ( 9.123618653647779187E-16, 0.000000000000000000, -7.449999999999999289 ) ) ;
#227 = ORIENTED_EDGE ( 'NONE', *, *, #262, .T. ) ;
#228 = CIRCLE ( 'NONE', #746, 7.349999999999996092 ) ;
#229 = EDGE_CURVE ( 'NONE', #904, #241, #569, .T. ) ;
#230 = DIRECTION ( 'NONE',  ( 1.000000000000000000, 0.000000000000000000, 0.000000000000000000 ) ) ;
#231 = AXIS2_PLACEMENT_3D ( 'NONE', #796, #959, #963 ) ;
#232 = ORIENTED_EDGE ( 'NONE', *, *, #104, .T. ) ;
#233 = AXIS2_PLACEMENT_3D ( 'NONE', #903, #998, #1096 ) ;
#234 = EDGE_LOOP ( 'NONE', ( #1020, #937, #526, #342 ) ) ;
#235 = CARTESIAN_POINT ( 'NONE',  ( -8.999999999999996447, -8.400000000000000355, -9.000000000000001776 ) ) ;
#236 = ORIENTED_EDGE ( 'NONE', *, *, #137, .T. ) ;
#237 = ORIENTED_EDGE ( 'NONE', *, *, #442, .T. ) ;
#238 = FACE_OUTER_BOUND ( 'NONE', #736, .T. ) ;
#239 = CARTESIAN_POINT ( 'NONE',  ( 4.710179996720596132E-17, 5.399999999999998579, 0.000000000000000000 ) ) ;
#240 = CARTESIAN_POINT ( 'NONE',  ( -7.449999999999999289, -10.80000000000000071, 0.000000000000000000 ) ) ;
#241 = VERTEX_POINT ( 'NONE', #793 ) ;
#242 = FACE_OUTER_BOUND ( 'NONE', #568, .T. ) ;
#243 = ORIENTED_EDGE ( 'NONE', *, *, #549, .T. ) ;
#244 = EDGE_CURVE ( 'NONE', #1078, #126, #156, .T. ) ;
#245 = CARTESIAN_POINT ( 'NONE',  ( 9.000000000000003553, -9.300000000000000711, -9.000000000000000000 ) ) ;
#246 = CARTESIAN_POINT ( 'NONE',  ( -1.400000000000001021, -30.00000000000000000, 3.299999999999999822 ) ) ;
#247 = DIRECTION ( 'NONE',  ( -0.000000000000000000, 1.000000000000000000, -0.000000000000000000 ) ) ;
#248 = AXIS2_PLACEMENT_3D ( 'NONE', #314, #508, #739 ) ;
#249 = ORIENTED_EDGE ( 'NONE', *, *, #986, .T. ) ;
#250 = AXIS2_PLACEMENT_3D ( 'NONE', #125, #791, #889 ) ;
#251 = CIRCLE ( 'NONE', #1016, 7.799999999999999822 ) ;
#252 = AXIS2_PLACEMENT_3D ( 'NONE', #273, #498, #355 ) ;
#253 = CYLINDRICAL_SURFACE ( 'NONE', #658, 9.049999999999997158 ) ;
#254 = ORIENTED_EDGE ( 'NONE', *, *, #794, .F. ) ;
#255 = DIRECTION ( 'NONE',  ( -0.000000000000000000, 1.000000000000000000, -0.000000000000000000 ) ) ;
#256 = ADVANCED_FACE ( 'NONE', ( #974, #472 ), #377, .T. ) ;
#257 = DIRECTION ( 'NONE',  ( -0.000000000000000000, 1.000000000000000000, -0.000000000000000000 ) ) ;
#258 = ORIENTED_EDGE ( 'NONE', *, *, #735, .F. ) ;
#259 = DIRECTION ( 'NONE',  ( -0.000000000000000000, -0.000000000000000000, -1.000000000000000000 ) ) ;
#260 = DIRECTION ( 'NONE',  ( -0.000000000000000000, -0.000000000000000000, -1.000000000000000000 ) ) ;
#261 = EDGE_LOOP ( 'NONE', ( #650, #37, #376, #440 ) ) ;
#262 = EDGE_CURVE ( 'NONE', #139, #837, #655, .T. ) ;
#263 = CARTESIAN_POINT ( 'NONE',  ( 9.001153973733041672E-16, -30.00000000000000000, -7.349999999999996092 ) ) ;
#264 = VECTOR ( 'NONE', #836, 1000.000000000000000 ) ;
#265 = CARTESIAN_POINT ( 'NONE',  ( 1.108305353228354392E-15, -19.70000000000000284, -9.049999999999995381 ) ) ;
#266 = DIRECTION ( 'NONE',  ( -0.000000000000000000, 1.000000000000000000, -0.000000000000000000 ) ) ;
#267 = VERTEX_POINT ( 'NONE', #364 ) ;
#268 = FACE_OUTER_BOUND ( 'NONE', #4, .T. ) ;
#269 = EDGE_CURVE ( 'NONE', #78, #267, #896, .T. ) ;
#270 = DIRECTION ( 'NONE',  ( 1.711898167082374773E-16, -1.000000000000000000, 0.000000000000000000 ) ) ;
#271 = LINE ( 'NONE', #597, #548 ) ;
#272 = VERTEX_POINT ( 'NONE', #216 ) ;
#273 = CARTESIAN_POINT ( 'NONE',  ( 3.549999999999999822, -37.60000000000000142, 3.299999999999999822 ) ) ;
#274 = ADVANCED_FACE ( 'NONE', ( #1055, #560 ), #283, .F. ) ;
#275 = DIRECTION ( 'NONE',  ( 0.000000000000000000, 0.000000000000000000, 1.000000000000000000 ) ) ;
#276 = LINE ( 'NONE', #195, #516 ) ;
#277 = ORIENTED_EDGE ( 'NONE', *, *, #2, .F. ) ;
#278 = VECTOR ( 'NONE', #687, 1000.000000000000000 ) ;
#279 = VECTOR ( 'NONE', #1062, 1000.000000000000000 ) ;
#280 = DIRECTION ( 'NONE',  ( -2.282530889443166529E-16, -1.000000000000000000, 0.000000000000000000 ) ) ;
#281 = LINE ( 'NONE', #553, #366 ) ;
#282 = VERTEX_POINT ( 'NONE', #155 ) ;
#283 = PLANE ( 'NONE',  #726 ) ;
#284 = CARTESIAN_POINT ( 'NONE',  ( -6.349999999999998757, -30.00000000000000000, 3.299999999999999822 ) ) ;
#285 = CARTESIAN_POINT ( 'NONE',  ( 11.75000000000000000, 9.399999999999998579, 0.000000000000000000 ) ) ;
#286 = EDGE_LOOP ( 'NONE', ( #885, #321, #402, #591 ) ) ;
#287 = EDGE_CURVE ( 'NONE', #1110, #536, #490, .T. ) ;
#288 = CARTESIAN_POINT ( 'NONE',  ( 1.400000000000001021, -30.00000000000000000, 2.799999999999999822 ) ) ;
#289 = LINE ( 'NONE', #102, #995 ) ;
#290 = ORIENTED_EDGE ( 'NONE', *, *, #324, .F. ) ;
#291 = SURFACE_STYLE_USAGE ( .BOTH. , #1061 ) ;
#292 = AXIS2_PLACEMENT_3D ( 'NONE', #459, #799, #127 ) ;
#293 = DIRECTION ( 'NONE',  ( -0.000000000000000000, -0.000000000000000000, -1.000000000000000000 ) ) ;
#294 = ORIENTED_EDGE ( 'NONE', *, *, #202, .T. ) ;
#295 = DIRECTION ( 'NONE',  ( 0.000000000000000000, 0.000000000000000000, 1.000000000000000000 ) ) ;
#296 = ADVANCED_FACE ( 'NONE', ( #1079 ), #1084, .T. ) ;
#297 = FILL_AREA_STYLE ('',( #403 ) ) ;
#298 =( NAMED_UNIT ( * ) PLANE_ANGLE_UNIT ( ) SI_UNIT ( $, .RADIAN. ) );
#299 = CARTESIAN_POINT ( 'NONE',  ( 1.224646799147354933E-16, -1.000000000000000888, 0.000000000000000000 ) ) ;
#300 = EDGE_LOOP ( 'NONE', ( #607, #486, #846, #205 ) ) ;
#301 = CARTESIAN_POINT ( 'NONE',  ( -1.400000000000000133, -37.60000000000000142, 3.299999999999999822 ) ) ;
#302 = EDGE_LOOP ( 'NONE', ( #960, #108 ) ) ;
#303 = ORIENTED_EDGE ( 'NONE', *, *, #775, .T. ) ;
#304 = EDGE_CURVE ( 'NONE', #476, #1078, #322, .T. ) ;
#305 = FACE_OUTER_BOUND ( 'NONE', #9, .T. ) ;
#306 = VERTEX_POINT ( 'NONE', #301 ) ;
#307 = DIRECTION ( 'NONE',  ( 1.000000000000000000, 1.141265444721583264E-16, -0.000000000000000000 ) ) ;
#308 = VERTEX_POINT ( 'NONE', #1074 ) ;
#309 = ORIENTED_EDGE ( 'NONE', *, *, #173, .F. ) ;
#310 = DIRECTION ( 'NONE',  ( 1.177544999180148879E-17, -1.000000000000000000, -0.000000000000000000 ) ) ;
#311 = FACE_OUTER_BOUND ( 'NONE', #261, .T. ) ;
#312 = VECTOR ( 'NONE', #380, 1000.000000000000000 ) ;
#313 = EDGE_CURVE ( 'NONE', #467, #815, #190, .T. ) ;
#314 = CARTESIAN_POINT ( 'NONE',  ( 0.000000000000000000, 0.000000000000000000, 0.000000000000000000 ) ) ;
#315 = VECTOR ( 'NONE', #39, 1000.000000000000000 ) ;
#316 = VERTEX_POINT ( 'NONE', #832 ) ;
#317 = VECTOR ( 'NONE', #684, 1000.000000000000000 ) ;
#318 = CARTESIAN_POINT ( 'NONE',  ( -1.400000000000000133, -37.60000000000000142, 3.299999999999999822 ) ) ;
#319 = DIRECTION ( 'NONE',  ( 1.000000000000000000, 0.000000000000000000, 0.000000000000000000 ) ) ;
#320 = PLANE ( 'NONE',  #334 ) ;
#321 = ORIENTED_EDGE ( 'NONE', *, *, #1028, .T. ) ;
#322 = LINE ( 'NONE', #65, #707 ) ;
#323 = ORIENTED_EDGE ( 'NONE', *, *, #407, .T. ) ;
#324 = EDGE_CURVE ( 'NONE', #797, #973, #855, .T. ) ;
#325 = PLANE ( 'NONE',  #876 ) ;
#326 = DIRECTION ( 'NONE',  ( -1.711898167082374773E-16, 1.000000000000000000, -0.000000000000000000 ) ) ;
#327 = ORIENTED_EDGE ( 'NONE', *, *, #604, .F. ) ;
#328 = CARTESIAN_POINT ( 'NONE',  ( 0.000000000000000000, 0.000000000000000000, 0.000000000000000000 ) ) ;
#329 = ORIENTED_EDGE ( 'NONE', *, *, #24, .F. ) ;
#330 = CARTESIAN_POINT ( 'NONE',  ( 0.000000000000000000, -9.300000000000000711, 0.000000000000000000 ) ) ;
#331 = DIRECTION ( 'NONE',  ( 1.177544999180148879E-17, -1.000000000000000000, -0.000000000000000000 ) ) ;
#332 = VECTOR ( 'NONE', #914, 1000.000000000000000 ) ;
#333 = ORIENTED_EDGE ( 'NONE', *, *, #977, .F. ) ;
#334 = AXIS2_PLACEMENT_3D ( 'NONE', #732, #1077, #220 ) ;
#335 = EDGE_CURVE ( 'NONE', #851, #837, #906, .T. ) ;
#336 = CARTESIAN_POINT ( 'NONE',  ( 3.550000000000001155, -30.00000000000000000, 2.799999999999999822 ) ) ;
#337 = CARTESIAN_POINT ( 'NONE',  ( 0.000000000000000000, 0.000000000000000000, 2.799999999999999822 ) ) ;
#338 = ORIENTED_EDGE ( 'NONE', *, *, #185, .T. ) ;
#339 = CARTESIAN_POINT ( 'NONE',  ( -3.550000000000001155, -30.00000000000000000, 3.299999999999999822 ) ) ;
#340 = ADVANCED_FACE ( 'NONE', ( #666 ), #495, .F. ) ;
#341 = FILL_AREA_STYLE ('',( #1019 ) ) ;
#342 = ORIENTED_EDGE ( 'NONE', *, *, #73, .T. ) ;
#343 = DIRECTION ( 'NONE',  ( -0.000000000000000000, -0.000000000000000000, -1.000000000000000000 ) ) ;
#344 = DIRECTION ( 'NONE',  ( 0.000000000000000000, 0.000000000000000000, -1.000000000000000000 ) ) ;
#345 =( NAMED_UNIT ( * ) SI_UNIT ( $, .STERADIAN. ) SOLID_ANGLE_UNIT ( ) );
#346 = ORIENTED_EDGE ( 'NONE', *, *, #19, .T. ) ;
#347 = EDGE_CURVE ( 'NONE', #559, #46, #819, .T. ) ;
#348 = DIRECTION ( 'NONE',  ( -1.000000000000000000, -0.000000000000000000, -0.000000000000000000 ) ) ;
#349 = VECTOR ( 'NONE', #466, 1000.000000000000000 ) ;
#350 = VECTOR ( 'NONE', #71, 1000.000000000000000 ) ;
#351 = AXIS2_PLACEMENT_3D ( 'NONE', #468, #613, #966 ) ;
#352 = DIRECTION ( 'NONE',  ( -0.000000000000000000, 1.000000000000000000, -0.000000000000000000 ) ) ;
#353 = CARTESIAN_POINT ( 'NONE',  ( 1.108305353228354392E-15, 0.000000000000000000, -9.049999999999997158 ) ) ;
#354 = VERTEX_POINT ( 'NONE', #1007 ) ;
#355 = DIRECTION ( 'NONE',  ( 0.000000000000000000, -0.000000000000000000, 1.000000000000000000 ) ) ;
#356 = ADVANCED_FACE ( 'NONE', ( #242 ), #74, .F. ) ;
#357 = DIRECTION ( 'NONE',  ( 1.000000000000000000, 0.000000000000000000, 0.000000000000000000 ) ) ;
#358 = DIRECTION ( 'NONE',  ( -0.000000000000000000, 1.000000000000000000, -0.000000000000000000 ) ) ;
#359 = EDGE_LOOP ( 'NONE', ( #254, #951 ) ) ;
#360 = CARTESIAN_POINT ( 'NONE',  ( -6.350000000000000533, -37.60000000000000142, 2.799999999999999822 ) ) ;
#361 = FACE_OUTER_BOUND ( 'NONE', #1033, .T. ) ;
#362 = CARTESIAN_POINT ( 'NONE',  ( -7.799999999999999822, 5.399999999999998579, 9.552245033349354572E-16 ) ) ;
#363 = VERTEX_POINT ( 'NONE', #574 ) ;
#364 = CARTESIAN_POINT ( 'NONE',  ( -6.350000000000000533, -37.60000000000000142, 2.799999999999999822 ) ) ;
#365 = UNCERTAINTY_MEASURE_WITH_UNIT (LENGTH_MEASURE( 1.000000000000000082E-05 ), #474, 'distance_accuracy_value', 'NONE');
#366 = VECTOR ( 'NONE', #293, 1000.000000000000000 ) ;
#367 = CARTESIAN_POINT ( 'NONE',  ( -7.799999999999999822, -1.000000000000000888, 9.552245033349354572E-16 ) ) ;
#368 = EDGE_CURVE ( 'NONE', #752, #1091, #504, .T. ) ;
#369 = VECTOR ( 'NONE', #111, 1000.000000000000000 ) ;
#370 = DIRECTION ( 'NONE',  ( 1.141265444721583264E-16, -1.000000000000000000, 0.000000000000000000 ) ) ;
#371 = ORIENTED_EDGE ( 'NONE', *, *, #221, .F. ) ;
#372 = LINE ( 'NONE', #382, #632 ) ;
#373 = DIRECTION ( 'NONE',  ( 0.000000000000000000, -0.000000000000000000, 1.000000000000000000 ) ) ;
#374 = EDGE_CURVE ( 'NONE', #851, #787, #1104, .T. ) ;
#375 = FACE_OUTER_BOUND ( 'NONE', #718, .T. ) ;
#376 = ORIENTED_EDGE ( 'NONE', *, *, #304, .T. ) ;
#377 = PLANE ( 'NONE',  #98 ) ;
#378 = DIRECTION ( 'NONE',  ( -0.000000000000000000, 1.000000000000000000, -0.000000000000000000 ) ) ;
#379 = DIRECTION ( 'NONE',  ( -0.000000000000000000, 1.000000000000000000, -0.000000000000000000 ) ) ;
#380 = DIRECTION ( 'NONE',  ( -1.000000000000000000, -0.000000000000000000, -0.000000000000000000 ) ) ;
#381 = VERTEX_POINT ( 'NONE', #1011 ) ;
#382 = CARTESIAN_POINT ( 'NONE',  ( 9.000000000000003553, -8.400000000000000355, -9.000000000000000000 ) ) ;
#383 = EDGE_CURVE ( 'NONE', #812, #913, #416, .T. ) ;
#384 = DIRECTION ( 'NONE',  ( 1.000000000000000000, 0.000000000000000000, 0.000000000000000000 ) ) ;
#385 = AXIS2_PLACEMENT_3D ( 'NONE', #579, #142, #230 ) ;
#386 = CARTESIAN_POINT ( 'NONE',  ( 7.799999999999999822, 5.399999999999998579, 0.000000000000000000 ) ) ;
#387 = AXIS2_PLACEMENT_3D ( 'NONE', #962, #38, #357 ) ;
#388 = EDGE_LOOP ( 'NONE', ( #1038, #346, #40, #515 ) ) ;
#389 = CARTESIAN_POINT ( 'NONE',  ( 9.000000000000003553, -8.400000000000000355, -9.000000000000000000 ) ) ;
#390 = EDGE_LOOP ( 'NONE', ( #964, #505 ) ) ;
#391 = EDGE_CURVE ( 'NONE', #1054, #1094, #485, .T. ) ;
#392 = ORIENTED_EDGE ( 'NONE', *, *, #24, .T. ) ;
#393 = LINE ( 'NONE', #404, #639 ) ;
#394 = LINE ( 'NONE', #830, #656 ) ;
#395 = ORIENTED_EDGE ( 'NONE', *, *, #202, .F. ) ;
#396 = CARTESIAN_POINT ( 'NONE',  ( 0.000000000000000000, 0.000000000000000000, 7.349999999999996980 ) ) ;
#397 = VERTEX_POINT ( 'NONE', #1097 ) ;
#398 = EDGE_CURVE ( 'NONE', #644, #752, #920, .T. ) ;
#399 = FACE_BOUND ( 'NONE', #993, .T. ) ;
#400 = ORIENTED_EDGE ( 'NONE', *, *, #507, .T. ) ;
#401 = CARTESIAN_POINT ( 'NONE',  ( -1.400000000000001021, -30.00000000000000000, 3.299999999999999822 ) ) ;
#402 = ORIENTED_EDGE ( 'NONE', *, *, #335, .T. ) ;
#403 = FILL_AREA_STYLE_COLOUR ( '', #479 ) ;
#404 = CARTESIAN_POINT ( 'NONE',  ( 3.549999999999999822, -37.60000000000000142, 2.799999999999999822 ) ) ;
#405 = VECTOR ( 'NONE', #188, 1000.000000000000000 ) ;
#406 = PLANE ( 'NONE',  #174 ) ;
#407 = EDGE_CURVE ( 'NONE', #787, #139, #771, .T. ) ;
#408 = ORIENTED_EDGE ( 'NONE', *, *, #854, .T. ) ;
#409 = AXIS2_PLACEMENT_3D ( 'NONE', #529, #453, #119 ) ;
#410 = DIRECTION ( 'NONE',  ( 0.000000000000000000, 0.000000000000000000, 1.000000000000000000 ) ) ;
#411 = CIRCLE ( 'NONE', #692, 7.799999999999999822 ) ;
#412 = ORIENTED_EDGE ( 'NONE', *, *, #1015, .T. ) ;
#413 = PLANE ( 'NONE',  #764 ) ;
#414 = PLANE ( 'NONE',  #637 ) ;
#415 = EDGE_LOOP ( 'NONE', ( #550, #926 ) ) ;
#416 = LINE ( 'NONE', #48, #942 ) ;
#417 = MANIFOLD_SOLID_BREP ( 'Revolução3', #678 ) ;
#418 = ORIENTED_EDGE ( 'NONE', *, *, #41, .F. ) ;
#419 = CARTESIAN_POINT ( 'NONE',  ( 0.000000000000000000, -1.096058885236881035E-15, 8.949999999999999289 ) ) ;
#420 = FACE_OUTER_BOUND ( 'NONE', #300, .T. ) ;
#421 = ORIENTED_EDGE ( 'NONE', *, *, #124, .T. ) ;
#422 = EDGE_CURVE ( 'NONE', #103, #913, #271, .T. ) ;
#423 = DIRECTION ( 'NONE',  ( 1.000000000000000000, -0.000000000000000000, 9.637352644315595243E-17 ) ) ;
#424 = VECTOR ( 'NONE', #378, 1000.000000000000000 ) ;
#425 = DIRECTION ( 'NONE',  ( 0.000000000000000000, 0.000000000000000000, 1.000000000000000000 ) ) ;
#426 = VECTOR ( 'NONE', #882, 1000.000000000000000 ) ;
#427 = ORIENTED_EDGE ( 'NONE', *, *, #398, .T. ) ;
#428 = AXIS2_PLACEMENT_3D ( 'NONE', #552, #25, #100 ) ;
#429 = VECTOR ( 'NONE', #51, 1000.000000000000000 ) ;
#430 = ADVANCED_FACE ( 'NONE', ( #443 ), #676, .F. ) ;
#431 = VECTOR ( 'NONE', #219, 1000.000000000000000 ) ;
#432 = CARTESIAN_POINT ( 'NONE',  ( 0.000000000000000000, 0.000000000000000000, 0.000000000000000000 ) ) ;
#433 = APPLICATION_CONTEXT ( 'automotive_design' ) ;
#434 = DIRECTION ( 'NONE',  ( 1.000000000000000000, -1.711898167082374773E-16, 0.000000000000000000 ) ) ;
#435 = ORIENTED_EDGE ( 'NONE', *, *, #374, .T. ) ;
#436 = CARTESIAN_POINT ( 'NONE',  ( 6.349999999999998757, -30.00000000000000000, 2.799999999999999822 ) ) ;
#437 = DIRECTION ( 'NONE',  ( -0.000000000000000000, -0.000000000000000000, -1.000000000000000000 ) ) ;
#438 = ADVANCED_FACE ( 'NONE', ( #420 ), #520, .F. ) ;
#439 = CARTESIAN_POINT ( 'NONE',  ( 0.000000000000000000, 0.000000000000000000, 0.000000000000000000 ) ) ;
#440 = ORIENTED_EDGE ( 'NONE', *, *, #244, .T. ) ;
#441 = DIRECTION ( 'NONE',  ( 0.000000000000000000, 0.000000000000000000, 1.000000000000000000 ) ) ;
#442 = EDGE_CURVE ( 'NONE', #316, #397, #181, .T. ) ;
#443 = FACE_OUTER_BOUND ( 'NONE', #1027, .T. ) ;
#444 = ORIENTED_EDGE ( 'NONE', *, *, #368, .T. ) ;
#445 = FACE_OUTER_BOUND ( 'NONE', #390, .T. ) ;
#446 = VECTOR ( 'NONE', #682, 1000.000000000000000 ) ;
#447 = AXIS2_PLACEMENT_3D ( 'NONE', #123, #528, #711 ) ;
#448 = DIRECTION ( 'NONE',  ( 1.177544999180148879E-17, -1.000000000000000000, -0.000000000000000000 ) ) ;
#449 = CARTESIAN_POINT ( 'NONE',  ( 0.000000000000000000, 0.000000000000000000, 3.299999999999999822 ) ) ;
#450 = ORIENTED_EDGE ( 'NONE', *, *, #518, .T. ) ;
#451 = DIRECTION ( 'NONE',  ( 0.000000000000000000, -1.000000000000000000, 0.000000000000000000 ) ) ;
#452 = LINE ( 'NONE', #367, #1049 ) ;
#453 = DIRECTION ( 'NONE',  ( 1.177544999180148879E-17, -1.000000000000000000, -0.000000000000000000 ) ) ;
#454 = ORIENTED_EDGE ( 'NONE', *, *, #854, .F. ) ;
#455 = CARTESIAN_POINT ( 'NONE',  ( 0.000000000000000000, -8.400000000000000355, 0.000000000000000000 ) ) ;
#456 = LINE ( 'NONE', #795, #822 ) ;
#457 = DIRECTION ( 'NONE',  ( -0.000000000000000000, 0.000000000000000000, 1.000000000000000000 ) ) ;
#458 = ORIENTED_EDGE ( 'NONE', *, *, #491, .T. ) ;
#459 = CARTESIAN_POINT ( 'NONE',  ( 0.000000000000000000, -10.80000000000000071, 0.000000000000000000 ) ) ;
#460 = ADVANCED_FACE ( 'NONE', ( #3 ), #864, .T. ) ;
#461 = VECTOR ( 'NONE', #1100, 1000.000000000000000 ) ;
#462 = DIRECTION ( 'NONE',  ( 0.000000000000000000, 0.000000000000000000, 1.000000000000000000 ) ) ;
#463 = CIRCLE ( 'NONE', #729, 7.349999999999996980 ) ;
#464 = DIRECTION ( 'NONE',  ( 1.177544999180148879E-17, -1.000000000000000000, -0.000000000000000000 ) ) ;
#465 = ORIENTED_EDGE ( 'NONE', *, *, #206, .F. ) ;
#466 = DIRECTION ( 'NONE',  ( 1.000000000000000000, 0.000000000000000000, 0.000000000000000000 ) ) ;
#467 = VERTEX_POINT ( 'NONE', #850 ) ;
#468 = CARTESIAN_POINT ( 'NONE',  ( 0.000000000000000000, -9.300000000000000711, 0.000000000000000000 ) ) ;
#469 = CARTESIAN_POINT ( 'NONE',  ( -1.400000000000001021, -30.00000000000000000, 3.299999999999999822 ) ) ;
#470 = ADVANCED_FACE ( 'NONE', ( #594 ), #939, .T. ) ;
#471 = ORIENTED_EDGE ( 'NONE', *, *, #769, .T. ) ;
#472 = FACE_OUTER_BOUND ( 'NONE', #1088, .T. ) ;
#473 = VERTEX_POINT ( 'NONE', #166 ) ;
#474 =( LENGTH_UNIT ( ) NAMED_UNIT ( * ) SI_UNIT ( .MILLI., .METRE. ) );
#475 = CARTESIAN_POINT ( 'NONE',  ( 1.224646799147354933E-16, -1.000000000000000888, 0.000000000000000000 ) ) ;
#476 = VERTEX_POINT ( 'NONE', #525 ) ;
#477 = EDGE_CURVE ( 'NONE', #1080, #812, #511, .T. ) ;
#478 = DIRECTION ( 'NONE',  ( -0.000000000000000000, 1.000000000000000000, -0.000000000000000000 ) ) ;
#479 = COLOUR_RGB ( '',0.7921568627450980005, 0.8196078431372548767, 0.9333333333333333481 ) ;
#480 = AXIS2_PLACEMENT_3D ( 'NONE', #989, #645, #1000 ) ;
#481 = DIRECTION ( 'NONE',  ( -1.000000000000000000, 0.000000000000000000, 0.000000000000000000 ) ) ;
#482 = VECTOR ( 'NONE', #565, 1000.000000000000000 ) ;
#483 = ORIENTED_EDGE ( 'NONE', *, *, #383, .F. ) ;
#484 = VECTOR ( 'NONE', #343, 1000.000000000000000 ) ;
#485 = LINE ( 'NONE', #396, #84 ) ;
#486 = ORIENTED_EDGE ( 'NONE', *, *, #79, .F. ) ;
#487 = LINE ( 'NONE', #318, #193 ) ;
#488 = DIRECTION ( 'NONE',  ( 1.177544999180148879E-17, -1.000000000000000000, -0.000000000000000000 ) ) ;
#489 = ORIENTED_EDGE ( 'NONE', *, *, #1068, .T. ) ;
#490 = LINE ( 'NONE', #60, #332 ) ;
#491 = EDGE_CURVE ( 'NONE', #397, #473, #936, .T. ) ;
#492 = ORIENTED_EDGE ( 'NONE', *, *, #633, .F. ) ;
#493 = CARTESIAN_POINT ( 'NONE',  ( 9.001153973733043645E-16, 0.000000000000000000, -7.349999999999996980 ) ) ;
#494 = ORIENTED_EDGE ( 'NONE', *, *, #206, .T. ) ;
#495 = PLANE ( 'NONE',  #47 ) ;
#496 = EDGE_LOOP ( 'NONE', ( #892, #338 ) ) ;
#497 = UNCERTAINTY_MEASURE_WITH_UNIT (LENGTH_MEASURE( 1.000000000000000082E-05 ), #62, 'distance_accuracy_value', 'NONE');
#498 = DIRECTION ( 'NONE',  ( 0.000000000000000000, 1.000000000000000000, 0.000000000000000000 ) ) ;
#499 = LINE ( 'NONE', #1089, #1069 ) ;
#500 = CIRCLE ( 'NONE', #117, 7.799999999999999822 ) ;
#501 = DIRECTION ( 'NONE',  ( -0.000000000000000000, 1.000000000000000000, 0.000000000000000000 ) ) ;
#502 = VERTEX_POINT ( 'NONE', #695 ) ;
#503 = AXIS2_PLACEMENT_3D ( 'NONE', #16, #625, #544 ) ;
#504 = LINE ( 'NONE', #389, #652 ) ;
#505 = ORIENTED_EDGE ( 'NONE', *, *, #1028, .F. ) ;
#506 = LINE ( 'NONE', #761, #461 ) ;
#507 = EDGE_CURVE ( 'NONE', #521, #671, #590, .T. ) ;
#508 = DIRECTION ( 'NONE',  ( -0.000000000000000000, 1.000000000000000000, -0.000000000000000000 ) ) ;
#509 = VERTEX_POINT ( 'NONE', #1037 ) ;
#510 = LINE ( 'NONE', #339, #976 ) ;
#511 = LINE ( 'NONE', #81, #118 ) ;
#512 = ORIENTED_EDGE ( 'NONE', *, *, #442, .F. ) ;
#513 = EDGE_CURVE ( 'NONE', #316, #653, #610, .T. ) ;
#514 = CARTESIAN_POINT ( 'NONE',  ( 0.000000000000000000, -8.400000000000000355, 8.949999999999997513 ) ) ;
#515 = ORIENTED_EDGE ( 'NONE', *, *, #580, .T. ) ;
#516 = VECTOR ( 'NONE', #464, 1000.000000000000000 ) ;
#517 = CARTESIAN_POINT ( 'NONE',  ( -6.349999999999998757, -30.00000000000000000, 3.299999999999999822 ) ) ;
#518 = EDGE_CURVE ( 'NONE', #67, #646, #699, .T. ) ;
#519 = DIRECTION ( 'NONE',  ( 0.000000000000000000, 0.000000000000000000, -1.000000000000000000 ) ) ;
#520 = PLANE ( 'NONE',  #10 ) ;
#521 = VERTEX_POINT ( 'NONE', #362 ) ;
#522 = FACE_BOUND ( 'NONE', #130, .T. ) ;
#523 = EDGE_CURVE ( 'NONE', #78, #381, #630, .T. ) ;
#524 = DIRECTION ( 'NONE',  ( 1.000000000000000000, 0.000000000000000000, 0.000000000000000000 ) ) ;
#525 = CARTESIAN_POINT ( 'NONE',  ( 0.000000000000000000, -19.70000000000000639, 7.449999999999999289 ) ) ;
#526 = ORIENTED_EDGE ( 'NONE', *, *, #1052, .T. ) ;
#527 = PLANE ( 'NONE',  #547 ) ;
#528 = DIRECTION ( 'NONE',  ( -1.177544999180148879E-17, 1.000000000000000000, 0.000000000000000000 ) ) ;
#529 = CARTESIAN_POINT ( 'NONE',  ( -11.75000000000000000, 9.399999999999998579, 0.000000000000000000 ) ) ;
#530 = ORIENTED_EDGE ( 'NONE', *, *, #794, .T. ) ;
#531 = LINE ( 'NONE', #436, #405 ) ;
#532 = VECTOR ( 'NONE', #933, 1000.000000000000000 ) ;
#533 = VECTOR ( 'NONE', #247, 1000.000000000000000 ) ;
#534 = LINE ( 'NONE', #284, #69 ) ;
#535 = CARTESIAN_POINT ( 'NONE',  ( -1.400000000000001021, -30.00000000000000000, 2.799999999999999822 ) ) ;
#536 = VERTEX_POINT ( 'NONE', #894 ) ;
#537 = ADVANCED_FACE ( 'NONE', ( #803 ), #1047, .F. ) ;
#538 = FACE_OUTER_BOUND ( 'NONE', #990, .T. ) ;
#539 = PLANE ( 'NONE',  #634 ) ;
#540 = VERTEX_POINT ( 'NONE', #884 ) ;
#541 = CARTESIAN_POINT ( 'NONE',  ( 6.349999999999998757, -30.00000000000000000, 2.799999999999999822 ) ) ;
#542 = ADVANCED_FACE ( 'NONE', ( #1041 ), #808, .F. ) ;
#543 = CARTESIAN_POINT ( 'NONE',  ( 1.224646799147354933E-16, -1.000000000000000888, 0.000000000000000000 ) ) ;
#544 = DIRECTION ( 'NONE',  ( -1.000000000000000000, 0.000000000000000000, -1.927470528863119049E-16 ) ) ;
#545 = ORIENTED_EDGE ( 'NONE', *, *, #769, .F. ) ;
#546 = CARTESIAN_POINT ( 'NONE',  ( -1.400000000000000133, -37.60000000000000142, 3.299999999999999822 ) ) ;
#547 = AXIS2_PLACEMENT_3D ( 'NONE', #14, #1095, #94 ) ;
#548 = VECTOR ( 'NONE', #945, 1000.000000000000000 ) ;
#549 = EDGE_CURVE ( 'NONE', #679, #1048, #112, .T. ) ;
#550 = ORIENTED_EDGE ( 'NONE', *, *, #347, .F. ) ;
#551 = AXIS2_PLACEMENT_3D ( 'NONE', #694, #32, #275 ) ;
#552 = CARTESIAN_POINT ( 'NONE',  ( 0.000000000000000000, -19.70000000000000284, 0.000000000000000000 ) ) ;
#553 = CARTESIAN_POINT ( 'NONE',  ( -8.999999999999996447, -9.300000000000000711, -9.000000000000001776 ) ) ;
#554 = ORIENTED_EDGE ( 'NONE', *, *, #7, .F. ) ;
#555 = DIRECTION ( 'NONE',  ( -0.000000000000000000, 1.000000000000000000, -0.000000000000000000 ) ) ;
#556 = FACE_OUTER_BOUND ( 'NONE', #197, .T. ) ;
#557 = ADVANCED_FACE ( 'NONE', ( #204 ), #723, .F. ) ;
#558 = CARTESIAN_POINT ( 'NONE',  ( 9.000000000000003553, -9.300000000000000711, -9.000000000000000000 ) ) ;
#559 = VERTEX_POINT ( 'NONE', #285 ) ;
#560 = FACE_OUTER_BOUND ( 'NONE', #141, .T. ) ;
#561 = EDGE_LOOP ( 'NONE', ( #683, #738, #277, #1006 ) ) ;
#562 = PRODUCT ( 'AB6-V', 'AB6-V', '', ( #564 ) ) ;
#563 = LINE ( 'NONE', #128, #907 ) ;
#564 = PRODUCT_CONTEXT ( 'NONE', #163, 'mechanical' ) ;
#565 = DIRECTION ( 'NONE',  ( 1.141265444721583264E-16, -1.000000000000000000, 0.000000000000000000 ) ) ;
#566 = EDGE_LOOP ( 'NONE', ( #578, #934 ) ) ;
#567 = CARTESIAN_POINT ( 'NONE',  ( 0.000000000000000000, -1.096058885236881035E-15, 0.000000000000000000 ) ) ;
#568 = EDGE_LOOP ( 'NONE', ( #201, #895, #294, #900 ) ) ;
#569 = CIRCLE ( 'NONE', #172, 8.949999999999997513 ) ;
#570 = AXIS2_PLACEMENT_3D ( 'NONE', #439, #1026, #425 ) ;
#571 = DIRECTION ( 'NONE',  ( 1.000000000000000000, 0.000000000000000000, 0.000000000000000000 ) ) ;
#572 = AXIS2_PLACEMENT_3D ( 'NONE', #807, #15, #373 ) ;
#573 = ORIENTED_EDGE ( 'NONE', *, *, #575, .F. ) ;
#574 = CARTESIAN_POINT ( 'NONE',  ( -3.549999999999999822, -37.60000000000000142, 2.799999999999999822 ) ) ;
#575 = EDGE_CURVE ( 'NONE', #973, #797, #1085, .T. ) ;
#576 = DIRECTION ( 'NONE',  ( -0.000000000000000000, 1.000000000000000000, -0.000000000000000000 ) ) ;
#577 = CARTESIAN_POINT ( 'NONE',  ( 11.75000000000000000, -1.000000000000000666, 0.000000000000000000 ) ) ;
#578 = ORIENTED_EDGE ( 'NONE', *, *, #229, .F. ) ;
#579 = CARTESIAN_POINT ( 'NONE',  ( 4.710179996720596132E-17, 5.399999999999998579, 0.000000000000000000 ) ) ;
#580 = EDGE_CURVE ( 'NONE', #616, #781, #873, .T. ) ;
#581 = LINE ( 'NONE', #773, #278 ) ;
#582 = LINE ( 'NONE', #924, #911 ) ;
#583 = PLANE ( 'NONE',  #842 ) ;
#584 = VERTEX_POINT ( 'NONE', #27 ) ;
#585 = DIRECTION ( 'NONE',  ( -0.000000000000000000, 1.000000000000000000, -0.000000000000000000 ) ) ;
#586 = ORIENTED_EDGE ( 'NONE', *, *, #862, .F. ) ;
#587 = CARTESIAN_POINT ( 'NONE',  ( 3.550000000000001155, -30.00000000000000000, 2.799999999999999822 ) ) ;
#588 = EDGE_CURVE ( 'NONE', #103, #644, #281, .T. ) ;
#589 = FACE_OUTER_BOUND ( 'NONE', #82, .T. ) ;
#590 = CIRCLE ( 'NONE', #68, 7.799999999999999822 ) ;
#591 = ORIENTED_EDGE ( 'NONE', *, *, #262, .F. ) ;
#592 = DIRECTION ( 'NONE',  ( -1.000000000000000000, -2.282530889443166529E-16, 0.000000000000000000 ) ) ;
#593 = EDGE_CURVE ( 'NONE', #354, #1091, #289, .T. ) ;
#594 = FACE_OUTER_BOUND ( 'NONE', #636, .T. ) ;
#595 = ORIENTED_EDGE ( 'NONE', *, *, #368, .F. ) ;
#596 = DIRECTION ( 'NONE',  ( 2.282530889443166529E-16, -1.000000000000000000, 0.000000000000000000 ) ) ;
#597 = CARTESIAN_POINT ( 'NONE',  ( -8.999999999999996447, -9.300000000000000711, 8.999999999999996447 ) ) ;
#598 = EDGE_LOOP ( 'NONE', ( #236, #848, #601, #458 ) ) ;
#599 = ADVANCED_FACE ( 'NONE', ( #375 ), #717, .F. ) ;
#600 = CARTESIAN_POINT ( 'NONE',  ( -1.400000000000001021, -30.00000000000000000, 3.299999999999999822 ) ) ;
#601 = ORIENTED_EDGE ( 'NONE', *, *, #1060, .F. ) ;
#602 = AXIS2_PLACEMENT_3D ( 'NONE', #558, #481, #1072 ) ;
#603 =( NAMED_UNIT ( * ) SI_UNIT ( $, .STERADIAN. ) SOLID_ANGLE_UNIT ( ) );
#604 = EDGE_CURVE ( 'NONE', #46, #815, #276, .T. ) ;
#605 = AXIS2_PLACEMENT_3D ( 'NONE', #151, #379, #654 ) ;
#606 = CARTESIAN_POINT ( 'NONE',  ( 4.710179996720596132E-17, 5.399999999999998579, 0.000000000000000000 ) ) ;
#607 = ORIENTED_EDGE ( 'NONE', *, *, #899, .F. ) ;
#608 = DIRECTION ( 'NONE',  ( -9.637352644315595243E-17, 0.000000000000000000, 1.000000000000000000 ) ) ;
#609 = CARTESIAN_POINT ( 'NONE',  ( 9.123618653647779187E-16, -19.70000000000000639, -7.449999999999999289 ) ) ;
#610 = LINE ( 'NONE', #762, #766 ) ;
#611 = ORIENTED_EDGE ( 'NONE', *, *, #604, .T. ) ;
#612 = FACE_BOUND ( 'NONE', #496, .T. ) ;
#613 = DIRECTION ( 'NONE',  ( 0.000000000000000000, -1.000000000000000000, 0.000000000000000000 ) ) ;
#614 = EDGE_CURVE ( 'NONE', #646, #509, #640, .T. ) ;
#615 = LINE ( 'NONE', #880, #315 ) ;
#616 = VERTEX_POINT ( 'NONE', #34 ) ;
#617 = DIRECTION ( 'NONE',  ( 0.000000000000000000, 1.000000000000000000, -0.000000000000000000 ) ) ;
#618 = CIRCLE ( 'NONE', #26, 7.449999999999999289 ) ;
#619 = AXIS2_PLACEMENT_3D ( 'NONE', #92, #780, #186 ) ;
#620 = FACE_OUTER_BOUND ( 'NONE', #59, .T. ) ;
#621 = EDGE_CURVE ( 'NONE', #536, #267, #615, .T. ) ;
#622 = DIRECTION ( 'NONE',  ( 0.000000000000000000, -0.000000000000000000, 1.000000000000000000 ) ) ;
#623 = ORIENTED_EDGE ( 'NONE', *, *, #398, .F. ) ;
#624 = PLANE ( 'NONE',  #351 ) ;
#625 = DIRECTION ( 'NONE',  ( 1.927470528863119049E-16, 0.000000000000000000, -1.000000000000000000 ) ) ;
#626 = ORIENTED_EDGE ( 'NONE', *, *, #41, .T. ) ;
#627 = DIRECTION ( 'NONE',  ( -0.000000000000000000, -0.000000000000000000, -1.000000000000000000 ) ) ;
#628 = ADVANCED_FACE ( 'NONE', ( #21 ), #539, .T. ) ;
#629 = CARTESIAN_POINT ( 'NONE',  ( 9.000000000000003553, -9.300000000000000711, 9.000000000000000000 ) ) ;
#630 = LINE ( 'NONE', #704, #708 ) ;
#631 = ORIENTED_EDGE ( 'NONE', *, *, #194, .T. ) ;
#632 = VECTOR ( 'NONE', #295, 1000.000000000000000 ) ;
#633 = EDGE_CURVE ( 'NONE', #308, #1094, #749, .T. ) ;
#634 = AXIS2_PLACEMENT_3D ( 'NONE', #449, #457, #210 ) ;
#635 = PRODUCT_DEFINITION_CONTEXT ( 'detailed design', #433, 'design' ) ;
#636 = EDGE_LOOP ( 'NONE', ( #530, #471, #131, #758 ) ) ;
#637 = AXIS2_PLACEMENT_3D ( 'NONE', #992, #757, #1081 ) ;
#638 =( GEOMETRIC_REPRESENTATION_CONTEXT ( 3 ) GLOBAL_UNCERTAINTY_ASSIGNED_CONTEXT ( ( #365 ) ) GLOBAL_UNIT_ASSIGNED_CONTEXT ( ( #474, #1034, #603 ) ) REPRESENTATION_CONTEXT ( 'NONE', 'WORKASPACE' ) );
#639 = VECTOR ( 'NONE', #319, 1000.000000000000000 ) ;
#640 = LINE ( 'NONE', #535, #28 ) ;
#641 = ORIENTED_EDGE ( 'NONE', *, *, #818, .T. ) ;
#642 = ORIENTED_EDGE ( 'NONE', *, *, #194, .F. ) ;
#643 = DIRECTION ( 'NONE',  ( 1.000000000000000000, 1.845450506358305387E-17, 0.000000000000000000 ) ) ;
#644 = VERTEX_POINT ( 'NONE', #153 ) ;
#645 = DIRECTION ( 'NONE',  ( 1.177544999180148879E-17, -1.000000000000000000, -0.000000000000000000 ) ) ;
#646 = VERTEX_POINT ( 'NONE', #1090 ) ;
#647 = CARTESIAN_POINT ( 'NONE',  ( 9.000000000000003553, -8.400000000000000355, -9.000000000000000000 ) ) ;
#648 = FACE_OUTER_BOUND ( 'NONE', #1042, .T. ) ;
#649 = EDGE_CURVE ( 'NONE', #363, #272, #394, .T. ) ;
#650 = ORIENTED_EDGE ( 'NONE', *, *, #713, .F. ) ;
#651 = DIRECTION ( 'NONE',  ( -0.000000000000000000, 1.000000000000000000, -0.000000000000000000 ) ) ;
#652 = VECTOR ( 'NONE', #223, 1000.000000000000000 ) ;
#653 = VERTEX_POINT ( 'NONE', #58 ) ;
#654 = DIRECTION ( 'NONE',  ( 0.000000000000000000, 0.000000000000000000, 1.000000000000000000 ) ) ;
#655 = CIRCLE ( 'NONE', #929, 9.049999999999998934 ) ;
#656 = VECTOR ( 'NONE', #326, 1000.000000000000000 ) ;
#657 = LINE ( 'NONE', #670, #482 ) ;
#658 = AXIS2_PLACEMENT_3D ( 'NONE', #432, #95, #441 ) ;
#659 = ORIENTED_EDGE ( 'NONE', *, *, #104, .F. ) ;
#660 = EDGE_CURVE ( 'NONE', #913, #752, #64, .T. ) ;
#661 = DIRECTION ( 'NONE',  ( -0.000000000000000000, 1.000000000000000000, -0.000000000000000000 ) ) ;
#662 = FACE_OUTER_BOUND ( 'NONE', #359, .T. ) ;
#663 = CARTESIAN_POINT ( 'NONE',  ( 6.349999999999998757, -30.00000000000000000, 3.299999999999999822 ) ) ;
#664 = FACE_OUTER_BOUND ( 'NONE', #561, .T. ) ;
#665 = ORIENTED_EDGE ( 'NONE', *, *, #899, .T. ) ;
#666 = FACE_OUTER_BOUND ( 'NONE', #1098, .T. ) ;
#667 = EDGE_LOOP ( 'NONE', ( #874, #75, #728, #243 ) ) ;
#668 = ADVANCED_FACE ( 'NONE', ( #648, #399 ), #583, .T. ) ;
#669 = CARTESIAN_POINT ( 'NONE',  ( -6.349999999999998757, -30.00000000000000000, 3.299999999999999822 ) ) ;
#670 = CARTESIAN_POINT ( 'NONE',  ( -1.400000000000001021, -30.00000000000000000, 3.299999999999999822 ) ) ;
#671 = VERTEX_POINT ( 'NONE', #386 ) ;
#672 = CARTESIAN_POINT ( 'NONE',  ( -8.999999999999996447, -9.300000000000000711, -9.000000000000001776 ) ) ;
#673 = EDGE_LOOP ( 'NONE', ( #217, #901, #743, #984 ) ) ;
#674 = ADVANCED_FACE ( 'NONE', ( #737 ), #406, .T. ) ;
#675 = FACE_OUTER_BOUND ( 'NONE', #598, .T. ) ;
#676 = PLANE ( 'NONE',  #1066 ) ;
#677 = AXIS2_PLACEMENT_3D ( 'NONE', #6, #938, #344 ) ;
#678 = CLOSED_SHELL ( 'NONE', ( #356, #867, #668, #296, #110, #741 ) ) ;
#679 = VERTEX_POINT ( 'NONE', #214 ) ;
#680 = CIRCLE ( 'NONE', #605, 7.449999999999999289 ) ;
#681 = DIRECTION ( 'NONE',  ( -1.711898167082374773E-16, -1.000000000000000000, 0.000000000000000000 ) ) ;
#682 = DIRECTION ( 'NONE',  ( 1.000000000000000000, 0.000000000000000000, 0.000000000000000000 ) ) ;
#683 = ORIENTED_EDGE ( 'NONE', *, *, #173, .T. ) ;
#684 = DIRECTION ( 'NONE',  ( -0.000000000000000000, -0.000000000000000000, -1.000000000000000000 ) ) ;
#685 = ADVANCED_FACE ( 'NONE', ( #53 ), #844, .T. ) ;
#686 = ORIENTED_EDGE ( 'NONE', *, *, #422, .T. ) ;
#687 = DIRECTION ( 'NONE',  ( -0.000000000000000000, -0.000000000000000000, -1.000000000000000000 ) ) ;
#688 = DIRECTION ( 'NONE',  ( 0.000000000000000000, 1.000000000000000000, -0.000000000000000000 ) ) ;
#689 = AXIS2_PLACEMENT_3D ( 'NONE', #1059, #555, #706 ) ;
#690 = DIRECTION ( 'NONE',  ( 1.711898167082374773E-16, 1.000000000000000000, 0.000000000000000000 ) ) ;
#691 = ORIENTED_EDGE ( 'NONE', *, *, #872, .T. ) ;
#692 = AXIS2_PLACEMENT_3D ( 'NONE', #606, #180, #524 ) ;
#693 = FACE_OUTER_BOUND ( 'NONE', #714, .T. ) ;
#694 = CARTESIAN_POINT ( 'NONE',  ( 0.000000000000000000, -10.80000000000000071, 0.000000000000000000 ) ) ;
#695 = CARTESIAN_POINT ( 'NONE',  ( 7.799999999999999822, -6.505213034913026604E-16, 0.000000000000000000 ) ) ;
#696 = ORIENTED_EDGE ( 'NONE', *, *, #1082, .T. ) ;
#697 = ADVANCED_FACE ( 'NONE', ( #814 ), #320, .F. ) ;
#698 = DIRECTION ( 'NONE',  ( 1.141265444721583264E-16, 1.000000000000000000, -0.000000000000000000 ) ) ;
#699 = LINE ( 'NONE', #107, #312 ) ;
#700 = ORIENTED_EDGE ( 'NONE', *, *, #580, .F. ) ;
#701 = LINE ( 'NONE', #360, #426 ) ;
#702 = ADVANCED_FACE ( 'NONE', ( #664 ), #824, .F. ) ;
#703 = PLANE ( 'NONE',  #572 ) ;
#704 = CARTESIAN_POINT ( 'NONE',  ( -6.350000000000000533, -37.60000000000000142, 3.299999999999999822 ) ) ;
#705 = ORIENTED_EDGE ( 'NONE', *, *, #660, .T. ) ;
#706 = DIRECTION ( 'NONE',  ( 0.000000000000000000, 0.000000000000000000, 1.000000000000000000 ) ) ;
#707 = VECTOR ( 'NONE', #661, 1000.000000000000000 ) ;
#708 = VECTOR ( 'NONE', #967, 1000.000000000000000 ) ;
#709 = VECTOR ( 'NONE', #852, 1000.000000000000000 ) ;
#710 = AXIS2_PLACEMENT_3D ( 'NONE', #1076, #979, #145 ) ;
#711 = DIRECTION ( 'NONE',  ( -1.000000000000000000, -1.177544999180148879E-17, 0.000000000000000000 ) ) ;
#712 = DIRECTION ( 'NONE',  ( 0.000000000000000000, 0.000000000000000000, -1.000000000000000000 ) ) ;
#713 = EDGE_CURVE ( 'NONE', #996, #126, #742, .T. ) ;
#714 = EDGE_LOOP ( 'NONE', ( #489, #113, #512, #1070 ) ) ;
#715 = DIRECTION ( 'NONE',  ( 0.000000000000000000, 0.000000000000000000, 1.000000000000000000 ) ) ;
#716 = CARTESIAN_POINT ( 'NONE',  ( -8.999999999999996447, -8.400000000000000355, 8.999999999999996447 ) ) ;
#717 = PLANE ( 'NONE',  #975 ) ;
#718 = EDGE_LOOP ( 'NONE', ( #494, #988, #734, #763 ) ) ;
#719 = ADVANCED_FACE ( 'NONE', ( #305 ), #414, .F. ) ;
#720 = DIRECTION ( 'NONE',  ( 0.000000000000000000, 0.000000000000000000, 1.000000000000000000 ) ) ;
#721 = CARTESIAN_POINT ( 'NONE',  ( -11.75000000000000000, 9.399999999999998579, 1.438959988998140160E-15 ) ) ;
#722 = ADVANCED_BREP_SHAPE_REPRESENTATION ( 'AB6-V', ( #57, #417, #710 ), #196 ) ;
#723 = PLANE ( 'NONE',  #503 ) ;
#724 = ORIENTED_EDGE ( 'NONE', *, *, #949, .F. ) ;
#725 = LINE ( 'NONE', #109, #349 ) ;
#726 = AXIS2_PLACEMENT_3D ( 'NONE', #148, #838, #754 ) ;
#727 = MECHANICAL_DESIGN_GEOMETRIC_PRESENTATION_REPRESENTATION (  '', ( #158 ), #1106 ) ;
#728 = ORIENTED_EDGE ( 'NONE', *, *, #1099, .F. ) ;
#729 = AXIS2_PLACEMENT_3D ( 'NONE', #330, #688, #519 ) ;
#730 = VECTOR ( 'NONE', #348, 1000.000000000000000 ) ;
#731 = CARTESIAN_POINT ( 'NONE',  ( 0.000000000000000000, -30.00000000000000000, 7.349999999999996092 ) ) ;
#732 = CARTESIAN_POINT ( 'NONE',  ( 0.000000000000000000, 0.000000000000000000, 2.799999999999999822 ) ) ;
#733 = ORIENTED_EDGE ( 'NONE', *, *, #614, .T. ) ;
#734 = ORIENTED_EDGE ( 'NONE', *, *, #523, .F. ) ;
#735 = EDGE_CURVE ( 'NONE', #781, #306, #657, .T. ) ;
#736 = EDGE_LOOP ( 'NONE', ( #1024, #154, #724, #811 ) ) ;
#737 = FACE_OUTER_BOUND ( 'NONE', #388, .T. ) ;
#738 = ORIENTED_EDGE ( 'NONE', *, *, #477, .F. ) ;
#739 = DIRECTION ( 'NONE',  ( 0.000000000000000000, 0.000000000000000000, 1.000000000000000000 ) ) ;
#740 = ORIENTED_EDGE ( 'NONE', *, *, #915, .T. ) ;
#741 = ADVANCED_FACE ( 'NONE', ( #311 ), #751, .F. ) ;
#742 = LINE ( 'NONE', #226, #350 ) ;
#743 = ORIENTED_EDGE ( 'NONE', *, *, #7, .T. ) ;
#744 = CARTESIAN_POINT ( 'NONE',  ( 0.000000000000000000, -19.70000000000000284, 0.000000000000000000 ) ) ;
#745 = ORIENTED_EDGE ( 'NONE', *, *, #1060, .T. ) ;
#746 = AXIS2_PLACEMENT_3D ( 'NONE', #23, #478, #886 ) ;
#747 = SURFACE_STYLE_FILL_AREA ( #297 ) ;
#748 = DIRECTION ( 'NONE',  ( -1.711898167082374773E-16, 1.000000000000000000, -0.000000000000000000 ) ) ;
#749 = CIRCLE ( 'NONE', #209, 7.349999999999996980 ) ;
#750 = VECTOR ( 'NONE', #255, 1000.000000000000000 ) ;
#751 = CYLINDRICAL_SURFACE ( 'NONE', #233, 7.449999999999999289 ) ;
#752 = VERTEX_POINT ( 'NONE', #235 ) ;
#753 = ADVANCED_FACE ( 'NONE', ( #898 ), #129, .T. ) ;
#754 = DIRECTION ( 'NONE',  ( 0.000000000000000000, -0.000000000000000000, -1.000000000000000000 ) ) ;
#755 = ORIENTED_EDGE ( 'NONE', *, *, #513, .F. ) ;
#756 = DIRECTION ( 'NONE',  ( 0.000000000000000000, -0.000000000000000000, -1.000000000000000000 ) ) ;
#757 = DIRECTION ( 'NONE',  ( -0.000000000000000000, 0.000000000000000000, 1.000000000000000000 ) ) ;
#758 = ORIENTED_EDGE ( 'NONE', *, *, #391, .F. ) ;
#759 = ORIENTED_EDGE ( 'NONE', *, *, #887, .F. ) ;
#760 = EDGE_CURVE ( 'NONE', #559, #467, #912, .T. ) ;
#761 = CARTESIAN_POINT ( 'NONE',  ( 7.799999999999999822, -1.000000000000000888, 0.000000000000000000 ) ) ;
#762 = CARTESIAN_POINT ( 'NONE',  ( 3.549999999999999822, -37.60000000000000142, 3.299999999999999822 ) ) ;
#763 = ORIENTED_EDGE ( 'NONE', *, *, #269, .T. ) ;
#764 = AXIS2_PLACEMENT_3D ( 'NONE', #150, #1003, #756 ) ;
#765 = LINE ( 'NONE', #336, #944 ) ;
#766 = VECTOR ( 'NONE', #1101, 1000.000000000000000 ) ;
#767 = CARTESIAN_POINT ( 'NONE',  ( 4.710179996720596132E-17, 5.399999999999998579, 0.000000000000000000 ) ) ;
#768 = ORIENTED_EDGE ( 'NONE', *, *, #507, .F. ) ;
#769 = EDGE_CURVE ( 'NONE', #167, #308, #146, .T. ) ;
#770 = CARTESIAN_POINT ( 'NONE',  ( 0.000000000000000000, 0.000000000000000000, 0.000000000000000000 ) ) ;
#771 = LINE ( 'NONE', #353, #820 ) ;
#772 = ORIENTED_EDGE ( 'NONE', *, *, #19, .F. ) ;
#773 = CARTESIAN_POINT ( 'NONE',  ( 1.400000000000001021, -30.00000000000000000, 3.299999999999999822 ) ) ;
#774 = LINE ( 'NONE', #600, #317 ) ;
#775 = EDGE_CURVE ( 'NONE', #781, #646, #774, .T. ) ;
#776 = PRESENTATION_STYLE_ASSIGNMENT (( #868 ) ) ;
#777 = EDGE_LOOP ( 'NONE', ( #157, #400, #408, #88 ) ) ;
#778 = DIRECTION ( 'NONE',  ( 1.000000000000000000, 0.000000000000000000, 9.637352644315595243E-17 ) ) ;
#779 = LINE ( 'NONE', #935, #709 ) ;
#780 = DIRECTION ( 'NONE',  ( -0.000000000000000000, 0.000000000000000000, 1.000000000000000000 ) ) ;
#781 = VERTEX_POINT ( 'NONE', #246 ) ;
#782 = ADVANCED_FACE ( 'NONE', ( #164 ), #1021, .T. ) ;
#783 = AXIS2_PLACEMENT_3D ( 'NONE', #543, #971, #1036 ) ;
#784 = LINE ( 'NONE', #517, #730 ) ;
#785 = PLANE ( 'NONE',  #447 ) ;
#786 = DIRECTION ( 'NONE',  ( -0.000000000000000000, -0.000000000000000000, -1.000000000000000000 ) ) ;
#787 = VERTEX_POINT ( 'NONE', #265 ) ;
#788 = CARTESIAN_POINT ( 'NONE',  ( -9.049999999999995381, -19.70000000000000284, 0.000000000000000000 ) ) ;
#789 = EDGE_CURVE ( 'NONE', #212, #272, #510, .T. ) ;
#790 = LINE ( 'NONE', #20, #86 ) ;
#791 = DIRECTION ( 'NONE',  ( -1.000000000000000000, 1.141265444721583264E-16, 0.000000000000000000 ) ) ;
#792 = EDGE_LOOP ( 'NONE', ( #327, #831, #999, #96 ) ) ;
#793 = CARTESIAN_POINT ( 'NONE',  ( 1.096058885236880838E-15, -8.400000000000000355, -8.949999999999997513 ) ) ;
#794 = EDGE_CURVE ( 'NONE', #1054, #167, #1107, .T. ) ;
#795 = CARTESIAN_POINT ( 'NONE',  ( 3.550000000000001155, -30.00000000000000000, 3.299999999999999822 ) ) ;
#796 = CARTESIAN_POINT ( 'NONE',  ( 0.000000000000000000, -1.096058885236881035E-15, 0.000000000000000000 ) ) ;
#797 = VERTEX_POINT ( 'NONE', #419 ) ;
#798 = AXIS2_PLACEMENT_3D ( 'NONE', #744, #585, #847 ) ;
#799 = DIRECTION ( 'NONE',  ( -0.000000000000000000, 1.000000000000000000, -0.000000000000000000 ) ) ;
#800 = VECTOR ( 'NONE', #423, 1000.000000000000000 ) ;
#801 = FACE_OUTER_BOUND ( 'NONE', #302, .T. ) ;
#802 = ADVANCED_FACE ( 'NONE', ( #589 ), #168, .T. ) ;
#803 = FACE_OUTER_BOUND ( 'NONE', #667, .T. ) ;
#804 = ORIENTED_EDGE ( 'NONE', *, *, #422, .F. ) ;
#805 = DIRECTION ( 'NONE',  ( -0.000000000000000000, 1.000000000000000000, 0.000000000000000000 ) ) ;
#806 = LINE ( 'NONE', #1075, #429 ) ;
#807 = CARTESIAN_POINT ( 'NONE',  ( -1.400000000000000133, -37.60000000000000142, 3.299999999999999822 ) ) ;
#808 = PLANE ( 'NONE',  #409 ) ;
#809 = EDGE_LOOP ( 'NONE', ( #1102, #804, #56, #1073 ) ) ;
#810 = CARTESIAN_POINT ( 'NONE',  ( 0.000000000000000000, -10.80000000000000071, 0.000000000000000000 ) ) ;
#811 = ORIENTED_EDGE ( 'NONE', *, *, #287, .T. ) ;
#812 = VERTEX_POINT ( 'NONE', #932 ) ;
#813 = CARTESIAN_POINT ( 'NONE',  ( 9.000000000000003553, -9.300000000000000711, 9.000000000000000000 ) ) ;
#814 = FACE_OUTER_BOUND ( 'NONE', #955, .T. ) ;
#815 = VERTEX_POINT ( 'NONE', #1017 ) ;
#816 = DIRECTION ( 'NONE',  ( -0.000000000000000000, -0.000000000000000000, -1.000000000000000000 ) ) ;
#817 = AXIS2_PLACEMENT_3D ( 'NONE', #828, #576, #132 ) ;
#818 = EDGE_CURVE ( 'NONE', #584, #170, #1, .T. ) ;
#819 = CIRCLE ( 'NONE', #480, 11.75000000000000000 ) ;
#820 = VECTOR ( 'NONE', #257, 1000.000000000000000 ) ;
#821 = ORIENTED_EDGE ( 'NONE', *, *, #915, .F. ) ;
#822 = VECTOR ( 'NONE', #870, 1000.000000000000000 ) ;
#823 = VECTOR ( 'NONE', #183, 1000.000000000000000 ) ;
#824 = PLANE ( 'NONE',  #602 ) ;
#825 = ORIENTED_EDGE ( 'NONE', *, *, #789, .F. ) ;
#826 = DIRECTION ( 'NONE',  ( -0.000000000000000000, 1.000000000000000000, -0.000000000000000000 ) ) ;
#827 = EDGE_CURVE ( 'NONE', #1094, #308, #463, .T. ) ;
#828 = CARTESIAN_POINT ( 'NONE',  ( 0.000000000000000000, 0.000000000000000000, 0.000000000000000000 ) ) ;
#829 = CARTESIAN_POINT ( 'NONE',  ( 0.000000000000000000, -10.80000000000000071, 7.449999999999999289 ) ) ;
#830 = CARTESIAN_POINT ( 'NONE',  ( -3.550000000000001155, -30.00000000000000000, 2.799999999999999822 ) ) ;
#831 = ORIENTED_EDGE ( 'NONE', *, *, #953, .T. ) ;
#832 = CARTESIAN_POINT ( 'NONE',  ( 3.549999999999999822, -37.60000000000000142, 3.299999999999999822 ) ) ;
#833 = DIRECTION ( 'NONE',  ( -1.000000000000000000, -0.000000000000000000, -0.000000000000000000 ) ) ;
#834 = CARTESIAN_POINT ( 'NONE',  ( -6.349999999999998757, -30.00000000000000000, 3.299999999999999822 ) ) ;
#835 = ADVANCED_FACE ( 'NONE', ( #675 ), #863, .F. ) ;
#836 = DIRECTION ( 'NONE',  ( -0.000000000000000000, -0.000000000000000000, -1.000000000000000000 ) ) ;
#837 = VERTEX_POINT ( 'NONE', #76 ) ;
#838 = DIRECTION ( 'NONE',  ( 0.000000000000000000, -1.000000000000000000, 0.000000000000000000 ) ) ;
#839 = ORIENTED_EDGE ( 'NONE', *, *, #1052, .F. ) ;
#840 = DIRECTION ( 'NONE',  ( 0.000000000000000000, 0.000000000000000000, 1.000000000000000000 ) ) ;
#841 = CARTESIAN_POINT ( 'NONE',  ( 0.000000000000000000, -9.300000000000000711, 7.349999999999996980 ) ) ;
#842 = AXIS2_PLACEMENT_3D ( 'NONE', #240, #501, #987 ) ;
#843 = VECTOR ( 'NONE', #698, 1000.000000000000000 ) ;
#844 = CYLINDRICAL_SURFACE ( 'NONE', #1086, 11.75000000000000000 ) ;
#845 = EDGE_CURVE ( 'NONE', #241, #904, #30, .T. ) ;
#846 = ORIENTED_EDGE ( 'NONE', *, *, #137, .F. ) ;
#847 = DIRECTION ( 'NONE',  ( 0.000000000000000000, 0.000000000000000000, 1.000000000000000000 ) ) ;
#848 = ORIENTED_EDGE ( 'NONE', *, *, #818, .F. ) ;
#849 = DIRECTION ( 'NONE',  ( -0.000000000000000000, 1.000000000000000000, -0.000000000000000000 ) ) ;
#850 = CARTESIAN_POINT ( 'NONE',  ( 11.75000000000000178, 5.399999999999998579, 0.000000000000000000 ) ) ;
#851 = VERTEX_POINT ( 'NONE', #85 ) ;
#852 = DIRECTION ( 'NONE',  ( -0.000000000000000000, -0.000000000000000000, -1.000000000000000000 ) ) ;
#853 = ORIENTED_EDGE ( 'NONE', *, *, #760, .F. ) ;
#854 = EDGE_CURVE ( 'NONE', #671, #502, #506, .T. ) ;
#855 = CIRCLE ( 'NONE', #1013, 8.949999999999999289 ) ;
#856 = FACE_OUTER_BOUND ( 'NONE', #162, .T. ) ;
#857 = PRESENTATION_LAYER_ASSIGNMENT (  '', '', ( #158 ) ) ;
#858 = SURFACE_SIDE_STYLE ('',( #169 ) ) ;
#859 = AXIS2_PLACEMENT_3D ( 'NONE', #943, #950, #159 ) ;
#860 = VERTEX_POINT ( 'NONE', #11 ) ;
#861 = DIRECTION ( 'NONE',  ( 0.000000000000000000, -1.000000000000000000, 0.000000000000000000 ) ) ;
#862 = EDGE_CURVE ( 'NONE', #671, #521, #411, .T. ) ;
#863 = PLANE ( 'NONE',  #120 ) ;
#864 = PLANE ( 'NONE',  #619 ) ;
#865 = ORIENTED_EDGE ( 'NONE', *, *, #575, .T. ) ;
#866 = FACE_OUTER_BOUND ( 'NONE', #1008, .T. ) ;
#867 = ADVANCED_FACE ( 'NONE', ( #866 ), #253, .T. ) ;
#868 = SURFACE_STYLE_USAGE ( .BOTH. , #858 ) ;
#869 = EDGE_LOOP ( 'NONE', ( #13, #611, #54, #853 ) ) ;
#870 = DIRECTION ( 'NONE',  ( -1.711898167082374773E-16, -1.000000000000000000, 0.000000000000000000 ) ) ;
#871 = AXIS2_PLACEMENT_3D ( 'NONE', #669, #1009, #171 ) ;
#872 = EDGE_CURVE ( 'NONE', #381, #363, #779, .T. ) ;
#873 = LINE ( 'NONE', #469, #279 ) ;
#874 = ORIENTED_EDGE ( 'NONE', *, *, #977, .T. ) ;
#875 = AXIS2_PLACEMENT_3D ( 'NONE', #203, #1044, #270 ) ;
#876 = AXIS2_PLACEMENT_3D ( 'NONE', #788, #861, #1039 ) ;
#877 = CARTESIAN_POINT ( 'NONE',  ( 1.108305353228354590E-15, -10.80000000000000071, -9.049999999999998934 ) ) ;
#878 = PRODUCT_DEFINITION_FORMATION_WITH_SPECIFIED_SOURCE ( 'ANY', '', #562, .NOT_KNOWN. ) ;
#879 = CARTESIAN_POINT ( 'NONE',  ( 1.106892299229339798E-16, -6.505213034913026604E-16, 0.000000000000000000 ) ) ;
#880 = CARTESIAN_POINT ( 'NONE',  ( -6.349999999999998757, -30.00000000000000000, 2.799999999999999822 ) ) ;
#881 = ORIENTED_EDGE ( 'NONE', *, *, #324, .T. ) ;
#882 = DIRECTION ( 'NONE',  ( 1.000000000000000000, 0.000000000000000000, 0.000000000000000000 ) ) ;
#883 = DIRECTION ( 'NONE',  ( 0.000000000000000000, 0.000000000000000000, 1.000000000000000000 ) ) ;
#884 = CARTESIAN_POINT ( 'NONE',  ( 3.549999999999998490, -30.00000000000000000, 2.799999999999999822 ) ) ;
#885 = ORIENTED_EDGE ( 'NONE', *, *, #407, .F. ) ;
#886 = DIRECTION ( 'NONE',  ( 0.000000000000000000, 0.000000000000000000, 1.000000000000000000 ) ) ;
#887 = EDGE_CURVE ( 'NONE', #644, #354, #80, .T. ) ;
#888 = DIRECTION ( 'NONE',  ( -0.000000000000000000, 1.000000000000000000, -0.000000000000000000 ) ) ;
#889 = DIRECTION ( 'NONE',  ( -1.141265444721583264E-16, -1.000000000000000000, 0.000000000000000000 ) ) ;
#890 = ORIENTED_EDGE ( 'NONE', *, *, #2, .T. ) ;
#891 = DIRECTION ( 'NONE',  ( -0.000000000000000000, 1.000000000000000000, -0.000000000000000000 ) ) ;
#892 = ORIENTED_EDGE ( 'NONE', *, *, #1105, .T. ) ;
#893 = LINE ( 'NONE', #629, #369 ) ;
#894 = CARTESIAN_POINT ( 'NONE',  ( -6.350000000000000533, -30.00000000000000000, 2.799999999999999822 ) ) ;
#895 = ORIENTED_EDGE ( 'NONE', *, *, #713, .T. ) ;
#896 = LINE ( 'NONE', #1050, #1064 ) ;
#897 = ORIENTED_EDGE ( 'NONE', *, *, #614, .F. ) ;
#898 = FACE_OUTER_BOUND ( 'NONE', #777, .T. ) ;
#899 = EDGE_CURVE ( 'NONE', #540, #653, #765, .T. ) ;
#900 = ORIENTED_EDGE ( 'NONE', *, *, #304, .F. ) ;
#901 = ORIENTED_EDGE ( 'NONE', *, *, #789, .T. ) ;
#902 = LINE ( 'NONE', #144, #961 ) ;
#903 = CARTESIAN_POINT ( 'NONE',  ( 0.000000000000000000, 0.000000000000000000, 0.000000000000000000 ) ) ;
#904 = VERTEX_POINT ( 'NONE', #514 ) ;
#905 = ADVANCED_FACE ( 'NONE', ( #856 ), #1040, .F. ) ;
#906 = LINE ( 'NONE', #927, #532 ) ;
#907 = VECTOR ( 'NONE', #44, 1000.000000000000000 ) ;
#908 = VECTOR ( 'NONE', #816, 1000.000000000000000 ) ;
#909 = ORIENTED_EDGE ( 'NONE', *, *, #79, .T. ) ;
#910 = AXIS2_PLACEMENT_3D ( 'NONE', #116, #888, #462 ) ;
#911 = VECTOR ( 'NONE', #213, 1000.000000000000000 ) ;
#912 = LINE ( 'NONE', #577, #1067 ) ;
#913 = VERTEX_POINT ( 'NONE', #716 ) ;
#914 = DIRECTION ( 'NONE',  ( -0.000000000000000000, -0.000000000000000000, -1.000000000000000000 ) ) ;
#915 = EDGE_CURVE ( 'NONE', #837, #139, #1031, .T. ) ;
#916 = EDGE_LOOP ( 'NONE', ( #586, #768 ) ) ;
#917 = APPLICATION_PROTOCOL_DEFINITION ( 'draft international standard', 'automotive_design', 1998, #163 ) ;
#918 = DIRECTION ( 'NONE',  ( 1.177544999180148879E-17, -1.000000000000000000, -0.000000000000000000 ) ) ;
#919 = ORIENTED_EDGE ( 'NONE', *, *, #588, .T. ) ;
#920 = LINE ( 'NONE', #672, #533 ) ;
#921 = ORIENTED_EDGE ( 'NONE', *, *, #649, .T. ) ;
#922 = ADVANCED_FACE ( 'NONE', ( #620 ), #703, .F. ) ;
#923 = CARTESIAN_POINT ( 'NONE',  ( 3.550000000000001155, -30.00000000000000000, 3.299999999999999822 ) ) ;
#924 = CARTESIAN_POINT ( 'NONE',  ( 1.400000000000001021, -30.00000000000000000, 3.299999999999999822 ) ) ;
#925 = CARTESIAN_POINT ( 'NONE',  ( 0.000000000000000000, 0.000000000000000000, 3.299999999999999822 ) ) ;
#926 = ORIENTED_EDGE ( 'NONE', *, *, #953, .F. ) ;
#927 = CARTESIAN_POINT ( 'NONE',  ( 0.000000000000000000, 0.000000000000000000, 9.049999999999997158 ) ) ;
#928 = ORIENTED_EDGE ( 'NONE', *, *, #1022, .F. ) ;
#929 = AXIS2_PLACEMENT_3D ( 'NONE', #810, #891, #720 ) ;
#930 = CARTESIAN_POINT ( 'NONE',  ( 9.123618653647779187E-16, -10.80000000000000071, -7.449999999999999289 ) ) ;
#931 = CIRCLE ( 'NONE', #387, 11.75000000000000000 ) ;
#932 = CARTESIAN_POINT ( 'NONE',  ( 9.000000000000003553, -8.400000000000000355, 9.000000000000000000 ) ) ;
#933 = DIRECTION ( 'NONE',  ( -0.000000000000000000, 1.000000000000000000, -0.000000000000000000 ) ) ;
#934 = ORIENTED_EDGE ( 'NONE', *, *, #845, .F. ) ;
#935 = CARTESIAN_POINT ( 'NONE',  ( -3.549999999999999822, -37.60000000000000142, 3.299999999999999822 ) ) ;
#936 = LINE ( 'NONE', #12, #136 ) ;
#937 = ORIENTED_EDGE ( 'NONE', *, *, #523, .T. ) ;
#938 = DIRECTION ( 'NONE',  ( 0.000000000000000000, 1.000000000000000000, -0.000000000000000000 ) ) ;
#939 = CYLINDRICAL_SURFACE ( 'NONE', #570, 7.349999999999996980 ) ;
#940 = ORIENTED_EDGE ( 'NONE', *, *, #593, .F. ) ;
#941 = ADVANCED_FACE ( 'NONE', ( #538 ), #1056, .T. ) ;
#942 = VECTOR ( 'NONE', #55, 1000.000000000000000 ) ;
#943 = CARTESIAN_POINT ( 'NONE',  ( 1.224646799147354933E-16, -1.000000000000000888, 0.000000000000000000 ) ) ;
#944 = VECTOR ( 'NONE', #681, 1000.000000000000000 ) ;
#945 = DIRECTION ( 'NONE',  ( -0.000000000000000000, 1.000000000000000000, -0.000000000000000000 ) ) ;
#946 = AXIS2_PLACEMENT_3D ( 'NONE', #299, #134, #571 ) ;
#947 = ORIENTED_EDGE ( 'NONE', *, *, #621, .F. ) ;
#948 = CARTESIAN_POINT ( 'NONE',  ( 1.400000000000001021, -30.00000000000000000, 2.799999999999999822 ) ) ;
#949 = EDGE_CURVE ( 'NONE', #1110, #78, #534, .T. ) ;
#950 = DIRECTION ( 'NONE',  ( 1.177544999180148879E-17, -1.000000000000000000, -0.000000000000000000 ) ) ;
#951 = ORIENTED_EDGE ( 'NONE', *, *, #179, .F. ) ;
#952 = CARTESIAN_POINT ( 'NONE',  ( -6.350000000000000533, -37.60000000000000142, 3.299999999999999822 ) ) ;
#953 = EDGE_CURVE ( 'NONE', #46, #559, #931, .T. ) ;
#954 = LINE ( 'NONE', #288, #843 ) ;
#955 = EDGE_LOOP ( 'NONE', ( #897, #17, #333, #371 ) ) ;
#956 = CARTESIAN_POINT ( 'NONE',  ( 1.106892299229339798E-16, -6.505213034913026604E-16, 0.000000000000000000 ) ) ;
#957 = FACE_OUTER_BOUND ( 'NONE', #22, .T. ) ;
#958 = AXIS2_PLACEMENT_3D ( 'NONE', #328, #826, #161 ) ;
#959 = DIRECTION ( 'NONE',  ( -0.000000000000000000, 1.000000000000000000, -0.000000000000000000 ) ) ;
#960 = ORIENTED_EDGE ( 'NONE', *, *, #313, .T. ) ;
#961 = VECTOR ( 'NONE', #833, 1000.000000000000000 ) ;
#962 = CARTESIAN_POINT ( 'NONE',  ( 0.000000000000000000, 9.399999999999998579, 0.000000000000000000 ) ) ;
#963 = DIRECTION ( 'NONE',  ( 0.000000000000000000, 0.000000000000000000, 1.000000000000000000 ) ) ;
#964 = ORIENTED_EDGE ( 'NONE', *, *, #374, .F. ) ;
#965 = CARTESIAN_POINT ( 'NONE',  ( -3.550000000000001155, -30.00000000000000000, 3.299999999999999822 ) ) ;
#966 = DIRECTION ( 'NONE',  ( 0.000000000000000000, -0.000000000000000000, -1.000000000000000000 ) ) ;
#967 = DIRECTION ( 'NONE',  ( 1.000000000000000000, 0.000000000000000000, 0.000000000000000000 ) ) ;
#968 = ORIENTED_EDGE ( 'NONE', *, *, #649, .F. ) ;
#969 = ADVANCED_FACE ( 'NONE', ( #957 ), #199, .T. ) ;
#970 = CARTESIAN_POINT ( 'NONE',  ( 1.096058885236880838E-15, 0.000000000000000000, -8.949999999999997513 ) ) ;
#971 = DIRECTION ( 'NONE',  ( 1.177544999180148879E-17, -1.000000000000000000, -0.000000000000000000 ) ) ;
#972 = DIRECTION ( 'NONE',  ( 0.000000000000000000, 1.000000000000000000, 0.000000000000000000 ) ) ;
#973 = VERTEX_POINT ( 'NONE', #191 ) ;
#974 = FACE_BOUND ( 'NONE', #43, .T. ) ;
#975 = AXIS2_PLACEMENT_3D ( 'NONE', #200, #972, #622 ) ;
#976 = VECTOR ( 'NONE', #259, 1000.000000000000000 ) ;
#977 = EDGE_CURVE ( 'NONE', #1048, #67, #954, .T. ) ;
#978 = PRESENTATION_STYLE_ASSIGNMENT (( #291 ) ) ;
#979 = DIRECTION ( 'NONE',  ( 0.000000000000000000, 0.000000000000000000, 1.000000000000000000 ) ) ;
#980 = DIRECTION ( 'NONE',  ( 0.000000000000000000, 1.000000000000000000, -0.000000000000000000 ) ) ;
#981 = ORIENTED_EDGE ( 'NONE', *, *, #827, .T. ) ;
#982 = CARTESIAN_POINT ( 'NONE',  ( 0.000000000000000000, -5.480294426184405177E-16, 0.000000000000000000 ) ) ;
#983 = EDGE_LOOP ( 'NONE', ( #705, #623, #149, #686 ) ) ;
#984 = ORIENTED_EDGE ( 'NONE', *, *, #287, .F. ) ;
#985 = SHAPE_DEFINITION_REPRESENTATION ( #31, #722 ) ;
#986 = EDGE_CURVE ( 'NONE', #1080, #103, #893, .T. ) ;
#987 = DIRECTION ( 'NONE',  ( 0.000000000000000000, 0.000000000000000000, 1.000000000000000000 ) ) ;
#988 = ORIENTED_EDGE ( 'NONE', *, *, #872, .F. ) ;
#989 = CARTESIAN_POINT ( 'NONE',  ( 0.000000000000000000, 9.399999999999998579, 0.000000000000000000 ) ) ;
#990 = EDGE_LOOP ( 'NONE', ( #1001, #222, #177, #454 ) ) ;
#991 = ORIENTED_EDGE ( 'NONE', *, *, #845, .T. ) ;
#992 = CARTESIAN_POINT ( 'NONE',  ( 0.000000000000000000, 0.000000000000000000, 2.799999999999999822 ) ) ;
#993 = EDGE_LOOP ( 'NONE', ( #72, #395 ) ) ;
#994 = DIRECTION ( 'NONE',  ( -1.141265444721583264E-16, 1.000000000000000000, 0.000000000000000000 ) ) ;
#995 = VECTOR ( 'NONE', #358, 1000.000000000000000 ) ;
#996 = VERTEX_POINT ( 'NONE', #609 ) ;
#997 = AXIS2_PLACEMENT_3D ( 'NONE', #770, #849, #91 ) ;
#998 = DIRECTION ( 'NONE',  ( -0.000000000000000000, 1.000000000000000000, -0.000000000000000000 ) ) ;
#999 = ORIENTED_EDGE ( 'NONE', *, *, #760, .T. ) ;
#1000 = DIRECTION ( 'NONE',  ( 1.000000000000000000, 0.000000000000000000, 0.000000000000000000 ) ) ;
#1001 = ORIENTED_EDGE ( 'NONE', *, *, #862, .T. ) ;
#1002 = ADVANCED_FACE ( 'NONE', ( #184, #801 ), #785, .F. ) ;
#1003 = DIRECTION ( 'NONE',  ( 0.000000000000000000, -1.000000000000000000, 0.000000000000000000 ) ) ;
#1004 = DIRECTION ( 'NONE',  ( -0.000000000000000000, 1.000000000000000000, -0.000000000000000000 ) ) ;
#1005 = DIRECTION ( 'NONE',  ( 1.000000000000000000, 0.000000000000000000, 0.000000000000000000 ) ) ;
#1006 = ORIENTED_EDGE ( 'NONE', *, *, #593, .T. ) ;
#1007 = CARTESIAN_POINT ( 'NONE',  ( 9.000000000000003553, -9.300000000000000711, -9.000000000000000000 ) ) ;
#1008 = EDGE_LOOP ( 'NONE', ( #435, #323, #821, #215 ) ) ;
#1009 = DIRECTION ( 'NONE',  ( 1.000000000000000000, -2.282530889443166529E-16, 0.000000000000000000 ) ) ;
#1010 = CARTESIAN_POINT ( 'NONE',  ( 6.349999999999998757, -30.00000000000000000, 3.299999999999999822 ) ) ;
#1011 = CARTESIAN_POINT ( 'NONE',  ( -3.549999999999999822, -37.60000000000000142, 3.299999999999999822 ) ) ;
#1012 = ORIENTED_EDGE ( 'NONE', *, *, #887, .T. ) ;
#1013 = AXIS2_PLACEMENT_3D ( 'NONE', #567, #1093, #410 ) ;
#1014 = COLOUR_RGB ( '',0.7921568627450980005, 0.8196078431372548767, 0.9333333333333333481 ) ;
#1015 = EDGE_CURVE ( 'NONE', #282, #502, #251, .T. ) ;
#1016 = AXIS2_PLACEMENT_3D ( 'NONE', #879, #208, #883 ) ;
#1017 = CARTESIAN_POINT ( 'NONE',  ( -11.75000000000000355, 5.399999999999998579, 1.438959988998140555E-15 ) ) ;
#1018 = AXIS2_PLACEMENT_3D ( 'NONE', #239, #310, #384 ) ;
#1019 = FILL_AREA_STYLE_COLOUR ( '', #1014 ) ;
#1020 = ORIENTED_EDGE ( 'NONE', *, *, #949, .T. ) ;
#1021 = CYLINDRICAL_SURFACE ( 'NONE', #859, 11.75000000000000000 ) ;
#1022 = EDGE_CURVE ( 'NONE', #860, #316, #456, .T. ) ;
#1023 = DIRECTION ( 'NONE',  ( 1.000000000000000000, 0.000000000000000000, 0.000000000000000000 ) ) ;
#1024 = ORIENTED_EDGE ( 'NONE', *, *, #621, .T. ) ;
#1025 = DIRECTION ( 'NONE',  ( 0.000000000000000000, 0.000000000000000000, 1.000000000000000000 ) ) ;
#1026 = DIRECTION ( 'NONE',  ( -0.000000000000000000, 1.000000000000000000, -0.000000000000000000 ) ) ;
#1027 = EDGE_LOOP ( 'NONE', ( #665, #755, #928, #232 ) ) ;
#1028 = EDGE_CURVE ( 'NONE', #787, #851, #192, .T. ) ;
#1029 = PLANE ( 'NONE',  #871 ) ;
#1030 = CARTESIAN_POINT ( 'NONE',  ( 0.000000000000000000, -30.00000000000000000, 0.000000000000000000 ) ) ;
#1031 = CIRCLE ( 'NONE', #551, 9.049999999999998934 ) ;
#1032 = CARTESIAN_POINT ( 'NONE',  ( 3.550000000000001155, -30.00000000000000000, 3.299999999999999822 ) ) ;
#1033 = EDGE_LOOP ( 'NONE', ( #919, #1012, #890, #249 ) ) ;
#1034 =( NAMED_UNIT ( * ) PLANE_ANGLE_UNIT ( ) SI_UNIT ( $, .RADIAN. ) );
#1035 = EDGE_CURVE ( 'NONE', #521, #282, #452, .T. ) ;
#1036 = DIRECTION ( 'NONE',  ( 1.000000000000000000, 0.000000000000000000, 0.000000000000000000 ) ) ;
#1037 = CARTESIAN_POINT ( 'NONE',  ( -1.400000000000000133, -37.60000000000000142, 2.799999999999999822 ) ) ;
#1038 = ORIENTED_EDGE ( 'NONE', *, *, #735, .T. ) ;
#1039 = DIRECTION ( 'NONE',  ( 0.000000000000000000, -0.000000000000000000, -1.000000000000000000 ) ) ;
#1040 = PLANE ( 'NONE',  #875 ) ;
#1041 = FACE_OUTER_BOUND ( 'NONE', #415, .T. ) ;
#1042 = EDGE_LOOP ( 'NONE', ( #740, #227 ) ) ;
#1043 = DIRECTION ( 'NONE',  ( 0.000000000000000000, 0.000000000000000000, -1.000000000000000000 ) ) ;
#1044 = DIRECTION ( 'NONE',  ( -1.000000000000000000, -1.711898167082374773E-16, 0.000000000000000000 ) ) ;
#1045 = PRESENTATION_LAYER_ASSIGNMENT (  '', '', ( #1103 ) ) ;
#1046 = ADVANCED_FACE ( 'NONE', ( #1051, #361 ), #624, .T. ) ;
#1047 = PLANE ( 'NONE',  #250 ) ;
#1048 = VERTEX_POINT ( 'NONE', #106 ) ;
#1049 = VECTOR ( 'NONE', #448, 1000.000000000000000 ) ;
#1050 = CARTESIAN_POINT ( 'NONE',  ( -6.350000000000000533, -37.60000000000000142, 3.299999999999999822 ) ) ;
#1051 = FACE_BOUND ( 'NONE', #1083, .T. ) ;
#1052 = EDGE_CURVE ( 'NONE', #381, #212, #790, .T. ) ;
#1053 = CARTESIAN_POINT ( 'NONE',  ( 1.400000000000000133, -37.60000000000000142, 3.299999999999999822 ) ) ;
#1054 = VERTEX_POINT ( 'NONE', #731 ) ;
#1055 = FACE_BOUND ( 'NONE', #566, .T. ) ;
#1056 = CYLINDRICAL_SURFACE ( 'NONE', #783, 7.799999999999999822 ) ;
#1057 = CARTESIAN_POINT ( 'NONE',  ( 0.000000000000000000, -9.300000000000000711, 0.000000000000000000 ) ) ;
#1058 = ORIENTED_EDGE ( 'NONE', *, *, #160, .T. ) ;
#1059 = CARTESIAN_POINT ( 'NONE',  ( 0.000000000000000000, -10.80000000000000071, 0.000000000000000000 ) ) ;
#1060 = EDGE_CURVE ( 'NONE', #397, #584, #1071, .T. ) ;
#1061 = SURFACE_SIDE_STYLE ('',( #747 ) ) ;
#1062 = DIRECTION ( 'NONE',  ( -1.000000000000000000, -0.000000000000000000, -0.000000000000000000 ) ) ;
#1063 = ORIENTED_EDGE ( 'NONE', *, *, #179, .T. ) ;
#1064 = VECTOR ( 'NONE', #627, 1000.000000000000000 ) ;
#1065 = CARTESIAN_POINT ( 'NONE',  ( 0.000000000000000000, -19.70000000000000639, 0.000000000000000000 ) ) ;
#1066 = AXIS2_PLACEMENT_3D ( 'NONE', #1032, #434, #690 ) ;
#1067 = VECTOR ( 'NONE', #918, 1000.000000000000000 ) ;
#1068 = EDGE_CURVE ( 'NONE', #653, #473, #393, .T. ) ;
#1069 = VECTOR ( 'NONE', #1004, 1000.000000000000000 ) ;
#1070 = ORIENTED_EDGE ( 'NONE', *, *, #513, .T. ) ;
#1071 = LINE ( 'NONE', #663, #431 ) ;
#1072 = DIRECTION ( 'NONE',  ( 0.000000000000000000, 0.000000000000000000, 1.000000000000000000 ) ) ;
#1073 = ORIENTED_EDGE ( 'NONE', *, *, #477, .T. ) ;
#1074 = CARTESIAN_POINT ( 'NONE',  ( 9.001153973733043645E-16, -9.300000000000000711, -7.349999999999996980 ) ) ;
#1075 = CARTESIAN_POINT ( 'NONE',  ( -6.349999999999998757, -30.00000000000000000, 2.799999999999999822 ) ) ;
#1076 = CARTESIAN_POINT ( 'NONE',  ( 0.000000000000000000, 0.000000000000000000, 0.000000000000000000 ) ) ;
#1077 = DIRECTION ( 'NONE',  ( -0.000000000000000000, 0.000000000000000000, 1.000000000000000000 ) ) ;
#1078 = VERTEX_POINT ( 'NONE', #829 ) ;
#1079 = FACE_OUTER_BOUND ( 'NONE', #286, .T. ) ;
#1080 = VERTEX_POINT ( 'NONE', #813 ) ;
#1081 = DIRECTION ( 'NONE',  ( 1.000000000000000000, 0.000000000000000000, 0.000000000000000000 ) ) ;
#1082 = EDGE_CURVE ( 'NONE', #904, #797, #499, .T. ) ;
#1083 = EDGE_LOOP ( 'NONE', ( #981, #218 ) ) ;
#1084 = CYLINDRICAL_SURFACE ( 'NONE', #248, 9.049999999999997158 ) ;
#1085 = CIRCLE ( 'NONE', #231, 8.949999999999999289 ) ;
#1086 = AXIS2_PLACEMENT_3D ( 'NONE', #475, #488, #643 ) ;
#1087 = UNCERTAINTY_MEASURE_WITH_UNIT (LENGTH_MEASURE( 1.000000000000000082E-05 ), #87, 'distance_accuracy_value', 'NONE');
#1088 = EDGE_LOOP ( 'NONE', ( #881, #865 ) ) ;
#1089 = CARTESIAN_POINT ( 'NONE',  ( 0.000000000000000000, 0.000000000000000000, 8.949999999999997513 ) ) ;
#1090 = CARTESIAN_POINT ( 'NONE',  ( -1.400000000000001021, -30.00000000000000000, 2.799999999999999822 ) ) ;
#1091 = VERTEX_POINT ( 'NONE', #647 ) ;
#1092 = EDGE_CURVE ( 'NONE', #815, #467, #50, .T. ) ;
#1093 = DIRECTION ( 'NONE',  ( -0.000000000000000000, 1.000000000000000000, -0.000000000000000000 ) ) ;
#1094 = VERTEX_POINT ( 'NONE', #841 ) ;
#1095 = DIRECTION ( 'NONE',  ( 1.000000000000000000, 0.000000000000000000, -0.000000000000000000 ) ) ;
#1096 = DIRECTION ( 'NONE',  ( 0.000000000000000000, 0.000000000000000000, 1.000000000000000000 ) ) ;
#1097 = CARTESIAN_POINT ( 'NONE',  ( 6.350000000000000533, -37.60000000000000142, 3.299999999999999822 ) ) ;
#1098 = EDGE_LOOP ( 'NONE', ( #733, #642, #258, #303 ) ) ;
#1099 = EDGE_CURVE ( 'NONE', #679, #616, #582, .T. ) ;
#1100 = DIRECTION ( 'NONE',  ( 1.177544999180148879E-17, -1.000000000000000000, -0.000000000000000000 ) ) ;
#1101 = DIRECTION ( 'NONE',  ( -0.000000000000000000, -0.000000000000000000, -1.000000000000000000 ) ) ;
#1102 = ORIENTED_EDGE ( 'NONE', *, *, #383, .T. ) ;
#1103 = STYLED_ITEM ( 'NONE', ( #978 ), #57 ) ;
#1104 = CIRCLE ( 'NONE', #798, 9.049999999999995381 ) ;
#1105 = EDGE_CURVE ( 'NONE', #476, #996, #680, .T. ) ;
#1106 =( GEOMETRIC_REPRESENTATION_CONTEXT ( 3 ) GLOBAL_UNCERTAINTY_ASSIGNED_CONTEXT ( ( #1087 ) ) GLOBAL_UNIT_ASSIGNED_CONTEXT ( ( #87, #8, #345 ) ) REPRESENTATION_CONTEXT ( 'NONE', 'WORKASPACE' ) );
#1107 = CIRCLE ( 'NONE', #49, 7.349999999999996092 ) ;
#1108 = CARTESIAN_POINT ( 'NONE',  ( 9.000000000000003553, -9.300000000000000711, -9.000000000000000000 ) ) ;
#1109 = DIRECTION ( 'NONE',  ( 1.000000000000000000, 0.000000000000000000, 0.000000000000000000 ) ) ;
#1110 = VERTEX_POINT ( 'NONE', #834 ) ;
ENDSEC;
END-ISO-10303-21;
