ISO-10303-21;
HEADER;
/* Generated by software containing ST-Developer
 * from STEP Tools, Inc. (www.steptools.com) 
 */

FILE_DESCRIPTION(
/* description */ (''),
/* implementation_level */ '2;1');

FILE_NAME(
/* name */ 'Blocco D455.stp',
/* time_stamp */ '2025-12-01T09:26:51+05:30',
/* author */ ('Kartik'),
/* organization */ (''),
/* preprocessor_version */ 'ST-DEVELOPER v20.1',
/* originating_system */ 'Autodesk Inventor 2026',
/* authorisation */ '');

FILE_SCHEMA (('AUTOMOTIVE_DESIGN { 1 0 10303 214 3 1 1 }'));
ENDSEC;

DATA;
#10=MECHANICAL_DESIGN_GEOMETRIC_PRESENTATION_REPRESENTATION('',(#13),#1556);
#11=SHAPE_REPRESENTATION_RELATIONSHIP('SRR','None',#1562,#12);
#12=ADVANCED_BREP_SHAPE_REPRESENTATION('',(#14),#1555);
#13=STYLED_ITEM('',(#1572),#14);
#14=MANIFOLD_SOLID_BREP('Solid1',#923);
#15=CONICAL_SURFACE('',#976,0.47,0.785398163397449);
#16=CONICAL_SURFACE('',#979,0.47,0.785398163397449);
#17=CONICAL_SURFACE('',#982,0.315,0.785398163397448);
#18=CONICAL_SURFACE('',#985,0.315,0.785398163397448);
#19=CONICAL_SURFACE('',#988,0.315,0.785398163397448);
#20=CONICAL_SURFACE('',#991,0.315,0.785398163397448);
#21=CYLINDRICAL_SURFACE('',#955,2.025);
#22=CYLINDRICAL_SURFACE('',#960,2.025);
#23=CYLINDRICAL_SURFACE('',#974,0.225);
#24=CYLINDRICAL_SURFACE('',#977,0.225);
#25=CYLINDRICAL_SURFACE('',#980,0.17);
#26=CYLINDRICAL_SURFACE('',#983,0.17);
#27=CYLINDRICAL_SURFACE('',#986,0.17);
#28=CYLINDRICAL_SURFACE('',#989,0.17);
#29=CYLINDRICAL_SURFACE('',#992,0.175);
#30=CYLINDRICAL_SURFACE('',#993,0.175);
#31=CYLINDRICAL_SURFACE('',#994,0.175);
#32=CYLINDRICAL_SURFACE('',#995,0.175);
#33=CYLINDRICAL_SURFACE('',#1018,0.3);
#34=CYLINDRICAL_SURFACE('',#1019,0.3);
#35=CYLINDRICAL_SURFACE('',#1028,1.);
#36=CYLINDRICAL_SURFACE('',#1029,1.);
#37=CYLINDRICAL_SURFACE('',#1030,1.);
#38=CYLINDRICAL_SURFACE('',#1031,1.);
#39=FACE_BOUND('',#116,.T.);
#40=FACE_BOUND('',#117,.T.);
#41=FACE_BOUND('',#118,.T.);
#42=FACE_BOUND('',#119,.T.);
#43=FACE_BOUND('',#120,.T.);
#44=FACE_BOUND('',#121,.T.);
#45=FACE_BOUND('',#122,.T.);
#46=FACE_BOUND('',#123,.T.);
#47=FACE_BOUND('',#124,.T.);
#48=FACE_BOUND('',#125,.T.);
#49=FACE_BOUND('',#126,.T.);
#50=FACE_BOUND('',#127,.T.);
#51=FACE_BOUND('',#137,.T.);
#52=FACE_BOUND('',#138,.T.);
#53=FACE_BOUND('',#139,.T.);
#54=FACE_BOUND('',#140,.T.);
#55=FACE_BOUND('',#141,.T.);
#56=FACE_BOUND('',#142,.T.);
#57=FACE_BOUND('',#143,.T.);
#58=FACE_BOUND('',#144,.T.);
#59=FACE_BOUND('',#145,.T.);
#60=FACE_BOUND('',#146,.T.);
#61=FACE_BOUND('',#165,.T.);
#62=FACE_BOUND('',#168,.T.);
#63=FACE_BOUND('',#171,.T.);
#64=FACE_BOUND('',#174,.T.);
#65=FACE_OUTER_BOUND('',#115,.T.);
#66=FACE_OUTER_BOUND('',#128,.T.);
#67=FACE_OUTER_BOUND('',#129,.T.);
#68=FACE_OUTER_BOUND('',#130,.T.);
#69=FACE_OUTER_BOUND('',#131,.T.);
#70=FACE_OUTER_BOUND('',#132,.T.);
#71=FACE_OUTER_BOUND('',#133,.T.);
#72=FACE_OUTER_BOUND('',#134,.T.);
#73=FACE_OUTER_BOUND('',#135,.T.);
#74=FACE_OUTER_BOUND('',#136,.T.);
#75=FACE_OUTER_BOUND('',#147,.T.);
#76=FACE_OUTER_BOUND('',#148,.T.);
#77=FACE_OUTER_BOUND('',#149,.T.);
#78=FACE_OUTER_BOUND('',#150,.T.);
#79=FACE_OUTER_BOUND('',#151,.T.);
#80=FACE_OUTER_BOUND('',#152,.T.);
#81=FACE_OUTER_BOUND('',#153,.T.);
#82=FACE_OUTER_BOUND('',#154,.T.);
#83=FACE_OUTER_BOUND('',#155,.T.);
#84=FACE_OUTER_BOUND('',#156,.T.);
#85=FACE_OUTER_BOUND('',#157,.T.);
#86=FACE_OUTER_BOUND('',#158,.T.);
#87=FACE_OUTER_BOUND('',#159,.T.);
#88=FACE_OUTER_BOUND('',#160,.T.);
#89=FACE_OUTER_BOUND('',#161,.T.);
#90=FACE_OUTER_BOUND('',#162,.T.);
#91=FACE_OUTER_BOUND('',#163,.T.);
#92=FACE_OUTER_BOUND('',#164,.T.);
#93=FACE_OUTER_BOUND('',#166,.T.);
#94=FACE_OUTER_BOUND('',#167,.T.);
#95=FACE_OUTER_BOUND('',#169,.T.);
#96=FACE_OUTER_BOUND('',#170,.T.);
#97=FACE_OUTER_BOUND('',#172,.T.);
#98=FACE_OUTER_BOUND('',#173,.T.);
#99=FACE_OUTER_BOUND('',#175,.T.);
#100=FACE_OUTER_BOUND('',#176,.T.);
#101=FACE_OUTER_BOUND('',#177,.T.);
#102=FACE_OUTER_BOUND('',#178,.T.);
#103=FACE_OUTER_BOUND('',#179,.T.);
#104=FACE_OUTER_BOUND('',#180,.T.);
#105=FACE_OUTER_BOUND('',#181,.T.);
#106=FACE_OUTER_BOUND('',#182,.T.);
#107=FACE_OUTER_BOUND('',#183,.T.);
#108=FACE_OUTER_BOUND('',#184,.T.);
#109=FACE_OUTER_BOUND('',#185,.T.);
#110=FACE_OUTER_BOUND('',#186,.T.);
#111=FACE_OUTER_BOUND('',#187,.T.);
#112=FACE_OUTER_BOUND('',#188,.T.);
#113=FACE_OUTER_BOUND('',#189,.T.);
#114=FACE_OUTER_BOUND('',#190,.T.);
#115=EDGE_LOOP('',(#599,#600,#601,#602,#603,#604,#605,#606));
#116=EDGE_LOOP('',(#607));
#117=EDGE_LOOP('',(#608));
#118=EDGE_LOOP('',(#609));
#119=EDGE_LOOP('',(#610));
#120=EDGE_LOOP('',(#611));
#121=EDGE_LOOP('',(#612));
#122=EDGE_LOOP('',(#613,#614,#615,#616));
#123=EDGE_LOOP('',(#617,#618,#619,#620));
#124=EDGE_LOOP('',(#621));
#125=EDGE_LOOP('',(#622));
#126=EDGE_LOOP('',(#623));
#127=EDGE_LOOP('',(#624));
#128=EDGE_LOOP('',(#625,#626,#627,#628));
#129=EDGE_LOOP('',(#629,#630,#631,#632));
#130=EDGE_LOOP('',(#633,#634,#635,#636));
#131=EDGE_LOOP('',(#637,#638,#639,#640));
#132=EDGE_LOOP('',(#641,#642,#643,#644));
#133=EDGE_LOOP('',(#645,#646,#647,#648));
#134=EDGE_LOOP('',(#649,#650,#651,#652));
#135=EDGE_LOOP('',(#653,#654,#655,#656));
#136=EDGE_LOOP('',(#657,#658,#659,#660,#661,#662,#663,#664));
#137=EDGE_LOOP('',(#665));
#138=EDGE_LOOP('',(#666));
#139=EDGE_LOOP('',(#667));
#140=EDGE_LOOP('',(#668));
#141=EDGE_LOOP('',(#669));
#142=EDGE_LOOP('',(#670));
#143=EDGE_LOOP('',(#671));
#144=EDGE_LOOP('',(#672));
#145=EDGE_LOOP('',(#673));
#146=EDGE_LOOP('',(#674));
#147=EDGE_LOOP('',(#675,#676,#677,#678));
#148=EDGE_LOOP('',(#679,#680,#681,#682));
#149=EDGE_LOOP('',(#683,#684,#685,#686));
#150=EDGE_LOOP('',(#687,#688,#689,#690));
#151=EDGE_LOOP('',(#691,#692,#693,#694));
#152=EDGE_LOOP('',(#695,#696,#697,#698));
#153=EDGE_LOOP('',(#699,#700,#701,#702));
#154=EDGE_LOOP('',(#703,#704,#705,#706));
#155=EDGE_LOOP('',(#707,#708,#709,#710));
#156=EDGE_LOOP('',(#711,#712,#713,#714));
#157=EDGE_LOOP('',(#715,#716,#717,#718));
#158=EDGE_LOOP('',(#719,#720,#721,#722));
#159=EDGE_LOOP('',(#723,#724,#725,#726));
#160=EDGE_LOOP('',(#727,#728,#729,#730));
#161=EDGE_LOOP('',(#731,#732,#733,#734));
#162=EDGE_LOOP('',(#735,#736,#737,#738));
#163=EDGE_LOOP('',(#739,#740,#741,#742));
#164=EDGE_LOOP('',(#743,#744,#745,#746,#747,#748));
#165=EDGE_LOOP('',(#749));
#166=EDGE_LOOP('',(#750,#751,#752,#753));
#167=EDGE_LOOP('',(#754,#755,#756,#757,#758,#759));
#168=EDGE_LOOP('',(#760));
#169=EDGE_LOOP('',(#761,#762,#763,#764));
#170=EDGE_LOOP('',(#765,#766,#767,#768,#769,#770));
#171=EDGE_LOOP('',(#771));
#172=EDGE_LOOP('',(#772,#773,#774,#775));
#173=EDGE_LOOP('',(#776,#777,#778,#779,#780,#781));
#174=EDGE_LOOP('',(#782));
#175=EDGE_LOOP('',(#783,#784,#785,#786));
#176=EDGE_LOOP('',(#787,#788,#789,#790));
#177=EDGE_LOOP('',(#791,#792,#793,#794));
#178=EDGE_LOOP('',(#795,#796,#797,#798));
#179=EDGE_LOOP('',(#799,#800,#801,#802));
#180=EDGE_LOOP('',(#803,#804,#805,#806));
#181=EDGE_LOOP('',(#807,#808,#809,#810));
#182=EDGE_LOOP('',(#811,#812,#813,#814));
#183=EDGE_LOOP('',(#815,#816,#817,#818));
#184=EDGE_LOOP('',(#819,#820,#821,#822));
#185=EDGE_LOOP('',(#823,#824,#825,#826));
#186=EDGE_LOOP('',(#827,#828,#829,#830));
#187=EDGE_LOOP('',(#831,#832,#833,#834));
#188=EDGE_LOOP('',(#835,#836,#837,#838));
#189=EDGE_LOOP('',(#839,#840,#841,#842));
#190=EDGE_LOOP('',(#843,#844,#845,#846));
#191=CIRCLE('',#941,2.025);
#192=CIRCLE('',#942,2.025);
#193=CIRCLE('',#943,0.47);
#194=CIRCLE('',#944,0.47);
#195=CIRCLE('',#945,0.315);
#196=CIRCLE('',#946,0.315);
#197=CIRCLE('',#947,0.315);
#198=CIRCLE('',#948,0.315);
#199=CIRCLE('',#949,0.175);
#200=CIRCLE('',#950,0.175);
#201=CIRCLE('',#951,0.175);
#202=CIRCLE('',#952,0.175);
#203=CIRCLE('',#956,2.025);
#204=CIRCLE('',#961,2.025);
#205=CIRCLE('',#964,0.175);
#206=CIRCLE('',#965,0.175);
#207=CIRCLE('',#966,0.175);
#208=CIRCLE('',#967,0.175);
#209=CIRCLE('',#968,0.17);
#210=CIRCLE('',#969,0.17);
#211=CIRCLE('',#970,0.17);
#212=CIRCLE('',#971,0.17);
#213=CIRCLE('',#972,0.225);
#214=CIRCLE('',#973,0.225);
#215=CIRCLE('',#975,0.225);
#216=CIRCLE('',#978,0.225);
#217=CIRCLE('',#981,0.17);
#218=CIRCLE('',#984,0.17);
#219=CIRCLE('',#987,0.17);
#220=CIRCLE('',#990,0.17);
#221=CIRCLE('',#998,1.);
#222=CIRCLE('',#999,1.);
#223=CIRCLE('',#1000,0.3);
#224=CIRCLE('',#1003,1.);
#225=CIRCLE('',#1004,1.);
#226=CIRCLE('',#1005,0.3);
#227=CIRCLE('',#1008,1.);
#228=CIRCLE('',#1009,1.);
#229=CIRCLE('',#1010,0.3);
#230=CIRCLE('',#1013,1.);
#231=CIRCLE('',#1014,1.);
#232=CIRCLE('',#1015,0.3);
#233=LINE('',#1304,#315);
#234=LINE('',#1306,#316);
#235=LINE('',#1310,#317);
#236=LINE('',#1312,#318);
#237=LINE('',#1314,#319);
#238=LINE('',#1317,#320);
#239=LINE('',#1332,#321);
#240=LINE('',#1334,#322);
#241=LINE('',#1336,#323);
#242=LINE('',#1337,#324);
#243=LINE('',#1340,#325);
#244=LINE('',#1342,#326);
#245=LINE('',#1344,#327);
#246=LINE('',#1345,#328);
#247=LINE('',#1356,#329);
#248=LINE('',#1358,#330);
#249=LINE('',#1359,#331);
#250=LINE('',#1362,#332);
#251=LINE('',#1363,#333);
#252=LINE('',#1366,#334);
#253=LINE('',#1370,#335);
#254=LINE('',#1371,#336);
#255=LINE('',#1374,#337);
#256=LINE('',#1375,#338);
#257=LINE('',#1378,#339);
#258=LINE('',#1379,#340);
#259=LINE('',#1382,#341);
#260=LINE('',#1385,#342);
#261=LINE('',#1409,#343);
#262=LINE('',#1412,#344);
#263=LINE('',#1415,#345);
#264=LINE('',#1418,#346);
#265=LINE('',#1421,#347);
#266=LINE('',#1424,#348);
#267=LINE('',#1427,#349);
#268=LINE('',#1430,#350);
#269=LINE('',#1433,#351);
#270=LINE('',#1436,#352);
#271=LINE('',#1439,#353);
#272=LINE('',#1442,#354);
#273=LINE('',#1444,#355);
#274=LINE('',#1446,#356);
#275=LINE('',#1448,#357);
#276=LINE('',#1450,#358);
#277=LINE('',#1454,#359);
#278=LINE('',#1456,#360);
#279=LINE('',#1458,#361);
#280=LINE('',#1459,#362);
#281=LINE('',#1463,#363);
#282=LINE('',#1466,#364);
#283=LINE('',#1468,#365);
#284=LINE('',#1475,#366);
#285=LINE('',#1476,#367);
#286=LINE('',#1477,#368);
#287=LINE('',#1482,#369);
#288=LINE('',#1484,#370);
#289=LINE('',#1488,#371);
#290=LINE('',#1489,#372);
#291=LINE('',#1493,#373);
#292=LINE('',#1497,#374);
#293=LINE('',#1499,#375);
#294=LINE('',#1501,#376);
#295=LINE('',#1508,#377);
#296=LINE('',#1509,#378);
#297=LINE('',#1510,#379);
#298=LINE('',#1514,#380);
#299=LINE('',#1518,#381);
#300=LINE('',#1520,#382);
#301=LINE('',#1524,#383);
#302=LINE('',#1525,#384);
#303=LINE('',#1527,#385);
#304=LINE('',#1528,#386);
#305=LINE('',#1530,#387);
#306=LINE('',#1532,#388);
#307=LINE('',#1534,#389);
#308=LINE('',#1535,#390);
#309=LINE('',#1537,#391);
#310=LINE('',#1539,#392);
#311=LINE('',#1542,#393);
#312=LINE('',#1543,#394);
#313=LINE('',#1545,#395);
#314=LINE('',#1547,#396);
#315=VECTOR('',#1036,9.5);
#316=VECTOR('',#1037,0.300000000000006);
#317=VECTOR('',#1040,0.299999999999995);
#318=VECTOR('',#1041,9.5);
#319=VECTOR('',#1042,0.299999999999993);
#320=VECTOR('',#1045,0.300000000000007);
#321=VECTOR('',#1058,2.9);
#322=VECTOR('',#1059,1.4);
#323=VECTOR('',#1060,2.9);
#324=VECTOR('',#1061,1.4);
#325=VECTOR('',#1062,1.39999999999999);
#326=VECTOR('',#1063,2.89999999999999);
#327=VECTOR('',#1064,1.39999999999999);
#328=VECTOR('',#1065,2.9);
#329=VECTOR('',#1076,0.3);
#330=VECTOR('',#1077,9.5);
#331=VECTOR('',#1078,0.3);
#332=VECTOR('',#1081,0.3);
#333=VECTOR('',#1082,0.300000000000007);
#334=VECTOR('',#1085,0.3);
#335=VECTOR('',#1090,0.3);
#336=VECTOR('',#1091,0.299999999999993);
#337=VECTOR('',#1094,0.3);
#338=VECTOR('',#1095,9.5);
#339=VECTOR('',#1098,0.3);
#340=VECTOR('',#1099,0.299999999999995);
#341=VECTOR('',#1102,0.3);
#342=VECTOR('',#1107,0.300000000000006);
#343=VECTOR('',#1132,0.225);
#344=VECTOR('',#1137,0.47);
#345=VECTOR('',#1140,0.225);
#346=VECTOR('',#1145,0.47);
#347=VECTOR('',#1148,0.17);
#348=VECTOR('',#1153,0.315);
#349=VECTOR('',#1156,0.17);
#350=VECTOR('',#1161,0.315);
#351=VECTOR('',#1164,0.17);
#352=VECTOR('',#1169,0.315);
#353=VECTOR('',#1172,0.17);
#354=VECTOR('',#1177,0.315);
#355=VECTOR('',#1180,0.175);
#356=VECTOR('',#1183,0.175);
#357=VECTOR('',#1186,0.175);
#358=VECTOR('',#1189,0.175);
#359=VECTOR('',#1192,1.8);
#360=VECTOR('',#1193,1.);
#361=VECTOR('',#1194,1.8);
#362=VECTOR('',#1195,1.);
#363=VECTOR('',#1198,0.5);
#364=VECTOR('',#1201,2.5);
#365=VECTOR('',#1202,1.8);
#366=VECTOR('',#1209,1.8);
#367=VECTOR('',#1210,1.);
#368=VECTOR('',#1211,1.);
#369=VECTOR('',#1216,0.5);
#370=VECTOR('',#1219,2.5);
#371=VECTOR('',#1224,1.);
#372=VECTOR('',#1225,1.);
#373=VECTOR('',#1228,0.5);
#374=VECTOR('',#1231,1.8);
#375=VECTOR('',#1232,2.5);
#376=VECTOR('',#1233,1.8);
#377=VECTOR('',#1240,1.8);
#378=VECTOR('',#1241,1.);
#379=VECTOR('',#1242,1.);
#380=VECTOR('',#1245,1.8);
#381=VECTOR('',#1248,0.5);
#382=VECTOR('',#1251,2.5);
#383=VECTOR('',#1256,1.);
#384=VECTOR('',#1257,1.);
#385=VECTOR('',#1260,1.);
#386=VECTOR('',#1261,1.);
#387=VECTOR('',#1264,0.3);
#388=VECTOR('',#1267,0.3);
#389=VECTOR('',#1270,0.346410161513774);
#390=VECTOR('',#1271,0.346410161513773);
#391=VECTOR('',#1274,0.346410161513773);
#392=VECTOR('',#1277,0.346410161513773);
#393=VECTOR('',#1282,0.346410161513773);
#394=VECTOR('',#1283,0.346410161513773);
#395=VECTOR('',#1286,0.346410161513773);
#396=VECTOR('',#1289,0.346410161513773);
#397=VERTEX_POINT('',#1302);
#398=VERTEX_POINT('',#1303);
#399=VERTEX_POINT('',#1305);
#400=VERTEX_POINT('',#1307);
#401=VERTEX_POINT('',#1309);
#402=VERTEX_POINT('',#1311);
#403=VERTEX_POINT('',#1313);
#404=VERTEX_POINT('',#1315);
#405=VERTEX_POINT('',#1318);
#406=VERTEX_POINT('',#1320);
#407=VERTEX_POINT('',#1322);
#408=VERTEX_POINT('',#1324);
#409=VERTEX_POINT('',#1326);
#410=VERTEX_POINT('',#1328);
#411=VERTEX_POINT('',#1330);
#412=VERTEX_POINT('',#1331);
#413=VERTEX_POINT('',#1333);
#414=VERTEX_POINT('',#1335);
#415=VERTEX_POINT('',#1338);
#416=VERTEX_POINT('',#1339);
#417=VERTEX_POINT('',#1341);
#418=VERTEX_POINT('',#1343);
#419=VERTEX_POINT('',#1346);
#420=VERTEX_POINT('',#1348);
#421=VERTEX_POINT('',#1350);
#422=VERTEX_POINT('',#1352);
#423=VERTEX_POINT('',#1355);
#424=VERTEX_POINT('',#1357);
#425=VERTEX_POINT('',#1361);
#426=VERTEX_POINT('',#1365);
#427=VERTEX_POINT('',#1369);
#428=VERTEX_POINT('',#1373);
#429=VERTEX_POINT('',#1377);
#430=VERTEX_POINT('',#1381);
#431=VERTEX_POINT('',#1387);
#432=VERTEX_POINT('',#1389);
#433=VERTEX_POINT('',#1391);
#434=VERTEX_POINT('',#1393);
#435=VERTEX_POINT('',#1395);
#436=VERTEX_POINT('',#1397);
#437=VERTEX_POINT('',#1399);
#438=VERTEX_POINT('',#1401);
#439=VERTEX_POINT('',#1403);
#440=VERTEX_POINT('',#1405);
#441=VERTEX_POINT('',#1408);
#442=VERTEX_POINT('',#1414);
#443=VERTEX_POINT('',#1420);
#444=VERTEX_POINT('',#1426);
#445=VERTEX_POINT('',#1432);
#446=VERTEX_POINT('',#1438);
#447=VERTEX_POINT('',#1452);
#448=VERTEX_POINT('',#1453);
#449=VERTEX_POINT('',#1455);
#450=VERTEX_POINT('',#1457);
#451=VERTEX_POINT('',#1461);
#452=VERTEX_POINT('',#1462);
#453=VERTEX_POINT('',#1465);
#454=VERTEX_POINT('',#1467);
#455=VERTEX_POINT('',#1470);
#456=VERTEX_POINT('',#1473);
#457=VERTEX_POINT('',#1474);
#458=VERTEX_POINT('',#1479);
#459=VERTEX_POINT('',#1481);
#460=VERTEX_POINT('',#1485);
#461=VERTEX_POINT('',#1491);
#462=VERTEX_POINT('',#1492);
#463=VERTEX_POINT('',#1494);
#464=VERTEX_POINT('',#1496);
#465=VERTEX_POINT('',#1498);
#466=VERTEX_POINT('',#1500);
#467=VERTEX_POINT('',#1503);
#468=VERTEX_POINT('',#1506);
#469=VERTEX_POINT('',#1507);
#470=VERTEX_POINT('',#1512);
#471=VERTEX_POINT('',#1513);
#472=VERTEX_POINT('',#1515);
#473=VERTEX_POINT('',#1517);
#474=VERTEX_POINT('',#1521);
#475=EDGE_CURVE('',#397,#398,#233,.T.);
#476=EDGE_CURVE('',#399,#397,#234,.T.);
#477=EDGE_CURVE('',#400,#399,#191,.T.);
#478=EDGE_CURVE('',#401,#400,#235,.T.);
#479=EDGE_CURVE('',#402,#401,#236,.T.);
#480=EDGE_CURVE('',#403,#402,#237,.T.);
#481=EDGE_CURVE('',#404,#403,#192,.T.);
#482=EDGE_CURVE('',#398,#404,#238,.T.);
#483=EDGE_CURVE('',#405,#405,#193,.T.);
#484=EDGE_CURVE('',#406,#406,#194,.T.);
#485=EDGE_CURVE('',#407,#407,#195,.T.);
#486=EDGE_CURVE('',#408,#408,#196,.T.);
#487=EDGE_CURVE('',#409,#409,#197,.T.);
#488=EDGE_CURVE('',#410,#410,#198,.T.);
#489=EDGE_CURVE('',#411,#412,#239,.T.);
#490=EDGE_CURVE('',#412,#413,#240,.T.);
#491=EDGE_CURVE('',#413,#414,#241,.T.);
#492=EDGE_CURVE('',#414,#411,#242,.T.);
#493=EDGE_CURVE('',#415,#416,#243,.T.);
#494=EDGE_CURVE('',#416,#417,#244,.T.);
#495=EDGE_CURVE('',#417,#418,#245,.T.);
#496=EDGE_CURVE('',#418,#415,#246,.T.);
#497=EDGE_CURVE('',#419,#419,#199,.T.);
#498=EDGE_CURVE('',#420,#420,#200,.T.);
#499=EDGE_CURVE('',#421,#421,#201,.T.);
#500=EDGE_CURVE('',#422,#422,#202,.T.);
#501=EDGE_CURVE('',#423,#398,#247,.T.);
#502=EDGE_CURVE('',#424,#423,#248,.T.);
#503=EDGE_CURVE('',#424,#397,#249,.T.);
#504=EDGE_CURVE('',#425,#404,#250,.T.);
#505=EDGE_CURVE('',#423,#425,#251,.T.);
#506=EDGE_CURVE('',#426,#403,#252,.T.);
#507=EDGE_CURVE('',#425,#426,#203,.T.);
#508=EDGE_CURVE('',#427,#402,#253,.T.);
#509=EDGE_CURVE('',#426,#427,#254,.T.);
#510=EDGE_CURVE('',#428,#401,#255,.T.);
#511=EDGE_CURVE('',#427,#428,#256,.T.);
#512=EDGE_CURVE('',#429,#400,#257,.T.);
#513=EDGE_CURVE('',#428,#429,#258,.T.);
#514=EDGE_CURVE('',#430,#399,#259,.T.);
#515=EDGE_CURVE('',#429,#430,#204,.T.);
#516=EDGE_CURVE('',#430,#424,#260,.T.);
#517=EDGE_CURVE('',#431,#431,#205,.F.);
#518=EDGE_CURVE('',#432,#432,#206,.F.);
#519=EDGE_CURVE('',#433,#433,#207,.F.);
#520=EDGE_CURVE('',#434,#434,#208,.F.);
#521=EDGE_CURVE('',#435,#435,#209,.T.);
#522=EDGE_CURVE('',#436,#436,#210,.T.);
#523=EDGE_CURVE('',#437,#437,#211,.T.);
#524=EDGE_CURVE('',#438,#438,#212,.T.);
#525=EDGE_CURVE('',#439,#439,#213,.T.);
#526=EDGE_CURVE('',#440,#440,#214,.T.);
#527=EDGE_CURVE('',#440,#441,#261,.T.);
#528=EDGE_CURVE('',#441,#441,#215,.T.);
#529=EDGE_CURVE('',#441,#405,#262,.T.);
#530=EDGE_CURVE('',#439,#442,#263,.T.);
#531=EDGE_CURVE('',#442,#442,#216,.T.);
#532=EDGE_CURVE('',#442,#406,#264,.T.);
#533=EDGE_CURVE('',#438,#443,#265,.T.);
#534=EDGE_CURVE('',#443,#443,#217,.T.);
#535=EDGE_CURVE('',#443,#407,#266,.T.);
#536=EDGE_CURVE('',#437,#444,#267,.T.);
#537=EDGE_CURVE('',#444,#444,#218,.T.);
#538=EDGE_CURVE('',#444,#408,#268,.T.);
#539=EDGE_CURVE('',#436,#445,#269,.T.);
#540=EDGE_CURVE('',#445,#445,#219,.T.);
#541=EDGE_CURVE('',#445,#409,#270,.T.);
#542=EDGE_CURVE('',#435,#446,#271,.T.);
#543=EDGE_CURVE('',#446,#446,#220,.T.);
#544=EDGE_CURVE('',#446,#410,#272,.T.);
#545=EDGE_CURVE('',#434,#422,#273,.T.);
#546=EDGE_CURVE('',#433,#421,#274,.T.);
#547=EDGE_CURVE('',#432,#420,#275,.T.);
#548=EDGE_CURVE('',#431,#419,#276,.T.);
#549=EDGE_CURVE('',#447,#448,#277,.T.);
#550=EDGE_CURVE('',#447,#449,#278,.F.);
#551=EDGE_CURVE('',#449,#450,#279,.T.);
#552=EDGE_CURVE('',#450,#448,#280,.T.);
#553=EDGE_CURVE('',#451,#452,#281,.T.);
#554=EDGE_CURVE('',#451,#447,#221,.F.);
#555=EDGE_CURVE('',#448,#453,#282,.T.);
#556=EDGE_CURVE('',#454,#453,#283,.T.);
#557=EDGE_CURVE('',#454,#452,#222,.F.);
#558=EDGE_CURVE('',#455,#455,#223,.T.);
#559=EDGE_CURVE('',#456,#457,#284,.T.);
#560=EDGE_CURVE('',#456,#454,#285,.F.);
#561=EDGE_CURVE('',#453,#457,#286,.T.);
#562=EDGE_CURVE('',#449,#458,#224,.F.);
#563=EDGE_CURVE('',#459,#458,#287,.T.);
#564=EDGE_CURVE('',#459,#456,#225,.F.);
#565=EDGE_CURVE('',#457,#450,#288,.T.);
#566=EDGE_CURVE('',#460,#460,#226,.T.);
#567=EDGE_CURVE('',#458,#451,#289,.T.);
#568=EDGE_CURVE('',#452,#459,#290,.T.);
#569=EDGE_CURVE('',#461,#462,#291,.T.);
#570=EDGE_CURVE('',#461,#463,#227,.F.);
#571=EDGE_CURVE('',#463,#464,#292,.T.);
#572=EDGE_CURVE('',#464,#465,#293,.T.);
#573=EDGE_CURVE('',#466,#465,#294,.T.);
#574=EDGE_CURVE('',#466,#462,#228,.F.);
#575=EDGE_CURVE('',#467,#467,#229,.T.);
#576=EDGE_CURVE('',#468,#469,#295,.T.);
#577=EDGE_CURVE('',#468,#466,#296,.F.);
#578=EDGE_CURVE('',#465,#469,#297,.T.);
#579=EDGE_CURVE('',#470,#471,#298,.T.);
#580=EDGE_CURVE('',#470,#472,#230,.F.);
#581=EDGE_CURVE('',#473,#472,#299,.T.);
#582=EDGE_CURVE('',#473,#468,#231,.F.);
#583=EDGE_CURVE('',#469,#471,#300,.T.);
#584=EDGE_CURVE('',#474,#474,#232,.T.);
#585=EDGE_CURVE('',#463,#470,#301,.F.);
#586=EDGE_CURVE('',#471,#464,#302,.T.);
#587=EDGE_CURVE('',#472,#461,#303,.T.);
#588=EDGE_CURVE('',#462,#473,#304,.T.);
#589=EDGE_CURVE('',#474,#467,#305,.T.);
#590=EDGE_CURVE('',#460,#455,#306,.T.);
#591=EDGE_CURVE('',#411,#471,#307,.F.);
#592=EDGE_CURVE('',#464,#414,#308,.T.);
#593=EDGE_CURVE('',#465,#413,#309,.F.);
#594=EDGE_CURVE('',#412,#469,#310,.F.);
#595=EDGE_CURVE('',#415,#457,#311,.F.);
#596=EDGE_CURVE('',#450,#418,#312,.T.);
#597=EDGE_CURVE('',#448,#417,#313,.F.);
#598=EDGE_CURVE('',#416,#453,#314,.F.);
#599=ORIENTED_EDGE('',*,*,#475,.F.);
#600=ORIENTED_EDGE('',*,*,#476,.F.);
#601=ORIENTED_EDGE('',*,*,#477,.F.);
#602=ORIENTED_EDGE('',*,*,#478,.F.);
#603=ORIENTED_EDGE('',*,*,#479,.F.);
#604=ORIENTED_EDGE('',*,*,#480,.F.);
#605=ORIENTED_EDGE('',*,*,#481,.F.);
#606=ORIENTED_EDGE('',*,*,#482,.F.);
#607=ORIENTED_EDGE('',*,*,#483,.F.);
#608=ORIENTED_EDGE('',*,*,#484,.F.);
#609=ORIENTED_EDGE('',*,*,#485,.F.);
#610=ORIENTED_EDGE('',*,*,#486,.F.);
#611=ORIENTED_EDGE('',*,*,#487,.F.);
#612=ORIENTED_EDGE('',*,*,#488,.F.);
#613=ORIENTED_EDGE('',*,*,#489,.T.);
#614=ORIENTED_EDGE('',*,*,#490,.T.);
#615=ORIENTED_EDGE('',*,*,#491,.T.);
#616=ORIENTED_EDGE('',*,*,#492,.T.);
#617=ORIENTED_EDGE('',*,*,#493,.T.);
#618=ORIENTED_EDGE('',*,*,#494,.T.);
#619=ORIENTED_EDGE('',*,*,#495,.T.);
#620=ORIENTED_EDGE('',*,*,#496,.T.);
#621=ORIENTED_EDGE('',*,*,#497,.F.);
#622=ORIENTED_EDGE('',*,*,#498,.F.);
#623=ORIENTED_EDGE('',*,*,#499,.F.);
#624=ORIENTED_EDGE('',*,*,#500,.F.);
#625=ORIENTED_EDGE('',*,*,#475,.T.);
#626=ORIENTED_EDGE('',*,*,#501,.F.);
#627=ORIENTED_EDGE('',*,*,#502,.F.);
#628=ORIENTED_EDGE('',*,*,#503,.T.);
#629=ORIENTED_EDGE('',*,*,#482,.T.);
#630=ORIENTED_EDGE('',*,*,#504,.F.);
#631=ORIENTED_EDGE('',*,*,#505,.F.);
#632=ORIENTED_EDGE('',*,*,#501,.T.);
#633=ORIENTED_EDGE('',*,*,#481,.T.);
#634=ORIENTED_EDGE('',*,*,#506,.F.);
#635=ORIENTED_EDGE('',*,*,#507,.F.);
#636=ORIENTED_EDGE('',*,*,#504,.T.);
#637=ORIENTED_EDGE('',*,*,#480,.T.);
#638=ORIENTED_EDGE('',*,*,#508,.F.);
#639=ORIENTED_EDGE('',*,*,#509,.F.);
#640=ORIENTED_EDGE('',*,*,#506,.T.);
#641=ORIENTED_EDGE('',*,*,#479,.T.);
#642=ORIENTED_EDGE('',*,*,#510,.F.);
#643=ORIENTED_EDGE('',*,*,#511,.F.);
#644=ORIENTED_EDGE('',*,*,#508,.T.);
#645=ORIENTED_EDGE('',*,*,#478,.T.);
#646=ORIENTED_EDGE('',*,*,#512,.F.);
#647=ORIENTED_EDGE('',*,*,#513,.F.);
#648=ORIENTED_EDGE('',*,*,#510,.T.);
#649=ORIENTED_EDGE('',*,*,#477,.T.);
#650=ORIENTED_EDGE('',*,*,#514,.F.);
#651=ORIENTED_EDGE('',*,*,#515,.F.);
#652=ORIENTED_EDGE('',*,*,#512,.T.);
#653=ORIENTED_EDGE('',*,*,#476,.T.);
#654=ORIENTED_EDGE('',*,*,#503,.F.);
#655=ORIENTED_EDGE('',*,*,#516,.F.);
#656=ORIENTED_EDGE('',*,*,#514,.T.);
#657=ORIENTED_EDGE('',*,*,#502,.T.);
#658=ORIENTED_EDGE('',*,*,#505,.T.);
#659=ORIENTED_EDGE('',*,*,#507,.T.);
#660=ORIENTED_EDGE('',*,*,#509,.T.);
#661=ORIENTED_EDGE('',*,*,#511,.T.);
#662=ORIENTED_EDGE('',*,*,#513,.T.);
#663=ORIENTED_EDGE('',*,*,#515,.T.);
#664=ORIENTED_EDGE('',*,*,#516,.T.);
#665=ORIENTED_EDGE('',*,*,#517,.T.);
#666=ORIENTED_EDGE('',*,*,#518,.T.);
#667=ORIENTED_EDGE('',*,*,#519,.T.);
#668=ORIENTED_EDGE('',*,*,#520,.T.);
#669=ORIENTED_EDGE('',*,*,#521,.F.);
#670=ORIENTED_EDGE('',*,*,#522,.F.);
#671=ORIENTED_EDGE('',*,*,#523,.F.);
#672=ORIENTED_EDGE('',*,*,#524,.F.);
#673=ORIENTED_EDGE('',*,*,#525,.F.);
#674=ORIENTED_EDGE('',*,*,#526,.F.);
#675=ORIENTED_EDGE('',*,*,#526,.T.);
#676=ORIENTED_EDGE('',*,*,#527,.T.);
#677=ORIENTED_EDGE('',*,*,#528,.T.);
#678=ORIENTED_EDGE('',*,*,#527,.F.);
#679=ORIENTED_EDGE('',*,*,#528,.F.);
#680=ORIENTED_EDGE('',*,*,#529,.T.);
#681=ORIENTED_EDGE('',*,*,#483,.T.);
#682=ORIENTED_EDGE('',*,*,#529,.F.);
#683=ORIENTED_EDGE('',*,*,#525,.T.);
#684=ORIENTED_EDGE('',*,*,#530,.T.);
#685=ORIENTED_EDGE('',*,*,#531,.T.);
#686=ORIENTED_EDGE('',*,*,#530,.F.);
#687=ORIENTED_EDGE('',*,*,#531,.F.);
#688=ORIENTED_EDGE('',*,*,#532,.T.);
#689=ORIENTED_EDGE('',*,*,#484,.T.);
#690=ORIENTED_EDGE('',*,*,#532,.F.);
#691=ORIENTED_EDGE('',*,*,#524,.T.);
#692=ORIENTED_EDGE('',*,*,#533,.T.);
#693=ORIENTED_EDGE('',*,*,#534,.T.);
#694=ORIENTED_EDGE('',*,*,#533,.F.);
#695=ORIENTED_EDGE('',*,*,#534,.F.);
#696=ORIENTED_EDGE('',*,*,#535,.T.);
#697=ORIENTED_EDGE('',*,*,#485,.T.);
#698=ORIENTED_EDGE('',*,*,#535,.F.);
#699=ORIENTED_EDGE('',*,*,#523,.T.);
#700=ORIENTED_EDGE('',*,*,#536,.T.);
#701=ORIENTED_EDGE('',*,*,#537,.T.);
#702=ORIENTED_EDGE('',*,*,#536,.F.);
#703=ORIENTED_EDGE('',*,*,#537,.F.);
#704=ORIENTED_EDGE('',*,*,#538,.T.);
#705=ORIENTED_EDGE('',*,*,#486,.T.);
#706=ORIENTED_EDGE('',*,*,#538,.F.);
#707=ORIENTED_EDGE('',*,*,#522,.T.);
#708=ORIENTED_EDGE('',*,*,#539,.T.);
#709=ORIENTED_EDGE('',*,*,#540,.T.);
#710=ORIENTED_EDGE('',*,*,#539,.F.);
#711=ORIENTED_EDGE('',*,*,#540,.F.);
#712=ORIENTED_EDGE('',*,*,#541,.T.);
#713=ORIENTED_EDGE('',*,*,#487,.T.);
#714=ORIENTED_EDGE('',*,*,#541,.F.);
#715=ORIENTED_EDGE('',*,*,#521,.T.);
#716=ORIENTED_EDGE('',*,*,#542,.T.);
#717=ORIENTED_EDGE('',*,*,#543,.T.);
#718=ORIENTED_EDGE('',*,*,#542,.F.);
#719=ORIENTED_EDGE('',*,*,#543,.F.);
#720=ORIENTED_EDGE('',*,*,#544,.T.);
#721=ORIENTED_EDGE('',*,*,#488,.T.);
#722=ORIENTED_EDGE('',*,*,#544,.F.);
#723=ORIENTED_EDGE('',*,*,#520,.F.);
#724=ORIENTED_EDGE('',*,*,#545,.T.);
#725=ORIENTED_EDGE('',*,*,#500,.T.);
#726=ORIENTED_EDGE('',*,*,#545,.F.);
#727=ORIENTED_EDGE('',*,*,#519,.F.);
#728=ORIENTED_EDGE('',*,*,#546,.T.);
#729=ORIENTED_EDGE('',*,*,#499,.T.);
#730=ORIENTED_EDGE('',*,*,#546,.F.);
#731=ORIENTED_EDGE('',*,*,#518,.F.);
#732=ORIENTED_EDGE('',*,*,#547,.T.);
#733=ORIENTED_EDGE('',*,*,#498,.T.);
#734=ORIENTED_EDGE('',*,*,#547,.F.);
#735=ORIENTED_EDGE('',*,*,#517,.F.);
#736=ORIENTED_EDGE('',*,*,#548,.T.);
#737=ORIENTED_EDGE('',*,*,#497,.T.);
#738=ORIENTED_EDGE('',*,*,#548,.F.);
#739=ORIENTED_EDGE('',*,*,#549,.F.);
#740=ORIENTED_EDGE('',*,*,#550,.T.);
#741=ORIENTED_EDGE('',*,*,#551,.T.);
#742=ORIENTED_EDGE('',*,*,#552,.T.);
#743=ORIENTED_EDGE('',*,*,#553,.F.);
#744=ORIENTED_EDGE('',*,*,#554,.T.);
#745=ORIENTED_EDGE('',*,*,#549,.T.);
#746=ORIENTED_EDGE('',*,*,#555,.T.);
#747=ORIENTED_EDGE('',*,*,#556,.F.);
#748=ORIENTED_EDGE('',*,*,#557,.T.);
#749=ORIENTED_EDGE('',*,*,#558,.F.);
#750=ORIENTED_EDGE('',*,*,#559,.F.);
#751=ORIENTED_EDGE('',*,*,#560,.T.);
#752=ORIENTED_EDGE('',*,*,#556,.T.);
#753=ORIENTED_EDGE('',*,*,#561,.T.);
#754=ORIENTED_EDGE('',*,*,#551,.F.);
#755=ORIENTED_EDGE('',*,*,#562,.T.);
#756=ORIENTED_EDGE('',*,*,#563,.F.);
#757=ORIENTED_EDGE('',*,*,#564,.T.);
#758=ORIENTED_EDGE('',*,*,#559,.T.);
#759=ORIENTED_EDGE('',*,*,#565,.T.);
#760=ORIENTED_EDGE('',*,*,#566,.T.);
#761=ORIENTED_EDGE('',*,*,#563,.T.);
#762=ORIENTED_EDGE('',*,*,#567,.T.);
#763=ORIENTED_EDGE('',*,*,#553,.T.);
#764=ORIENTED_EDGE('',*,*,#568,.T.);
#765=ORIENTED_EDGE('',*,*,#569,.F.);
#766=ORIENTED_EDGE('',*,*,#570,.T.);
#767=ORIENTED_EDGE('',*,*,#571,.T.);
#768=ORIENTED_EDGE('',*,*,#572,.T.);
#769=ORIENTED_EDGE('',*,*,#573,.F.);
#770=ORIENTED_EDGE('',*,*,#574,.T.);
#771=ORIENTED_EDGE('',*,*,#575,.T.);
#772=ORIENTED_EDGE('',*,*,#576,.F.);
#773=ORIENTED_EDGE('',*,*,#577,.T.);
#774=ORIENTED_EDGE('',*,*,#573,.T.);
#775=ORIENTED_EDGE('',*,*,#578,.T.);
#776=ORIENTED_EDGE('',*,*,#579,.F.);
#777=ORIENTED_EDGE('',*,*,#580,.T.);
#778=ORIENTED_EDGE('',*,*,#581,.F.);
#779=ORIENTED_EDGE('',*,*,#582,.T.);
#780=ORIENTED_EDGE('',*,*,#576,.T.);
#781=ORIENTED_EDGE('',*,*,#583,.T.);
#782=ORIENTED_EDGE('',*,*,#584,.T.);
#783=ORIENTED_EDGE('',*,*,#571,.F.);
#784=ORIENTED_EDGE('',*,*,#585,.T.);
#785=ORIENTED_EDGE('',*,*,#579,.T.);
#786=ORIENTED_EDGE('',*,*,#586,.T.);
#787=ORIENTED_EDGE('',*,*,#581,.T.);
#788=ORIENTED_EDGE('',*,*,#587,.T.);
#789=ORIENTED_EDGE('',*,*,#569,.T.);
#790=ORIENTED_EDGE('',*,*,#588,.T.);
#791=ORIENTED_EDGE('',*,*,#584,.F.);
#792=ORIENTED_EDGE('',*,*,#589,.T.);
#793=ORIENTED_EDGE('',*,*,#575,.F.);
#794=ORIENTED_EDGE('',*,*,#589,.F.);
#795=ORIENTED_EDGE('',*,*,#566,.F.);
#796=ORIENTED_EDGE('',*,*,#590,.T.);
#797=ORIENTED_EDGE('',*,*,#558,.T.);
#798=ORIENTED_EDGE('',*,*,#590,.F.);
#799=ORIENTED_EDGE('',*,*,#591,.F.);
#800=ORIENTED_EDGE('',*,*,#492,.F.);
#801=ORIENTED_EDGE('',*,*,#592,.F.);
#802=ORIENTED_EDGE('',*,*,#586,.F.);
#803=ORIENTED_EDGE('',*,*,#592,.T.);
#804=ORIENTED_EDGE('',*,*,#491,.F.);
#805=ORIENTED_EDGE('',*,*,#593,.F.);
#806=ORIENTED_EDGE('',*,*,#572,.F.);
#807=ORIENTED_EDGE('',*,*,#591,.T.);
#808=ORIENTED_EDGE('',*,*,#583,.F.);
#809=ORIENTED_EDGE('',*,*,#594,.F.);
#810=ORIENTED_EDGE('',*,*,#489,.F.);
#811=ORIENTED_EDGE('',*,*,#593,.T.);
#812=ORIENTED_EDGE('',*,*,#490,.F.);
#813=ORIENTED_EDGE('',*,*,#594,.T.);
#814=ORIENTED_EDGE('',*,*,#578,.F.);
#815=ORIENTED_EDGE('',*,*,#595,.F.);
#816=ORIENTED_EDGE('',*,*,#496,.F.);
#817=ORIENTED_EDGE('',*,*,#596,.F.);
#818=ORIENTED_EDGE('',*,*,#565,.F.);
#819=ORIENTED_EDGE('',*,*,#596,.T.);
#820=ORIENTED_EDGE('',*,*,#495,.F.);
#821=ORIENTED_EDGE('',*,*,#597,.F.);
#822=ORIENTED_EDGE('',*,*,#552,.F.);
#823=ORIENTED_EDGE('',*,*,#595,.T.);
#824=ORIENTED_EDGE('',*,*,#561,.F.);
#825=ORIENTED_EDGE('',*,*,#598,.F.);
#826=ORIENTED_EDGE('',*,*,#493,.F.);
#827=ORIENTED_EDGE('',*,*,#597,.T.);
#828=ORIENTED_EDGE('',*,*,#494,.F.);
#829=ORIENTED_EDGE('',*,*,#598,.T.);
#830=ORIENTED_EDGE('',*,*,#555,.F.);
#831=ORIENTED_EDGE('',*,*,#580,.F.);
#832=ORIENTED_EDGE('',*,*,#585,.F.);
#833=ORIENTED_EDGE('',*,*,#570,.F.);
#834=ORIENTED_EDGE('',*,*,#587,.F.);
#835=ORIENTED_EDGE('',*,*,#574,.F.);
#836=ORIENTED_EDGE('',*,*,#577,.F.);
#837=ORIENTED_EDGE('',*,*,#582,.F.);
#838=ORIENTED_EDGE('',*,*,#588,.F.);
#839=ORIENTED_EDGE('',*,*,#562,.F.);
#840=ORIENTED_EDGE('',*,*,#550,.F.);
#841=ORIENTED_EDGE('',*,*,#554,.F.);
#842=ORIENTED_EDGE('',*,*,#567,.F.);
#843=ORIENTED_EDGE('',*,*,#557,.F.);
#844=ORIENTED_EDGE('',*,*,#560,.F.);
#845=ORIENTED_EDGE('',*,*,#564,.F.);
#846=ORIENTED_EDGE('',*,*,#568,.F.);
#847=PLANE('',#940);
#848=PLANE('',#953);
#849=PLANE('',#954);
#850=PLANE('',#957);
#851=PLANE('',#958);
#852=PLANE('',#959);
#853=PLANE('',#962);
#854=PLANE('',#963);
#855=PLANE('',#996);
#856=PLANE('',#997);
#857=PLANE('',#1001);
#858=PLANE('',#1002);
#859=PLANE('',#1006);
#860=PLANE('',#1007);
#861=PLANE('',#1011);
#862=PLANE('',#1012);
#863=PLANE('',#1016);
#864=PLANE('',#1017);
#865=PLANE('',#1020);
#866=PLANE('',#1021);
#867=PLANE('',#1022);
#868=PLANE('',#1023);
#869=PLANE('',#1024);
#870=PLANE('',#1025);
#871=PLANE('',#1026);
#872=PLANE('',#1027);
#873=ADVANCED_FACE('',(#65,#39,#40,#41,#42,#43,#44,#45,#46,#47,#48,#49,
#50),#847,.F.);
#874=ADVANCED_FACE('',(#66),#848,.F.);
#875=ADVANCED_FACE('',(#67),#849,.F.);
#876=ADVANCED_FACE('',(#68),#21,.T.);
#877=ADVANCED_FACE('',(#69),#850,.F.);
#878=ADVANCED_FACE('',(#70),#851,.F.);
#879=ADVANCED_FACE('',(#71),#852,.F.);
#880=ADVANCED_FACE('',(#72),#22,.T.);
#881=ADVANCED_FACE('',(#73),#853,.F.);
#882=ADVANCED_FACE('',(#74,#51,#52,#53,#54,#55,#56,#57,#58,#59,#60),#854,
 .T.);
#883=ADVANCED_FACE('',(#75),#23,.F.);
#884=ADVANCED_FACE('',(#76),#15,.F.);
#885=ADVANCED_FACE('',(#77),#24,.F.);
#886=ADVANCED_FACE('',(#78),#16,.F.);
#887=ADVANCED_FACE('',(#79),#25,.F.);
#888=ADVANCED_FACE('',(#80),#17,.F.);
#889=ADVANCED_FACE('',(#81),#26,.F.);
#890=ADVANCED_FACE('',(#82),#18,.F.);
#891=ADVANCED_FACE('',(#83),#27,.F.);
#892=ADVANCED_FACE('',(#84),#19,.F.);
#893=ADVANCED_FACE('',(#85),#28,.F.);
#894=ADVANCED_FACE('',(#86),#20,.F.);
#895=ADVANCED_FACE('',(#87),#29,.F.);
#896=ADVANCED_FACE('',(#88),#30,.F.);
#897=ADVANCED_FACE('',(#89),#31,.F.);
#898=ADVANCED_FACE('',(#90),#32,.F.);
#899=ADVANCED_FACE('',(#91),#855,.F.);
#900=ADVANCED_FACE('',(#92,#61),#856,.F.);
#901=ADVANCED_FACE('',(#93),#857,.F.);
#902=ADVANCED_FACE('',(#94,#62),#858,.F.);
#903=ADVANCED_FACE('',(#95),#859,.F.);
#904=ADVANCED_FACE('',(#96,#63),#860,.F.);
#905=ADVANCED_FACE('',(#97),#861,.F.);
#906=ADVANCED_FACE('',(#98,#64),#862,.F.);
#907=ADVANCED_FACE('',(#99),#863,.F.);
#908=ADVANCED_FACE('',(#100),#864,.F.);
#909=ADVANCED_FACE('',(#101),#33,.F.);
#910=ADVANCED_FACE('',(#102),#34,.F.);
#911=ADVANCED_FACE('',(#103),#865,.T.);
#912=ADVANCED_FACE('',(#104),#866,.T.);
#913=ADVANCED_FACE('',(#105),#867,.T.);
#914=ADVANCED_FACE('',(#106),#868,.T.);
#915=ADVANCED_FACE('',(#107),#869,.T.);
#916=ADVANCED_FACE('',(#108),#870,.T.);
#917=ADVANCED_FACE('',(#109),#871,.T.);
#918=ADVANCED_FACE('',(#110),#872,.T.);
#919=ADVANCED_FACE('',(#111),#35,.T.);
#920=ADVANCED_FACE('',(#112),#36,.T.);
#921=ADVANCED_FACE('',(#113),#37,.T.);
#922=ADVANCED_FACE('',(#114),#38,.T.);
#923=CLOSED_SHELL('',(#873,#874,#875,#876,#877,#878,#879,#880,#881,#882,
#883,#884,#885,#886,#887,#888,#889,#890,#891,#892,#893,#894,#895,#896,#897,
#898,#899,#900,#901,#902,#903,#904,#905,#906,#907,#908,#909,#910,#911,#912,
#913,#914,#915,#916,#917,#918,#919,#920,#921,#922));
#924=DERIVED_UNIT_ELEMENT(#927,1.);
#925=DERIVED_UNIT_ELEMENT(#1557,-3.);
#926=DIMENSIONAL_EXPONENTS(0.,1.,0.,0.,0.,0.,0.);
#927=(
CONVERSION_BASED_UNIT('gram',#929)
MASS_UNIT()
NAMED_UNIT(#926)
);
#928=(
MASS_UNIT()
NAMED_UNIT(*)
SI_UNIT(.KILO.,.GRAM.)
);
#929=MASS_MEASURE_WITH_UNIT(MASS_MEASURE(0.001),#928);
#930=DERIVED_UNIT((#924,#925));
#931=MEASURE_REPRESENTATION_ITEM('density measure',
POSITIVE_RATIO_MEASURE(1.),#930);
#932=PROPERTY_DEFINITION_REPRESENTATION(#937,#934);
#933=PROPERTY_DEFINITION_REPRESENTATION(#938,#935);
#934=REPRESENTATION('material name',(#936),#1555);
#935=REPRESENTATION('density',(#931),#1555);
#936=DESCRIPTIVE_REPRESENTATION_ITEM('Generic','Generic');
#937=PROPERTY_DEFINITION('material property','material name',#1564);
#938=PROPERTY_DEFINITION('material property','density of part',#1564);
#939=AXIS2_PLACEMENT_3D('',#1300,#1032,#1033);
#940=AXIS2_PLACEMENT_3D('',#1301,#1034,#1035);
#941=AXIS2_PLACEMENT_3D('',#1308,#1038,#1039);
#942=AXIS2_PLACEMENT_3D('',#1316,#1043,#1044);
#943=AXIS2_PLACEMENT_3D('',#1319,#1046,#1047);
#944=AXIS2_PLACEMENT_3D('',#1321,#1048,#1049);
#945=AXIS2_PLACEMENT_3D('',#1323,#1050,#1051);
#946=AXIS2_PLACEMENT_3D('',#1325,#1052,#1053);
#947=AXIS2_PLACEMENT_3D('',#1327,#1054,#1055);
#948=AXIS2_PLACEMENT_3D('',#1329,#1056,#1057);
#949=AXIS2_PLACEMENT_3D('',#1347,#1066,#1067);
#950=AXIS2_PLACEMENT_3D('',#1349,#1068,#1069);
#951=AXIS2_PLACEMENT_3D('',#1351,#1070,#1071);
#952=AXIS2_PLACEMENT_3D('',#1353,#1072,#1073);
#953=AXIS2_PLACEMENT_3D('',#1354,#1074,#1075);
#954=AXIS2_PLACEMENT_3D('',#1360,#1079,#1080);
#955=AXIS2_PLACEMENT_3D('',#1364,#1083,#1084);
#956=AXIS2_PLACEMENT_3D('',#1367,#1086,#1087);
#957=AXIS2_PLACEMENT_3D('',#1368,#1088,#1089);
#958=AXIS2_PLACEMENT_3D('',#1372,#1092,#1093);
#959=AXIS2_PLACEMENT_3D('',#1376,#1096,#1097);
#960=AXIS2_PLACEMENT_3D('',#1380,#1100,#1101);
#961=AXIS2_PLACEMENT_3D('',#1383,#1103,#1104);
#962=AXIS2_PLACEMENT_3D('',#1384,#1105,#1106);
#963=AXIS2_PLACEMENT_3D('',#1386,#1108,#1109);
#964=AXIS2_PLACEMENT_3D('',#1388,#1110,#1111);
#965=AXIS2_PLACEMENT_3D('',#1390,#1112,#1113);
#966=AXIS2_PLACEMENT_3D('',#1392,#1114,#1115);
#967=AXIS2_PLACEMENT_3D('',#1394,#1116,#1117);
#968=AXIS2_PLACEMENT_3D('',#1396,#1118,#1119);
#969=AXIS2_PLACEMENT_3D('',#1398,#1120,#1121);
#970=AXIS2_PLACEMENT_3D('',#1400,#1122,#1123);
#971=AXIS2_PLACEMENT_3D('',#1402,#1124,#1125);
#972=AXIS2_PLACEMENT_3D('',#1404,#1126,#1127);
#973=AXIS2_PLACEMENT_3D('',#1406,#1128,#1129);
#974=AXIS2_PLACEMENT_3D('',#1407,#1130,#1131);
#975=AXIS2_PLACEMENT_3D('',#1410,#1133,#1134);
#976=AXIS2_PLACEMENT_3D('',#1411,#1135,#1136);
#977=AXIS2_PLACEMENT_3D('',#1413,#1138,#1139);
#978=AXIS2_PLACEMENT_3D('',#1416,#1141,#1142);
#979=AXIS2_PLACEMENT_3D('',#1417,#1143,#1144);
#980=AXIS2_PLACEMENT_3D('',#1419,#1146,#1147);
#981=AXIS2_PLACEMENT_3D('',#1422,#1149,#1150);
#982=AXIS2_PLACEMENT_3D('',#1423,#1151,#1152);
#983=AXIS2_PLACEMENT_3D('',#1425,#1154,#1155);
#984=AXIS2_PLACEMENT_3D('',#1428,#1157,#1158);
#985=AXIS2_PLACEMENT_3D('',#1429,#1159,#1160);
#986=AXIS2_PLACEMENT_3D('',#1431,#1162,#1163);
#987=AXIS2_PLACEMENT_3D('',#1434,#1165,#1166);
#988=AXIS2_PLACEMENT_3D('',#1435,#1167,#1168);
#989=AXIS2_PLACEMENT_3D('',#1437,#1170,#1171);
#990=AXIS2_PLACEMENT_3D('',#1440,#1173,#1174);
#991=AXIS2_PLACEMENT_3D('',#1441,#1175,#1176);
#992=AXIS2_PLACEMENT_3D('',#1443,#1178,#1179);
#993=AXIS2_PLACEMENT_3D('',#1445,#1181,#1182);
#994=AXIS2_PLACEMENT_3D('',#1447,#1184,#1185);
#995=AXIS2_PLACEMENT_3D('',#1449,#1187,#1188);
#996=AXIS2_PLACEMENT_3D('',#1451,#1190,#1191);
#997=AXIS2_PLACEMENT_3D('',#1460,#1196,#1197);
#998=AXIS2_PLACEMENT_3D('',#1464,#1199,#1200);
#999=AXIS2_PLACEMENT_3D('',#1469,#1203,#1204);
#1000=AXIS2_PLACEMENT_3D('',#1471,#1205,#1206);
#1001=AXIS2_PLACEMENT_3D('',#1472,#1207,#1208);
#1002=AXIS2_PLACEMENT_3D('',#1478,#1212,#1213);
#1003=AXIS2_PLACEMENT_3D('',#1480,#1214,#1215);
#1004=AXIS2_PLACEMENT_3D('',#1483,#1217,#1218);
#1005=AXIS2_PLACEMENT_3D('',#1486,#1220,#1221);
#1006=AXIS2_PLACEMENT_3D('',#1487,#1222,#1223);
#1007=AXIS2_PLACEMENT_3D('',#1490,#1226,#1227);
#1008=AXIS2_PLACEMENT_3D('',#1495,#1229,#1230);
#1009=AXIS2_PLACEMENT_3D('',#1502,#1234,#1235);
#1010=AXIS2_PLACEMENT_3D('',#1504,#1236,#1237);
#1011=AXIS2_PLACEMENT_3D('',#1505,#1238,#1239);
#1012=AXIS2_PLACEMENT_3D('',#1511,#1243,#1244);
#1013=AXIS2_PLACEMENT_3D('',#1516,#1246,#1247);
#1014=AXIS2_PLACEMENT_3D('',#1519,#1249,#1250);
#1015=AXIS2_PLACEMENT_3D('',#1522,#1252,#1253);
#1016=AXIS2_PLACEMENT_3D('',#1523,#1254,#1255);
#1017=AXIS2_PLACEMENT_3D('',#1526,#1258,#1259);
#1018=AXIS2_PLACEMENT_3D('',#1529,#1262,#1263);
#1019=AXIS2_PLACEMENT_3D('',#1531,#1265,#1266);
#1020=AXIS2_PLACEMENT_3D('',#1533,#1268,#1269);
#1021=AXIS2_PLACEMENT_3D('',#1536,#1272,#1273);
#1022=AXIS2_PLACEMENT_3D('',#1538,#1275,#1276);
#1023=AXIS2_PLACEMENT_3D('',#1540,#1278,#1279);
#1024=AXIS2_PLACEMENT_3D('',#1541,#1280,#1281);
#1025=AXIS2_PLACEMENT_3D('',#1544,#1284,#1285);
#1026=AXIS2_PLACEMENT_3D('',#1546,#1287,#1288);
#1027=AXIS2_PLACEMENT_3D('',#1548,#1290,#1291);
#1028=AXIS2_PLACEMENT_3D('',#1549,#1292,#1293);
#1029=AXIS2_PLACEMENT_3D('',#1550,#1294,#1295);
#1030=AXIS2_PLACEMENT_3D('',#1551,#1296,#1297);
#1031=AXIS2_PLACEMENT_3D('',#1552,#1298,#1299);
#1032=DIRECTION('axis',(0.,0.,1.));
#1033=DIRECTION('refdir',(1.,0.,0.));
#1034=DIRECTION('center_axis',(0.,0.,1.));
#1035=DIRECTION('ref_axis',(1.,0.,0.));
#1036=DIRECTION('',(0.,-1.,0.));
#1037=DIRECTION('',(-1.,2.96059473233369E-14,0.));
#1038=DIRECTION('center_axis',(0.,0.,1.));
#1039=DIRECTION('ref_axis',(-1.,0.,0.));
#1040=DIRECTION('',(-1.,-2.9605947323338E-14,0.));
#1041=DIRECTION('',(0.,1.,0.));
#1042=DIRECTION('',(1.,4.14483262526735E-14,0.));
#1043=DIRECTION('center_axis',(0.,0.,1.));
#1044=DIRECTION('ref_axis',(1.,0.,0.));
#1045=DIRECTION('',(1.,-8.88178419700103E-14,0.));
#1046=DIRECTION('center_axis',(0.,0.,-1.));
#1047=DIRECTION('ref_axis',(-1.,0.,0.));
#1048=DIRECTION('center_axis',(0.,0.,-1.));
#1049=DIRECTION('ref_axis',(-1.,0.,0.));
#1050=DIRECTION('center_axis',(0.,0.,-1.));
#1051=DIRECTION('ref_axis',(-1.,0.,0.));
#1052=DIRECTION('center_axis',(0.,0.,-1.));
#1053=DIRECTION('ref_axis',(-1.,0.,0.));
#1054=DIRECTION('center_axis',(0.,0.,-1.));
#1055=DIRECTION('ref_axis',(-1.,0.,0.));
#1056=DIRECTION('center_axis',(0.,0.,-1.));
#1057=DIRECTION('ref_axis',(-1.,0.,0.));
#1058=DIRECTION('',(1.,-3.06268420586251E-16,0.));
#1059=DIRECTION('',(0.,1.,0.));
#1060=DIRECTION('',(-1.,3.06268420586251E-16,0.));
#1061=DIRECTION('',(-1.58603289232166E-16,-1.,0.));
#1062=DIRECTION('',(1.58603289232166E-16,1.,0.));
#1063=DIRECTION('',(-1.,0.,0.));
#1064=DIRECTION('',(-1.58603289232166E-16,-1.,0.));
#1065=DIRECTION('',(1.,0.,0.));
#1066=DIRECTION('center_axis',(0.,0.,-1.));
#1067=DIRECTION('ref_axis',(-1.,0.,0.));
#1068=DIRECTION('center_axis',(0.,0.,-1.));
#1069=DIRECTION('ref_axis',(-1.,0.,0.));
#1070=DIRECTION('center_axis',(0.,0.,-1.));
#1071=DIRECTION('ref_axis',(-1.,0.,0.));
#1072=DIRECTION('center_axis',(0.,0.,-1.));
#1073=DIRECTION('ref_axis',(-1.,0.,0.));
#1074=DIRECTION('center_axis',(1.,0.,0.));
#1075=DIRECTION('ref_axis',(0.,0.,-1.));
#1076=DIRECTION('',(0.,0.,-1.));
#1077=DIRECTION('',(0.,-1.,0.));
#1078=DIRECTION('',(0.,0.,-1.));
#1079=DIRECTION('center_axis',(8.78926561161561E-14,1.,0.));
#1080=DIRECTION('ref_axis',(0.,0.,1.));
#1081=DIRECTION('',(0.,0.,-1.));
#1082=DIRECTION('',(1.,-8.88178419700103E-14,0.));
#1083=DIRECTION('center_axis',(0.,0.,-1.));
#1084=DIRECTION('ref_axis',(-1.,0.,0.));
#1085=DIRECTION('',(0.,0.,-1.));
#1086=DIRECTION('center_axis',(0.,0.,1.));
#1087=DIRECTION('ref_axis',(1.,0.,0.));
#1088=DIRECTION('center_axis',(-4.16333634234444E-14,1.,0.));
#1089=DIRECTION('ref_axis',(0.,0.,1.));
#1090=DIRECTION('',(0.,0.,-1.));
#1091=DIRECTION('',(1.,4.14483262526735E-14,0.));
#1092=DIRECTION('center_axis',(-1.,0.,0.));
#1093=DIRECTION('ref_axis',(0.,0.,1.));
#1094=DIRECTION('',(0.,0.,-1.));
#1095=DIRECTION('',(0.,1.,0.));
#1096=DIRECTION('center_axis',(3.00685402502652E-14,-1.,0.));
#1097=DIRECTION('ref_axis',(0.,0.,-1.));
#1098=DIRECTION('',(0.,0.,-1.));
#1099=DIRECTION('',(-1.,-2.9605947323338E-14,0.));
#1100=DIRECTION('center_axis',(0.,0.,-1.));
#1101=DIRECTION('ref_axis',(-1.,0.,0.));
#1102=DIRECTION('',(0.,0.,-1.));
#1103=DIRECTION('center_axis',(0.,0.,1.));
#1104=DIRECTION('ref_axis',(-1.,0.,0.));
#1105=DIRECTION('center_axis',(-3.00685402502641E-14,-1.,0.));
#1106=DIRECTION('ref_axis',(0.,0.,-1.));
#1107=DIRECTION('',(-1.,2.96059473233369E-14,0.));
#1108=DIRECTION('center_axis',(0.,0.,1.));
#1109=DIRECTION('ref_axis',(1.,0.,0.));
#1110=DIRECTION('center_axis',(0.,0.,1.));
#1111=DIRECTION('ref_axis',(1.,0.,0.));
#1112=DIRECTION('center_axis',(0.,0.,1.));
#1113=DIRECTION('ref_axis',(1.,0.,0.));
#1114=DIRECTION('center_axis',(0.,0.,1.));
#1115=DIRECTION('ref_axis',(1.,0.,0.));
#1116=DIRECTION('center_axis',(0.,0.,1.));
#1117=DIRECTION('ref_axis',(1.,0.,0.));
#1118=DIRECTION('center_axis',(0.,0.,1.));
#1119=DIRECTION('ref_axis',(1.,0.,0.));
#1120=DIRECTION('center_axis',(0.,0.,1.));
#1121=DIRECTION('ref_axis',(1.,0.,0.));
#1122=DIRECTION('center_axis',(0.,0.,1.));
#1123=DIRECTION('ref_axis',(1.,0.,0.));
#1124=DIRECTION('center_axis',(0.,0.,1.));
#1125=DIRECTION('ref_axis',(1.,0.,0.));
#1126=DIRECTION('center_axis',(0.,0.,1.));
#1127=DIRECTION('ref_axis',(1.,0.,0.));
#1128=DIRECTION('center_axis',(0.,0.,1.));
#1129=DIRECTION('ref_axis',(1.,0.,0.));
#1130=DIRECTION('center_axis',(0.,0.,-1.));
#1131=DIRECTION('ref_axis',(-1.,0.,0.));
#1132=DIRECTION('',(0.,0.,-1.));
#1133=DIRECTION('center_axis',(0.,0.,-1.));
#1134=DIRECTION('ref_axis',(-1.,0.,0.));
#1135=DIRECTION('center_axis',(0.,0.,-1.));
#1136=DIRECTION('ref_axis',(-1.,0.,0.));
#1137=DIRECTION('',(0.707106781186548,-8.65956056235494E-17,-0.707106781186547));
#1138=DIRECTION('center_axis',(0.,0.,-1.));
#1139=DIRECTION('ref_axis',(-1.,0.,0.));
#1140=DIRECTION('',(0.,0.,-1.));
#1141=DIRECTION('center_axis',(0.,0.,-1.));
#1142=DIRECTION('ref_axis',(-1.,0.,0.));
#1143=DIRECTION('center_axis',(0.,0.,-1.));
#1144=DIRECTION('ref_axis',(-1.,0.,0.));
#1145=DIRECTION('',(0.707106781186548,-8.65956056235494E-17,-0.707106781186547));
#1146=DIRECTION('center_axis',(0.,0.,-1.));
#1147=DIRECTION('ref_axis',(-1.,0.,0.));
#1148=DIRECTION('',(0.,0.,-1.));
#1149=DIRECTION('center_axis',(0.,0.,-1.));
#1150=DIRECTION('ref_axis',(-1.,0.,0.));
#1151=DIRECTION('center_axis',(0.,0.,-1.));
#1152=DIRECTION('ref_axis',(-1.,0.,0.));
#1153=DIRECTION('',(0.707106781186547,-8.65956056235493E-17,-0.707106781186548));
#1154=DIRECTION('center_axis',(0.,0.,-1.));
#1155=DIRECTION('ref_axis',(-1.,0.,0.));
#1156=DIRECTION('',(0.,0.,-1.));
#1157=DIRECTION('center_axis',(0.,0.,-1.));
#1158=DIRECTION('ref_axis',(-1.,0.,0.));
#1159=DIRECTION('center_axis',(0.,0.,-1.));
#1160=DIRECTION('ref_axis',(-1.,0.,0.));
#1161=DIRECTION('',(0.707106781186547,-8.65956056235493E-17,-0.707106781186548));
#1162=DIRECTION('center_axis',(0.,0.,-1.));
#1163=DIRECTION('ref_axis',(-1.,0.,0.));
#1164=DIRECTION('',(0.,0.,-1.));
#1165=DIRECTION('center_axis',(0.,0.,-1.));
#1166=DIRECTION('ref_axis',(-1.,0.,0.));
#1167=DIRECTION('center_axis',(0.,0.,-1.));
#1168=DIRECTION('ref_axis',(-1.,0.,0.));
#1169=DIRECTION('',(0.707106781186547,-8.65956056235493E-17,-0.707106781186548));
#1170=DIRECTION('center_axis',(0.,0.,-1.));
#1171=DIRECTION('ref_axis',(-1.,0.,0.));
#1172=DIRECTION('',(0.,0.,-1.));
#1173=DIRECTION('center_axis',(0.,0.,-1.));
#1174=DIRECTION('ref_axis',(-1.,0.,0.));
#1175=DIRECTION('center_axis',(0.,0.,-1.));
#1176=DIRECTION('ref_axis',(-1.,0.,0.));
#1177=DIRECTION('',(0.707106781186547,-8.65956056235493E-17,-0.707106781186548));
#1178=DIRECTION('center_axis',(0.,0.,-1.));
#1179=DIRECTION('ref_axis',(-1.,0.,0.));
#1180=DIRECTION('',(0.,0.,-1.));
#1181=DIRECTION('center_axis',(0.,0.,-1.));
#1182=DIRECTION('ref_axis',(-1.,0.,0.));
#1183=DIRECTION('',(0.,0.,-1.));
#1184=DIRECTION('center_axis',(0.,0.,-1.));
#1185=DIRECTION('ref_axis',(-1.,0.,0.));
#1186=DIRECTION('',(0.,0.,-1.));
#1187=DIRECTION('center_axis',(0.,0.,-1.));
#1188=DIRECTION('ref_axis',(-1.,0.,0.));
#1189=DIRECTION('',(0.,0.,-1.));
#1190=DIRECTION('center_axis',(1.,-1.73472347597681E-16,0.));
#1191=DIRECTION('ref_axis',(0.,0.,-1.));
#1192=DIRECTION('',(0.,0.,1.));
#1193=DIRECTION('',(0.,1.,0.));
#1194=DIRECTION('',(0.,0.,1.));
#1195=DIRECTION('',(0.,1.,0.));
#1196=DIRECTION('center_axis',(0.,-1.,0.));
#1197=DIRECTION('ref_axis',(0.,0.,-1.));
#1198=DIRECTION('',(1.,0.,0.));
#1199=DIRECTION('center_axis',(0.,-1.,0.));
#1200=DIRECTION('ref_axis',(0.,0.,-1.));
#1201=DIRECTION('',(1.,0.,0.));
#1202=DIRECTION('',(0.,0.,1.));
#1203=DIRECTION('center_axis',(0.,-1.,0.));
#1204=DIRECTION('ref_axis',(0.,0.,-1.));
#1205=DIRECTION('center_axis',(0.,1.,0.));
#1206=DIRECTION('ref_axis',(0.,0.,1.));
#1207=DIRECTION('center_axis',(-1.,3.46944695195361E-16,0.));
#1208=DIRECTION('ref_axis',(0.,0.,1.));
#1209=DIRECTION('',(0.,0.,1.));
#1210=DIRECTION('',(-4.44089209850063E-16,-1.,0.));
#1211=DIRECTION('',(-4.44089209850063E-16,-1.,0.));
#1212=DIRECTION('center_axis',(1.38777878078145E-16,1.,0.));
#1213=DIRECTION('ref_axis',(0.,0.,1.));
#1214=DIRECTION('center_axis',(1.38777878078145E-16,1.,0.));
#1215=DIRECTION('ref_axis',(-1.,1.38777878078145E-16,0.));
#1216=DIRECTION('',(-1.,8.88178419700125E-16,0.));
#1217=DIRECTION('center_axis',(1.38777878078145E-16,1.,0.));
#1218=DIRECTION('ref_axis',(-1.,1.38777878078145E-16,0.));
#1219=DIRECTION('',(-1.,1.77635683940025E-16,0.));
#1220=DIRECTION('center_axis',(1.38777878078145E-16,1.,0.));
#1221=DIRECTION('ref_axis',(-1.,1.38777878078145E-16,0.));
#1222=DIRECTION('center_axis',(0.,0.,1.));
#1223=DIRECTION('ref_axis',(1.,0.,0.));
#1224=DIRECTION('',(1.66533453693774E-16,1.,0.));
#1225=DIRECTION('',(-3.33066907387547E-16,-1.,0.));
#1226=DIRECTION('center_axis',(-2.77555756156289E-16,-1.,0.));
#1227=DIRECTION('ref_axis',(0.,0.,-1.));
#1228=DIRECTION('',(1.,0.,0.));
#1229=DIRECTION('center_axis',(-2.77555756156289E-16,-1.,0.));
#1230=DIRECTION('ref_axis',(1.,-2.77555756156289E-16,0.));
#1231=DIRECTION('',(0.,0.,1.));
#1232=DIRECTION('',(1.,-1.77635683940025E-16,0.));
#1233=DIRECTION('',(0.,0.,1.));
#1234=DIRECTION('center_axis',(-2.77555756156289E-16,-1.,0.));
#1235=DIRECTION('ref_axis',(1.,-2.77555756156289E-16,0.));
#1236=DIRECTION('center_axis',(-2.77555756156289E-16,-1.,0.));
#1237=DIRECTION('ref_axis',(1.,-2.77555756156289E-16,0.));
#1238=DIRECTION('center_axis',(-1.,0.,0.));
#1239=DIRECTION('ref_axis',(0.,0.,1.));
#1240=DIRECTION('',(0.,0.,1.));
#1241=DIRECTION('',(0.,-1.,0.));
#1242=DIRECTION('',(0.,-1.,0.));
#1243=DIRECTION('center_axis',(2.77555756156289E-16,1.,0.));
#1244=DIRECTION('ref_axis',(0.,0.,1.));
#1245=DIRECTION('',(0.,0.,1.));
#1246=DIRECTION('center_axis',(2.77555756156289E-16,1.,0.));
#1247=DIRECTION('ref_axis',(-1.,2.77555756156289E-16,0.));
#1248=DIRECTION('',(-1.,1.77635683940025E-15,0.));
#1249=DIRECTION('center_axis',(2.77555756156289E-16,1.,0.));
#1250=DIRECTION('ref_axis',(-1.,2.77555756156289E-16,0.));
#1251=DIRECTION('',(-1.,3.5527136788005E-16,0.));
#1252=DIRECTION('center_axis',(2.77555756156289E-16,1.,0.));
#1253=DIRECTION('ref_axis',(-1.,2.77555756156289E-16,0.));
#1254=DIRECTION('center_axis',(1.,-1.73472347597681E-16,0.));
#1255=DIRECTION('ref_axis',(0.,0.,-1.));
#1256=DIRECTION('',(0.,1.,0.));
#1257=DIRECTION('',(0.,1.,0.));
#1258=DIRECTION('center_axis',(0.,0.,1.));
#1259=DIRECTION('ref_axis',(1.,0.,0.));
#1260=DIRECTION('',(2.22044604925031E-16,1.,0.));
#1261=DIRECTION('',(0.,-1.,0.));
#1262=DIRECTION('center_axis',(0.,1.,0.));
#1263=DIRECTION('ref_axis',(0.,0.,1.));
#1264=DIRECTION('',(0.,1.,0.));
#1265=DIRECTION('center_axis',(0.,1.,0.));
#1266=DIRECTION('ref_axis',(0.,0.,1.));
#1267=DIRECTION('',(0.,1.,0.));
#1268=DIRECTION('center_axis',(-0.707106781186555,1.22663473334671E-16,
-0.70710678118654));
#1269=DIRECTION('ref_axis',(-0.70710678118654,0.,0.707106781186555));
#1270=DIRECTION('',(-0.577350269189621,-0.577350269189624,0.577350269189633));
#1271=DIRECTION('',(-0.577350269189622,0.577350269189621,0.577350269189634));
#1272=DIRECTION('center_axis',(1.96261557335474E-16,0.707106781186555,-0.70710678118654));
#1273=DIRECTION('ref_axis',(-1.,0.,-2.77555756156295E-16));
#1274=DIRECTION('',(-0.577350269189622,-0.577350269189621,-0.577350269189634));
#1275=DIRECTION('center_axis',(-1.96261557335474E-16,-0.707106781186554,
-0.707106781186541));
#1276=DIRECTION('ref_axis',(-1.,0.,2.77555756156294E-16));
#1277=DIRECTION('',(0.577350269189622,-0.577350269189622,0.577350269189634));
#1278=DIRECTION('center_axis',(0.707106781186555,0.,-0.70710678118654));
#1279=DIRECTION('ref_axis',(-0.70710678118654,0.,-0.707106781186555));
#1280=DIRECTION('center_axis',(-9.81307786677371E-17,-0.707106781186556,
-0.707106781186539));
#1281=DIRECTION('ref_axis',(-1.,0.,1.38777878078148E-16));
#1282=DIRECTION('',(0.577350269189621,-0.577350269189621,0.577350269189634));
#1283=DIRECTION('',(-0.577350269189622,-0.577350269189621,0.577350269189634));
#1284=DIRECTION('center_axis',(-0.707106781186555,1.22663473334671E-16,
-0.70710678118654));
#1285=DIRECTION('ref_axis',(-0.70710678118654,0.,0.707106781186555));
#1286=DIRECTION('',(0.577350269189621,-0.577350269189622,-0.577350269189634));
#1287=DIRECTION('center_axis',(0.707106781186555,-2.45326946669342E-16,
-0.70710678118654));
#1288=DIRECTION('ref_axis',(-0.70710678118654,0.,-0.707106781186555));
#1289=DIRECTION('',(0.577350269189621,0.577350269189622,0.577350269189634));
#1290=DIRECTION('center_axis',(0.,0.707106781186555,-0.70710678118654));
#1291=DIRECTION('ref_axis',(-1.,0.,0.));
#1292=DIRECTION('center_axis',(1.73472347597681E-16,1.,0.));
#1293=DIRECTION('ref_axis',(-1.,1.73472347597681E-16,0.));
#1294=DIRECTION('center_axis',(0.,-1.,0.));
#1295=DIRECTION('ref_axis',(0.,0.,-1.));
#1296=DIRECTION('center_axis',(1.73472347597681E-16,1.,0.));
#1297=DIRECTION('ref_axis',(-1.,1.73472347597681E-16,0.));
#1298=DIRECTION('center_axis',(-3.46944695195361E-16,-1.,0.));
#1299=DIRECTION('ref_axis',(1.,-3.46944695195361E-16,0.));
#1300=CARTESIAN_POINT('',(0.,0.,0.));
#1301=CARTESIAN_POINT('Origin',(1.04083408558605E-15,-4.75,0.));
#1302=CARTESIAN_POINT('',(-2.32500000000001,4.75000000000001,0.));
#1303=CARTESIAN_POINT('',(-2.32500000000001,-4.74999999999999,0.));
#1304=CARTESIAN_POINT('',(-2.32500000000001,4.75000000000001,0.));
#1305=CARTESIAN_POINT('',(-2.025,4.75,0.));
#1306=CARTESIAN_POINT('',(-2.025,4.75,0.));
#1307=CARTESIAN_POINT('',(2.025,4.75,0.));
#1308=CARTESIAN_POINT('Origin',(-6.93889390390723E-16,4.75,0.));
#1309=CARTESIAN_POINT('',(2.32499999999999,4.75000000000001,0.));
#1310=CARTESIAN_POINT('',(2.32499999999999,4.75000000000001,0.));
#1311=CARTESIAN_POINT('',(2.32499999999999,-4.74999999999999,0.));
#1312=CARTESIAN_POINT('',(2.32499999999999,-4.74999999999999,0.));
#1313=CARTESIAN_POINT('',(2.025,-4.75,0.));
#1314=CARTESIAN_POINT('',(2.025,-4.75,0.));
#1315=CARTESIAN_POINT('',(-2.025,-4.75000000000001,0.));
#1316=CARTESIAN_POINT('Origin',(1.04083408558605E-15,-4.75,0.));
#1317=CARTESIAN_POINT('',(-2.32500000000001,-4.74999999999999,0.));
#1318=CARTESIAN_POINT('',(0.470000000000001,-4.75,-8.64835078312005E-34));
#1319=CARTESIAN_POINT('Origin',(1.04083408558605E-15,-4.75,0.));
#1320=CARTESIAN_POINT('',(0.469999999999999,4.75,-2.77555756156289E-17));
#1321=CARTESIAN_POINT('Origin',(-6.93889390390723E-16,4.75,0.));
#1322=CARTESIAN_POINT('',(-1.61000000000001,4.,-8.32667268468868E-17));
#1323=CARTESIAN_POINT('Origin',(-1.92500000000001,4.,0.));
#1324=CARTESIAN_POINT('',(-1.61000000000001,-3.99999999999999,-8.32667268468868E-17));
#1325=CARTESIAN_POINT('Origin',(-1.92500000000001,-3.99999999999999,0.));
#1326=CARTESIAN_POINT('',(2.23999999999999,-2.05,-2.73762333961418E-33));
#1327=CARTESIAN_POINT('Origin',(1.92499999999999,-2.05,0.));
#1328=CARTESIAN_POINT('',(2.23999999999999,4.00000000000001,-2.73762333961418E-33));
#1329=CARTESIAN_POINT('Origin',(1.92499999999999,4.00000000000001,0.));
#1330=CARTESIAN_POINT('',(-1.45,-3.8,0.));
#1331=CARTESIAN_POINT('',(1.45,-3.8,0.));
#1332=CARTESIAN_POINT('',(-1.45,-3.8,0.));
#1333=CARTESIAN_POINT('',(1.45,-2.4,0.));
#1334=CARTESIAN_POINT('',(1.45,-3.8,0.));
#1335=CARTESIAN_POINT('',(-1.45,-2.4,0.));
#1336=CARTESIAN_POINT('',(1.45,-2.4,0.));
#1337=CARTESIAN_POINT('',(-1.45,-2.4,0.));
#1338=CARTESIAN_POINT('',(1.45,2.4,0.));
#1339=CARTESIAN_POINT('',(1.45,3.8,0.));
#1340=CARTESIAN_POINT('',(1.45,2.4,0.));
#1341=CARTESIAN_POINT('',(-1.45,3.8,0.));
#1342=CARTESIAN_POINT('',(1.45,3.8,0.));
#1343=CARTESIAN_POINT('',(-1.45,2.4,0.));
#1344=CARTESIAN_POINT('',(-1.45,3.8,0.));
#1345=CARTESIAN_POINT('',(-1.45,2.4,0.));
#1346=CARTESIAN_POINT('',(2.1,-2.14313189850787E-17,0.));
#1347=CARTESIAN_POINT('Origin',(1.925,0.,0.));
#1348=CARTESIAN_POINT('',(-1.75,-2.14313189850787E-17,0.));
#1349=CARTESIAN_POINT('Origin',(-1.925,0.,0.));
#1350=CARTESIAN_POINT('',(0.175000000000001,6.525,0.));
#1351=CARTESIAN_POINT('Origin',(6.93889390390723E-16,6.525,0.));
#1352=CARTESIAN_POINT('',(0.174999999999999,-6.525,0.));
#1353=CARTESIAN_POINT('Origin',(-1.04346390424521E-15,-6.525,0.));
#1354=CARTESIAN_POINT('Origin',(-2.32500000000001,4.75000000000001,0.3));
#1355=CARTESIAN_POINT('',(-2.32500000000001,-4.74999999999999,0.3));
#1356=CARTESIAN_POINT('',(-2.32500000000001,-4.74999999999999,0.3));
#1357=CARTESIAN_POINT('',(-2.32500000000001,4.75000000000001,0.3));
#1358=CARTESIAN_POINT('',(-2.32500000000001,4.75000000000001,0.3));
#1359=CARTESIAN_POINT('',(-2.32500000000001,4.75000000000001,0.3));
#1360=CARTESIAN_POINT('Origin',(-2.32500000000001,-4.74999999999999,0.3));
#1361=CARTESIAN_POINT('',(-2.025,-4.75000000000001,0.3));
#1362=CARTESIAN_POINT('',(-2.025,-4.75000000000001,0.3));
#1363=CARTESIAN_POINT('',(-2.32500000000001,-4.74999999999999,0.3));
#1364=CARTESIAN_POINT('Origin',(1.04083408558605E-15,-4.75,0.3));
#1365=CARTESIAN_POINT('',(2.025,-4.75,0.3));
#1366=CARTESIAN_POINT('',(2.025,-4.75,0.3));
#1367=CARTESIAN_POINT('Origin',(1.04083408558605E-15,-4.75,0.3));
#1368=CARTESIAN_POINT('Origin',(2.025,-4.75,0.3));
#1369=CARTESIAN_POINT('',(2.32499999999999,-4.74999999999999,0.3));
#1370=CARTESIAN_POINT('',(2.32499999999999,-4.74999999999999,0.3));
#1371=CARTESIAN_POINT('',(2.025,-4.75,0.3));
#1372=CARTESIAN_POINT('Origin',(2.32499999999999,-4.74999999999999,0.3));
#1373=CARTESIAN_POINT('',(2.32499999999999,4.75000000000001,0.3));
#1374=CARTESIAN_POINT('',(2.32499999999999,4.75000000000001,0.3));
#1375=CARTESIAN_POINT('',(2.32499999999999,-4.74999999999999,0.3));
#1376=CARTESIAN_POINT('Origin',(2.32499999999999,4.75000000000001,0.3));
#1377=CARTESIAN_POINT('',(2.025,4.75,0.3));
#1378=CARTESIAN_POINT('',(2.025,4.75,0.3));
#1379=CARTESIAN_POINT('',(2.32499999999999,4.75000000000001,0.3));
#1380=CARTESIAN_POINT('Origin',(-6.93889390390723E-16,4.75,0.3));
#1381=CARTESIAN_POINT('',(-2.025,4.75,0.3));
#1382=CARTESIAN_POINT('',(-2.025,4.75,0.3));
#1383=CARTESIAN_POINT('Origin',(-6.93889390390723E-16,4.75,0.3));
#1384=CARTESIAN_POINT('Origin',(-2.025,4.75,0.3));
#1385=CARTESIAN_POINT('',(-2.025,4.75,0.3));
#1386=CARTESIAN_POINT('Origin',(1.04083408558605E-15,-4.75,0.3));
#1387=CARTESIAN_POINT('',(2.1,0.,0.3));
#1388=CARTESIAN_POINT('Origin',(1.925,0.,0.3));
#1389=CARTESIAN_POINT('',(-1.75,0.,0.3));
#1390=CARTESIAN_POINT('Origin',(-1.925,0.,0.3));
#1391=CARTESIAN_POINT('',(0.175000000000001,6.525,0.3));
#1392=CARTESIAN_POINT('Origin',(6.93889390390723E-16,6.525,0.3));
#1393=CARTESIAN_POINT('',(0.174999999999999,-6.525,0.3));
#1394=CARTESIAN_POINT('Origin',(-1.04346390424521E-15,-6.525,0.3));
#1395=CARTESIAN_POINT('',(2.09499999999999,4.00000000000001,0.3));
#1396=CARTESIAN_POINT('Origin',(1.92499999999999,4.00000000000001,0.3));
#1397=CARTESIAN_POINT('',(2.09499999999999,-2.05,0.3));
#1398=CARTESIAN_POINT('Origin',(1.92499999999999,-2.05,0.3));
#1399=CARTESIAN_POINT('',(-1.75500000000001,-3.99999999999999,0.3));
#1400=CARTESIAN_POINT('Origin',(-1.92500000000001,-3.99999999999999,0.3));
#1401=CARTESIAN_POINT('',(-1.75500000000001,4.,0.3));
#1402=CARTESIAN_POINT('Origin',(-1.92500000000001,4.,0.3));
#1403=CARTESIAN_POINT('',(0.224999999999999,4.75,0.3));
#1404=CARTESIAN_POINT('Origin',(-6.93889390390723E-16,4.75,0.3));
#1405=CARTESIAN_POINT('',(0.225000000000001,-4.75,0.3));
#1406=CARTESIAN_POINT('Origin',(1.04083408558605E-15,-4.75,0.3));
#1407=CARTESIAN_POINT('Origin',(1.04083408558605E-15,-4.75,0.));
#1408=CARTESIAN_POINT('',(0.225000000000001,-4.75,0.245));
#1409=CARTESIAN_POINT('',(0.225000000000001,-4.75,0.));
#1410=CARTESIAN_POINT('Origin',(1.04083408558605E-15,-4.75,0.245));
#1411=CARTESIAN_POINT('Origin',(1.04083408558605E-15,-4.75,0.));
#1412=CARTESIAN_POINT('',(0.470000000000001,-4.75,0.));
#1413=CARTESIAN_POINT('Origin',(-6.93889390390723E-16,4.75,0.));
#1414=CARTESIAN_POINT('',(0.224999999999999,4.75,0.245));
#1415=CARTESIAN_POINT('',(0.224999999999999,4.75,0.));
#1416=CARTESIAN_POINT('Origin',(-6.93889390390723E-16,4.75,0.245));
#1417=CARTESIAN_POINT('Origin',(-6.93889390390723E-16,4.75,0.));
#1418=CARTESIAN_POINT('',(0.469999999999999,4.75,0.));
#1419=CARTESIAN_POINT('Origin',(-1.92500000000001,4.,0.));
#1420=CARTESIAN_POINT('',(-1.75500000000001,4.,0.145));
#1421=CARTESIAN_POINT('',(-1.75500000000001,4.,0.));
#1422=CARTESIAN_POINT('Origin',(-1.92500000000001,4.,0.145));
#1423=CARTESIAN_POINT('Origin',(-1.92500000000001,4.,0.));
#1424=CARTESIAN_POINT('',(-1.61000000000001,4.,0.));
#1425=CARTESIAN_POINT('Origin',(-1.92500000000001,-3.99999999999999,0.));
#1426=CARTESIAN_POINT('',(-1.75500000000001,-3.99999999999999,0.145));
#1427=CARTESIAN_POINT('',(-1.75500000000001,-3.99999999999999,0.));
#1428=CARTESIAN_POINT('Origin',(-1.92500000000001,-3.99999999999999,0.145));
#1429=CARTESIAN_POINT('Origin',(-1.92500000000001,-3.99999999999999,0.));
#1430=CARTESIAN_POINT('',(-1.61000000000001,-3.99999999999999,0.));
#1431=CARTESIAN_POINT('Origin',(1.92499999999999,-2.05,0.));
#1432=CARTESIAN_POINT('',(2.09499999999999,-2.05,0.145));
#1433=CARTESIAN_POINT('',(2.09499999999999,-2.05,0.));
#1434=CARTESIAN_POINT('Origin',(1.92499999999999,-2.05,0.145));
#1435=CARTESIAN_POINT('Origin',(1.92499999999999,-2.05,0.));
#1436=CARTESIAN_POINT('',(2.23999999999999,-2.05,0.));
#1437=CARTESIAN_POINT('Origin',(1.92499999999999,4.00000000000001,0.));
#1438=CARTESIAN_POINT('',(2.09499999999999,4.00000000000001,0.145));
#1439=CARTESIAN_POINT('',(2.09499999999999,4.00000000000001,0.));
#1440=CARTESIAN_POINT('Origin',(1.92499999999999,4.00000000000001,0.145));
#1441=CARTESIAN_POINT('Origin',(1.92499999999999,4.00000000000001,0.));
#1442=CARTESIAN_POINT('',(2.23999999999999,4.00000000000001,0.));
#1443=CARTESIAN_POINT('Origin',(-1.04346390424521E-15,-6.525,0.3001));
#1444=CARTESIAN_POINT('',(0.174999999999999,-6.525,0.3001));
#1445=CARTESIAN_POINT('Origin',(6.93889390390723E-16,6.525,0.3001));
#1446=CARTESIAN_POINT('',(0.175000000000001,6.525,0.3001));
#1447=CARTESIAN_POINT('Origin',(-1.925,0.,0.3001));
#1448=CARTESIAN_POINT('',(-1.75,-2.14313189850787E-17,0.3001));
#1449=CARTESIAN_POINT('Origin',(1.925,0.,0.3001));
#1450=CARTESIAN_POINT('',(2.1,-2.14313189850787E-17,0.3001));
#1451=CARTESIAN_POINT('Origin',(-1.25,3.6,-3.));
#1452=CARTESIAN_POINT('',(-1.25,3.6,-2.));
#1453=CARTESIAN_POINT('',(-1.25,3.6,-0.200000000000002));
#1454=CARTESIAN_POINT('',(-1.25,3.6,-2.));
#1455=CARTESIAN_POINT('',(-1.25,2.6,-2.));
#1456=CARTESIAN_POINT('',(-1.25,2.6,-2.));
#1457=CARTESIAN_POINT('',(-1.25,2.6,-0.200000000000002));
#1458=CARTESIAN_POINT('',(-1.25,2.6,-2.));
#1459=CARTESIAN_POINT('',(-1.25,2.6,-0.200000000000002));
#1460=CARTESIAN_POINT('Origin',(-1.25,3.6,-3.));
#1461=CARTESIAN_POINT('',(-0.250000000000001,3.6,-3.));
#1462=CARTESIAN_POINT('',(0.25,3.6,-3.));
#1463=CARTESIAN_POINT('',(-0.250000000000001,3.6,-3.));
#1464=CARTESIAN_POINT('Origin',(-0.250000000000001,3.6,-2.));
#1465=CARTESIAN_POINT('',(1.25,3.6,-0.200000000000002));
#1466=CARTESIAN_POINT('',(-1.25,3.6,-0.200000000000002));
#1467=CARTESIAN_POINT('',(1.25,3.6,-2.));
#1468=CARTESIAN_POINT('',(1.25,3.6,-2.));
#1469=CARTESIAN_POINT('Origin',(0.25,3.6,-2.));
#1470=CARTESIAN_POINT('',(-3.67394039744206E-17,3.6,-1.8));
#1471=CARTESIAN_POINT('Origin',(0.,3.6,-1.5));
#1472=CARTESIAN_POINT('Origin',(1.25,3.6,-3.));
#1473=CARTESIAN_POINT('',(1.25,2.6,-2.));
#1474=CARTESIAN_POINT('',(1.25,2.6,-0.200000000000002));
#1475=CARTESIAN_POINT('',(1.25,2.6,-2.));
#1476=CARTESIAN_POINT('',(1.25,3.6,-2.));
#1477=CARTESIAN_POINT('',(1.25,3.6,-0.200000000000002));
#1478=CARTESIAN_POINT('Origin',(-1.25,2.6,-3.));
#1479=CARTESIAN_POINT('',(-0.250000000000001,2.6,-3.));
#1480=CARTESIAN_POINT('Origin',(-0.250000000000001,2.6,-2.));
#1481=CARTESIAN_POINT('',(0.249999999999999,2.6,-3.));
#1482=CARTESIAN_POINT('',(0.249999999999999,2.6,-3.));
#1483=CARTESIAN_POINT('Origin',(0.249999999999999,2.6,-2.));
#1484=CARTESIAN_POINT('',(1.25,2.6,-0.200000000000002));
#1485=CARTESIAN_POINT('',(-3.67394039744206E-17,2.6,-1.8));
#1486=CARTESIAN_POINT('Origin',(0.,2.6,-1.5));
#1487=CARTESIAN_POINT('Origin',(0.,0.,-3.));
#1488=CARTESIAN_POINT('',(-0.250000000000001,2.6,-3.));
#1489=CARTESIAN_POINT('',(0.25,3.6,-3.));
#1490=CARTESIAN_POINT('Origin',(1.25,-2.6,-3.));
#1491=CARTESIAN_POINT('',(-0.250000000000002,-2.6,-3.));
#1492=CARTESIAN_POINT('',(0.249999999999998,-2.6,-3.));
#1493=CARTESIAN_POINT('',(-0.250000000000002,-2.6,-3.));
#1494=CARTESIAN_POINT('',(-1.25,-2.6,-2.));
#1495=CARTESIAN_POINT('Origin',(-0.250000000000002,-2.6,-2.));
#1496=CARTESIAN_POINT('',(-1.25,-2.6,-0.200000000000002));
#1497=CARTESIAN_POINT('',(-1.25,-2.6,-2.));
#1498=CARTESIAN_POINT('',(1.25,-2.6,-0.200000000000002));
#1499=CARTESIAN_POINT('',(-1.25,-2.6,-0.200000000000002));
#1500=CARTESIAN_POINT('',(1.25,-2.6,-2.));
#1501=CARTESIAN_POINT('',(1.25,-2.6,-2.));
#1502=CARTESIAN_POINT('Origin',(0.249999999999998,-2.6,-2.));
#1503=CARTESIAN_POINT('',(-3.67394039744206E-17,-2.6,-1.8));
#1504=CARTESIAN_POINT('Origin',(0.,-2.6,-1.5));
#1505=CARTESIAN_POINT('Origin',(1.25,-2.6,-3.));
#1506=CARTESIAN_POINT('',(1.25,-3.6,-2.));
#1507=CARTESIAN_POINT('',(1.25,-3.6,-0.200000000000002));
#1508=CARTESIAN_POINT('',(1.25,-3.6,-2.));
#1509=CARTESIAN_POINT('',(1.25,-2.6,-2.));
#1510=CARTESIAN_POINT('',(1.25,-2.6,-0.200000000000002));
#1511=CARTESIAN_POINT('Origin',(1.25,-3.6,-3.));
#1512=CARTESIAN_POINT('',(-1.25,-3.6,-2.));
#1513=CARTESIAN_POINT('',(-1.25,-3.6,-0.200000000000002));
#1514=CARTESIAN_POINT('',(-1.25,-3.6,-2.));
#1515=CARTESIAN_POINT('',(-0.250000000000002,-3.6,-3.));
#1516=CARTESIAN_POINT('Origin',(-0.250000000000002,-3.6,-2.));
#1517=CARTESIAN_POINT('',(0.249999999999998,-3.6,-3.));
#1518=CARTESIAN_POINT('',(0.249999999999998,-3.6,-3.));
#1519=CARTESIAN_POINT('Origin',(0.249999999999998,-3.6,-2.));
#1520=CARTESIAN_POINT('',(1.25,-3.6,-0.200000000000002));
#1521=CARTESIAN_POINT('',(-3.67394039744206E-17,-3.6,-1.8));
#1522=CARTESIAN_POINT('Origin',(0.,-3.6,-1.5));
#1523=CARTESIAN_POINT('Origin',(-1.25,-2.6,-3.));
#1524=CARTESIAN_POINT('',(-1.25,-3.6,-2.));
#1525=CARTESIAN_POINT('',(-1.25,-3.6,-0.200000000000002));
#1526=CARTESIAN_POINT('Origin',(0.,0.,-3.));
#1527=CARTESIAN_POINT('',(-0.250000000000002,-3.6,-3.));
#1528=CARTESIAN_POINT('',(0.249999999999998,-2.6,-3.));
#1529=CARTESIAN_POINT('Origin',(0.,-6.775,-1.5));
#1530=CARTESIAN_POINT('',(-3.67394039744206E-17,-6.775,-1.8));
#1531=CARTESIAN_POINT('Origin',(0.,-6.775,-1.5));
#1532=CARTESIAN_POINT('',(-3.67394039744206E-17,-6.775,-1.8));
#1533=CARTESIAN_POINT('Origin',(-1.25,-2.6,-0.200000000000002));
#1534=CARTESIAN_POINT('',(-1.25,-3.6,-0.200000000000002));
#1535=CARTESIAN_POINT('',(-1.25,-2.6,-0.200000000000001));
#1536=CARTESIAN_POINT('Origin',(1.25,-2.6,-0.200000000000002));
#1537=CARTESIAN_POINT('',(1.45,-2.4,8.67361737988404E-17));
#1538=CARTESIAN_POINT('Origin',(1.25,-3.6,-0.200000000000002));
#1539=CARTESIAN_POINT('',(1.25,-3.6,-0.200000000000002));
#1540=CARTESIAN_POINT('Origin',(1.25,-2.6,-0.200000000000002));
#1541=CARTESIAN_POINT('Origin',(-1.25,2.6,-0.200000000000002));
#1542=CARTESIAN_POINT('',(1.25,2.6,-0.200000000000002));
#1543=CARTESIAN_POINT('',(-1.25,2.6,-0.200000000000001));
#1544=CARTESIAN_POINT('Origin',(-1.25,3.6,-0.200000000000002));
#1545=CARTESIAN_POINT('',(-1.45,3.8,4.33680868994202E-17));
#1546=CARTESIAN_POINT('Origin',(1.25,3.6,-0.200000000000002));
#1547=CARTESIAN_POINT('',(1.25,3.6,-0.200000000000002));
#1548=CARTESIAN_POINT('Origin',(-1.25,3.6,-0.200000000000002));
#1549=CARTESIAN_POINT('Origin',(-0.250000000000002,4.33680868994205E-17,
-2.));
#1550=CARTESIAN_POINT('Origin',(0.249999999999998,0.,-2.));
#1551=CARTESIAN_POINT('Origin',(-0.250000000000001,4.33680868994204E-17,
-2.));
#1552=CARTESIAN_POINT('Origin',(0.249999999999998,-8.67361737988398E-17,
-2.));
#1553=UNCERTAINTY_MEASURE_WITH_UNIT(LENGTH_MEASURE(0.001),#1557,
'DISTANCE_ACCURACY_VALUE',
'Maximum model space distance between geometric entities at asserted c
onnectivities');
#1554=UNCERTAINTY_MEASURE_WITH_UNIT(LENGTH_MEASURE(0.001),#1557,
'DISTANCE_ACCURACY_VALUE',
'Maximum model space distance between geometric entities at asserted c
onnectivities');
#1555=(
GEOMETRIC_REPRESENTATION_CONTEXT(3)
GLOBAL_UNCERTAINTY_ASSIGNED_CONTEXT((#1553))
GLOBAL_UNIT_ASSIGNED_CONTEXT((#1557,#1558,#1559))
REPRESENTATION_CONTEXT('','3D')
);
#1556=(
GEOMETRIC_REPRESENTATION_CONTEXT(3)
GLOBAL_UNCERTAINTY_ASSIGNED_CONTEXT((#1554))
GLOBAL_UNIT_ASSIGNED_CONTEXT((#1557,#1558,#1559))
REPRESENTATION_CONTEXT('','3D')
);
#1557=(
LENGTH_UNIT()
NAMED_UNIT(*)
SI_UNIT(.CENTI.,.METRE.)
);
#1558=(
NAMED_UNIT(*)
PLANE_ANGLE_UNIT()
SI_UNIT($,.RADIAN.)
);
#1559=(
NAMED_UNIT(*)
SI_UNIT($,.STERADIAN.)
SOLID_ANGLE_UNIT()
);
#1560=SHAPE_DEFINITION_REPRESENTATION(#1561,#1562);
#1561=PRODUCT_DEFINITION_SHAPE('',$,#1564);
#1562=SHAPE_REPRESENTATION('',(#939),#1555);
#1563=PRODUCT_DEFINITION_CONTEXT('part definition',#1568,'design');
#1564=PRODUCT_DEFINITION('Blocco D455','Blocco D455',#1565,#1563);
#1565=PRODUCT_DEFINITION_FORMATION('',$,#1570);
#1566=PRODUCT_RELATED_PRODUCT_CATEGORY('Blocco D455','Blocco D455',(#1570));
#1567=APPLICATION_PROTOCOL_DEFINITION('international standard',
'automotive_design',2009,#1568);
#1568=APPLICATION_CONTEXT(
'Core Data for Automotive Mechanical Design Process');
#1569=PRODUCT_CONTEXT('part definition',#1568,'mechanical');
#1570=PRODUCT('Blocco D455','Blocco D455',$,(#1569));
#1571=PRESENTATION_STYLE_ASSIGNMENT((#1573));
#1572=PRESENTATION_STYLE_ASSIGNMENT((#1574));
#1573=SURFACE_STYLE_USAGE(.BOTH.,#1579);
#1574=SURFACE_STYLE_USAGE(.BOTH.,#1580);
#1575=SURFACE_STYLE_RENDERING_WITH_PROPERTIES($,#1587,(#1577));
#1576=SURFACE_STYLE_RENDERING_WITH_PROPERTIES($,#1588,(#1578));
#1577=SURFACE_STYLE_TRANSPARENT(0.);
#1578=SURFACE_STYLE_TRANSPARENT(0.);
#1579=SURFACE_SIDE_STYLE('',(#1581,#1575));
#1580=SURFACE_SIDE_STYLE('',(#1582,#1576));
#1581=SURFACE_STYLE_FILL_AREA(#1583);
#1582=SURFACE_STYLE_FILL_AREA(#1584);
#1583=FILL_AREA_STYLE('',(#1585));
#1584=FILL_AREA_STYLE('',(#1586));
#1585=FILL_AREA_STYLE_COLOUR('',#1587);
#1586=FILL_AREA_STYLE_COLOUR('',#1588);
#1587=COLOUR_RGB('',0.796078431372549,0.823529411764706,0.937254901960784);
#1588=COLOUR_RGB('',0.501960784313725,0.501960784313725,0.501960784313725);
ENDSEC;
END-ISO-10303-21;
