ISO-10303-21;
HEADER;
/* Generated by software containing ST-Developer
 * from STEP Tools, Inc. (www.steptools.com) 
 */

FILE_DESCRIPTION(
/* description */ (''),
/* implementation_level */ '2;1');

FILE_NAME(
/* name */ 'stand.stp',
/* time_stamp */ '2025-12-01T09:27:50+05:30',
/* author */ ('Kartik'),
/* organization */ (''),
/* preprocessor_version */ 'ST-DEVELOPER v20.1',
/* originating_system */ 'Autodesk Inventor 2026',
/* authorisation */ '');

FILE_SCHEMA (('AUTOMOTIVE_DESIGN { 1 0 10303 214 3 1 1 }'));
ENDSEC;

DATA;
#10=MECHANICAL_DESIGN_GEOMETRIC_PRESENTATION_REPRESENTATION('',(#300,#301,
#302,#303,#304,#305,#306,#307,#308,#309,#310,#311,#312),#560);
#11=SHAPE_REPRESENTATION_RELATIONSHIP('SRR','None',#566,#12);
#12=ADVANCED_BREP_SHAPE_REPRESENTATION('',(#13),#559);
#13=MANIFOLD_SOLID_BREP('Solid1',#329);
#14=CYLINDRICAL_SURFACE('',#370,0.300000000000001);
#15=CYLINDRICAL_SURFACE('',#371,0.300000000000001);
#16=CYLINDRICAL_SURFACE('',#372,0.249999999999999);
#17=CYLINDRICAL_SURFACE('',#373,0.25);
#18=CYLINDRICAL_SURFACE('',#374,1.3);
#19=CYLINDRICAL_SURFACE('',#375,1.3);
#20=CYLINDRICAL_SURFACE('',#376,1.3);
#21=CYLINDRICAL_SURFACE('',#377,1.3);
#22=FACE_BOUND('',#47,.T.);
#23=FACE_BOUND('',#49,.T.);
#24=FACE_BOUND('',#50,.T.);
#25=FACE_BOUND('',#52,.T.);
#26=FACE_BOUND('',#54,.T.);
#27=FACE_BOUND('',#56,.T.);
#28=FACE_BOUND('',#57,.T.);
#29=FACE_BOUND('',#59,.T.);
#30=FACE_OUTER_BOUND('',#46,.T.);
#31=FACE_OUTER_BOUND('',#48,.T.);
#32=FACE_OUTER_BOUND('',#51,.T.);
#33=FACE_OUTER_BOUND('',#53,.T.);
#34=FACE_OUTER_BOUND('',#55,.T.);
#35=FACE_OUTER_BOUND('',#58,.T.);
#36=FACE_OUTER_BOUND('',#60,.T.);
#37=FACE_OUTER_BOUND('',#61,.T.);
#38=FACE_OUTER_BOUND('',#62,.T.);
#39=FACE_OUTER_BOUND('',#63,.T.);
#40=FACE_OUTER_BOUND('',#64,.T.);
#41=FACE_OUTER_BOUND('',#65,.T.);
#42=FACE_OUTER_BOUND('',#66,.T.);
#43=FACE_OUTER_BOUND('',#67,.T.);
#44=FACE_OUTER_BOUND('',#68,.T.);
#45=FACE_OUTER_BOUND('',#69,.T.);
#46=EDGE_LOOP('',(#208,#209,#210,#211,#212));
#47=EDGE_LOOP('',(#213));
#48=EDGE_LOOP('',(#214,#215,#216,#217));
#49=EDGE_LOOP('',(#218));
#50=EDGE_LOOP('',(#219));
#51=EDGE_LOOP('',(#220,#221,#222,#223,#224));
#52=EDGE_LOOP('',(#225));
#53=EDGE_LOOP('',(#226,#227,#228,#229,#230));
#54=EDGE_LOOP('',(#231));
#55=EDGE_LOOP('',(#232,#233,#234,#235));
#56=EDGE_LOOP('',(#236));
#57=EDGE_LOOP('',(#237));
#58=EDGE_LOOP('',(#238,#239,#240,#241,#242));
#59=EDGE_LOOP('',(#243));
#60=EDGE_LOOP('',(#244,#245,#246,#247,#248,#249,#250,#251));
#61=EDGE_LOOP('',(#252,#253,#254,#255,#256,#257,#258,#259));
#62=EDGE_LOOP('',(#260,#261,#262,#263));
#63=EDGE_LOOP('',(#264,#265,#266,#267));
#64=EDGE_LOOP('',(#268,#269,#270,#271));
#65=EDGE_LOOP('',(#272,#273,#274,#275));
#66=EDGE_LOOP('',(#276,#277,#278,#279));
#67=EDGE_LOOP('',(#280,#281,#282,#283));
#68=EDGE_LOOP('',(#284,#285,#286,#287));
#69=EDGE_LOOP('',(#288,#289,#290,#291));
#70=CIRCLE('',#347,1.3);
#71=CIRCLE('',#348,1.3);
#72=CIRCLE('',#349,0.300000000000001);
#73=CIRCLE('',#351,0.25);
#74=CIRCLE('',#352,0.249999999999999);
#75=CIRCLE('',#354,1.3);
#76=CIRCLE('',#355,1.3);
#77=CIRCLE('',#356,0.300000000000001);
#78=CIRCLE('',#358,1.3);
#79=CIRCLE('',#359,1.3);
#80=CIRCLE('',#360,0.300000000000001);
#81=CIRCLE('',#362,0.25);
#82=CIRCLE('',#363,0.249999999999999);
#83=CIRCLE('',#365,1.3);
#84=CIRCLE('',#366,1.3);
#85=CIRCLE('',#367,0.300000000000001);
#86=LINE('',#474,#112);
#87=LINE('',#480,#113);
#88=LINE('',#481,#114);
#89=LINE('',#486,#115);
#90=LINE('',#488,#116);
#91=LINE('',#489,#117);
#92=LINE('',#496,#118);
#93=LINE('',#501,#119);
#94=LINE('',#511,#120);
#95=LINE('',#513,#121);
#96=LINE('',#514,#122);
#97=LINE('',#519,#123);
#98=LINE('',#521,#124);
#99=LINE('',#522,#125);
#100=LINE('',#533,#126);
#101=LINE('',#534,#127);
#102=LINE('',#538,#128);
#103=LINE('',#539,#129);
#104=LINE('',#541,#130);
#105=LINE('',#542,#131);
#106=LINE('',#544,#132);
#107=LINE('',#546,#133);
#108=LINE('',#548,#134);
#109=LINE('',#550,#135);
#110=LINE('',#552,#136);
#111=LINE('',#555,#137);
#112=VECTOR('',#382,3.7);
#113=VECTOR('',#387,3.7);
#114=VECTOR('',#388,2.5);
#115=VECTOR('',#393,9.2);
#116=VECTOR('',#394,2.5);
#117=VECTOR('',#395,9.2);
#118=VECTOR('',#402,3.7);
#119=VECTOR('',#407,3.7);
#120=VECTOR('',#416,2.7);
#121=VECTOR('',#417,2.5);
#122=VECTOR('',#418,2.7);
#123=VECTOR('',#423,7.2);
#124=VECTOR('',#424,2.5);
#125=VECTOR('',#425,7.2);
#126=VECTOR('',#436,2.7);
#127=VECTOR('',#437,2.7);
#128=VECTOR('',#442,1.);
#129=VECTOR('',#443,1.);
#130=VECTOR('',#446,1.);
#131=VECTOR('',#447,1.);
#132=VECTOR('',#450,0.300000000000001);
#133=VECTOR('',#453,0.300000000000001);
#134=VECTOR('',#456,0.249999999999999);
#135=VECTOR('',#459,0.25);
#136=VECTOR('',#462,1.);
#137=VECTOR('',#467,1.);
#138=VERTEX_POINT('',#472);
#139=VERTEX_POINT('',#473);
#140=VERTEX_POINT('',#475);
#141=VERTEX_POINT('',#477);
#142=VERTEX_POINT('',#479);
#143=VERTEX_POINT('',#482);
#144=VERTEX_POINT('',#485);
#145=VERTEX_POINT('',#487);
#146=VERTEX_POINT('',#490);
#147=VERTEX_POINT('',#492);
#148=VERTEX_POINT('',#495);
#149=VERTEX_POINT('',#497);
#150=VERTEX_POINT('',#499);
#151=VERTEX_POINT('',#502);
#152=VERTEX_POINT('',#505);
#153=VERTEX_POINT('',#506);
#154=VERTEX_POINT('',#508);
#155=VERTEX_POINT('',#510);
#156=VERTEX_POINT('',#512);
#157=VERTEX_POINT('',#515);
#158=VERTEX_POINT('',#518);
#159=VERTEX_POINT('',#520);
#160=VERTEX_POINT('',#523);
#161=VERTEX_POINT('',#525);
#162=VERTEX_POINT('',#528);
#163=VERTEX_POINT('',#529);
#164=VERTEX_POINT('',#531);
#165=VERTEX_POINT('',#535);
#166=EDGE_CURVE('',#138,#139,#86,.T.);
#167=EDGE_CURVE('',#138,#140,#70,.F.);
#168=EDGE_CURVE('',#140,#141,#71,.F.);
#169=EDGE_CURVE('',#141,#142,#87,.T.);
#170=EDGE_CURVE('',#139,#142,#88,.T.);
#171=EDGE_CURVE('',#143,#143,#72,.T.);
#172=EDGE_CURVE('',#142,#144,#89,.T.);
#173=EDGE_CURVE('',#145,#144,#90,.T.);
#174=EDGE_CURVE('',#139,#145,#91,.T.);
#175=EDGE_CURVE('',#146,#146,#73,.T.);
#176=EDGE_CURVE('',#147,#147,#74,.T.);
#177=EDGE_CURVE('',#144,#148,#92,.T.);
#178=EDGE_CURVE('',#148,#149,#75,.F.);
#179=EDGE_CURVE('',#149,#150,#76,.F.);
#180=EDGE_CURVE('',#145,#150,#93,.T.);
#181=EDGE_CURVE('',#151,#151,#77,.T.);
#182=EDGE_CURVE('',#152,#153,#78,.F.);
#183=EDGE_CURVE('',#153,#154,#79,.F.);
#184=EDGE_CURVE('',#154,#155,#94,.T.);
#185=EDGE_CURVE('',#156,#155,#95,.T.);
#186=EDGE_CURVE('',#152,#156,#96,.T.);
#187=EDGE_CURVE('',#157,#157,#80,.T.);
#188=EDGE_CURVE('',#155,#158,#97,.T.);
#189=EDGE_CURVE('',#159,#158,#98,.T.);
#190=EDGE_CURVE('',#156,#159,#99,.T.);
#191=EDGE_CURVE('',#160,#160,#81,.T.);
#192=EDGE_CURVE('',#161,#161,#82,.T.);
#193=EDGE_CURVE('',#162,#163,#83,.F.);
#194=EDGE_CURVE('',#163,#164,#84,.F.);
#195=EDGE_CURVE('',#159,#164,#100,.T.);
#196=EDGE_CURVE('',#158,#162,#101,.T.);
#197=EDGE_CURVE('',#165,#165,#85,.T.);
#198=EDGE_CURVE('',#150,#152,#102,.T.);
#199=EDGE_CURVE('',#164,#138,#103,.T.);
#200=EDGE_CURVE('',#154,#148,#104,.F.);
#201=EDGE_CURVE('',#141,#162,#105,.F.);
#202=EDGE_CURVE('',#143,#165,#106,.T.);
#203=EDGE_CURVE('',#157,#151,#107,.T.);
#204=EDGE_CURVE('',#147,#161,#108,.T.);
#205=EDGE_CURVE('',#146,#160,#109,.T.);
#206=EDGE_CURVE('',#153,#149,#110,.F.);
#207=EDGE_CURVE('',#163,#140,#111,.F.);
#208=ORIENTED_EDGE('',*,*,#166,.F.);
#209=ORIENTED_EDGE('',*,*,#167,.T.);
#210=ORIENTED_EDGE('',*,*,#168,.T.);
#211=ORIENTED_EDGE('',*,*,#169,.T.);
#212=ORIENTED_EDGE('',*,*,#170,.F.);
#213=ORIENTED_EDGE('',*,*,#171,.T.);
#214=ORIENTED_EDGE('',*,*,#172,.T.);
#215=ORIENTED_EDGE('',*,*,#173,.F.);
#216=ORIENTED_EDGE('',*,*,#174,.F.);
#217=ORIENTED_EDGE('',*,*,#170,.T.);
#218=ORIENTED_EDGE('',*,*,#175,.T.);
#219=ORIENTED_EDGE('',*,*,#176,.T.);
#220=ORIENTED_EDGE('',*,*,#177,.T.);
#221=ORIENTED_EDGE('',*,*,#178,.T.);
#222=ORIENTED_EDGE('',*,*,#179,.T.);
#223=ORIENTED_EDGE('',*,*,#180,.F.);
#224=ORIENTED_EDGE('',*,*,#173,.T.);
#225=ORIENTED_EDGE('',*,*,#181,.F.);
#226=ORIENTED_EDGE('',*,*,#182,.T.);
#227=ORIENTED_EDGE('',*,*,#183,.T.);
#228=ORIENTED_EDGE('',*,*,#184,.T.);
#229=ORIENTED_EDGE('',*,*,#185,.F.);
#230=ORIENTED_EDGE('',*,*,#186,.F.);
#231=ORIENTED_EDGE('',*,*,#187,.T.);
#232=ORIENTED_EDGE('',*,*,#188,.T.);
#233=ORIENTED_EDGE('',*,*,#189,.F.);
#234=ORIENTED_EDGE('',*,*,#190,.F.);
#235=ORIENTED_EDGE('',*,*,#185,.T.);
#236=ORIENTED_EDGE('',*,*,#191,.F.);
#237=ORIENTED_EDGE('',*,*,#192,.F.);
#238=ORIENTED_EDGE('',*,*,#193,.T.);
#239=ORIENTED_EDGE('',*,*,#194,.T.);
#240=ORIENTED_EDGE('',*,*,#195,.F.);
#241=ORIENTED_EDGE('',*,*,#189,.T.);
#242=ORIENTED_EDGE('',*,*,#196,.T.);
#243=ORIENTED_EDGE('',*,*,#197,.T.);
#244=ORIENTED_EDGE('',*,*,#180,.T.);
#245=ORIENTED_EDGE('',*,*,#198,.T.);
#246=ORIENTED_EDGE('',*,*,#186,.T.);
#247=ORIENTED_EDGE('',*,*,#190,.T.);
#248=ORIENTED_EDGE('',*,*,#195,.T.);
#249=ORIENTED_EDGE('',*,*,#199,.T.);
#250=ORIENTED_EDGE('',*,*,#166,.T.);
#251=ORIENTED_EDGE('',*,*,#174,.T.);
#252=ORIENTED_EDGE('',*,*,#184,.F.);
#253=ORIENTED_EDGE('',*,*,#200,.T.);
#254=ORIENTED_EDGE('',*,*,#177,.F.);
#255=ORIENTED_EDGE('',*,*,#172,.F.);
#256=ORIENTED_EDGE('',*,*,#169,.F.);
#257=ORIENTED_EDGE('',*,*,#201,.T.);
#258=ORIENTED_EDGE('',*,*,#196,.F.);
#259=ORIENTED_EDGE('',*,*,#188,.F.);
#260=ORIENTED_EDGE('',*,*,#171,.F.);
#261=ORIENTED_EDGE('',*,*,#202,.T.);
#262=ORIENTED_EDGE('',*,*,#197,.F.);
#263=ORIENTED_EDGE('',*,*,#202,.F.);
#264=ORIENTED_EDGE('',*,*,#187,.F.);
#265=ORIENTED_EDGE('',*,*,#203,.T.);
#266=ORIENTED_EDGE('',*,*,#181,.T.);
#267=ORIENTED_EDGE('',*,*,#203,.F.);
#268=ORIENTED_EDGE('',*,*,#176,.F.);
#269=ORIENTED_EDGE('',*,*,#204,.T.);
#270=ORIENTED_EDGE('',*,*,#192,.T.);
#271=ORIENTED_EDGE('',*,*,#204,.F.);
#272=ORIENTED_EDGE('',*,*,#175,.F.);
#273=ORIENTED_EDGE('',*,*,#205,.T.);
#274=ORIENTED_EDGE('',*,*,#191,.T.);
#275=ORIENTED_EDGE('',*,*,#205,.F.);
#276=ORIENTED_EDGE('',*,*,#198,.F.);
#277=ORIENTED_EDGE('',*,*,#179,.F.);
#278=ORIENTED_EDGE('',*,*,#206,.F.);
#279=ORIENTED_EDGE('',*,*,#182,.F.);
#280=ORIENTED_EDGE('',*,*,#178,.F.);
#281=ORIENTED_EDGE('',*,*,#200,.F.);
#282=ORIENTED_EDGE('',*,*,#183,.F.);
#283=ORIENTED_EDGE('',*,*,#206,.T.);
#284=ORIENTED_EDGE('',*,*,#207,.F.);
#285=ORIENTED_EDGE('',*,*,#193,.F.);
#286=ORIENTED_EDGE('',*,*,#201,.F.);
#287=ORIENTED_EDGE('',*,*,#168,.F.);
#288=ORIENTED_EDGE('',*,*,#194,.F.);
#289=ORIENTED_EDGE('',*,*,#207,.T.);
#290=ORIENTED_EDGE('',*,*,#167,.F.);
#291=ORIENTED_EDGE('',*,*,#199,.F.);
#292=PLANE('',#346);
#293=PLANE('',#350);
#294=PLANE('',#353);
#295=PLANE('',#357);
#296=PLANE('',#361);
#297=PLANE('',#364);
#298=PLANE('',#368);
#299=PLANE('',#369);
#300=STYLED_ITEM('',(#576),#313);
#301=STYLED_ITEM('',(#576),#314);
#302=STYLED_ITEM('',(#576),#315);
#303=STYLED_ITEM('',(#576),#316);
#304=STYLED_ITEM('',(#576),#317);
#305=STYLED_ITEM('',(#576),#318);
#306=STYLED_ITEM('',(#576),#319);
#307=STYLED_ITEM('',(#576),#320);
#308=STYLED_ITEM('',(#576),#325);
#309=STYLED_ITEM('',(#576),#326);
#310=STYLED_ITEM('',(#576),#327);
#311=STYLED_ITEM('',(#576),#328);
#312=STYLED_ITEM('',(#575),#13);
#313=ADVANCED_FACE('',(#30,#22),#292,.F.);
#314=ADVANCED_FACE('',(#31,#23,#24),#293,.F.);
#315=ADVANCED_FACE('',(#32,#25),#294,.F.);
#316=ADVANCED_FACE('',(#33,#26),#295,.F.);
#317=ADVANCED_FACE('',(#34,#27,#28),#296,.F.);
#318=ADVANCED_FACE('',(#35,#29),#297,.F.);
#319=ADVANCED_FACE('',(#36),#298,.F.);
#320=ADVANCED_FACE('',(#37),#299,.T.);
#321=ADVANCED_FACE('',(#38),#14,.F.);
#322=ADVANCED_FACE('',(#39),#15,.F.);
#323=ADVANCED_FACE('',(#40),#16,.F.);
#324=ADVANCED_FACE('',(#41),#17,.F.);
#325=ADVANCED_FACE('',(#42),#18,.T.);
#326=ADVANCED_FACE('',(#43),#19,.T.);
#327=ADVANCED_FACE('',(#44),#20,.T.);
#328=ADVANCED_FACE('',(#45),#21,.T.);
#329=CLOSED_SHELL('',(#313,#314,#315,#316,#317,#318,#319,#320,#321,#322,
#323,#324,#325,#326,#327,#328));
#330=DERIVED_UNIT_ELEMENT(#333,1.);
#331=DERIVED_UNIT_ELEMENT(#561,-3.);
#332=DIMENSIONAL_EXPONENTS(0.,1.,0.,0.,0.,0.,0.);
#333=(
CONVERSION_BASED_UNIT('gram',#335)
MASS_UNIT()
NAMED_UNIT(#332)
);
#334=(
MASS_UNIT()
NAMED_UNIT(*)
SI_UNIT(.KILO.,.GRAM.)
);
#335=MASS_MEASURE_WITH_UNIT(MASS_MEASURE(0.001),#334);
#336=DERIVED_UNIT((#330,#331));
#337=MEASURE_REPRESENTATION_ITEM('density measure',
POSITIVE_RATIO_MEASURE(1.),#336);
#338=PROPERTY_DEFINITION_REPRESENTATION(#343,#340);
#339=PROPERTY_DEFINITION_REPRESENTATION(#344,#341);
#340=REPRESENTATION('material name',(#342),#559);
#341=REPRESENTATION('density',(#337),#559);
#342=DESCRIPTIVE_REPRESENTATION_ITEM('Generic','Generic');
#343=PROPERTY_DEFINITION('material property','material name',#568);
#344=PROPERTY_DEFINITION('material property','density of part',#568);
#345=AXIS2_PLACEMENT_3D('',#470,#378,#379);
#346=AXIS2_PLACEMENT_3D('',#471,#380,#381);
#347=AXIS2_PLACEMENT_3D('',#476,#383,#384);
#348=AXIS2_PLACEMENT_3D('',#478,#385,#386);
#349=AXIS2_PLACEMENT_3D('',#483,#389,#390);
#350=AXIS2_PLACEMENT_3D('',#484,#391,#392);
#351=AXIS2_PLACEMENT_3D('',#491,#396,#397);
#352=AXIS2_PLACEMENT_3D('',#493,#398,#399);
#353=AXIS2_PLACEMENT_3D('',#494,#400,#401);
#354=AXIS2_PLACEMENT_3D('',#498,#403,#404);
#355=AXIS2_PLACEMENT_3D('',#500,#405,#406);
#356=AXIS2_PLACEMENT_3D('',#503,#408,#409);
#357=AXIS2_PLACEMENT_3D('',#504,#410,#411);
#358=AXIS2_PLACEMENT_3D('',#507,#412,#413);
#359=AXIS2_PLACEMENT_3D('',#509,#414,#415);
#360=AXIS2_PLACEMENT_3D('',#516,#419,#420);
#361=AXIS2_PLACEMENT_3D('',#517,#421,#422);
#362=AXIS2_PLACEMENT_3D('',#524,#426,#427);
#363=AXIS2_PLACEMENT_3D('',#526,#428,#429);
#364=AXIS2_PLACEMENT_3D('',#527,#430,#431);
#365=AXIS2_PLACEMENT_3D('',#530,#432,#433);
#366=AXIS2_PLACEMENT_3D('',#532,#434,#435);
#367=AXIS2_PLACEMENT_3D('',#536,#438,#439);
#368=AXIS2_PLACEMENT_3D('',#537,#440,#441);
#369=AXIS2_PLACEMENT_3D('',#540,#444,#445);
#370=AXIS2_PLACEMENT_3D('',#543,#448,#449);
#371=AXIS2_PLACEMENT_3D('',#545,#451,#452);
#372=AXIS2_PLACEMENT_3D('',#547,#454,#455);
#373=AXIS2_PLACEMENT_3D('',#549,#457,#458);
#374=AXIS2_PLACEMENT_3D('',#551,#460,#461);
#375=AXIS2_PLACEMENT_3D('',#553,#463,#464);
#376=AXIS2_PLACEMENT_3D('',#554,#465,#466);
#377=AXIS2_PLACEMENT_3D('',#556,#468,#469);
#378=DIRECTION('axis',(0.,0.,1.));
#379=DIRECTION('refdir',(1.,0.,0.));
#380=DIRECTION('center_axis',(1.,2.77555756156289E-16,0.));
#381=DIRECTION('ref_axis',(0.,0.,-1.));
#382=DIRECTION('',(2.77555756156289E-16,-1.,0.));
#383=DIRECTION('center_axis',(1.,2.77555756156289E-16,0.));
#384=DIRECTION('ref_axis',(-2.77555756156289E-16,1.,0.));
#385=DIRECTION('center_axis',(1.,2.77555756156289E-16,0.));
#386=DIRECTION('ref_axis',(-2.77555756156289E-16,1.,0.));
#387=DIRECTION('',(2.77555756156289E-16,-1.,0.));
#388=DIRECTION('',(0.,0.,-1.));
#389=DIRECTION('center_axis',(1.,0.,0.));
#390=DIRECTION('ref_axis',(0.,0.,-1.));
#391=DIRECTION('center_axis',(6.52737512447654E-18,1.,0.));
#392=DIRECTION('ref_axis',(0.,0.,1.));
#393=DIRECTION('',(1.,-6.52737512447654E-18,0.));
#394=DIRECTION('',(0.,0.,-1.));
#395=DIRECTION('',(1.,-6.52737512447654E-18,0.));
#396=DIRECTION('center_axis',(6.52737512447654E-18,1.,0.));
#397=DIRECTION('ref_axis',(-1.,6.52737512447654E-18,0.));
#398=DIRECTION('center_axis',(6.52737512447654E-18,1.,0.));
#399=DIRECTION('ref_axis',(-1.,6.52737512447654E-18,0.));
#400=DIRECTION('center_axis',(-1.,0.,0.));
#401=DIRECTION('ref_axis',(0.,0.,1.));
#402=DIRECTION('',(0.,1.,0.));
#403=DIRECTION('center_axis',(-1.,0.,0.));
#404=DIRECTION('ref_axis',(0.,0.,1.));
#405=DIRECTION('center_axis',(-1.,0.,0.));
#406=DIRECTION('ref_axis',(0.,0.,1.));
#407=DIRECTION('',(0.,1.,0.));
#408=DIRECTION('center_axis',(1.,0.,0.));
#409=DIRECTION('ref_axis',(0.,0.,-1.));
#410=DIRECTION('center_axis',(1.,0.,0.));
#411=DIRECTION('ref_axis',(0.,0.,-1.));
#412=DIRECTION('center_axis',(1.,0.,0.));
#413=DIRECTION('ref_axis',(0.,0.,-1.));
#414=DIRECTION('center_axis',(1.,0.,0.));
#415=DIRECTION('ref_axis',(0.,0.,-1.));
#416=DIRECTION('',(0.,-1.,0.));
#417=DIRECTION('',(0.,0.,-1.));
#418=DIRECTION('',(0.,-1.,0.));
#419=DIRECTION('center_axis',(1.,0.,0.));
#420=DIRECTION('ref_axis',(0.,0.,-1.));
#421=DIRECTION('center_axis',(0.,-1.,0.));
#422=DIRECTION('ref_axis',(0.,0.,-1.));
#423=DIRECTION('',(-1.,0.,0.));
#424=DIRECTION('',(0.,0.,-1.));
#425=DIRECTION('',(-1.,0.,0.));
#426=DIRECTION('center_axis',(0.,1.,0.));
#427=DIRECTION('ref_axis',(0.,0.,1.));
#428=DIRECTION('center_axis',(0.,1.,0.));
#429=DIRECTION('ref_axis',(0.,0.,1.));
#430=DIRECTION('center_axis',(-1.,-3.03576608295941E-16,0.));
#431=DIRECTION('ref_axis',(0.,0.,1.));
#432=DIRECTION('center_axis',(-1.,-3.03576608295941E-16,0.));
#433=DIRECTION('ref_axis',(3.03576608295941E-16,-1.,0.));
#434=DIRECTION('center_axis',(-1.,-3.03576608295941E-16,0.));
#435=DIRECTION('ref_axis',(3.03576608295941E-16,-1.,0.));
#436=DIRECTION('',(-3.28954970259306E-16,1.,0.));
#437=DIRECTION('',(-3.28954970259306E-16,1.,0.));
#438=DIRECTION('center_axis',(-1.,-3.03576608295941E-16,0.));
#439=DIRECTION('ref_axis',(3.03576608295941E-16,-1.,0.));
#440=DIRECTION('center_axis',(0.,0.,-1.));
#441=DIRECTION('ref_axis',(-1.,0.,0.));
#442=DIRECTION('',(-1.,-8.88178419700125E-16,0.));
#443=DIRECTION('',(-1.,0.,0.));
#444=DIRECTION('center_axis',(0.,0.,-1.));
#445=DIRECTION('ref_axis',(-1.,0.,0.));
#446=DIRECTION('',(-1.,-8.88178419700125E-16,0.));
#447=DIRECTION('',(-1.,0.,0.));
#448=DIRECTION('center_axis',(1.,0.,0.));
#449=DIRECTION('ref_axis',(0.,0.,-1.));
#450=DIRECTION('',(1.,0.,0.));
#451=DIRECTION('center_axis',(1.,0.,0.));
#452=DIRECTION('ref_axis',(0.,0.,-1.));
#453=DIRECTION('',(1.,0.,0.));
#454=DIRECTION('center_axis',(0.,1.,0.));
#455=DIRECTION('ref_axis',(0.,0.,1.));
#456=DIRECTION('',(0.,1.,0.));
#457=DIRECTION('center_axis',(0.,1.,0.));
#458=DIRECTION('ref_axis',(0.,0.,1.));
#459=DIRECTION('',(0.,1.,0.));
#460=DIRECTION('center_axis',(-1.,-6.93889390390723E-16,0.));
#461=DIRECTION('ref_axis',(6.93889390390723E-16,-1.,0.));
#462=DIRECTION('',(-1.,0.,0.));
#463=DIRECTION('center_axis',(1.,6.93889390390723E-16,0.));
#464=DIRECTION('ref_axis',(-6.93889390390723E-16,1.,0.));
#465=DIRECTION('center_axis',(1.,0.,0.));
#466=DIRECTION('ref_axis',(0.,0.,-1.));
#467=DIRECTION('',(1.,0.,0.));
#468=DIRECTION('center_axis',(-1.,0.,0.));
#469=DIRECTION('ref_axis',(0.,0.,1.));
#470=CARTESIAN_POINT('',(0.,0.,0.));
#471=CARTESIAN_POINT('Origin',(0.,0.,2.5));
#472=CARTESIAN_POINT('',(-1.02695629777827E-15,3.7,2.5));
#473=CARTESIAN_POINT('',(0.,0.,2.5));
#474=CARTESIAN_POINT('',(-1.02695629777827E-15,3.7,2.5));
#475=CARTESIAN_POINT('',(-1.38751180147519E-15,4.99903810567666,1.25));
#476=CARTESIAN_POINT('Origin',(-1.02695629777827E-15,3.7,1.2));
#477=CARTESIAN_POINT('',(-1.02695629777827E-15,3.7,0.));
#478=CARTESIAN_POINT('Origin',(-1.02695629777827E-15,3.7,1.3));
#479=CARTESIAN_POINT('',(0.,0.,0.));
#480=CARTESIAN_POINT('',(-1.02695629777827E-15,3.7,0.));
#481=CARTESIAN_POINT('',(0.,0.,2.5));
#482=CARTESIAN_POINT('',(-1.38777878078145E-15,4.,1.55));
#483=CARTESIAN_POINT('Origin',(-1.38777878078145E-15,4.,1.25));
#484=CARTESIAN_POINT('Origin',(9.2,-6.00518511451842E-17,2.5));
#485=CARTESIAN_POINT('',(9.2,-6.00518511451842E-17,0.));
#486=CARTESIAN_POINT('',(0.,0.,0.));
#487=CARTESIAN_POINT('',(9.2,-6.00518511451842E-17,2.5));
#488=CARTESIAN_POINT('',(9.2,-6.00518511451842E-17,2.5));
#489=CARTESIAN_POINT('',(0.,0.,2.5));
#490=CARTESIAN_POINT('',(2.,0.,1.));
#491=CARTESIAN_POINT('Origin',(2.,0.,1.25));
#492=CARTESIAN_POINT('',(7.2,0.,1.));
#493=CARTESIAN_POINT('Origin',(7.2,0.,1.25));
#494=CARTESIAN_POINT('Origin',(9.2,5.,2.5));
#495=CARTESIAN_POINT('',(9.2,3.7,0.));
#496=CARTESIAN_POINT('',(9.2,0.,0.));
#497=CARTESIAN_POINT('',(9.2,4.99903810567666,1.25));
#498=CARTESIAN_POINT('Origin',(9.2,3.7,1.3));
#499=CARTESIAN_POINT('',(9.2,3.7,2.5));
#500=CARTESIAN_POINT('Origin',(9.2,3.7,1.2));
#501=CARTESIAN_POINT('',(9.2,0.,2.5));
#502=CARTESIAN_POINT('',(9.2,4.,1.55));
#503=CARTESIAN_POINT('Origin',(9.2,4.,1.25));
#504=CARTESIAN_POINT('Origin',(8.2,0.999999999999999,2.5));
#505=CARTESIAN_POINT('',(8.2,3.7,2.5));
#506=CARTESIAN_POINT('',(8.2,4.99903810567666,1.25));
#507=CARTESIAN_POINT('Origin',(8.2,3.7,1.2));
#508=CARTESIAN_POINT('',(8.2,3.7,0.));
#509=CARTESIAN_POINT('Origin',(8.2,3.7,1.3));
#510=CARTESIAN_POINT('',(8.2,0.999999999999999,0.));
#511=CARTESIAN_POINT('',(8.2,3.7,0.));
#512=CARTESIAN_POINT('',(8.2,0.999999999999999,2.5));
#513=CARTESIAN_POINT('',(8.2,0.999999999999999,2.5));
#514=CARTESIAN_POINT('',(8.2,3.7,2.5));
#515=CARTESIAN_POINT('',(8.2,4.,1.55));
#516=CARTESIAN_POINT('Origin',(8.2,4.,1.25));
#517=CARTESIAN_POINT('Origin',(1.,0.999999999999999,2.5));
#518=CARTESIAN_POINT('',(1.,0.999999999999999,0.));
#519=CARTESIAN_POINT('',(8.2,0.999999999999999,0.));
#520=CARTESIAN_POINT('',(1.,0.999999999999999,2.5));
#521=CARTESIAN_POINT('',(1.,0.999999999999999,2.5));
#522=CARTESIAN_POINT('',(8.2,0.999999999999999,2.5));
#523=CARTESIAN_POINT('',(2.,0.999999999999999,1.));
#524=CARTESIAN_POINT('Origin',(2.,0.999999999999999,1.25));
#525=CARTESIAN_POINT('',(7.2,0.999999999999999,1.));
#526=CARTESIAN_POINT('Origin',(7.2,0.999999999999999,1.25));
#527=CARTESIAN_POINT('Origin',(0.999999999999999,5.,2.5));
#528=CARTESIAN_POINT('',(0.999999999999999,3.7,0.));
#529=CARTESIAN_POINT('',(0.999999999999999,4.99903810567666,1.25));
#530=CARTESIAN_POINT('Origin',(0.999999999999999,3.7,1.3));
#531=CARTESIAN_POINT('',(0.999999999999999,3.7,2.5));
#532=CARTESIAN_POINT('Origin',(0.999999999999999,3.7,1.2));
#533=CARTESIAN_POINT('',(1.,0.999999999999999,2.5));
#534=CARTESIAN_POINT('',(1.,0.999999999999999,0.));
#535=CARTESIAN_POINT('',(0.999999999999999,4.,1.55));
#536=CARTESIAN_POINT('Origin',(0.999999999999999,4.,1.25));
#537=CARTESIAN_POINT('Origin',(0.,0.,2.5));
#538=CARTESIAN_POINT('',(9.2,3.7,2.5));
#539=CARTESIAN_POINT('',(0.999999999999999,3.7,2.5));
#540=CARTESIAN_POINT('Origin',(0.,0.,0.));
#541=CARTESIAN_POINT('',(9.2,3.7,0.));
#542=CARTESIAN_POINT('',(0.999999999999999,3.7,0.));
#543=CARTESIAN_POINT('Origin',(-1.38777878078145E-15,4.,1.25));
#544=CARTESIAN_POINT('',(-1.38777878078145E-15,4.,1.55));
#545=CARTESIAN_POINT('Origin',(-1.38777878078145E-15,4.,1.25));
#546=CARTESIAN_POINT('',(-1.38777878078145E-15,4.,1.55));
#547=CARTESIAN_POINT('Origin',(7.2,-1.,1.25));
#548=CARTESIAN_POINT('',(7.2,-1.,1.));
#549=CARTESIAN_POINT('Origin',(2.,-1.,1.25));
#550=CARTESIAN_POINT('',(2.,-1.,1.));
#551=CARTESIAN_POINT('Origin',(-2.56739074444567E-15,3.69999999999999,1.2));
#552=CARTESIAN_POINT('',(9.2,4.99903810567666,1.25000000000001));
#553=CARTESIAN_POINT('Origin',(8.2,3.7,1.3));
#554=CARTESIAN_POINT('Origin',(-1.38777878078145E-15,3.7,1.3));
#555=CARTESIAN_POINT('',(-1.38777878078145E-15,4.99903810567666,1.25));
#556=CARTESIAN_POINT('Origin',(0.,3.7,1.2));
#557=UNCERTAINTY_MEASURE_WITH_UNIT(LENGTH_MEASURE(0.001),#561,
'DISTANCE_ACCURACY_VALUE',
'Maximum model space distance between geometric entities at asserted c
onnectivities');
#558=UNCERTAINTY_MEASURE_WITH_UNIT(LENGTH_MEASURE(0.001),#561,
'DISTANCE_ACCURACY_VALUE',
'Maximum model space distance between geometric entities at asserted c
onnectivities');
#559=(
GEOMETRIC_REPRESENTATION_CONTEXT(3)
GLOBAL_UNCERTAINTY_ASSIGNED_CONTEXT((#557))
GLOBAL_UNIT_ASSIGNED_CONTEXT((#561,#562,#563))
REPRESENTATION_CONTEXT('','3D')
);
#560=(
GEOMETRIC_REPRESENTATION_CONTEXT(3)
GLOBAL_UNCERTAINTY_ASSIGNED_CONTEXT((#558))
GLOBAL_UNIT_ASSIGNED_CONTEXT((#561,#562,#563))
REPRESENTATION_CONTEXT('','3D')
);
#561=(
LENGTH_UNIT()
NAMED_UNIT(*)
SI_UNIT(.CENTI.,.METRE.)
);
#562=(
NAMED_UNIT(*)
PLANE_ANGLE_UNIT()
SI_UNIT($,.RADIAN.)
);
#563=(
NAMED_UNIT(*)
SI_UNIT($,.STERADIAN.)
SOLID_ANGLE_UNIT()
);
#564=SHAPE_DEFINITION_REPRESENTATION(#565,#566);
#565=PRODUCT_DEFINITION_SHAPE('',$,#568);
#566=SHAPE_REPRESENTATION('',(#345),#559);
#567=PRODUCT_DEFINITION_CONTEXT('part definition',#572,'design');
#568=PRODUCT_DEFINITION('stand','stand',#569,#567);
#569=PRODUCT_DEFINITION_FORMATION('',$,#574);
#570=PRODUCT_RELATED_PRODUCT_CATEGORY('stand','stand',(#574));
#571=APPLICATION_PROTOCOL_DEFINITION('international standard',
'automotive_design',2009,#572);
#572=APPLICATION_CONTEXT(
'Core Data for Automotive Mechanical Design Process');
#573=PRODUCT_CONTEXT('part definition',#572,'mechanical');
#574=PRODUCT('stand','stand',$,(#573));
#575=PRESENTATION_STYLE_ASSIGNMENT((#577));
#576=PRESENTATION_STYLE_ASSIGNMENT((#578));
#577=SURFACE_STYLE_USAGE(.BOTH.,#583);
#578=SURFACE_STYLE_USAGE(.BOTH.,#584);
#579=SURFACE_STYLE_RENDERING_WITH_PROPERTIES($,#591,(#581));
#580=SURFACE_STYLE_RENDERING_WITH_PROPERTIES($,#592,(#582));
#581=SURFACE_STYLE_TRANSPARENT(0.);
#582=SURFACE_STYLE_TRANSPARENT(0.);
#583=SURFACE_SIDE_STYLE('',(#585,#579));
#584=SURFACE_SIDE_STYLE('',(#586,#580));
#585=SURFACE_STYLE_FILL_AREA(#587);
#586=SURFACE_STYLE_FILL_AREA(#588);
#587=FILL_AREA_STYLE('',(#589));
#588=FILL_AREA_STYLE('',(#590));
#589=FILL_AREA_STYLE_COLOUR('',#591);
#590=FILL_AREA_STYLE_COLOUR('',#592);
#591=COLOUR_RGB('',0.752941176470588,0.752941176470588,0.752941176470588);
#592=COLOUR_RGB('',0.501960784313725,0.501960784313725,0.501960784313725);
ENDSEC;
END-ISO-10303-21;
