ISO-10303-21;
HEADER;
/* Generated by software containing ST-Developer
 * from STEP Tools, Inc. (www.steptools.com) 
 */

FILE_DESCRIPTION(
/* description */ (''),
/* implementation_level */ '2;1');

FILE_NAME(
/* name */ 'Bottom_Enclosure_1_v2.stp',
/* time_stamp */ '2026-01-12T19:09:03+05:30',
/* author */ ('Kartik'),
/* organization */ (''),
/* preprocessor_version */ 'ST-DEVELOPER v20.1',
/* originating_system */ 'Autodesk Inventor 2026',
/* authorisation */ '');

FILE_SCHEMA (('AUTOMOTIVE_DESIGN { 1 0 10303 214 3 1 1 }'));
ENDSEC;

DATA;
#10=MECHANICAL_DESIGN_GEOMETRIC_PRESENTATION_REPRESENTATION('',(#13),#986);
#11=SHAPE_REPRESENTATION_RELATIONSHIP('SRR','None',#993,#12);
#12=ADVANCED_BREP_SHAPE_REPRESENTATION('',(#14),#985);
#13=STYLED_ITEM('',(#1002),#14);
#14=MANIFOLD_SOLID_BREP('Solid1',#497);
#15=FACE_BOUND('',#93,.T.);
#16=FACE_BOUND('',#94,.T.);
#17=FACE_BOUND('',#101,.T.);
#18=FACE_BOUND('',#102,.T.);
#19=FACE_BOUND('',#105,.T.);
#20=FACE_BOUND('',#108,.T.);
#21=CONICAL_SURFACE('',#535,227.071067811865,0.785398163397448);
#22=CONICAL_SURFACE('',#548,224.071067811865,0.785398163397449);
#23=(
BOUNDED_CURVE()
B_SPLINE_CURVE(2,(#882,#883,#884),.UNSPECIFIED.,.F.,.F.)
B_SPLINE_CURVE_WITH_KNOTS((3,3),(0.,2.05189573627329),.UNSPECIFIED.)
CURVE()
GEOMETRIC_REPRESENTATION_ITEM()
RATIONAL_B_SPLINE_CURVE((1.,1.00053626767431,1.))
REPRESENTATION_ITEM('')
);
#24=(
BOUNDED_CURVE()
B_SPLINE_CURVE(2,(#888,#889,#890),.UNSPECIFIED.,.F.,.F.)
B_SPLINE_CURVE_WITH_KNOTS((3,3),(-2.05189573627329,0.),.UNSPECIFIED.)
CURVE()
GEOMETRIC_REPRESENTATION_ITEM()
RATIONAL_B_SPLINE_CURVE((1.,1.00053626767431,1.))
REPRESENTATION_ITEM('')
);
#25=(
BOUNDED_CURVE()
B_SPLINE_CURVE(2,(#930,#931,#932),.UNSPECIFIED.,.F.,.F.)
B_SPLINE_CURVE_WITH_KNOTS((3,3),(0.,2.05342787321013),.UNSPECIFIED.)
CURVE()
GEOMETRIC_REPRESENTATION_ITEM()
RATIONAL_B_SPLINE_CURVE((1.,1.00055230400972,1.))
REPRESENTATION_ITEM('')
);
#26=(
BOUNDED_SURFACE()
B_SPLINE_SURFACE(2,1,((#874,#875),(#876,#877),(#878,#879)),
 .UNSPECIFIED.,.F.,.F.,.F.)
B_SPLINE_SURFACE_WITH_KNOTS((3,3),(2,2),(-2.05189573627329,0.),(0.,0.199999999999999),
 .UNSPECIFIED.)
GEOMETRIC_REPRESENTATION_ITEM()
RATIONAL_B_SPLINE_SURFACE(((1.,1.),(1.00053626767431,1.00053626767431),
(1.,1.)))
REPRESENTATION_ITEM('')
SURFACE()
);
#27=CIRCLE('',#524,212.);
#28=CIRCLE('',#525,212.);
#29=CIRCLE('',#528,205.);
#30=CIRCLE('',#529,205.);
#31=CIRCLE('',#536,234.142135623731);
#32=CIRCLE('',#537,220.);
#33=CIRCLE('',#539,234.142135623731);
#34=CIRCLE('',#541,196.142135623731);
#35=CIRCLE('',#543,196.142135623731);
#36=CIRCLE('',#545,231.142135623731);
#37=CIRCLE('',#547,231.142135623731);
#38=CIRCLE('',#549,217.);
#39=CIRCLE('',#551,217.);
#40=CIRCLE('',#553,197.);
#41=CIRCLE('',#555,197.);
#42=CIRCLE('',#557,220.);
#43=PLANE('',#522);
#44=PLANE('',#526);
#45=PLANE('',#530);
#46=PLANE('',#531);
#47=PLANE('',#532);
#48=PLANE('',#533);
#49=PLANE('',#534);
#50=PLANE('',#540);
#51=PLANE('',#544);
#52=PLANE('',#552);
#53=PLANE('',#556);
#54=PLANE('',#559);
#55=FACE_OUTER_BOUND('',#80,.T.);
#56=FACE_OUTER_BOUND('',#81,.T.);
#57=FACE_OUTER_BOUND('',#82,.T.);
#58=FACE_OUTER_BOUND('',#83,.T.);
#59=FACE_OUTER_BOUND('',#84,.T.);
#60=FACE_OUTER_BOUND('',#85,.T.);
#61=FACE_OUTER_BOUND('',#86,.T.);
#62=FACE_OUTER_BOUND('',#87,.T.);
#63=FACE_OUTER_BOUND('',#88,.T.);
#64=FACE_OUTER_BOUND('',#89,.T.);
#65=FACE_OUTER_BOUND('',#90,.T.);
#66=FACE_OUTER_BOUND('',#91,.T.);
#67=FACE_OUTER_BOUND('',#92,.T.);
#68=FACE_OUTER_BOUND('',#95,.T.);
#69=FACE_OUTER_BOUND('',#96,.T.);
#70=FACE_OUTER_BOUND('',#97,.T.);
#71=FACE_OUTER_BOUND('',#98,.T.);
#72=FACE_OUTER_BOUND('',#99,.T.);
#73=FACE_OUTER_BOUND('',#100,.T.);
#74=FACE_OUTER_BOUND('',#103,.T.);
#75=FACE_OUTER_BOUND('',#104,.T.);
#76=FACE_OUTER_BOUND('',#106,.T.);
#77=FACE_OUTER_BOUND('',#107,.T.);
#78=FACE_OUTER_BOUND('',#109,.T.);
#79=FACE_OUTER_BOUND('',#110,.T.);
#80=EDGE_LOOP('',(#322,#323,#324,#325,#326,#327));
#81=EDGE_LOOP('',(#328,#329,#330,#331,#332,#333));
#82=EDGE_LOOP('',(#334,#335,#336,#337));
#83=EDGE_LOOP('',(#338,#339,#340,#341));
#84=EDGE_LOOP('',(#342,#343,#344,#345));
#85=EDGE_LOOP('',(#346,#347,#348,#349));
#86=EDGE_LOOP('',(#350,#351,#352,#353));
#87=EDGE_LOOP('',(#354,#355,#356,#357));
#88=EDGE_LOOP('',(#358,#359,#360,#361,#362));
#89=EDGE_LOOP('',(#363,#364,#365,#366));
#90=EDGE_LOOP('',(#367,#368,#369,#370,#371,#372));
#91=EDGE_LOOP('',(#373,#374,#375,#376,#377,#378,#379,#380));
#92=EDGE_LOOP('',(#381,#382,#383,#384));
#93=EDGE_LOOP('',(#385,#386));
#94=EDGE_LOOP('',(#387,#388));
#95=EDGE_LOOP('',(#389,#390,#391,#392));
#96=EDGE_LOOP('',(#393,#394,#395,#396,#397,#398));
#97=EDGE_LOOP('',(#399,#400,#401,#402));
#98=EDGE_LOOP('',(#403,#404,#405,#406));
#99=EDGE_LOOP('',(#407,#408,#409,#410));
#100=EDGE_LOOP('',(#411,#412,#413,#414));
#101=EDGE_LOOP('',(#415,#416));
#102=EDGE_LOOP('',(#417,#418));
#103=EDGE_LOOP('',(#419,#420,#421,#422));
#104=EDGE_LOOP('',(#423,#424,#425,#426));
#105=EDGE_LOOP('',(#427,#428,#429,#430));
#106=EDGE_LOOP('',(#431,#432,#433,#434));
#107=EDGE_LOOP('',(#435,#436,#437,#438,#439,#440,#441));
#108=EDGE_LOOP('',(#442,#443,#444,#445));
#109=EDGE_LOOP('',(#446,#447,#448,#449));
#110=EDGE_LOOP('',(#450,#451,#452,#453,#454,#455,#456,#457,#458,#459,#460,
#461));
#111=LINE('',#728,#154);
#112=LINE('',#810,#155);
#113=LINE('',#853,#156);
#114=LINE('',#855,#157);
#115=LINE('',#857,#158);
#116=LINE('',#858,#159);
#117=LINE('',#864,#160);
#118=LINE('',#867,#161);
#119=LINE('',#869,#162);
#120=LINE('',#870,#163);
#121=LINE('',#886,#164);
#122=LINE('',#891,#165);
#123=LINE('',#894,#166);
#124=LINE('',#896,#167);
#125=LINE('',#897,#168);
#126=LINE('',#901,#169);
#127=LINE('',#903,#170);
#128=LINE('',#905,#171);
#129=LINE('',#907,#172);
#130=LINE('',#908,#173);
#131=LINE('',#911,#174);
#132=LINE('',#913,#175);
#133=LINE('',#914,#176);
#134=LINE('',#916,#177);
#135=LINE('',#917,#178);
#136=LINE('',#920,#179);
#137=LINE('',#922,#180);
#138=LINE('',#924,#181);
#139=LINE('',#926,#182);
#140=LINE('',#928,#183);
#141=LINE('',#933,#184);
#142=LINE('',#938,#185);
#143=LINE('',#943,#186);
#144=LINE('',#947,#187);
#145=LINE('',#951,#188);
#146=LINE('',#955,#189);
#147=LINE('',#959,#190);
#148=LINE('',#963,#191);
#149=LINE('',#967,#192);
#150=LINE('',#971,#193);
#151=LINE('',#975,#194);
#152=LINE('',#979,#195);
#153=LINE('',#981,#196);
#154=VECTOR('',#564,8.);
#155=VECTOR('',#567,8.);
#156=VECTOR('',#570,10.);
#157=VECTOR('',#571,10.);
#158=VECTOR('',#572,10.);
#159=VECTOR('',#573,10.);
#160=VECTOR('',#580,10.);
#161=VECTOR('',#583,10.);
#162=VECTOR('',#584,10.);
#163=VECTOR('',#585,10.);
#164=VECTOR('',#592,10.);
#165=VECTOR('',#593,10.);
#166=VECTOR('',#596,10.);
#167=VECTOR('',#597,10.);
#168=VECTOR('',#598,10.);
#169=VECTOR('',#601,10.);
#170=VECTOR('',#602,10.);
#171=VECTOR('',#603,10.);
#172=VECTOR('',#604,10.);
#173=VECTOR('',#605,10.);
#174=VECTOR('',#608,10.);
#175=VECTOR('',#609,10.);
#176=VECTOR('',#610,10.);
#177=VECTOR('',#613,10.);
#178=VECTOR('',#614,10.);
#179=VECTOR('',#617,10.);
#180=VECTOR('',#618,10.);
#181=VECTOR('',#619,10.);
#182=VECTOR('',#620,10.);
#183=VECTOR('',#621,10.);
#184=VECTOR('',#622,10.);
#185=VECTOR('',#627,10.);
#186=VECTOR('',#634,10.);
#187=VECTOR('',#639,10.);
#188=VECTOR('',#644,10.);
#189=VECTOR('',#649,10.);
#190=VECTOR('',#654,10.);
#191=VECTOR('',#659,10.);
#192=VECTOR('',#664,10.);
#193=VECTOR('',#669,10.);
#194=VECTOR('',#674,10.);
#195=VECTOR('',#679,10.);
#196=VECTOR('',#682,10.);
#197=B_SPLINE_CURVE_WITH_KNOTS('',3,(#689,#690,#691,#692,#693,#694,#695,
#696,#697,#698,#699,#700,#701,#702,#703,#704,#705,#706,#707,#708,#709,#710,
#711,#712,#713,#714,#715,#716),.UNSPECIFIED.,.F.,.F.,(4,2,2,2,2,2,2,2,2,
2,2,2,2,4),(0.,0.295745402791188,0.591490805582375,0.892026017862973,1.19256123014357,
1.49543086504819,1.79830049995282,2.09774151140546,2.39718252285811,2.7044681353626,
3.01175374786709,3.32082793141091,3.62990211495473,3.86426350442762),
 .UNSPECIFIED.);
#198=B_SPLINE_CURVE_WITH_KNOTS('',3,(#717,#718,#719,#720,#721,#722,#723,
#724,#725,#726),.UNSPECIFIED.,.F.,.F.,(4,2,2,2,4),(3.86426350442762,3.94348338299091,
4.25706465102709,4.56841696672861,4.87976928243014),.UNSPECIFIED.);
#199=B_SPLINE_CURVE_WITH_KNOTS('',3,(#730,#731,#732,#733,#734,#735,#736,
#737,#738,#739),.UNSPECIFIED.,.F.,.F.,(4,2,2,2,4),(0.,0.311226936622025,
0.622453873244051,0.935799845797638,1.01300667842724),.UNSPECIFIED.);
#200=B_SPLINE_CURVE_WITH_KNOTS('',3,(#740,#741,#742,#743,#744,#745,#746,
#747,#748,#749,#750,#751,#752,#753,#754,#755,#756,#757,#758,#759,#760,#761,
#762,#763,#764,#765,#766,#767),.UNSPECIFIED.,.F.,.F.,(4,2,2,2,2,2,2,2,2,
2,2,2,2,4),(1.01300667842724,1.24914581835122,1.55804956768127,1.86695331701132,
2.17416658053639,2.48137984406147,2.78090195035747,3.08042405665347,3.38320212939866,
3.68598020214385,3.98642378446608,4.28686736678832,4.58273309671633,4.87859882664435),
 .UNSPECIFIED.);
#201=B_SPLINE_CURVE_WITH_KNOTS('',3,(#771,#772,#773,#774,#775,#776,#777,
#778,#779,#780,#781,#782,#783,#784,#785,#786,#787,#788,#789,#790,#791,#792,
#793,#794,#795,#796,#797,#798),.UNSPECIFIED.,.F.,.F.,(4,2,2,2,2,2,2,2,2,
2,2,2,2,4),(0.,0.29708064351672,0.59416128703344,0.891060111423982,1.18795893581452,
1.48628061827408,1.78460230073363,2.08381922788747,2.38303615504131,2.69074411658932,
2.99845207813734,3.30547104360312,3.6124900090689,3.90437631890163),
 .UNSPECIFIED.);
#202=B_SPLINE_CURVE_WITH_KNOTS('',3,(#799,#800,#801,#802,#803,#804,#805,
#806,#807,#808),.UNSPECIFIED.,.F.,.F.,(4,2,2,2,4),(3.90437631890163,3.92204999677803,
4.23160998448717,4.54160759540868,4.85160520633019),.UNSPECIFIED.);
#203=B_SPLINE_CURVE_WITH_KNOTS('',3,(#812,#813,#814,#815,#816,#817,#818,
#819,#820,#821),.UNSPECIFIED.,.F.,.F.,(4,2,2,2,4),(0.,0.309894982856255,
0.61978996571251,0.929216789835348,0.945829572689975),.UNSPECIFIED.);
#204=B_SPLINE_CURVE_WITH_KNOTS('',3,(#822,#823,#824,#825,#826,#827,#828,
#829,#830,#831,#832,#833,#834,#835,#836,#837,#838,#839,#840,#841,#842,#843,
#844,#845,#846,#847,#848,#849),.UNSPECIFIED.,.F.,.F.,(4,2,2,2,2,2,2,2,2,
2,2,2,2,4),(0.945829572689975,1.23864361395819,1.54557148233301,1.85249935070784,
2.16013956451308,2.46777977831833,2.76706930789487,3.06635883747142,3.36470693697879,
3.66305503648617,3.95998939829185,4.25692376009752,4.55410683372149,4.85128990734545),
 .UNSPECIFIED.);
#205=VERTEX_POINT('',#687);
#206=VERTEX_POINT('',#688);
#207=VERTEX_POINT('',#727);
#208=VERTEX_POINT('',#729);
#209=VERTEX_POINT('',#769);
#210=VERTEX_POINT('',#770);
#211=VERTEX_POINT('',#809);
#212=VERTEX_POINT('',#811);
#213=VERTEX_POINT('',#851);
#214=VERTEX_POINT('',#852);
#215=VERTEX_POINT('',#854);
#216=VERTEX_POINT('',#856);
#217=VERTEX_POINT('',#860);
#218=VERTEX_POINT('',#862);
#219=VERTEX_POINT('',#866);
#220=VERTEX_POINT('',#868);
#221=VERTEX_POINT('',#880);
#222=VERTEX_POINT('',#881);
#223=VERTEX_POINT('',#885);
#224=VERTEX_POINT('',#887);
#225=VERTEX_POINT('',#893);
#226=VERTEX_POINT('',#895);
#227=VERTEX_POINT('',#899);
#228=VERTEX_POINT('',#900);
#229=VERTEX_POINT('',#902);
#230=VERTEX_POINT('',#904);
#231=VERTEX_POINT('',#906);
#232=VERTEX_POINT('',#910);
#233=VERTEX_POINT('',#912);
#234=VERTEX_POINT('',#919);
#235=VERTEX_POINT('',#921);
#236=VERTEX_POINT('',#923);
#237=VERTEX_POINT('',#925);
#238=VERTEX_POINT('',#927);
#239=VERTEX_POINT('',#929);
#240=VERTEX_POINT('',#935);
#241=VERTEX_POINT('',#937);
#242=VERTEX_POINT('',#941);
#243=VERTEX_POINT('',#945);
#244=VERTEX_POINT('',#949);
#245=VERTEX_POINT('',#953);
#246=VERTEX_POINT('',#957);
#247=VERTEX_POINT('',#961);
#248=VERTEX_POINT('',#965);
#249=VERTEX_POINT('',#969);
#250=VERTEX_POINT('',#973);
#251=VERTEX_POINT('',#977);
#252=EDGE_CURVE('',#205,#206,#197,.T.);
#253=EDGE_CURVE('',#206,#205,#198,.T.);
#254=EDGE_CURVE('',#206,#207,#111,.T.);
#255=EDGE_CURVE('',#208,#207,#199,.T.);
#256=EDGE_CURVE('',#207,#208,#200,.T.);
#257=EDGE_CURVE('',#209,#210,#201,.T.);
#258=EDGE_CURVE('',#210,#209,#202,.T.);
#259=EDGE_CURVE('',#210,#211,#112,.T.);
#260=EDGE_CURVE('',#212,#211,#203,.T.);
#261=EDGE_CURVE('',#211,#212,#204,.T.);
#262=EDGE_CURVE('',#213,#214,#113,.T.);
#263=EDGE_CURVE('',#215,#213,#114,.T.);
#264=EDGE_CURVE('',#216,#215,#115,.T.);
#265=EDGE_CURVE('',#216,#214,#116,.T.);
#266=EDGE_CURVE('',#214,#217,#27,.T.);
#267=EDGE_CURVE('',#218,#216,#28,.T.);
#268=EDGE_CURVE('',#218,#217,#117,.T.);
#269=EDGE_CURVE('',#217,#219,#118,.T.);
#270=EDGE_CURVE('',#220,#218,#119,.T.);
#271=EDGE_CURVE('',#220,#219,#120,.T.);
#272=EDGE_CURVE('',#219,#213,#29,.T.);
#273=EDGE_CURVE('',#215,#220,#30,.T.);
#274=EDGE_CURVE('',#221,#222,#23,.T.);
#275=EDGE_CURVE('',#221,#223,#121,.T.);
#276=EDGE_CURVE('',#224,#223,#24,.T.);
#277=EDGE_CURVE('',#222,#224,#122,.T.);
#278=EDGE_CURVE('',#222,#225,#123,.T.);
#279=EDGE_CURVE('',#226,#224,#124,.T.);
#280=EDGE_CURVE('',#225,#226,#125,.T.);
#281=EDGE_CURVE('',#227,#228,#126,.T.);
#282=EDGE_CURVE('',#229,#228,#127,.T.);
#283=EDGE_CURVE('',#229,#230,#128,.T.);
#284=EDGE_CURVE('',#231,#230,#129,.T.);
#285=EDGE_CURVE('',#227,#231,#130,.T.);
#286=EDGE_CURVE('',#232,#221,#131,.T.);
#287=EDGE_CURVE('',#232,#233,#132,.T.);
#288=EDGE_CURVE('',#223,#233,#133,.T.);
#289=EDGE_CURVE('',#233,#231,#134,.T.);
#290=EDGE_CURVE('',#230,#226,#135,.T.);
#291=EDGE_CURVE('',#228,#234,#136,.T.);
#292=EDGE_CURVE('',#235,#227,#137,.T.);
#293=EDGE_CURVE('',#236,#235,#138,.T.);
#294=EDGE_CURVE('',#237,#236,#139,.T.);
#295=EDGE_CURVE('',#238,#237,#140,.T.);
#296=EDGE_CURVE('',#239,#238,#25,.T.);
#297=EDGE_CURVE('',#234,#239,#141,.T.);
#298=EDGE_CURVE('',#240,#222,#31,.T.);
#299=EDGE_CURVE('',#241,#240,#142,.T.);
#300=EDGE_CURVE('',#241,#221,#32,.T.);
#301=EDGE_CURVE('',#242,#225,#33,.T.);
#302=EDGE_CURVE('',#240,#242,#143,.T.);
#303=EDGE_CURVE('',#243,#229,#34,.T.);
#304=EDGE_CURVE('',#242,#243,#144,.T.);
#305=EDGE_CURVE('',#244,#228,#35,.T.);
#306=EDGE_CURVE('',#243,#244,#145,.T.);
#307=EDGE_CURVE('',#245,#234,#36,.T.);
#308=EDGE_CURVE('',#244,#245,#146,.T.);
#309=EDGE_CURVE('',#246,#239,#37,.T.);
#310=EDGE_CURVE('',#245,#246,#147,.T.);
#311=EDGE_CURVE('',#247,#238,#38,.T.);
#312=EDGE_CURVE('',#246,#247,#148,.T.);
#313=EDGE_CURVE('',#248,#237,#39,.T.);
#314=EDGE_CURVE('',#247,#248,#149,.T.);
#315=EDGE_CURVE('',#249,#236,#40,.T.);
#316=EDGE_CURVE('',#248,#249,#150,.T.);
#317=EDGE_CURVE('',#250,#235,#41,.T.);
#318=EDGE_CURVE('',#249,#250,#151,.T.);
#319=EDGE_CURVE('',#251,#232,#42,.T.);
#320=EDGE_CURVE('',#250,#251,#152,.T.);
#321=EDGE_CURVE('',#251,#241,#153,.T.);
#322=ORIENTED_EDGE('',*,*,#252,.F.);
#323=ORIENTED_EDGE('',*,*,#253,.F.);
#324=ORIENTED_EDGE('',*,*,#254,.T.);
#325=ORIENTED_EDGE('',*,*,#255,.F.);
#326=ORIENTED_EDGE('',*,*,#256,.F.);
#327=ORIENTED_EDGE('',*,*,#254,.F.);
#328=ORIENTED_EDGE('',*,*,#257,.F.);
#329=ORIENTED_EDGE('',*,*,#258,.F.);
#330=ORIENTED_EDGE('',*,*,#259,.T.);
#331=ORIENTED_EDGE('',*,*,#260,.F.);
#332=ORIENTED_EDGE('',*,*,#261,.F.);
#333=ORIENTED_EDGE('',*,*,#259,.F.);
#334=ORIENTED_EDGE('',*,*,#262,.F.);
#335=ORIENTED_EDGE('',*,*,#263,.F.);
#336=ORIENTED_EDGE('',*,*,#264,.F.);
#337=ORIENTED_EDGE('',*,*,#265,.T.);
#338=ORIENTED_EDGE('',*,*,#266,.F.);
#339=ORIENTED_EDGE('',*,*,#265,.F.);
#340=ORIENTED_EDGE('',*,*,#267,.F.);
#341=ORIENTED_EDGE('',*,*,#268,.T.);
#342=ORIENTED_EDGE('',*,*,#269,.F.);
#343=ORIENTED_EDGE('',*,*,#268,.F.);
#344=ORIENTED_EDGE('',*,*,#270,.F.);
#345=ORIENTED_EDGE('',*,*,#271,.T.);
#346=ORIENTED_EDGE('',*,*,#272,.F.);
#347=ORIENTED_EDGE('',*,*,#271,.F.);
#348=ORIENTED_EDGE('',*,*,#273,.F.);
#349=ORIENTED_EDGE('',*,*,#263,.T.);
#350=ORIENTED_EDGE('',*,*,#274,.F.);
#351=ORIENTED_EDGE('',*,*,#275,.T.);
#352=ORIENTED_EDGE('',*,*,#276,.F.);
#353=ORIENTED_EDGE('',*,*,#277,.F.);
#354=ORIENTED_EDGE('',*,*,#278,.F.);
#355=ORIENTED_EDGE('',*,*,#277,.T.);
#356=ORIENTED_EDGE('',*,*,#279,.F.);
#357=ORIENTED_EDGE('',*,*,#280,.F.);
#358=ORIENTED_EDGE('',*,*,#281,.T.);
#359=ORIENTED_EDGE('',*,*,#282,.F.);
#360=ORIENTED_EDGE('',*,*,#283,.T.);
#361=ORIENTED_EDGE('',*,*,#284,.F.);
#362=ORIENTED_EDGE('',*,*,#285,.F.);
#363=ORIENTED_EDGE('',*,*,#286,.F.);
#364=ORIENTED_EDGE('',*,*,#287,.T.);
#365=ORIENTED_EDGE('',*,*,#288,.F.);
#366=ORIENTED_EDGE('',*,*,#275,.F.);
#367=ORIENTED_EDGE('',*,*,#288,.T.);
#368=ORIENTED_EDGE('',*,*,#289,.T.);
#369=ORIENTED_EDGE('',*,*,#284,.T.);
#370=ORIENTED_EDGE('',*,*,#290,.T.);
#371=ORIENTED_EDGE('',*,*,#279,.T.);
#372=ORIENTED_EDGE('',*,*,#276,.T.);
#373=ORIENTED_EDGE('',*,*,#291,.F.);
#374=ORIENTED_EDGE('',*,*,#281,.F.);
#375=ORIENTED_EDGE('',*,*,#292,.F.);
#376=ORIENTED_EDGE('',*,*,#293,.F.);
#377=ORIENTED_EDGE('',*,*,#294,.F.);
#378=ORIENTED_EDGE('',*,*,#295,.F.);
#379=ORIENTED_EDGE('',*,*,#296,.F.);
#380=ORIENTED_EDGE('',*,*,#297,.F.);
#381=ORIENTED_EDGE('',*,*,#274,.T.);
#382=ORIENTED_EDGE('',*,*,#298,.F.);
#383=ORIENTED_EDGE('',*,*,#299,.F.);
#384=ORIENTED_EDGE('',*,*,#300,.T.);
#385=ORIENTED_EDGE('',*,*,#255,.T.);
#386=ORIENTED_EDGE('',*,*,#256,.T.);
#387=ORIENTED_EDGE('',*,*,#260,.T.);
#388=ORIENTED_EDGE('',*,*,#261,.T.);
#389=ORIENTED_EDGE('',*,*,#278,.T.);
#390=ORIENTED_EDGE('',*,*,#301,.F.);
#391=ORIENTED_EDGE('',*,*,#302,.F.);
#392=ORIENTED_EDGE('',*,*,#298,.T.);
#393=ORIENTED_EDGE('',*,*,#303,.F.);
#394=ORIENTED_EDGE('',*,*,#304,.F.);
#395=ORIENTED_EDGE('',*,*,#301,.T.);
#396=ORIENTED_EDGE('',*,*,#280,.T.);
#397=ORIENTED_EDGE('',*,*,#290,.F.);
#398=ORIENTED_EDGE('',*,*,#283,.F.);
#399=ORIENTED_EDGE('',*,*,#282,.T.);
#400=ORIENTED_EDGE('',*,*,#305,.F.);
#401=ORIENTED_EDGE('',*,*,#306,.F.);
#402=ORIENTED_EDGE('',*,*,#303,.T.);
#403=ORIENTED_EDGE('',*,*,#291,.T.);
#404=ORIENTED_EDGE('',*,*,#307,.F.);
#405=ORIENTED_EDGE('',*,*,#308,.F.);
#406=ORIENTED_EDGE('',*,*,#305,.T.);
#407=ORIENTED_EDGE('',*,*,#297,.T.);
#408=ORIENTED_EDGE('',*,*,#309,.F.);
#409=ORIENTED_EDGE('',*,*,#310,.F.);
#410=ORIENTED_EDGE('',*,*,#307,.T.);
#411=ORIENTED_EDGE('',*,*,#296,.T.);
#412=ORIENTED_EDGE('',*,*,#311,.F.);
#413=ORIENTED_EDGE('',*,*,#312,.F.);
#414=ORIENTED_EDGE('',*,*,#309,.T.);
#415=ORIENTED_EDGE('',*,*,#252,.T.);
#416=ORIENTED_EDGE('',*,*,#253,.T.);
#417=ORIENTED_EDGE('',*,*,#257,.T.);
#418=ORIENTED_EDGE('',*,*,#258,.T.);
#419=ORIENTED_EDGE('',*,*,#295,.T.);
#420=ORIENTED_EDGE('',*,*,#313,.F.);
#421=ORIENTED_EDGE('',*,*,#314,.F.);
#422=ORIENTED_EDGE('',*,*,#311,.T.);
#423=ORIENTED_EDGE('',*,*,#294,.T.);
#424=ORIENTED_EDGE('',*,*,#315,.F.);
#425=ORIENTED_EDGE('',*,*,#316,.F.);
#426=ORIENTED_EDGE('',*,*,#313,.T.);
#427=ORIENTED_EDGE('',*,*,#269,.T.);
#428=ORIENTED_EDGE('',*,*,#272,.T.);
#429=ORIENTED_EDGE('',*,*,#262,.T.);
#430=ORIENTED_EDGE('',*,*,#266,.T.);
#431=ORIENTED_EDGE('',*,*,#293,.T.);
#432=ORIENTED_EDGE('',*,*,#317,.F.);
#433=ORIENTED_EDGE('',*,*,#318,.F.);
#434=ORIENTED_EDGE('',*,*,#315,.T.);
#435=ORIENTED_EDGE('',*,*,#319,.F.);
#436=ORIENTED_EDGE('',*,*,#320,.F.);
#437=ORIENTED_EDGE('',*,*,#317,.T.);
#438=ORIENTED_EDGE('',*,*,#292,.T.);
#439=ORIENTED_EDGE('',*,*,#285,.T.);
#440=ORIENTED_EDGE('',*,*,#289,.F.);
#441=ORIENTED_EDGE('',*,*,#287,.F.);
#442=ORIENTED_EDGE('',*,*,#270,.T.);
#443=ORIENTED_EDGE('',*,*,#267,.T.);
#444=ORIENTED_EDGE('',*,*,#264,.T.);
#445=ORIENTED_EDGE('',*,*,#273,.T.);
#446=ORIENTED_EDGE('',*,*,#286,.T.);
#447=ORIENTED_EDGE('',*,*,#300,.F.);
#448=ORIENTED_EDGE('',*,*,#321,.F.);
#449=ORIENTED_EDGE('',*,*,#319,.T.);
#450=ORIENTED_EDGE('',*,*,#310,.T.);
#451=ORIENTED_EDGE('',*,*,#312,.T.);
#452=ORIENTED_EDGE('',*,*,#314,.T.);
#453=ORIENTED_EDGE('',*,*,#316,.T.);
#454=ORIENTED_EDGE('',*,*,#318,.T.);
#455=ORIENTED_EDGE('',*,*,#320,.T.);
#456=ORIENTED_EDGE('',*,*,#321,.T.);
#457=ORIENTED_EDGE('',*,*,#299,.T.);
#458=ORIENTED_EDGE('',*,*,#302,.T.);
#459=ORIENTED_EDGE('',*,*,#304,.T.);
#460=ORIENTED_EDGE('',*,*,#306,.T.);
#461=ORIENTED_EDGE('',*,*,#308,.T.);
#462=CYLINDRICAL_SURFACE('',#520,8.);
#463=CYLINDRICAL_SURFACE('',#521,8.00000000000001);
#464=CYLINDRICAL_SURFACE('',#523,212.);
#465=CYLINDRICAL_SURFACE('',#527,205.);
#466=CYLINDRICAL_SURFACE('',#538,234.142135623731);
#467=CYLINDRICAL_SURFACE('',#542,196.142135623731);
#468=CYLINDRICAL_SURFACE('',#546,231.142135623731);
#469=CYLINDRICAL_SURFACE('',#550,217.);
#470=CYLINDRICAL_SURFACE('',#554,197.);
#471=CYLINDRICAL_SURFACE('',#558,220.);
#472=ADVANCED_FACE('',(#55),#462,.F.);
#473=ADVANCED_FACE('',(#56),#463,.F.);
#474=ADVANCED_FACE('',(#57),#43,.F.);
#475=ADVANCED_FACE('',(#58),#464,.F.);
#476=ADVANCED_FACE('',(#59),#44,.F.);
#477=ADVANCED_FACE('',(#60),#465,.T.);
#478=ADVANCED_FACE('',(#61),#26,.T.);
#479=ADVANCED_FACE('',(#62),#45,.T.);
#480=ADVANCED_FACE('',(#63),#46,.T.);
#481=ADVANCED_FACE('',(#64),#47,.T.);
#482=ADVANCED_FACE('',(#65),#48,.T.);
#483=ADVANCED_FACE('',(#66),#49,.F.);
#484=ADVANCED_FACE('',(#67,#15,#16),#21,.T.);
#485=ADVANCED_FACE('',(#68),#466,.T.);
#486=ADVANCED_FACE('',(#69),#50,.T.);
#487=ADVANCED_FACE('',(#70),#467,.F.);
#488=ADVANCED_FACE('',(#71),#51,.T.);
#489=ADVANCED_FACE('',(#72),#468,.F.);
#490=ADVANCED_FACE('',(#73,#17,#18),#22,.F.);
#491=ADVANCED_FACE('',(#74),#469,.F.);
#492=ADVANCED_FACE('',(#75,#19),#52,.T.);
#493=ADVANCED_FACE('',(#76),#470,.F.);
#494=ADVANCED_FACE('',(#77,#20),#53,.T.);
#495=ADVANCED_FACE('',(#78),#471,.T.);
#496=ADVANCED_FACE('',(#79),#54,.T.);
#497=CLOSED_SHELL('',(#472,#473,#474,#475,#476,#477,#478,#479,#480,#481,
#482,#483,#484,#485,#486,#487,#488,#489,#490,#491,#492,#493,#494,#495,#496));
#498=DERIVED_UNIT_ELEMENT(#501,1.);
#499=DERIVED_UNIT_ELEMENT(#988,-3.);
#500=DIMENSIONAL_EXPONENTS(0.,1.,0.,0.,0.,0.,0.);
#501=(
CONVERSION_BASED_UNIT('gram',#503)
MASS_UNIT()
NAMED_UNIT(#500)
);
#502=(
MASS_UNIT()
NAMED_UNIT(*)
SI_UNIT(.KILO.,.GRAM.)
);
#503=MASS_MEASURE_WITH_UNIT(MASS_MEASURE(0.001),#502);
#504=DERIVED_UNIT((#498,#499));
#505=MEASURE_REPRESENTATION_ITEM('density measure',
POSITIVE_RATIO_MEASURE(1.),#504);
#506=PROPERTY_DEFINITION_REPRESENTATION(#511,#508);
#507=PROPERTY_DEFINITION_REPRESENTATION(#512,#509);
#508=REPRESENTATION('material name',(#510),#985);
#509=REPRESENTATION('density',(#505),#985);
#510=DESCRIPTIVE_REPRESENTATION_ITEM('Generic','Generic');
#511=PROPERTY_DEFINITION('material property','material name',#995);
#512=PROPERTY_DEFINITION('material property','density of part',#995);
#513=DATE_TIME_ROLE('creation_date');
#514=APPLIED_DATE_AND_TIME_ASSIGNMENT(#515,#513,(#995));
#515=DATE_AND_TIME(#516,#517);
#516=CALENDAR_DATE(2026,5,1);
#517=LOCAL_TIME(0,0,0.,#518);
#518=COORDINATED_UNIVERSAL_TIME_OFFSET(0,0,.BEHIND.);
#519=AXIS2_PLACEMENT_3D('',#685,#560,#561);
#520=AXIS2_PLACEMENT_3D('',#686,#562,#563);
#521=AXIS2_PLACEMENT_3D('',#768,#565,#566);
#522=AXIS2_PLACEMENT_3D('',#850,#568,#569);
#523=AXIS2_PLACEMENT_3D('',#859,#574,#575);
#524=AXIS2_PLACEMENT_3D('',#861,#576,#577);
#525=AXIS2_PLACEMENT_3D('',#863,#578,#579);
#526=AXIS2_PLACEMENT_3D('',#865,#581,#582);
#527=AXIS2_PLACEMENT_3D('',#871,#586,#587);
#528=AXIS2_PLACEMENT_3D('',#872,#588,#589);
#529=AXIS2_PLACEMENT_3D('',#873,#590,#591);
#530=AXIS2_PLACEMENT_3D('',#892,#594,#595);
#531=AXIS2_PLACEMENT_3D('',#898,#599,#600);
#532=AXIS2_PLACEMENT_3D('',#909,#606,#607);
#533=AXIS2_PLACEMENT_3D('',#915,#611,#612);
#534=AXIS2_PLACEMENT_3D('',#918,#615,#616);
#535=AXIS2_PLACEMENT_3D('',#934,#623,#624);
#536=AXIS2_PLACEMENT_3D('',#936,#625,#626);
#537=AXIS2_PLACEMENT_3D('',#939,#628,#629);
#538=AXIS2_PLACEMENT_3D('',#940,#630,#631);
#539=AXIS2_PLACEMENT_3D('',#942,#632,#633);
#540=AXIS2_PLACEMENT_3D('',#944,#635,#636);
#541=AXIS2_PLACEMENT_3D('',#946,#637,#638);
#542=AXIS2_PLACEMENT_3D('',#948,#640,#641);
#543=AXIS2_PLACEMENT_3D('',#950,#642,#643);
#544=AXIS2_PLACEMENT_3D('',#952,#645,#646);
#545=AXIS2_PLACEMENT_3D('',#954,#647,#648);
#546=AXIS2_PLACEMENT_3D('',#956,#650,#651);
#547=AXIS2_PLACEMENT_3D('',#958,#652,#653);
#548=AXIS2_PLACEMENT_3D('',#960,#655,#656);
#549=AXIS2_PLACEMENT_3D('',#962,#657,#658);
#550=AXIS2_PLACEMENT_3D('',#964,#660,#661);
#551=AXIS2_PLACEMENT_3D('',#966,#662,#663);
#552=AXIS2_PLACEMENT_3D('',#968,#665,#666);
#553=AXIS2_PLACEMENT_3D('',#970,#667,#668);
#554=AXIS2_PLACEMENT_3D('',#972,#670,#671);
#555=AXIS2_PLACEMENT_3D('',#974,#672,#673);
#556=AXIS2_PLACEMENT_3D('',#976,#675,#676);
#557=AXIS2_PLACEMENT_3D('',#978,#677,#678);
#558=AXIS2_PLACEMENT_3D('',#980,#680,#681);
#559=AXIS2_PLACEMENT_3D('',#982,#683,#684);
#560=DIRECTION('axis',(0.,0.,1.));
#561=DIRECTION('refdir',(1.,0.,0.));
#562=DIRECTION('center_axis',(0.612372435695794,-0.612372435695795,-0.5));
#563=DIRECTION('ref_axis',(-0.707106781186548,-0.707106781186548,3.46944695195361E-17));
#564=DIRECTION('',(0.612372435695795,-0.612372435695795,-0.5));
#565=DIRECTION('center_axis',(0.612372435695794,-0.612372435695795,-0.5));
#566=DIRECTION('ref_axis',(-0.707106781186548,-0.707106781186547,0.));
#567=DIRECTION('',(0.612372435695795,-0.612372435695795,-0.5));
#568=DIRECTION('center_axis',(-1.,0.,7.13308065374631E-15));
#569=DIRECTION('ref_axis',(7.13308065374631E-15,0.,1.));
#570=DIRECTION('',(-7.13308065374631E-15,0.,-1.));
#571=DIRECTION('',(0.,1.,0.));
#572=DIRECTION('',(7.13308065374631E-15,0.,1.));
#573=DIRECTION('',(0.,1.,0.));
#574=DIRECTION('center_axis',(0.,1.,0.));
#575=DIRECTION('ref_axis',(0.34359735657504,0.,-0.939117062221023));
#576=DIRECTION('center_axis',(0.,-1.,0.));
#577=DIRECTION('ref_axis',(0.34359735657504,0.,-0.939117062221023));
#578=DIRECTION('center_axis',(0.,1.,0.));
#579=DIRECTION('ref_axis',(0.34359735657504,0.,-0.939117062221023));
#580=DIRECTION('',(0.,1.,0.));
#581=DIRECTION('center_axis',(0.,0.,1.));
#582=DIRECTION('ref_axis',(1.,0.,0.));
#583=DIRECTION('',(-1.,0.,0.));
#584=DIRECTION('',(1.,0.,0.));
#585=DIRECTION('',(0.,1.,0.));
#586=DIRECTION('center_axis',(0.,1.,0.));
#587=DIRECTION('ref_axis',(-0.355329949238578,0.,0.934740941209975));
#588=DIRECTION('center_axis',(0.,1.,0.));
#589=DIRECTION('ref_axis',(-0.355329949238578,0.,0.934740941209975));
#590=DIRECTION('center_axis',(0.,-1.,0.));
#591=DIRECTION('ref_axis',(-0.355329949238578,0.,0.934740941209975));
#592=DIRECTION('',(-1.,0.,0.));
#593=DIRECTION('',(-1.,0.,0.));
#594=DIRECTION('center_axis',(0.,1.26882631385732E-15,-1.));
#595=DIRECTION('ref_axis',(0.,-1.,-1.26882631385732E-15));
#596=DIRECTION('',(0.,1.,0.));
#597=DIRECTION('',(0.,-1.,-1.26882631385732E-15));
#598=DIRECTION('',(-1.,0.,0.));
#599=DIRECTION('center_axis',(0.,0.,1.));
#600=DIRECTION('ref_axis',(0.,1.,0.));
#601=DIRECTION('',(0.,1.,0.));
#602=DIRECTION('',(0.,-1.,0.));
#603=DIRECTION('',(-1.,0.,0.));
#604=DIRECTION('',(0.,1.,0.));
#605=DIRECTION('',(-1.,0.,0.));
#606=DIRECTION('center_axis',(0.,0.,-1.));
#607=DIRECTION('ref_axis',(0.,-1.,0.));
#608=DIRECTION('',(0.,1.,0.));
#609=DIRECTION('',(-1.,0.,0.));
#610=DIRECTION('',(0.,-1.,0.));
#611=DIRECTION('center_axis',(-1.,0.,0.));
#612=DIRECTION('ref_axis',(0.,0.,1.));
#613=DIRECTION('',(0.,0.,1.));
#614=DIRECTION('',(0.,0.,-1.));
#615=DIRECTION('center_axis',(-1.,0.,0.));
#616=DIRECTION('ref_axis',(0.,0.,1.));
#617=DIRECTION('',(0.,0.,-1.));
#618=DIRECTION('',(0.,0.,1.));
#619=DIRECTION('',(0.,-1.,0.));
#620=DIRECTION('',(0.,0.,1.));
#621=DIRECTION('',(0.,-1.,0.));
#622=DIRECTION('',(0.,-1.,0.));
#623=DIRECTION('center_axis',(0.,1.,0.));
#624=DIRECTION('ref_axis',(1.,0.,0.));
#625=DIRECTION('center_axis',(0.,1.,0.));
#626=DIRECTION('ref_axis',(1.,0.,3.03466411061506E-16));
#627=DIRECTION('',(0.707106781186548,0.707106781186547,0.));
#628=DIRECTION('center_axis',(0.,1.,0.));
#629=DIRECTION('ref_axis',(1.,0.,3.22973970800046E-16));
#630=DIRECTION('center_axis',(0.,1.,0.));
#631=DIRECTION('ref_axis',(1.,0.,0.));
#632=DIRECTION('center_axis',(0.,1.,0.));
#633=DIRECTION('ref_axis',(1.,0.,6.06932822123012E-16));
#634=DIRECTION('',(-3.96508223080413E-16,1.,0.));
#635=DIRECTION('center_axis',(0.,1.,0.));
#636=DIRECTION('ref_axis',(0.,0.,1.));
#637=DIRECTION('center_axis',(0.,1.,0.));
#638=DIRECTION('ref_axis',(1.,0.,9.05647750673992E-17));
#639=DIRECTION('',(-1.,0.,0.));
#640=DIRECTION('center_axis',(0.,1.,0.));
#641=DIRECTION('ref_axis',(1.,0.,0.));
#642=DIRECTION('center_axis',(0.,1.,0.));
#643=DIRECTION('ref_axis',(1.,0.,9.05647750673992E-17));
#644=DIRECTION('',(0.,-1.,0.));
#645=DIRECTION('center_axis',(0.,-1.,0.));
#646=DIRECTION('ref_axis',(0.,0.,-1.));
#647=DIRECTION('center_axis',(0.,1.,0.));
#648=DIRECTION('ref_axis',(1.,0.,1.53702554889596E-16));
#649=DIRECTION('',(1.,0.,0.));
#650=DIRECTION('center_axis',(0.,1.,0.));
#651=DIRECTION('ref_axis',(1.,0.,0.));
#652=DIRECTION('center_axis',(0.,1.,0.));
#653=DIRECTION('ref_axis',(1.,0.,3.07405109779193E-16));
#654=DIRECTION('',(4.1895208476421E-16,-1.,0.));
#655=DIRECTION('center_axis',(0.,1.,0.));
#656=DIRECTION('ref_axis',(1.,0.,0.));
#657=DIRECTION('center_axis',(1.44708982367168E-17,1.,-3.49358387828026E-17));
#658=DIRECTION('ref_axis',(1.,-2.04649405460858E-17,4.09298810921717E-16));
#659=DIRECTION('',(-0.707106781186548,-0.707106781186547,0.));
#660=DIRECTION('center_axis',(0.,1.,0.));
#661=DIRECTION('ref_axis',(1.,0.,0.));
#662=DIRECTION('center_axis',(7.23544911835841E-18,1.,-1.74679193914013E-17));
#663=DIRECTION('ref_axis',(1.,-7.67435270478219E-18,4.09298810921717E-16));
#664=DIRECTION('',(1.08845394571094E-16,-1.,0.));
#665=DIRECTION('center_axis',(0.,1.,0.));
#666=DIRECTION('ref_axis',(0.,0.,1.));
#667=DIRECTION('center_axis',(7.9700124806283E-18,1.,-1.92413122230157E-17));
#668=DIRECTION('ref_axis',(1.,-8.45347480679053E-18,9.0170397939099E-17));
#669=DIRECTION('',(-1.,0.,0.));
#670=DIRECTION('center_axis',(0.,1.,0.));
#671=DIRECTION('ref_axis',(1.,0.,0.));
#672=DIRECTION('center_axis',(0.,1.,0.));
#673=DIRECTION('ref_axis',(1.,0.,9.0170397939099E-17));
#674=DIRECTION('',(0.,-1.,0.));
#675=DIRECTION('center_axis',(0.,-1.,0.));
#676=DIRECTION('ref_axis',(0.,0.,-1.));
#677=DIRECTION('center_axis',(0.,1.,0.));
#678=DIRECTION('ref_axis',(1.,0.,3.22973970800046E-16));
#679=DIRECTION('',(1.,0.,0.));
#680=DIRECTION('center_axis',(0.,1.,0.));
#681=DIRECTION('ref_axis',(1.,0.,0.));
#682=DIRECTION('',(0.,1.,0.));
#683=DIRECTION('center_axis',(0.,0.,1.));
#684=DIRECTION('ref_axis',(1.,0.,0.));
#685=CARTESIAN_POINT('',(0.,0.,0.));
#686=CARTESIAN_POINT('Origin',(-37.1458856673561,53.4038308360013,-79.6693066729639));
#687=CARTESIAN_POINT('',(-12.497602689188,31.7923196301293,-89.6561737970935));
#688=CARTESIAN_POINT('',(-9.83117387705112,37.4028275446811,-97.3528733052561));
#689=CARTESIAN_POINT('Ctrl Pts',(-12.497602689188,31.7923196301293,-89.6561737970935));
#690=CARTESIAN_POINT('Ctrl Pts',(-13.1360225189717,31.0952410307347,-89.376283292301));
#691=CARTESIAN_POINT('Ctrl Pts',(-13.8958861446629,30.3512820000687,-89.257341578355));
#692=CARTESIAN_POINT('Ctrl Pts',(-15.4711576711475,28.9855758386395,-89.4437120622579));
#693=CARTESIAN_POINT('Ctrl Pts',(-16.2867400593656,28.3640159934321,-89.7489217382805));
#694=CARTESIAN_POINT('Ctrl Pts',(-17.7669465609339,27.3807233904895,-90.6392510480468));
#695=CARTESIAN_POINT('Ctrl Pts',(-18.5285153212272,26.9570503027935,-91.2881999352197));
#696=CARTESIAN_POINT('Ctrl Pts',(-19.8626558602606,26.4083784673263,-92.8542503215736));
#697=CARTESIAN_POINT('Ctrl Pts',(-20.4355038737379,26.2834332396381,-93.7711352233045));
#698=CARTESIAN_POINT('Ctrl Pts',(-21.2832728730217,26.3127518027786,-95.5948553002668));
#699=CARTESIAN_POINT('Ctrl Pts',(-21.6147992309408,26.4709911621158,-96.6278780910145));
#700=CARTESIAN_POINT('Ctrl Pts',(-21.9534682810231,27.0778376958343,-98.6615026843836));
#701=CARTESIAN_POINT('Ctrl Pts',(-21.9604016737073,27.5262579688233,-99.6621951045071));
#702=CARTESIAN_POINT('Ctrl Pts',(-21.6979823301698,28.5430683712256,-101.373364480982));
#703=CARTESIAN_POINT('Ctrl Pts',(-21.4136049550939,29.1797504143759,-102.204088433197));
#704=CARTESIAN_POINT('Ctrl Pts',(-20.5561300684201,30.5698612390672,-103.561530565072));
#705=CARTESIAN_POINT('Ctrl Pts',(-19.9827962148136,31.323126786351,-104.088266598654));
#706=CARTESIAN_POINT('Ctrl Pts',(-18.7183490500651,32.7531951534393,-104.75630020717));
#707=CARTESIAN_POINT('Ctrl Pts',(-17.9384264820695,33.5246752393023,-104.932236635205));
#708=CARTESIAN_POINT('Ctrl Pts',(-16.2935195029434,34.9371977879097,-104.837460381092));
#709=CARTESIAN_POINT('Ctrl Pts',(-15.428695086567,35.5784116008986,-104.566524918919));
#710=CARTESIAN_POINT('Ctrl Pts',(-13.8554002514799,36.5864013830742,-103.712239026964));
#711=CARTESIAN_POINT('Ctrl Pts',(-13.0475100597986,37.0159917091223,-103.07268718921));
#712=CARTESIAN_POINT('Ctrl Pts',(-11.639903606913,37.5709562672466,-101.49764699315));
#713=CARTESIAN_POINT('Ctrl Pts',(-11.0402710685461,37.6966498910901,-100.56219636716));
#714=CARTESIAN_POINT('Ctrl Pts',(-10.2767574274795,37.6702451476834,-98.9197263577306));
#715=CARTESIAN_POINT('Ctrl Pts',(-10.0072727139354,37.5789263815656,-98.1416708866939));
#716=CARTESIAN_POINT('Ctrl Pts',(-9.83117387705081,37.4028275446808,-97.3528733052554));
#717=CARTESIAN_POINT('Ctrl Pts',(-9.83117387705081,37.4028275446808,-97.3528733052554));
#718=CARTESIAN_POINT('Ctrl Pts',(-9.77164816547984,37.3433018331097,-97.086240440716));
#719=CARTESIAN_POINT('Ctrl Pts',(-9.7225025484783,37.2743321100982,-96.8183899931491));
#720=CARTESIAN_POINT('Ctrl Pts',(-9.53258131964829,36.8880865602258,-95.495712713693));
#721=CARTESIAN_POINT('Ctrl Pts',(-9.5587045422892,36.432901228895,-94.4566815167525));
#722=CARTESIAN_POINT('Ctrl Pts',(-9.89913593724019,35.3932402980717,-92.6839528310946));
#723=CARTESIAN_POINT('Ctrl Pts',(-10.2344873661388,34.7397166783684,-91.8292843058718));
#724=CARTESIAN_POINT('Ctrl Pts',(-11.1976645300904,33.3063419916495,-90.4625634349997));
#725=CARTESIAN_POINT('Ctrl Pts',(-11.8254925210605,32.5261840760316,-89.9508345288836));
#726=CARTESIAN_POINT('Ctrl Pts',(-12.497602689188,31.7923196301293,-89.6561737970935));
#727=CARTESIAN_POINT('',(-7.16790830403951,34.7395619716695,-99.5274205397227));
#728=CARTESIAN_POINT('',(-31.4890314178637,59.0606850854937,-79.6693066729639));
#729=CARTESIAN_POINT('',(-9.80950174211677,29.1351448967032,-91.845448085359));
#730=CARTESIAN_POINT('Ctrl Pts',(-9.80950174211801,29.1351448967032,-91.8454480853582));
#731=CARTESIAN_POINT('Ctrl Pts',(-9.13887093126537,29.868713821281,-92.1427319272357));
#732=CARTESIAN_POINT('Ctrl Pts',(-8.51322078535255,30.6486312561445,-92.6566008152359));
#733=CARTESIAN_POINT('Ctrl Pts',(-7.55544923691836,32.0816925827967,-94.0261589263871));
#734=CARTESIAN_POINT('Ctrl Pts',(-7.22332613356716,32.7351370689627,-94.8815323931671));
#735=CARTESIAN_POINT('Ctrl Pts',(-6.88954835744885,33.7745207513073,-96.654276577915));
#736=CARTESIAN_POINT('Ctrl Pts',(-6.86721072249379,34.2295422351891,-97.6925421852072));
#737=CARTESIAN_POINT('Ctrl Pts',(-7.06085162183852,34.6136533660949,-99.0068950523516));
#738=CARTESIAN_POINT('Ctrl Pts',(-7.10944116221383,34.6810948298437,-99.2677266188726));
#739=CARTESIAN_POINT('Ctrl Pts',(-7.16790830403924,34.7395619716692,-99.527420539722));
#740=CARTESIAN_POINT('Ctrl Pts',(-7.16790830403924,34.7395619716692,-99.527420539722));
#741=CARTESIAN_POINT('Ctrl Pts',(-7.34673160392389,34.9183852715541,-100.321701266236));
#742=CARTESIAN_POINT('Ctrl Pts',(-7.62059956768321,35.0110438523523,-101.105249638829));
#743=CARTESIAN_POINT('Ctrl Pts',(-8.39242774002505,35.0372468775256,-102.749753183547));
#744=CARTESIAN_POINT('Ctrl Pts',(-8.99515613094071,34.9113203233363,-103.682417874618));
#745=CARTESIAN_POINT('Ctrl Pts',(-10.4076399077638,34.355997889924,-105.251306613337));
#746=CARTESIAN_POINT('Ctrl Pts',(-11.2173112902758,33.9262891250293,-105.887495524302));
#747=CARTESIAN_POINT('Ctrl Pts',(-12.7927728210877,32.9182568855483,-106.73577123124));
#748=CARTESIAN_POINT('Ctrl Pts',(-13.6582179331506,32.2770087880166,-107.003612164168));
#749=CARTESIAN_POINT('Ctrl Pts',(-15.3029928734542,30.864591625448,-107.092873743842));
#750=CARTESIAN_POINT('Ctrl Pts',(-16.0821663806021,30.0932545176809,-106.914515551621));
#751=CARTESIAN_POINT('Ctrl Pts',(-17.344639561594,28.6631655363935,-106.2427150145));
#752=CARTESIAN_POINT('Ctrl Pts',(-17.9165863342686,27.9096879319052,-105.714158237242));
#753=CARTESIAN_POINT('Ctrl Pts',(-18.7702279525166,26.519203944611,-104.353833879048));
#754=CARTESIAN_POINT('Ctrl Pts',(-19.0521547449444,25.8823586882942,-103.522047167171));
#755=CARTESIAN_POINT('Ctrl Pts',(-19.3091233885347,24.8656265473891,-101.810045207279));
#756=CARTESIAN_POINT('Ctrl Pts',(-19.2989577996789,24.4173761840076,-100.80967064043));
#757=CARTESIAN_POINT('Ctrl Pts',(-18.953539847947,23.8108568206703,-98.7778563102955));
#758=CARTESIAN_POINT('Ctrl Pts',(-18.6184906812857,23.652773882191,-97.7463264716022));
#759=CARTESIAN_POINT('Ctrl Pts',(-17.7642763126056,23.6237739034288,-95.9262859398075));
#760=CARTESIAN_POINT('Ctrl Pts',(-17.1881086228385,23.748904376006,-95.0119345114134));
#761=CARTESIAN_POINT('Ctrl Pts',(-15.84825531391,24.2978514716577,-93.4518297035565));
#762=CARTESIAN_POINT('Ctrl Pts',(-15.0842987113912,24.721615017707,-92.8062903943193));
#763=CARTESIAN_POINT('Ctrl Pts',(-13.6004520625985,25.7052016298441,-91.9221531449652));
#764=CARTESIAN_POINT('Ctrl Pts',(-12.7833226218554,26.3271171346482,-91.6203569275448));
#765=CARTESIAN_POINT('Ctrl Pts',(-11.2066987433199,27.6935005837503,-91.4406508160016));
#766=CARTESIAN_POINT('Ctrl Pts',(-10.4470322737574,28.4377826835271,-91.562837261798));
#767=CARTESIAN_POINT('Ctrl Pts',(-9.809501742118,29.1351448967032,-91.8454480853582));
#768=CARTESIAN_POINT('Origin',(-51.0672709798933,56.2744046499534,-100.235172493749));
#769=CARTESIAN_POINT('',(-23.3754847107825,32.4760802862913,-112.582554685114));
#770=CARTESIAN_POINT('',(-21.3875360574768,37.9083782265216,-119.849772427226));
#771=CARTESIAN_POINT('Ctrl Pts',(-23.3754847107825,32.4760802862913,-112.582554685114));
#772=CARTESIAN_POINT('Ctrl Pts',(-23.9808211350525,31.7758544943248,-112.230583133441));
#773=CARTESIAN_POINT('Ctrl Pts',(-24.7248122242664,31.0278348133438,-112.022539289985));
#774=CARTESIAN_POINT('Ctrl Pts',(-26.3166111577698,29.6514840989028,-112.017784368901));
#775=CARTESIAN_POINT('Ctrl Pts',(-27.1645952876128,29.0233570740649,-112.221040103123));
#776=CARTESIAN_POINT('Ctrl Pts',(-28.7312707502418,28.0347983173917,-112.919902436105));
#777=CARTESIAN_POINT('Ctrl Pts',(-29.5545984336503,27.6082545790574,-113.461881732277));
#778=CARTESIAN_POINT('Ctrl Pts',(-31.0480193976007,27.0496287794356,-114.8335800171));
#779=CARTESIAN_POINT('Ctrl Pts',(-31.7183175448996,26.9176780044548,-115.663129409866));
#780=CARTESIAN_POINT('Ctrl Pts',(-32.7623760292263,26.934387456978,-117.350194885017));
#781=CARTESIAN_POINT('Ctrl Pts',(-33.2059844812734,27.0853845441722,-118.322752466277));
#782=CARTESIAN_POINT('Ctrl Pts',(-33.7686606649871,27.6772021497229,-120.274127654601));
#783=CARTESIAN_POINT('Ctrl Pts',(-33.8875721597758,28.1178088265656,-121.253055156159));
#784=CARTESIAN_POINT('Ctrl Pts',(-33.8211215118288,29.1254816026524,-122.969862852223));
#785=CARTESIAN_POINT('Ctrl Pts',(-33.6302974965786,29.7621938002935,-123.825158465018));
#786=CARTESIAN_POINT('Ctrl Pts',(-32.927391517279,31.1524572434174,-125.265920276118));
#787=CARTESIAN_POINT('Ctrl Pts',(-32.415160547513,31.9058221792559,-125.851493546516));
#788=CARTESIAN_POINT('Ctrl Pts',(-31.2332074697531,33.3363578608291,-126.657359080106));
#789=CARTESIAN_POINT('Ctrl Pts',(-30.4777998028219,34.1094854129402,-126.92235683944));
#790=CARTESIAN_POINT('Ctrl Pts',(-28.8322823958957,35.5287845302104,-127.024229897213));
#791=CARTESIAN_POINT('Ctrl Pts',(-27.9423076625244,36.1751276537591,-126.860895524643));
#792=CARTESIAN_POINT('Ctrl Pts',(-26.286671370832,37.1917832573961,-126.209705318721));
#793=CARTESIAN_POINT('Ctrl Pts',(-25.4143597689863,37.627985598898,-125.680506599172));
#794=CARTESIAN_POINT('Ctrl Pts',(-23.8388595443291,38.1986247441952,-124.303039079668));
#795=CARTESIAN_POINT('Ctrl Pts',(-23.135824245467,38.3332637891111,-123.454678708031));
#796=CARTESIAN_POINT('Ctrl Pts',(-22.0853024190392,38.3164508951528,-121.757169295614));
#797=CARTESIAN_POINT('Ctrl Pts',(-21.6579070601336,38.1787492291784,-120.808583686689));
#798=CARTESIAN_POINT('Ctrl Pts',(-21.3875360574768,37.9083782265216,-119.849772427226));
#799=CARTESIAN_POINT('Ctrl Pts',(-21.3875360574768,37.9083782265216,-119.849772427226));
#800=CARTESIAN_POINT('Ctrl Pts',(-21.3711651286353,37.8920072976802,-119.791716530895));
#801=CARTESIAN_POINT('Ctrl Pts',(-21.3553435920341,37.875171110632,-119.733624562709));
#802=CARTESIAN_POINT('Ctrl Pts',(-21.0726932150279,37.5549621119712,-118.657833917218));
#803=CARTESIAN_POINT('Ctrl Pts',(-20.9844732893519,37.1042108632934,-117.636425734858));
#804=CARTESIAN_POINT('Ctrl Pts',(-21.1275106794384,36.0694569142145,-115.854897585231));
#805=CARTESIAN_POINT('Ctrl Pts',(-21.3687048319766,35.4160584980502,-114.975965664566));
#806=CARTESIAN_POINT('Ctrl Pts',(-22.1769040140461,33.9848275248951,-113.523334340758));
#807=CARTESIAN_POINT('Ctrl Pts',(-22.743828460459,33.2067516624054,-112.949829842591));
#808=CARTESIAN_POINT('Ctrl Pts',(-23.3754847107825,32.4760802862913,-112.582554685114));
#809=CARTESIAN_POINT('',(-18.7552819584173,35.2761241274621,-121.998998899241));
#810=CARTESIAN_POINT('',(-45.4104167304009,61.9312588994458,-100.235172493749));
#811=CARTESIAN_POINT('',(-20.7300890668201,29.8483727012446,-114.740597140622));
#812=CARTESIAN_POINT('Ctrl Pts',(-20.7300890668213,29.8483727012448,-114.740597140621));
#813=CARTESIAN_POINT('Ctrl Pts',(-20.099509101941,30.5788021806893,-115.109238066636));
#814=CARTESIAN_POINT('Ctrl Pts',(-19.5340341860063,31.3566563367553,-115.683793103229));
#815=CARTESIAN_POINT('Ctrl Pts',(-18.7292294872287,32.787525745848,-117.137630871764));
#816=CARTESIAN_POINT('Ctrl Pts',(-18.4899797283365,33.4407798726918,-118.016722785609));
#817=CARTESIAN_POINT('Ctrl Pts',(-18.3507556045269,34.4752344438168,-119.797815880457));
#818=CARTESIAN_POINT('Ctrl Pts',(-18.4410703178632,34.9258254077765,-120.818584456977));
#819=CARTESIAN_POINT('Ctrl Pts',(-18.7248907795858,35.2448360966093,-121.889879472518));
#820=CARTESIAN_POINT('Ctrl Pts',(-18.7398434742668,35.2606856433117,-121.944454939861));
#821=CARTESIAN_POINT('Ctrl Pts',(-18.7552819584173,35.2761241274621,-121.998998899241));
#822=CARTESIAN_POINT('Ctrl Pts',(-18.7552819584173,35.2761241274621,-121.998998899241));
#823=CARTESIAN_POINT('Ctrl Pts',(-19.0273980135485,35.5482401825934,-122.960381306545));
#824=CARTESIAN_POINT('Ctrl Pts',(-19.4577084756185,35.686801606557,-123.911581535858));
#825=CARTESIAN_POINT('Ctrl Pts',(-20.5129847380618,35.7034058358714,-125.609426006018));
#826=CARTESIAN_POINT('Ctrl Pts',(-21.2173903884928,35.5686314265068,-126.456195884237));
#827=CARTESIAN_POINT('Ctrl Pts',(-22.7948606615315,34.9978122686214,-127.830392759088));
#828=CARTESIAN_POINT('Ctrl Pts',(-23.6677737606379,34.5615692325029,-128.357911314503));
#829=CARTESIAN_POINT('Ctrl Pts',(-25.3239319287047,33.5449756811697,-129.006198958742));
#830=CARTESIAN_POINT('Ctrl Pts',(-26.213918967775,32.8986895067664,-129.168119806193));
#831=CARTESIAN_POINT('Ctrl Pts',(-27.858913627129,31.4795970915363,-129.063864397028));
#832=CARTESIAN_POINT('Ctrl Pts',(-28.6137888459314,30.7066221651469,-128.797895351752));
#833=CARTESIAN_POINT('Ctrl Pts',(-29.7947158060768,29.2760750409834,-127.990506604459));
#834=CARTESIAN_POINT('Ctrl Pts',(-30.3062972560549,28.5225360541215,-127.404111143472));
#835=CARTESIAN_POINT('Ctrl Pts',(-31.0073615174433,27.1319962970821,-125.96202430459));
#836=CARTESIAN_POINT('Ctrl Pts',(-31.1969905580217,26.4951793532785,-125.10622677135));
#837=CARTESIAN_POINT('Ctrl Pts',(-31.2607869657382,25.4874620649739,-123.388961615592));
#838=CARTESIAN_POINT('Ctrl Pts',(-31.1402786378189,25.0469098165922,-122.410109196612));
#839=CARTESIAN_POINT('Ctrl Pts',(-30.5741953293893,24.4552544075152,-120.459528894284));
#840=CARTESIAN_POINT('Ctrl Pts',(-30.1287728196186,24.3043627869284,-119.487692607271));
#841=CARTESIAN_POINT('Ctrl Pts',(-29.0813431823496,24.287882020226,-117.802472650365));
#842=CARTESIAN_POINT('Ctrl Pts',(-28.4092839850697,24.4199797450459,-116.974224792123));
#843=CARTESIAN_POINT('Ctrl Pts',(-26.9128091586289,24.9788839385981,-115.605638700493));
#844=CARTESIAN_POINT('Ctrl Pts',(-26.0881923734546,25.4055605834268,-115.065467418301));
#845=CARTESIAN_POINT('Ctrl Pts',(-24.5196054408324,26.394430334097,-114.370038089093));
#846=CARTESIAN_POINT('Ctrl Pts',(-23.6708754117788,27.0227935304472,-114.168710091017));
#847=CARTESIAN_POINT('Ctrl Pts',(-22.0785610726066,28.399631910829,-114.177214484416));
#848=CARTESIAN_POINT('Ctrl Pts',(-21.334802606878,29.1479054792002,-114.387077885656));
#849=CARTESIAN_POINT('Ctrl Pts',(-20.7300890668213,29.8483727012448,-114.740597140621));
#850=CARTESIAN_POINT('Origin',(-144.157360406091,0.,-199.092817190857));
#851=CARTESIAN_POINT('',(-144.157360406091,3.,-191.621892948045));
#852=CARTESIAN_POINT('',(-144.157360406091,3.,-199.092817190857));
#853=CARTESIAN_POINT('',(-144.157360406091,3.,-99.546408595428));
#854=CARTESIAN_POINT('',(-144.157360406091,0.,-191.621892948045));
#855=CARTESIAN_POINT('',(-144.157360406091,0.,-191.621892948045));
#856=CARTESIAN_POINT('',(-144.157360406091,0.,-199.092817190857));
#857=CARTESIAN_POINT('',(-144.157360406091,0.,-99.5464085954279));
#858=CARTESIAN_POINT('',(-144.157360406091,0.,-199.092817190857));
#859=CARTESIAN_POINT('Origin',(-217.,0.,-7.105427357601E-14));
#860=CARTESIAN_POINT('',(-5.15099717013072,3.,-8.));
#861=CARTESIAN_POINT('Origin',(-217.,3.,-7.105427357601E-14));
#862=CARTESIAN_POINT('',(-5.15099717013072,0.,-8.));
#863=CARTESIAN_POINT('Origin',(-217.,0.,-7.105427357601E-14));
#864=CARTESIAN_POINT('',(-5.15099717013072,0.,-8.));
#865=CARTESIAN_POINT('Origin',(-12.1561570366612,0.,-8.));
#866=CARTESIAN_POINT('',(-12.1561570366612,3.,-8.));
#867=CARTESIAN_POINT('',(-16.0780785183306,3.,-8.));
#868=CARTESIAN_POINT('',(-12.1561570366612,0.,-8.));
#869=CARTESIAN_POINT('',(-4.57807851833059,0.,-8.));
#870=CARTESIAN_POINT('',(-12.1561570366612,0.,-8.));
#871=CARTESIAN_POINT('Origin',(-217.,0.,-1.77635683940025E-14));
#872=CARTESIAN_POINT('Origin',(-217.,3.,-1.77635683940025E-14));
#873=CARTESIAN_POINT('Origin',(-217.,0.,-1.77635683940025E-14));
#874=CARTESIAN_POINT('Ctrl Pts',(-147.,36.642135623731,-223.433524061278));
#875=CARTESIAN_POINT('Ctrl Pts',(-149.,36.642135623731,-223.433524061278));
#876=CARTESIAN_POINT('Ctrl Pts',(-147.,29.3277218281638,-215.768548654723));
#877=CARTESIAN_POINT('Ctrl Pts',(-149.,29.3277218281638,-215.768548654723));
#878=CARTESIAN_POINT('Ctrl Pts',(-147.,22.5,-208.566536146142));
#879=CARTESIAN_POINT('Ctrl Pts',(-149.,22.5,-208.566536146142));
#880=CARTESIAN_POINT('',(-147.,22.5,-208.566536146142));
#881=CARTESIAN_POINT('',(-147.,36.6421356237309,-223.433524061278));
#882=CARTESIAN_POINT('Ctrl Pts',(-147.,22.5,-208.566536146142));
#883=CARTESIAN_POINT('Ctrl Pts',(-147.,29.3277218281638,-215.768548654723));
#884=CARTESIAN_POINT('Ctrl Pts',(-147.,36.642135623731,-223.433524061278));
#885=CARTESIAN_POINT('',(-149.,22.5,-208.566536146142));
#886=CARTESIAN_POINT('',(-147.,22.5,-208.566536146142));
#887=CARTESIAN_POINT('',(-149.,36.6421356237309,-223.433524061278));
#888=CARTESIAN_POINT('Ctrl Pts',(-149.,36.642135623731,-223.433524061278));
#889=CARTESIAN_POINT('Ctrl Pts',(-149.,29.3277218281638,-215.768548654723));
#890=CARTESIAN_POINT('Ctrl Pts',(-149.,22.5,-208.566536146142));
#891=CARTESIAN_POINT('',(-147.,36.6421356237309,-223.433524061278));
#892=CARTESIAN_POINT('Origin',(-147.,92.642135623731,-223.433524061278));
#893=CARTESIAN_POINT('',(-147.,92.642135623731,-223.433524061278));
#894=CARTESIAN_POINT('',(-147.,64.642135623731,-223.433524061278));
#895=CARTESIAN_POINT('',(-149.,92.642135623731,-223.433524061278));
#896=CARTESIAN_POINT('',(-149.,92.642135623731,-223.433524061278));
#897=CARTESIAN_POINT('',(-147.,92.642135623731,-223.433524061278));
#898=CARTESIAN_POINT('Origin',(-147.,0.,-183.225918928077));
#899=CARTESIAN_POINT('',(-147.,0.,-183.225918928077));
#900=CARTESIAN_POINT('',(-147.,89.642135623731,-183.225918928077));
#901=CARTESIAN_POINT('',(-147.,0.,-183.225918928077));
#902=CARTESIAN_POINT('',(-147.,92.642135623731,-183.225918928077));
#903=CARTESIAN_POINT('',(-147.,91.142135623731,-183.225918928077));
#904=CARTESIAN_POINT('',(-149.,92.642135623731,-183.225918928077));
#905=CARTESIAN_POINT('',(-147.,92.642135623731,-183.225918928077));
#906=CARTESIAN_POINT('',(-149.,0.,-183.225918928077));
#907=CARTESIAN_POINT('',(-149.,0.,-183.225918928077));
#908=CARTESIAN_POINT('',(-147.,0.,-183.225918928077));
#909=CARTESIAN_POINT('Origin',(-147.,22.5,-208.566536146142));
#910=CARTESIAN_POINT('',(-147.,0.,-208.566536146142));
#911=CARTESIAN_POINT('',(-147.,11.25,-208.566536146142));
#912=CARTESIAN_POINT('',(-149.,0.,-208.566536146142));
#913=CARTESIAN_POINT('',(-147.,0.,-208.566536146142));
#914=CARTESIAN_POINT('',(-149.,22.5,-208.566536146142));
#915=CARTESIAN_POINT('Origin',(-149.,46.3210678118655,-203.329721494677));
#916=CARTESIAN_POINT('',(-149.,0.,-208.566536146142));
#917=CARTESIAN_POINT('',(-149.,92.642135623731,-183.225918928077));
#918=CARTESIAN_POINT('Origin',(-147.,46.3210678118655,-203.329721494677));
#919=CARTESIAN_POINT('',(-147.,89.642135623731,-220.287736519079));
#920=CARTESIAN_POINT('',(-147.,89.642135623731,-117.071067811865));
#921=CARTESIAN_POINT('',(-147.,0.,-184.143965418365));
#922=CARTESIAN_POINT('',(-147.,0.,-208.566536146142));
#923=CARTESIAN_POINT('',(-147.,3.00000000000001,-184.143965418365));
#924=CARTESIAN_POINT('',(-147.,1.5,-184.143965418365));
#925=CARTESIAN_POINT('',(-147.,3.00000000000001,-205.399610515697));
#926=CARTESIAN_POINT('',(-147.,3.,-117.071067811865));
#927=CARTESIAN_POINT('',(-147.,25.5,-205.399610515697));
#928=CARTESIAN_POINT('',(-147.,14.25,-205.399610515697));
#929=CARTESIAN_POINT('',(-147.,39.642135623731,-220.287736519079));
#930=CARTESIAN_POINT('Ctrl Pts',(-147.,39.642135623731,-220.287736519079));
#931=CARTESIAN_POINT('Ctrl Pts',(-147.,32.3237620150451,-212.608759323463));
#932=CARTESIAN_POINT('Ctrl Pts',(-147.,25.5,-205.399610515697));
#933=CARTESIAN_POINT('',(-147.,64.642135623731,-220.287736519079));
#934=CARTESIAN_POINT('Origin',(-217.,29.5710678118655,0.));
#935=CARTESIAN_POINT('',(17.142135623731,36.642135623731,0.));
#936=CARTESIAN_POINT('Origin',(-217.,36.642135623731,-7.105427357601E-14));
#937=CARTESIAN_POINT('',(3.,22.5,0.));
#938=CARTESIAN_POINT('',(3.,22.5,0.));
#939=CARTESIAN_POINT('Origin',(-217.,22.5,-7.105427357601E-14));
#940=CARTESIAN_POINT('Origin',(-217.,64.642135623731,0.));
#941=CARTESIAN_POINT('',(17.1421356237309,92.642135623731,0.));
#942=CARTESIAN_POINT('Origin',(-217.,92.642135623731,-1.4210854715202E-13));
#943=CARTESIAN_POINT('',(17.142135623731,36.642135623731,0.));
#944=CARTESIAN_POINT('Origin',(-20.8578643762691,92.642135623731,0.));
#945=CARTESIAN_POINT('',(-20.8578643762691,92.642135623731,0.));
#946=CARTESIAN_POINT('Origin',(-217.,92.642135623731,-1.77635683940025E-14));
#947=CARTESIAN_POINT('',(14.1421356237309,92.642135623731,0.));
#948=CARTESIAN_POINT('Origin',(-217.,91.142135623731,0.));
#949=CARTESIAN_POINT('',(-20.8578643762691,89.642135623731,0.));
#950=CARTESIAN_POINT('Origin',(-217.,89.642135623731,-1.77635683940025E-14));
#951=CARTESIAN_POINT('',(-20.8578643762691,92.642135623731,0.));
#952=CARTESIAN_POINT('Origin',(14.1421356237309,89.642135623731,0.));
#953=CARTESIAN_POINT('',(14.1421356237309,89.642135623731,0.));
#954=CARTESIAN_POINT('Origin',(-217.,89.642135623731,-3.5527136788005E-14));
#955=CARTESIAN_POINT('',(-20.8578643762691,89.642135623731,0.));
#956=CARTESIAN_POINT('Origin',(-217.,64.642135623731,0.));
#957=CARTESIAN_POINT('',(14.142135623731,39.642135623731,0.));
#958=CARTESIAN_POINT('Origin',(-217.,39.642135623731,-7.105427357601E-14));
#959=CARTESIAN_POINT('',(14.1421356237309,92.642135623731,0.));
#960=CARTESIAN_POINT('Origin',(-217.,32.5710678118655,0.));
#961=CARTESIAN_POINT('',(-2.77555756156289E-15,25.5,0.));
#962=CARTESIAN_POINT('Origin',(-217.,25.5,-8.88178419700125E-14));
#963=CARTESIAN_POINT('',(14.142135623731,39.642135623731,0.));
#964=CARTESIAN_POINT('Origin',(-217.,14.25,0.));
#965=CARTESIAN_POINT('',(0.,3.,0.));
#966=CARTESIAN_POINT('Origin',(-217.,3.,-8.88178419700125E-14));
#967=CARTESIAN_POINT('',(-2.77555756156289E-15,25.5,0.));
#968=CARTESIAN_POINT('Origin',(-20.,3.,0.));
#969=CARTESIAN_POINT('',(-20.,3.,0.));
#970=CARTESIAN_POINT('Origin',(-217.,3.,-1.77635683940025E-14));
#971=CARTESIAN_POINT('',(0.,3.,0.));
#972=CARTESIAN_POINT('Origin',(-217.,1.5,0.));
#973=CARTESIAN_POINT('',(-20.,0.,0.));
#974=CARTESIAN_POINT('Origin',(-217.,0.,-1.77635683940025E-14));
#975=CARTESIAN_POINT('',(-20.,3.,0.));
#976=CARTESIAN_POINT('Origin',(3.,0.,0.));
#977=CARTESIAN_POINT('',(3.,0.,0.));
#978=CARTESIAN_POINT('Origin',(-217.,0.,-7.105427357601E-14));
#979=CARTESIAN_POINT('',(0.,0.,0.));
#980=CARTESIAN_POINT('Origin',(-217.,11.25,0.));
#981=CARTESIAN_POINT('',(3.,0.,0.));
#982=CARTESIAN_POINT('Origin',(8.57106781186548,46.3210678118655,0.));
#983=UNCERTAINTY_MEASURE_WITH_UNIT(LENGTH_MEASURE(0.01),#987,
'DISTANCE_ACCURACY_VALUE',
'Maximum model space distance between geometric entities at asserted c
onnectivities');
#984=UNCERTAINTY_MEASURE_WITH_UNIT(LENGTH_MEASURE(0.01),#987,
'DISTANCE_ACCURACY_VALUE',
'Maximum model space distance between geometric entities at asserted c
onnectivities');
#985=(
GEOMETRIC_REPRESENTATION_CONTEXT(3)
GLOBAL_UNCERTAINTY_ASSIGNED_CONTEXT((#983))
GLOBAL_UNIT_ASSIGNED_CONTEXT((#987,#989,#990))
REPRESENTATION_CONTEXT('','3D')
);
#986=(
GEOMETRIC_REPRESENTATION_CONTEXT(3)
GLOBAL_UNCERTAINTY_ASSIGNED_CONTEXT((#984))
GLOBAL_UNIT_ASSIGNED_CONTEXT((#987,#989,#990))
REPRESENTATION_CONTEXT('','3D')
);
#987=(
LENGTH_UNIT()
NAMED_UNIT(*)
SI_UNIT(.MILLI.,.METRE.)
);
#988=(
LENGTH_UNIT()
NAMED_UNIT(*)
SI_UNIT(.CENTI.,.METRE.)
);
#989=(
NAMED_UNIT(*)
PLANE_ANGLE_UNIT()
SI_UNIT($,.RADIAN.)
);
#990=(
NAMED_UNIT(*)
SI_UNIT($,.STERADIAN.)
SOLID_ANGLE_UNIT()
);
#991=SHAPE_DEFINITION_REPRESENTATION(#992,#993);
#992=PRODUCT_DEFINITION_SHAPE('',$,#995);
#993=SHAPE_REPRESENTATION('',(#519),#985);
#994=PRODUCT_DEFINITION_CONTEXT('part definition',#999,'design');
#995=PRODUCT_DEFINITION('Bottom_Enclosure_1_v2','Bottom_Enclosure_1_v2',
#996,#994);
#996=PRODUCT_DEFINITION_FORMATION('',$,#1001);
#997=PRODUCT_RELATED_PRODUCT_CATEGORY('Bottom_Enclosure_1_v2',
'Bottom_Enclosure_1_v2',(#1001));
#998=APPLICATION_PROTOCOL_DEFINITION('international standard',
'automotive_design',2009,#999);
#999=APPLICATION_CONTEXT(
'Core Data for Automotive Mechanical Design Process');
#1000=PRODUCT_CONTEXT('part definition',#999,'mechanical');
#1001=PRODUCT('Bottom_Enclosure_1_v2','Bottom_Enclosure_1_v2',$,(#1000));
#1002=PRESENTATION_STYLE_ASSIGNMENT((#1003));
#1003=SURFACE_STYLE_USAGE(.BOTH.,#1006);
#1004=SURFACE_STYLE_RENDERING_WITH_PROPERTIES($,#1010,(#1005));
#1005=SURFACE_STYLE_TRANSPARENT(0.);
#1006=SURFACE_SIDE_STYLE('',(#1007,#1004));
#1007=SURFACE_STYLE_FILL_AREA(#1008);
#1008=FILL_AREA_STYLE('',(#1009));
#1009=FILL_AREA_STYLE_COLOUR('',#1010);
#1010=COLOUR_RGB('',0.749019607843137,0.749019607843137,0.749019607843137);
ENDSEC;
END-ISO-10303-21;
