ISO-10303-21;
HEADER;
/* Generated by software containing ST-Developer
 * from STEP Tools, Inc. (www.steptools.com) 
 */

FILE_DESCRIPTION(
/* description */ (''),
/* implementation_level */ '2;1');

FILE_NAME(
/* name */ 'Enclosure cover.stp',
/* time_stamp */ '2026-04-08T23:45:39+05:30',
/* author */ ('Kartik'),
/* organization */ (''),
/* preprocessor_version */ 'ST-DEVELOPER v20.1',
/* originating_system */ 'Autodesk Inventor 2026',
/* authorisation */ '');

FILE_SCHEMA (('AUTOMOTIVE_DESIGN { 1 0 10303 214 3 1 1 }'));
ENDSEC;

DATA;
#10=MECHANICAL_DESIGN_GEOMETRIC_PRESENTATION_REPRESENTATION('',(#13),#1036);
#11=SHAPE_REPRESENTATION_RELATIONSHIP('SRR','None',#1042,#12);
#12=ADVANCED_BREP_SHAPE_REPRESENTATION('',(#14),#1035);
#13=STYLED_ITEM('',(#1051),#14);
#14=MANIFOLD_SOLID_BREP('Solid1',#601);
#15=FACE_BOUND('',#76,.T.);
#16=FACE_BOUND('',#80,.T.);
#17=FACE_BOUND('',#83,.T.);
#18=FACE_BOUND('',#84,.T.);
#19=FACE_BOUND('',#85,.T.);
#20=FACE_BOUND('',#86,.T.);
#21=FACE_BOUND('',#87,.T.);
#22=FACE_BOUND('',#91,.T.);
#23=FACE_BOUND('',#93,.T.);
#24=PLANE('',#633);
#25=PLANE('',#635);
#26=PLANE('',#639);
#27=PLANE('',#644);
#28=PLANE('',#650);
#29=PLANE('',#653);
#30=PLANE('',#655);
#31=PLANE('',#659);
#32=PLANE('',#662);
#33=PLANE('',#665);
#34=PLANE('',#668);
#35=PLANE('',#669);
#36=PLANE('',#674);
#37=PLANE('',#679);
#38=PLANE('',#680);
#39=FACE_OUTER_BOUND('',#70,.T.);
#40=FACE_OUTER_BOUND('',#71,.T.);
#41=FACE_OUTER_BOUND('',#72,.T.);
#42=FACE_OUTER_BOUND('',#73,.T.);
#43=FACE_OUTER_BOUND('',#74,.T.);
#44=FACE_OUTER_BOUND('',#75,.T.);
#45=FACE_OUTER_BOUND('',#77,.T.);
#46=FACE_OUTER_BOUND('',#78,.T.);
#47=FACE_OUTER_BOUND('',#79,.T.);
#48=FACE_OUTER_BOUND('',#81,.T.);
#49=FACE_OUTER_BOUND('',#82,.T.);
#50=FACE_OUTER_BOUND('',#88,.T.);
#51=FACE_OUTER_BOUND('',#89,.T.);
#52=FACE_OUTER_BOUND('',#90,.T.);
#53=FACE_OUTER_BOUND('',#92,.T.);
#54=FACE_OUTER_BOUND('',#94,.T.);
#55=FACE_OUTER_BOUND('',#95,.T.);
#56=FACE_OUTER_BOUND('',#96,.T.);
#57=FACE_OUTER_BOUND('',#97,.T.);
#58=FACE_OUTER_BOUND('',#98,.T.);
#59=FACE_OUTER_BOUND('',#99,.T.);
#60=FACE_OUTER_BOUND('',#100,.T.);
#61=FACE_OUTER_BOUND('',#101,.T.);
#62=FACE_OUTER_BOUND('',#102,.T.);
#63=FACE_OUTER_BOUND('',#103,.T.);
#64=FACE_OUTER_BOUND('',#104,.T.);
#65=FACE_OUTER_BOUND('',#105,.T.);
#66=FACE_OUTER_BOUND('',#106,.T.);
#67=FACE_OUTER_BOUND('',#107,.T.);
#68=FACE_OUTER_BOUND('',#108,.T.);
#69=FACE_OUTER_BOUND('',#109,.T.);
#70=EDGE_LOOP('',(#386,#387,#388,#389));
#71=EDGE_LOOP('',(#390,#391,#392,#393));
#72=EDGE_LOOP('',(#394,#395,#396,#397));
#73=EDGE_LOOP('',(#398,#399,#400,#401));
#74=EDGE_LOOP('',(#402,#403,#404,#405));
#75=EDGE_LOOP('',(#406,#407,#408,#409));
#76=EDGE_LOOP('',(#410));
#77=EDGE_LOOP('',(#411,#412,#413,#414,#415,#416,#417,#418));
#78=EDGE_LOOP('',(#419,#420,#421,#422));
#79=EDGE_LOOP('',(#423,#424,#425,#426));
#80=EDGE_LOOP('',(#427));
#81=EDGE_LOOP('',(#428,#429,#430,#431));
#82=EDGE_LOOP('',(#432,#433,#434,#435,#436,#437,#438,#439));
#83=EDGE_LOOP('',(#440));
#84=EDGE_LOOP('',(#441));
#85=EDGE_LOOP('',(#442));
#86=EDGE_LOOP('',(#443));
#87=EDGE_LOOP('',(#444,#445,#446,#447,#448,#449,#450,#451));
#88=EDGE_LOOP('',(#452,#453,#454,#455,#456,#457,#458,#459));
#89=EDGE_LOOP('',(#460,#461,#462,#463));
#90=EDGE_LOOP('',(#464,#465,#466,#467));
#91=EDGE_LOOP('',(#468));
#92=EDGE_LOOP('',(#469,#470,#471,#472));
#93=EDGE_LOOP('',(#473));
#94=EDGE_LOOP('',(#474,#475,#476,#477));
#95=EDGE_LOOP('',(#478,#479,#480,#481));
#96=EDGE_LOOP('',(#482,#483,#484,#485));
#97=EDGE_LOOP('',(#486,#487,#488,#489));
#98=EDGE_LOOP('',(#490,#491,#492,#493));
#99=EDGE_LOOP('',(#494,#495,#496,#497));
#100=EDGE_LOOP('',(#498,#499,#500,#501));
#101=EDGE_LOOP('',(#502,#503,#504,#505));
#102=EDGE_LOOP('',(#506,#507,#508,#509,#510,#511,#512,#513));
#103=EDGE_LOOP('',(#514,#515,#516,#517));
#104=EDGE_LOOP('',(#518,#519,#520,#521));
#105=EDGE_LOOP('',(#522,#523,#524,#525,#526,#527,#528,#529));
#106=EDGE_LOOP('',(#530,#531,#532,#533));
#107=EDGE_LOOP('',(#534,#535,#536,#537));
#108=EDGE_LOOP('',(#538,#539,#540,#541,#542,#543,#544,#545));
#109=EDGE_LOOP('',(#546,#547,#548,#549,#550,#551,#552,#553));
#110=LINE('',#866,#162);
#111=LINE('',#872,#163);
#112=LINE('',#878,#164);
#113=LINE('',#884,#165);
#114=LINE('',#891,#166);
#115=LINE('',#894,#167);
#116=LINE('',#897,#168);
#117=LINE('',#900,#169);
#118=LINE('',#903,#170);
#119=LINE('',#905,#171);
#120=LINE('',#907,#172);
#121=LINE('',#909,#173);
#122=LINE('',#911,#174);
#123=LINE('',#912,#175);
#124=LINE('',#918,#176);
#125=LINE('',#921,#177);
#126=LINE('',#928,#178);
#127=LINE('',#931,#179);
#128=LINE('',#933,#180);
#129=LINE('',#935,#181);
#130=LINE('',#938,#182);
#131=LINE('',#941,#183);
#132=LINE('',#945,#184);
#133=LINE('',#949,#185);
#134=LINE('',#953,#186);
#135=LINE('',#957,#187);
#136=LINE('',#959,#188);
#137=LINE('',#961,#189);
#138=LINE('',#963,#190);
#139=LINE('',#965,#191);
#140=LINE('',#966,#192);
#141=LINE('',#970,#193);
#142=LINE('',#973,#194);
#143=LINE('',#978,#195);
#144=LINE('',#983,#196);
#145=LINE('',#984,#197);
#146=LINE('',#987,#198);
#147=LINE('',#988,#199);
#148=LINE('',#992,#200);
#149=LINE('',#995,#201);
#150=LINE('',#996,#202);
#151=LINE('',#1000,#203);
#152=LINE('',#1003,#204);
#153=LINE('',#1004,#205);
#154=LINE('',#1008,#206);
#155=LINE('',#1010,#207);
#156=LINE('',#1013,#208);
#157=LINE('',#1015,#209);
#158=LINE('',#1016,#210);
#159=LINE('',#1021,#211);
#160=LINE('',#1025,#212);
#161=LINE('',#1026,#213);
#162=VECTOR('',#687,0.16);
#163=VECTOR('',#694,0.16);
#164=VECTOR('',#701,0.16);
#165=VECTOR('',#708,0.16);
#166=VECTOR('',#715,1.);
#167=VECTOR('',#718,1.);
#168=VECTOR('',#721,1.);
#169=VECTOR('',#724,1.);
#170=VECTOR('',#727,1.);
#171=VECTOR('',#728,1.);
#172=VECTOR('',#729,1.);
#173=VECTOR('',#730,1.);
#174=VECTOR('',#731,1.);
#175=VECTOR('',#732,1.);
#176=VECTOR('',#739,1.);
#177=VECTOR('',#742,1.);
#178=VECTOR('',#749,1.);
#179=VECTOR('',#752,1.);
#180=VECTOR('',#755,1.);
#181=VECTOR('',#756,1.);
#182=VECTOR('',#759,1.);
#183=VECTOR('',#760,1.);
#184=VECTOR('',#763,1.);
#185=VECTOR('',#766,1.);
#186=VECTOR('',#769,1.);
#187=VECTOR('',#774,1.);
#188=VECTOR('',#775,1.);
#189=VECTOR('',#776,1.);
#190=VECTOR('',#777,1.);
#191=VECTOR('',#778,1.);
#192=VECTOR('',#779,1.);
#193=VECTOR('',#784,1.);
#194=VECTOR('',#787,1.);
#195=VECTOR('',#794,1.);
#196=VECTOR('',#799,1.);
#197=VECTOR('',#800,1.);
#198=VECTOR('',#803,1.);
#199=VECTOR('',#804,1.);
#200=VECTOR('',#809,1.);
#201=VECTOR('',#812,1.);
#202=VECTOR('',#813,1.);
#203=VECTOR('',#818,1.);
#204=VECTOR('',#821,1.);
#205=VECTOR('',#822,1.);
#206=VECTOR('',#827,1.);
#207=VECTOR('',#830,1.);
#208=VECTOR('',#833,1.);
#209=VECTOR('',#834,1.);
#210=VECTOR('',#835,1.);
#211=VECTOR('',#842,1.);
#212=VECTOR('',#847,1.);
#213=VECTOR('',#848,1.);
#214=CIRCLE('',#619,0.16);
#215=CIRCLE('',#620,0.16);
#216=CIRCLE('',#622,0.16);
#217=CIRCLE('',#623,0.16);
#218=CIRCLE('',#625,0.16);
#219=CIRCLE('',#626,0.16);
#220=CIRCLE('',#628,0.16);
#221=CIRCLE('',#629,0.16);
#222=CIRCLE('',#631,0.5);
#223=CIRCLE('',#632,0.5);
#224=CIRCLE('',#634,1.5);
#225=CIRCLE('',#637,0.5);
#226=CIRCLE('',#638,0.5);
#227=CIRCLE('',#640,1.5);
#228=CIRCLE('',#642,0.5);
#229=CIRCLE('',#643,0.5);
#230=CIRCLE('',#645,0.5);
#231=CIRCLE('',#646,1.8);
#232=CIRCLE('',#647,1.8);
#233=CIRCLE('',#648,1.8);
#234=CIRCLE('',#649,1.8);
#235=CIRCLE('',#652,0.5);
#236=CIRCLE('',#654,1.5);
#237=CIRCLE('',#656,1.5);
#238=CIRCLE('',#658,1.8);
#239=CIRCLE('',#661,1.8);
#240=CIRCLE('',#664,1.8);
#241=CIRCLE('',#667,1.8);
#242=CIRCLE('',#671,1.5);
#243=CIRCLE('',#673,1.5);
#244=CIRCLE('',#676,1.5);
#245=CIRCLE('',#678,1.5);
#246=VERTEX_POINT('',#863);
#247=VERTEX_POINT('',#865);
#248=VERTEX_POINT('',#869);
#249=VERTEX_POINT('',#871);
#250=VERTEX_POINT('',#875);
#251=VERTEX_POINT('',#877);
#252=VERTEX_POINT('',#881);
#253=VERTEX_POINT('',#883);
#254=VERTEX_POINT('',#887);
#255=VERTEX_POINT('',#888);
#256=VERTEX_POINT('',#890);
#257=VERTEX_POINT('',#892);
#258=VERTEX_POINT('',#896);
#259=VERTEX_POINT('',#898);
#260=VERTEX_POINT('',#902);
#261=VERTEX_POINT('',#904);
#262=VERTEX_POINT('',#906);
#263=VERTEX_POINT('',#908);
#264=VERTEX_POINT('',#910);
#265=VERTEX_POINT('',#914);
#266=VERTEX_POINT('',#916);
#267=VERTEX_POINT('',#920);
#268=VERTEX_POINT('',#924);
#269=VERTEX_POINT('',#925);
#270=VERTEX_POINT('',#927);
#271=VERTEX_POINT('',#929);
#272=VERTEX_POINT('',#934);
#273=VERTEX_POINT('',#936);
#274=VERTEX_POINT('',#939);
#275=VERTEX_POINT('',#940);
#276=VERTEX_POINT('',#942);
#277=VERTEX_POINT('',#944);
#278=VERTEX_POINT('',#946);
#279=VERTEX_POINT('',#948);
#280=VERTEX_POINT('',#950);
#281=VERTEX_POINT('',#952);
#282=VERTEX_POINT('',#956);
#283=VERTEX_POINT('',#958);
#284=VERTEX_POINT('',#960);
#285=VERTEX_POINT('',#962);
#286=VERTEX_POINT('',#964);
#287=VERTEX_POINT('',#968);
#288=VERTEX_POINT('',#972);
#289=VERTEX_POINT('',#976);
#290=VERTEX_POINT('',#980);
#291=VERTEX_POINT('',#981);
#292=VERTEX_POINT('',#986);
#293=VERTEX_POINT('',#990);
#294=VERTEX_POINT('',#994);
#295=VERTEX_POINT('',#998);
#296=VERTEX_POINT('',#1002);
#297=VERTEX_POINT('',#1006);
#298=VERTEX_POINT('',#1012);
#299=VERTEX_POINT('',#1014);
#300=VERTEX_POINT('',#1020);
#301=VERTEX_POINT('',#1024);
#302=EDGE_CURVE('',#246,#246,#214,.T.);
#303=EDGE_CURVE('',#246,#247,#110,.T.);
#304=EDGE_CURVE('',#247,#247,#215,.T.);
#305=EDGE_CURVE('',#248,#248,#216,.T.);
#306=EDGE_CURVE('',#248,#249,#111,.T.);
#307=EDGE_CURVE('',#249,#249,#217,.T.);
#308=EDGE_CURVE('',#250,#250,#218,.T.);
#309=EDGE_CURVE('',#250,#251,#112,.T.);
#310=EDGE_CURVE('',#251,#251,#219,.T.);
#311=EDGE_CURVE('',#252,#252,#220,.T.);
#312=EDGE_CURVE('',#252,#253,#113,.T.);
#313=EDGE_CURVE('',#253,#253,#221,.T.);
#314=EDGE_CURVE('',#254,#255,#222,.T.);
#315=EDGE_CURVE('',#255,#256,#114,.T.);
#316=EDGE_CURVE('',#256,#257,#223,.T.);
#317=EDGE_CURVE('',#257,#254,#115,.T.);
#318=EDGE_CURVE('',#254,#258,#116,.T.);
#319=EDGE_CURVE('',#259,#258,#224,.T.);
#320=EDGE_CURVE('',#259,#255,#117,.T.);
#321=EDGE_CURVE('',#260,#257,#118,.T.);
#322=EDGE_CURVE('',#261,#260,#119,.T.);
#323=EDGE_CURVE('',#262,#261,#120,.T.);
#324=EDGE_CURVE('',#263,#262,#121,.T.);
#325=EDGE_CURVE('',#263,#264,#122,.T.);
#326=EDGE_CURVE('',#264,#258,#123,.T.);
#327=EDGE_CURVE('',#265,#261,#225,.T.);
#328=EDGE_CURVE('',#260,#266,#226,.T.);
#329=EDGE_CURVE('',#266,#265,#124,.T.);
#330=EDGE_CURVE('',#265,#267,#125,.T.);
#331=EDGE_CURVE('',#262,#267,#227,.T.);
#332=EDGE_CURVE('',#268,#269,#228,.T.);
#333=EDGE_CURVE('',#269,#270,#126,.T.);
#334=EDGE_CURVE('',#270,#271,#229,.T.);
#335=EDGE_CURVE('',#271,#268,#127,.T.);
#336=EDGE_CURVE('',#256,#271,#128,.T.);
#337=EDGE_CURVE('',#270,#272,#129,.T.);
#338=EDGE_CURVE('',#273,#272,#230,.T.);
#339=EDGE_CURVE('',#273,#266,#130,.T.);
#340=EDGE_CURVE('',#274,#275,#131,.T.);
#341=EDGE_CURVE('',#275,#276,#231,.T.);
#342=EDGE_CURVE('',#276,#277,#132,.T.);
#343=EDGE_CURVE('',#277,#278,#232,.T.);
#344=EDGE_CURVE('',#278,#279,#133,.T.);
#345=EDGE_CURVE('',#279,#280,#233,.T.);
#346=EDGE_CURVE('',#280,#281,#134,.T.);
#347=EDGE_CURVE('',#281,#274,#234,.T.);
#348=EDGE_CURVE('',#282,#269,#135,.T.);
#349=EDGE_CURVE('',#283,#282,#136,.T.);
#350=EDGE_CURVE('',#283,#284,#137,.T.);
#351=EDGE_CURVE('',#284,#285,#138,.T.);
#352=EDGE_CURVE('',#286,#285,#139,.T.);
#353=EDGE_CURVE('',#272,#286,#140,.T.);
#354=EDGE_CURVE('',#286,#287,#235,.T.);
#355=EDGE_CURVE('',#287,#273,#141,.T.);
#356=EDGE_CURVE('',#268,#288,#142,.T.);
#357=EDGE_CURVE('',#282,#288,#236,.T.);
#358=EDGE_CURVE('',#289,#285,#237,.T.);
#359=EDGE_CURVE('',#289,#287,#143,.T.);
#360=EDGE_CURVE('',#290,#291,#238,.T.);
#361=EDGE_CURVE('',#290,#274,#144,.T.);
#362=EDGE_CURVE('',#291,#281,#145,.T.);
#363=EDGE_CURVE('',#291,#292,#146,.T.);
#364=EDGE_CURVE('',#292,#280,#147,.T.);
#365=EDGE_CURVE('',#292,#293,#239,.T.);
#366=EDGE_CURVE('',#293,#279,#148,.T.);
#367=EDGE_CURVE('',#293,#294,#149,.T.);
#368=EDGE_CURVE('',#294,#278,#150,.T.);
#369=EDGE_CURVE('',#294,#295,#240,.T.);
#370=EDGE_CURVE('',#295,#277,#151,.T.);
#371=EDGE_CURVE('',#295,#296,#152,.T.);
#372=EDGE_CURVE('',#296,#276,#153,.T.);
#373=EDGE_CURVE('',#296,#297,#241,.T.);
#374=EDGE_CURVE('',#297,#275,#154,.T.);
#375=EDGE_CURVE('',#297,#290,#155,.T.);
#376=EDGE_CURVE('',#298,#259,#156,.T.);
#377=EDGE_CURVE('',#298,#299,#157,.T.);
#378=EDGE_CURVE('',#299,#288,#158,.T.);
#379=EDGE_CURVE('',#264,#298,#242,.T.);
#380=EDGE_CURVE('',#300,#267,#159,.T.);
#381=EDGE_CURVE('',#300,#263,#243,.T.);
#382=EDGE_CURVE('',#301,#289,#160,.T.);
#383=EDGE_CURVE('',#301,#300,#161,.T.);
#384=EDGE_CURVE('',#284,#301,#244,.T.);
#385=EDGE_CURVE('',#299,#283,#245,.T.);
#386=ORIENTED_EDGE('',*,*,#302,.F.);
#387=ORIENTED_EDGE('',*,*,#303,.T.);
#388=ORIENTED_EDGE('',*,*,#304,.F.);
#389=ORIENTED_EDGE('',*,*,#303,.F.);
#390=ORIENTED_EDGE('',*,*,#305,.F.);
#391=ORIENTED_EDGE('',*,*,#306,.T.);
#392=ORIENTED_EDGE('',*,*,#307,.F.);
#393=ORIENTED_EDGE('',*,*,#306,.F.);
#394=ORIENTED_EDGE('',*,*,#308,.F.);
#395=ORIENTED_EDGE('',*,*,#309,.T.);
#396=ORIENTED_EDGE('',*,*,#310,.F.);
#397=ORIENTED_EDGE('',*,*,#309,.F.);
#398=ORIENTED_EDGE('',*,*,#311,.F.);
#399=ORIENTED_EDGE('',*,*,#312,.T.);
#400=ORIENTED_EDGE('',*,*,#313,.F.);
#401=ORIENTED_EDGE('',*,*,#312,.F.);
#402=ORIENTED_EDGE('',*,*,#314,.T.);
#403=ORIENTED_EDGE('',*,*,#315,.T.);
#404=ORIENTED_EDGE('',*,*,#316,.T.);
#405=ORIENTED_EDGE('',*,*,#317,.T.);
#406=ORIENTED_EDGE('',*,*,#314,.F.);
#407=ORIENTED_EDGE('',*,*,#318,.T.);
#408=ORIENTED_EDGE('',*,*,#319,.F.);
#409=ORIENTED_EDGE('',*,*,#320,.T.);
#410=ORIENTED_EDGE('',*,*,#307,.T.);
#411=ORIENTED_EDGE('',*,*,#317,.F.);
#412=ORIENTED_EDGE('',*,*,#321,.F.);
#413=ORIENTED_EDGE('',*,*,#322,.F.);
#414=ORIENTED_EDGE('',*,*,#323,.F.);
#415=ORIENTED_EDGE('',*,*,#324,.F.);
#416=ORIENTED_EDGE('',*,*,#325,.T.);
#417=ORIENTED_EDGE('',*,*,#326,.T.);
#418=ORIENTED_EDGE('',*,*,#318,.F.);
#419=ORIENTED_EDGE('',*,*,#327,.T.);
#420=ORIENTED_EDGE('',*,*,#322,.T.);
#421=ORIENTED_EDGE('',*,*,#328,.T.);
#422=ORIENTED_EDGE('',*,*,#329,.T.);
#423=ORIENTED_EDGE('',*,*,#327,.F.);
#424=ORIENTED_EDGE('',*,*,#330,.T.);
#425=ORIENTED_EDGE('',*,*,#331,.F.);
#426=ORIENTED_EDGE('',*,*,#323,.T.);
#427=ORIENTED_EDGE('',*,*,#313,.T.);
#428=ORIENTED_EDGE('',*,*,#332,.T.);
#429=ORIENTED_EDGE('',*,*,#333,.T.);
#430=ORIENTED_EDGE('',*,*,#334,.T.);
#431=ORIENTED_EDGE('',*,*,#335,.T.);
#432=ORIENTED_EDGE('',*,*,#316,.F.);
#433=ORIENTED_EDGE('',*,*,#336,.T.);
#434=ORIENTED_EDGE('',*,*,#334,.F.);
#435=ORIENTED_EDGE('',*,*,#337,.T.);
#436=ORIENTED_EDGE('',*,*,#338,.F.);
#437=ORIENTED_EDGE('',*,*,#339,.T.);
#438=ORIENTED_EDGE('',*,*,#328,.F.);
#439=ORIENTED_EDGE('',*,*,#321,.T.);
#440=ORIENTED_EDGE('',*,*,#302,.T.);
#441=ORIENTED_EDGE('',*,*,#305,.T.);
#442=ORIENTED_EDGE('',*,*,#308,.T.);
#443=ORIENTED_EDGE('',*,*,#311,.T.);
#444=ORIENTED_EDGE('',*,*,#340,.T.);
#445=ORIENTED_EDGE('',*,*,#341,.T.);
#446=ORIENTED_EDGE('',*,*,#342,.T.);
#447=ORIENTED_EDGE('',*,*,#343,.T.);
#448=ORIENTED_EDGE('',*,*,#344,.T.);
#449=ORIENTED_EDGE('',*,*,#345,.T.);
#450=ORIENTED_EDGE('',*,*,#346,.T.);
#451=ORIENTED_EDGE('',*,*,#347,.T.);
#452=ORIENTED_EDGE('',*,*,#333,.F.);
#453=ORIENTED_EDGE('',*,*,#348,.F.);
#454=ORIENTED_EDGE('',*,*,#349,.F.);
#455=ORIENTED_EDGE('',*,*,#350,.T.);
#456=ORIENTED_EDGE('',*,*,#351,.T.);
#457=ORIENTED_EDGE('',*,*,#352,.F.);
#458=ORIENTED_EDGE('',*,*,#353,.F.);
#459=ORIENTED_EDGE('',*,*,#337,.F.);
#460=ORIENTED_EDGE('',*,*,#354,.T.);
#461=ORIENTED_EDGE('',*,*,#355,.T.);
#462=ORIENTED_EDGE('',*,*,#338,.T.);
#463=ORIENTED_EDGE('',*,*,#353,.T.);
#464=ORIENTED_EDGE('',*,*,#332,.F.);
#465=ORIENTED_EDGE('',*,*,#356,.T.);
#466=ORIENTED_EDGE('',*,*,#357,.F.);
#467=ORIENTED_EDGE('',*,*,#348,.T.);
#468=ORIENTED_EDGE('',*,*,#304,.T.);
#469=ORIENTED_EDGE('',*,*,#354,.F.);
#470=ORIENTED_EDGE('',*,*,#352,.T.);
#471=ORIENTED_EDGE('',*,*,#358,.F.);
#472=ORIENTED_EDGE('',*,*,#359,.T.);
#473=ORIENTED_EDGE('',*,*,#310,.T.);
#474=ORIENTED_EDGE('',*,*,#360,.F.);
#475=ORIENTED_EDGE('',*,*,#361,.T.);
#476=ORIENTED_EDGE('',*,*,#347,.F.);
#477=ORIENTED_EDGE('',*,*,#362,.F.);
#478=ORIENTED_EDGE('',*,*,#363,.F.);
#479=ORIENTED_EDGE('',*,*,#362,.T.);
#480=ORIENTED_EDGE('',*,*,#346,.F.);
#481=ORIENTED_EDGE('',*,*,#364,.F.);
#482=ORIENTED_EDGE('',*,*,#365,.F.);
#483=ORIENTED_EDGE('',*,*,#364,.T.);
#484=ORIENTED_EDGE('',*,*,#345,.F.);
#485=ORIENTED_EDGE('',*,*,#366,.F.);
#486=ORIENTED_EDGE('',*,*,#367,.F.);
#487=ORIENTED_EDGE('',*,*,#366,.T.);
#488=ORIENTED_EDGE('',*,*,#344,.F.);
#489=ORIENTED_EDGE('',*,*,#368,.F.);
#490=ORIENTED_EDGE('',*,*,#369,.F.);
#491=ORIENTED_EDGE('',*,*,#368,.T.);
#492=ORIENTED_EDGE('',*,*,#343,.F.);
#493=ORIENTED_EDGE('',*,*,#370,.F.);
#494=ORIENTED_EDGE('',*,*,#371,.F.);
#495=ORIENTED_EDGE('',*,*,#370,.T.);
#496=ORIENTED_EDGE('',*,*,#342,.F.);
#497=ORIENTED_EDGE('',*,*,#372,.F.);
#498=ORIENTED_EDGE('',*,*,#373,.F.);
#499=ORIENTED_EDGE('',*,*,#372,.T.);
#500=ORIENTED_EDGE('',*,*,#341,.F.);
#501=ORIENTED_EDGE('',*,*,#374,.F.);
#502=ORIENTED_EDGE('',*,*,#375,.F.);
#503=ORIENTED_EDGE('',*,*,#374,.T.);
#504=ORIENTED_EDGE('',*,*,#340,.F.);
#505=ORIENTED_EDGE('',*,*,#361,.F.);
#506=ORIENTED_EDGE('',*,*,#315,.F.);
#507=ORIENTED_EDGE('',*,*,#320,.F.);
#508=ORIENTED_EDGE('',*,*,#376,.F.);
#509=ORIENTED_EDGE('',*,*,#377,.T.);
#510=ORIENTED_EDGE('',*,*,#378,.T.);
#511=ORIENTED_EDGE('',*,*,#356,.F.);
#512=ORIENTED_EDGE('',*,*,#335,.F.);
#513=ORIENTED_EDGE('',*,*,#336,.F.);
#514=ORIENTED_EDGE('',*,*,#319,.T.);
#515=ORIENTED_EDGE('',*,*,#326,.F.);
#516=ORIENTED_EDGE('',*,*,#379,.T.);
#517=ORIENTED_EDGE('',*,*,#376,.T.);
#518=ORIENTED_EDGE('',*,*,#331,.T.);
#519=ORIENTED_EDGE('',*,*,#380,.F.);
#520=ORIENTED_EDGE('',*,*,#381,.T.);
#521=ORIENTED_EDGE('',*,*,#324,.T.);
#522=ORIENTED_EDGE('',*,*,#329,.F.);
#523=ORIENTED_EDGE('',*,*,#339,.F.);
#524=ORIENTED_EDGE('',*,*,#355,.F.);
#525=ORIENTED_EDGE('',*,*,#359,.F.);
#526=ORIENTED_EDGE('',*,*,#382,.F.);
#527=ORIENTED_EDGE('',*,*,#383,.T.);
#528=ORIENTED_EDGE('',*,*,#380,.T.);
#529=ORIENTED_EDGE('',*,*,#330,.F.);
#530=ORIENTED_EDGE('',*,*,#358,.T.);
#531=ORIENTED_EDGE('',*,*,#351,.F.);
#532=ORIENTED_EDGE('',*,*,#384,.T.);
#533=ORIENTED_EDGE('',*,*,#382,.T.);
#534=ORIENTED_EDGE('',*,*,#357,.T.);
#535=ORIENTED_EDGE('',*,*,#378,.F.);
#536=ORIENTED_EDGE('',*,*,#385,.T.);
#537=ORIENTED_EDGE('',*,*,#349,.T.);
#538=ORIENTED_EDGE('',*,*,#360,.T.);
#539=ORIENTED_EDGE('',*,*,#363,.T.);
#540=ORIENTED_EDGE('',*,*,#365,.T.);
#541=ORIENTED_EDGE('',*,*,#367,.T.);
#542=ORIENTED_EDGE('',*,*,#369,.T.);
#543=ORIENTED_EDGE('',*,*,#371,.T.);
#544=ORIENTED_EDGE('',*,*,#373,.T.);
#545=ORIENTED_EDGE('',*,*,#375,.T.);
#546=ORIENTED_EDGE('',*,*,#385,.F.);
#547=ORIENTED_EDGE('',*,*,#377,.F.);
#548=ORIENTED_EDGE('',*,*,#379,.F.);
#549=ORIENTED_EDGE('',*,*,#325,.F.);
#550=ORIENTED_EDGE('',*,*,#381,.F.);
#551=ORIENTED_EDGE('',*,*,#383,.F.);
#552=ORIENTED_EDGE('',*,*,#384,.F.);
#553=ORIENTED_EDGE('',*,*,#350,.F.);
#554=CYLINDRICAL_SURFACE('',#618,0.16);
#555=CYLINDRICAL_SURFACE('',#621,0.16);
#556=CYLINDRICAL_SURFACE('',#624,0.16);
#557=CYLINDRICAL_SURFACE('',#627,0.16);
#558=CYLINDRICAL_SURFACE('',#630,0.5);
#559=CYLINDRICAL_SURFACE('',#636,0.5);
#560=CYLINDRICAL_SURFACE('',#641,0.5);
#561=CYLINDRICAL_SURFACE('',#651,0.5);
#562=CYLINDRICAL_SURFACE('',#657,1.8);
#563=CYLINDRICAL_SURFACE('',#660,1.8);
#564=CYLINDRICAL_SURFACE('',#663,1.8);
#565=CYLINDRICAL_SURFACE('',#666,1.8);
#566=CYLINDRICAL_SURFACE('',#670,1.5);
#567=CYLINDRICAL_SURFACE('',#672,1.5);
#568=CYLINDRICAL_SURFACE('',#675,1.5);
#569=CYLINDRICAL_SURFACE('',#677,1.5);
#570=ADVANCED_FACE('',(#39),#554,.F.);
#571=ADVANCED_FACE('',(#40),#555,.F.);
#572=ADVANCED_FACE('',(#41),#556,.F.);
#573=ADVANCED_FACE('',(#42),#557,.F.);
#574=ADVANCED_FACE('',(#43),#558,.T.);
#575=ADVANCED_FACE('',(#44,#15),#24,.F.);
#576=ADVANCED_FACE('',(#45),#25,.T.);
#577=ADVANCED_FACE('',(#46),#559,.T.);
#578=ADVANCED_FACE('',(#47,#16),#26,.F.);
#579=ADVANCED_FACE('',(#48),#560,.T.);
#580=ADVANCED_FACE('',(#49,#17,#18,#19,#20,#21),#27,.T.);
#581=ADVANCED_FACE('',(#50),#28,.T.);
#582=ADVANCED_FACE('',(#51),#561,.T.);
#583=ADVANCED_FACE('',(#52,#22),#29,.F.);
#584=ADVANCED_FACE('',(#53,#23),#30,.F.);
#585=ADVANCED_FACE('',(#54),#562,.T.);
#586=ADVANCED_FACE('',(#55),#31,.T.);
#587=ADVANCED_FACE('',(#56),#563,.T.);
#588=ADVANCED_FACE('',(#57),#32,.T.);
#589=ADVANCED_FACE('',(#58),#564,.T.);
#590=ADVANCED_FACE('',(#59),#33,.T.);
#591=ADVANCED_FACE('',(#60),#565,.T.);
#592=ADVANCED_FACE('',(#61),#34,.T.);
#593=ADVANCED_FACE('',(#62),#35,.T.);
#594=ADVANCED_FACE('',(#63),#566,.F.);
#595=ADVANCED_FACE('',(#64),#567,.F.);
#596=ADVANCED_FACE('',(#65),#36,.T.);
#597=ADVANCED_FACE('',(#66),#568,.F.);
#598=ADVANCED_FACE('',(#67),#569,.F.);
#599=ADVANCED_FACE('',(#68),#37,.T.);
#600=ADVANCED_FACE('',(#69),#38,.F.);
#601=CLOSED_SHELL('',(#570,#571,#572,#573,#574,#575,#576,#577,#578,#579,
#580,#581,#582,#583,#584,#585,#586,#587,#588,#589,#590,#591,#592,#593,#594,
#595,#596,#597,#598,#599,#600));
#602=DERIVED_UNIT_ELEMENT(#605,1.);
#603=DERIVED_UNIT_ELEMENT(#1037,-3.);
#604=DIMENSIONAL_EXPONENTS(0.,1.,0.,0.,0.,0.,0.);
#605=(
CONVERSION_BASED_UNIT('gram',#607)
MASS_UNIT()
NAMED_UNIT(#604)
);
#606=(
MASS_UNIT()
NAMED_UNIT(*)
SI_UNIT(.KILO.,.GRAM.)
);
#607=MASS_MEASURE_WITH_UNIT(MASS_MEASURE(0.001),#606);
#608=DERIVED_UNIT((#602,#603));
#609=MEASURE_REPRESENTATION_ITEM('density measure',
POSITIVE_RATIO_MEASURE(1.),#608);
#610=PROPERTY_DEFINITION_REPRESENTATION(#615,#612);
#611=PROPERTY_DEFINITION_REPRESENTATION(#616,#613);
#612=REPRESENTATION('material name',(#614),#1035);
#613=REPRESENTATION('density',(#609),#1035);
#614=DESCRIPTIVE_REPRESENTATION_ITEM('Generic','Generic');
#615=PROPERTY_DEFINITION('material property','material name',#1044);
#616=PROPERTY_DEFINITION('material property','density of part',#1044);
#617=AXIS2_PLACEMENT_3D('',#861,#681,#682);
#618=AXIS2_PLACEMENT_3D('',#862,#683,#684);
#619=AXIS2_PLACEMENT_3D('',#864,#685,#686);
#620=AXIS2_PLACEMENT_3D('',#867,#688,#689);
#621=AXIS2_PLACEMENT_3D('',#868,#690,#691);
#622=AXIS2_PLACEMENT_3D('',#870,#692,#693);
#623=AXIS2_PLACEMENT_3D('',#873,#695,#696);
#624=AXIS2_PLACEMENT_3D('',#874,#697,#698);
#625=AXIS2_PLACEMENT_3D('',#876,#699,#700);
#626=AXIS2_PLACEMENT_3D('',#879,#702,#703);
#627=AXIS2_PLACEMENT_3D('',#880,#704,#705);
#628=AXIS2_PLACEMENT_3D('',#882,#706,#707);
#629=AXIS2_PLACEMENT_3D('',#885,#709,#710);
#630=AXIS2_PLACEMENT_3D('',#886,#711,#712);
#631=AXIS2_PLACEMENT_3D('',#889,#713,#714);
#632=AXIS2_PLACEMENT_3D('',#893,#716,#717);
#633=AXIS2_PLACEMENT_3D('',#895,#719,#720);
#634=AXIS2_PLACEMENT_3D('',#899,#722,#723);
#635=AXIS2_PLACEMENT_3D('',#901,#725,#726);
#636=AXIS2_PLACEMENT_3D('',#913,#733,#734);
#637=AXIS2_PLACEMENT_3D('',#915,#735,#736);
#638=AXIS2_PLACEMENT_3D('',#917,#737,#738);
#639=AXIS2_PLACEMENT_3D('',#919,#740,#741);
#640=AXIS2_PLACEMENT_3D('',#922,#743,#744);
#641=AXIS2_PLACEMENT_3D('',#923,#745,#746);
#642=AXIS2_PLACEMENT_3D('',#926,#747,#748);
#643=AXIS2_PLACEMENT_3D('',#930,#750,#751);
#644=AXIS2_PLACEMENT_3D('',#932,#753,#754);
#645=AXIS2_PLACEMENT_3D('',#937,#757,#758);
#646=AXIS2_PLACEMENT_3D('',#943,#761,#762);
#647=AXIS2_PLACEMENT_3D('',#947,#764,#765);
#648=AXIS2_PLACEMENT_3D('',#951,#767,#768);
#649=AXIS2_PLACEMENT_3D('',#954,#770,#771);
#650=AXIS2_PLACEMENT_3D('',#955,#772,#773);
#651=AXIS2_PLACEMENT_3D('',#967,#780,#781);
#652=AXIS2_PLACEMENT_3D('',#969,#782,#783);
#653=AXIS2_PLACEMENT_3D('',#971,#785,#786);
#654=AXIS2_PLACEMENT_3D('',#974,#788,#789);
#655=AXIS2_PLACEMENT_3D('',#975,#790,#791);
#656=AXIS2_PLACEMENT_3D('',#977,#792,#793);
#657=AXIS2_PLACEMENT_3D('',#979,#795,#796);
#658=AXIS2_PLACEMENT_3D('',#982,#797,#798);
#659=AXIS2_PLACEMENT_3D('',#985,#801,#802);
#660=AXIS2_PLACEMENT_3D('',#989,#805,#806);
#661=AXIS2_PLACEMENT_3D('',#991,#807,#808);
#662=AXIS2_PLACEMENT_3D('',#993,#810,#811);
#663=AXIS2_PLACEMENT_3D('',#997,#814,#815);
#664=AXIS2_PLACEMENT_3D('',#999,#816,#817);
#665=AXIS2_PLACEMENT_3D('',#1001,#819,#820);
#666=AXIS2_PLACEMENT_3D('',#1005,#823,#824);
#667=AXIS2_PLACEMENT_3D('',#1007,#825,#826);
#668=AXIS2_PLACEMENT_3D('',#1009,#828,#829);
#669=AXIS2_PLACEMENT_3D('',#1011,#831,#832);
#670=AXIS2_PLACEMENT_3D('',#1017,#836,#837);
#671=AXIS2_PLACEMENT_3D('',#1018,#838,#839);
#672=AXIS2_PLACEMENT_3D('',#1019,#840,#841);
#673=AXIS2_PLACEMENT_3D('',#1022,#843,#844);
#674=AXIS2_PLACEMENT_3D('',#1023,#845,#846);
#675=AXIS2_PLACEMENT_3D('',#1027,#849,#850);
#676=AXIS2_PLACEMENT_3D('',#1028,#851,#852);
#677=AXIS2_PLACEMENT_3D('',#1029,#853,#854);
#678=AXIS2_PLACEMENT_3D('',#1030,#855,#856);
#679=AXIS2_PLACEMENT_3D('',#1031,#857,#858);
#680=AXIS2_PLACEMENT_3D('',#1032,#859,#860);
#681=DIRECTION('axis',(0.,0.,1.));
#682=DIRECTION('refdir',(1.,0.,0.));
#683=DIRECTION('center_axis',(0.,0.,-1.));
#684=DIRECTION('ref_axis',(1.,0.,0.));
#685=DIRECTION('center_axis',(0.,0.,-1.));
#686=DIRECTION('ref_axis',(1.,0.,0.));
#687=DIRECTION('',(0.,0.,-1.));
#688=DIRECTION('center_axis',(0.,0.,1.));
#689=DIRECTION('ref_axis',(1.,0.,0.));
#690=DIRECTION('center_axis',(0.,0.,-1.));
#691=DIRECTION('ref_axis',(1.,0.,0.));
#692=DIRECTION('center_axis',(0.,0.,-1.));
#693=DIRECTION('ref_axis',(1.,0.,0.));
#694=DIRECTION('',(0.,0.,-1.));
#695=DIRECTION('center_axis',(0.,0.,1.));
#696=DIRECTION('ref_axis',(1.,0.,0.));
#697=DIRECTION('center_axis',(0.,0.,-1.));
#698=DIRECTION('ref_axis',(1.,0.,0.));
#699=DIRECTION('center_axis',(0.,0.,-1.));
#700=DIRECTION('ref_axis',(1.,0.,0.));
#701=DIRECTION('',(0.,0.,-1.));
#702=DIRECTION('center_axis',(0.,0.,1.));
#703=DIRECTION('ref_axis',(1.,0.,0.));
#704=DIRECTION('center_axis',(0.,0.,-1.));
#705=DIRECTION('ref_axis',(1.,0.,0.));
#706=DIRECTION('center_axis',(0.,0.,-1.));
#707=DIRECTION('ref_axis',(1.,0.,0.));
#708=DIRECTION('',(0.,0.,-1.));
#709=DIRECTION('center_axis',(0.,0.,1.));
#710=DIRECTION('ref_axis',(1.,0.,0.));
#711=DIRECTION('center_axis',(0.,0.,-1.));
#712=DIRECTION('ref_axis',(-0.707106781186548,0.707106781186548,0.));
#713=DIRECTION('center_axis',(0.,0.,1.));
#714=DIRECTION('ref_axis',(-0.707106781186548,0.707106781186548,0.));
#715=DIRECTION('',(0.,0.,1.));
#716=DIRECTION('center_axis',(0.,0.,-1.));
#717=DIRECTION('ref_axis',(-0.707106781186548,0.707106781186548,0.));
#718=DIRECTION('',(0.,0.,-1.));
#719=DIRECTION('center_axis',(0.,0.,1.));
#720=DIRECTION('ref_axis',(1.,0.,0.));
#721=DIRECTION('',(1.,0.,0.));
#722=DIRECTION('center_axis',(0.,0.,1.));
#723=DIRECTION('ref_axis',(4.736951571734E-15,1.,0.));
#724=DIRECTION('',(-1.4210854715202E-16,1.,0.));
#725=DIRECTION('center_axis',(0.,1.,0.));
#726=DIRECTION('ref_axis',(-1.,0.,0.));
#727=DIRECTION('',(-1.,0.,0.));
#728=DIRECTION('',(0.,0.,1.));
#729=DIRECTION('',(1.,0.,0.));
#730=DIRECTION('',(0.,0.,1.));
#731=DIRECTION('',(-1.,0.,0.));
#732=DIRECTION('',(0.,0.,1.));
#733=DIRECTION('center_axis',(0.,0.,-1.));
#734=DIRECTION('ref_axis',(0.707106781186548,0.707106781186548,0.));
#735=DIRECTION('center_axis',(0.,0.,1.));
#736=DIRECTION('ref_axis',(0.707106781186548,0.707106781186548,0.));
#737=DIRECTION('center_axis',(0.,0.,-1.));
#738=DIRECTION('ref_axis',(0.707106781186548,0.707106781186548,0.));
#739=DIRECTION('',(0.,0.,-1.));
#740=DIRECTION('center_axis',(0.,0.,1.));
#741=DIRECTION('ref_axis',(1.,0.,0.));
#742=DIRECTION('',(7.105427357601E-17,-1.,0.));
#743=DIRECTION('center_axis',(0.,0.,1.));
#744=DIRECTION('ref_axis',(1.,0.,0.));
#745=DIRECTION('center_axis',(0.,0.,-1.));
#746=DIRECTION('ref_axis',(-0.707106781186548,-0.707106781186548,0.));
#747=DIRECTION('center_axis',(0.,0.,1.));
#748=DIRECTION('ref_axis',(-0.707106781186548,-0.707106781186548,0.));
#749=DIRECTION('',(0.,0.,1.));
#750=DIRECTION('center_axis',(0.,0.,-1.));
#751=DIRECTION('ref_axis',(-0.707106781186548,-0.707106781186548,0.));
#752=DIRECTION('',(0.,0.,-1.));
#753=DIRECTION('center_axis',(0.,0.,1.));
#754=DIRECTION('ref_axis',(1.,0.,0.));
#755=DIRECTION('',(1.4210854715202E-16,-1.,0.));
#756=DIRECTION('',(1.,1.4210854715202E-16,0.));
#757=DIRECTION('center_axis',(0.,0.,-1.));
#758=DIRECTION('ref_axis',(0.707106781186548,-0.707106781186548,0.));
#759=DIRECTION('',(-7.105427357601E-17,1.,0.));
#760=DIRECTION('',(1.,1.65624958380451E-16,0.));
#761=DIRECTION('center_axis',(0.,0.,1.));
#762=DIRECTION('ref_axis',(-0.986013297183269,-0.166666666666667,0.));
#763=DIRECTION('',(2.48437437570677E-16,-1.,0.));
#764=DIRECTION('center_axis',(0.,0.,1.));
#765=DIRECTION('ref_axis',(-0.166666666666669,0.986013297183269,0.));
#766=DIRECTION('',(-1.,-2.48437437570677E-16,0.));
#767=DIRECTION('center_axis',(0.,0.,1.));
#768=DIRECTION('ref_axis',(0.986013297183269,0.166666666666667,0.));
#769=DIRECTION('',(8.28124791902257E-17,1.,0.));
#770=DIRECTION('center_axis',(0.,0.,1.));
#771=DIRECTION('ref_axis',(0.166666666666663,-0.98601329718327,0.));
#772=DIRECTION('center_axis',(8.07434927000114E-17,-1.,0.));
#773=DIRECTION('ref_axis',(1.,8.07434927000114E-17,0.));
#774=DIRECTION('',(-1.,-1.4210854715202E-16,0.));
#775=DIRECTION('',(0.,0.,1.));
#776=DIRECTION('',(1.,8.07434927000114E-17,0.));
#777=DIRECTION('',(0.,0.,1.));
#778=DIRECTION('',(-1.,-1.4210854715202E-16,0.));
#779=DIRECTION('',(0.,0.,-1.));
#780=DIRECTION('center_axis',(0.,0.,-1.));
#781=DIRECTION('ref_axis',(0.707106781186548,-0.707106781186548,0.));
#782=DIRECTION('center_axis',(0.,0.,1.));
#783=DIRECTION('ref_axis',(0.707106781186548,-0.707106781186548,0.));
#784=DIRECTION('',(0.,0.,1.));
#785=DIRECTION('center_axis',(0.,0.,1.));
#786=DIRECTION('ref_axis',(1.,0.,0.));
#787=DIRECTION('',(-1.4210854715202E-16,1.,0.));
#788=DIRECTION('center_axis',(0.,0.,1.));
#789=DIRECTION('ref_axis',(-1.,1.1842378929335E-15,0.));
#790=DIRECTION('center_axis',(0.,0.,1.));
#791=DIRECTION('ref_axis',(1.,0.,0.));
#792=DIRECTION('center_axis',(0.,0.,1.));
#793=DIRECTION('ref_axis',(2.368475785867E-15,-1.,0.));
#794=DIRECTION('',(7.105427357601E-17,-1.,0.));
#795=DIRECTION('center_axis',(0.,0.,1.));
#796=DIRECTION('ref_axis',(0.166666666666663,-0.98601329718327,0.));
#797=DIRECTION('center_axis',(0.,0.,-1.));
#798=DIRECTION('ref_axis',(0.166666666666663,-0.98601329718327,0.));
#799=DIRECTION('',(0.,0.,1.));
#800=DIRECTION('',(0.,0.,1.));
#801=DIRECTION('center_axis',(1.,-8.28124791902257E-17,0.));
#802=DIRECTION('ref_axis',(8.28124791902257E-17,1.,0.));
#803=DIRECTION('',(-8.28124791902257E-17,-1.,0.));
#804=DIRECTION('',(0.,0.,1.));
#805=DIRECTION('center_axis',(0.,0.,1.));
#806=DIRECTION('ref_axis',(0.986013297183269,0.166666666666667,0.));
#807=DIRECTION('center_axis',(0.,0.,-1.));
#808=DIRECTION('ref_axis',(0.986013297183269,0.166666666666667,0.));
#809=DIRECTION('',(0.,0.,1.));
#810=DIRECTION('center_axis',(-2.48437437570677E-16,1.,0.));
#811=DIRECTION('ref_axis',(-1.,-2.48437437570677E-16,0.));
#812=DIRECTION('',(1.,2.48437437570677E-16,0.));
#813=DIRECTION('',(0.,0.,1.));
#814=DIRECTION('center_axis',(0.,0.,1.));
#815=DIRECTION('ref_axis',(-0.166666666666669,0.986013297183269,0.));
#816=DIRECTION('center_axis',(0.,0.,-1.));
#817=DIRECTION('ref_axis',(-0.166666666666669,0.986013297183269,0.));
#818=DIRECTION('',(0.,0.,1.));
#819=DIRECTION('center_axis',(-1.,-2.48437437570677E-16,0.));
#820=DIRECTION('ref_axis',(2.48437437570677E-16,-1.,0.));
#821=DIRECTION('',(-2.48437437570677E-16,1.,0.));
#822=DIRECTION('',(0.,0.,1.));
#823=DIRECTION('center_axis',(0.,0.,1.));
#824=DIRECTION('ref_axis',(-0.986013297183269,-0.166666666666667,0.));
#825=DIRECTION('center_axis',(0.,0.,-1.));
#826=DIRECTION('ref_axis',(-0.986013297183269,-0.166666666666667,0.));
#827=DIRECTION('',(0.,0.,1.));
#828=DIRECTION('center_axis',(1.65624958380451E-16,-1.,0.));
#829=DIRECTION('ref_axis',(1.,1.65624958380451E-16,0.));
#830=DIRECTION('',(-1.,-1.65624958380451E-16,0.));
#831=DIRECTION('center_axis',(-1.,-1.61486985400023E-16,0.));
#832=DIRECTION('ref_axis',(1.61486985400023E-16,-1.,0.));
#833=DIRECTION('',(0.,0.,1.));
#834=DIRECTION('',(1.61486985400023E-16,-1.,0.));
#835=DIRECTION('',(0.,0.,1.));
#836=DIRECTION('center_axis',(0.,0.,1.));
#837=DIRECTION('ref_axis',(4.736951571734E-15,1.,0.));
#838=DIRECTION('center_axis',(0.,0.,-1.));
#839=DIRECTION('ref_axis',(4.736951571734E-15,1.,0.));
#840=DIRECTION('center_axis',(0.,0.,1.));
#841=DIRECTION('ref_axis',(1.,0.,0.));
#842=DIRECTION('',(0.,0.,1.));
#843=DIRECTION('center_axis',(0.,0.,-1.));
#844=DIRECTION('ref_axis',(1.,0.,0.));
#845=DIRECTION('center_axis',(1.,-4.03717463500057E-16,0.));
#846=DIRECTION('ref_axis',(4.03717463500057E-16,1.,0.));
#847=DIRECTION('',(0.,0.,1.));
#848=DIRECTION('',(4.03717463500057E-16,1.,0.));
#849=DIRECTION('center_axis',(0.,0.,1.));
#850=DIRECTION('ref_axis',(2.368475785867E-15,-1.,0.));
#851=DIRECTION('center_axis',(0.,0.,-1.));
#852=DIRECTION('ref_axis',(2.368475785867E-15,-1.,0.));
#853=DIRECTION('center_axis',(0.,0.,1.));
#854=DIRECTION('ref_axis',(-1.,1.1842378929335E-15,0.));
#855=DIRECTION('center_axis',(0.,0.,-1.));
#856=DIRECTION('ref_axis',(-1.,1.1842378929335E-15,0.));
#857=DIRECTION('center_axis',(0.,0.,1.));
#858=DIRECTION('ref_axis',(1.,0.,0.));
#859=DIRECTION('center_axis',(0.,0.,1.));
#860=DIRECTION('ref_axis',(1.,0.,0.));
#861=CARTESIAN_POINT('',(0.,0.,0.));
#862=CARTESIAN_POINT('Origin',(-13.3076923076923,-14.8076923362056,1.3));
#863=CARTESIAN_POINT('',(-13.4676923076923,-14.8076923362056,1.3));
#864=CARTESIAN_POINT('Origin',(-13.3076923076923,-14.8076923362056,1.3));
#865=CARTESIAN_POINT('',(-13.4676923076923,-14.8076923362056,1.));
#866=CARTESIAN_POINT('',(-13.4676923076923,-14.8076923362056,1.3));
#867=CARTESIAN_POINT('Origin',(-13.3076923076923,-14.8076923362056,1.));
#868=CARTESIAN_POINT('Origin',(-13.3076923076923,9.19230766379443,1.3));
#869=CARTESIAN_POINT('',(-13.4676923076923,9.19230766379443,1.3));
#870=CARTESIAN_POINT('Origin',(-13.3076923076923,9.19230766379443,1.3));
#871=CARTESIAN_POINT('',(-13.4676923076923,9.19230766379443,1.));
#872=CARTESIAN_POINT('',(-13.4676923076923,9.19230766379443,1.3));
#873=CARTESIAN_POINT('Origin',(-13.3076923076923,9.19230766379443,1.));
#874=CARTESIAN_POINT('Origin',(10.6923076923077,-14.8076923362056,1.3));
#875=CARTESIAN_POINT('',(10.5323076923077,-14.8076923362056,1.3));
#876=CARTESIAN_POINT('Origin',(10.6923076923077,-14.8076923362056,1.3));
#877=CARTESIAN_POINT('',(10.5323076923077,-14.8076923362056,1.));
#878=CARTESIAN_POINT('',(10.5323076923077,-14.8076923362056,1.3));
#879=CARTESIAN_POINT('Origin',(10.6923076923077,-14.8076923362056,1.));
#880=CARTESIAN_POINT('Origin',(10.6923076923077,9.19230766379443,1.3));
#881=CARTESIAN_POINT('',(10.5323076923077,9.19230766379443,1.3));
#882=CARTESIAN_POINT('Origin',(10.6923076923077,9.19230766379443,1.3));
#883=CARTESIAN_POINT('',(10.5323076923077,9.19230766379443,1.));
#884=CARTESIAN_POINT('',(10.5323076923077,9.19230766379443,1.3));
#885=CARTESIAN_POINT('Origin',(10.6923076923077,9.19230766379443,1.));
#886=CARTESIAN_POINT('Origin',(-13.3076923076923,9.19230766379443,0.));
#887=CARTESIAN_POINT('',(-13.3076923076923,9.69230766379443,1.));
#888=CARTESIAN_POINT('',(-13.8076923076923,9.19230766379443,1.));
#889=CARTESIAN_POINT('Origin',(-13.3076923076923,9.19230766379443,1.));
#890=CARTESIAN_POINT('',(-13.8076923076923,9.19230766379443,1.3));
#891=CARTESIAN_POINT('',(-13.8076923076923,9.19230766379443,0.));
#892=CARTESIAN_POINT('',(-13.3076923076923,9.69230766379443,1.3));
#893=CARTESIAN_POINT('Origin',(-13.3076923076923,9.19230766379443,1.3));
#894=CARTESIAN_POINT('',(-13.3076923076923,9.69230766379443,0.));
#895=CARTESIAN_POINT('Origin',(-13.0576923076923,8.94230766379443,1.));
#896=CARTESIAN_POINT('',(-12.3076923076923,9.69230766379443,1.));
#897=CARTESIAN_POINT('',(11.1923076923077,9.69230766379443,1.));
#898=CARTESIAN_POINT('',(-13.8076923076923,8.19230766379443,1.));
#899=CARTESIAN_POINT('Origin',(-13.8076923076923,9.69230766379443,1.));
#900=CARTESIAN_POINT('',(-13.8076923076923,9.69230766379443,1.));
#901=CARTESIAN_POINT('Origin',(9.6923076923077,9.69230766379443,0.));
#902=CARTESIAN_POINT('',(10.6923076923077,9.69230766379443,1.3));
#903=CARTESIAN_POINT('',(11.1923076923077,9.69230766379443,1.3));
#904=CARTESIAN_POINT('',(10.6923076923077,9.69230766379443,1.));
#905=CARTESIAN_POINT('',(10.6923076923077,9.69230766379443,0.));
#906=CARTESIAN_POINT('',(9.6923076923077,9.69230766379443,1.));
#907=CARTESIAN_POINT('',(11.1923076923077,9.69230766379443,1.));
#908=CARTESIAN_POINT('',(9.6923076923077,9.69230766379443,0.));
#909=CARTESIAN_POINT('',(9.6923076923077,9.69230766379443,0.));
#910=CARTESIAN_POINT('',(-12.3076923076923,9.69230766379443,0.));
#911=CARTESIAN_POINT('',(9.69230769230769,9.69230766379443,0.));
#912=CARTESIAN_POINT('',(-12.3076923076923,9.69230766379443,0.));
#913=CARTESIAN_POINT('Origin',(10.6923076923077,9.19230766379443,0.));
#914=CARTESIAN_POINT('',(11.1923076923077,9.19230766379443,1.));
#915=CARTESIAN_POINT('Origin',(10.6923076923077,9.19230766379443,1.));
#916=CARTESIAN_POINT('',(11.1923076923077,9.19230766379443,1.3));
#917=CARTESIAN_POINT('Origin',(10.6923076923077,9.19230766379443,1.3));
#918=CARTESIAN_POINT('',(11.1923076923077,9.19230766379443,0.));
#919=CARTESIAN_POINT('Origin',(10.4423076923077,8.94230766379443,1.));
#920=CARTESIAN_POINT('',(11.1923076923077,8.19230766379443,1.));
#921=CARTESIAN_POINT('',(11.1923076923077,-15.3076923362056,1.));
#922=CARTESIAN_POINT('Origin',(11.1923076923077,9.69230766379443,1.));
#923=CARTESIAN_POINT('Origin',(-13.3076923076923,-14.8076923362056,0.));
#924=CARTESIAN_POINT('',(-13.8076923076923,-14.8076923362056,1.));
#925=CARTESIAN_POINT('',(-13.3076923076923,-15.3076923362056,1.));
#926=CARTESIAN_POINT('Origin',(-13.3076923076923,-14.8076923362056,1.));
#927=CARTESIAN_POINT('',(-13.3076923076923,-15.3076923362056,1.3));
#928=CARTESIAN_POINT('',(-13.3076923076923,-15.3076923362056,0.));
#929=CARTESIAN_POINT('',(-13.8076923076923,-14.8076923362056,1.3));
#930=CARTESIAN_POINT('Origin',(-13.3076923076923,-14.8076923362056,1.3));
#931=CARTESIAN_POINT('',(-13.8076923076923,-14.8076923362056,0.));
#932=CARTESIAN_POINT('Origin',(-1.30769230769229,-2.80769233620557,1.3));
#933=CARTESIAN_POINT('',(-13.8076923076923,9.69230766379443,1.3));
#934=CARTESIAN_POINT('',(10.6923076923077,-15.3076923362056,1.3));
#935=CARTESIAN_POINT('',(-13.8076923076923,-15.3076923362056,1.3));
#936=CARTESIAN_POINT('',(11.1923076923077,-14.8076923362056,1.3));
#937=CARTESIAN_POINT('Origin',(10.6923076923077,-14.8076923362056,1.3));
#938=CARTESIAN_POINT('',(11.1923076923077,-15.3076923362056,1.3));
#939=CARTESIAN_POINT('',(-12.0328683727624,9.39230766379442,1.3));
#940=CARTESIAN_POINT('',(9.41748375737781,9.39230766379443,1.3));
#941=CARTESIAN_POINT('',(-12.0328683727624,9.39230766379442,1.3));
#942=CARTESIAN_POINT('',(10.8923076923077,7.91748372886454,1.3));
#943=CARTESIAN_POINT('Origin',(11.1923076923077,9.69230766379443,1.3));
#944=CARTESIAN_POINT('',(10.8923076923077,-13.5328684012757,1.3));
#945=CARTESIAN_POINT('',(10.8923076923077,7.91748372886454,1.3));
#946=CARTESIAN_POINT('',(9.41748375737784,-15.0076923362056,1.3));
#947=CARTESIAN_POINT('Origin',(11.1923076923077,-15.3076923362056,1.3));
#948=CARTESIAN_POINT('',(-12.0328683727624,-15.0076923362056,1.3));
#949=CARTESIAN_POINT('',(9.41748375737784,-15.0076923362056,1.3));
#950=CARTESIAN_POINT('',(-13.5076923076923,-13.5328684012757,1.3));
#951=CARTESIAN_POINT('Origin',(-13.8076923076923,-15.3076923362056,1.3));
#952=CARTESIAN_POINT('',(-13.5076923076923,7.91748372886454,1.3));
#953=CARTESIAN_POINT('',(-13.5076923076923,-13.5328684012757,1.3));
#954=CARTESIAN_POINT('Origin',(-13.8076923076923,9.69230766379443,1.3));
#955=CARTESIAN_POINT('Origin',(-12.3076923076923,-15.3076923362056,0.));
#956=CARTESIAN_POINT('',(-12.3076923076923,-15.3076923362056,1.));
#957=CARTESIAN_POINT('',(-13.8076923076923,-15.3076923362056,1.));
#958=CARTESIAN_POINT('',(-12.3076923076923,-15.3076923362056,0.));
#959=CARTESIAN_POINT('',(-12.3076923076923,-15.3076923362056,0.));
#960=CARTESIAN_POINT('',(9.69230769230772,-15.3076923362056,0.));
#961=CARTESIAN_POINT('',(-12.3076923076923,-15.3076923362056,0.));
#962=CARTESIAN_POINT('',(9.69230769230772,-15.3076923362056,1.));
#963=CARTESIAN_POINT('',(9.69230769230772,-15.3076923362056,0.));
#964=CARTESIAN_POINT('',(10.6923076923077,-15.3076923362056,1.));
#965=CARTESIAN_POINT('',(-13.8076923076923,-15.3076923362056,1.));
#966=CARTESIAN_POINT('',(10.6923076923077,-15.3076923362056,0.));
#967=CARTESIAN_POINT('Origin',(10.6923076923077,-14.8076923362056,0.));
#968=CARTESIAN_POINT('',(11.1923076923077,-14.8076923362056,1.));
#969=CARTESIAN_POINT('Origin',(10.6923076923077,-14.8076923362056,1.));
#970=CARTESIAN_POINT('',(11.1923076923077,-14.8076923362056,0.));
#971=CARTESIAN_POINT('Origin',(-13.0576923076923,-14.5576923362056,1.));
#972=CARTESIAN_POINT('',(-13.8076923076923,-13.8076923362056,1.));
#973=CARTESIAN_POINT('',(-13.8076923076923,9.69230766379443,1.));
#974=CARTESIAN_POINT('Origin',(-13.8076923076923,-15.3076923362056,1.));
#975=CARTESIAN_POINT('Origin',(10.4423076923077,-14.5576923362056,1.));
#976=CARTESIAN_POINT('',(11.1923076923077,-13.8076923362056,1.));
#977=CARTESIAN_POINT('Origin',(11.1923076923077,-15.3076923362056,1.));
#978=CARTESIAN_POINT('',(11.1923076923077,-15.3076923362056,1.));
#979=CARTESIAN_POINT('Origin',(-13.8076923076923,9.69230766379443,0.3));
#980=CARTESIAN_POINT('',(-12.0328683727624,9.39230766379442,0.3));
#981=CARTESIAN_POINT('',(-13.5076923076923,7.91748372886454,0.3));
#982=CARTESIAN_POINT('Origin',(-13.8076923076923,9.69230766379443,0.3));
#983=CARTESIAN_POINT('',(-12.0328683727624,9.39230766379442,0.3));
#984=CARTESIAN_POINT('',(-13.5076923076923,7.91748372886454,0.3));
#985=CARTESIAN_POINT('Origin',(-13.5076923076923,-13.5328684012757,0.3));
#986=CARTESIAN_POINT('',(-13.5076923076923,-13.5328684012757,0.3));
#987=CARTESIAN_POINT('',(-13.5076923076923,-8.17028036874063,0.3));
#988=CARTESIAN_POINT('',(-13.5076923076923,-13.5328684012757,0.3));
#989=CARTESIAN_POINT('Origin',(-13.8076923076923,-15.3076923362056,0.3));
#990=CARTESIAN_POINT('',(-12.0328683727624,-15.0076923362056,0.3));
#991=CARTESIAN_POINT('Origin',(-13.8076923076923,-15.3076923362056,0.3));
#992=CARTESIAN_POINT('',(-12.0328683727624,-15.0076923362056,0.3));
#993=CARTESIAN_POINT('Origin',(9.41748375737784,-15.0076923362056,0.3));
#994=CARTESIAN_POINT('',(9.41748375737784,-15.0076923362056,0.3));
#995=CARTESIAN_POINT('',(4.05489572484277,-15.0076923362056,0.3));
#996=CARTESIAN_POINT('',(9.41748375737784,-15.0076923362056,0.3));
#997=CARTESIAN_POINT('Origin',(11.1923076923077,-15.3076923362056,0.3));
#998=CARTESIAN_POINT('',(10.8923076923077,-13.5328684012757,0.3));
#999=CARTESIAN_POINT('Origin',(11.1923076923077,-15.3076923362056,0.3));
#1000=CARTESIAN_POINT('',(10.8923076923077,-13.5328684012757,0.3));
#1001=CARTESIAN_POINT('Origin',(10.8923076923077,7.91748372886454,0.3));
#1002=CARTESIAN_POINT('',(10.8923076923077,7.91748372886454,0.3));
#1003=CARTESIAN_POINT('',(10.8923076923077,2.55489569632948,0.3));
#1004=CARTESIAN_POINT('',(10.8923076923077,7.91748372886454,0.3));
#1005=CARTESIAN_POINT('Origin',(11.1923076923077,9.69230766379443,0.3));
#1006=CARTESIAN_POINT('',(9.41748375737781,9.39230766379443,0.3));
#1007=CARTESIAN_POINT('Origin',(11.1923076923077,9.69230766379443,0.3));
#1008=CARTESIAN_POINT('',(9.41748375737781,9.39230766379443,0.3));
#1009=CARTESIAN_POINT('Origin',(-12.0328683727624,9.39230766379442,0.3));
#1010=CARTESIAN_POINT('',(-6.67028034022736,9.39230766379442,0.3));
#1011=CARTESIAN_POINT('Origin',(-13.8076923076923,8.19230766379443,0.));
#1012=CARTESIAN_POINT('',(-13.8076923076923,8.19230766379443,0.));
#1013=CARTESIAN_POINT('',(-13.8076923076923,8.19230766379443,0.));
#1014=CARTESIAN_POINT('',(-13.8076923076923,-13.8076923362056,0.));
#1015=CARTESIAN_POINT('',(-13.8076923076923,8.19230766379443,0.));
#1016=CARTESIAN_POINT('',(-13.8076923076923,-13.8076923362056,0.));
#1017=CARTESIAN_POINT('Origin',(-13.8076923076923,9.69230766379443,0.));
#1018=CARTESIAN_POINT('Origin',(-13.8076923076923,9.69230766379443,0.));
#1019=CARTESIAN_POINT('Origin',(11.1923076923077,9.69230766379443,0.));
#1020=CARTESIAN_POINT('',(11.1923076923077,8.19230766379443,0.));
#1021=CARTESIAN_POINT('',(11.1923076923077,8.19230766379443,0.));
#1022=CARTESIAN_POINT('Origin',(11.1923076923077,9.69230766379443,0.));
#1023=CARTESIAN_POINT('Origin',(11.1923076923077,-13.8076923362056,0.));
#1024=CARTESIAN_POINT('',(11.1923076923077,-13.8076923362056,0.));
#1025=CARTESIAN_POINT('',(11.1923076923077,-13.8076923362056,0.));
#1026=CARTESIAN_POINT('',(11.1923076923077,-13.8076923362056,0.));
#1027=CARTESIAN_POINT('Origin',(11.1923076923077,-15.3076923362056,0.));
#1028=CARTESIAN_POINT('Origin',(11.1923076923077,-15.3076923362056,0.));
#1029=CARTESIAN_POINT('Origin',(-13.8076923076923,-15.3076923362056,0.));
#1030=CARTESIAN_POINT('Origin',(-13.8076923076923,-15.3076923362056,0.));
#1031=CARTESIAN_POINT('Origin',(-1.30769230769229,-2.80769233620557,0.3));
#1032=CARTESIAN_POINT('Origin',(-1.30769230769229,-2.80769233620557,0.));
#1033=UNCERTAINTY_MEASURE_WITH_UNIT(LENGTH_MEASURE(0.001),#1037,
'DISTANCE_ACCURACY_VALUE',
'Maximum model space distance between geometric entities at asserted c
onnectivities');
#1034=UNCERTAINTY_MEASURE_WITH_UNIT(LENGTH_MEASURE(0.001),#1037,
'DISTANCE_ACCURACY_VALUE',
'Maximum model space distance between geometric entities at asserted c
onnectivities');
#1035=(
GEOMETRIC_REPRESENTATION_CONTEXT(3)
GLOBAL_UNCERTAINTY_ASSIGNED_CONTEXT((#1033))
GLOBAL_UNIT_ASSIGNED_CONTEXT((#1037,#1038,#1039))
REPRESENTATION_CONTEXT('','3D')
);
#1036=(
GEOMETRIC_REPRESENTATION_CONTEXT(3)
GLOBAL_UNCERTAINTY_ASSIGNED_CONTEXT((#1034))
GLOBAL_UNIT_ASSIGNED_CONTEXT((#1037,#1038,#1039))
REPRESENTATION_CONTEXT('','3D')
);
#1037=(
LENGTH_UNIT()
NAMED_UNIT(*)
SI_UNIT(.CENTI.,.METRE.)
);
#1038=(
NAMED_UNIT(*)
PLANE_ANGLE_UNIT()
SI_UNIT($,.RADIAN.)
);
#1039=(
NAMED_UNIT(*)
SI_UNIT($,.STERADIAN.)
SOLID_ANGLE_UNIT()
);
#1040=SHAPE_DEFINITION_REPRESENTATION(#1041,#1042);
#1041=PRODUCT_DEFINITION_SHAPE('',$,#1044);
#1042=SHAPE_REPRESENTATION('',(#617),#1035);
#1043=PRODUCT_DEFINITION_CONTEXT('part definition',#1048,'design');
#1044=PRODUCT_DEFINITION('Enclosure cover','Enclosure cover',#1045,#1043);
#1045=PRODUCT_DEFINITION_FORMATION('',$,#1050);
#1046=PRODUCT_RELATED_PRODUCT_CATEGORY('Enclosure cover',
'Enclosure cover',(#1050));
#1047=APPLICATION_PROTOCOL_DEFINITION('international standard',
'automotive_design',2009,#1048);
#1048=APPLICATION_CONTEXT(
'Core Data for Automotive Mechanical Design Process');
#1049=PRODUCT_CONTEXT('part definition',#1048,'mechanical');
#1050=PRODUCT('Enclosure cover','Enclosure cover',$,(#1049));
#1051=PRESENTATION_STYLE_ASSIGNMENT((#1052));
#1052=SURFACE_STYLE_USAGE(.BOTH.,#1055);
#1053=SURFACE_STYLE_RENDERING_WITH_PROPERTIES($,#1059,(#1054));
#1054=SURFACE_STYLE_TRANSPARENT(0.);
#1055=SURFACE_SIDE_STYLE('',(#1056,#1053));
#1056=SURFACE_STYLE_FILL_AREA(#1057);
#1057=FILL_AREA_STYLE('',(#1058));
#1058=FILL_AREA_STYLE_COLOUR('',#1059);
#1059=COLOUR_RGB('',0.749019607843137,0.749019607843137,0.749019607843137);
ENDSEC;
END-ISO-10303-21;
