ISO-10303-21;
HEADER;
/* Generated by software containing ST-Developer
 * from STEP Tools, Inc. (www.steptools.com) 
 */

FILE_DESCRIPTION(
/* description */ (''),
/* implementation_level */ '2;1');

FILE_NAME(
/* name */ 'Enclosure_7.stp',
/* time_stamp */ '2025-12-17T16:23:24+05:30',
/* author */ ('Kartik'),
/* organization */ (''),
/* preprocessor_version */ 'ST-DEVELOPER v20.1',
/* originating_system */ 'Autodesk Inventor 2026',
/* authorisation */ '');

FILE_SCHEMA (('AUTOMOTIVE_DESIGN { 1 0 10303 214 3 1 1 }'));
ENDSEC;

DATA;
#10=MECHANICAL_DESIGN_GEOMETRIC_PRESENTATION_REPRESENTATION('',(#13),#1920);
#11=SHAPE_REPRESENTATION_RELATIONSHIP('SRR','None',#1926,#12);
#12=ADVANCED_BREP_SHAPE_REPRESENTATION('',(#14),#1919);
#13=STYLED_ITEM('',(#1935),#14);
#14=MANIFOLD_SOLID_BREP('Solid1',#1113);
#15=CONICAL_SURFACE('',#1193,0.169453636375619,0.0174532925199433);
#16=CONICAL_SURFACE('',#1195,0.561111346610559,0.0349065850398866);
#17=CONICAL_SURFACE('',#1201,0.169453636375619,0.0174532925199433);
#18=CONICAL_SURFACE('',#1203,0.561111346610559,0.0349065850398866);
#19=CONICAL_SURFACE('',#1209,0.169453636375619,0.0174532925199433);
#20=CONICAL_SURFACE('',#1211,0.561111346610559,0.0349065850398866);
#21=CONICAL_SURFACE('',#1217,0.169453636375619,0.0174532925199433);
#22=CONICAL_SURFACE('',#1219,0.561111346610559,0.0349065850398866);
#23=CONICAL_SURFACE('',#1225,0.169453636375619,0.0174532925199433);
#24=CONICAL_SURFACE('',#1227,0.561111346610559,0.0349065850398866);
#25=CONICAL_SURFACE('',#1233,0.169453636375619,0.0174532925199433);
#26=CONICAL_SURFACE('',#1235,0.561111346610559,0.0349065850398866);
#27=CONICAL_SURFACE('',#1241,0.169453636375619,0.0174532925199433);
#28=CONICAL_SURFACE('',#1243,0.561111346610559,0.0349065850398866);
#29=FACE_BOUND('',#182,.T.);
#30=FACE_BOUND('',#183,.T.);
#31=FACE_BOUND('',#184,.T.);
#32=FACE_BOUND('',#185,.T.);
#33=FACE_BOUND('',#194,.T.);
#34=FACE_BOUND('',#199,.T.);
#35=FACE_BOUND('',#204,.T.);
#36=FACE_BOUND('',#209,.T.);
#37=FACE_BOUND('',#214,.T.);
#38=FACE_BOUND('',#219,.T.);
#39=FACE_BOUND('',#224,.T.);
#40=FACE_BOUND('',#227,.T.);
#41=FACE_BOUND('',#228,.T.);
#42=FACE_BOUND('',#229,.T.);
#43=FACE_BOUND('',#230,.T.);
#44=FACE_BOUND('',#231,.T.);
#45=FACE_BOUND('',#232,.T.);
#46=FACE_BOUND('',#233,.T.);
#47=FACE_BOUND('',#234,.T.);
#48=FACE_BOUND('',#235,.T.);
#49=FACE_BOUND('',#236,.T.);
#50=FACE_BOUND('',#237,.T.);
#51=PLANE('',#1133);
#52=PLANE('',#1137);
#53=PLANE('',#1141);
#54=PLANE('',#1145);
#55=PLANE('',#1149);
#56=PLANE('',#1153);
#57=PLANE('',#1157);
#58=PLANE('',#1161);
#59=PLANE('',#1162);
#60=PLANE('',#1163);
#61=PLANE('',#1164);
#62=PLANE('',#1165);
#63=PLANE('',#1166);
#64=PLANE('',#1167);
#65=PLANE('',#1168);
#66=PLANE('',#1169);
#67=PLANE('',#1170);
#68=PLANE('',#1171);
#69=PLANE('',#1172);
#70=PLANE('',#1173);
#71=PLANE('',#1174);
#72=PLANE('',#1191);
#73=PLANE('',#1198);
#74=PLANE('',#1199);
#75=PLANE('',#1206);
#76=PLANE('',#1207);
#77=PLANE('',#1214);
#78=PLANE('',#1215);
#79=PLANE('',#1222);
#80=PLANE('',#1223);
#81=PLANE('',#1230);
#82=PLANE('',#1231);
#83=PLANE('',#1238);
#84=PLANE('',#1239);
#85=PLANE('',#1246);
#86=PLANE('',#1249);
#87=FACE_OUTER_BOUND('',#153,.T.);
#88=FACE_OUTER_BOUND('',#154,.T.);
#89=FACE_OUTER_BOUND('',#155,.T.);
#90=FACE_OUTER_BOUND('',#156,.T.);
#91=FACE_OUTER_BOUND('',#157,.T.);
#92=FACE_OUTER_BOUND('',#158,.T.);
#93=FACE_OUTER_BOUND('',#159,.T.);
#94=FACE_OUTER_BOUND('',#160,.T.);
#95=FACE_OUTER_BOUND('',#161,.T.);
#96=FACE_OUTER_BOUND('',#162,.T.);
#97=FACE_OUTER_BOUND('',#163,.T.);
#98=FACE_OUTER_BOUND('',#164,.T.);
#99=FACE_OUTER_BOUND('',#165,.T.);
#100=FACE_OUTER_BOUND('',#166,.T.);
#101=FACE_OUTER_BOUND('',#167,.T.);
#102=FACE_OUTER_BOUND('',#168,.T.);
#103=FACE_OUTER_BOUND('',#169,.T.);
#104=FACE_OUTER_BOUND('',#170,.T.);
#105=FACE_OUTER_BOUND('',#171,.T.);
#106=FACE_OUTER_BOUND('',#172,.T.);
#107=FACE_OUTER_BOUND('',#173,.T.);
#108=FACE_OUTER_BOUND('',#174,.T.);
#109=FACE_OUTER_BOUND('',#175,.T.);
#110=FACE_OUTER_BOUND('',#176,.T.);
#111=FACE_OUTER_BOUND('',#177,.T.);
#112=FACE_OUTER_BOUND('',#178,.T.);
#113=FACE_OUTER_BOUND('',#179,.T.);
#114=FACE_OUTER_BOUND('',#180,.T.);
#115=FACE_OUTER_BOUND('',#181,.T.);
#116=FACE_OUTER_BOUND('',#186,.T.);
#117=FACE_OUTER_BOUND('',#187,.T.);
#118=FACE_OUTER_BOUND('',#188,.T.);
#119=FACE_OUTER_BOUND('',#189,.T.);
#120=FACE_OUTER_BOUND('',#190,.T.);
#121=FACE_OUTER_BOUND('',#191,.T.);
#122=FACE_OUTER_BOUND('',#192,.T.);
#123=FACE_OUTER_BOUND('',#193,.T.);
#124=FACE_OUTER_BOUND('',#195,.T.);
#125=FACE_OUTER_BOUND('',#196,.T.);
#126=FACE_OUTER_BOUND('',#197,.T.);
#127=FACE_OUTER_BOUND('',#198,.T.);
#128=FACE_OUTER_BOUND('',#200,.T.);
#129=FACE_OUTER_BOUND('',#201,.T.);
#130=FACE_OUTER_BOUND('',#202,.T.);
#131=FACE_OUTER_BOUND('',#203,.T.);
#132=FACE_OUTER_BOUND('',#205,.T.);
#133=FACE_OUTER_BOUND('',#206,.T.);
#134=FACE_OUTER_BOUND('',#207,.T.);
#135=FACE_OUTER_BOUND('',#208,.T.);
#136=FACE_OUTER_BOUND('',#210,.T.);
#137=FACE_OUTER_BOUND('',#211,.T.);
#138=FACE_OUTER_BOUND('',#212,.T.);
#139=FACE_OUTER_BOUND('',#213,.T.);
#140=FACE_OUTER_BOUND('',#215,.T.);
#141=FACE_OUTER_BOUND('',#216,.T.);
#142=FACE_OUTER_BOUND('',#217,.T.);
#143=FACE_OUTER_BOUND('',#218,.T.);
#144=FACE_OUTER_BOUND('',#220,.T.);
#145=FACE_OUTER_BOUND('',#221,.T.);
#146=FACE_OUTER_BOUND('',#222,.T.);
#147=FACE_OUTER_BOUND('',#223,.T.);
#148=FACE_OUTER_BOUND('',#225,.T.);
#149=FACE_OUTER_BOUND('',#226,.T.);
#150=FACE_OUTER_BOUND('',#238,.T.);
#151=FACE_OUTER_BOUND('',#239,.T.);
#152=FACE_OUTER_BOUND('',#240,.T.);
#153=EDGE_LOOP('',(#731,#732,#733,#734));
#154=EDGE_LOOP('',(#735,#736,#737,#738));
#155=EDGE_LOOP('',(#739,#740,#741,#742));
#156=EDGE_LOOP('',(#743,#744,#745,#746));
#157=EDGE_LOOP('',(#747,#748,#749,#750));
#158=EDGE_LOOP('',(#751,#752,#753,#754));
#159=EDGE_LOOP('',(#755,#756,#757,#758));
#160=EDGE_LOOP('',(#759,#760,#761,#762));
#161=EDGE_LOOP('',(#763,#764,#765,#766));
#162=EDGE_LOOP('',(#767,#768,#769,#770));
#163=EDGE_LOOP('',(#771,#772,#773,#774));
#164=EDGE_LOOP('',(#775,#776,#777,#778));
#165=EDGE_LOOP('',(#779,#780,#781,#782));
#166=EDGE_LOOP('',(#783,#784,#785,#786));
#167=EDGE_LOOP('',(#787,#788,#789,#790));
#168=EDGE_LOOP('',(#791,#792,#793,#794));
#169=EDGE_LOOP('',(#795,#796,#797,#798));
#170=EDGE_LOOP('',(#799,#800,#801,#802));
#171=EDGE_LOOP('',(#803,#804,#805,#806));
#172=EDGE_LOOP('',(#807,#808,#809,#810));
#173=EDGE_LOOP('',(#811,#812,#813,#814));
#174=EDGE_LOOP('',(#815,#816,#817,#818));
#175=EDGE_LOOP('',(#819,#820,#821,#822));
#176=EDGE_LOOP('',(#823,#824,#825,#826));
#177=EDGE_LOOP('',(#827,#828,#829,#830));
#178=EDGE_LOOP('',(#831,#832,#833,#834));
#179=EDGE_LOOP('',(#835,#836,#837,#838));
#180=EDGE_LOOP('',(#839,#840,#841,#842));
#181=EDGE_LOOP('',(#843,#844,#845,#846,#847,#848,#849,#850,#851,#852,#853,
#854,#855,#856,#857,#858,#859,#860,#861,#862,#863,#864,#865,#866,#867,#868,
#869,#870,#871,#872,#873,#874));
#182=EDGE_LOOP('',(#875));
#183=EDGE_LOOP('',(#876));
#184=EDGE_LOOP('',(#877));
#185=EDGE_LOOP('',(#878));
#186=EDGE_LOOP('',(#879,#880,#881,#882));
#187=EDGE_LOOP('',(#883,#884,#885,#886));
#188=EDGE_LOOP('',(#887,#888,#889,#890));
#189=EDGE_LOOP('',(#891,#892,#893,#894));
#190=EDGE_LOOP('',(#895));
#191=EDGE_LOOP('',(#896,#897,#898,#899));
#192=EDGE_LOOP('',(#900,#901,#902,#903));
#193=EDGE_LOOP('',(#904));
#194=EDGE_LOOP('',(#905));
#195=EDGE_LOOP('',(#906));
#196=EDGE_LOOP('',(#907,#908,#909,#910));
#197=EDGE_LOOP('',(#911,#912,#913,#914));
#198=EDGE_LOOP('',(#915));
#199=EDGE_LOOP('',(#916));
#200=EDGE_LOOP('',(#917));
#201=EDGE_LOOP('',(#918,#919,#920,#921));
#202=EDGE_LOOP('',(#922,#923,#924,#925));
#203=EDGE_LOOP('',(#926));
#204=EDGE_LOOP('',(#927));
#205=EDGE_LOOP('',(#928));
#206=EDGE_LOOP('',(#929,#930,#931,#932));
#207=EDGE_LOOP('',(#933,#934,#935,#936));
#208=EDGE_LOOP('',(#937));
#209=EDGE_LOOP('',(#938));
#210=EDGE_LOOP('',(#939));
#211=EDGE_LOOP('',(#940,#941,#942,#943));
#212=EDGE_LOOP('',(#944,#945,#946,#947));
#213=EDGE_LOOP('',(#948));
#214=EDGE_LOOP('',(#949));
#215=EDGE_LOOP('',(#950));
#216=EDGE_LOOP('',(#951,#952,#953,#954));
#217=EDGE_LOOP('',(#955,#956,#957,#958));
#218=EDGE_LOOP('',(#959));
#219=EDGE_LOOP('',(#960));
#220=EDGE_LOOP('',(#961));
#221=EDGE_LOOP('',(#962,#963,#964,#965));
#222=EDGE_LOOP('',(#966,#967,#968,#969));
#223=EDGE_LOOP('',(#970));
#224=EDGE_LOOP('',(#971));
#225=EDGE_LOOP('',(#972,#973,#974,#975));
#226=EDGE_LOOP('',(#976,#977,#978,#979,#980,#981,#982,#983,#984,#985,#986,
#987,#988,#989,#990,#991,#992,#993,#994,#995,#996,#997,#998,#999,#1000,
#1001,#1002,#1003,#1004,#1005,#1006,#1007));
#227=EDGE_LOOP('',(#1008));
#228=EDGE_LOOP('',(#1009));
#229=EDGE_LOOP('',(#1010));
#230=EDGE_LOOP('',(#1011));
#231=EDGE_LOOP('',(#1012));
#232=EDGE_LOOP('',(#1013));
#233=EDGE_LOOP('',(#1014));
#234=EDGE_LOOP('',(#1015));
#235=EDGE_LOOP('',(#1016));
#236=EDGE_LOOP('',(#1017));
#237=EDGE_LOOP('',(#1018));
#238=EDGE_LOOP('',(#1019,#1020,#1021,#1022));
#239=EDGE_LOOP('',(#1023,#1024,#1025,#1026));
#240=EDGE_LOOP('',(#1027,#1028,#1029,#1030));
#241=LINE('',#1606,#331);
#242=LINE('',#1609,#332);
#243=LINE('',#1612,#333);
#244=LINE('',#1614,#334);
#245=LINE('',#1615,#335);
#246=LINE('',#1620,#336);
#247=LINE('',#1624,#337);
#248=LINE('',#1626,#338);
#249=LINE('',#1627,#339);
#250=LINE('',#1633,#340);
#251=LINE('',#1636,#341);
#252=LINE('',#1639,#342);
#253=LINE('',#1641,#343);
#254=LINE('',#1642,#344);
#255=LINE('',#1648,#345);
#256=LINE('',#1651,#346);
#257=LINE('',#1653,#347);
#258=LINE('',#1654,#348);
#259=LINE('',#1660,#349);
#260=LINE('',#1663,#350);
#261=LINE('',#1666,#351);
#262=LINE('',#1668,#352);
#263=LINE('',#1669,#353);
#264=LINE('',#1674,#354);
#265=LINE('',#1678,#355);
#266=LINE('',#1680,#356);
#267=LINE('',#1681,#357);
#268=LINE('',#1687,#358);
#269=LINE('',#1690,#359);
#270=LINE('',#1693,#360);
#271=LINE('',#1695,#361);
#272=LINE('',#1696,#362);
#273=LINE('',#1701,#363);
#274=LINE('',#1705,#364);
#275=LINE('',#1707,#365);
#276=LINE('',#1708,#366);
#277=LINE('',#1711,#367);
#278=LINE('',#1713,#368);
#279=LINE('',#1714,#369);
#280=LINE('',#1717,#370);
#281=LINE('',#1719,#371);
#282=LINE('',#1720,#372);
#283=LINE('',#1723,#373);
#284=LINE('',#1725,#374);
#285=LINE('',#1726,#375);
#286=LINE('',#1729,#376);
#287=LINE('',#1731,#377);
#288=LINE('',#1732,#378);
#289=LINE('',#1735,#379);
#290=LINE('',#1737,#380);
#291=LINE('',#1738,#381);
#292=LINE('',#1741,#382);
#293=LINE('',#1743,#383);
#294=LINE('',#1744,#384);
#295=LINE('',#1747,#385);
#296=LINE('',#1749,#386);
#297=LINE('',#1750,#387);
#298=LINE('',#1753,#388);
#299=LINE('',#1755,#389);
#300=LINE('',#1756,#390);
#301=LINE('',#1759,#391);
#302=LINE('',#1761,#392);
#303=LINE('',#1762,#393);
#304=LINE('',#1765,#394);
#305=LINE('',#1767,#395);
#306=LINE('',#1768,#396);
#307=LINE('',#1771,#397);
#308=LINE('',#1773,#398);
#309=LINE('',#1774,#399);
#310=LINE('',#1777,#400);
#311=LINE('',#1779,#401);
#312=LINE('',#1780,#402);
#313=LINE('',#1797,#403);
#314=LINE('',#1801,#404);
#315=LINE('',#1805,#405);
#316=LINE('',#1809,#406);
#317=LINE('',#1816,#407);
#318=LINE('',#1821,#408);
#319=LINE('',#1830,#409);
#320=LINE('',#1835,#410);
#321=LINE('',#1844,#411);
#322=LINE('',#1849,#412);
#323=LINE('',#1858,#413);
#324=LINE('',#1863,#414);
#325=LINE('',#1872,#415);
#326=LINE('',#1877,#416);
#327=LINE('',#1886,#417);
#328=LINE('',#1891,#418);
#329=LINE('',#1900,#419);
#330=LINE('',#1905,#420);
#331=VECTOR('',#1262,1.);
#332=VECTOR('',#1265,1.);
#333=VECTOR('',#1268,1.);
#334=VECTOR('',#1269,1.);
#335=VECTOR('',#1270,1.);
#336=VECTOR('',#1275,1.);
#337=VECTOR('',#1280,1.);
#338=VECTOR('',#1281,1.);
#339=VECTOR('',#1282,1.);
#340=VECTOR('',#1287,1.);
#341=VECTOR('',#1290,1.);
#342=VECTOR('',#1293,1.);
#343=VECTOR('',#1294,1.);
#344=VECTOR('',#1295,1.);
#345=VECTOR('',#1300,1.);
#346=VECTOR('',#1303,1.);
#347=VECTOR('',#1306,1.);
#348=VECTOR('',#1307,1.);
#349=VECTOR('',#1312,1.);
#350=VECTOR('',#1315,1.);
#351=VECTOR('',#1318,1.);
#352=VECTOR('',#1319,1.);
#353=VECTOR('',#1320,1.);
#354=VECTOR('',#1325,1.);
#355=VECTOR('',#1330,1.);
#356=VECTOR('',#1331,1.);
#357=VECTOR('',#1332,1.);
#358=VECTOR('',#1337,1.);
#359=VECTOR('',#1340,1.);
#360=VECTOR('',#1343,1.);
#361=VECTOR('',#1344,1.);
#362=VECTOR('',#1345,1.);
#363=VECTOR('',#1350,1.);
#364=VECTOR('',#1355,1.);
#365=VECTOR('',#1356,1.);
#366=VECTOR('',#1357,1.);
#367=VECTOR('',#1360,1.);
#368=VECTOR('',#1361,1.);
#369=VECTOR('',#1362,1.);
#370=VECTOR('',#1365,1.);
#371=VECTOR('',#1366,1.);
#372=VECTOR('',#1367,1.);
#373=VECTOR('',#1370,1.);
#374=VECTOR('',#1371,1.);
#375=VECTOR('',#1372,1.);
#376=VECTOR('',#1375,1.);
#377=VECTOR('',#1376,1.);
#378=VECTOR('',#1377,1.);
#379=VECTOR('',#1380,1.);
#380=VECTOR('',#1381,1.);
#381=VECTOR('',#1382,1.);
#382=VECTOR('',#1385,1.);
#383=VECTOR('',#1386,1.);
#384=VECTOR('',#1387,1.);
#385=VECTOR('',#1390,1.);
#386=VECTOR('',#1391,1.);
#387=VECTOR('',#1392,1.);
#388=VECTOR('',#1395,1.);
#389=VECTOR('',#1396,1.);
#390=VECTOR('',#1397,1.);
#391=VECTOR('',#1400,1.);
#392=VECTOR('',#1401,1.);
#393=VECTOR('',#1402,1.);
#394=VECTOR('',#1405,1.);
#395=VECTOR('',#1406,1.);
#396=VECTOR('',#1407,1.);
#397=VECTOR('',#1410,1.);
#398=VECTOR('',#1411,1.);
#399=VECTOR('',#1412,1.);
#400=VECTOR('',#1415,1.);
#401=VECTOR('',#1416,1.);
#402=VECTOR('',#1417,1.);
#403=VECTOR('',#1440,0.16);
#404=VECTOR('',#1445,0.16);
#405=VECTOR('',#1450,0.16);
#406=VECTOR('',#1455,0.16);
#407=VECTOR('',#1464,0.169453636375619);
#408=VECTOR('',#1469,0.561111346610559);
#409=VECTOR('',#1482,0.169453636375619);
#410=VECTOR('',#1487,0.561111346610559);
#411=VECTOR('',#1500,0.169453636375619);
#412=VECTOR('',#1505,0.561111346610559);
#413=VECTOR('',#1518,0.169453636375619);
#414=VECTOR('',#1523,0.561111346610559);
#415=VECTOR('',#1536,0.169453636375619);
#416=VECTOR('',#1541,0.561111346610559);
#417=VECTOR('',#1554,0.169453636375619);
#418=VECTOR('',#1559,0.561111346610559);
#419=VECTOR('',#1572,0.169453636375619);
#420=VECTOR('',#1577,0.561111346610559);
#421=CIRCLE('',#1131,0.5);
#422=CIRCLE('',#1132,0.5);
#423=CIRCLE('',#1135,0.5);
#424=CIRCLE('',#1136,0.5);
#425=CIRCLE('',#1139,0.5);
#426=CIRCLE('',#1140,0.5);
#427=CIRCLE('',#1143,0.5);
#428=CIRCLE('',#1144,0.5);
#429=CIRCLE('',#1147,0.5);
#430=CIRCLE('',#1148,0.5);
#431=CIRCLE('',#1151,0.5);
#432=CIRCLE('',#1152,0.5);
#433=CIRCLE('',#1155,0.5);
#434=CIRCLE('',#1156,0.5);
#435=CIRCLE('',#1159,0.5);
#436=CIRCLE('',#1160,0.5);
#437=CIRCLE('',#1175,1.);
#438=CIRCLE('',#1176,1.);
#439=CIRCLE('',#1177,1.);
#440=CIRCLE('',#1178,1.);
#441=CIRCLE('',#1179,0.16);
#442=CIRCLE('',#1180,0.16);
#443=CIRCLE('',#1181,0.16);
#444=CIRCLE('',#1182,0.16);
#445=CIRCLE('',#1184,0.16);
#446=CIRCLE('',#1186,0.16);
#447=CIRCLE('',#1188,0.16);
#448=CIRCLE('',#1190,0.16);
#449=CIRCLE('',#1192,0.173817402607674);
#450=CIRCLE('',#1194,0.2);
#451=CIRCLE('',#1196,0.552381154237622);
#452=CIRCLE('',#1197,0.5);
#453=CIRCLE('',#1200,0.173817402607674);
#454=CIRCLE('',#1202,0.2);
#455=CIRCLE('',#1204,0.552381154237622);
#456=CIRCLE('',#1205,0.5);
#457=CIRCLE('',#1208,0.173817402607674);
#458=CIRCLE('',#1210,0.2);
#459=CIRCLE('',#1212,0.552381154237622);
#460=CIRCLE('',#1213,0.5);
#461=CIRCLE('',#1216,0.173817402607674);
#462=CIRCLE('',#1218,0.2);
#463=CIRCLE('',#1220,0.552381154237622);
#464=CIRCLE('',#1221,0.5);
#465=CIRCLE('',#1224,0.173817402607674);
#466=CIRCLE('',#1226,0.2);
#467=CIRCLE('',#1228,0.552381154237622);
#468=CIRCLE('',#1229,0.5);
#469=CIRCLE('',#1232,0.173817402607674);
#470=CIRCLE('',#1234,0.2);
#471=CIRCLE('',#1236,0.552381154237622);
#472=CIRCLE('',#1237,0.5);
#473=CIRCLE('',#1240,0.173817402607674);
#474=CIRCLE('',#1242,0.2);
#475=CIRCLE('',#1244,0.552381154237622);
#476=CIRCLE('',#1245,0.5);
#477=CIRCLE('',#1248,1.);
#478=CIRCLE('',#1250,1.);
#479=CIRCLE('',#1251,1.);
#480=CIRCLE('',#1252,1.);
#481=VERTEX_POINT('',#1602);
#482=VERTEX_POINT('',#1603);
#483=VERTEX_POINT('',#1605);
#484=VERTEX_POINT('',#1607);
#485=VERTEX_POINT('',#1611);
#486=VERTEX_POINT('',#1613);
#487=VERTEX_POINT('',#1617);
#488=VERTEX_POINT('',#1619);
#489=VERTEX_POINT('',#1623);
#490=VERTEX_POINT('',#1625);
#491=VERTEX_POINT('',#1629);
#492=VERTEX_POINT('',#1630);
#493=VERTEX_POINT('',#1632);
#494=VERTEX_POINT('',#1634);
#495=VERTEX_POINT('',#1638);
#496=VERTEX_POINT('',#1640);
#497=VERTEX_POINT('',#1644);
#498=VERTEX_POINT('',#1645);
#499=VERTEX_POINT('',#1647);
#500=VERTEX_POINT('',#1649);
#501=VERTEX_POINT('',#1656);
#502=VERTEX_POINT('',#1657);
#503=VERTEX_POINT('',#1659);
#504=VERTEX_POINT('',#1661);
#505=VERTEX_POINT('',#1665);
#506=VERTEX_POINT('',#1667);
#507=VERTEX_POINT('',#1671);
#508=VERTEX_POINT('',#1673);
#509=VERTEX_POINT('',#1677);
#510=VERTEX_POINT('',#1679);
#511=VERTEX_POINT('',#1683);
#512=VERTEX_POINT('',#1684);
#513=VERTEX_POINT('',#1686);
#514=VERTEX_POINT('',#1688);
#515=VERTEX_POINT('',#1692);
#516=VERTEX_POINT('',#1694);
#517=VERTEX_POINT('',#1698);
#518=VERTEX_POINT('',#1700);
#519=VERTEX_POINT('',#1704);
#520=VERTEX_POINT('',#1706);
#521=VERTEX_POINT('',#1710);
#522=VERTEX_POINT('',#1712);
#523=VERTEX_POINT('',#1716);
#524=VERTEX_POINT('',#1718);
#525=VERTEX_POINT('',#1722);
#526=VERTEX_POINT('',#1724);
#527=VERTEX_POINT('',#1728);
#528=VERTEX_POINT('',#1730);
#529=VERTEX_POINT('',#1734);
#530=VERTEX_POINT('',#1736);
#531=VERTEX_POINT('',#1740);
#532=VERTEX_POINT('',#1742);
#533=VERTEX_POINT('',#1746);
#534=VERTEX_POINT('',#1748);
#535=VERTEX_POINT('',#1752);
#536=VERTEX_POINT('',#1754);
#537=VERTEX_POINT('',#1758);
#538=VERTEX_POINT('',#1760);
#539=VERTEX_POINT('',#1764);
#540=VERTEX_POINT('',#1766);
#541=VERTEX_POINT('',#1770);
#542=VERTEX_POINT('',#1772);
#543=VERTEX_POINT('',#1776);
#544=VERTEX_POINT('',#1778);
#545=VERTEX_POINT('',#1786);
#546=VERTEX_POINT('',#1788);
#547=VERTEX_POINT('',#1790);
#548=VERTEX_POINT('',#1792);
#549=VERTEX_POINT('',#1795);
#550=VERTEX_POINT('',#1799);
#551=VERTEX_POINT('',#1803);
#552=VERTEX_POINT('',#1807);
#553=VERTEX_POINT('',#1811);
#554=VERTEX_POINT('',#1814);
#555=VERTEX_POINT('',#1818);
#556=VERTEX_POINT('',#1820);
#557=VERTEX_POINT('',#1825);
#558=VERTEX_POINT('',#1828);
#559=VERTEX_POINT('',#1832);
#560=VERTEX_POINT('',#1834);
#561=VERTEX_POINT('',#1839);
#562=VERTEX_POINT('',#1842);
#563=VERTEX_POINT('',#1846);
#564=VERTEX_POINT('',#1848);
#565=VERTEX_POINT('',#1853);
#566=VERTEX_POINT('',#1856);
#567=VERTEX_POINT('',#1860);
#568=VERTEX_POINT('',#1862);
#569=VERTEX_POINT('',#1867);
#570=VERTEX_POINT('',#1870);
#571=VERTEX_POINT('',#1874);
#572=VERTEX_POINT('',#1876);
#573=VERTEX_POINT('',#1881);
#574=VERTEX_POINT('',#1884);
#575=VERTEX_POINT('',#1888);
#576=VERTEX_POINT('',#1890);
#577=VERTEX_POINT('',#1895);
#578=VERTEX_POINT('',#1898);
#579=VERTEX_POINT('',#1902);
#580=VERTEX_POINT('',#1904);
#581=EDGE_CURVE('',#481,#482,#421,.T.);
#582=EDGE_CURVE('',#482,#483,#241,.T.);
#583=EDGE_CURVE('',#483,#484,#422,.T.);
#584=EDGE_CURVE('',#484,#481,#242,.T.);
#585=EDGE_CURVE('',#485,#482,#243,.T.);
#586=EDGE_CURVE('',#486,#485,#244,.T.);
#587=EDGE_CURVE('',#483,#486,#245,.T.);
#588=EDGE_CURVE('',#485,#487,#423,.T.);
#589=EDGE_CURVE('',#487,#488,#246,.T.);
#590=EDGE_CURVE('',#488,#486,#424,.T.);
#591=EDGE_CURVE('',#489,#487,#247,.T.);
#592=EDGE_CURVE('',#490,#489,#248,.T.);
#593=EDGE_CURVE('',#488,#490,#249,.T.);
#594=EDGE_CURVE('',#491,#492,#425,.T.);
#595=EDGE_CURVE('',#492,#493,#250,.T.);
#596=EDGE_CURVE('',#493,#494,#426,.T.);
#597=EDGE_CURVE('',#494,#491,#251,.T.);
#598=EDGE_CURVE('',#495,#492,#252,.T.);
#599=EDGE_CURVE('',#496,#495,#253,.T.);
#600=EDGE_CURVE('',#493,#496,#254,.T.);
#601=EDGE_CURVE('',#497,#498,#427,.T.);
#602=EDGE_CURVE('',#498,#499,#255,.T.);
#603=EDGE_CURVE('',#499,#500,#428,.T.);
#604=EDGE_CURVE('',#500,#497,#256,.T.);
#605=EDGE_CURVE('',#499,#494,#257,.T.);
#606=EDGE_CURVE('',#491,#498,#258,.T.);
#607=EDGE_CURVE('',#501,#502,#429,.T.);
#608=EDGE_CURVE('',#502,#503,#259,.T.);
#609=EDGE_CURVE('',#503,#504,#430,.T.);
#610=EDGE_CURVE('',#504,#501,#260,.T.);
#611=EDGE_CURVE('',#505,#502,#261,.T.);
#612=EDGE_CURVE('',#506,#505,#262,.T.);
#613=EDGE_CURVE('',#503,#506,#263,.T.);
#614=EDGE_CURVE('',#505,#507,#431,.T.);
#615=EDGE_CURVE('',#507,#508,#264,.T.);
#616=EDGE_CURVE('',#508,#506,#432,.T.);
#617=EDGE_CURVE('',#509,#507,#265,.T.);
#618=EDGE_CURVE('',#510,#509,#266,.T.);
#619=EDGE_CURVE('',#508,#510,#267,.T.);
#620=EDGE_CURVE('',#511,#512,#433,.T.);
#621=EDGE_CURVE('',#512,#513,#268,.T.);
#622=EDGE_CURVE('',#513,#514,#434,.T.);
#623=EDGE_CURVE('',#514,#511,#269,.T.);
#624=EDGE_CURVE('',#515,#512,#270,.T.);
#625=EDGE_CURVE('',#516,#515,#271,.T.);
#626=EDGE_CURVE('',#513,#516,#272,.T.);
#627=EDGE_CURVE('',#515,#517,#435,.T.);
#628=EDGE_CURVE('',#517,#518,#273,.T.);
#629=EDGE_CURVE('',#518,#516,#436,.T.);
#630=EDGE_CURVE('',#519,#517,#274,.T.);
#631=EDGE_CURVE('',#520,#519,#275,.T.);
#632=EDGE_CURVE('',#518,#520,#276,.T.);
#633=EDGE_CURVE('',#521,#500,#277,.T.);
#634=EDGE_CURVE('',#522,#521,#278,.T.);
#635=EDGE_CURVE('',#497,#522,#279,.T.);
#636=EDGE_CURVE('',#523,#484,#280,.T.);
#637=EDGE_CURVE('',#524,#523,#281,.T.);
#638=EDGE_CURVE('',#481,#524,#282,.T.);
#639=EDGE_CURVE('',#525,#504,#283,.T.);
#640=EDGE_CURVE('',#526,#525,#284,.T.);
#641=EDGE_CURVE('',#501,#526,#285,.T.);
#642=EDGE_CURVE('',#527,#514,#286,.T.);
#643=EDGE_CURVE('',#528,#527,#287,.T.);
#644=EDGE_CURVE('',#511,#528,#288,.T.);
#645=EDGE_CURVE('',#529,#495,#289,.T.);
#646=EDGE_CURVE('',#530,#529,#290,.T.);
#647=EDGE_CURVE('',#530,#496,#291,.T.);
#648=EDGE_CURVE('',#521,#531,#292,.T.);
#649=EDGE_CURVE('',#532,#531,#293,.T.);
#650=EDGE_CURVE('',#522,#532,#294,.T.);
#651=EDGE_CURVE('',#533,#489,#295,.T.);
#652=EDGE_CURVE('',#534,#533,#296,.T.);
#653=EDGE_CURVE('',#534,#490,#297,.T.);
#654=EDGE_CURVE('',#523,#535,#298,.T.);
#655=EDGE_CURVE('',#536,#535,#299,.T.);
#656=EDGE_CURVE('',#524,#536,#300,.T.);
#657=EDGE_CURVE('',#537,#509,#301,.T.);
#658=EDGE_CURVE('',#538,#537,#302,.T.);
#659=EDGE_CURVE('',#538,#510,#303,.T.);
#660=EDGE_CURVE('',#525,#539,#304,.T.);
#661=EDGE_CURVE('',#540,#539,#305,.T.);
#662=EDGE_CURVE('',#526,#540,#306,.T.);
#663=EDGE_CURVE('',#541,#519,#307,.T.);
#664=EDGE_CURVE('',#542,#541,#308,.T.);
#665=EDGE_CURVE('',#542,#520,#309,.T.);
#666=EDGE_CURVE('',#527,#543,#310,.T.);
#667=EDGE_CURVE('',#544,#543,#311,.T.);
#668=EDGE_CURVE('',#528,#544,#312,.T.);
#669=EDGE_CURVE('',#539,#530,#437,.T.);
#670=EDGE_CURVE('',#543,#538,#438,.T.);
#671=EDGE_CURVE('',#535,#542,#439,.T.);
#672=EDGE_CURVE('',#531,#534,#440,.T.);
#673=EDGE_CURVE('',#545,#545,#441,.T.);
#674=EDGE_CURVE('',#546,#546,#442,.T.);
#675=EDGE_CURVE('',#547,#547,#443,.T.);
#676=EDGE_CURVE('',#548,#548,#444,.T.);
#677=EDGE_CURVE('',#549,#549,#445,.T.);
#678=EDGE_CURVE('',#549,#548,#313,.T.);
#679=EDGE_CURVE('',#550,#550,#446,.T.);
#680=EDGE_CURVE('',#550,#547,#314,.T.);
#681=EDGE_CURVE('',#551,#551,#447,.T.);
#682=EDGE_CURVE('',#551,#546,#315,.T.);
#683=EDGE_CURVE('',#552,#552,#448,.T.);
#684=EDGE_CURVE('',#552,#545,#316,.T.);
#685=EDGE_CURVE('',#553,#553,#449,.T.);
#686=EDGE_CURVE('',#554,#554,#450,.T.);
#687=EDGE_CURVE('',#554,#553,#317,.T.);
#688=EDGE_CURVE('',#555,#555,#451,.T.);
#689=EDGE_CURVE('',#555,#556,#318,.T.);
#690=EDGE_CURVE('',#556,#556,#452,.T.);
#691=EDGE_CURVE('',#557,#557,#453,.T.);
#692=EDGE_CURVE('',#558,#558,#454,.T.);
#693=EDGE_CURVE('',#558,#557,#319,.T.);
#694=EDGE_CURVE('',#559,#559,#455,.T.);
#695=EDGE_CURVE('',#559,#560,#320,.T.);
#696=EDGE_CURVE('',#560,#560,#456,.T.);
#697=EDGE_CURVE('',#561,#561,#457,.T.);
#698=EDGE_CURVE('',#562,#562,#458,.T.);
#699=EDGE_CURVE('',#562,#561,#321,.T.);
#700=EDGE_CURVE('',#563,#563,#459,.T.);
#701=EDGE_CURVE('',#563,#564,#322,.T.);
#702=EDGE_CURVE('',#564,#564,#460,.T.);
#703=EDGE_CURVE('',#565,#565,#461,.T.);
#704=EDGE_CURVE('',#566,#566,#462,.T.);
#705=EDGE_CURVE('',#566,#565,#323,.T.);
#706=EDGE_CURVE('',#567,#567,#463,.T.);
#707=EDGE_CURVE('',#567,#568,#324,.T.);
#708=EDGE_CURVE('',#568,#568,#464,.T.);
#709=EDGE_CURVE('',#569,#569,#465,.T.);
#710=EDGE_CURVE('',#570,#570,#466,.T.);
#711=EDGE_CURVE('',#570,#569,#325,.T.);
#712=EDGE_CURVE('',#571,#571,#467,.T.);
#713=EDGE_CURVE('',#571,#572,#326,.T.);
#714=EDGE_CURVE('',#572,#572,#468,.T.);
#715=EDGE_CURVE('',#573,#573,#469,.T.);
#716=EDGE_CURVE('',#574,#574,#470,.T.);
#717=EDGE_CURVE('',#574,#573,#327,.T.);
#718=EDGE_CURVE('',#575,#575,#471,.T.);
#719=EDGE_CURVE('',#575,#576,#328,.T.);
#720=EDGE_CURVE('',#576,#576,#472,.T.);
#721=EDGE_CURVE('',#577,#577,#473,.T.);
#722=EDGE_CURVE('',#578,#578,#474,.T.);
#723=EDGE_CURVE('',#578,#577,#329,.T.);
#724=EDGE_CURVE('',#579,#579,#475,.T.);
#725=EDGE_CURVE('',#579,#580,#330,.T.);
#726=EDGE_CURVE('',#580,#580,#476,.T.);
#727=EDGE_CURVE('',#541,#536,#477,.T.);
#728=EDGE_CURVE('',#533,#532,#478,.T.);
#729=EDGE_CURVE('',#537,#544,#479,.T.);
#730=EDGE_CURVE('',#529,#540,#480,.T.);
#731=ORIENTED_EDGE('',*,*,#581,.T.);
#732=ORIENTED_EDGE('',*,*,#582,.T.);
#733=ORIENTED_EDGE('',*,*,#583,.T.);
#734=ORIENTED_EDGE('',*,*,#584,.T.);
#735=ORIENTED_EDGE('',*,*,#582,.F.);
#736=ORIENTED_EDGE('',*,*,#585,.F.);
#737=ORIENTED_EDGE('',*,*,#586,.F.);
#738=ORIENTED_EDGE('',*,*,#587,.F.);
#739=ORIENTED_EDGE('',*,*,#588,.T.);
#740=ORIENTED_EDGE('',*,*,#589,.T.);
#741=ORIENTED_EDGE('',*,*,#590,.T.);
#742=ORIENTED_EDGE('',*,*,#586,.T.);
#743=ORIENTED_EDGE('',*,*,#589,.F.);
#744=ORIENTED_EDGE('',*,*,#591,.F.);
#745=ORIENTED_EDGE('',*,*,#592,.F.);
#746=ORIENTED_EDGE('',*,*,#593,.F.);
#747=ORIENTED_EDGE('',*,*,#594,.T.);
#748=ORIENTED_EDGE('',*,*,#595,.T.);
#749=ORIENTED_EDGE('',*,*,#596,.T.);
#750=ORIENTED_EDGE('',*,*,#597,.T.);
#751=ORIENTED_EDGE('',*,*,#595,.F.);
#752=ORIENTED_EDGE('',*,*,#598,.F.);
#753=ORIENTED_EDGE('',*,*,#599,.F.);
#754=ORIENTED_EDGE('',*,*,#600,.F.);
#755=ORIENTED_EDGE('',*,*,#601,.T.);
#756=ORIENTED_EDGE('',*,*,#602,.T.);
#757=ORIENTED_EDGE('',*,*,#603,.T.);
#758=ORIENTED_EDGE('',*,*,#604,.T.);
#759=ORIENTED_EDGE('',*,*,#597,.F.);
#760=ORIENTED_EDGE('',*,*,#605,.F.);
#761=ORIENTED_EDGE('',*,*,#602,.F.);
#762=ORIENTED_EDGE('',*,*,#606,.F.);
#763=ORIENTED_EDGE('',*,*,#607,.T.);
#764=ORIENTED_EDGE('',*,*,#608,.T.);
#765=ORIENTED_EDGE('',*,*,#609,.T.);
#766=ORIENTED_EDGE('',*,*,#610,.T.);
#767=ORIENTED_EDGE('',*,*,#608,.F.);
#768=ORIENTED_EDGE('',*,*,#611,.F.);
#769=ORIENTED_EDGE('',*,*,#612,.F.);
#770=ORIENTED_EDGE('',*,*,#613,.F.);
#771=ORIENTED_EDGE('',*,*,#614,.T.);
#772=ORIENTED_EDGE('',*,*,#615,.T.);
#773=ORIENTED_EDGE('',*,*,#616,.T.);
#774=ORIENTED_EDGE('',*,*,#612,.T.);
#775=ORIENTED_EDGE('',*,*,#615,.F.);
#776=ORIENTED_EDGE('',*,*,#617,.F.);
#777=ORIENTED_EDGE('',*,*,#618,.F.);
#778=ORIENTED_EDGE('',*,*,#619,.F.);
#779=ORIENTED_EDGE('',*,*,#620,.T.);
#780=ORIENTED_EDGE('',*,*,#621,.T.);
#781=ORIENTED_EDGE('',*,*,#622,.T.);
#782=ORIENTED_EDGE('',*,*,#623,.T.);
#783=ORIENTED_EDGE('',*,*,#621,.F.);
#784=ORIENTED_EDGE('',*,*,#624,.F.);
#785=ORIENTED_EDGE('',*,*,#625,.F.);
#786=ORIENTED_EDGE('',*,*,#626,.F.);
#787=ORIENTED_EDGE('',*,*,#627,.T.);
#788=ORIENTED_EDGE('',*,*,#628,.T.);
#789=ORIENTED_EDGE('',*,*,#629,.T.);
#790=ORIENTED_EDGE('',*,*,#625,.T.);
#791=ORIENTED_EDGE('',*,*,#628,.F.);
#792=ORIENTED_EDGE('',*,*,#630,.F.);
#793=ORIENTED_EDGE('',*,*,#631,.F.);
#794=ORIENTED_EDGE('',*,*,#632,.F.);
#795=ORIENTED_EDGE('',*,*,#604,.F.);
#796=ORIENTED_EDGE('',*,*,#633,.F.);
#797=ORIENTED_EDGE('',*,*,#634,.F.);
#798=ORIENTED_EDGE('',*,*,#635,.F.);
#799=ORIENTED_EDGE('',*,*,#584,.F.);
#800=ORIENTED_EDGE('',*,*,#636,.F.);
#801=ORIENTED_EDGE('',*,*,#637,.F.);
#802=ORIENTED_EDGE('',*,*,#638,.F.);
#803=ORIENTED_EDGE('',*,*,#610,.F.);
#804=ORIENTED_EDGE('',*,*,#639,.F.);
#805=ORIENTED_EDGE('',*,*,#640,.F.);
#806=ORIENTED_EDGE('',*,*,#641,.F.);
#807=ORIENTED_EDGE('',*,*,#623,.F.);
#808=ORIENTED_EDGE('',*,*,#642,.F.);
#809=ORIENTED_EDGE('',*,*,#643,.F.);
#810=ORIENTED_EDGE('',*,*,#644,.F.);
#811=ORIENTED_EDGE('',*,*,#599,.T.);
#812=ORIENTED_EDGE('',*,*,#645,.F.);
#813=ORIENTED_EDGE('',*,*,#646,.F.);
#814=ORIENTED_EDGE('',*,*,#647,.T.);
#815=ORIENTED_EDGE('',*,*,#634,.T.);
#816=ORIENTED_EDGE('',*,*,#648,.T.);
#817=ORIENTED_EDGE('',*,*,#649,.F.);
#818=ORIENTED_EDGE('',*,*,#650,.F.);
#819=ORIENTED_EDGE('',*,*,#592,.T.);
#820=ORIENTED_EDGE('',*,*,#651,.F.);
#821=ORIENTED_EDGE('',*,*,#652,.F.);
#822=ORIENTED_EDGE('',*,*,#653,.T.);
#823=ORIENTED_EDGE('',*,*,#637,.T.);
#824=ORIENTED_EDGE('',*,*,#654,.T.);
#825=ORIENTED_EDGE('',*,*,#655,.F.);
#826=ORIENTED_EDGE('',*,*,#656,.F.);
#827=ORIENTED_EDGE('',*,*,#618,.T.);
#828=ORIENTED_EDGE('',*,*,#657,.F.);
#829=ORIENTED_EDGE('',*,*,#658,.F.);
#830=ORIENTED_EDGE('',*,*,#659,.T.);
#831=ORIENTED_EDGE('',*,*,#640,.T.);
#832=ORIENTED_EDGE('',*,*,#660,.T.);
#833=ORIENTED_EDGE('',*,*,#661,.F.);
#834=ORIENTED_EDGE('',*,*,#662,.F.);
#835=ORIENTED_EDGE('',*,*,#631,.T.);
#836=ORIENTED_EDGE('',*,*,#663,.F.);
#837=ORIENTED_EDGE('',*,*,#664,.F.);
#838=ORIENTED_EDGE('',*,*,#665,.T.);
#839=ORIENTED_EDGE('',*,*,#643,.T.);
#840=ORIENTED_EDGE('',*,*,#666,.T.);
#841=ORIENTED_EDGE('',*,*,#667,.F.);
#842=ORIENTED_EDGE('',*,*,#668,.F.);
#843=ORIENTED_EDGE('',*,*,#633,.T.);
#844=ORIENTED_EDGE('',*,*,#603,.F.);
#845=ORIENTED_EDGE('',*,*,#605,.T.);
#846=ORIENTED_EDGE('',*,*,#596,.F.);
#847=ORIENTED_EDGE('',*,*,#600,.T.);
#848=ORIENTED_EDGE('',*,*,#647,.F.);
#849=ORIENTED_EDGE('',*,*,#669,.F.);
#850=ORIENTED_EDGE('',*,*,#660,.F.);
#851=ORIENTED_EDGE('',*,*,#639,.T.);
#852=ORIENTED_EDGE('',*,*,#609,.F.);
#853=ORIENTED_EDGE('',*,*,#613,.T.);
#854=ORIENTED_EDGE('',*,*,#616,.F.);
#855=ORIENTED_EDGE('',*,*,#619,.T.);
#856=ORIENTED_EDGE('',*,*,#659,.F.);
#857=ORIENTED_EDGE('',*,*,#670,.F.);
#858=ORIENTED_EDGE('',*,*,#666,.F.);
#859=ORIENTED_EDGE('',*,*,#642,.T.);
#860=ORIENTED_EDGE('',*,*,#622,.F.);
#861=ORIENTED_EDGE('',*,*,#626,.T.);
#862=ORIENTED_EDGE('',*,*,#629,.F.);
#863=ORIENTED_EDGE('',*,*,#632,.T.);
#864=ORIENTED_EDGE('',*,*,#665,.F.);
#865=ORIENTED_EDGE('',*,*,#671,.F.);
#866=ORIENTED_EDGE('',*,*,#654,.F.);
#867=ORIENTED_EDGE('',*,*,#636,.T.);
#868=ORIENTED_EDGE('',*,*,#583,.F.);
#869=ORIENTED_EDGE('',*,*,#587,.T.);
#870=ORIENTED_EDGE('',*,*,#590,.F.);
#871=ORIENTED_EDGE('',*,*,#593,.T.);
#872=ORIENTED_EDGE('',*,*,#653,.F.);
#873=ORIENTED_EDGE('',*,*,#672,.F.);
#874=ORIENTED_EDGE('',*,*,#648,.F.);
#875=ORIENTED_EDGE('',*,*,#673,.T.);
#876=ORIENTED_EDGE('',*,*,#674,.T.);
#877=ORIENTED_EDGE('',*,*,#675,.T.);
#878=ORIENTED_EDGE('',*,*,#676,.T.);
#879=ORIENTED_EDGE('',*,*,#677,.F.);
#880=ORIENTED_EDGE('',*,*,#678,.T.);
#881=ORIENTED_EDGE('',*,*,#676,.F.);
#882=ORIENTED_EDGE('',*,*,#678,.F.);
#883=ORIENTED_EDGE('',*,*,#679,.F.);
#884=ORIENTED_EDGE('',*,*,#680,.T.);
#885=ORIENTED_EDGE('',*,*,#675,.F.);
#886=ORIENTED_EDGE('',*,*,#680,.F.);
#887=ORIENTED_EDGE('',*,*,#681,.F.);
#888=ORIENTED_EDGE('',*,*,#682,.T.);
#889=ORIENTED_EDGE('',*,*,#674,.F.);
#890=ORIENTED_EDGE('',*,*,#682,.F.);
#891=ORIENTED_EDGE('',*,*,#683,.F.);
#892=ORIENTED_EDGE('',*,*,#684,.T.);
#893=ORIENTED_EDGE('',*,*,#673,.F.);
#894=ORIENTED_EDGE('',*,*,#684,.F.);
#895=ORIENTED_EDGE('',*,*,#685,.T.);
#896=ORIENTED_EDGE('',*,*,#686,.F.);
#897=ORIENTED_EDGE('',*,*,#687,.T.);
#898=ORIENTED_EDGE('',*,*,#685,.F.);
#899=ORIENTED_EDGE('',*,*,#687,.F.);
#900=ORIENTED_EDGE('',*,*,#688,.F.);
#901=ORIENTED_EDGE('',*,*,#689,.T.);
#902=ORIENTED_EDGE('',*,*,#690,.T.);
#903=ORIENTED_EDGE('',*,*,#689,.F.);
#904=ORIENTED_EDGE('',*,*,#690,.F.);
#905=ORIENTED_EDGE('',*,*,#686,.T.);
#906=ORIENTED_EDGE('',*,*,#691,.T.);
#907=ORIENTED_EDGE('',*,*,#692,.F.);
#908=ORIENTED_EDGE('',*,*,#693,.T.);
#909=ORIENTED_EDGE('',*,*,#691,.F.);
#910=ORIENTED_EDGE('',*,*,#693,.F.);
#911=ORIENTED_EDGE('',*,*,#694,.F.);
#912=ORIENTED_EDGE('',*,*,#695,.T.);
#913=ORIENTED_EDGE('',*,*,#696,.T.);
#914=ORIENTED_EDGE('',*,*,#695,.F.);
#915=ORIENTED_EDGE('',*,*,#696,.F.);
#916=ORIENTED_EDGE('',*,*,#692,.T.);
#917=ORIENTED_EDGE('',*,*,#697,.T.);
#918=ORIENTED_EDGE('',*,*,#698,.F.);
#919=ORIENTED_EDGE('',*,*,#699,.T.);
#920=ORIENTED_EDGE('',*,*,#697,.F.);
#921=ORIENTED_EDGE('',*,*,#699,.F.);
#922=ORIENTED_EDGE('',*,*,#700,.F.);
#923=ORIENTED_EDGE('',*,*,#701,.T.);
#924=ORIENTED_EDGE('',*,*,#702,.T.);
#925=ORIENTED_EDGE('',*,*,#701,.F.);
#926=ORIENTED_EDGE('',*,*,#702,.F.);
#927=ORIENTED_EDGE('',*,*,#698,.T.);
#928=ORIENTED_EDGE('',*,*,#703,.T.);
#929=ORIENTED_EDGE('',*,*,#704,.F.);
#930=ORIENTED_EDGE('',*,*,#705,.T.);
#931=ORIENTED_EDGE('',*,*,#703,.F.);
#932=ORIENTED_EDGE('',*,*,#705,.F.);
#933=ORIENTED_EDGE('',*,*,#706,.F.);
#934=ORIENTED_EDGE('',*,*,#707,.T.);
#935=ORIENTED_EDGE('',*,*,#708,.T.);
#936=ORIENTED_EDGE('',*,*,#707,.F.);
#937=ORIENTED_EDGE('',*,*,#708,.F.);
#938=ORIENTED_EDGE('',*,*,#704,.T.);
#939=ORIENTED_EDGE('',*,*,#709,.T.);
#940=ORIENTED_EDGE('',*,*,#710,.F.);
#941=ORIENTED_EDGE('',*,*,#711,.T.);
#942=ORIENTED_EDGE('',*,*,#709,.F.);
#943=ORIENTED_EDGE('',*,*,#711,.F.);
#944=ORIENTED_EDGE('',*,*,#712,.F.);
#945=ORIENTED_EDGE('',*,*,#713,.T.);
#946=ORIENTED_EDGE('',*,*,#714,.T.);
#947=ORIENTED_EDGE('',*,*,#713,.F.);
#948=ORIENTED_EDGE('',*,*,#714,.F.);
#949=ORIENTED_EDGE('',*,*,#710,.T.);
#950=ORIENTED_EDGE('',*,*,#715,.T.);
#951=ORIENTED_EDGE('',*,*,#716,.F.);
#952=ORIENTED_EDGE('',*,*,#717,.T.);
#953=ORIENTED_EDGE('',*,*,#715,.F.);
#954=ORIENTED_EDGE('',*,*,#717,.F.);
#955=ORIENTED_EDGE('',*,*,#718,.F.);
#956=ORIENTED_EDGE('',*,*,#719,.T.);
#957=ORIENTED_EDGE('',*,*,#720,.T.);
#958=ORIENTED_EDGE('',*,*,#719,.F.);
#959=ORIENTED_EDGE('',*,*,#720,.F.);
#960=ORIENTED_EDGE('',*,*,#716,.T.);
#961=ORIENTED_EDGE('',*,*,#721,.T.);
#962=ORIENTED_EDGE('',*,*,#722,.F.);
#963=ORIENTED_EDGE('',*,*,#723,.T.);
#964=ORIENTED_EDGE('',*,*,#721,.F.);
#965=ORIENTED_EDGE('',*,*,#723,.F.);
#966=ORIENTED_EDGE('',*,*,#724,.F.);
#967=ORIENTED_EDGE('',*,*,#725,.T.);
#968=ORIENTED_EDGE('',*,*,#726,.T.);
#969=ORIENTED_EDGE('',*,*,#725,.F.);
#970=ORIENTED_EDGE('',*,*,#726,.F.);
#971=ORIENTED_EDGE('',*,*,#722,.T.);
#972=ORIENTED_EDGE('',*,*,#727,.T.);
#973=ORIENTED_EDGE('',*,*,#655,.T.);
#974=ORIENTED_EDGE('',*,*,#671,.T.);
#975=ORIENTED_EDGE('',*,*,#664,.T.);
#976=ORIENTED_EDGE('',*,*,#635,.T.);
#977=ORIENTED_EDGE('',*,*,#650,.T.);
#978=ORIENTED_EDGE('',*,*,#728,.F.);
#979=ORIENTED_EDGE('',*,*,#651,.T.);
#980=ORIENTED_EDGE('',*,*,#591,.T.);
#981=ORIENTED_EDGE('',*,*,#588,.F.);
#982=ORIENTED_EDGE('',*,*,#585,.T.);
#983=ORIENTED_EDGE('',*,*,#581,.F.);
#984=ORIENTED_EDGE('',*,*,#638,.T.);
#985=ORIENTED_EDGE('',*,*,#656,.T.);
#986=ORIENTED_EDGE('',*,*,#727,.F.);
#987=ORIENTED_EDGE('',*,*,#663,.T.);
#988=ORIENTED_EDGE('',*,*,#630,.T.);
#989=ORIENTED_EDGE('',*,*,#627,.F.);
#990=ORIENTED_EDGE('',*,*,#624,.T.);
#991=ORIENTED_EDGE('',*,*,#620,.F.);
#992=ORIENTED_EDGE('',*,*,#644,.T.);
#993=ORIENTED_EDGE('',*,*,#668,.T.);
#994=ORIENTED_EDGE('',*,*,#729,.F.);
#995=ORIENTED_EDGE('',*,*,#657,.T.);
#996=ORIENTED_EDGE('',*,*,#617,.T.);
#997=ORIENTED_EDGE('',*,*,#614,.F.);
#998=ORIENTED_EDGE('',*,*,#611,.T.);
#999=ORIENTED_EDGE('',*,*,#607,.F.);
#1000=ORIENTED_EDGE('',*,*,#641,.T.);
#1001=ORIENTED_EDGE('',*,*,#662,.T.);
#1002=ORIENTED_EDGE('',*,*,#730,.F.);
#1003=ORIENTED_EDGE('',*,*,#645,.T.);
#1004=ORIENTED_EDGE('',*,*,#598,.T.);
#1005=ORIENTED_EDGE('',*,*,#594,.F.);
#1006=ORIENTED_EDGE('',*,*,#606,.T.);
#1007=ORIENTED_EDGE('',*,*,#601,.F.);
#1008=ORIENTED_EDGE('',*,*,#677,.T.);
#1009=ORIENTED_EDGE('',*,*,#679,.T.);
#1010=ORIENTED_EDGE('',*,*,#681,.T.);
#1011=ORIENTED_EDGE('',*,*,#683,.T.);
#1012=ORIENTED_EDGE('',*,*,#688,.T.);
#1013=ORIENTED_EDGE('',*,*,#694,.T.);
#1014=ORIENTED_EDGE('',*,*,#700,.T.);
#1015=ORIENTED_EDGE('',*,*,#706,.T.);
#1016=ORIENTED_EDGE('',*,*,#712,.T.);
#1017=ORIENTED_EDGE('',*,*,#718,.T.);
#1018=ORIENTED_EDGE('',*,*,#724,.T.);
#1019=ORIENTED_EDGE('',*,*,#728,.T.);
#1020=ORIENTED_EDGE('',*,*,#649,.T.);
#1021=ORIENTED_EDGE('',*,*,#672,.T.);
#1022=ORIENTED_EDGE('',*,*,#652,.T.);
#1023=ORIENTED_EDGE('',*,*,#729,.T.);
#1024=ORIENTED_EDGE('',*,*,#667,.T.);
#1025=ORIENTED_EDGE('',*,*,#670,.T.);
#1026=ORIENTED_EDGE('',*,*,#658,.T.);
#1027=ORIENTED_EDGE('',*,*,#730,.T.);
#1028=ORIENTED_EDGE('',*,*,#661,.T.);
#1029=ORIENTED_EDGE('',*,*,#669,.T.);
#1030=ORIENTED_EDGE('',*,*,#646,.T.);
#1031=CYLINDRICAL_SURFACE('',#1130,0.5);
#1032=CYLINDRICAL_SURFACE('',#1134,0.5);
#1033=CYLINDRICAL_SURFACE('',#1138,0.5);
#1034=CYLINDRICAL_SURFACE('',#1142,0.5);
#1035=CYLINDRICAL_SURFACE('',#1146,0.5);
#1036=CYLINDRICAL_SURFACE('',#1150,0.5);
#1037=CYLINDRICAL_SURFACE('',#1154,0.5);
#1038=CYLINDRICAL_SURFACE('',#1158,0.5);
#1039=CYLINDRICAL_SURFACE('',#1183,0.16);
#1040=CYLINDRICAL_SURFACE('',#1185,0.16);
#1041=CYLINDRICAL_SURFACE('',#1187,0.16);
#1042=CYLINDRICAL_SURFACE('',#1189,0.16);
#1043=CYLINDRICAL_SURFACE('',#1247,1.);
#1044=CYLINDRICAL_SURFACE('',#1253,1.);
#1045=CYLINDRICAL_SURFACE('',#1254,1.);
#1046=CYLINDRICAL_SURFACE('',#1255,1.);
#1047=ADVANCED_FACE('',(#87),#1031,.F.);
#1048=ADVANCED_FACE('',(#88),#51,.F.);
#1049=ADVANCED_FACE('',(#89),#1032,.F.);
#1050=ADVANCED_FACE('',(#90),#52,.F.);
#1051=ADVANCED_FACE('',(#91),#1033,.F.);
#1052=ADVANCED_FACE('',(#92),#53,.F.);
#1053=ADVANCED_FACE('',(#93),#1034,.F.);
#1054=ADVANCED_FACE('',(#94),#54,.F.);
#1055=ADVANCED_FACE('',(#95),#1035,.F.);
#1056=ADVANCED_FACE('',(#96),#55,.F.);
#1057=ADVANCED_FACE('',(#97),#1036,.F.);
#1058=ADVANCED_FACE('',(#98),#56,.F.);
#1059=ADVANCED_FACE('',(#99),#1037,.F.);
#1060=ADVANCED_FACE('',(#100),#57,.F.);
#1061=ADVANCED_FACE('',(#101),#1038,.F.);
#1062=ADVANCED_FACE('',(#102),#58,.F.);
#1063=ADVANCED_FACE('',(#103),#59,.F.);
#1064=ADVANCED_FACE('',(#104),#60,.F.);
#1065=ADVANCED_FACE('',(#105),#61,.F.);
#1066=ADVANCED_FACE('',(#106),#62,.F.);
#1067=ADVANCED_FACE('',(#107),#63,.T.);
#1068=ADVANCED_FACE('',(#108),#64,.T.);
#1069=ADVANCED_FACE('',(#109),#65,.T.);
#1070=ADVANCED_FACE('',(#110),#66,.T.);
#1071=ADVANCED_FACE('',(#111),#67,.T.);
#1072=ADVANCED_FACE('',(#112),#68,.T.);
#1073=ADVANCED_FACE('',(#113),#69,.T.);
#1074=ADVANCED_FACE('',(#114),#70,.T.);
#1075=ADVANCED_FACE('',(#115,#29,#30,#31,#32),#71,.F.);
#1076=ADVANCED_FACE('',(#116),#1039,.F.);
#1077=ADVANCED_FACE('',(#117),#1040,.F.);
#1078=ADVANCED_FACE('',(#118),#1041,.F.);
#1079=ADVANCED_FACE('',(#119),#1042,.F.);
#1080=ADVANCED_FACE('',(#120),#72,.T.);
#1081=ADVANCED_FACE('',(#121),#15,.F.);
#1082=ADVANCED_FACE('',(#122),#16,.T.);
#1083=ADVANCED_FACE('',(#123,#33),#73,.T.);
#1084=ADVANCED_FACE('',(#124),#74,.T.);
#1085=ADVANCED_FACE('',(#125),#17,.F.);
#1086=ADVANCED_FACE('',(#126),#18,.T.);
#1087=ADVANCED_FACE('',(#127,#34),#75,.T.);
#1088=ADVANCED_FACE('',(#128),#76,.T.);
#1089=ADVANCED_FACE('',(#129),#19,.F.);
#1090=ADVANCED_FACE('',(#130),#20,.T.);
#1091=ADVANCED_FACE('',(#131,#35),#77,.T.);
#1092=ADVANCED_FACE('',(#132),#78,.T.);
#1093=ADVANCED_FACE('',(#133),#21,.F.);
#1094=ADVANCED_FACE('',(#134),#22,.T.);
#1095=ADVANCED_FACE('',(#135,#36),#79,.T.);
#1096=ADVANCED_FACE('',(#136),#80,.T.);
#1097=ADVANCED_FACE('',(#137),#23,.F.);
#1098=ADVANCED_FACE('',(#138),#24,.T.);
#1099=ADVANCED_FACE('',(#139,#37),#81,.T.);
#1100=ADVANCED_FACE('',(#140),#82,.T.);
#1101=ADVANCED_FACE('',(#141),#25,.F.);
#1102=ADVANCED_FACE('',(#142),#26,.T.);
#1103=ADVANCED_FACE('',(#143,#38),#83,.T.);
#1104=ADVANCED_FACE('',(#144),#84,.T.);
#1105=ADVANCED_FACE('',(#145),#27,.F.);
#1106=ADVANCED_FACE('',(#146),#28,.T.);
#1107=ADVANCED_FACE('',(#147,#39),#85,.T.);
#1108=ADVANCED_FACE('',(#148),#1043,.T.);
#1109=ADVANCED_FACE('',(#149,#40,#41,#42,#43,#44,#45,#46,#47,#48,#49,#50),
#86,.T.);
#1110=ADVANCED_FACE('',(#150),#1044,.T.);
#1111=ADVANCED_FACE('',(#151),#1045,.T.);
#1112=ADVANCED_FACE('',(#152),#1046,.T.);
#1113=CLOSED_SHELL('',(#1047,#1048,#1049,#1050,#1051,#1052,#1053,#1054,
#1055,#1056,#1057,#1058,#1059,#1060,#1061,#1062,#1063,#1064,#1065,#1066,
#1067,#1068,#1069,#1070,#1071,#1072,#1073,#1074,#1075,#1076,#1077,#1078,
#1079,#1080,#1081,#1082,#1083,#1084,#1085,#1086,#1087,#1088,#1089,#1090,
#1091,#1092,#1093,#1094,#1095,#1096,#1097,#1098,#1099,#1100,#1101,#1102,
#1103,#1104,#1105,#1106,#1107,#1108,#1109,#1110,#1111,#1112));
#1114=DERIVED_UNIT_ELEMENT(#1117,1.);
#1115=DERIVED_UNIT_ELEMENT(#1921,-3.);
#1116=DIMENSIONAL_EXPONENTS(0.,1.,0.,0.,0.,0.,0.);
#1117=(
CONVERSION_BASED_UNIT('gram',#1119)
MASS_UNIT()
NAMED_UNIT(#1116)
);
#1118=(
MASS_UNIT()
NAMED_UNIT(*)
SI_UNIT(.KILO.,.GRAM.)
);
#1119=MASS_MEASURE_WITH_UNIT(MASS_MEASURE(0.001),#1118);
#1120=DERIVED_UNIT((#1114,#1115));
#1121=MEASURE_REPRESENTATION_ITEM('density measure',
POSITIVE_RATIO_MEASURE(1.),#1120);
#1122=PROPERTY_DEFINITION_REPRESENTATION(#1127,#1124);
#1123=PROPERTY_DEFINITION_REPRESENTATION(#1128,#1125);
#1124=REPRESENTATION('material name',(#1126),#1919);
#1125=REPRESENTATION('density',(#1121),#1919);
#1126=DESCRIPTIVE_REPRESENTATION_ITEM('Generic','Generic');
#1127=PROPERTY_DEFINITION('material property','material name',#1928);
#1128=PROPERTY_DEFINITION('material property','density of part',#1928);
#1129=AXIS2_PLACEMENT_3D('',#1600,#1256,#1257);
#1130=AXIS2_PLACEMENT_3D('',#1601,#1258,#1259);
#1131=AXIS2_PLACEMENT_3D('',#1604,#1260,#1261);
#1132=AXIS2_PLACEMENT_3D('',#1608,#1263,#1264);
#1133=AXIS2_PLACEMENT_3D('',#1610,#1266,#1267);
#1134=AXIS2_PLACEMENT_3D('',#1616,#1271,#1272);
#1135=AXIS2_PLACEMENT_3D('',#1618,#1273,#1274);
#1136=AXIS2_PLACEMENT_3D('',#1621,#1276,#1277);
#1137=AXIS2_PLACEMENT_3D('',#1622,#1278,#1279);
#1138=AXIS2_PLACEMENT_3D('',#1628,#1283,#1284);
#1139=AXIS2_PLACEMENT_3D('',#1631,#1285,#1286);
#1140=AXIS2_PLACEMENT_3D('',#1635,#1288,#1289);
#1141=AXIS2_PLACEMENT_3D('',#1637,#1291,#1292);
#1142=AXIS2_PLACEMENT_3D('',#1643,#1296,#1297);
#1143=AXIS2_PLACEMENT_3D('',#1646,#1298,#1299);
#1144=AXIS2_PLACEMENT_3D('',#1650,#1301,#1302);
#1145=AXIS2_PLACEMENT_3D('',#1652,#1304,#1305);
#1146=AXIS2_PLACEMENT_3D('',#1655,#1308,#1309);
#1147=AXIS2_PLACEMENT_3D('',#1658,#1310,#1311);
#1148=AXIS2_PLACEMENT_3D('',#1662,#1313,#1314);
#1149=AXIS2_PLACEMENT_3D('',#1664,#1316,#1317);
#1150=AXIS2_PLACEMENT_3D('',#1670,#1321,#1322);
#1151=AXIS2_PLACEMENT_3D('',#1672,#1323,#1324);
#1152=AXIS2_PLACEMENT_3D('',#1675,#1326,#1327);
#1153=AXIS2_PLACEMENT_3D('',#1676,#1328,#1329);
#1154=AXIS2_PLACEMENT_3D('',#1682,#1333,#1334);
#1155=AXIS2_PLACEMENT_3D('',#1685,#1335,#1336);
#1156=AXIS2_PLACEMENT_3D('',#1689,#1338,#1339);
#1157=AXIS2_PLACEMENT_3D('',#1691,#1341,#1342);
#1158=AXIS2_PLACEMENT_3D('',#1697,#1346,#1347);
#1159=AXIS2_PLACEMENT_3D('',#1699,#1348,#1349);
#1160=AXIS2_PLACEMENT_3D('',#1702,#1351,#1352);
#1161=AXIS2_PLACEMENT_3D('',#1703,#1353,#1354);
#1162=AXIS2_PLACEMENT_3D('',#1709,#1358,#1359);
#1163=AXIS2_PLACEMENT_3D('',#1715,#1363,#1364);
#1164=AXIS2_PLACEMENT_3D('',#1721,#1368,#1369);
#1165=AXIS2_PLACEMENT_3D('',#1727,#1373,#1374);
#1166=AXIS2_PLACEMENT_3D('',#1733,#1378,#1379);
#1167=AXIS2_PLACEMENT_3D('',#1739,#1383,#1384);
#1168=AXIS2_PLACEMENT_3D('',#1745,#1388,#1389);
#1169=AXIS2_PLACEMENT_3D('',#1751,#1393,#1394);
#1170=AXIS2_PLACEMENT_3D('',#1757,#1398,#1399);
#1171=AXIS2_PLACEMENT_3D('',#1763,#1403,#1404);
#1172=AXIS2_PLACEMENT_3D('',#1769,#1408,#1409);
#1173=AXIS2_PLACEMENT_3D('',#1775,#1413,#1414);
#1174=AXIS2_PLACEMENT_3D('',#1781,#1418,#1419);
#1175=AXIS2_PLACEMENT_3D('',#1782,#1420,#1421);
#1176=AXIS2_PLACEMENT_3D('',#1783,#1422,#1423);
#1177=AXIS2_PLACEMENT_3D('',#1784,#1424,#1425);
#1178=AXIS2_PLACEMENT_3D('',#1785,#1426,#1427);
#1179=AXIS2_PLACEMENT_3D('',#1787,#1428,#1429);
#1180=AXIS2_PLACEMENT_3D('',#1789,#1430,#1431);
#1181=AXIS2_PLACEMENT_3D('',#1791,#1432,#1433);
#1182=AXIS2_PLACEMENT_3D('',#1793,#1434,#1435);
#1183=AXIS2_PLACEMENT_3D('',#1794,#1436,#1437);
#1184=AXIS2_PLACEMENT_3D('',#1796,#1438,#1439);
#1185=AXIS2_PLACEMENT_3D('',#1798,#1441,#1442);
#1186=AXIS2_PLACEMENT_3D('',#1800,#1443,#1444);
#1187=AXIS2_PLACEMENT_3D('',#1802,#1446,#1447);
#1188=AXIS2_PLACEMENT_3D('',#1804,#1448,#1449);
#1189=AXIS2_PLACEMENT_3D('',#1806,#1451,#1452);
#1190=AXIS2_PLACEMENT_3D('',#1808,#1453,#1454);
#1191=AXIS2_PLACEMENT_3D('',#1810,#1456,#1457);
#1192=AXIS2_PLACEMENT_3D('',#1812,#1458,#1459);
#1193=AXIS2_PLACEMENT_3D('',#1813,#1460,#1461);
#1194=AXIS2_PLACEMENT_3D('',#1815,#1462,#1463);
#1195=AXIS2_PLACEMENT_3D('',#1817,#1465,#1466);
#1196=AXIS2_PLACEMENT_3D('',#1819,#1467,#1468);
#1197=AXIS2_PLACEMENT_3D('',#1822,#1470,#1471);
#1198=AXIS2_PLACEMENT_3D('',#1823,#1472,#1473);
#1199=AXIS2_PLACEMENT_3D('',#1824,#1474,#1475);
#1200=AXIS2_PLACEMENT_3D('',#1826,#1476,#1477);
#1201=AXIS2_PLACEMENT_3D('',#1827,#1478,#1479);
#1202=AXIS2_PLACEMENT_3D('',#1829,#1480,#1481);
#1203=AXIS2_PLACEMENT_3D('',#1831,#1483,#1484);
#1204=AXIS2_PLACEMENT_3D('',#1833,#1485,#1486);
#1205=AXIS2_PLACEMENT_3D('',#1836,#1488,#1489);
#1206=AXIS2_PLACEMENT_3D('',#1837,#1490,#1491);
#1207=AXIS2_PLACEMENT_3D('',#1838,#1492,#1493);
#1208=AXIS2_PLACEMENT_3D('',#1840,#1494,#1495);
#1209=AXIS2_PLACEMENT_3D('',#1841,#1496,#1497);
#1210=AXIS2_PLACEMENT_3D('',#1843,#1498,#1499);
#1211=AXIS2_PLACEMENT_3D('',#1845,#1501,#1502);
#1212=AXIS2_PLACEMENT_3D('',#1847,#1503,#1504);
#1213=AXIS2_PLACEMENT_3D('',#1850,#1506,#1507);
#1214=AXIS2_PLACEMENT_3D('',#1851,#1508,#1509);
#1215=AXIS2_PLACEMENT_3D('',#1852,#1510,#1511);
#1216=AXIS2_PLACEMENT_3D('',#1854,#1512,#1513);
#1217=AXIS2_PLACEMENT_3D('',#1855,#1514,#1515);
#1218=AXIS2_PLACEMENT_3D('',#1857,#1516,#1517);
#1219=AXIS2_PLACEMENT_3D('',#1859,#1519,#1520);
#1220=AXIS2_PLACEMENT_3D('',#1861,#1521,#1522);
#1221=AXIS2_PLACEMENT_3D('',#1864,#1524,#1525);
#1222=AXIS2_PLACEMENT_3D('',#1865,#1526,#1527);
#1223=AXIS2_PLACEMENT_3D('',#1866,#1528,#1529);
#1224=AXIS2_PLACEMENT_3D('',#1868,#1530,#1531);
#1225=AXIS2_PLACEMENT_3D('',#1869,#1532,#1533);
#1226=AXIS2_PLACEMENT_3D('',#1871,#1534,#1535);
#1227=AXIS2_PLACEMENT_3D('',#1873,#1537,#1538);
#1228=AXIS2_PLACEMENT_3D('',#1875,#1539,#1540);
#1229=AXIS2_PLACEMENT_3D('',#1878,#1542,#1543);
#1230=AXIS2_PLACEMENT_3D('',#1879,#1544,#1545);
#1231=AXIS2_PLACEMENT_3D('',#1880,#1546,#1547);
#1232=AXIS2_PLACEMENT_3D('',#1882,#1548,#1549);
#1233=AXIS2_PLACEMENT_3D('',#1883,#1550,#1551);
#1234=AXIS2_PLACEMENT_3D('',#1885,#1552,#1553);
#1235=AXIS2_PLACEMENT_3D('',#1887,#1555,#1556);
#1236=AXIS2_PLACEMENT_3D('',#1889,#1557,#1558);
#1237=AXIS2_PLACEMENT_3D('',#1892,#1560,#1561);
#1238=AXIS2_PLACEMENT_3D('',#1893,#1562,#1563);
#1239=AXIS2_PLACEMENT_3D('',#1894,#1564,#1565);
#1240=AXIS2_PLACEMENT_3D('',#1896,#1566,#1567);
#1241=AXIS2_PLACEMENT_3D('',#1897,#1568,#1569);
#1242=AXIS2_PLACEMENT_3D('',#1899,#1570,#1571);
#1243=AXIS2_PLACEMENT_3D('',#1901,#1573,#1574);
#1244=AXIS2_PLACEMENT_3D('',#1903,#1575,#1576);
#1245=AXIS2_PLACEMENT_3D('',#1906,#1578,#1579);
#1246=AXIS2_PLACEMENT_3D('',#1907,#1580,#1581);
#1247=AXIS2_PLACEMENT_3D('',#1908,#1582,#1583);
#1248=AXIS2_PLACEMENT_3D('',#1909,#1584,#1585);
#1249=AXIS2_PLACEMENT_3D('',#1910,#1586,#1587);
#1250=AXIS2_PLACEMENT_3D('',#1911,#1588,#1589);
#1251=AXIS2_PLACEMENT_3D('',#1912,#1590,#1591);
#1252=AXIS2_PLACEMENT_3D('',#1913,#1592,#1593);
#1253=AXIS2_PLACEMENT_3D('',#1914,#1594,#1595);
#1254=AXIS2_PLACEMENT_3D('',#1915,#1596,#1597);
#1255=AXIS2_PLACEMENT_3D('',#1916,#1598,#1599);
#1256=DIRECTION('axis',(0.,0.,1.));
#1257=DIRECTION('refdir',(1.,0.,0.));
#1258=DIRECTION('center_axis',(0.,-1.,0.));
#1259=DIRECTION('ref_axis',(-0.707106781186548,0.,0.707106781186547));
#1260=DIRECTION('center_axis',(0.,1.,0.));
#1261=DIRECTION('ref_axis',(-0.707106781186548,0.,0.707106781186547));
#1262=DIRECTION('',(0.,-1.,0.));
#1263=DIRECTION('center_axis',(0.,-1.,0.));
#1264=DIRECTION('ref_axis',(-0.707106781186548,0.,0.707106781186547));
#1265=DIRECTION('',(0.,1.,0.));
#1266=DIRECTION('center_axis',(0.,0.,1.));
#1267=DIRECTION('ref_axis',(-1.,0.,0.));
#1268=DIRECTION('',(-1.,0.,0.));
#1269=DIRECTION('',(0.,1.,0.));
#1270=DIRECTION('',(1.,0.,0.));
#1271=DIRECTION('center_axis',(0.,-1.,0.));
#1272=DIRECTION('ref_axis',(0.707106781186548,0.,0.707106781186548));
#1273=DIRECTION('center_axis',(0.,1.,0.));
#1274=DIRECTION('ref_axis',(0.707106781186548,0.,0.707106781186548));
#1275=DIRECTION('',(0.,-1.,0.));
#1276=DIRECTION('center_axis',(0.,-1.,0.));
#1277=DIRECTION('ref_axis',(0.707106781186548,0.,0.707106781186548));
#1278=DIRECTION('center_axis',(1.,0.,0.));
#1279=DIRECTION('ref_axis',(0.,0.,1.));
#1280=DIRECTION('',(0.,0.,1.));
#1281=DIRECTION('',(0.,1.,0.));
#1282=DIRECTION('',(0.,0.,-1.));
#1283=DIRECTION('center_axis',(0.,-1.,0.));
#1284=DIRECTION('ref_axis',(-0.707106781186548,0.,0.707106781186548));
#1285=DIRECTION('center_axis',(0.,1.,0.));
#1286=DIRECTION('ref_axis',(-0.707106781186548,0.,0.707106781186548));
#1287=DIRECTION('',(0.,-1.,0.));
#1288=DIRECTION('center_axis',(0.,-1.,0.));
#1289=DIRECTION('ref_axis',(-0.707106781186548,0.,0.707106781186548));
#1290=DIRECTION('',(0.,1.,0.));
#1291=DIRECTION('center_axis',(0.,0.,1.));
#1292=DIRECTION('ref_axis',(-1.,0.,0.));
#1293=DIRECTION('',(-1.,0.,0.));
#1294=DIRECTION('',(0.,1.,0.));
#1295=DIRECTION('',(1.,0.,0.));
#1296=DIRECTION('center_axis',(0.,-1.,0.));
#1297=DIRECTION('ref_axis',(-0.707106781186548,0.,-0.707106781186548));
#1298=DIRECTION('center_axis',(0.,1.,0.));
#1299=DIRECTION('ref_axis',(-0.707106781186548,0.,-0.707106781186548));
#1300=DIRECTION('',(0.,-1.,0.));
#1301=DIRECTION('center_axis',(0.,-1.,0.));
#1302=DIRECTION('ref_axis',(-0.707106781186548,0.,-0.707106781186548));
#1303=DIRECTION('',(0.,1.,0.));
#1304=DIRECTION('center_axis',(-1.,0.,0.));
#1305=DIRECTION('ref_axis',(0.,0.,-1.));
#1306=DIRECTION('',(0.,0.,1.));
#1307=DIRECTION('',(0.,0.,-1.));
#1308=DIRECTION('center_axis',(0.,-1.,0.));
#1309=DIRECTION('ref_axis',(0.707106781186548,0.,-0.707106781186548));
#1310=DIRECTION('center_axis',(0.,1.,0.));
#1311=DIRECTION('ref_axis',(0.707106781186548,0.,-0.707106781186548));
#1312=DIRECTION('',(0.,-1.,0.));
#1313=DIRECTION('center_axis',(0.,-1.,0.));
#1314=DIRECTION('ref_axis',(0.707106781186548,0.,-0.707106781186548));
#1315=DIRECTION('',(0.,1.,0.));
#1316=DIRECTION('center_axis',(0.,0.,-1.));
#1317=DIRECTION('ref_axis',(1.,0.,0.));
#1318=DIRECTION('',(1.,0.,0.));
#1319=DIRECTION('',(0.,1.,0.));
#1320=DIRECTION('',(-1.,0.,0.));
#1321=DIRECTION('center_axis',(0.,-1.,0.));
#1322=DIRECTION('ref_axis',(-0.707106781186548,0.,-0.707106781186548));
#1323=DIRECTION('center_axis',(0.,1.,0.));
#1324=DIRECTION('ref_axis',(-0.707106781186548,0.,-0.707106781186548));
#1325=DIRECTION('',(0.,-1.,0.));
#1326=DIRECTION('center_axis',(0.,-1.,0.));
#1327=DIRECTION('ref_axis',(-0.707106781186548,0.,-0.707106781186548));
#1328=DIRECTION('center_axis',(-1.,0.,0.));
#1329=DIRECTION('ref_axis',(0.,0.,-1.));
#1330=DIRECTION('',(0.,0.,-1.));
#1331=DIRECTION('',(0.,1.,0.));
#1332=DIRECTION('',(0.,0.,1.));
#1333=DIRECTION('center_axis',(0.,-1.,0.));
#1334=DIRECTION('ref_axis',(0.707106781186548,0.,0.707106781186548));
#1335=DIRECTION('center_axis',(0.,1.,0.));
#1336=DIRECTION('ref_axis',(0.707106781186548,0.,0.707106781186548));
#1337=DIRECTION('',(0.,-1.,0.));
#1338=DIRECTION('center_axis',(0.,-1.,0.));
#1339=DIRECTION('ref_axis',(0.707106781186548,0.,0.707106781186548));
#1340=DIRECTION('',(0.,1.,0.));
#1341=DIRECTION('center_axis',(1.,0.,0.));
#1342=DIRECTION('ref_axis',(0.,0.,1.));
#1343=DIRECTION('',(0.,0.,1.));
#1344=DIRECTION('',(0.,1.,0.));
#1345=DIRECTION('',(0.,0.,-1.));
#1346=DIRECTION('center_axis',(0.,-1.,0.));
#1347=DIRECTION('ref_axis',(0.707106781186548,0.,-0.707106781186548));
#1348=DIRECTION('center_axis',(0.,1.,0.));
#1349=DIRECTION('ref_axis',(0.707106781186548,0.,-0.707106781186548));
#1350=DIRECTION('',(0.,-1.,0.));
#1351=DIRECTION('center_axis',(0.,-1.,0.));
#1352=DIRECTION('ref_axis',(0.707106781186548,0.,-0.707106781186548));
#1353=DIRECTION('center_axis',(0.,0.,-1.));
#1354=DIRECTION('ref_axis',(1.,0.,0.));
#1355=DIRECTION('',(1.,0.,0.));
#1356=DIRECTION('',(0.,1.,0.));
#1357=DIRECTION('',(-1.,0.,0.));
#1358=DIRECTION('center_axis',(0.,0.,-1.));
#1359=DIRECTION('ref_axis',(1.,0.,0.));
#1360=DIRECTION('',(-1.,0.,0.));
#1361=DIRECTION('',(0.,-1.,0.));
#1362=DIRECTION('',(1.,0.,0.));
#1363=DIRECTION('center_axis',(-1.,0.,5.9211894646675E-16));
#1364=DIRECTION('ref_axis',(-5.9211894646675E-16,0.,-1.));
#1365=DIRECTION('',(5.9211894646675E-16,0.,1.));
#1366=DIRECTION('',(0.,-1.,0.));
#1367=DIRECTION('',(-5.9211894646675E-16,0.,-1.));
#1368=DIRECTION('center_axis',(1.,0.,0.));
#1369=DIRECTION('ref_axis',(0.,0.,1.));
#1370=DIRECTION('',(0.,0.,-1.));
#1371=DIRECTION('',(0.,-1.,0.));
#1372=DIRECTION('',(0.,0.,1.));
#1373=DIRECTION('center_axis',(0.,0.,1.));
#1374=DIRECTION('ref_axis',(-1.,0.,0.));
#1375=DIRECTION('',(1.,0.,0.));
#1376=DIRECTION('',(0.,-1.,0.));
#1377=DIRECTION('',(-1.,0.,0.));
#1378=DIRECTION('center_axis',(1.,0.,-2.96059473233375E-16));
#1379=DIRECTION('ref_axis',(-2.96059473233375E-16,0.,-1.));
#1380=DIRECTION('',(-2.96059473233375E-16,0.,-1.));
#1381=DIRECTION('',(0.,1.,0.));
#1382=DIRECTION('',(-2.96059473233375E-16,0.,-1.));
#1383=DIRECTION('center_axis',(1.,0.,-2.96059473233375E-16));
#1384=DIRECTION('ref_axis',(-2.96059473233375E-16,0.,-1.));
#1385=DIRECTION('',(-2.96059473233375E-16,0.,-1.));
#1386=DIRECTION('',(0.,-1.,0.));
#1387=DIRECTION('',(-2.96059473233375E-16,0.,-1.));
#1388=DIRECTION('center_axis',(-2.53765262771464E-16,0.,-1.));
#1389=DIRECTION('ref_axis',(-1.,0.,2.53765262771464E-16));
#1390=DIRECTION('',(-1.,0.,2.53765262771464E-16));
#1391=DIRECTION('',(0.,1.,0.));
#1392=DIRECTION('',(-1.,0.,2.53765262771464E-16));
#1393=DIRECTION('center_axis',(-2.53765262771464E-16,0.,-1.));
#1394=DIRECTION('ref_axis',(-1.,0.,2.53765262771464E-16));
#1395=DIRECTION('',(-1.,0.,2.53765262771464E-16));
#1396=DIRECTION('',(0.,-1.,0.));
#1397=DIRECTION('',(-1.,0.,2.53765262771464E-16));
#1398=DIRECTION('center_axis',(2.53765262771464E-16,0.,1.));
#1399=DIRECTION('ref_axis',(1.,0.,-2.53765262771464E-16));
#1400=DIRECTION('',(1.,0.,-2.53765262771464E-16));
#1401=DIRECTION('',(0.,1.,0.));
#1402=DIRECTION('',(1.,0.,-2.53765262771464E-16));
#1403=DIRECTION('center_axis',(2.53765262771464E-16,0.,1.));
#1404=DIRECTION('ref_axis',(1.,0.,-2.53765262771464E-16));
#1405=DIRECTION('',(1.,0.,-2.53765262771464E-16));
#1406=DIRECTION('',(0.,-1.,0.));
#1407=DIRECTION('',(1.,0.,-2.53765262771464E-16));
#1408=DIRECTION('center_axis',(-1.,0.,0.));
#1409=DIRECTION('ref_axis',(0.,0.,1.));
#1410=DIRECTION('',(0.,0.,1.));
#1411=DIRECTION('',(0.,1.,0.));
#1412=DIRECTION('',(0.,0.,1.));
#1413=DIRECTION('center_axis',(-1.,0.,0.));
#1414=DIRECTION('ref_axis',(0.,0.,1.));
#1415=DIRECTION('',(0.,0.,1.));
#1416=DIRECTION('',(0.,-1.,0.));
#1417=DIRECTION('',(0.,0.,1.));
#1418=DIRECTION('center_axis',(0.,1.,0.));
#1419=DIRECTION('ref_axis',(0.,0.,1.));
#1420=DIRECTION('center_axis',(0.,1.,0.));
#1421=DIRECTION('ref_axis',(0.707106781186548,0.,0.707106781186548));
#1422=DIRECTION('center_axis',(0.,1.,0.));
#1423=DIRECTION('ref_axis',(-0.707106781186548,0.,0.707106781186548));
#1424=DIRECTION('center_axis',(0.,1.,0.));
#1425=DIRECTION('ref_axis',(-0.707106781186548,0.,-0.707106781186548));
#1426=DIRECTION('center_axis',(0.,1.,0.));
#1427=DIRECTION('ref_axis',(0.707106781186548,0.,-0.707106781186548));
#1428=DIRECTION('center_axis',(0.,1.,0.));
#1429=DIRECTION('ref_axis',(1.,0.,0.));
#1430=DIRECTION('center_axis',(0.,1.,0.));
#1431=DIRECTION('ref_axis',(1.,0.,0.));
#1432=DIRECTION('center_axis',(0.,1.,0.));
#1433=DIRECTION('ref_axis',(1.,0.,0.));
#1434=DIRECTION('center_axis',(0.,1.,0.));
#1435=DIRECTION('ref_axis',(1.,0.,0.));
#1436=DIRECTION('center_axis',(0.,1.,0.));
#1437=DIRECTION('ref_axis',(1.,0.,0.));
#1438=DIRECTION('center_axis',(0.,-1.,0.));
#1439=DIRECTION('ref_axis',(1.,0.,0.));
#1440=DIRECTION('',(0.,-1.,0.));
#1441=DIRECTION('center_axis',(0.,1.,0.));
#1442=DIRECTION('ref_axis',(1.,0.,0.));
#1443=DIRECTION('center_axis',(0.,-1.,0.));
#1444=DIRECTION('ref_axis',(1.,0.,0.));
#1445=DIRECTION('',(0.,-1.,0.));
#1446=DIRECTION('center_axis',(0.,1.,0.));
#1447=DIRECTION('ref_axis',(1.,0.,0.));
#1448=DIRECTION('center_axis',(0.,-1.,0.));
#1449=DIRECTION('ref_axis',(1.,0.,0.));
#1450=DIRECTION('',(0.,-1.,0.));
#1451=DIRECTION('center_axis',(0.,1.,0.));
#1452=DIRECTION('ref_axis',(1.,0.,0.));
#1453=DIRECTION('center_axis',(0.,-1.,0.));
#1454=DIRECTION('ref_axis',(1.,0.,0.));
#1455=DIRECTION('',(0.,-1.,0.));
#1456=DIRECTION('center_axis',(0.,1.,0.));
#1457=DIRECTION('ref_axis',(0.,0.,1.));
#1458=DIRECTION('center_axis',(0.,1.,0.));
#1459=DIRECTION('ref_axis',(0.,0.,-1.));
#1460=DIRECTION('center_axis',(0.,1.,0.));
#1461=DIRECTION('ref_axis',(0.,0.,-1.));
#1462=DIRECTION('center_axis',(0.,-1.,0.));
#1463=DIRECTION('ref_axis',(0.,0.,-1.));
#1464=DIRECTION('',(2.13730336808379E-18,-0.999847695156391,-0.0174524064372835));
#1465=DIRECTION('center_axis',(0.,-1.,0.));
#1466=DIRECTION('ref_axis',(0.,0.,-1.));
#1467=DIRECTION('center_axis',(0.,-1.,0.));
#1468=DIRECTION('ref_axis',(0.,0.,-1.));
#1469=DIRECTION('',(4.27395569285714E-18,0.999390827019096,-0.034899496702501));
#1470=DIRECTION('center_axis',(0.,-1.,0.));
#1471=DIRECTION('ref_axis',(0.,0.,-1.));
#1472=DIRECTION('center_axis',(0.,1.,0.));
#1473=DIRECTION('ref_axis',(0.,0.,1.));
#1474=DIRECTION('center_axis',(0.,1.,0.));
#1475=DIRECTION('ref_axis',(0.,0.,1.));
#1476=DIRECTION('center_axis',(0.,1.,0.));
#1477=DIRECTION('ref_axis',(0.,0.,-1.));
#1478=DIRECTION('center_axis',(0.,1.,0.));
#1479=DIRECTION('ref_axis',(0.,0.,-1.));
#1480=DIRECTION('center_axis',(0.,-1.,0.));
#1481=DIRECTION('ref_axis',(0.,0.,-1.));
#1482=DIRECTION('',(2.13730336808379E-18,-0.999847695156391,-0.0174524064372835));
#1483=DIRECTION('center_axis',(0.,-1.,0.));
#1484=DIRECTION('ref_axis',(0.,0.,-1.));
#1485=DIRECTION('center_axis',(0.,-1.,0.));
#1486=DIRECTION('ref_axis',(0.,0.,-1.));
#1487=DIRECTION('',(4.27395569285714E-18,0.999390827019096,-0.034899496702501));
#1488=DIRECTION('center_axis',(0.,-1.,0.));
#1489=DIRECTION('ref_axis',(0.,0.,-1.));
#1490=DIRECTION('center_axis',(0.,1.,0.));
#1491=DIRECTION('ref_axis',(0.,0.,1.));
#1492=DIRECTION('center_axis',(0.,1.,0.));
#1493=DIRECTION('ref_axis',(0.,0.,1.));
#1494=DIRECTION('center_axis',(0.,1.,0.));
#1495=DIRECTION('ref_axis',(0.,0.,-1.));
#1496=DIRECTION('center_axis',(0.,1.,0.));
#1497=DIRECTION('ref_axis',(0.,0.,-1.));
#1498=DIRECTION('center_axis',(0.,-1.,0.));
#1499=DIRECTION('ref_axis',(0.,0.,-1.));
#1500=DIRECTION('',(2.13730336808379E-18,-0.999847695156391,-0.0174524064372835));
#1501=DIRECTION('center_axis',(0.,-1.,0.));
#1502=DIRECTION('ref_axis',(0.,0.,-1.));
#1503=DIRECTION('center_axis',(0.,-1.,0.));
#1504=DIRECTION('ref_axis',(0.,0.,-1.));
#1505=DIRECTION('',(4.27395569285714E-18,0.999390827019096,-0.034899496702501));
#1506=DIRECTION('center_axis',(0.,-1.,0.));
#1507=DIRECTION('ref_axis',(0.,0.,-1.));
#1508=DIRECTION('center_axis',(0.,1.,0.));
#1509=DIRECTION('ref_axis',(0.,0.,1.));
#1510=DIRECTION('center_axis',(0.,1.,0.));
#1511=DIRECTION('ref_axis',(0.,0.,1.));
#1512=DIRECTION('center_axis',(0.,1.,0.));
#1513=DIRECTION('ref_axis',(0.,0.,-1.));
#1514=DIRECTION('center_axis',(0.,1.,0.));
#1515=DIRECTION('ref_axis',(0.,0.,-1.));
#1516=DIRECTION('center_axis',(0.,-1.,0.));
#1517=DIRECTION('ref_axis',(0.,0.,-1.));
#1518=DIRECTION('',(2.13730336808379E-18,-0.999847695156391,-0.0174524064372835));
#1519=DIRECTION('center_axis',(0.,-1.,0.));
#1520=DIRECTION('ref_axis',(0.,0.,-1.));
#1521=DIRECTION('center_axis',(0.,-1.,0.));
#1522=DIRECTION('ref_axis',(0.,0.,-1.));
#1523=DIRECTION('',(4.27395569285714E-18,0.999390827019096,-0.034899496702501));
#1524=DIRECTION('center_axis',(0.,-1.,0.));
#1525=DIRECTION('ref_axis',(0.,0.,-1.));
#1526=DIRECTION('center_axis',(0.,1.,0.));
#1527=DIRECTION('ref_axis',(0.,0.,1.));
#1528=DIRECTION('center_axis',(0.,1.,0.));
#1529=DIRECTION('ref_axis',(0.,0.,1.));
#1530=DIRECTION('center_axis',(0.,1.,0.));
#1531=DIRECTION('ref_axis',(0.,0.,-1.));
#1532=DIRECTION('center_axis',(0.,1.,0.));
#1533=DIRECTION('ref_axis',(0.,0.,-1.));
#1534=DIRECTION('center_axis',(0.,-1.,0.));
#1535=DIRECTION('ref_axis',(0.,0.,-1.));
#1536=DIRECTION('',(2.13730336808379E-18,-0.999847695156391,-0.0174524064372835));
#1537=DIRECTION('center_axis',(0.,-1.,0.));
#1538=DIRECTION('ref_axis',(0.,0.,-1.));
#1539=DIRECTION('center_axis',(0.,-1.,0.));
#1540=DIRECTION('ref_axis',(0.,0.,-1.));
#1541=DIRECTION('',(4.27395569285714E-18,0.999390827019096,-0.034899496702501));
#1542=DIRECTION('center_axis',(0.,-1.,0.));
#1543=DIRECTION('ref_axis',(0.,0.,-1.));
#1544=DIRECTION('center_axis',(0.,1.,0.));
#1545=DIRECTION('ref_axis',(0.,0.,1.));
#1546=DIRECTION('center_axis',(0.,1.,0.));
#1547=DIRECTION('ref_axis',(0.,0.,1.));
#1548=DIRECTION('center_axis',(0.,1.,0.));
#1549=DIRECTION('ref_axis',(0.,0.,-1.));
#1550=DIRECTION('center_axis',(0.,1.,0.));
#1551=DIRECTION('ref_axis',(0.,0.,-1.));
#1552=DIRECTION('center_axis',(0.,-1.,0.));
#1553=DIRECTION('ref_axis',(0.,0.,-1.));
#1554=DIRECTION('',(2.13730336808379E-18,-0.999847695156391,-0.0174524064372835));
#1555=DIRECTION('center_axis',(0.,-1.,0.));
#1556=DIRECTION('ref_axis',(0.,0.,-1.));
#1557=DIRECTION('center_axis',(0.,-1.,0.));
#1558=DIRECTION('ref_axis',(0.,0.,-1.));
#1559=DIRECTION('',(4.27395569285714E-18,0.999390827019096,-0.034899496702501));
#1560=DIRECTION('center_axis',(0.,-1.,0.));
#1561=DIRECTION('ref_axis',(0.,0.,-1.));
#1562=DIRECTION('center_axis',(0.,1.,0.));
#1563=DIRECTION('ref_axis',(0.,0.,1.));
#1564=DIRECTION('center_axis',(0.,1.,0.));
#1565=DIRECTION('ref_axis',(0.,0.,1.));
#1566=DIRECTION('center_axis',(0.,1.,0.));
#1567=DIRECTION('ref_axis',(0.,0.,-1.));
#1568=DIRECTION('center_axis',(0.,1.,0.));
#1569=DIRECTION('ref_axis',(0.,0.,-1.));
#1570=DIRECTION('center_axis',(0.,-1.,0.));
#1571=DIRECTION('ref_axis',(0.,0.,-1.));
#1572=DIRECTION('',(2.13730336808379E-18,-0.999847695156391,-0.0174524064372835));
#1573=DIRECTION('center_axis',(0.,-1.,0.));
#1574=DIRECTION('ref_axis',(0.,0.,-1.));
#1575=DIRECTION('center_axis',(0.,-1.,0.));
#1576=DIRECTION('ref_axis',(0.,0.,-1.));
#1577=DIRECTION('',(4.27395569285714E-18,0.999390827019096,-0.034899496702501));
#1578=DIRECTION('center_axis',(0.,-1.,0.));
#1579=DIRECTION('ref_axis',(0.,0.,-1.));
#1580=DIRECTION('center_axis',(0.,1.,0.));
#1581=DIRECTION('ref_axis',(0.,0.,1.));
#1582=DIRECTION('center_axis',(0.,1.,0.));
#1583=DIRECTION('ref_axis',(-0.707106781186548,0.,-0.707106781186548));
#1584=DIRECTION('center_axis',(0.,-1.,0.));
#1585=DIRECTION('ref_axis',(-0.707106781186548,0.,-0.707106781186548));
#1586=DIRECTION('center_axis',(0.,1.,0.));
#1587=DIRECTION('ref_axis',(0.,0.,1.));
#1588=DIRECTION('center_axis',(0.,-1.,0.));
#1589=DIRECTION('ref_axis',(0.707106781186548,0.,-0.707106781186548));
#1590=DIRECTION('center_axis',(0.,-1.,0.));
#1591=DIRECTION('ref_axis',(-0.707106781186548,0.,0.707106781186548));
#1592=DIRECTION('center_axis',(0.,-1.,0.));
#1593=DIRECTION('ref_axis',(0.707106781186548,0.,0.707106781186548));
#1594=DIRECTION('center_axis',(0.,1.,0.));
#1595=DIRECTION('ref_axis',(0.707106781186548,0.,-0.707106781186548));
#1596=DIRECTION('center_axis',(0.,1.,0.));
#1597=DIRECTION('ref_axis',(-0.707106781186548,0.,0.707106781186548));
#1598=DIRECTION('center_axis',(0.,1.,0.));
#1599=DIRECTION('ref_axis',(0.707106781186548,0.,0.707106781186548));
#1600=CARTESIAN_POINT('',(0.,0.,0.));
#1601=CARTESIAN_POINT('Origin',(-1.80189571458755,0.4,-12.2170616113744));
#1602=CARTESIAN_POINT('',(-2.30189571458755,0.4,-12.2170616113744));
#1603=CARTESIAN_POINT('',(-1.80189571458755,0.4,-11.7170616113744));
#1604=CARTESIAN_POINT('Origin',(-1.80189571458755,0.4,-12.2170616113744));
#1605=CARTESIAN_POINT('',(-1.80189571458755,0.,-11.7170616113744));
#1606=CARTESIAN_POINT('',(-1.80189571458755,0.4,-11.7170616113744));
#1607=CARTESIAN_POINT('',(-2.30189571458755,0.,-12.2170616113744));
#1608=CARTESIAN_POINT('Origin',(-1.80189571458755,0.,-12.2170616113744));
#1609=CARTESIAN_POINT('',(-2.30189571458755,0.4,-12.2170616113744));
#1610=CARTESIAN_POINT('Origin',(2.69810428541245,0.4,-11.7170616113744));
#1611=CARTESIAN_POINT('',(2.19810428541245,0.4,-11.7170616113744));
#1612=CARTESIAN_POINT('',(1.44810428541245,0.4,-11.7170616113744));
#1613=CARTESIAN_POINT('',(2.19810428541245,0.,-11.7170616113744));
#1614=CARTESIAN_POINT('',(2.19810428541245,0.4,-11.7170616113744));
#1615=CARTESIAN_POINT('',(1.44810428541245,0.,-11.7170616113744));
#1616=CARTESIAN_POINT('Origin',(2.19810428541245,0.4,-12.2170616113744));
#1617=CARTESIAN_POINT('',(2.69810428541245,0.4,-12.2170616113744));
#1618=CARTESIAN_POINT('Origin',(2.19810428541245,0.4,-12.2170616113744));
#1619=CARTESIAN_POINT('',(2.69810428541245,0.,-12.2170616113744));
#1620=CARTESIAN_POINT('',(2.69810428541245,0.4,-12.2170616113744));
#1621=CARTESIAN_POINT('Origin',(2.19810428541245,0.,-12.2170616113744));
#1622=CARTESIAN_POINT('Origin',(2.69810428541245,0.4,-13.2170616113744));
#1623=CARTESIAN_POINT('',(2.69810428541245,0.4,-13.2170616113744));
#1624=CARTESIAN_POINT('',(2.69810428541245,0.4,-7.21706161137441));
#1625=CARTESIAN_POINT('',(2.69810428541245,0.,-13.2170616113744));
#1626=CARTESIAN_POINT('',(2.69810428541245,0.2,-13.2170616113744));
#1627=CARTESIAN_POINT('',(2.69810428541245,0.,-7.21706161137441));
#1628=CARTESIAN_POINT('Origin',(6.19810428541245,0.4,2.28293838862559));
#1629=CARTESIAN_POINT('',(5.69810428541245,0.4,2.28293838862559));
#1630=CARTESIAN_POINT('',(6.19810428541245,0.4,2.78293838862559));
#1631=CARTESIAN_POINT('Origin',(6.19810428541245,0.4,2.28293838862559));
#1632=CARTESIAN_POINT('',(6.19810428541245,0.,2.78293838862559));
#1633=CARTESIAN_POINT('',(6.19810428541245,0.4,2.78293838862559));
#1634=CARTESIAN_POINT('',(5.69810428541245,0.,2.28293838862559));
#1635=CARTESIAN_POINT('Origin',(6.19810428541245,0.,2.28293838862559));
#1636=CARTESIAN_POINT('',(5.69810428541245,0.4,2.28293838862559));
#1637=CARTESIAN_POINT('Origin',(7.19810428541245,0.4,2.78293838862559));
#1638=CARTESIAN_POINT('',(7.19810428541245,0.4,2.78293838862559));
#1639=CARTESIAN_POINT('',(3.69810428541245,0.4,2.78293838862559));
#1640=CARTESIAN_POINT('',(7.19810428541245,0.,2.78293838862559));
#1641=CARTESIAN_POINT('',(7.19810428541245,0.2,2.78293838862559));
#1642=CARTESIAN_POINT('',(3.69810428541245,0.,2.78293838862559));
#1643=CARTESIAN_POINT('Origin',(6.19810428541245,0.4,-4.71706161137441));
#1644=CARTESIAN_POINT('',(6.19810428541245,0.4,-5.21706161137441));
#1645=CARTESIAN_POINT('',(5.69810428541245,0.4,-4.71706161137441));
#1646=CARTESIAN_POINT('Origin',(6.19810428541245,0.4,-4.71706161137441));
#1647=CARTESIAN_POINT('',(5.69810428541245,0.,-4.71706161137441));
#1648=CARTESIAN_POINT('',(5.69810428541245,0.4,-4.71706161137441));
#1649=CARTESIAN_POINT('',(6.19810428541245,0.,-5.21706161137441));
#1650=CARTESIAN_POINT('Origin',(6.19810428541245,0.,-4.71706161137441));
#1651=CARTESIAN_POINT('',(6.19810428541245,0.4,-5.21706161137441));
#1652=CARTESIAN_POINT('Origin',(5.69810428541245,0.4,2.78293838862559));
#1653=CARTESIAN_POINT('',(5.69810428541245,0.,0.78293838862559));
#1654=CARTESIAN_POINT('',(5.69810428541245,0.4,0.78293838862559));
#1655=CARTESIAN_POINT('Origin',(2.19810428541245,0.4,9.78293838862559));
#1656=CARTESIAN_POINT('',(2.69810428541245,0.4,9.78293838862559));
#1657=CARTESIAN_POINT('',(2.19810428541245,0.4,9.28293838862559));
#1658=CARTESIAN_POINT('Origin',(2.19810428541245,0.4,9.78293838862559));
#1659=CARTESIAN_POINT('',(2.19810428541245,0.,9.28293838862559));
#1660=CARTESIAN_POINT('',(2.19810428541245,0.4,9.28293838862559));
#1661=CARTESIAN_POINT('',(2.69810428541245,0.,9.78293838862559));
#1662=CARTESIAN_POINT('Origin',(2.19810428541245,0.,9.78293838862559));
#1663=CARTESIAN_POINT('',(2.69810428541245,0.4,9.78293838862559));
#1664=CARTESIAN_POINT('Origin',(-2.30189571458755,0.4,9.28293838862559));
#1665=CARTESIAN_POINT('',(-1.80189571458755,0.4,9.28293838862559));
#1666=CARTESIAN_POINT('',(-1.05189571458755,0.4,9.28293838862559));
#1667=CARTESIAN_POINT('',(-1.80189571458755,0.,9.28293838862559));
#1668=CARTESIAN_POINT('',(-1.80189571458755,0.4,9.28293838862559));
#1669=CARTESIAN_POINT('',(-1.05189571458755,0.,9.28293838862559));
#1670=CARTESIAN_POINT('Origin',(-1.80189571458755,0.4,9.78293838862559));
#1671=CARTESIAN_POINT('',(-2.30189571458755,0.4,9.78293838862559));
#1672=CARTESIAN_POINT('Origin',(-1.80189571458755,0.4,9.78293838862559));
#1673=CARTESIAN_POINT('',(-2.30189571458755,0.,9.78293838862559));
#1674=CARTESIAN_POINT('',(-2.30189571458755,0.4,9.78293838862559));
#1675=CARTESIAN_POINT('Origin',(-1.80189571458755,0.,9.78293838862559));
#1676=CARTESIAN_POINT('Origin',(-2.30189571458755,0.4,10.7829383886256));
#1677=CARTESIAN_POINT('',(-2.30189571458755,0.4,10.7829383886256));
#1678=CARTESIAN_POINT('',(-2.30189571458755,0.4,4.78293838862559));
#1679=CARTESIAN_POINT('',(-2.30189571458755,0.,10.7829383886256));
#1680=CARTESIAN_POINT('',(-2.30189571458755,0.2,10.7829383886256));
#1681=CARTESIAN_POINT('',(-2.30189571458755,0.,4.78293838862559));
#1682=CARTESIAN_POINT('Origin',(-5.80189571458755,0.4,2.28293838862559));
#1683=CARTESIAN_POINT('',(-5.80189571458755,0.4,2.78293838862559));
#1684=CARTESIAN_POINT('',(-5.30189571458755,0.4,2.28293838862559));
#1685=CARTESIAN_POINT('Origin',(-5.80189571458755,0.4,2.28293838862559));
#1686=CARTESIAN_POINT('',(-5.30189571458755,0.,2.28293838862559));
#1687=CARTESIAN_POINT('',(-5.30189571458755,0.4,2.28293838862559));
#1688=CARTESIAN_POINT('',(-5.80189571458755,0.,2.78293838862559));
#1689=CARTESIAN_POINT('Origin',(-5.80189571458755,0.,2.28293838862559));
#1690=CARTESIAN_POINT('',(-5.80189571458755,0.4,2.78293838862559));
#1691=CARTESIAN_POINT('Origin',(-5.30189571458755,0.4,-5.21706161137441));
#1692=CARTESIAN_POINT('',(-5.30189571458755,0.4,-4.71706161137441));
#1693=CARTESIAN_POINT('',(-5.30189571458755,0.4,-3.21706161137441));
#1694=CARTESIAN_POINT('',(-5.30189571458755,0.,-4.71706161137441));
#1695=CARTESIAN_POINT('',(-5.30189571458755,0.4,-4.71706161137441));
#1696=CARTESIAN_POINT('',(-5.30189571458755,0.,-3.21706161137441));
#1697=CARTESIAN_POINT('Origin',(-5.80189571458755,0.4,-4.71706161137441));
#1698=CARTESIAN_POINT('',(-5.80189571458755,0.4,-5.21706161137441));
#1699=CARTESIAN_POINT('Origin',(-5.80189571458755,0.4,-4.71706161137441));
#1700=CARTESIAN_POINT('',(-5.80189571458755,0.,-5.21706161137441));
#1701=CARTESIAN_POINT('',(-5.80189571458755,0.4,-5.21706161137441));
#1702=CARTESIAN_POINT('Origin',(-5.80189571458755,0.,-4.71706161137441));
#1703=CARTESIAN_POINT('Origin',(-6.80189571458755,0.4,-5.21706161137441));
#1704=CARTESIAN_POINT('',(-6.80189571458755,0.4,-5.21706161137441));
#1705=CARTESIAN_POINT('',(-3.30189571458755,0.4,-5.21706161137441));
#1706=CARTESIAN_POINT('',(-6.80189571458755,0.,-5.21706161137441));
#1707=CARTESIAN_POINT('',(-6.80189571458755,0.2,-5.21706161137441));
#1708=CARTESIAN_POINT('',(-3.30189571458755,0.,-5.21706161137441));
#1709=CARTESIAN_POINT('Origin',(5.69810428541245,0.4,-5.21706161137441));
#1710=CARTESIAN_POINT('',(7.19810428541245,0.,-5.21706161137441));
#1711=CARTESIAN_POINT('',(2.94810428541245,0.,-5.21706161137441));
#1712=CARTESIAN_POINT('',(7.19810428541245,0.4,-5.21706161137441));
#1713=CARTESIAN_POINT('',(7.19810428541245,0.2,-5.21706161137441));
#1714=CARTESIAN_POINT('',(2.94810428541245,0.4,-5.21706161137441));
#1715=CARTESIAN_POINT('Origin',(-2.30189571458755,0.4,-11.7170616113744));
#1716=CARTESIAN_POINT('',(-2.30189571458756,0.,-13.2170616113744));
#1717=CARTESIAN_POINT('',(-2.30189571458755,0.,-6.46706161137441));
#1718=CARTESIAN_POINT('',(-2.30189571458756,0.4,-13.2170616113744));
#1719=CARTESIAN_POINT('',(-2.30189571458756,0.2,-13.2170616113744));
#1720=CARTESIAN_POINT('',(-2.30189571458755,0.4,-6.46706161137441));
#1721=CARTESIAN_POINT('Origin',(2.69810428541245,0.4,9.28293838862559));
#1722=CARTESIAN_POINT('',(2.69810428541245,0.,10.7829383886256));
#1723=CARTESIAN_POINT('',(2.69810428541245,0.,4.03293838862559));
#1724=CARTESIAN_POINT('',(2.69810428541245,0.4,10.7829383886256));
#1725=CARTESIAN_POINT('',(2.69810428541245,0.2,10.7829383886256));
#1726=CARTESIAN_POINT('',(2.69810428541245,0.4,4.03293838862559));
#1727=CARTESIAN_POINT('Origin',(-5.30189571458755,0.4,2.78293838862559));
#1728=CARTESIAN_POINT('',(-6.80189571458755,0.,2.78293838862559));
#1729=CARTESIAN_POINT('',(-2.55189571458755,0.,2.78293838862559));
#1730=CARTESIAN_POINT('',(-6.80189571458755,0.4,2.78293838862559));
#1731=CARTESIAN_POINT('',(-6.80189571458755,0.2,2.78293838862559));
#1732=CARTESIAN_POINT('',(-2.55189571458755,0.4,2.78293838862559));
#1733=CARTESIAN_POINT('Origin',(7.19810428541245,0.,10.7829383886256));
#1734=CARTESIAN_POINT('',(7.19810428541245,0.4,9.78293838862559));
#1735=CARTESIAN_POINT('',(7.19810428541245,0.4,10.7829383886256));
#1736=CARTESIAN_POINT('',(7.19810428541245,0.,9.78293838862559));
#1737=CARTESIAN_POINT('',(7.19810428541245,0.,9.78293838862559));
#1738=CARTESIAN_POINT('',(7.19810428541245,0.,10.7829383886256));
#1739=CARTESIAN_POINT('Origin',(7.19810428541245,0.,10.7829383886256));
#1740=CARTESIAN_POINT('',(7.19810428541244,0.,-12.2170616113744));
#1741=CARTESIAN_POINT('',(7.19810428541245,0.,10.7829383886256));
#1742=CARTESIAN_POINT('',(7.19810428541244,0.4,-12.2170616113744));
#1743=CARTESIAN_POINT('',(7.19810428541244,0.,-12.2170616113744));
#1744=CARTESIAN_POINT('',(7.19810428541245,0.4,10.7829383886256));
#1745=CARTESIAN_POINT('Origin',(7.19810428541244,0.,-13.2170616113744));
#1746=CARTESIAN_POINT('',(6.19810428541244,0.4,-13.2170616113744));
#1747=CARTESIAN_POINT('',(7.19810428541244,0.4,-13.2170616113744));
#1748=CARTESIAN_POINT('',(6.19810428541244,0.,-13.2170616113744));
#1749=CARTESIAN_POINT('',(6.19810428541244,0.,-13.2170616113744));
#1750=CARTESIAN_POINT('',(7.19810428541244,0.,-13.2170616113744));
#1751=CARTESIAN_POINT('Origin',(7.19810428541244,0.,-13.2170616113744));
#1752=CARTESIAN_POINT('',(-5.80189571458755,0.,-13.2170616113744));
#1753=CARTESIAN_POINT('',(7.19810428541244,0.,-13.2170616113744));
#1754=CARTESIAN_POINT('',(-5.80189571458755,0.4,-13.2170616113744));
#1755=CARTESIAN_POINT('',(-5.80189571458755,0.,-13.2170616113744));
#1756=CARTESIAN_POINT('',(7.19810428541244,0.4,-13.2170616113744));
#1757=CARTESIAN_POINT('Origin',(-6.80189571458755,0.,10.7829383886256));
#1758=CARTESIAN_POINT('',(-5.80189571458755,0.4,10.7829383886256));
#1759=CARTESIAN_POINT('',(-6.80189571458755,0.4,10.7829383886256));
#1760=CARTESIAN_POINT('',(-5.80189571458755,0.,10.7829383886256));
#1761=CARTESIAN_POINT('',(-5.80189571458755,0.,10.7829383886256));
#1762=CARTESIAN_POINT('',(-6.80189571458755,0.,10.7829383886256));
#1763=CARTESIAN_POINT('Origin',(-6.80189571458755,0.,10.7829383886256));
#1764=CARTESIAN_POINT('',(6.19810428541245,0.,10.7829383886256));
#1765=CARTESIAN_POINT('',(-6.80189571458755,0.,10.7829383886256));
#1766=CARTESIAN_POINT('',(6.19810428541245,0.4,10.7829383886256));
#1767=CARTESIAN_POINT('',(6.19810428541245,0.,10.7829383886256));
#1768=CARTESIAN_POINT('',(-6.80189571458755,0.4,10.7829383886256));
#1769=CARTESIAN_POINT('Origin',(-6.80189571458755,0.,-13.2170616113744));
#1770=CARTESIAN_POINT('',(-6.80189571458755,0.4,-12.2170616113744));
#1771=CARTESIAN_POINT('',(-6.80189571458755,0.4,-13.2170616113744));
#1772=CARTESIAN_POINT('',(-6.80189571458755,0.,-12.2170616113744));
#1773=CARTESIAN_POINT('',(-6.80189571458755,0.,-12.2170616113744));
#1774=CARTESIAN_POINT('',(-6.80189571458755,0.,-13.2170616113744));
#1775=CARTESIAN_POINT('Origin',(-6.80189571458755,0.,-13.2170616113744));
#1776=CARTESIAN_POINT('',(-6.80189571458755,0.,9.78293838862559));
#1777=CARTESIAN_POINT('',(-6.80189571458755,0.,-13.2170616113744));
#1778=CARTESIAN_POINT('',(-6.80189571458755,0.4,9.78293838862559));
#1779=CARTESIAN_POINT('',(-6.80189571458755,0.,9.78293838862559));
#1780=CARTESIAN_POINT('',(-6.80189571458755,0.4,-13.2170616113744));
#1781=CARTESIAN_POINT('Origin',(0.198104285412449,0.,-1.21706161137441));
#1782=CARTESIAN_POINT('Origin',(6.19810428541245,0.,9.78293838862559));
#1783=CARTESIAN_POINT('Origin',(-5.80189571458755,0.,9.78293838862559));
#1784=CARTESIAN_POINT('Origin',(-5.80189571458755,0.,-12.2170616113744));
#1785=CARTESIAN_POINT('Origin',(6.19810428541244,0.,-12.2170616113744));
#1786=CARTESIAN_POINT('',(6.38810428541244,0.,-12.5670616113744));
#1787=CARTESIAN_POINT('Origin',(6.54810428541244,0.,-12.5670616113744));
#1788=CARTESIAN_POINT('',(6.38810428541245,0.,10.1329383886256));
#1789=CARTESIAN_POINT('Origin',(6.54810428541245,0.,10.1329383886256));
#1790=CARTESIAN_POINT('',(-6.31189571458756,0.,-12.5670616113744));
#1791=CARTESIAN_POINT('Origin',(-6.15189571458756,0.,-12.5670616113744));
#1792=CARTESIAN_POINT('',(-6.31189571458755,0.,10.1329383886256));
#1793=CARTESIAN_POINT('Origin',(-6.15189571458755,0.,10.1329383886256));
#1794=CARTESIAN_POINT('Origin',(-6.15189571458755,0.1,10.1329383886256));
#1795=CARTESIAN_POINT('',(-6.31189571458755,0.4,10.1329383886256));
#1796=CARTESIAN_POINT('Origin',(-6.15189571458755,0.4,10.1329383886256));
#1797=CARTESIAN_POINT('',(-6.31189571458755,0.1,10.1329383886256));
#1798=CARTESIAN_POINT('Origin',(-6.15189571458756,0.1,-12.5670616113744));
#1799=CARTESIAN_POINT('',(-6.31189571458756,0.4,-12.5670616113744));
#1800=CARTESIAN_POINT('Origin',(-6.15189571458756,0.4,-12.5670616113744));
#1801=CARTESIAN_POINT('',(-6.31189571458756,0.1,-12.5670616113744));
#1802=CARTESIAN_POINT('Origin',(6.54810428541245,0.1,10.1329383886256));
#1803=CARTESIAN_POINT('',(6.38810428541245,0.4,10.1329383886256));
#1804=CARTESIAN_POINT('Origin',(6.54810428541245,0.4,10.1329383886256));
#1805=CARTESIAN_POINT('',(6.38810428541245,0.1,10.1329383886256));
#1806=CARTESIAN_POINT('Origin',(6.54810428541244,0.1,-12.5670616113744));
#1807=CARTESIAN_POINT('',(6.38810428541244,0.4,-12.5670616113744));
#1808=CARTESIAN_POINT('Origin',(6.54810428541244,0.4,-12.5670616113744));
#1809=CARTESIAN_POINT('',(6.38810428541244,0.1,-12.5670616113744));
#1810=CARTESIAN_POINT('Origin',(0.198104285412449,0.4,-1.21706161137441));
#1811=CARTESIAN_POINT('',(4.2369251893287,0.4,9.15675579123326));
#1812=CARTESIAN_POINT('Origin',(4.2369251893287,0.4,8.98293838862559));
#1813=CARTESIAN_POINT('Origin',(4.2369251893287,0.15,8.98293838862559));
#1814=CARTESIAN_POINT('',(4.2369251893287,1.9,9.18293838862559));
#1815=CARTESIAN_POINT('Origin',(4.2369251893287,1.9,8.98293838862559));
#1816=CARTESIAN_POINT('',(4.2369251893287,0.15,9.15239202500121));
#1817=CARTESIAN_POINT('Origin',(4.2369251893287,0.15,8.98293838862559));
#1818=CARTESIAN_POINT('',(4.2369251893287,0.4,9.53531954286321));
#1819=CARTESIAN_POINT('Origin',(4.2369251893287,0.4,8.98293838862559));
#1820=CARTESIAN_POINT('',(4.2369251893287,1.9,9.48293838862559));
#1821=CARTESIAN_POINT('',(4.2369251893287,0.15,9.54404973523615));
#1822=CARTESIAN_POINT('Origin',(4.2369251893287,1.9,8.98293838862559));
#1823=CARTESIAN_POINT('Origin',(4.2369251893287,1.9,8.73293838862559));
#1824=CARTESIAN_POINT('Origin',(0.198104285412449,0.4,-1.21706161137441));
#1825=CARTESIAN_POINT('',(-4.3630748106713,0.4,9.15675579123326));
#1826=CARTESIAN_POINT('Origin',(-4.3630748106713,0.4,8.98293838862559));
#1827=CARTESIAN_POINT('Origin',(-4.3630748106713,0.15,8.98293838862559));
#1828=CARTESIAN_POINT('',(-4.3630748106713,1.9,9.18293838862559));
#1829=CARTESIAN_POINT('Origin',(-4.3630748106713,1.9,8.98293838862559));
#1830=CARTESIAN_POINT('',(-4.3630748106713,0.15,9.15239202500121));
#1831=CARTESIAN_POINT('Origin',(-4.3630748106713,0.15,8.98293838862559));
#1832=CARTESIAN_POINT('',(-4.3630748106713,0.4,9.53531954286321));
#1833=CARTESIAN_POINT('Origin',(-4.3630748106713,0.4,8.98293838862559));
#1834=CARTESIAN_POINT('',(-4.3630748106713,1.9,9.48293838862559));
#1835=CARTESIAN_POINT('',(-4.3630748106713,0.15,9.54404973523615));
#1836=CARTESIAN_POINT('Origin',(-4.3630748106713,1.9,8.98293838862559));
#1837=CARTESIAN_POINT('Origin',(-4.3630748106713,1.9,8.73293838862559));
#1838=CARTESIAN_POINT('Origin',(0.198104285412449,0.4,-1.21706161137441));
#1839=CARTESIAN_POINT('',(4.2369251893287,0.4,3.35675579123326));
#1840=CARTESIAN_POINT('Origin',(4.2369251893287,0.4,3.18293838862559));
#1841=CARTESIAN_POINT('Origin',(4.2369251893287,0.15,3.18293838862559));
#1842=CARTESIAN_POINT('',(4.2369251893287,1.9,3.38293838862559));
#1843=CARTESIAN_POINT('Origin',(4.2369251893287,1.9,3.18293838862559));
#1844=CARTESIAN_POINT('',(4.2369251893287,0.15,3.35239202500121));
#1845=CARTESIAN_POINT('Origin',(4.2369251893287,0.15,3.18293838862559));
#1846=CARTESIAN_POINT('',(4.2369251893287,0.4,3.73531954286321));
#1847=CARTESIAN_POINT('Origin',(4.2369251893287,0.4,3.18293838862559));
#1848=CARTESIAN_POINT('',(4.2369251893287,1.9,3.68293838862559));
#1849=CARTESIAN_POINT('',(4.2369251893287,0.15,3.74404973523615));
#1850=CARTESIAN_POINT('Origin',(4.2369251893287,1.9,3.18293838862559));
#1851=CARTESIAN_POINT('Origin',(4.2369251893287,1.9,2.93293838862559));
#1852=CARTESIAN_POINT('Origin',(0.198104285412449,0.4,-1.21706161137441));
#1853=CARTESIAN_POINT('',(-4.3630748106713,0.4,4.94217809123326));
#1854=CARTESIAN_POINT('Origin',(-4.3630748106713,0.4,4.76836068862559));
#1855=CARTESIAN_POINT('Origin',(-4.3630748106713,0.15,4.76836068862559));
#1856=CARTESIAN_POINT('',(-4.3630748106713,1.9,4.96836068862559));
#1857=CARTESIAN_POINT('Origin',(-4.3630748106713,1.9,4.76836068862559));
#1858=CARTESIAN_POINT('',(-4.3630748106713,0.15,4.93781432500121));
#1859=CARTESIAN_POINT('Origin',(-4.3630748106713,0.15,4.76836068862559));
#1860=CARTESIAN_POINT('',(-4.3630748106713,0.4,5.32074184286321));
#1861=CARTESIAN_POINT('Origin',(-4.3630748106713,0.4,4.76836068862559));
#1862=CARTESIAN_POINT('',(-4.3630748106713,1.9,5.26836068862559));
#1863=CARTESIAN_POINT('',(-4.3630748106713,0.15,5.32947203523615));
#1864=CARTESIAN_POINT('Origin',(-4.3630748106713,1.9,4.76836068862559));
#1865=CARTESIAN_POINT('Origin',(-4.3630748106713,1.9,4.51836068862559));
#1866=CARTESIAN_POINT('Origin',(0.198104285412449,0.4,-1.21706161137441));
#1867=CARTESIAN_POINT('',(0.976139641795041,0.4,-10.1232442087667));
#1868=CARTESIAN_POINT('Origin',(0.976139641795041,0.4,-10.2970616113744));
#1869=CARTESIAN_POINT('Origin',(0.976139641795041,0.15,-10.2970616113744));
#1870=CARTESIAN_POINT('',(0.976139641795041,1.9,-10.0970616113744));
#1871=CARTESIAN_POINT('Origin',(0.976139641795041,1.9,-10.2970616113744));
#1872=CARTESIAN_POINT('',(0.976139641795041,0.15,-10.1276079749988));
#1873=CARTESIAN_POINT('Origin',(0.976139641795041,0.15,-10.2970616113744));
#1874=CARTESIAN_POINT('',(0.976139641795041,0.4,-9.74468045713679));
#1875=CARTESIAN_POINT('Origin',(0.976139641795041,0.4,-10.2970616113744));
#1876=CARTESIAN_POINT('',(0.976139641795041,1.9,-9.79706161137442));
#1877=CARTESIAN_POINT('',(0.976139641795041,0.15,-9.73595026476386));
#1878=CARTESIAN_POINT('Origin',(0.976139641795041,1.9,-10.2970616113744));
#1879=CARTESIAN_POINT('Origin',(0.976139641795041,1.9,-10.5470616113744));
#1880=CARTESIAN_POINT('Origin',(0.198104285412449,0.4,-1.21706161137441));
#1881=CARTESIAN_POINT('',(-3.84986035820496,0.4,-10.2502442087667));
#1882=CARTESIAN_POINT('Origin',(-3.84986035820496,0.4,-10.4240616113744));
#1883=CARTESIAN_POINT('Origin',(-3.84986035820496,0.15,-10.4240616113744));
#1884=CARTESIAN_POINT('',(-3.84986035820496,1.9,-10.2240616113744));
#1885=CARTESIAN_POINT('Origin',(-3.84986035820496,1.9,-10.4240616113744));
#1886=CARTESIAN_POINT('',(-3.84986035820496,0.15,-10.2546079749988));
#1887=CARTESIAN_POINT('Origin',(-3.84986035820496,0.15,-10.4240616113744));
#1888=CARTESIAN_POINT('',(-3.84986035820496,0.4,-9.87168045713679));
#1889=CARTESIAN_POINT('Origin',(-3.84986035820496,0.4,-10.4240616113744));
#1890=CARTESIAN_POINT('',(-3.84986035820496,1.9,-9.92406161137441));
#1891=CARTESIAN_POINT('',(-3.84986035820496,0.15,-9.86295026476385));
#1892=CARTESIAN_POINT('Origin',(-3.84986035820496,1.9,-10.4240616113744));
#1893=CARTESIAN_POINT('Origin',(-3.84986035820496,1.9,-10.6740616113744));
#1894=CARTESIAN_POINT('Origin',(0.198104285412449,0.4,-1.21706161137441));
#1895=CARTESIAN_POINT('',(-0.547860358204962,0.4,-5.04324420876674));
#1896=CARTESIAN_POINT('Origin',(-0.547860358204962,0.4,-5.21706161137441));
#1897=CARTESIAN_POINT('Origin',(-0.547860358204962,0.15,-5.21706161137441));
#1898=CARTESIAN_POINT('',(-0.547860358204962,1.9,-5.01706161137441));
#1899=CARTESIAN_POINT('Origin',(-0.547860358204962,1.9,-5.21706161137441));
#1900=CARTESIAN_POINT('',(-0.547860358204962,0.15,-5.04760797499879));
#1901=CARTESIAN_POINT('Origin',(-0.547860358204962,0.15,-5.21706161137441));
#1902=CARTESIAN_POINT('',(-0.547860358204962,0.4,-4.66468045713679));
#1903=CARTESIAN_POINT('Origin',(-0.547860358204962,0.4,-5.21706161137441));
#1904=CARTESIAN_POINT('',(-0.547860358204962,1.9,-4.71706161137441));
#1905=CARTESIAN_POINT('',(-0.547860358204962,0.15,-4.65595026476385));
#1906=CARTESIAN_POINT('Origin',(-0.547860358204962,1.9,-5.21706161137441));
#1907=CARTESIAN_POINT('Origin',(-0.547860358204962,1.9,-5.46706161137441));
#1908=CARTESIAN_POINT('Origin',(-5.80189571458755,0.,-12.2170616113744));
#1909=CARTESIAN_POINT('Origin',(-5.80189571458755,0.4,-12.2170616113744));
#1910=CARTESIAN_POINT('Origin',(0.198104285412449,0.4,-1.21706161137441));
#1911=CARTESIAN_POINT('Origin',(6.19810428541244,0.4,-12.2170616113744));
#1912=CARTESIAN_POINT('Origin',(-5.80189571458755,0.4,9.78293838862559));
#1913=CARTESIAN_POINT('Origin',(6.19810428541245,0.4,9.78293838862559));
#1914=CARTESIAN_POINT('Origin',(6.19810428541244,0.,-12.2170616113744));
#1915=CARTESIAN_POINT('Origin',(-5.80189571458755,0.,9.78293838862559));
#1916=CARTESIAN_POINT('Origin',(6.19810428541245,0.,9.78293838862559));
#1917=UNCERTAINTY_MEASURE_WITH_UNIT(LENGTH_MEASURE(0.001),#1921,
'DISTANCE_ACCURACY_VALUE',
'Maximum model space distance between geometric entities at asserted c
onnectivities');
#1918=UNCERTAINTY_MEASURE_WITH_UNIT(LENGTH_MEASURE(0.001),#1921,
'DISTANCE_ACCURACY_VALUE',
'Maximum model space distance between geometric entities at asserted c
onnectivities');
#1919=(
GEOMETRIC_REPRESENTATION_CONTEXT(3)
GLOBAL_UNCERTAINTY_ASSIGNED_CONTEXT((#1917))
GLOBAL_UNIT_ASSIGNED_CONTEXT((#1921,#1922,#1923))
REPRESENTATION_CONTEXT('','3D')
);
#1920=(
GEOMETRIC_REPRESENTATION_CONTEXT(3)
GLOBAL_UNCERTAINTY_ASSIGNED_CONTEXT((#1918))
GLOBAL_UNIT_ASSIGNED_CONTEXT((#1921,#1922,#1923))
REPRESENTATION_CONTEXT('','3D')
);
#1921=(
LENGTH_UNIT()
NAMED_UNIT(*)
SI_UNIT(.CENTI.,.METRE.)
);
#1922=(
NAMED_UNIT(*)
PLANE_ANGLE_UNIT()
SI_UNIT($,.RADIAN.)
);
#1923=(
NAMED_UNIT(*)
SI_UNIT($,.STERADIAN.)
SOLID_ANGLE_UNIT()
);
#1924=SHAPE_DEFINITION_REPRESENTATION(#1925,#1926);
#1925=PRODUCT_DEFINITION_SHAPE('',$,#1928);
#1926=SHAPE_REPRESENTATION('',(#1129),#1919);
#1927=PRODUCT_DEFINITION_CONTEXT('part definition',#1932,'design');
#1928=PRODUCT_DEFINITION('Enclosure_7','Enclosure_7',#1929,#1927);
#1929=PRODUCT_DEFINITION_FORMATION('',$,#1934);
#1930=PRODUCT_RELATED_PRODUCT_CATEGORY('Enclosure_7','Enclosure_7',(#1934));
#1931=APPLICATION_PROTOCOL_DEFINITION('international standard',
'automotive_design',2009,#1932);
#1932=APPLICATION_CONTEXT(
'Core Data for Automotive Mechanical Design Process');
#1933=PRODUCT_CONTEXT('part definition',#1932,'mechanical');
#1934=PRODUCT('Enclosure_7','Enclosure_7',$,(#1933));
#1935=PRESENTATION_STYLE_ASSIGNMENT((#1936));
#1936=SURFACE_STYLE_USAGE(.BOTH.,#1939);
#1937=SURFACE_STYLE_RENDERING_WITH_PROPERTIES($,#1943,(#1938));
#1938=SURFACE_STYLE_TRANSPARENT(0.);
#1939=SURFACE_SIDE_STYLE('',(#1940,#1937));
#1940=SURFACE_STYLE_FILL_AREA(#1941);
#1941=FILL_AREA_STYLE('',(#1942));
#1942=FILL_AREA_STYLE_COLOUR('',#1943);
#1943=COLOUR_RGB('',0.749019607843137,0.749019607843137,0.749019607843137);
ENDSEC;
END-ISO-10303-21;
