ISO-10303-21;
HEADER;
/* Generated by software containing ST-Developer
 * from STEP Tools, Inc. (www.steptools.com) 
 */

FILE_DESCRIPTION(
/* description */ (''),
/* implementation_level */ '2;1');

FILE_NAME(
/* name */ 'Enclosure_4.stp',
/* time_stamp */ '2025-12-16T01:20:18+05:30',
/* author */ ('Kartik'),
/* organization */ (''),
/* preprocessor_version */ 'ST-DEVELOPER v20.1',
/* originating_system */ 'Autodesk Inventor 2026',
/* authorisation */ '');

FILE_SCHEMA (('AUTOMOTIVE_DESIGN { 1 0 10303 214 3 1 1 }'));
ENDSEC;

DATA;
#10=MECHANICAL_DESIGN_GEOMETRIC_PRESENTATION_REPRESENTATION('',(#13),#1394);
#11=SHAPE_REPRESENTATION_RELATIONSHIP('SRR','None',#1400,#12);
#12=ADVANCED_BREP_SHAPE_REPRESENTATION('',(#14),#1393);
#13=STYLED_ITEM('',(#1409),#14);
#14=MANIFOLD_SOLID_BREP('Solid1',#859);
#15=FACE_BOUND('',#120,.T.);
#16=FACE_BOUND('',#121,.T.);
#17=FACE_BOUND('',#123,.T.);
#18=FACE_BOUND('',#124,.T.);
#19=CIRCLE('',#878,0.5);
#20=CIRCLE('',#879,0.5);
#21=CIRCLE('',#882,0.5);
#22=CIRCLE('',#883,0.5);
#23=CIRCLE('',#885,0.5);
#24=CIRCLE('',#886,0.5);
#25=CIRCLE('',#889,0.5);
#26=CIRCLE('',#890,0.5);
#27=CIRCLE('',#893,0.5);
#28=CIRCLE('',#894,0.5);
#29=CIRCLE('',#897,0.5);
#30=CIRCLE('',#898,0.5);
#31=CYLINDRICAL_SURFACE('',#877,0.5);
#32=CYLINDRICAL_SURFACE('',#881,0.5);
#33=CYLINDRICAL_SURFACE('',#884,0.5);
#34=CYLINDRICAL_SURFACE('',#888,0.5);
#35=CYLINDRICAL_SURFACE('',#892,0.5);
#36=CYLINDRICAL_SURFACE('',#896,0.5);
#37=FACE_OUTER_BOUND('',#79,.T.);
#38=FACE_OUTER_BOUND('',#80,.T.);
#39=FACE_OUTER_BOUND('',#81,.T.);
#40=FACE_OUTER_BOUND('',#82,.T.);
#41=FACE_OUTER_BOUND('',#83,.T.);
#42=FACE_OUTER_BOUND('',#84,.T.);
#43=FACE_OUTER_BOUND('',#85,.T.);
#44=FACE_OUTER_BOUND('',#86,.T.);
#45=FACE_OUTER_BOUND('',#87,.T.);
#46=FACE_OUTER_BOUND('',#88,.T.);
#47=FACE_OUTER_BOUND('',#89,.T.);
#48=FACE_OUTER_BOUND('',#90,.T.);
#49=FACE_OUTER_BOUND('',#91,.T.);
#50=FACE_OUTER_BOUND('',#92,.T.);
#51=FACE_OUTER_BOUND('',#93,.T.);
#52=FACE_OUTER_BOUND('',#94,.T.);
#53=FACE_OUTER_BOUND('',#95,.T.);
#54=FACE_OUTER_BOUND('',#96,.T.);
#55=FACE_OUTER_BOUND('',#97,.T.);
#56=FACE_OUTER_BOUND('',#98,.T.);
#57=FACE_OUTER_BOUND('',#99,.T.);
#58=FACE_OUTER_BOUND('',#100,.T.);
#59=FACE_OUTER_BOUND('',#101,.T.);
#60=FACE_OUTER_BOUND('',#102,.T.);
#61=FACE_OUTER_BOUND('',#103,.T.);
#62=FACE_OUTER_BOUND('',#104,.T.);
#63=FACE_OUTER_BOUND('',#105,.T.);
#64=FACE_OUTER_BOUND('',#106,.T.);
#65=FACE_OUTER_BOUND('',#107,.T.);
#66=FACE_OUTER_BOUND('',#108,.T.);
#67=FACE_OUTER_BOUND('',#109,.T.);
#68=FACE_OUTER_BOUND('',#110,.T.);
#69=FACE_OUTER_BOUND('',#111,.T.);
#70=FACE_OUTER_BOUND('',#112,.T.);
#71=FACE_OUTER_BOUND('',#113,.T.);
#72=FACE_OUTER_BOUND('',#114,.T.);
#73=FACE_OUTER_BOUND('',#115,.T.);
#74=FACE_OUTER_BOUND('',#116,.T.);
#75=FACE_OUTER_BOUND('',#117,.T.);
#76=FACE_OUTER_BOUND('',#118,.T.);
#77=FACE_OUTER_BOUND('',#119,.T.);
#78=FACE_OUTER_BOUND('',#122,.T.);
#79=EDGE_LOOP('',(#541,#542,#543,#544));
#80=EDGE_LOOP('',(#545,#546,#547,#548));
#81=EDGE_LOOP('',(#549,#550,#551,#552));
#82=EDGE_LOOP('',(#553,#554,#555,#556));
#83=EDGE_LOOP('',(#557,#558,#559,#560));
#84=EDGE_LOOP('',(#561,#562,#563,#564));
#85=EDGE_LOOP('',(#565,#566,#567,#568));
#86=EDGE_LOOP('',(#569,#570,#571,#572));
#87=EDGE_LOOP('',(#573,#574,#575,#576));
#88=EDGE_LOOP('',(#577,#578,#579,#580));
#89=EDGE_LOOP('',(#581,#582,#583,#584));
#90=EDGE_LOOP('',(#585,#586,#587,#588));
#91=EDGE_LOOP('',(#589,#590,#591,#592));
#92=EDGE_LOOP('',(#593,#594,#595,#596));
#93=EDGE_LOOP('',(#597,#598,#599,#600));
#94=EDGE_LOOP('',(#601,#602,#603,#604));
#95=EDGE_LOOP('',(#605,#606,#607,#608));
#96=EDGE_LOOP('',(#609,#610,#611,#612));
#97=EDGE_LOOP('',(#613,#614,#615,#616));
#98=EDGE_LOOP('',(#617,#618,#619,#620));
#99=EDGE_LOOP('',(#621,#622,#623,#624));
#100=EDGE_LOOP('',(#625,#626,#627,#628));
#101=EDGE_LOOP('',(#629,#630,#631,#632));
#102=EDGE_LOOP('',(#633,#634,#635,#636));
#103=EDGE_LOOP('',(#637,#638,#639,#640));
#104=EDGE_LOOP('',(#641,#642,#643,#644));
#105=EDGE_LOOP('',(#645,#646,#647,#648));
#106=EDGE_LOOP('',(#649,#650,#651,#652));
#107=EDGE_LOOP('',(#653,#654,#655,#656));
#108=EDGE_LOOP('',(#657,#658,#659,#660));
#109=EDGE_LOOP('',(#661,#662,#663,#664));
#110=EDGE_LOOP('',(#665,#666,#667,#668));
#111=EDGE_LOOP('',(#669,#670,#671,#672));
#112=EDGE_LOOP('',(#673,#674,#675,#676));
#113=EDGE_LOOP('',(#677,#678,#679,#680));
#114=EDGE_LOOP('',(#681,#682,#683,#684));
#115=EDGE_LOOP('',(#685,#686,#687,#688));
#116=EDGE_LOOP('',(#689,#690,#691,#692,#693,#694,#695,#696,#697,#698,#699,
#700,#701,#702,#703,#704));
#117=EDGE_LOOP('',(#705,#706,#707,#708));
#118=EDGE_LOOP('',(#709,#710,#711,#712,#713,#714,#715,#716,#717,#718,#719,
#720,#721,#722,#723,#724));
#119=EDGE_LOOP('',(#725,#726,#727,#728));
#120=EDGE_LOOP('',(#729,#730,#731,#732,#733,#734,#735,#736));
#121=EDGE_LOOP('',(#737,#738,#739,#740));
#122=EDGE_LOOP('',(#741,#742,#743,#744,#745,#746,#747,#748,#749,#750,#751,
#752,#753,#754,#755,#756,#757,#758,#759,#760,#761,#762,#763,#764,#765,#766,
#767,#768));
#123=EDGE_LOOP('',(#769,#770,#771,#772,#773,#774,#775,#776));
#124=EDGE_LOOP('',(#777,#778,#779,#780));
#125=LINE('',#1152,#233);
#126=LINE('',#1154,#234);
#127=LINE('',#1156,#235);
#128=LINE('',#1157,#236);
#129=LINE('',#1162,#237);
#130=LINE('',#1166,#238);
#131=LINE('',#1168,#239);
#132=LINE('',#1169,#240);
#133=LINE('',#1178,#241);
#134=LINE('',#1181,#242);
#135=LINE('',#1184,#243);
#136=LINE('',#1186,#244);
#137=LINE('',#1187,#245);
#138=LINE('',#1192,#246);
#139=LINE('',#1196,#247);
#140=LINE('',#1198,#248);
#141=LINE('',#1199,#249);
#142=LINE('',#1204,#250);
#143=LINE('',#1208,#251);
#144=LINE('',#1210,#252);
#145=LINE('',#1211,#253);
#146=LINE('',#1216,#254);
#147=LINE('',#1219,#255);
#148=LINE('',#1220,#256);
#149=LINE('',#1224,#257);
#150=LINE('',#1226,#258);
#151=LINE('',#1228,#259);
#152=LINE('',#1229,#260);
#153=LINE('',#1232,#261);
#154=LINE('',#1234,#262);
#155=LINE('',#1235,#263);
#156=LINE('',#1238,#264);
#157=LINE('',#1240,#265);
#158=LINE('',#1241,#266);
#159=LINE('',#1243,#267);
#160=LINE('',#1247,#268);
#161=LINE('',#1249,#269);
#162=LINE('',#1251,#270);
#163=LINE('',#1252,#271);
#164=LINE('',#1255,#272);
#165=LINE('',#1257,#273);
#166=LINE('',#1258,#274);
#167=LINE('',#1261,#275);
#168=LINE('',#1263,#276);
#169=LINE('',#1264,#277);
#170=LINE('',#1266,#278);
#171=LINE('',#1270,#279);
#172=LINE('',#1272,#280);
#173=LINE('',#1274,#281);
#174=LINE('',#1275,#282);
#175=LINE('',#1278,#283);
#176=LINE('',#1280,#284);
#177=LINE('',#1281,#285);
#178=LINE('',#1284,#286);
#179=LINE('',#1286,#287);
#180=LINE('',#1287,#288);
#181=LINE('',#1289,#289);
#182=LINE('',#1293,#290);
#183=LINE('',#1295,#291);
#184=LINE('',#1297,#292);
#185=LINE('',#1298,#293);
#186=LINE('',#1301,#294);
#187=LINE('',#1303,#295);
#188=LINE('',#1304,#296);
#189=LINE('',#1307,#297);
#190=LINE('',#1309,#298);
#191=LINE('',#1310,#299);
#192=LINE('',#1312,#300);
#193=LINE('',#1316,#301);
#194=LINE('',#1318,#302);
#195=LINE('',#1320,#303);
#196=LINE('',#1321,#304);
#197=LINE('',#1324,#305);
#198=LINE('',#1326,#306);
#199=LINE('',#1327,#307);
#200=LINE('',#1330,#308);
#201=LINE('',#1332,#309);
#202=LINE('',#1333,#310);
#203=LINE('',#1335,#311);
#204=LINE('',#1339,#312);
#205=LINE('',#1341,#313);
#206=LINE('',#1343,#314);
#207=LINE('',#1344,#315);
#208=LINE('',#1347,#316);
#209=LINE('',#1349,#317);
#210=LINE('',#1350,#318);
#211=LINE('',#1353,#319);
#212=LINE('',#1355,#320);
#213=LINE('',#1356,#321);
#214=LINE('',#1358,#322);
#215=LINE('',#1362,#323);
#216=LINE('',#1364,#324);
#217=LINE('',#1366,#325);
#218=LINE('',#1367,#326);
#219=LINE('',#1369,#327);
#220=LINE('',#1370,#328);
#221=LINE('',#1371,#329);
#222=LINE('',#1373,#330);
#223=LINE('',#1375,#331);
#224=LINE('',#1376,#332);
#225=LINE('',#1379,#333);
#226=LINE('',#1381,#334);
#227=LINE('',#1382,#335);
#228=LINE('',#1384,#336);
#229=LINE('',#1385,#337);
#230=LINE('',#1386,#338);
#231=LINE('',#1387,#339);
#232=LINE('',#1388,#340);
#233=VECTOR('',#934,1.);
#234=VECTOR('',#935,1.);
#235=VECTOR('',#936,1.);
#236=VECTOR('',#937,1.);
#237=VECTOR('',#942,1.);
#238=VECTOR('',#947,1.);
#239=VECTOR('',#948,1.);
#240=VECTOR('',#949,1.);
#241=VECTOR('',#960,1.);
#242=VECTOR('',#963,1.);
#243=VECTOR('',#966,1.);
#244=VECTOR('',#967,1.);
#245=VECTOR('',#968,1.);
#246=VECTOR('',#973,1.);
#247=VECTOR('',#978,1.);
#248=VECTOR('',#979,1.);
#249=VECTOR('',#980,1.);
#250=VECTOR('',#985,1.);
#251=VECTOR('',#990,1.);
#252=VECTOR('',#991,1.);
#253=VECTOR('',#992,1.);
#254=VECTOR('',#997,1.);
#255=VECTOR('',#1002,1.);
#256=VECTOR('',#1003,1.);
#257=VECTOR('',#1006,1.);
#258=VECTOR('',#1007,1.);
#259=VECTOR('',#1008,1.);
#260=VECTOR('',#1009,1.);
#261=VECTOR('',#1012,1.);
#262=VECTOR('',#1013,1.);
#263=VECTOR('',#1014,1.);
#264=VECTOR('',#1017,1.);
#265=VECTOR('',#1018,1.);
#266=VECTOR('',#1019,1.);
#267=VECTOR('',#1022,1.);
#268=VECTOR('',#1025,1.);
#269=VECTOR('',#1026,1.);
#270=VECTOR('',#1027,1.);
#271=VECTOR('',#1028,1.);
#272=VECTOR('',#1031,1.);
#273=VECTOR('',#1032,1.);
#274=VECTOR('',#1033,1.);
#275=VECTOR('',#1036,1.);
#276=VECTOR('',#1037,1.);
#277=VECTOR('',#1038,1.);
#278=VECTOR('',#1041,1.);
#279=VECTOR('',#1044,1.);
#280=VECTOR('',#1045,1.);
#281=VECTOR('',#1046,1.);
#282=VECTOR('',#1047,1.);
#283=VECTOR('',#1050,1.);
#284=VECTOR('',#1051,1.);
#285=VECTOR('',#1052,1.);
#286=VECTOR('',#1055,1.);
#287=VECTOR('',#1056,1.);
#288=VECTOR('',#1057,1.);
#289=VECTOR('',#1060,1.);
#290=VECTOR('',#1063,1.);
#291=VECTOR('',#1064,1.);
#292=VECTOR('',#1065,1.);
#293=VECTOR('',#1066,1.);
#294=VECTOR('',#1069,1.);
#295=VECTOR('',#1070,1.);
#296=VECTOR('',#1071,1.);
#297=VECTOR('',#1074,1.);
#298=VECTOR('',#1075,1.);
#299=VECTOR('',#1076,1.);
#300=VECTOR('',#1079,1.);
#301=VECTOR('',#1082,1.);
#302=VECTOR('',#1083,1.);
#303=VECTOR('',#1084,1.);
#304=VECTOR('',#1085,1.);
#305=VECTOR('',#1088,1.);
#306=VECTOR('',#1089,1.);
#307=VECTOR('',#1090,1.);
#308=VECTOR('',#1093,1.);
#309=VECTOR('',#1094,1.);
#310=VECTOR('',#1095,1.);
#311=VECTOR('',#1098,1.);
#312=VECTOR('',#1101,1.);
#313=VECTOR('',#1102,1.);
#314=VECTOR('',#1103,1.);
#315=VECTOR('',#1104,1.);
#316=VECTOR('',#1107,1.);
#317=VECTOR('',#1108,1.);
#318=VECTOR('',#1109,1.);
#319=VECTOR('',#1112,1.);
#320=VECTOR('',#1113,1.);
#321=VECTOR('',#1114,1.);
#322=VECTOR('',#1117,1.);
#323=VECTOR('',#1120,1.);
#324=VECTOR('',#1121,1.);
#325=VECTOR('',#1122,1.);
#326=VECTOR('',#1123,1.);
#327=VECTOR('',#1126,1.);
#328=VECTOR('',#1127,1.);
#329=VECTOR('',#1128,1.);
#330=VECTOR('',#1129,1.);
#331=VECTOR('',#1130,1.);
#332=VECTOR('',#1131,1.);
#333=VECTOR('',#1134,1.);
#334=VECTOR('',#1135,1.);
#335=VECTOR('',#1136,1.);
#336=VECTOR('',#1139,1.);
#337=VECTOR('',#1140,1.);
#338=VECTOR('',#1141,1.);
#339=VECTOR('',#1142,1.);
#340=VECTOR('',#1143,1.);
#341=VERTEX_POINT('',#1150);
#342=VERTEX_POINT('',#1151);
#343=VERTEX_POINT('',#1153);
#344=VERTEX_POINT('',#1155);
#345=VERTEX_POINT('',#1159);
#346=VERTEX_POINT('',#1161);
#347=VERTEX_POINT('',#1165);
#348=VERTEX_POINT('',#1167);
#349=VERTEX_POINT('',#1174);
#350=VERTEX_POINT('',#1175);
#351=VERTEX_POINT('',#1177);
#352=VERTEX_POINT('',#1179);
#353=VERTEX_POINT('',#1183);
#354=VERTEX_POINT('',#1185);
#355=VERTEX_POINT('',#1189);
#356=VERTEX_POINT('',#1191);
#357=VERTEX_POINT('',#1195);
#358=VERTEX_POINT('',#1197);
#359=VERTEX_POINT('',#1201);
#360=VERTEX_POINT('',#1203);
#361=VERTEX_POINT('',#1207);
#362=VERTEX_POINT('',#1209);
#363=VERTEX_POINT('',#1213);
#364=VERTEX_POINT('',#1215);
#365=VERTEX_POINT('',#1222);
#366=VERTEX_POINT('',#1223);
#367=VERTEX_POINT('',#1225);
#368=VERTEX_POINT('',#1227);
#369=VERTEX_POINT('',#1231);
#370=VERTEX_POINT('',#1233);
#371=VERTEX_POINT('',#1237);
#372=VERTEX_POINT('',#1239);
#373=VERTEX_POINT('',#1245);
#374=VERTEX_POINT('',#1246);
#375=VERTEX_POINT('',#1248);
#376=VERTEX_POINT('',#1250);
#377=VERTEX_POINT('',#1254);
#378=VERTEX_POINT('',#1256);
#379=VERTEX_POINT('',#1260);
#380=VERTEX_POINT('',#1262);
#381=VERTEX_POINT('',#1268);
#382=VERTEX_POINT('',#1269);
#383=VERTEX_POINT('',#1271);
#384=VERTEX_POINT('',#1273);
#385=VERTEX_POINT('',#1277);
#386=VERTEX_POINT('',#1279);
#387=VERTEX_POINT('',#1283);
#388=VERTEX_POINT('',#1285);
#389=VERTEX_POINT('',#1291);
#390=VERTEX_POINT('',#1292);
#391=VERTEX_POINT('',#1294);
#392=VERTEX_POINT('',#1296);
#393=VERTEX_POINT('',#1300);
#394=VERTEX_POINT('',#1302);
#395=VERTEX_POINT('',#1306);
#396=VERTEX_POINT('',#1308);
#397=VERTEX_POINT('',#1314);
#398=VERTEX_POINT('',#1315);
#399=VERTEX_POINT('',#1317);
#400=VERTEX_POINT('',#1319);
#401=VERTEX_POINT('',#1323);
#402=VERTEX_POINT('',#1325);
#403=VERTEX_POINT('',#1329);
#404=VERTEX_POINT('',#1331);
#405=VERTEX_POINT('',#1337);
#406=VERTEX_POINT('',#1338);
#407=VERTEX_POINT('',#1340);
#408=VERTEX_POINT('',#1342);
#409=VERTEX_POINT('',#1346);
#410=VERTEX_POINT('',#1348);
#411=VERTEX_POINT('',#1352);
#412=VERTEX_POINT('',#1354);
#413=VERTEX_POINT('',#1360);
#414=VERTEX_POINT('',#1361);
#415=VERTEX_POINT('',#1363);
#416=VERTEX_POINT('',#1365);
#417=VERTEX_POINT('',#1372);
#418=VERTEX_POINT('',#1374);
#419=VERTEX_POINT('',#1378);
#420=VERTEX_POINT('',#1380);
#421=EDGE_CURVE('',#341,#342,#125,.T.);
#422=EDGE_CURVE('',#343,#341,#126,.T.);
#423=EDGE_CURVE('',#344,#343,#127,.T.);
#424=EDGE_CURVE('',#342,#344,#128,.T.);
#425=EDGE_CURVE('',#343,#345,#19,.T.);
#426=EDGE_CURVE('',#345,#346,#129,.T.);
#427=EDGE_CURVE('',#346,#344,#20,.T.);
#428=EDGE_CURVE('',#347,#345,#130,.T.);
#429=EDGE_CURVE('',#348,#347,#131,.T.);
#430=EDGE_CURVE('',#346,#348,#132,.T.);
#431=EDGE_CURVE('',#347,#341,#21,.T.);
#432=EDGE_CURVE('',#342,#348,#22,.T.);
#433=EDGE_CURVE('',#349,#350,#23,.T.);
#434=EDGE_CURVE('',#350,#351,#133,.T.);
#435=EDGE_CURVE('',#351,#352,#24,.T.);
#436=EDGE_CURVE('',#352,#349,#134,.T.);
#437=EDGE_CURVE('',#353,#350,#135,.T.);
#438=EDGE_CURVE('',#354,#353,#136,.T.);
#439=EDGE_CURVE('',#351,#354,#137,.T.);
#440=EDGE_CURVE('',#353,#355,#25,.T.);
#441=EDGE_CURVE('',#355,#356,#138,.T.);
#442=EDGE_CURVE('',#356,#354,#26,.T.);
#443=EDGE_CURVE('',#357,#355,#139,.T.);
#444=EDGE_CURVE('',#358,#357,#140,.T.);
#445=EDGE_CURVE('',#356,#358,#141,.T.);
#446=EDGE_CURVE('',#357,#359,#27,.T.);
#447=EDGE_CURVE('',#359,#360,#142,.T.);
#448=EDGE_CURVE('',#360,#358,#28,.T.);
#449=EDGE_CURVE('',#361,#359,#143,.T.);
#450=EDGE_CURVE('',#362,#361,#144,.T.);
#451=EDGE_CURVE('',#360,#362,#145,.T.);
#452=EDGE_CURVE('',#361,#363,#29,.T.);
#453=EDGE_CURVE('',#363,#364,#146,.T.);
#454=EDGE_CURVE('',#364,#362,#30,.T.);
#455=EDGE_CURVE('',#364,#352,#147,.T.);
#456=EDGE_CURVE('',#349,#363,#148,.T.);
#457=EDGE_CURVE('',#365,#366,#149,.T.);
#458=EDGE_CURVE('',#366,#367,#150,.T.);
#459=EDGE_CURVE('',#368,#367,#151,.T.);
#460=EDGE_CURVE('',#365,#368,#152,.T.);
#461=EDGE_CURVE('',#369,#365,#153,.T.);
#462=EDGE_CURVE('',#370,#368,#154,.T.);
#463=EDGE_CURVE('',#369,#370,#155,.T.);
#464=EDGE_CURVE('',#366,#371,#156,.T.);
#465=EDGE_CURVE('',#371,#372,#157,.T.);
#466=EDGE_CURVE('',#367,#372,#158,.T.);
#467=EDGE_CURVE('',#371,#369,#159,.T.);
#468=EDGE_CURVE('',#373,#374,#160,.T.);
#469=EDGE_CURVE('',#374,#375,#161,.T.);
#470=EDGE_CURVE('',#376,#375,#162,.T.);
#471=EDGE_CURVE('',#373,#376,#163,.T.);
#472=EDGE_CURVE('',#377,#373,#164,.T.);
#473=EDGE_CURVE('',#378,#376,#165,.T.);
#474=EDGE_CURVE('',#377,#378,#166,.T.);
#475=EDGE_CURVE('',#374,#379,#167,.T.);
#476=EDGE_CURVE('',#379,#380,#168,.T.);
#477=EDGE_CURVE('',#375,#380,#169,.T.);
#478=EDGE_CURVE('',#379,#377,#170,.T.);
#479=EDGE_CURVE('',#381,#382,#171,.T.);
#480=EDGE_CURVE('',#382,#383,#172,.T.);
#481=EDGE_CURVE('',#384,#383,#173,.T.);
#482=EDGE_CURVE('',#381,#384,#174,.T.);
#483=EDGE_CURVE('',#385,#381,#175,.T.);
#484=EDGE_CURVE('',#386,#384,#176,.T.);
#485=EDGE_CURVE('',#385,#386,#177,.T.);
#486=EDGE_CURVE('',#382,#387,#178,.T.);
#487=EDGE_CURVE('',#387,#388,#179,.T.);
#488=EDGE_CURVE('',#383,#388,#180,.T.);
#489=EDGE_CURVE('',#387,#385,#181,.T.);
#490=EDGE_CURVE('',#389,#390,#182,.T.);
#491=EDGE_CURVE('',#389,#391,#183,.T.);
#492=EDGE_CURVE('',#392,#391,#184,.T.);
#493=EDGE_CURVE('',#390,#392,#185,.T.);
#494=EDGE_CURVE('',#390,#393,#186,.T.);
#495=EDGE_CURVE('',#394,#392,#187,.T.);
#496=EDGE_CURVE('',#393,#394,#188,.T.);
#497=EDGE_CURVE('',#395,#389,#189,.T.);
#498=EDGE_CURVE('',#395,#396,#190,.T.);
#499=EDGE_CURVE('',#391,#396,#191,.T.);
#500=EDGE_CURVE('',#396,#394,#192,.T.);
#501=EDGE_CURVE('',#397,#398,#193,.T.);
#502=EDGE_CURVE('',#397,#399,#194,.T.);
#503=EDGE_CURVE('',#400,#399,#195,.T.);
#504=EDGE_CURVE('',#398,#400,#196,.T.);
#505=EDGE_CURVE('',#398,#401,#197,.T.);
#506=EDGE_CURVE('',#402,#400,#198,.T.);
#507=EDGE_CURVE('',#401,#402,#199,.T.);
#508=EDGE_CURVE('',#403,#397,#200,.T.);
#509=EDGE_CURVE('',#403,#404,#201,.T.);
#510=EDGE_CURVE('',#399,#404,#202,.T.);
#511=EDGE_CURVE('',#404,#402,#203,.T.);
#512=EDGE_CURVE('',#405,#406,#204,.T.);
#513=EDGE_CURVE('',#405,#407,#205,.T.);
#514=EDGE_CURVE('',#408,#407,#206,.T.);
#515=EDGE_CURVE('',#406,#408,#207,.T.);
#516=EDGE_CURVE('',#406,#409,#208,.T.);
#517=EDGE_CURVE('',#410,#408,#209,.T.);
#518=EDGE_CURVE('',#409,#410,#210,.T.);
#519=EDGE_CURVE('',#411,#405,#211,.T.);
#520=EDGE_CURVE('',#411,#412,#212,.T.);
#521=EDGE_CURVE('',#407,#412,#213,.T.);
#522=EDGE_CURVE('',#412,#410,#214,.T.);
#523=EDGE_CURVE('',#413,#414,#215,.T.);
#524=EDGE_CURVE('',#414,#415,#216,.T.);
#525=EDGE_CURVE('',#416,#415,#217,.T.);
#526=EDGE_CURVE('',#413,#416,#218,.T.);
#527=EDGE_CURVE('',#393,#403,#219,.T.);
#528=EDGE_CURVE('',#401,#411,#220,.T.);
#529=EDGE_CURVE('',#409,#413,#221,.T.);
#530=EDGE_CURVE('',#417,#416,#222,.T.);
#531=EDGE_CURVE('',#418,#417,#223,.T.);
#532=EDGE_CURVE('',#418,#395,#224,.T.);
#533=EDGE_CURVE('',#419,#418,#225,.T.);
#534=EDGE_CURVE('',#420,#417,#226,.T.);
#535=EDGE_CURVE('',#419,#420,#227,.T.);
#536=EDGE_CURVE('',#372,#419,#228,.T.);
#537=EDGE_CURVE('',#415,#420,#229,.T.);
#538=EDGE_CURVE('',#414,#386,#230,.T.);
#539=EDGE_CURVE('',#388,#378,#231,.T.);
#540=EDGE_CURVE('',#380,#370,#232,.T.);
#541=ORIENTED_EDGE('',*,*,#421,.F.);
#542=ORIENTED_EDGE('',*,*,#422,.F.);
#543=ORIENTED_EDGE('',*,*,#423,.F.);
#544=ORIENTED_EDGE('',*,*,#424,.F.);
#545=ORIENTED_EDGE('',*,*,#425,.T.);
#546=ORIENTED_EDGE('',*,*,#426,.T.);
#547=ORIENTED_EDGE('',*,*,#427,.T.);
#548=ORIENTED_EDGE('',*,*,#423,.T.);
#549=ORIENTED_EDGE('',*,*,#426,.F.);
#550=ORIENTED_EDGE('',*,*,#428,.F.);
#551=ORIENTED_EDGE('',*,*,#429,.F.);
#552=ORIENTED_EDGE('',*,*,#430,.F.);
#553=ORIENTED_EDGE('',*,*,#431,.T.);
#554=ORIENTED_EDGE('',*,*,#421,.T.);
#555=ORIENTED_EDGE('',*,*,#432,.T.);
#556=ORIENTED_EDGE('',*,*,#429,.T.);
#557=ORIENTED_EDGE('',*,*,#433,.T.);
#558=ORIENTED_EDGE('',*,*,#434,.T.);
#559=ORIENTED_EDGE('',*,*,#435,.T.);
#560=ORIENTED_EDGE('',*,*,#436,.T.);
#561=ORIENTED_EDGE('',*,*,#434,.F.);
#562=ORIENTED_EDGE('',*,*,#437,.F.);
#563=ORIENTED_EDGE('',*,*,#438,.F.);
#564=ORIENTED_EDGE('',*,*,#439,.F.);
#565=ORIENTED_EDGE('',*,*,#440,.T.);
#566=ORIENTED_EDGE('',*,*,#441,.T.);
#567=ORIENTED_EDGE('',*,*,#442,.T.);
#568=ORIENTED_EDGE('',*,*,#438,.T.);
#569=ORIENTED_EDGE('',*,*,#441,.F.);
#570=ORIENTED_EDGE('',*,*,#443,.F.);
#571=ORIENTED_EDGE('',*,*,#444,.F.);
#572=ORIENTED_EDGE('',*,*,#445,.F.);
#573=ORIENTED_EDGE('',*,*,#446,.T.);
#574=ORIENTED_EDGE('',*,*,#447,.T.);
#575=ORIENTED_EDGE('',*,*,#448,.T.);
#576=ORIENTED_EDGE('',*,*,#444,.T.);
#577=ORIENTED_EDGE('',*,*,#447,.F.);
#578=ORIENTED_EDGE('',*,*,#449,.F.);
#579=ORIENTED_EDGE('',*,*,#450,.F.);
#580=ORIENTED_EDGE('',*,*,#451,.F.);
#581=ORIENTED_EDGE('',*,*,#452,.T.);
#582=ORIENTED_EDGE('',*,*,#453,.T.);
#583=ORIENTED_EDGE('',*,*,#454,.T.);
#584=ORIENTED_EDGE('',*,*,#450,.T.);
#585=ORIENTED_EDGE('',*,*,#436,.F.);
#586=ORIENTED_EDGE('',*,*,#455,.F.);
#587=ORIENTED_EDGE('',*,*,#453,.F.);
#588=ORIENTED_EDGE('',*,*,#456,.F.);
#589=ORIENTED_EDGE('',*,*,#457,.T.);
#590=ORIENTED_EDGE('',*,*,#458,.T.);
#591=ORIENTED_EDGE('',*,*,#459,.F.);
#592=ORIENTED_EDGE('',*,*,#460,.F.);
#593=ORIENTED_EDGE('',*,*,#461,.T.);
#594=ORIENTED_EDGE('',*,*,#460,.T.);
#595=ORIENTED_EDGE('',*,*,#462,.F.);
#596=ORIENTED_EDGE('',*,*,#463,.F.);
#597=ORIENTED_EDGE('',*,*,#464,.T.);
#598=ORIENTED_EDGE('',*,*,#465,.T.);
#599=ORIENTED_EDGE('',*,*,#466,.F.);
#600=ORIENTED_EDGE('',*,*,#458,.F.);
#601=ORIENTED_EDGE('',*,*,#464,.F.);
#602=ORIENTED_EDGE('',*,*,#457,.F.);
#603=ORIENTED_EDGE('',*,*,#461,.F.);
#604=ORIENTED_EDGE('',*,*,#467,.F.);
#605=ORIENTED_EDGE('',*,*,#468,.T.);
#606=ORIENTED_EDGE('',*,*,#469,.T.);
#607=ORIENTED_EDGE('',*,*,#470,.F.);
#608=ORIENTED_EDGE('',*,*,#471,.F.);
#609=ORIENTED_EDGE('',*,*,#472,.T.);
#610=ORIENTED_EDGE('',*,*,#471,.T.);
#611=ORIENTED_EDGE('',*,*,#473,.F.);
#612=ORIENTED_EDGE('',*,*,#474,.F.);
#613=ORIENTED_EDGE('',*,*,#475,.T.);
#614=ORIENTED_EDGE('',*,*,#476,.T.);
#615=ORIENTED_EDGE('',*,*,#477,.F.);
#616=ORIENTED_EDGE('',*,*,#469,.F.);
#617=ORIENTED_EDGE('',*,*,#475,.F.);
#618=ORIENTED_EDGE('',*,*,#468,.F.);
#619=ORIENTED_EDGE('',*,*,#472,.F.);
#620=ORIENTED_EDGE('',*,*,#478,.F.);
#621=ORIENTED_EDGE('',*,*,#479,.T.);
#622=ORIENTED_EDGE('',*,*,#480,.T.);
#623=ORIENTED_EDGE('',*,*,#481,.F.);
#624=ORIENTED_EDGE('',*,*,#482,.F.);
#625=ORIENTED_EDGE('',*,*,#483,.T.);
#626=ORIENTED_EDGE('',*,*,#482,.T.);
#627=ORIENTED_EDGE('',*,*,#484,.F.);
#628=ORIENTED_EDGE('',*,*,#485,.F.);
#629=ORIENTED_EDGE('',*,*,#486,.T.);
#630=ORIENTED_EDGE('',*,*,#487,.T.);
#631=ORIENTED_EDGE('',*,*,#488,.F.);
#632=ORIENTED_EDGE('',*,*,#480,.F.);
#633=ORIENTED_EDGE('',*,*,#486,.F.);
#634=ORIENTED_EDGE('',*,*,#479,.F.);
#635=ORIENTED_EDGE('',*,*,#483,.F.);
#636=ORIENTED_EDGE('',*,*,#489,.F.);
#637=ORIENTED_EDGE('',*,*,#490,.F.);
#638=ORIENTED_EDGE('',*,*,#491,.T.);
#639=ORIENTED_EDGE('',*,*,#492,.F.);
#640=ORIENTED_EDGE('',*,*,#493,.F.);
#641=ORIENTED_EDGE('',*,*,#494,.F.);
#642=ORIENTED_EDGE('',*,*,#493,.T.);
#643=ORIENTED_EDGE('',*,*,#495,.F.);
#644=ORIENTED_EDGE('',*,*,#496,.F.);
#645=ORIENTED_EDGE('',*,*,#497,.F.);
#646=ORIENTED_EDGE('',*,*,#498,.T.);
#647=ORIENTED_EDGE('',*,*,#499,.F.);
#648=ORIENTED_EDGE('',*,*,#491,.F.);
#649=ORIENTED_EDGE('',*,*,#499,.T.);
#650=ORIENTED_EDGE('',*,*,#500,.T.);
#651=ORIENTED_EDGE('',*,*,#495,.T.);
#652=ORIENTED_EDGE('',*,*,#492,.T.);
#653=ORIENTED_EDGE('',*,*,#501,.F.);
#654=ORIENTED_EDGE('',*,*,#502,.T.);
#655=ORIENTED_EDGE('',*,*,#503,.F.);
#656=ORIENTED_EDGE('',*,*,#504,.F.);
#657=ORIENTED_EDGE('',*,*,#505,.F.);
#658=ORIENTED_EDGE('',*,*,#504,.T.);
#659=ORIENTED_EDGE('',*,*,#506,.F.);
#660=ORIENTED_EDGE('',*,*,#507,.F.);
#661=ORIENTED_EDGE('',*,*,#508,.F.);
#662=ORIENTED_EDGE('',*,*,#509,.T.);
#663=ORIENTED_EDGE('',*,*,#510,.F.);
#664=ORIENTED_EDGE('',*,*,#502,.F.);
#665=ORIENTED_EDGE('',*,*,#510,.T.);
#666=ORIENTED_EDGE('',*,*,#511,.T.);
#667=ORIENTED_EDGE('',*,*,#506,.T.);
#668=ORIENTED_EDGE('',*,*,#503,.T.);
#669=ORIENTED_EDGE('',*,*,#512,.F.);
#670=ORIENTED_EDGE('',*,*,#513,.T.);
#671=ORIENTED_EDGE('',*,*,#514,.F.);
#672=ORIENTED_EDGE('',*,*,#515,.F.);
#673=ORIENTED_EDGE('',*,*,#516,.F.);
#674=ORIENTED_EDGE('',*,*,#515,.T.);
#675=ORIENTED_EDGE('',*,*,#517,.F.);
#676=ORIENTED_EDGE('',*,*,#518,.F.);
#677=ORIENTED_EDGE('',*,*,#519,.F.);
#678=ORIENTED_EDGE('',*,*,#520,.T.);
#679=ORIENTED_EDGE('',*,*,#521,.F.);
#680=ORIENTED_EDGE('',*,*,#513,.F.);
#681=ORIENTED_EDGE('',*,*,#521,.T.);
#682=ORIENTED_EDGE('',*,*,#522,.T.);
#683=ORIENTED_EDGE('',*,*,#517,.T.);
#684=ORIENTED_EDGE('',*,*,#514,.T.);
#685=ORIENTED_EDGE('',*,*,#523,.T.);
#686=ORIENTED_EDGE('',*,*,#524,.T.);
#687=ORIENTED_EDGE('',*,*,#525,.F.);
#688=ORIENTED_EDGE('',*,*,#526,.F.);
#689=ORIENTED_EDGE('',*,*,#494,.T.);
#690=ORIENTED_EDGE('',*,*,#527,.T.);
#691=ORIENTED_EDGE('',*,*,#508,.T.);
#692=ORIENTED_EDGE('',*,*,#501,.T.);
#693=ORIENTED_EDGE('',*,*,#505,.T.);
#694=ORIENTED_EDGE('',*,*,#528,.T.);
#695=ORIENTED_EDGE('',*,*,#519,.T.);
#696=ORIENTED_EDGE('',*,*,#512,.T.);
#697=ORIENTED_EDGE('',*,*,#516,.T.);
#698=ORIENTED_EDGE('',*,*,#529,.T.);
#699=ORIENTED_EDGE('',*,*,#526,.T.);
#700=ORIENTED_EDGE('',*,*,#530,.F.);
#701=ORIENTED_EDGE('',*,*,#531,.F.);
#702=ORIENTED_EDGE('',*,*,#532,.T.);
#703=ORIENTED_EDGE('',*,*,#497,.T.);
#704=ORIENTED_EDGE('',*,*,#490,.T.);
#705=ORIENTED_EDGE('',*,*,#533,.T.);
#706=ORIENTED_EDGE('',*,*,#531,.T.);
#707=ORIENTED_EDGE('',*,*,#534,.F.);
#708=ORIENTED_EDGE('',*,*,#535,.F.);
#709=ORIENTED_EDGE('',*,*,#466,.T.);
#710=ORIENTED_EDGE('',*,*,#536,.T.);
#711=ORIENTED_EDGE('',*,*,#535,.T.);
#712=ORIENTED_EDGE('',*,*,#537,.F.);
#713=ORIENTED_EDGE('',*,*,#524,.F.);
#714=ORIENTED_EDGE('',*,*,#538,.T.);
#715=ORIENTED_EDGE('',*,*,#484,.T.);
#716=ORIENTED_EDGE('',*,*,#481,.T.);
#717=ORIENTED_EDGE('',*,*,#488,.T.);
#718=ORIENTED_EDGE('',*,*,#539,.T.);
#719=ORIENTED_EDGE('',*,*,#473,.T.);
#720=ORIENTED_EDGE('',*,*,#470,.T.);
#721=ORIENTED_EDGE('',*,*,#477,.T.);
#722=ORIENTED_EDGE('',*,*,#540,.T.);
#723=ORIENTED_EDGE('',*,*,#462,.T.);
#724=ORIENTED_EDGE('',*,*,#459,.T.);
#725=ORIENTED_EDGE('',*,*,#537,.T.);
#726=ORIENTED_EDGE('',*,*,#534,.T.);
#727=ORIENTED_EDGE('',*,*,#530,.T.);
#728=ORIENTED_EDGE('',*,*,#525,.T.);
#729=ORIENTED_EDGE('',*,*,#437,.T.);
#730=ORIENTED_EDGE('',*,*,#433,.F.);
#731=ORIENTED_EDGE('',*,*,#456,.T.);
#732=ORIENTED_EDGE('',*,*,#452,.F.);
#733=ORIENTED_EDGE('',*,*,#449,.T.);
#734=ORIENTED_EDGE('',*,*,#446,.F.);
#735=ORIENTED_EDGE('',*,*,#443,.T.);
#736=ORIENTED_EDGE('',*,*,#440,.F.);
#737=ORIENTED_EDGE('',*,*,#431,.F.);
#738=ORIENTED_EDGE('',*,*,#428,.T.);
#739=ORIENTED_EDGE('',*,*,#425,.F.);
#740=ORIENTED_EDGE('',*,*,#422,.T.);
#741=ORIENTED_EDGE('',*,*,#538,.F.);
#742=ORIENTED_EDGE('',*,*,#523,.F.);
#743=ORIENTED_EDGE('',*,*,#529,.F.);
#744=ORIENTED_EDGE('',*,*,#518,.T.);
#745=ORIENTED_EDGE('',*,*,#522,.F.);
#746=ORIENTED_EDGE('',*,*,#520,.F.);
#747=ORIENTED_EDGE('',*,*,#528,.F.);
#748=ORIENTED_EDGE('',*,*,#507,.T.);
#749=ORIENTED_EDGE('',*,*,#511,.F.);
#750=ORIENTED_EDGE('',*,*,#509,.F.);
#751=ORIENTED_EDGE('',*,*,#527,.F.);
#752=ORIENTED_EDGE('',*,*,#496,.T.);
#753=ORIENTED_EDGE('',*,*,#500,.F.);
#754=ORIENTED_EDGE('',*,*,#498,.F.);
#755=ORIENTED_EDGE('',*,*,#532,.F.);
#756=ORIENTED_EDGE('',*,*,#533,.F.);
#757=ORIENTED_EDGE('',*,*,#536,.F.);
#758=ORIENTED_EDGE('',*,*,#465,.F.);
#759=ORIENTED_EDGE('',*,*,#467,.T.);
#760=ORIENTED_EDGE('',*,*,#463,.T.);
#761=ORIENTED_EDGE('',*,*,#540,.F.);
#762=ORIENTED_EDGE('',*,*,#476,.F.);
#763=ORIENTED_EDGE('',*,*,#478,.T.);
#764=ORIENTED_EDGE('',*,*,#474,.T.);
#765=ORIENTED_EDGE('',*,*,#539,.F.);
#766=ORIENTED_EDGE('',*,*,#487,.F.);
#767=ORIENTED_EDGE('',*,*,#489,.T.);
#768=ORIENTED_EDGE('',*,*,#485,.T.);
#769=ORIENTED_EDGE('',*,*,#439,.T.);
#770=ORIENTED_EDGE('',*,*,#442,.F.);
#771=ORIENTED_EDGE('',*,*,#445,.T.);
#772=ORIENTED_EDGE('',*,*,#448,.F.);
#773=ORIENTED_EDGE('',*,*,#451,.T.);
#774=ORIENTED_EDGE('',*,*,#454,.F.);
#775=ORIENTED_EDGE('',*,*,#455,.T.);
#776=ORIENTED_EDGE('',*,*,#435,.F.);
#777=ORIENTED_EDGE('',*,*,#424,.T.);
#778=ORIENTED_EDGE('',*,*,#427,.F.);
#779=ORIENTED_EDGE('',*,*,#430,.T.);
#780=ORIENTED_EDGE('',*,*,#432,.F.);
#781=PLANE('',#876);
#782=PLANE('',#880);
#783=PLANE('',#887);
#784=PLANE('',#891);
#785=PLANE('',#895);
#786=PLANE('',#899);
#787=PLANE('',#900);
#788=PLANE('',#901);
#789=PLANE('',#902);
#790=PLANE('',#903);
#791=PLANE('',#904);
#792=PLANE('',#905);
#793=PLANE('',#906);
#794=PLANE('',#907);
#795=PLANE('',#908);
#796=PLANE('',#909);
#797=PLANE('',#910);
#798=PLANE('',#911);
#799=PLANE('',#912);
#800=PLANE('',#913);
#801=PLANE('',#914);
#802=PLANE('',#915);
#803=PLANE('',#916);
#804=PLANE('',#917);
#805=PLANE('',#918);
#806=PLANE('',#919);
#807=PLANE('',#920);
#808=PLANE('',#921);
#809=PLANE('',#922);
#810=PLANE('',#923);
#811=PLANE('',#924);
#812=PLANE('',#925);
#813=PLANE('',#926);
#814=PLANE('',#927);
#815=PLANE('',#928);
#816=PLANE('',#929);
#817=ADVANCED_FACE('',(#37),#781,.F.);
#818=ADVANCED_FACE('',(#38),#31,.F.);
#819=ADVANCED_FACE('',(#39),#782,.F.);
#820=ADVANCED_FACE('',(#40),#32,.F.);
#821=ADVANCED_FACE('',(#41),#33,.F.);
#822=ADVANCED_FACE('',(#42),#783,.F.);
#823=ADVANCED_FACE('',(#43),#34,.F.);
#824=ADVANCED_FACE('',(#44),#784,.F.);
#825=ADVANCED_FACE('',(#45),#35,.F.);
#826=ADVANCED_FACE('',(#46),#785,.F.);
#827=ADVANCED_FACE('',(#47),#36,.F.);
#828=ADVANCED_FACE('',(#48),#786,.F.);
#829=ADVANCED_FACE('',(#49),#787,.T.);
#830=ADVANCED_FACE('',(#50),#788,.T.);
#831=ADVANCED_FACE('',(#51),#789,.T.);
#832=ADVANCED_FACE('',(#52),#790,.F.);
#833=ADVANCED_FACE('',(#53),#791,.T.);
#834=ADVANCED_FACE('',(#54),#792,.T.);
#835=ADVANCED_FACE('',(#55),#793,.T.);
#836=ADVANCED_FACE('',(#56),#794,.F.);
#837=ADVANCED_FACE('',(#57),#795,.T.);
#838=ADVANCED_FACE('',(#58),#796,.T.);
#839=ADVANCED_FACE('',(#59),#797,.T.);
#840=ADVANCED_FACE('',(#60),#798,.F.);
#841=ADVANCED_FACE('',(#61),#799,.T.);
#842=ADVANCED_FACE('',(#62),#800,.T.);
#843=ADVANCED_FACE('',(#63),#801,.T.);
#844=ADVANCED_FACE('',(#64),#802,.T.);
#845=ADVANCED_FACE('',(#65),#803,.T.);
#846=ADVANCED_FACE('',(#66),#804,.T.);
#847=ADVANCED_FACE('',(#67),#805,.T.);
#848=ADVANCED_FACE('',(#68),#806,.T.);
#849=ADVANCED_FACE('',(#69),#807,.T.);
#850=ADVANCED_FACE('',(#70),#808,.T.);
#851=ADVANCED_FACE('',(#71),#809,.T.);
#852=ADVANCED_FACE('',(#72),#810,.T.);
#853=ADVANCED_FACE('',(#73),#811,.T.);
#854=ADVANCED_FACE('',(#74),#812,.T.);
#855=ADVANCED_FACE('',(#75),#813,.T.);
#856=ADVANCED_FACE('',(#76),#814,.T.);
#857=ADVANCED_FACE('',(#77,#15,#16),#815,.T.);
#858=ADVANCED_FACE('',(#78,#17,#18),#816,.F.);
#859=CLOSED_SHELL('',(#817,#818,#819,#820,#821,#822,#823,#824,#825,#826,
#827,#828,#829,#830,#831,#832,#833,#834,#835,#836,#837,#838,#839,#840,#841,
#842,#843,#844,#845,#846,#847,#848,#849,#850,#851,#852,#853,#854,#855,#856,
#857,#858));
#860=DERIVED_UNIT_ELEMENT(#863,1.);
#861=DERIVED_UNIT_ELEMENT(#1395,-3.);
#862=DIMENSIONAL_EXPONENTS(0.,1.,0.,0.,0.,0.,0.);
#863=(
CONVERSION_BASED_UNIT('gram',#865)
MASS_UNIT()
NAMED_UNIT(#862)
);
#864=(
MASS_UNIT()
NAMED_UNIT(*)
SI_UNIT(.KILO.,.GRAM.)
);
#865=MASS_MEASURE_WITH_UNIT(MASS_MEASURE(0.001),#864);
#866=DERIVED_UNIT((#860,#861));
#867=MEASURE_REPRESENTATION_ITEM('density measure',
POSITIVE_RATIO_MEASURE(1.),#866);
#868=PROPERTY_DEFINITION_REPRESENTATION(#873,#870);
#869=PROPERTY_DEFINITION_REPRESENTATION(#874,#871);
#870=REPRESENTATION('material name',(#872),#1393);
#871=REPRESENTATION('density',(#867),#1393);
#872=DESCRIPTIVE_REPRESENTATION_ITEM('Generic','Generic');
#873=PROPERTY_DEFINITION('material property','material name',#1402);
#874=PROPERTY_DEFINITION('material property','density of part',#1402);
#875=AXIS2_PLACEMENT_3D('',#1148,#930,#931);
#876=AXIS2_PLACEMENT_3D('',#1149,#932,#933);
#877=AXIS2_PLACEMENT_3D('',#1158,#938,#939);
#878=AXIS2_PLACEMENT_3D('',#1160,#940,#941);
#879=AXIS2_PLACEMENT_3D('',#1163,#943,#944);
#880=AXIS2_PLACEMENT_3D('',#1164,#945,#946);
#881=AXIS2_PLACEMENT_3D('',#1170,#950,#951);
#882=AXIS2_PLACEMENT_3D('',#1171,#952,#953);
#883=AXIS2_PLACEMENT_3D('',#1172,#954,#955);
#884=AXIS2_PLACEMENT_3D('',#1173,#956,#957);
#885=AXIS2_PLACEMENT_3D('',#1176,#958,#959);
#886=AXIS2_PLACEMENT_3D('',#1180,#961,#962);
#887=AXIS2_PLACEMENT_3D('',#1182,#964,#965);
#888=AXIS2_PLACEMENT_3D('',#1188,#969,#970);
#889=AXIS2_PLACEMENT_3D('',#1190,#971,#972);
#890=AXIS2_PLACEMENT_3D('',#1193,#974,#975);
#891=AXIS2_PLACEMENT_3D('',#1194,#976,#977);
#892=AXIS2_PLACEMENT_3D('',#1200,#981,#982);
#893=AXIS2_PLACEMENT_3D('',#1202,#983,#984);
#894=AXIS2_PLACEMENT_3D('',#1205,#986,#987);
#895=AXIS2_PLACEMENT_3D('',#1206,#988,#989);
#896=AXIS2_PLACEMENT_3D('',#1212,#993,#994);
#897=AXIS2_PLACEMENT_3D('',#1214,#995,#996);
#898=AXIS2_PLACEMENT_3D('',#1217,#998,#999);
#899=AXIS2_PLACEMENT_3D('',#1218,#1000,#1001);
#900=AXIS2_PLACEMENT_3D('',#1221,#1004,#1005);
#901=AXIS2_PLACEMENT_3D('',#1230,#1010,#1011);
#902=AXIS2_PLACEMENT_3D('',#1236,#1015,#1016);
#903=AXIS2_PLACEMENT_3D('',#1242,#1020,#1021);
#904=AXIS2_PLACEMENT_3D('',#1244,#1023,#1024);
#905=AXIS2_PLACEMENT_3D('',#1253,#1029,#1030);
#906=AXIS2_PLACEMENT_3D('',#1259,#1034,#1035);
#907=AXIS2_PLACEMENT_3D('',#1265,#1039,#1040);
#908=AXIS2_PLACEMENT_3D('',#1267,#1042,#1043);
#909=AXIS2_PLACEMENT_3D('',#1276,#1048,#1049);
#910=AXIS2_PLACEMENT_3D('',#1282,#1053,#1054);
#911=AXIS2_PLACEMENT_3D('',#1288,#1058,#1059);
#912=AXIS2_PLACEMENT_3D('',#1290,#1061,#1062);
#913=AXIS2_PLACEMENT_3D('',#1299,#1067,#1068);
#914=AXIS2_PLACEMENT_3D('',#1305,#1072,#1073);
#915=AXIS2_PLACEMENT_3D('',#1311,#1077,#1078);
#916=AXIS2_PLACEMENT_3D('',#1313,#1080,#1081);
#917=AXIS2_PLACEMENT_3D('',#1322,#1086,#1087);
#918=AXIS2_PLACEMENT_3D('',#1328,#1091,#1092);
#919=AXIS2_PLACEMENT_3D('',#1334,#1096,#1097);
#920=AXIS2_PLACEMENT_3D('',#1336,#1099,#1100);
#921=AXIS2_PLACEMENT_3D('',#1345,#1105,#1106);
#922=AXIS2_PLACEMENT_3D('',#1351,#1110,#1111);
#923=AXIS2_PLACEMENT_3D('',#1357,#1115,#1116);
#924=AXIS2_PLACEMENT_3D('',#1359,#1118,#1119);
#925=AXIS2_PLACEMENT_3D('',#1368,#1124,#1125);
#926=AXIS2_PLACEMENT_3D('',#1377,#1132,#1133);
#927=AXIS2_PLACEMENT_3D('',#1383,#1137,#1138);
#928=AXIS2_PLACEMENT_3D('',#1389,#1144,#1145);
#929=AXIS2_PLACEMENT_3D('',#1390,#1146,#1147);
#930=DIRECTION('axis',(0.,0.,1.));
#931=DIRECTION('refdir',(1.,0.,0.));
#932=DIRECTION('center_axis',(1.77635683940025E-16,1.,0.));
#933=DIRECTION('ref_axis',(1.,-1.77635683940025E-16,0.));
#934=DIRECTION('',(0.,0.,-1.));
#935=DIRECTION('',(1.,-1.77635683940025E-16,0.));
#936=DIRECTION('',(0.,0.,1.));
#937=DIRECTION('',(-1.,1.77635683940025E-16,0.));
#938=DIRECTION('center_axis',(0.,0.,-1.));
#939=DIRECTION('ref_axis',(-0.707106781186548,-0.707106781186548,0.));
#940=DIRECTION('center_axis',(0.,0.,1.));
#941=DIRECTION('ref_axis',(-0.707106781186548,0.707106781186548,0.));
#942=DIRECTION('',(0.,0.,-1.));
#943=DIRECTION('center_axis',(0.,0.,-1.));
#944=DIRECTION('ref_axis',(-0.707106781186548,-0.707106781186548,0.));
#945=DIRECTION('center_axis',(-1.77635683940025E-16,-1.,0.));
#946=DIRECTION('ref_axis',(-1.,1.77635683940025E-16,0.));
#947=DIRECTION('',(-1.,1.77635683940025E-16,0.));
#948=DIRECTION('',(0.,0.,1.));
#949=DIRECTION('',(1.,-1.77635683940025E-16,0.));
#950=DIRECTION('center_axis',(0.,0.,-1.));
#951=DIRECTION('ref_axis',(0.707106781186548,-0.707106781186548,0.));
#952=DIRECTION('center_axis',(0.,0.,1.));
#953=DIRECTION('ref_axis',(0.707106781186548,-0.707106781186548,0.));
#954=DIRECTION('center_axis',(0.,0.,-1.));
#955=DIRECTION('ref_axis',(0.707106781186548,0.707106781186548,0.));
#956=DIRECTION('center_axis',(0.,0.,-1.));
#957=DIRECTION('ref_axis',(0.707106781186548,-0.707106781186548,0.));
#958=DIRECTION('center_axis',(0.,0.,1.));
#959=DIRECTION('ref_axis',(0.707106781186548,-0.707106781186548,0.));
#960=DIRECTION('',(0.,0.,-1.));
#961=DIRECTION('center_axis',(0.,0.,-1.));
#962=DIRECTION('ref_axis',(0.707106781186548,-0.707106781186548,0.));
#963=DIRECTION('',(0.,0.,1.));
#964=DIRECTION('center_axis',(1.,0.,0.));
#965=DIRECTION('ref_axis',(0.,-1.,0.));
#966=DIRECTION('',(0.,-1.,0.));
#967=DIRECTION('',(0.,0.,1.));
#968=DIRECTION('',(0.,1.,0.));
#969=DIRECTION('center_axis',(0.,0.,-1.));
#970=DIRECTION('ref_axis',(0.707106781186548,0.707106781186548,0.));
#971=DIRECTION('center_axis',(0.,0.,1.));
#972=DIRECTION('ref_axis',(0.707106781186548,0.707106781186548,0.));
#973=DIRECTION('',(0.,0.,-1.));
#974=DIRECTION('center_axis',(0.,0.,-1.));
#975=DIRECTION('ref_axis',(0.707106781186548,0.707106781186548,0.));
#976=DIRECTION('center_axis',(-1.77635683940025E-16,1.,0.));
#977=DIRECTION('ref_axis',(1.,1.77635683940025E-16,0.));
#978=DIRECTION('',(1.,1.77635683940025E-16,0.));
#979=DIRECTION('',(0.,0.,1.));
#980=DIRECTION('',(-1.,-1.77635683940025E-16,0.));
#981=DIRECTION('center_axis',(0.,0.,-1.));
#982=DIRECTION('ref_axis',(-0.707106781186548,0.707106781186548,0.));
#983=DIRECTION('center_axis',(0.,0.,1.));
#984=DIRECTION('ref_axis',(-0.707106781186548,0.707106781186548,0.));
#985=DIRECTION('',(0.,0.,-1.));
#986=DIRECTION('center_axis',(0.,0.,-1.));
#987=DIRECTION('ref_axis',(-0.707106781186548,0.707106781186548,0.));
#988=DIRECTION('center_axis',(-1.,-1.8503717077086E-16,0.));
#989=DIRECTION('ref_axis',(-1.8503717077086E-16,1.,0.));
#990=DIRECTION('',(-1.8503717077086E-16,1.,0.));
#991=DIRECTION('',(0.,0.,1.));
#992=DIRECTION('',(1.8503717077086E-16,-1.,0.));
#993=DIRECTION('center_axis',(0.,0.,-1.));
#994=DIRECTION('ref_axis',(-0.707106781186548,-0.707106781186547,0.));
#995=DIRECTION('center_axis',(0.,0.,1.));
#996=DIRECTION('ref_axis',(-0.707106781186548,-0.707106781186547,0.));
#997=DIRECTION('',(0.,0.,-1.));
#998=DIRECTION('center_axis',(0.,0.,-1.));
#999=DIRECTION('ref_axis',(-0.707106781186548,-0.707106781186547,0.));
#1000=DIRECTION('center_axis',(-8.88178419700125E-17,-1.,0.));
#1001=DIRECTION('ref_axis',(-1.,8.88178419700125E-17,0.));
#1002=DIRECTION('',(1.,-8.88178419700125E-17,0.));
#1003=DIRECTION('',(-1.,8.88178419700125E-17,0.));
#1004=DIRECTION('center_axis',(-1.02257383847054E-16,0.,1.));
#1005=DIRECTION('ref_axis',(1.,0.,1.02257383847054E-16));
#1006=DIRECTION('',(1.,0.,1.02257383847054E-16));
#1007=DIRECTION('',(0.,1.,0.));
#1008=DIRECTION('',(1.,8.22387425648264E-17,1.02257383847054E-16));
#1009=DIRECTION('',(0.,1.,0.));
#1010=DIRECTION('center_axis',(-1.,0.,1.1686558153949E-15));
#1011=DIRECTION('ref_axis',(1.1686558153949E-15,0.,1.));
#1012=DIRECTION('',(1.1686558153949E-15,0.,1.));
#1013=DIRECTION('',(1.1686558153949E-15,9.61087847491487E-32,1.));
#1014=DIRECTION('',(0.,1.,0.));
#1015=DIRECTION('center_axis',(1.,0.,0.));
#1016=DIRECTION('ref_axis',(0.,0.,-1.));
#1017=DIRECTION('',(0.,0.,-1.));
#1018=DIRECTION('',(0.,1.,0.));
#1019=DIRECTION('',(0.,0.,-1.));
#1020=DIRECTION('center_axis',(0.,1.,0.));
#1021=DIRECTION('ref_axis',(0.,0.,1.));
#1022=DIRECTION('',(-1.,0.,0.));
#1023=DIRECTION('center_axis',(-1.02257383847054E-16,0.,1.));
#1024=DIRECTION('ref_axis',(1.,0.,1.02257383847054E-16));
#1025=DIRECTION('',(1.,0.,1.02257383847054E-16));
#1026=DIRECTION('',(0.,1.,0.));
#1027=DIRECTION('',(1.,8.22387425648264E-17,1.02257383847054E-16));
#1028=DIRECTION('',(0.,1.,0.));
#1029=DIRECTION('center_axis',(-1.,0.,1.1686558153949E-15));
#1030=DIRECTION('ref_axis',(1.1686558153949E-15,0.,1.));
#1031=DIRECTION('',(1.1686558153949E-15,0.,1.));
#1032=DIRECTION('',(1.1686558153949E-15,9.61087847491487E-32,1.));
#1033=DIRECTION('',(0.,1.,0.));
#1034=DIRECTION('center_axis',(1.,0.,0.));
#1035=DIRECTION('ref_axis',(0.,0.,-1.));
#1036=DIRECTION('',(0.,0.,-1.));
#1037=DIRECTION('',(0.,1.,0.));
#1038=DIRECTION('',(0.,0.,-1.));
#1039=DIRECTION('center_axis',(0.,1.,0.));
#1040=DIRECTION('ref_axis',(0.,0.,1.));
#1041=DIRECTION('',(-1.,0.,0.));
#1042=DIRECTION('center_axis',(-1.02257383847054E-16,0.,1.));
#1043=DIRECTION('ref_axis',(1.,0.,1.02257383847054E-16));
#1044=DIRECTION('',(1.,0.,1.02257383847054E-16));
#1045=DIRECTION('',(0.,1.,0.));
#1046=DIRECTION('',(1.,8.22387425648264E-17,1.02257383847054E-16));
#1047=DIRECTION('',(0.,1.,0.));
#1048=DIRECTION('center_axis',(-1.,0.,1.1686558153949E-15));
#1049=DIRECTION('ref_axis',(1.1686558153949E-15,0.,1.));
#1050=DIRECTION('',(1.1686558153949E-15,0.,1.));
#1051=DIRECTION('',(1.1686558153949E-15,9.61087847491487E-32,1.));
#1052=DIRECTION('',(0.,1.,0.));
#1053=DIRECTION('center_axis',(1.,0.,0.));
#1054=DIRECTION('ref_axis',(0.,0.,-1.));
#1055=DIRECTION('',(0.,0.,-1.));
#1056=DIRECTION('',(0.,1.,0.));
#1057=DIRECTION('',(0.,0.,-1.));
#1058=DIRECTION('center_axis',(0.,1.,0.));
#1059=DIRECTION('ref_axis',(0.,0.,1.));
#1060=DIRECTION('',(-1.,0.,0.));
#1061=DIRECTION('center_axis',(-1.02257383847054E-16,0.,1.));
#1062=DIRECTION('ref_axis',(1.,0.,1.02257383847054E-16));
#1063=DIRECTION('',(-1.,0.,-1.02257383847054E-16));
#1064=DIRECTION('',(0.,1.,0.));
#1065=DIRECTION('',(1.,0.,1.02257383847054E-16));
#1066=DIRECTION('',(0.,1.,0.));
#1067=DIRECTION('center_axis',(-1.,0.,1.1686558153949E-15));
#1068=DIRECTION('ref_axis',(1.1686558153949E-15,0.,1.));
#1069=DIRECTION('',(-1.1686558153949E-15,0.,-1.));
#1070=DIRECTION('',(1.1686558153949E-15,0.,1.));
#1071=DIRECTION('',(0.,1.,0.));
#1072=DIRECTION('center_axis',(1.,0.,0.));
#1073=DIRECTION('ref_axis',(0.,0.,-1.));
#1074=DIRECTION('',(0.,0.,1.));
#1075=DIRECTION('',(0.,1.,0.));
#1076=DIRECTION('',(0.,0.,-1.));
#1077=DIRECTION('center_axis',(0.,1.,0.));
#1078=DIRECTION('ref_axis',(0.,0.,1.));
#1079=DIRECTION('',(-1.,0.,0.));
#1080=DIRECTION('center_axis',(-1.02257383847054E-16,0.,1.));
#1081=DIRECTION('ref_axis',(1.,0.,1.02257383847054E-16));
#1082=DIRECTION('',(-1.,0.,-1.02257383847054E-16));
#1083=DIRECTION('',(0.,1.,0.));
#1084=DIRECTION('',(1.,0.,1.02257383847054E-16));
#1085=DIRECTION('',(0.,1.,0.));
#1086=DIRECTION('center_axis',(-1.,0.,1.1686558153949E-15));
#1087=DIRECTION('ref_axis',(1.1686558153949E-15,0.,1.));
#1088=DIRECTION('',(-1.1686558153949E-15,0.,-1.));
#1089=DIRECTION('',(1.1686558153949E-15,0.,1.));
#1090=DIRECTION('',(0.,1.,0.));
#1091=DIRECTION('center_axis',(1.,0.,0.));
#1092=DIRECTION('ref_axis',(0.,0.,-1.));
#1093=DIRECTION('',(0.,0.,1.));
#1094=DIRECTION('',(0.,1.,0.));
#1095=DIRECTION('',(0.,0.,-1.));
#1096=DIRECTION('center_axis',(0.,1.,0.));
#1097=DIRECTION('ref_axis',(0.,0.,1.));
#1098=DIRECTION('',(-1.,0.,0.));
#1099=DIRECTION('center_axis',(-1.02257383847054E-16,0.,1.));
#1100=DIRECTION('ref_axis',(1.,0.,1.02257383847054E-16));
#1101=DIRECTION('',(-1.,0.,-1.02257383847054E-16));
#1102=DIRECTION('',(0.,1.,0.));
#1103=DIRECTION('',(1.,0.,1.02257383847054E-16));
#1104=DIRECTION('',(0.,1.,0.));
#1105=DIRECTION('center_axis',(-1.,0.,1.1686558153949E-15));
#1106=DIRECTION('ref_axis',(1.1686558153949E-15,0.,1.));
#1107=DIRECTION('',(-1.1686558153949E-15,0.,-1.));
#1108=DIRECTION('',(1.1686558153949E-15,0.,1.));
#1109=DIRECTION('',(0.,1.,0.));
#1110=DIRECTION('center_axis',(1.,0.,0.));
#1111=DIRECTION('ref_axis',(0.,0.,-1.));
#1112=DIRECTION('',(0.,0.,1.));
#1113=DIRECTION('',(0.,1.,0.));
#1114=DIRECTION('',(0.,0.,-1.));
#1115=DIRECTION('center_axis',(0.,1.,0.));
#1116=DIRECTION('ref_axis',(0.,0.,1.));
#1117=DIRECTION('',(-1.,0.,0.));
#1118=DIRECTION('center_axis',(-1.,-1.77635683940025E-16,0.));
#1119=DIRECTION('ref_axis',(1.77635683940025E-16,-1.,0.));
#1120=DIRECTION('',(1.77635683940025E-16,-1.,0.));
#1121=DIRECTION('',(0.,0.,1.));
#1122=DIRECTION('',(1.77635683940025E-16,-1.,0.));
#1123=DIRECTION('',(0.,0.,1.));
#1124=DIRECTION('center_axis',(0.,1.,0.));
#1125=DIRECTION('ref_axis',(-1.,0.,0.));
#1126=DIRECTION('',(-1.,0.,0.));
#1127=DIRECTION('',(-1.,0.,0.));
#1128=DIRECTION('',(-1.,0.,0.));
#1129=DIRECTION('',(-1.,0.,0.));
#1130=DIRECTION('',(0.,0.,1.));
#1131=DIRECTION('',(-1.,0.,0.));
#1132=DIRECTION('center_axis',(1.,0.,0.));
#1133=DIRECTION('ref_axis',(0.,1.,0.));
#1134=DIRECTION('',(0.,1.,0.));
#1135=DIRECTION('',(0.,1.,0.));
#1136=DIRECTION('',(0.,0.,1.));
#1137=DIRECTION('center_axis',(8.22387425648264E-17,-1.,0.));
#1138=DIRECTION('ref_axis',(1.,8.22387425648264E-17,0.));
#1139=DIRECTION('',(1.,8.22387425648264E-17,0.));
#1140=DIRECTION('',(1.,8.22387425648264E-17,0.));
#1141=DIRECTION('',(1.,8.22387425648264E-17,0.));
#1142=DIRECTION('',(1.,8.22387425648264E-17,0.));
#1143=DIRECTION('',(1.,8.22387425648264E-17,0.));
#1144=DIRECTION('center_axis',(0.,0.,1.));
#1145=DIRECTION('ref_axis',(1.,0.,0.));
#1146=DIRECTION('center_axis',(0.,0.,1.));
#1147=DIRECTION('ref_axis',(1.,0.,0.));
#1148=CARTESIAN_POINT('',(0.,0.,0.));
#1149=CARTESIAN_POINT('Origin',(2.89284294234593,4.35506949000026,0.4));
#1150=CARTESIAN_POINT('',(7.39284294234593,4.35506949000026,0.4));
#1151=CARTESIAN_POINT('',(7.39284294234593,4.35506949000026,0.));
#1152=CARTESIAN_POINT('',(7.39284294234593,4.35506949000026,0.4));
#1153=CARTESIAN_POINT('',(3.39284294234593,4.35506949000026,0.4));
#1154=CARTESIAN_POINT('',(4.14284294234593,4.35506949000026,0.4));
#1155=CARTESIAN_POINT('',(3.39284294234593,4.35506949000026,0.));
#1156=CARTESIAN_POINT('',(3.39284294234593,4.35506949000026,0.4));
#1157=CARTESIAN_POINT('',(4.14284294234593,4.35506949000026,0.));
#1158=CARTESIAN_POINT('Origin',(3.39284294234593,3.85506949000026,0.4));
#1159=CARTESIAN_POINT('',(3.39284294234593,3.35506949000026,0.4));
#1160=CARTESIAN_POINT('Origin',(3.39284294234593,3.85506949000026,0.4));
#1161=CARTESIAN_POINT('',(3.39284294234593,3.35506949000026,0.));
#1162=CARTESIAN_POINT('',(3.39284294234593,3.35506949000026,0.4));
#1163=CARTESIAN_POINT('Origin',(3.39284294234593,3.85506949000026,0.));
#1164=CARTESIAN_POINT('Origin',(7.89284294234593,3.35506949000026,0.4));
#1165=CARTESIAN_POINT('',(7.39284294234593,3.35506949000026,0.4));
#1166=CARTESIAN_POINT('',(6.64284294234593,3.35506949000026,0.4));
#1167=CARTESIAN_POINT('',(7.39284294234593,3.35506949000026,0.));
#1168=CARTESIAN_POINT('',(7.39284294234593,3.35506949000026,0.4));
#1169=CARTESIAN_POINT('',(6.64284294234593,3.35506949000026,0.));
#1170=CARTESIAN_POINT('Origin',(7.39284294234593,3.85506949000026,0.4));
#1171=CARTESIAN_POINT('Origin',(7.39284294234593,3.85506949000026,0.4));
#1172=CARTESIAN_POINT('Origin',(7.39284294234593,3.85506949000026,0.));
#1173=CARTESIAN_POINT('Origin',(9.89284294234593,-2.94493050999974,0.4));
#1174=CARTESIAN_POINT('',(9.89284294234593,-3.44493050999974,0.4));
#1175=CARTESIAN_POINT('',(10.3928429423459,-2.94493050999974,0.4));
#1176=CARTESIAN_POINT('Origin',(9.89284294234593,-2.94493050999974,0.4));
#1177=CARTESIAN_POINT('',(10.3928429423459,-2.94493050999974,0.));
#1178=CARTESIAN_POINT('',(10.3928429423459,-2.94493050999974,0.4));
#1179=CARTESIAN_POINT('',(9.89284294234593,-3.44493050999974,0.));
#1180=CARTESIAN_POINT('Origin',(9.89284294234593,-2.94493050999974,0.));
#1181=CARTESIAN_POINT('',(9.89284294234593,-3.44493050999974,0.4));
#1182=CARTESIAN_POINT('Origin',(10.3928429423459,-1.34493050999974,0.4));
#1183=CARTESIAN_POINT('',(10.3928429423459,-1.84493050999974,0.4));
#1184=CARTESIAN_POINT('',(10.3928429423459,-0.494930509999737,0.4));
#1185=CARTESIAN_POINT('',(10.3928429423459,-1.84493050999974,0.));
#1186=CARTESIAN_POINT('',(10.3928429423459,-1.84493050999974,0.4));
#1187=CARTESIAN_POINT('',(10.3928429423459,-0.494930509999737,0.));
#1188=CARTESIAN_POINT('Origin',(9.89284294234593,-1.84493050999974,0.4));
#1189=CARTESIAN_POINT('',(9.89284294234593,-1.34493050999974,0.4));
#1190=CARTESIAN_POINT('Origin',(9.89284294234593,-1.84493050999974,0.4));
#1191=CARTESIAN_POINT('',(9.89284294234593,-1.34493050999974,0.));
#1192=CARTESIAN_POINT('',(9.89284294234593,-1.34493050999974,0.4));
#1193=CARTESIAN_POINT('Origin',(9.89284294234593,-1.84493050999974,0.));
#1194=CARTESIAN_POINT('Origin',(0.392842942345926,-1.34493050999974,0.4));
#1195=CARTESIAN_POINT('',(0.892842942345927,-1.34493050999974,0.4));
#1196=CARTESIAN_POINT('',(2.89284294234593,-1.34493050999974,0.4));
#1197=CARTESIAN_POINT('',(0.892842942345927,-1.34493050999974,0.));
#1198=CARTESIAN_POINT('',(0.892842942345926,-1.34493050999974,0.4));
#1199=CARTESIAN_POINT('',(2.89284294234593,-1.34493050999974,0.));
#1200=CARTESIAN_POINT('Origin',(0.892842942345927,-1.84493050999974,0.4));
#1201=CARTESIAN_POINT('',(0.392842942345926,-1.84493050999974,0.4));
#1202=CARTESIAN_POINT('Origin',(0.892842942345927,-1.84493050999974,0.4));
#1203=CARTESIAN_POINT('',(0.392842942345926,-1.84493050999974,0.));
#1204=CARTESIAN_POINT('',(0.392842942345927,-1.84493050999974,0.4));
#1205=CARTESIAN_POINT('Origin',(0.892842942345927,-1.84493050999974,0.));
#1206=CARTESIAN_POINT('Origin',(0.392842942345927,-3.44493050999974,0.4));
#1207=CARTESIAN_POINT('',(0.392842942345926,-2.94493050999974,0.4));
#1208=CARTESIAN_POINT('',(0.392842942345926,-1.54493050999974,0.4));
#1209=CARTESIAN_POINT('',(0.392842942345926,-2.94493050999974,0.));
#1210=CARTESIAN_POINT('',(0.392842942345927,-2.94493050999974,0.4));
#1211=CARTESIAN_POINT('',(0.392842942345926,-1.54493050999974,0.));
#1212=CARTESIAN_POINT('Origin',(0.892842942345927,-2.94493050999974,0.4));
#1213=CARTESIAN_POINT('',(0.892842942345927,-3.44493050999974,0.4));
#1214=CARTESIAN_POINT('Origin',(0.892842942345927,-2.94493050999974,0.4));
#1215=CARTESIAN_POINT('',(0.892842942345927,-3.44493050999974,0.));
#1216=CARTESIAN_POINT('',(0.892842942345927,-3.44493050999974,0.4));
#1217=CARTESIAN_POINT('Origin',(0.892842942345927,-2.94493050999974,0.));
#1218=CARTESIAN_POINT('Origin',(10.3928429423459,-3.44493050999974,0.4));
#1219=CARTESIAN_POINT('',(7.89284294234593,-3.44493050999974,0.));
#1220=CARTESIAN_POINT('',(7.89284294234593,-3.44493050999974,0.4));
#1221=CARTESIAN_POINT('Origin',(7.94284294234593,-5.04493050999974,0.19));
#1222=CARTESIAN_POINT('',(7.94284294234593,-5.04493050999974,0.19));
#1223=CARTESIAN_POINT('',(9.84284294234593,-5.04493050999974,0.19));
#1224=CARTESIAN_POINT('',(7.94284294234593,-5.04493050999974,0.19));
#1225=CARTESIAN_POINT('',(9.84284294234593,-4.64493050999974,0.19));
#1226=CARTESIAN_POINT('',(9.84284294234593,-5.04493050999974,0.19));
#1227=CARTESIAN_POINT('',(7.94284294234593,-4.64493050999974,0.19));
#1228=CARTESIAN_POINT('',(3.96784294234593,-4.64493050999974,0.189999999999999));
#1229=CARTESIAN_POINT('',(7.94284294234593,-5.04493050999974,0.19));
#1230=CARTESIAN_POINT('Origin',(7.94284294234593,-5.04493050999974,0.));
#1231=CARTESIAN_POINT('',(7.94284294234593,-5.04493050999974,0.));
#1232=CARTESIAN_POINT('',(7.94284294234593,-5.04493050999974,0.));
#1233=CARTESIAN_POINT('',(7.94284294234593,-4.64493050999974,0.));
#1234=CARTESIAN_POINT('',(7.94284294234593,-4.64493050999974,-4.64540686619474E-15));
#1235=CARTESIAN_POINT('',(7.94284294234593,-5.04493050999974,0.));
#1236=CARTESIAN_POINT('Origin',(9.84284294234593,-5.04493050999974,0.19));
#1237=CARTESIAN_POINT('',(9.84284294234593,-5.04493050999974,0.));
#1238=CARTESIAN_POINT('',(9.84284294234593,-5.04493050999974,0.19));
#1239=CARTESIAN_POINT('',(9.84284294234593,-4.64493050999974,0.));
#1240=CARTESIAN_POINT('',(9.84284294234593,-5.04493050999974,0.));
#1241=CARTESIAN_POINT('',(9.84284294234593,-4.64493050999974,0.095));
#1242=CARTESIAN_POINT('Origin',(8.89284294234593,-5.04493050999974,0.095));
#1243=CARTESIAN_POINT('',(17.7928429423459,-5.04493050999974,0.));
#1244=CARTESIAN_POINT('Origin',(4.44284294234593,-5.04493050999974,0.19));
#1245=CARTESIAN_POINT('',(4.44284294234593,-5.04493050999974,0.19));
#1246=CARTESIAN_POINT('',(6.34284294234593,-5.04493050999974,0.19));
#1247=CARTESIAN_POINT('',(4.44284294234593,-5.04493050999974,0.19));
#1248=CARTESIAN_POINT('',(6.34284294234593,-4.64493050999974,0.19));
#1249=CARTESIAN_POINT('',(6.34284294234593,-5.04493050999974,0.19));
#1250=CARTESIAN_POINT('',(4.44284294234593,-4.64493050999974,0.19));
#1251=CARTESIAN_POINT('',(2.21784294234593,-4.64493050999974,0.19));
#1252=CARTESIAN_POINT('',(4.44284294234593,-5.04493050999974,0.19));
#1253=CARTESIAN_POINT('Origin',(4.44284294234593,-5.04493050999974,0.));
#1254=CARTESIAN_POINT('',(4.44284294234593,-5.04493050999974,0.));
#1255=CARTESIAN_POINT('',(4.44284294234593,-5.04493050999974,0.));
#1256=CARTESIAN_POINT('',(4.44284294234593,-4.64493050999974,0.));
#1257=CARTESIAN_POINT('',(4.44284294234593,-4.64493050999974,-2.60025918925366E-15));
#1258=CARTESIAN_POINT('',(4.44284294234593,-5.04493050999974,0.));
#1259=CARTESIAN_POINT('Origin',(6.34284294234593,-5.04493050999974,0.19));
#1260=CARTESIAN_POINT('',(6.34284294234593,-5.04493050999974,0.));
#1261=CARTESIAN_POINT('',(6.34284294234593,-5.04493050999974,0.19));
#1262=CARTESIAN_POINT('',(6.34284294234593,-4.64493050999974,0.));
#1263=CARTESIAN_POINT('',(6.34284294234593,-5.04493050999974,0.));
#1264=CARTESIAN_POINT('',(6.34284294234593,-4.64493050999974,0.095));
#1265=CARTESIAN_POINT('Origin',(5.39284294234593,-5.04493050999974,0.095));
#1266=CARTESIAN_POINT('',(14.2928429423459,-5.04493050999974,0.));
#1267=CARTESIAN_POINT('Origin',(0.942842942345929,-5.04493050999974,0.19));
#1268=CARTESIAN_POINT('',(0.942842942345929,-5.04493050999974,0.19));
#1269=CARTESIAN_POINT('',(2.84284294234593,-5.04493050999974,0.19));
#1270=CARTESIAN_POINT('',(0.942842942345929,-5.04493050999974,0.19));
#1271=CARTESIAN_POINT('',(2.84284294234593,-4.64493050999974,0.19));
#1272=CARTESIAN_POINT('',(2.84284294234593,-5.04493050999974,0.19));
#1273=CARTESIAN_POINT('',(0.942842942345929,-4.64493050999974,0.19));
#1274=CARTESIAN_POINT('',(0.467842942345928,-4.64493050999974,0.19));
#1275=CARTESIAN_POINT('',(0.942842942345929,-5.04493050999974,0.19));
#1276=CARTESIAN_POINT('Origin',(0.942842942345929,-5.04493050999974,0.));
#1277=CARTESIAN_POINT('',(0.942842942345929,-5.04493050999974,0.));
#1278=CARTESIAN_POINT('',(0.942842942345929,-5.04493050999974,0.));
#1279=CARTESIAN_POINT('',(0.942842942345929,-4.64493050999974,0.));
#1280=CARTESIAN_POINT('',(0.942842942345929,-4.64493050999974,-5.5511151231258E-16));
#1281=CARTESIAN_POINT('',(0.942842942345929,-5.04493050999974,0.));
#1282=CARTESIAN_POINT('Origin',(2.84284294234593,-5.04493050999974,0.19));
#1283=CARTESIAN_POINT('',(2.84284294234593,-5.04493050999974,0.));
#1284=CARTESIAN_POINT('',(2.84284294234593,-5.04493050999974,0.19));
#1285=CARTESIAN_POINT('',(2.84284294234593,-4.64493050999974,0.));
#1286=CARTESIAN_POINT('',(2.84284294234593,-5.04493050999974,0.));
#1287=CARTESIAN_POINT('',(2.84284294234593,-4.64493050999974,0.095));
#1288=CARTESIAN_POINT('Origin',(1.89284294234593,-5.04493050999974,0.095));
#1289=CARTESIAN_POINT('',(10.7928429423459,-5.04493050999974,0.));
#1290=CARTESIAN_POINT('Origin',(7.94284294234593,5.35506949000026,0.19));
#1291=CARTESIAN_POINT('',(9.84284294234593,5.35506949000026,0.19));
#1292=CARTESIAN_POINT('',(7.94284294234593,5.35506949000026,0.19));
#1293=CARTESIAN_POINT('',(9.36784294234593,5.35506949000026,0.19));
#1294=CARTESIAN_POINT('',(9.84284294234593,5.75506949000026,0.19));
#1295=CARTESIAN_POINT('',(9.84284294234593,5.35506949000026,0.19));
#1296=CARTESIAN_POINT('',(7.94284294234593,5.75506949000026,0.19));
#1297=CARTESIAN_POINT('',(7.94284294234593,5.75506949000026,0.19));
#1298=CARTESIAN_POINT('',(7.94284294234593,5.35506949000026,0.19));
#1299=CARTESIAN_POINT('Origin',(7.94284294234593,5.35506949000026,0.));
#1300=CARTESIAN_POINT('',(7.94284294234593,5.35506949000026,0.));
#1301=CARTESIAN_POINT('',(7.94284294234593,5.35506949000026,1.66533453693774E-15));
#1302=CARTESIAN_POINT('',(7.94284294234593,5.75506949000026,0.));
#1303=CARTESIAN_POINT('',(7.94284294234593,5.75506949000026,0.));
#1304=CARTESIAN_POINT('',(7.94284294234593,5.35506949000026,0.));
#1305=CARTESIAN_POINT('Origin',(9.84284294234593,5.35506949000026,0.19));
#1306=CARTESIAN_POINT('',(9.84284294234593,5.35506949000026,0.));
#1307=CARTESIAN_POINT('',(9.84284294234593,5.35506949000026,0.095));
#1308=CARTESIAN_POINT('',(9.84284294234593,5.75506949000026,0.));
#1309=CARTESIAN_POINT('',(9.84284294234593,5.35506949000026,0.));
#1310=CARTESIAN_POINT('',(9.84284294234593,5.75506949000026,0.19));
#1311=CARTESIAN_POINT('Origin',(8.89284294234593,5.75506949000026,0.095));
#1312=CARTESIAN_POINT('',(17.7928429423459,5.75506949000026,0.));
#1313=CARTESIAN_POINT('Origin',(4.44284294234593,5.35506949000026,0.19));
#1314=CARTESIAN_POINT('',(6.34284294234593,5.35506949000026,0.19));
#1315=CARTESIAN_POINT('',(4.44284294234593,5.35506949000026,0.19));
#1316=CARTESIAN_POINT('',(7.61784294234593,5.35506949000026,0.19));
#1317=CARTESIAN_POINT('',(6.34284294234593,5.75506949000026,0.19));
#1318=CARTESIAN_POINT('',(6.34284294234593,5.35506949000026,0.19));
#1319=CARTESIAN_POINT('',(4.44284294234593,5.75506949000026,0.19));
#1320=CARTESIAN_POINT('',(4.44284294234593,5.75506949000026,0.19));
#1321=CARTESIAN_POINT('',(4.44284294234593,5.35506949000026,0.19));
#1322=CARTESIAN_POINT('Origin',(4.44284294234593,5.35506949000026,0.));
#1323=CARTESIAN_POINT('',(4.44284294234593,5.35506949000026,0.));
#1324=CARTESIAN_POINT('',(4.44284294234593,5.35506949000026,3.71048221387882E-15));
#1325=CARTESIAN_POINT('',(4.44284294234593,5.75506949000026,0.));
#1326=CARTESIAN_POINT('',(4.44284294234593,5.75506949000026,0.));
#1327=CARTESIAN_POINT('',(4.44284294234593,5.35506949000026,0.));
#1328=CARTESIAN_POINT('Origin',(6.34284294234593,5.35506949000026,0.19));
#1329=CARTESIAN_POINT('',(6.34284294234593,5.35506949000026,0.));
#1330=CARTESIAN_POINT('',(6.34284294234593,5.35506949000026,0.095));
#1331=CARTESIAN_POINT('',(6.34284294234593,5.75506949000026,0.));
#1332=CARTESIAN_POINT('',(6.34284294234593,5.35506949000026,0.));
#1333=CARTESIAN_POINT('',(6.34284294234593,5.75506949000026,0.19));
#1334=CARTESIAN_POINT('Origin',(5.39284294234593,5.75506949000026,0.095));
#1335=CARTESIAN_POINT('',(14.2928429423459,5.75506949000026,0.));
#1336=CARTESIAN_POINT('Origin',(0.942842942345927,5.35506949000026,0.19));
#1337=CARTESIAN_POINT('',(2.84284294234593,5.35506949000026,0.19));
#1338=CARTESIAN_POINT('',(0.942842942345927,5.35506949000026,0.19));
#1339=CARTESIAN_POINT('',(5.86784294234593,5.35506949000026,0.19));
#1340=CARTESIAN_POINT('',(2.84284294234593,5.75506949000026,0.19));
#1341=CARTESIAN_POINT('',(2.84284294234593,5.35506949000026,0.19));
#1342=CARTESIAN_POINT('',(0.942842942345927,5.75506949000026,0.19));
#1343=CARTESIAN_POINT('',(0.942842942345927,5.75506949000026,0.19));
#1344=CARTESIAN_POINT('',(0.942842942345927,5.35506949000026,0.19));
#1345=CARTESIAN_POINT('Origin',(0.942842942345927,5.35506949000026,0.));
#1346=CARTESIAN_POINT('',(0.942842942345927,5.35506949000026,0.));
#1347=CARTESIAN_POINT('',(0.942842942345926,5.35506949000026,5.7556298908199E-15));
#1348=CARTESIAN_POINT('',(0.942842942345927,5.75506949000026,0.));
#1349=CARTESIAN_POINT('',(0.942842942345927,5.75506949000026,0.));
#1350=CARTESIAN_POINT('',(0.942842942345927,5.35506949000026,0.));
#1351=CARTESIAN_POINT('Origin',(2.84284294234593,5.35506949000026,0.19));
#1352=CARTESIAN_POINT('',(2.84284294234593,5.35506949000026,0.));
#1353=CARTESIAN_POINT('',(2.84284294234593,5.35506949000026,0.095));
#1354=CARTESIAN_POINT('',(2.84284294234593,5.75506949000026,0.));
#1355=CARTESIAN_POINT('',(2.84284294234593,5.35506949000026,0.));
#1356=CARTESIAN_POINT('',(2.84284294234593,5.75506949000026,0.19));
#1357=CARTESIAN_POINT('Origin',(1.89284294234593,5.75506949000026,0.095));
#1358=CARTESIAN_POINT('',(10.7928429423459,5.75506949000026,0.));
#1359=CARTESIAN_POINT('Origin',(-0.00715705765407471,5.35506949000026,0.));
#1360=CARTESIAN_POINT('',(-0.00715705765407471,5.35506949000026,0.));
#1361=CARTESIAN_POINT('',(-0.00715705765407293,-4.64493050999974,0.));
#1362=CARTESIAN_POINT('',(-0.00715705765407471,5.35506949000026,0.));
#1363=CARTESIAN_POINT('',(-0.00715705765407293,-4.64493050999974,0.4));
#1364=CARTESIAN_POINT('',(-0.00715705765407293,-4.64493050999974,0.));
#1365=CARTESIAN_POINT('',(-0.00715705765407471,5.35506949000026,0.4));
#1366=CARTESIAN_POINT('',(-0.00715705765407471,5.35506949000026,0.4));
#1367=CARTESIAN_POINT('',(-0.00715705765407471,5.35506949000026,0.));
#1368=CARTESIAN_POINT('Origin',(10.7928429423459,5.35506949000026,0.));
#1369=CARTESIAN_POINT('',(10.7928429423459,5.35506949000026,0.));
#1370=CARTESIAN_POINT('',(10.7928429423459,5.35506949000026,0.));
#1371=CARTESIAN_POINT('',(10.7928429423459,5.35506949000026,0.));
#1372=CARTESIAN_POINT('',(10.7928429423459,5.35506949000026,0.4));
#1373=CARTESIAN_POINT('',(10.7928429423459,5.35506949000026,0.4));
#1374=CARTESIAN_POINT('',(10.7928429423459,5.35506949000026,0.));
#1375=CARTESIAN_POINT('',(10.7928429423459,5.35506949000026,0.));
#1376=CARTESIAN_POINT('',(10.7928429423459,5.35506949000026,0.));
#1377=CARTESIAN_POINT('Origin',(10.7928429423459,-4.64493050999974,0.));
#1378=CARTESIAN_POINT('',(10.7928429423459,-4.64493050999974,0.));
#1379=CARTESIAN_POINT('',(10.7928429423459,-4.64493050999974,0.));
#1380=CARTESIAN_POINT('',(10.7928429423459,-4.64493050999974,0.4));
#1381=CARTESIAN_POINT('',(10.7928429423459,-4.64493050999974,0.4));
#1382=CARTESIAN_POINT('',(10.7928429423459,-4.64493050999974,0.));
#1383=CARTESIAN_POINT('Origin',(-0.00715705765407293,-4.64493050999974,
0.));
#1384=CARTESIAN_POINT('',(-0.00715705765407293,-4.64493050999974,0.));
#1385=CARTESIAN_POINT('',(-0.00715705765407293,-4.64493050999974,0.4));
#1386=CARTESIAN_POINT('',(-0.00715705765407293,-4.64493050999974,0.));
#1387=CARTESIAN_POINT('',(-0.00715705765407293,-4.64493050999974,0.));
#1388=CARTESIAN_POINT('',(-0.00715705765407293,-4.64493050999974,0.));
#1389=CARTESIAN_POINT('Origin',(5.39284294234593,0.355069490000262,0.4));
#1390=CARTESIAN_POINT('Origin',(5.39284294234593,0.355069490000262,0.));
#1391=UNCERTAINTY_MEASURE_WITH_UNIT(LENGTH_MEASURE(0.001),#1395,
'DISTANCE_ACCURACY_VALUE',
'Maximum model space distance between geometric entities at asserted c
onnectivities');
#1392=UNCERTAINTY_MEASURE_WITH_UNIT(LENGTH_MEASURE(0.001),#1395,
'DISTANCE_ACCURACY_VALUE',
'Maximum model space distance between geometric entities at asserted c
onnectivities');
#1393=(
GEOMETRIC_REPRESENTATION_CONTEXT(3)
GLOBAL_UNCERTAINTY_ASSIGNED_CONTEXT((#1391))
GLOBAL_UNIT_ASSIGNED_CONTEXT((#1395,#1396,#1397))
REPRESENTATION_CONTEXT('','3D')
);
#1394=(
GEOMETRIC_REPRESENTATION_CONTEXT(3)
GLOBAL_UNCERTAINTY_ASSIGNED_CONTEXT((#1392))
GLOBAL_UNIT_ASSIGNED_CONTEXT((#1395,#1396,#1397))
REPRESENTATION_CONTEXT('','3D')
);
#1395=(
LENGTH_UNIT()
NAMED_UNIT(*)
SI_UNIT(.CENTI.,.METRE.)
);
#1396=(
NAMED_UNIT(*)
PLANE_ANGLE_UNIT()
SI_UNIT($,.RADIAN.)
);
#1397=(
NAMED_UNIT(*)
SI_UNIT($,.STERADIAN.)
SOLID_ANGLE_UNIT()
);
#1398=SHAPE_DEFINITION_REPRESENTATION(#1399,#1400);
#1399=PRODUCT_DEFINITION_SHAPE('',$,#1402);
#1400=SHAPE_REPRESENTATION('',(#875),#1393);
#1401=PRODUCT_DEFINITION_CONTEXT('part definition',#1406,'design');
#1402=PRODUCT_DEFINITION('Enclosure_4','Enclosure_4',#1403,#1401);
#1403=PRODUCT_DEFINITION_FORMATION('',$,#1408);
#1404=PRODUCT_RELATED_PRODUCT_CATEGORY('Enclosure_4','Enclosure_4',(#1408));
#1405=APPLICATION_PROTOCOL_DEFINITION('international standard',
'automotive_design',2009,#1406);
#1406=APPLICATION_CONTEXT(
'Core Data for Automotive Mechanical Design Process');
#1407=PRODUCT_CONTEXT('part definition',#1406,'mechanical');
#1408=PRODUCT('Enclosure_4','Enclosure_4',$,(#1407));
#1409=PRESENTATION_STYLE_ASSIGNMENT((#1410));
#1410=SURFACE_STYLE_USAGE(.BOTH.,#1413);
#1411=SURFACE_STYLE_RENDERING_WITH_PROPERTIES($,#1417,(#1412));
#1412=SURFACE_STYLE_TRANSPARENT(0.);
#1413=SURFACE_SIDE_STYLE('',(#1414,#1411));
#1414=SURFACE_STYLE_FILL_AREA(#1415);
#1415=FILL_AREA_STYLE('',(#1416));
#1416=FILL_AREA_STYLE_COLOUR('',#1417);
#1417=COLOUR_RGB('',0.749019607843137,0.749019607843137,0.749019607843137);
ENDSEC;
END-ISO-10303-21;
