ISO-10303-21;
HEADER;
/* Generated by software containing ST-Developer
 * from STEP Tools, Inc. (www.steptools.com) 
 */

FILE_DESCRIPTION(
/* description */ (''),
/* implementation_level */ '2;1');

FILE_NAME(
/* name */ 'Frame_member.stp',
/* time_stamp */ '2026-02-09T10:02:37+05:30',
/* author */ ('Kartik'),
/* organization */ (''),
/* preprocessor_version */ 'ST-DEVELOPER v20.1',
/* originating_system */ 'Autodesk Inventor 2026',
/* authorisation */ '');

FILE_SCHEMA (('AUTOMOTIVE_DESIGN { 1 0 10303 214 3 1 1 }'));
ENDSEC;

DATA;
#10=MECHANICAL_DESIGN_GEOMETRIC_PRESENTATION_REPRESENTATION('',(#13),#225);
#11=SHAPE_REPRESENTATION_RELATIONSHIP('SRR','None',#231,#12);
#12=ADVANCED_BREP_SHAPE_REPRESENTATION('',(#14),#224);
#13=STYLED_ITEM('',(#240),#14);
#14=MANIFOLD_SOLID_BREP('Solid1',#130);
#15=FACE_BOUND('',#36,.T.);
#16=FACE_BOUND('',#38,.T.);
#17=PLANE('',#150);
#18=PLANE('',#151);
#19=PLANE('',#152);
#20=PLANE('',#153);
#21=PLANE('',#154);
#22=PLANE('',#155);
#23=FACE_OUTER_BOUND('',#30,.T.);
#24=FACE_OUTER_BOUND('',#31,.T.);
#25=FACE_OUTER_BOUND('',#32,.T.);
#26=FACE_OUTER_BOUND('',#33,.T.);
#27=FACE_OUTER_BOUND('',#34,.T.);
#28=FACE_OUTER_BOUND('',#35,.T.);
#29=FACE_OUTER_BOUND('',#37,.T.);
#30=EDGE_LOOP('',(#92,#93,#94,#95));
#31=EDGE_LOOP('',(#96,#97,#98,#99));
#32=EDGE_LOOP('',(#100,#101,#102,#103));
#33=EDGE_LOOP('',(#104,#105,#106,#107));
#34=EDGE_LOOP('',(#108,#109,#110,#111));
#35=EDGE_LOOP('',(#112,#113,#114,#115));
#36=EDGE_LOOP('',(#116));
#37=EDGE_LOOP('',(#117,#118,#119,#120));
#38=EDGE_LOOP('',(#121));
#39=LINE('',#194,#52);
#40=LINE('',#199,#53);
#41=LINE('',#201,#54);
#42=LINE('',#203,#55);
#43=LINE('',#204,#56);
#44=LINE('',#207,#57);
#45=LINE('',#209,#58);
#46=LINE('',#210,#59);
#47=LINE('',#213,#60);
#48=LINE('',#215,#61);
#49=LINE('',#216,#62);
#50=LINE('',#218,#63);
#51=LINE('',#219,#64);
#52=VECTOR('',#162,0.315);
#53=VECTOR('',#167,1.);
#54=VECTOR('',#168,1.);
#55=VECTOR('',#169,1.);
#56=VECTOR('',#170,1.);
#57=VECTOR('',#173,1.);
#58=VECTOR('',#174,1.);
#59=VECTOR('',#175,1.);
#60=VECTOR('',#178,1.);
#61=VECTOR('',#179,1.);
#62=VECTOR('',#180,1.);
#63=VECTOR('',#183,1.);
#64=VECTOR('',#184,1.);
#65=CIRCLE('',#148,0.315);
#66=CIRCLE('',#149,0.315);
#67=VERTEX_POINT('',#191);
#68=VERTEX_POINT('',#193);
#69=VERTEX_POINT('',#197);
#70=VERTEX_POINT('',#198);
#71=VERTEX_POINT('',#200);
#72=VERTEX_POINT('',#202);
#73=VERTEX_POINT('',#206);
#74=VERTEX_POINT('',#208);
#75=VERTEX_POINT('',#212);
#76=VERTEX_POINT('',#214);
#77=EDGE_CURVE('',#67,#67,#65,.T.);
#78=EDGE_CURVE('',#67,#68,#39,.T.);
#79=EDGE_CURVE('',#68,#68,#66,.T.);
#80=EDGE_CURVE('',#69,#70,#40,.T.);
#81=EDGE_CURVE('',#70,#71,#41,.T.);
#82=EDGE_CURVE('',#72,#71,#42,.T.);
#83=EDGE_CURVE('',#69,#72,#43,.T.);
#84=EDGE_CURVE('',#73,#69,#44,.T.);
#85=EDGE_CURVE('',#74,#72,#45,.T.);
#86=EDGE_CURVE('',#73,#74,#46,.T.);
#87=EDGE_CURVE('',#75,#73,#47,.T.);
#88=EDGE_CURVE('',#76,#74,#48,.T.);
#89=EDGE_CURVE('',#75,#76,#49,.T.);
#90=EDGE_CURVE('',#70,#75,#50,.T.);
#91=EDGE_CURVE('',#71,#76,#51,.T.);
#92=ORIENTED_EDGE('',*,*,#77,.F.);
#93=ORIENTED_EDGE('',*,*,#78,.T.);
#94=ORIENTED_EDGE('',*,*,#79,.F.);
#95=ORIENTED_EDGE('',*,*,#78,.F.);
#96=ORIENTED_EDGE('',*,*,#80,.T.);
#97=ORIENTED_EDGE('',*,*,#81,.T.);
#98=ORIENTED_EDGE('',*,*,#82,.F.);
#99=ORIENTED_EDGE('',*,*,#83,.F.);
#100=ORIENTED_EDGE('',*,*,#84,.T.);
#101=ORIENTED_EDGE('',*,*,#83,.T.);
#102=ORIENTED_EDGE('',*,*,#85,.F.);
#103=ORIENTED_EDGE('',*,*,#86,.F.);
#104=ORIENTED_EDGE('',*,*,#87,.T.);
#105=ORIENTED_EDGE('',*,*,#86,.T.);
#106=ORIENTED_EDGE('',*,*,#88,.F.);
#107=ORIENTED_EDGE('',*,*,#89,.F.);
#108=ORIENTED_EDGE('',*,*,#90,.T.);
#109=ORIENTED_EDGE('',*,*,#89,.T.);
#110=ORIENTED_EDGE('',*,*,#91,.F.);
#111=ORIENTED_EDGE('',*,*,#81,.F.);
#112=ORIENTED_EDGE('',*,*,#91,.T.);
#113=ORIENTED_EDGE('',*,*,#88,.T.);
#114=ORIENTED_EDGE('',*,*,#85,.T.);
#115=ORIENTED_EDGE('',*,*,#82,.T.);
#116=ORIENTED_EDGE('',*,*,#77,.T.);
#117=ORIENTED_EDGE('',*,*,#90,.F.);
#118=ORIENTED_EDGE('',*,*,#80,.F.);
#119=ORIENTED_EDGE('',*,*,#84,.F.);
#120=ORIENTED_EDGE('',*,*,#87,.F.);
#121=ORIENTED_EDGE('',*,*,#79,.T.);
#122=CYLINDRICAL_SURFACE('',#147,0.315);
#123=ADVANCED_FACE('',(#23),#122,.F.);
#124=ADVANCED_FACE('',(#24),#17,.T.);
#125=ADVANCED_FACE('',(#25),#18,.T.);
#126=ADVANCED_FACE('',(#26),#19,.T.);
#127=ADVANCED_FACE('',(#27),#20,.T.);
#128=ADVANCED_FACE('',(#28,#15),#21,.T.);
#129=ADVANCED_FACE('',(#29,#16),#22,.F.);
#130=CLOSED_SHELL('',(#123,#124,#125,#126,#127,#128,#129));
#131=DERIVED_UNIT_ELEMENT(#134,1.);
#132=DERIVED_UNIT_ELEMENT(#226,-3.);
#133=DIMENSIONAL_EXPONENTS(0.,1.,0.,0.,0.,0.,0.);
#134=(
CONVERSION_BASED_UNIT('gram',#136)
MASS_UNIT()
NAMED_UNIT(#133)
);
#135=(
MASS_UNIT()
NAMED_UNIT(*)
SI_UNIT(.KILO.,.GRAM.)
);
#136=MASS_MEASURE_WITH_UNIT(MASS_MEASURE(0.001),#135);
#137=DERIVED_UNIT((#131,#132));
#138=MEASURE_REPRESENTATION_ITEM('density measure',
POSITIVE_RATIO_MEASURE(1.),#137);
#139=PROPERTY_DEFINITION_REPRESENTATION(#144,#141);
#140=PROPERTY_DEFINITION_REPRESENTATION(#145,#142);
#141=REPRESENTATION('material name',(#143),#224);
#142=REPRESENTATION('density',(#138),#224);
#143=DESCRIPTIVE_REPRESENTATION_ITEM('Generic','Generic');
#144=PROPERTY_DEFINITION('material property','material name',#233);
#145=PROPERTY_DEFINITION('material property','density of part',#233);
#146=AXIS2_PLACEMENT_3D('',#189,#156,#157);
#147=AXIS2_PLACEMENT_3D('',#190,#158,#159);
#148=AXIS2_PLACEMENT_3D('',#192,#160,#161);
#149=AXIS2_PLACEMENT_3D('',#195,#163,#164);
#150=AXIS2_PLACEMENT_3D('',#196,#165,#166);
#151=AXIS2_PLACEMENT_3D('',#205,#171,#172);
#152=AXIS2_PLACEMENT_3D('',#211,#176,#177);
#153=AXIS2_PLACEMENT_3D('',#217,#181,#182);
#154=AXIS2_PLACEMENT_3D('',#220,#185,#186);
#155=AXIS2_PLACEMENT_3D('',#221,#187,#188);
#156=DIRECTION('axis',(0.,0.,1.));
#157=DIRECTION('refdir',(1.,0.,0.));
#158=DIRECTION('center_axis',(0.,0.,1.));
#159=DIRECTION('ref_axis',(1.,0.,0.));
#160=DIRECTION('center_axis',(0.,0.,-1.));
#161=DIRECTION('ref_axis',(1.,0.,0.));
#162=DIRECTION('',(0.,0.,-1.));
#163=DIRECTION('center_axis',(0.,0.,1.));
#164=DIRECTION('ref_axis',(1.,0.,0.));
#165=DIRECTION('center_axis',(-1.,0.,0.));
#166=DIRECTION('ref_axis',(0.,-1.,0.));
#167=DIRECTION('',(0.,-1.,0.));
#168=DIRECTION('',(0.,0.,1.));
#169=DIRECTION('',(0.,-1.,0.));
#170=DIRECTION('',(0.,0.,1.));
#171=DIRECTION('center_axis',(0.,1.,0.));
#172=DIRECTION('ref_axis',(-1.,0.,0.));
#173=DIRECTION('',(-1.,0.,0.));
#174=DIRECTION('',(-1.,0.,0.));
#175=DIRECTION('',(0.,0.,1.));
#176=DIRECTION('center_axis',(1.,-1.11022302462516E-16,0.));
#177=DIRECTION('ref_axis',(1.11022302462516E-16,1.,0.));
#178=DIRECTION('',(1.11022302462516E-16,1.,0.));
#179=DIRECTION('',(1.11022302462516E-16,1.,0.));
#180=DIRECTION('',(0.,0.,1.));
#181=DIRECTION('center_axis',(1.11022302462516E-16,-1.,0.));
#182=DIRECTION('ref_axis',(1.,1.11022302462516E-16,0.));
#183=DIRECTION('',(1.,1.11022302462516E-16,0.));
#184=DIRECTION('',(1.,1.11022302462516E-16,0.));
#185=DIRECTION('center_axis',(0.,0.,1.));
#186=DIRECTION('ref_axis',(1.,0.,0.));
#187=DIRECTION('center_axis',(0.,0.,1.));
#188=DIRECTION('ref_axis',(1.,0.,0.));
#189=CARTESIAN_POINT('',(0.,0.,0.));
#190=CARTESIAN_POINT('Origin',(0.278571428571428,-0.214285694974428,-0.259241626763176));
#191=CARTESIAN_POINT('',(-0.0364285714285715,-0.214285694974428,15.3));
#192=CARTESIAN_POINT('Origin',(0.278571428571428,-0.214285694974428,15.3));
#193=CARTESIAN_POINT('',(-0.0364285714285715,-0.214285694974428,0.));
#194=CARTESIAN_POINT('',(-0.0364285714285715,-0.214285694974428,-0.259241626763176));
#195=CARTESIAN_POINT('Origin',(0.278571428571428,-0.214285694974428,0.));
#196=CARTESIAN_POINT('Origin',(-0.721428571428571,0.785714305025572,0.));
#197=CARTESIAN_POINT('',(-0.721428571428571,0.785714305025572,0.));
#198=CARTESIAN_POINT('',(-0.721428571428571,-1.21428569497443,0.));
#199=CARTESIAN_POINT('',(-0.721428571428571,0.785714305025572,0.));
#200=CARTESIAN_POINT('',(-0.721428571428571,-1.21428569497443,15.3));
#201=CARTESIAN_POINT('',(-0.721428571428571,-1.21428569497443,0.));
#202=CARTESIAN_POINT('',(-0.721428571428571,0.785714305025572,15.3));
#203=CARTESIAN_POINT('',(-0.721428571428571,0.785714305025572,15.3));
#204=CARTESIAN_POINT('',(-0.721428571428571,0.785714305025572,0.));
#205=CARTESIAN_POINT('Origin',(1.27857142857143,0.785714305025572,0.));
#206=CARTESIAN_POINT('',(1.27857142857143,0.785714305025572,0.));
#207=CARTESIAN_POINT('',(1.27857142857143,0.785714305025572,0.));
#208=CARTESIAN_POINT('',(1.27857142857143,0.785714305025572,15.3));
#209=CARTESIAN_POINT('',(1.27857142857143,0.785714305025572,15.3));
#210=CARTESIAN_POINT('',(1.27857142857143,0.785714305025572,0.));
#211=CARTESIAN_POINT('Origin',(1.27857142857143,-1.21428569497443,0.));
#212=CARTESIAN_POINT('',(1.27857142857143,-1.21428569497443,0.));
#213=CARTESIAN_POINT('',(1.27857142857143,-1.21428569497443,0.));
#214=CARTESIAN_POINT('',(1.27857142857143,-1.21428569497443,15.3));
#215=CARTESIAN_POINT('',(1.27857142857143,-1.21428569497443,15.3));
#216=CARTESIAN_POINT('',(1.27857142857143,-1.21428569497443,0.));
#217=CARTESIAN_POINT('Origin',(-0.721428571428571,-1.21428569497443,0.));
#218=CARTESIAN_POINT('',(-0.721428571428572,-1.21428569497443,0.));
#219=CARTESIAN_POINT('',(-0.721428571428572,-1.21428569497443,15.3));
#220=CARTESIAN_POINT('Origin',(0.278571428571429,-0.214285694974428,15.3));
#221=CARTESIAN_POINT('Origin',(0.278571428571429,-0.214285694974428,0.));
#222=UNCERTAINTY_MEASURE_WITH_UNIT(LENGTH_MEASURE(0.001),#226,
'DISTANCE_ACCURACY_VALUE',
'Maximum model space distance between geometric entities at asserted c
onnectivities');
#223=UNCERTAINTY_MEASURE_WITH_UNIT(LENGTH_MEASURE(0.001),#226,
'DISTANCE_ACCURACY_VALUE',
'Maximum model space distance between geometric entities at asserted c
onnectivities');
#224=(
GEOMETRIC_REPRESENTATION_CONTEXT(3)
GLOBAL_UNCERTAINTY_ASSIGNED_CONTEXT((#222))
GLOBAL_UNIT_ASSIGNED_CONTEXT((#226,#227,#228))
REPRESENTATION_CONTEXT('','3D')
);
#225=(
GEOMETRIC_REPRESENTATION_CONTEXT(3)
GLOBAL_UNCERTAINTY_ASSIGNED_CONTEXT((#223))
GLOBAL_UNIT_ASSIGNED_CONTEXT((#226,#227,#228))
REPRESENTATION_CONTEXT('','3D')
);
#226=(
LENGTH_UNIT()
NAMED_UNIT(*)
SI_UNIT(.CENTI.,.METRE.)
);
#227=(
NAMED_UNIT(*)
PLANE_ANGLE_UNIT()
SI_UNIT($,.RADIAN.)
);
#228=(
NAMED_UNIT(*)
SI_UNIT($,.STERADIAN.)
SOLID_ANGLE_UNIT()
);
#229=SHAPE_DEFINITION_REPRESENTATION(#230,#231);
#230=PRODUCT_DEFINITION_SHAPE('',$,#233);
#231=SHAPE_REPRESENTATION('',(#146),#224);
#232=PRODUCT_DEFINITION_CONTEXT('part definition',#237,'design');
#233=PRODUCT_DEFINITION('Frame_member','Frame_member',#234,#232);
#234=PRODUCT_DEFINITION_FORMATION('',$,#239);
#235=PRODUCT_RELATED_PRODUCT_CATEGORY('Frame_member','Frame_member',(#239));
#236=APPLICATION_PROTOCOL_DEFINITION('international standard',
'automotive_design',2009,#237);
#237=APPLICATION_CONTEXT(
'Core Data for Automotive Mechanical Design Process');
#238=PRODUCT_CONTEXT('part definition',#237,'mechanical');
#239=PRODUCT('Frame_member','Frame_member',$,(#238));
#240=PRESENTATION_STYLE_ASSIGNMENT((#241));
#241=SURFACE_STYLE_USAGE(.BOTH.,#244);
#242=SURFACE_STYLE_RENDERING_WITH_PROPERTIES($,#248,(#243));
#243=SURFACE_STYLE_TRANSPARENT(0.);
#244=SURFACE_SIDE_STYLE('',(#245,#242));
#245=SURFACE_STYLE_FILL_AREA(#246);
#246=FILL_AREA_STYLE('',(#247));
#247=FILL_AREA_STYLE_COLOUR('',#248);
#248=COLOUR_RGB('',0.749019607843137,0.749019607843137,0.749019607843137);
ENDSEC;
END-ISO-10303-21;
