ISO-10303-21;
HEADER;
/* Generated by software containing ST-Developer
 * from STEP Tools, Inc. (www.steptools.com) 
 */

FILE_DESCRIPTION(
/* description */ (''),
/* implementation_level */ '2;1');

FILE_NAME(
/* name */ 'sensor_cover_ultrasonic_3.stp',
/* time_stamp */ '2026-04-09T00:26:26+05:30',
/* author */ ('Kartik'),
/* organization */ (''),
/* preprocessor_version */ 'ST-DEVELOPER v20.1',
/* originating_system */ 'Autodesk Inventor 2026',
/* authorisation */ '');

FILE_SCHEMA (('AUTOMOTIVE_DESIGN { 1 0 10303 214 3 1 1 }'));
ENDSEC;

DATA;
#10=MECHANICAL_DESIGN_GEOMETRIC_PRESENTATION_REPRESENTATION('',(#13),#746);
#11=SHAPE_REPRESENTATION_RELATIONSHIP('SRR','None',#752,#12);
#12=ADVANCED_BREP_SHAPE_REPRESENTATION('',(#14),#745);
#13=STYLED_ITEM('',(#761),#14);
#14=MANIFOLD_SOLID_BREP('Solid1',#443);
#15=FACE_BOUND('',#66,.T.);
#16=FACE_BOUND('',#69,.T.);
#17=FACE_BOUND('',#78,.T.);
#18=FACE_BOUND('',#81,.T.);
#19=FACE_BOUND('',#84,.T.);
#20=FACE_BOUND('',#85,.T.);
#21=FACE_BOUND('',#87,.T.);
#22=FACE_BOUND('',#88,.T.);
#23=PLANE('',#475);
#24=PLANE('',#476);
#25=PLANE('',#481);
#26=PLANE('',#483);
#27=PLANE('',#486);
#28=PLANE('',#489);
#29=PLANE('',#490);
#30=PLANE('',#491);
#31=PLANE('',#492);
#32=PLANE('',#493);
#33=PLANE('',#494);
#34=PLANE('',#495);
#35=PLANE('',#496);
#36=PLANE('',#497);
#37=FACE_OUTER_BOUND('',#59,.T.);
#38=FACE_OUTER_BOUND('',#60,.T.);
#39=FACE_OUTER_BOUND('',#61,.T.);
#40=FACE_OUTER_BOUND('',#62,.T.);
#41=FACE_OUTER_BOUND('',#63,.T.);
#42=FACE_OUTER_BOUND('',#64,.T.);
#43=FACE_OUTER_BOUND('',#65,.T.);
#44=FACE_OUTER_BOUND('',#67,.T.);
#45=FACE_OUTER_BOUND('',#68,.T.);
#46=FACE_OUTER_BOUND('',#70,.T.);
#47=FACE_OUTER_BOUND('',#71,.T.);
#48=FACE_OUTER_BOUND('',#72,.T.);
#49=FACE_OUTER_BOUND('',#73,.T.);
#50=FACE_OUTER_BOUND('',#74,.T.);
#51=FACE_OUTER_BOUND('',#75,.T.);
#52=FACE_OUTER_BOUND('',#76,.T.);
#53=FACE_OUTER_BOUND('',#77,.T.);
#54=FACE_OUTER_BOUND('',#79,.T.);
#55=FACE_OUTER_BOUND('',#80,.T.);
#56=FACE_OUTER_BOUND('',#82,.T.);
#57=FACE_OUTER_BOUND('',#83,.T.);
#58=FACE_OUTER_BOUND('',#86,.T.);
#59=EDGE_LOOP('',(#293,#294,#295,#296));
#60=EDGE_LOOP('',(#297,#298,#299,#300));
#61=EDGE_LOOP('',(#301,#302,#303,#304));
#62=EDGE_LOOP('',(#305,#306,#307,#308));
#63=EDGE_LOOP('',(#309,#310,#311,#312));
#64=EDGE_LOOP('',(#313,#314,#315,#316));
#65=EDGE_LOOP('',(#317,#318,#319,#320,#321,#322));
#66=EDGE_LOOP('',(#323));
#67=EDGE_LOOP('',(#324,#325,#326,#327));
#68=EDGE_LOOP('',(#328,#329,#330,#331,#332,#333));
#69=EDGE_LOOP('',(#334));
#70=EDGE_LOOP('',(#335,#336,#337,#338));
#71=EDGE_LOOP('',(#339,#340,#341,#342));
#72=EDGE_LOOP('',(#343,#344,#345,#346));
#73=EDGE_LOOP('',(#347,#348,#349,#350));
#74=EDGE_LOOP('',(#351,#352,#353,#354));
#75=EDGE_LOOP('',(#355,#356,#357,#358));
#76=EDGE_LOOP('',(#359,#360,#361,#362));
#77=EDGE_LOOP('',(#363,#364,#365,#366,#367,#368,#369,#370,#371,#372));
#78=EDGE_LOOP('',(#373));
#79=EDGE_LOOP('',(#374,#375,#376,#377));
#80=EDGE_LOOP('',(#378,#379,#380,#381,#382,#383,#384,#385,#386,#387));
#81=EDGE_LOOP('',(#388));
#82=EDGE_LOOP('',(#389,#390,#391,#392));
#83=EDGE_LOOP('',(#393,#394,#395,#396,#397,#398,#399,#400,#401,#402,#403,
#404));
#84=EDGE_LOOP('',(#405));
#85=EDGE_LOOP('',(#406));
#86=EDGE_LOOP('',(#407,#408,#409,#410));
#87=EDGE_LOOP('',(#411));
#88=EDGE_LOOP('',(#412));
#89=LINE('',#625,#133);
#90=LINE('',#631,#134);
#91=LINE('',#637,#135);
#92=LINE('',#643,#136);
#93=LINE('',#650,#137);
#94=LINE('',#653,#138);
#95=LINE('',#656,#139);
#96=LINE('',#658,#140);
#97=LINE('',#659,#141);
#98=LINE('',#662,#142);
#99=LINE('',#664,#143);
#100=LINE('',#666,#144);
#101=LINE('',#673,#145);
#102=LINE('',#676,#146);
#103=LINE('',#679,#147);
#104=LINE('',#683,#148);
#105=LINE('',#685,#149);
#106=LINE('',#686,#150);
#107=LINE('',#689,#151);
#108=LINE('',#690,#152);
#109=LINE('',#694,#153);
#110=LINE('',#697,#154);
#111=LINE('',#698,#155);
#112=LINE('',#702,#156);
#113=LINE('',#705,#157);
#114=LINE('',#706,#158);
#115=LINE('',#709,#159);
#116=LINE('',#710,#160);
#117=LINE('',#713,#161);
#118=LINE('',#714,#162);
#119=LINE('',#717,#163);
#120=LINE('',#719,#164);
#121=LINE('',#721,#165);
#122=LINE('',#723,#166);
#123=LINE('',#724,#167);
#124=LINE('',#727,#168);
#125=LINE('',#729,#169);
#126=LINE('',#730,#170);
#127=LINE('',#733,#171);
#128=LINE('',#735,#172);
#129=LINE('',#736,#173);
#130=LINE('',#737,#174);
#131=LINE('',#739,#175);
#132=LINE('',#740,#176);
#133=VECTOR('',#504,0.3);
#134=VECTOR('',#511,0.3);
#135=VECTOR('',#518,0.3);
#136=VECTOR('',#525,0.3);
#137=VECTOR('',#532,1.);
#138=VECTOR('',#535,1.);
#139=VECTOR('',#538,1.);
#140=VECTOR('',#539,1.);
#141=VECTOR('',#540,1.);
#142=VECTOR('',#543,1.);
#143=VECTOR('',#544,1.);
#144=VECTOR('',#545,1.);
#145=VECTOR('',#552,1.);
#146=VECTOR('',#555,1.);
#147=VECTOR('',#558,1.);
#148=VECTOR('',#561,1.);
#149=VECTOR('',#562,1.);
#150=VECTOR('',#563,1.);
#151=VECTOR('',#566,1.);
#152=VECTOR('',#567,1.);
#153=VECTOR('',#572,1.);
#154=VECTOR('',#575,1.);
#155=VECTOR('',#576,1.);
#156=VECTOR('',#581,1.);
#157=VECTOR('',#584,1.);
#158=VECTOR('',#585,1.);
#159=VECTOR('',#588,1.);
#160=VECTOR('',#589,1.);
#161=VECTOR('',#592,1.);
#162=VECTOR('',#593,1.);
#163=VECTOR('',#596,1.);
#164=VECTOR('',#597,1.);
#165=VECTOR('',#598,1.);
#166=VECTOR('',#599,1.);
#167=VECTOR('',#600,1.);
#168=VECTOR('',#603,1.);
#169=VECTOR('',#604,1.);
#170=VECTOR('',#605,1.);
#171=VECTOR('',#608,1.);
#172=VECTOR('',#609,1.);
#173=VECTOR('',#610,1.);
#174=VECTOR('',#611,1.);
#175=VECTOR('',#614,1.);
#176=VECTOR('',#615,1.);
#177=CIRCLE('',#461,0.3);
#178=CIRCLE('',#462,0.3);
#179=CIRCLE('',#464,0.3);
#180=CIRCLE('',#465,0.3);
#181=CIRCLE('',#467,0.3);
#182=CIRCLE('',#468,0.3);
#183=CIRCLE('',#470,0.3);
#184=CIRCLE('',#471,0.3);
#185=CIRCLE('',#473,0.5);
#186=CIRCLE('',#474,0.5);
#187=CIRCLE('',#477,0.5);
#188=CIRCLE('',#479,0.5);
#189=CIRCLE('',#480,0.5);
#190=CIRCLE('',#482,0.5);
#191=CIRCLE('',#485,0.5);
#192=CIRCLE('',#488,0.5);
#193=VERTEX_POINT('',#622);
#194=VERTEX_POINT('',#624);
#195=VERTEX_POINT('',#628);
#196=VERTEX_POINT('',#630);
#197=VERTEX_POINT('',#634);
#198=VERTEX_POINT('',#636);
#199=VERTEX_POINT('',#640);
#200=VERTEX_POINT('',#642);
#201=VERTEX_POINT('',#646);
#202=VERTEX_POINT('',#647);
#203=VERTEX_POINT('',#649);
#204=VERTEX_POINT('',#651);
#205=VERTEX_POINT('',#655);
#206=VERTEX_POINT('',#657);
#207=VERTEX_POINT('',#661);
#208=VERTEX_POINT('',#663);
#209=VERTEX_POINT('',#665);
#210=VERTEX_POINT('',#669);
#211=VERTEX_POINT('',#670);
#212=VERTEX_POINT('',#672);
#213=VERTEX_POINT('',#674);
#214=VERTEX_POINT('',#678);
#215=VERTEX_POINT('',#680);
#216=VERTEX_POINT('',#682);
#217=VERTEX_POINT('',#684);
#218=VERTEX_POINT('',#688);
#219=VERTEX_POINT('',#692);
#220=VERTEX_POINT('',#696);
#221=VERTEX_POINT('',#700);
#222=VERTEX_POINT('',#704);
#223=VERTEX_POINT('',#708);
#224=VERTEX_POINT('',#712);
#225=VERTEX_POINT('',#716);
#226=VERTEX_POINT('',#718);
#227=VERTEX_POINT('',#720);
#228=VERTEX_POINT('',#722);
#229=VERTEX_POINT('',#726);
#230=VERTEX_POINT('',#728);
#231=VERTEX_POINT('',#732);
#232=VERTEX_POINT('',#734);
#233=EDGE_CURVE('',#193,#193,#177,.T.);
#234=EDGE_CURVE('',#193,#194,#89,.T.);
#235=EDGE_CURVE('',#194,#194,#178,.T.);
#236=EDGE_CURVE('',#195,#195,#179,.T.);
#237=EDGE_CURVE('',#195,#196,#90,.T.);
#238=EDGE_CURVE('',#196,#196,#180,.T.);
#239=EDGE_CURVE('',#197,#197,#181,.T.);
#240=EDGE_CURVE('',#197,#198,#91,.T.);
#241=EDGE_CURVE('',#198,#198,#182,.T.);
#242=EDGE_CURVE('',#199,#199,#183,.T.);
#243=EDGE_CURVE('',#199,#200,#92,.T.);
#244=EDGE_CURVE('',#200,#200,#184,.T.);
#245=EDGE_CURVE('',#201,#202,#185,.T.);
#246=EDGE_CURVE('',#202,#203,#93,.T.);
#247=EDGE_CURVE('',#203,#204,#186,.T.);
#248=EDGE_CURVE('',#204,#201,#94,.T.);
#249=EDGE_CURVE('',#202,#205,#95,.T.);
#250=EDGE_CURVE('',#206,#205,#96,.T.);
#251=EDGE_CURVE('',#206,#203,#97,.T.);
#252=EDGE_CURVE('',#207,#201,#98,.T.);
#253=EDGE_CURVE('',#208,#207,#99,.T.);
#254=EDGE_CURVE('',#208,#209,#100,.T.);
#255=EDGE_CURVE('',#205,#209,#187,.T.);
#256=EDGE_CURVE('',#210,#211,#188,.T.);
#257=EDGE_CURVE('',#211,#212,#101,.T.);
#258=EDGE_CURVE('',#212,#213,#189,.T.);
#259=EDGE_CURVE('',#213,#210,#102,.T.);
#260=EDGE_CURVE('',#214,#212,#103,.T.);
#261=EDGE_CURVE('',#215,#214,#190,.T.);
#262=EDGE_CURVE('',#216,#215,#104,.T.);
#263=EDGE_CURVE('',#217,#216,#105,.T.);
#264=EDGE_CURVE('',#217,#213,#106,.T.);
#265=EDGE_CURVE('',#211,#218,#107,.T.);
#266=EDGE_CURVE('',#214,#218,#108,.T.);
#267=EDGE_CURVE('',#219,#206,#191,.T.);
#268=EDGE_CURVE('',#209,#219,#109,.T.);
#269=EDGE_CURVE('',#220,#208,#110,.T.);
#270=EDGE_CURVE('',#220,#219,#111,.T.);
#271=EDGE_CURVE('',#218,#221,#192,.T.);
#272=EDGE_CURVE('',#221,#215,#112,.T.);
#273=EDGE_CURVE('',#222,#204,#113,.T.);
#274=EDGE_CURVE('',#207,#222,#114,.T.);
#275=EDGE_CURVE('',#223,#221,#115,.T.);
#276=EDGE_CURVE('',#216,#223,#116,.T.);
#277=EDGE_CURVE('',#224,#217,#117,.T.);
#278=EDGE_CURVE('',#224,#210,#118,.T.);
#279=EDGE_CURVE('',#225,#224,#119,.T.);
#280=EDGE_CURVE('',#226,#225,#120,.T.);
#281=EDGE_CURVE('',#226,#227,#121,.T.);
#282=EDGE_CURVE('',#227,#228,#122,.T.);
#283=EDGE_CURVE('',#223,#228,#123,.T.);
#284=EDGE_CURVE('',#229,#226,#124,.T.);
#285=EDGE_CURVE('',#230,#225,#125,.T.);
#286=EDGE_CURVE('',#229,#230,#126,.T.);
#287=EDGE_CURVE('',#231,#220,#127,.T.);
#288=EDGE_CURVE('',#232,#231,#128,.T.);
#289=EDGE_CURVE('',#232,#229,#129,.T.);
#290=EDGE_CURVE('',#222,#230,#130,.T.);
#291=EDGE_CURVE('',#227,#232,#131,.T.);
#292=EDGE_CURVE('',#228,#231,#132,.T.);
#293=ORIENTED_EDGE('',*,*,#233,.F.);
#294=ORIENTED_EDGE('',*,*,#234,.T.);
#295=ORIENTED_EDGE('',*,*,#235,.F.);
#296=ORIENTED_EDGE('',*,*,#234,.F.);
#297=ORIENTED_EDGE('',*,*,#236,.F.);
#298=ORIENTED_EDGE('',*,*,#237,.T.);
#299=ORIENTED_EDGE('',*,*,#238,.F.);
#300=ORIENTED_EDGE('',*,*,#237,.F.);
#301=ORIENTED_EDGE('',*,*,#239,.F.);
#302=ORIENTED_EDGE('',*,*,#240,.T.);
#303=ORIENTED_EDGE('',*,*,#241,.F.);
#304=ORIENTED_EDGE('',*,*,#240,.F.);
#305=ORIENTED_EDGE('',*,*,#242,.F.);
#306=ORIENTED_EDGE('',*,*,#243,.T.);
#307=ORIENTED_EDGE('',*,*,#244,.F.);
#308=ORIENTED_EDGE('',*,*,#243,.F.);
#309=ORIENTED_EDGE('',*,*,#245,.T.);
#310=ORIENTED_EDGE('',*,*,#246,.T.);
#311=ORIENTED_EDGE('',*,*,#247,.T.);
#312=ORIENTED_EDGE('',*,*,#248,.T.);
#313=ORIENTED_EDGE('',*,*,#246,.F.);
#314=ORIENTED_EDGE('',*,*,#249,.T.);
#315=ORIENTED_EDGE('',*,*,#250,.F.);
#316=ORIENTED_EDGE('',*,*,#251,.T.);
#317=ORIENTED_EDGE('',*,*,#245,.F.);
#318=ORIENTED_EDGE('',*,*,#252,.F.);
#319=ORIENTED_EDGE('',*,*,#253,.F.);
#320=ORIENTED_EDGE('',*,*,#254,.T.);
#321=ORIENTED_EDGE('',*,*,#255,.F.);
#322=ORIENTED_EDGE('',*,*,#249,.F.);
#323=ORIENTED_EDGE('',*,*,#242,.T.);
#324=ORIENTED_EDGE('',*,*,#256,.T.);
#325=ORIENTED_EDGE('',*,*,#257,.T.);
#326=ORIENTED_EDGE('',*,*,#258,.T.);
#327=ORIENTED_EDGE('',*,*,#259,.T.);
#328=ORIENTED_EDGE('',*,*,#258,.F.);
#329=ORIENTED_EDGE('',*,*,#260,.F.);
#330=ORIENTED_EDGE('',*,*,#261,.F.);
#331=ORIENTED_EDGE('',*,*,#262,.F.);
#332=ORIENTED_EDGE('',*,*,#263,.F.);
#333=ORIENTED_EDGE('',*,*,#264,.T.);
#334=ORIENTED_EDGE('',*,*,#241,.T.);
#335=ORIENTED_EDGE('',*,*,#257,.F.);
#336=ORIENTED_EDGE('',*,*,#265,.T.);
#337=ORIENTED_EDGE('',*,*,#266,.F.);
#338=ORIENTED_EDGE('',*,*,#260,.T.);
#339=ORIENTED_EDGE('',*,*,#267,.T.);
#340=ORIENTED_EDGE('',*,*,#250,.T.);
#341=ORIENTED_EDGE('',*,*,#255,.T.);
#342=ORIENTED_EDGE('',*,*,#268,.T.);
#343=ORIENTED_EDGE('',*,*,#268,.F.);
#344=ORIENTED_EDGE('',*,*,#254,.F.);
#345=ORIENTED_EDGE('',*,*,#269,.F.);
#346=ORIENTED_EDGE('',*,*,#270,.T.);
#347=ORIENTED_EDGE('',*,*,#261,.T.);
#348=ORIENTED_EDGE('',*,*,#266,.T.);
#349=ORIENTED_EDGE('',*,*,#271,.T.);
#350=ORIENTED_EDGE('',*,*,#272,.T.);
#351=ORIENTED_EDGE('',*,*,#248,.F.);
#352=ORIENTED_EDGE('',*,*,#273,.F.);
#353=ORIENTED_EDGE('',*,*,#274,.F.);
#354=ORIENTED_EDGE('',*,*,#252,.T.);
#355=ORIENTED_EDGE('',*,*,#272,.F.);
#356=ORIENTED_EDGE('',*,*,#275,.F.);
#357=ORIENTED_EDGE('',*,*,#276,.F.);
#358=ORIENTED_EDGE('',*,*,#262,.T.);
#359=ORIENTED_EDGE('',*,*,#259,.F.);
#360=ORIENTED_EDGE('',*,*,#264,.F.);
#361=ORIENTED_EDGE('',*,*,#277,.F.);
#362=ORIENTED_EDGE('',*,*,#278,.T.);
#363=ORIENTED_EDGE('',*,*,#256,.F.);
#364=ORIENTED_EDGE('',*,*,#278,.F.);
#365=ORIENTED_EDGE('',*,*,#279,.F.);
#366=ORIENTED_EDGE('',*,*,#280,.F.);
#367=ORIENTED_EDGE('',*,*,#281,.T.);
#368=ORIENTED_EDGE('',*,*,#282,.T.);
#369=ORIENTED_EDGE('',*,*,#283,.F.);
#370=ORIENTED_EDGE('',*,*,#275,.T.);
#371=ORIENTED_EDGE('',*,*,#271,.F.);
#372=ORIENTED_EDGE('',*,*,#265,.F.);
#373=ORIENTED_EDGE('',*,*,#239,.T.);
#374=ORIENTED_EDGE('',*,*,#284,.T.);
#375=ORIENTED_EDGE('',*,*,#280,.T.);
#376=ORIENTED_EDGE('',*,*,#285,.F.);
#377=ORIENTED_EDGE('',*,*,#286,.F.);
#378=ORIENTED_EDGE('',*,*,#247,.F.);
#379=ORIENTED_EDGE('',*,*,#251,.F.);
#380=ORIENTED_EDGE('',*,*,#267,.F.);
#381=ORIENTED_EDGE('',*,*,#270,.F.);
#382=ORIENTED_EDGE('',*,*,#287,.F.);
#383=ORIENTED_EDGE('',*,*,#288,.F.);
#384=ORIENTED_EDGE('',*,*,#289,.T.);
#385=ORIENTED_EDGE('',*,*,#286,.T.);
#386=ORIENTED_EDGE('',*,*,#290,.F.);
#387=ORIENTED_EDGE('',*,*,#273,.T.);
#388=ORIENTED_EDGE('',*,*,#244,.T.);
#389=ORIENTED_EDGE('',*,*,#291,.T.);
#390=ORIENTED_EDGE('',*,*,#288,.T.);
#391=ORIENTED_EDGE('',*,*,#292,.F.);
#392=ORIENTED_EDGE('',*,*,#282,.F.);
#393=ORIENTED_EDGE('',*,*,#274,.T.);
#394=ORIENTED_EDGE('',*,*,#290,.T.);
#395=ORIENTED_EDGE('',*,*,#285,.T.);
#396=ORIENTED_EDGE('',*,*,#279,.T.);
#397=ORIENTED_EDGE('',*,*,#277,.T.);
#398=ORIENTED_EDGE('',*,*,#263,.T.);
#399=ORIENTED_EDGE('',*,*,#276,.T.);
#400=ORIENTED_EDGE('',*,*,#283,.T.);
#401=ORIENTED_EDGE('',*,*,#292,.T.);
#402=ORIENTED_EDGE('',*,*,#287,.T.);
#403=ORIENTED_EDGE('',*,*,#269,.T.);
#404=ORIENTED_EDGE('',*,*,#253,.T.);
#405=ORIENTED_EDGE('',*,*,#233,.T.);
#406=ORIENTED_EDGE('',*,*,#236,.T.);
#407=ORIENTED_EDGE('',*,*,#291,.F.);
#408=ORIENTED_EDGE('',*,*,#281,.F.);
#409=ORIENTED_EDGE('',*,*,#284,.F.);
#410=ORIENTED_EDGE('',*,*,#289,.F.);
#411=ORIENTED_EDGE('',*,*,#235,.T.);
#412=ORIENTED_EDGE('',*,*,#238,.T.);
#413=CYLINDRICAL_SURFACE('',#460,0.3);
#414=CYLINDRICAL_SURFACE('',#463,0.3);
#415=CYLINDRICAL_SURFACE('',#466,0.3);
#416=CYLINDRICAL_SURFACE('',#469,0.3);
#417=CYLINDRICAL_SURFACE('',#472,0.5);
#418=CYLINDRICAL_SURFACE('',#478,0.5);
#419=CYLINDRICAL_SURFACE('',#484,0.5);
#420=CYLINDRICAL_SURFACE('',#487,0.5);
#421=ADVANCED_FACE('',(#37),#413,.F.);
#422=ADVANCED_FACE('',(#38),#414,.F.);
#423=ADVANCED_FACE('',(#39),#415,.F.);
#424=ADVANCED_FACE('',(#40),#416,.F.);
#425=ADVANCED_FACE('',(#41),#417,.T.);
#426=ADVANCED_FACE('',(#42),#23,.T.);
#427=ADVANCED_FACE('',(#43,#15),#24,.T.);
#428=ADVANCED_FACE('',(#44),#418,.T.);
#429=ADVANCED_FACE('',(#45,#16),#25,.T.);
#430=ADVANCED_FACE('',(#46),#26,.T.);
#431=ADVANCED_FACE('',(#47),#419,.T.);
#432=ADVANCED_FACE('',(#48),#27,.T.);
#433=ADVANCED_FACE('',(#49),#420,.T.);
#434=ADVANCED_FACE('',(#50),#28,.T.);
#435=ADVANCED_FACE('',(#51),#29,.T.);
#436=ADVANCED_FACE('',(#52),#30,.T.);
#437=ADVANCED_FACE('',(#53,#17),#31,.T.);
#438=ADVANCED_FACE('',(#54),#32,.T.);
#439=ADVANCED_FACE('',(#55,#18),#33,.T.);
#440=ADVANCED_FACE('',(#56),#34,.T.);
#441=ADVANCED_FACE('',(#57,#19,#20),#35,.T.);
#442=ADVANCED_FACE('',(#58,#21,#22),#36,.F.);
#443=CLOSED_SHELL('',(#421,#422,#423,#424,#425,#426,#427,#428,#429,#430,
#431,#432,#433,#434,#435,#436,#437,#438,#439,#440,#441,#442));
#444=DERIVED_UNIT_ELEMENT(#447,1.);
#445=DERIVED_UNIT_ELEMENT(#747,-3.);
#446=DIMENSIONAL_EXPONENTS(0.,1.,0.,0.,0.,0.,0.);
#447=(
CONVERSION_BASED_UNIT('gram',#449)
MASS_UNIT()
NAMED_UNIT(#446)
);
#448=(
MASS_UNIT()
NAMED_UNIT(*)
SI_UNIT(.KILO.,.GRAM.)
);
#449=MASS_MEASURE_WITH_UNIT(MASS_MEASURE(0.001),#448);
#450=DERIVED_UNIT((#444,#445));
#451=MEASURE_REPRESENTATION_ITEM('density measure',
POSITIVE_RATIO_MEASURE(1.),#450);
#452=PROPERTY_DEFINITION_REPRESENTATION(#457,#454);
#453=PROPERTY_DEFINITION_REPRESENTATION(#458,#455);
#454=REPRESENTATION('material name',(#456),#745);
#455=REPRESENTATION('density',(#451),#745);
#456=DESCRIPTIVE_REPRESENTATION_ITEM('Generic','Generic');
#457=PROPERTY_DEFINITION('material property','material name',#754);
#458=PROPERTY_DEFINITION('material property','density of part',#754);
#459=AXIS2_PLACEMENT_3D('',#620,#498,#499);
#460=AXIS2_PLACEMENT_3D('',#621,#500,#501);
#461=AXIS2_PLACEMENT_3D('',#623,#502,#503);
#462=AXIS2_PLACEMENT_3D('',#626,#505,#506);
#463=AXIS2_PLACEMENT_3D('',#627,#507,#508);
#464=AXIS2_PLACEMENT_3D('',#629,#509,#510);
#465=AXIS2_PLACEMENT_3D('',#632,#512,#513);
#466=AXIS2_PLACEMENT_3D('',#633,#514,#515);
#467=AXIS2_PLACEMENT_3D('',#635,#516,#517);
#468=AXIS2_PLACEMENT_3D('',#638,#519,#520);
#469=AXIS2_PLACEMENT_3D('',#639,#521,#522);
#470=AXIS2_PLACEMENT_3D('',#641,#523,#524);
#471=AXIS2_PLACEMENT_3D('',#644,#526,#527);
#472=AXIS2_PLACEMENT_3D('',#645,#528,#529);
#473=AXIS2_PLACEMENT_3D('',#648,#530,#531);
#474=AXIS2_PLACEMENT_3D('',#652,#533,#534);
#475=AXIS2_PLACEMENT_3D('',#654,#536,#537);
#476=AXIS2_PLACEMENT_3D('',#660,#541,#542);
#477=AXIS2_PLACEMENT_3D('',#667,#546,#547);
#478=AXIS2_PLACEMENT_3D('',#668,#548,#549);
#479=AXIS2_PLACEMENT_3D('',#671,#550,#551);
#480=AXIS2_PLACEMENT_3D('',#675,#553,#554);
#481=AXIS2_PLACEMENT_3D('',#677,#556,#557);
#482=AXIS2_PLACEMENT_3D('',#681,#559,#560);
#483=AXIS2_PLACEMENT_3D('',#687,#564,#565);
#484=AXIS2_PLACEMENT_3D('',#691,#568,#569);
#485=AXIS2_PLACEMENT_3D('',#693,#570,#571);
#486=AXIS2_PLACEMENT_3D('',#695,#573,#574);
#487=AXIS2_PLACEMENT_3D('',#699,#577,#578);
#488=AXIS2_PLACEMENT_3D('',#701,#579,#580);
#489=AXIS2_PLACEMENT_3D('',#703,#582,#583);
#490=AXIS2_PLACEMENT_3D('',#707,#586,#587);
#491=AXIS2_PLACEMENT_3D('',#711,#590,#591);
#492=AXIS2_PLACEMENT_3D('',#715,#594,#595);
#493=AXIS2_PLACEMENT_3D('',#725,#601,#602);
#494=AXIS2_PLACEMENT_3D('',#731,#606,#607);
#495=AXIS2_PLACEMENT_3D('',#738,#612,#613);
#496=AXIS2_PLACEMENT_3D('',#741,#616,#617);
#497=AXIS2_PLACEMENT_3D('',#742,#618,#619);
#498=DIRECTION('axis',(0.,0.,1.));
#499=DIRECTION('refdir',(1.,0.,0.));
#500=DIRECTION('center_axis',(0.,-1.,0.));
#501=DIRECTION('ref_axis',(1.,0.,0.));
#502=DIRECTION('center_axis',(0.,-1.,0.));
#503=DIRECTION('ref_axis',(1.,0.,0.));
#504=DIRECTION('',(0.,-1.,0.));
#505=DIRECTION('center_axis',(0.,1.,0.));
#506=DIRECTION('ref_axis',(1.,0.,0.));
#507=DIRECTION('center_axis',(0.,-1.,0.));
#508=DIRECTION('ref_axis',(1.,0.,0.));
#509=DIRECTION('center_axis',(0.,-1.,0.));
#510=DIRECTION('ref_axis',(1.,0.,0.));
#511=DIRECTION('',(0.,-1.,0.));
#512=DIRECTION('center_axis',(0.,1.,0.));
#513=DIRECTION('ref_axis',(1.,0.,0.));
#514=DIRECTION('center_axis',(-2.22044604925031E-16,0.,-1.));
#515=DIRECTION('ref_axis',(1.,0.,-2.22044604925031E-16));
#516=DIRECTION('center_axis',(-2.22044604925031E-16,0.,-1.));
#517=DIRECTION('ref_axis',(1.,0.,-2.22044604925031E-16));
#518=DIRECTION('',(-2.22044604925031E-16,0.,-1.));
#519=DIRECTION('center_axis',(2.96059473233375E-16,0.,1.));
#520=DIRECTION('ref_axis',(1.,0.,-2.22044604925031E-16));
#521=DIRECTION('center_axis',(-2.22044604925031E-16,0.,-1.));
#522=DIRECTION('ref_axis',(1.,0.,-2.22044604925031E-16));
#523=DIRECTION('center_axis',(0.,0.,-1.));
#524=DIRECTION('ref_axis',(1.,0.,-2.22044604925031E-16));
#525=DIRECTION('',(-2.22044604925031E-16,0.,-1.));
#526=DIRECTION('center_axis',(2.22044604925031E-16,0.,1.));
#527=DIRECTION('ref_axis',(1.,0.,-2.22044604925031E-16));
#528=DIRECTION('center_axis',(0.,0.,1.));
#529=DIRECTION('ref_axis',(-0.707106781186548,0.707106781186548,0.));
#530=DIRECTION('center_axis',(0.,0.,-1.));
#531=DIRECTION('ref_axis',(-0.707106781186548,0.707106781186548,0.));
#532=DIRECTION('',(0.,0.,-1.));
#533=DIRECTION('center_axis',(2.22044604925031E-16,0.,1.));
#534=DIRECTION('ref_axis',(-0.707106781186548,0.707106781186548,0.));
#535=DIRECTION('',(0.,0.,1.));
#536=DIRECTION('center_axis',(0.,1.,0.));
#537=DIRECTION('ref_axis',(0.,0.,1.));
#538=DIRECTION('',(1.,0.,0.));
#539=DIRECTION('',(0.,0.,1.));
#540=DIRECTION('',(-1.,0.,0.));
#541=DIRECTION('center_axis',(0.,0.,1.));
#542=DIRECTION('ref_axis',(1.,0.,0.));
#543=DIRECTION('',(0.,1.,0.));
#544=DIRECTION('',(-1.,0.,0.));
#545=DIRECTION('',(0.,1.,0.));
#546=DIRECTION('center_axis',(0.,0.,-1.));
#547=DIRECTION('ref_axis',(0.707106781186548,0.707106781186548,0.));
#548=DIRECTION('center_axis',(4.44089209850063E-16,0.,1.));
#549=DIRECTION('ref_axis',(-0.707106781186547,0.707106781186548,0.));
#550=DIRECTION('center_axis',(-2.22044604925031E-16,0.,-1.));
#551=DIRECTION('ref_axis',(-0.707106781186547,0.707106781186548,0.));
#552=DIRECTION('',(-4.44089209850063E-16,0.,-1.));
#553=DIRECTION('center_axis',(2.96059473233375E-16,0.,1.));
#554=DIRECTION('ref_axis',(-0.707106781186547,0.707106781186548,0.));
#555=DIRECTION('',(4.44089209850063E-16,0.,1.));
#556=DIRECTION('center_axis',(-2.96059473233375E-16,0.,-1.));
#557=DIRECTION('ref_axis',(-1.,0.,2.96059473233375E-16));
#558=DIRECTION('',(-1.,0.,2.96059473233375E-16));
#559=DIRECTION('center_axis',(2.96059473233375E-16,0.,1.));
#560=DIRECTION('ref_axis',(0.707106781186547,0.707106781186548,0.));
#561=DIRECTION('',(0.,1.,0.));
#562=DIRECTION('',(1.,0.,-2.96059473233375E-16));
#563=DIRECTION('',(0.,1.,0.));
#564=DIRECTION('center_axis',(0.,1.,0.));
#565=DIRECTION('ref_axis',(0.,0.,1.));
#566=DIRECTION('',(1.,0.,-2.22044604925031E-16));
#567=DIRECTION('',(4.44089209850063E-16,0.,1.));
#568=DIRECTION('center_axis',(0.,0.,-1.));
#569=DIRECTION('ref_axis',(0.707106781186548,0.707106781186548,0.));
#570=DIRECTION('center_axis',(2.22044604925031E-16,0.,1.));
#571=DIRECTION('ref_axis',(0.707106781186548,0.707106781186548,0.));
#572=DIRECTION('',(0.,0.,-1.));
#573=DIRECTION('center_axis',(1.,0.,0.));
#574=DIRECTION('ref_axis',(0.,0.,-1.));
#575=DIRECTION('',(0.,0.,1.));
#576=DIRECTION('',(0.,1.,0.));
#577=DIRECTION('center_axis',(-4.44089209850063E-16,0.,-1.));
#578=DIRECTION('ref_axis',(0.707106781186547,0.707106781186548,0.));
#579=DIRECTION('center_axis',(-2.22044604925031E-16,0.,-1.));
#580=DIRECTION('ref_axis',(0.707106781186547,0.707106781186548,0.));
#581=DIRECTION('',(-4.44089209850063E-16,0.,-1.));
#582=DIRECTION('center_axis',(-1.,0.,0.));
#583=DIRECTION('ref_axis',(0.,0.,1.));
#584=DIRECTION('',(0.,1.,0.));
#585=DIRECTION('',(0.,0.,-1.));
#586=DIRECTION('center_axis',(1.,0.,-4.44089209850063E-16));
#587=DIRECTION('ref_axis',(-4.44089209850063E-16,0.,-1.));
#588=DIRECTION('',(0.,1.,0.));
#589=DIRECTION('',(4.44089209850063E-16,0.,1.));
#590=DIRECTION('center_axis',(-1.,0.,4.44089209850063E-16));
#591=DIRECTION('ref_axis',(4.44089209850063E-16,0.,1.));
#592=DIRECTION('',(-4.44089209850063E-16,0.,-1.));
#593=DIRECTION('',(0.,1.,0.));
#594=DIRECTION('center_axis',(2.22044604925031E-16,0.,1.));
#595=DIRECTION('ref_axis',(1.,0.,-2.22044604925031E-16));
#596=DIRECTION('',(1.,0.,-2.22044604925031E-16));
#597=DIRECTION('',(0.,1.,0.));
#598=DIRECTION('',(1.,0.,-2.22044604925031E-16));
#599=DIRECTION('',(0.,1.,0.));
#600=DIRECTION('',(1.,0.,-2.22044604925031E-16));
#601=DIRECTION('center_axis',(-1.,0.,4.88498130835069E-16));
#602=DIRECTION('ref_axis',(4.88498130835069E-16,0.,1.));
#603=DIRECTION('',(4.88498130835069E-16,0.,1.));
#604=DIRECTION('',(4.88498130835069E-16,0.,1.));
#605=DIRECTION('',(0.,1.,0.));
#606=DIRECTION('center_axis',(-2.22044604925031E-16,0.,-1.));
#607=DIRECTION('ref_axis',(-1.,0.,2.22044604925031E-16));
#608=DIRECTION('',(-1.,0.,2.22044604925031E-16));
#609=DIRECTION('',(0.,1.,0.));
#610=DIRECTION('',(-1.,0.,2.22044604925031E-16));
#611=DIRECTION('',(-1.,0.,2.22044604925031E-16));
#612=DIRECTION('center_axis',(1.,0.,-3.5527136788005E-16));
#613=DIRECTION('ref_axis',(-3.5527136788005E-16,0.,-1.));
#614=DIRECTION('',(-3.5527136788005E-16,0.,-1.));
#615=DIRECTION('',(-3.5527136788005E-16,0.,-1.));
#616=DIRECTION('center_axis',(0.,1.,0.));
#617=DIRECTION('ref_axis',(0.,0.,1.));
#618=DIRECTION('center_axis',(0.,1.,0.));
#619=DIRECTION('ref_axis',(0.,0.,1.));
#620=CARTESIAN_POINT('',(0.,0.,0.));
#621=CARTESIAN_POINT('Origin',(8.88178419700125E-16,0.5,1.400277));
#622=CARTESIAN_POINT('',(-0.299999999999999,0.5,1.400277));
#623=CARTESIAN_POINT('Origin',(8.88178419700125E-16,0.5,1.400277));
#624=CARTESIAN_POINT('',(-0.299999999999999,0.,1.400277));
#625=CARTESIAN_POINT('',(-0.299999999999999,0.5,1.400277));
#626=CARTESIAN_POINT('Origin',(8.88178419700125E-16,0.,1.400277));
#627=CARTESIAN_POINT('Origin',(8.88178419700125E-16,0.5,-1.4));
#628=CARTESIAN_POINT('',(-0.299999999999999,0.5,-1.4));
#629=CARTESIAN_POINT('Origin',(8.88178419700125E-16,0.5,-1.4));
#630=CARTESIAN_POINT('',(-0.299999999999999,0.,-1.4));
#631=CARTESIAN_POINT('',(-0.299999999999999,0.5,-1.4));
#632=CARTESIAN_POINT('Origin',(8.88178419700125E-16,0.,-1.4));
#633=CARTESIAN_POINT('Origin',(1.11022302462516E-15,4.7,2.5));
#634=CARTESIAN_POINT('',(-0.299999999999999,4.7,2.5));
#635=CARTESIAN_POINT('Origin',(1.11022302462516E-15,4.7,2.5));
#636=CARTESIAN_POINT('',(-0.299999999999999,4.7,2.));
#637=CARTESIAN_POINT('',(-0.299999999999999,4.7,2.5));
#638=CARTESIAN_POINT('Origin',(9.99200722162641E-16,4.7,2.));
#639=CARTESIAN_POINT('Origin',(1.11022302462516E-15,4.7,2.5));
#640=CARTESIAN_POINT('',(-0.3,4.7,-2.));
#641=CARTESIAN_POINT('Origin',(1.11022302462516E-16,4.7,-2.));
#642=CARTESIAN_POINT('',(-0.3,4.7,-2.5));
#643=CARTESIAN_POINT('',(-0.299999999999999,4.7,2.5));
#644=CARTESIAN_POINT('Origin',(0.,4.7,-2.5));
#645=CARTESIAN_POINT('Origin',(-0.249999999999999,5.,-2.375));
#646=CARTESIAN_POINT('',(-0.749999999999999,5.,-2.));
#647=CARTESIAN_POINT('',(-0.249999999999999,5.5,-2.));
#648=CARTESIAN_POINT('Origin',(-0.249999999999999,5.,-2.));
#649=CARTESIAN_POINT('',(-0.249999999999999,5.5,-2.5));
#650=CARTESIAN_POINT('',(-0.249999999999999,5.5,-2.375));
#651=CARTESIAN_POINT('',(-0.749999999999999,5.,-2.5));
#652=CARTESIAN_POINT('Origin',(-0.249999999999999,5.,-2.5));
#653=CARTESIAN_POINT('',(-0.749999999999999,5.,-2.375));
#654=CARTESIAN_POINT('Origin',(8.88178419700125E-16,5.5,-2.25));
#655=CARTESIAN_POINT('',(0.250000000000001,5.5,-2.));
#656=CARTESIAN_POINT('',(-0.749999999999999,5.5,-2.));
#657=CARTESIAN_POINT('',(0.250000000000001,5.5,-2.5));
#658=CARTESIAN_POINT('',(0.250000000000001,5.5,-2.125));
#659=CARTESIAN_POINT('',(0.999999999999999,5.5,-2.5));
#660=CARTESIAN_POINT('Origin',(-0.749999999999999,0.5,-2.));
#661=CARTESIAN_POINT('',(-0.749999999999999,0.5,-2.));
#662=CARTESIAN_POINT('',(-0.749999999999999,0.5,-2.));
#663=CARTESIAN_POINT('',(0.750000000000001,0.5,-2.));
#664=CARTESIAN_POINT('',(-0.375,0.5,-2.));
#665=CARTESIAN_POINT('',(0.750000000000001,5.,-2.));
#666=CARTESIAN_POINT('',(0.750000000000001,0.5,-2.));
#667=CARTESIAN_POINT('Origin',(0.250000000000001,5.,-2.));
#668=CARTESIAN_POINT('Origin',(-0.249999999999999,5.,2.125));
#669=CARTESIAN_POINT('',(-0.749999999999999,5.,2.5));
#670=CARTESIAN_POINT('',(-0.249999999999999,5.5,2.5));
#671=CARTESIAN_POINT('Origin',(-0.249999999999999,5.,2.5));
#672=CARTESIAN_POINT('',(-0.249999999999999,5.5,2.));
#673=CARTESIAN_POINT('',(-0.249999999999999,5.5,2.125));
#674=CARTESIAN_POINT('',(-0.749999999999999,5.,2.));
#675=CARTESIAN_POINT('Origin',(-0.249999999999999,5.,2.));
#676=CARTESIAN_POINT('',(-0.749999999999999,5.,2.125));
#677=CARTESIAN_POINT('Origin',(0.750000000000001,0.5,2.));
#678=CARTESIAN_POINT('',(0.250000000000001,5.5,2.));
#679=CARTESIAN_POINT('',(0.750000000000001,5.5,2.));
#680=CARTESIAN_POINT('',(0.750000000000001,5.,2.));
#681=CARTESIAN_POINT('Origin',(0.250000000000001,5.,2.));
#682=CARTESIAN_POINT('',(0.750000000000001,0.5,2.));
#683=CARTESIAN_POINT('',(0.750000000000001,0.5,2.));
#684=CARTESIAN_POINT('',(-0.749999999999999,0.5,2.));
#685=CARTESIAN_POINT('',(0.375000000000001,0.5,2.));
#686=CARTESIAN_POINT('',(-0.749999999999999,0.5,2.));
#687=CARTESIAN_POINT('Origin',(9.99200722162641E-16,5.5,2.25));
#688=CARTESIAN_POINT('',(0.250000000000001,5.5,2.5));
#689=CARTESIAN_POINT('',(-0.999999999999999,5.5,2.5));
#690=CARTESIAN_POINT('',(0.250000000000001,5.5,2.375));
#691=CARTESIAN_POINT('Origin',(0.250000000000001,5.,-2.125));
#692=CARTESIAN_POINT('',(0.750000000000001,5.,-2.5));
#693=CARTESIAN_POINT('Origin',(0.250000000000001,5.,-2.5));
#694=CARTESIAN_POINT('',(0.750000000000001,5.,-2.125));
#695=CARTESIAN_POINT('Origin',(0.750000000000001,0.5,-2.));
#696=CARTESIAN_POINT('',(0.750000000000001,0.5,-2.5));
#697=CARTESIAN_POINT('',(0.750000000000001,0.5,-1.));
#698=CARTESIAN_POINT('',(0.750000000000001,0.5,-2.5));
#699=CARTESIAN_POINT('Origin',(0.250000000000001,5.,2.375));
#700=CARTESIAN_POINT('',(0.750000000000001,5.,2.5));
#701=CARTESIAN_POINT('Origin',(0.250000000000001,5.,2.5));
#702=CARTESIAN_POINT('',(0.750000000000001,5.,2.375));
#703=CARTESIAN_POINT('Origin',(-0.749999999999999,0.5,-2.5));
#704=CARTESIAN_POINT('',(-0.749999999999999,0.5,-2.5));
#705=CARTESIAN_POINT('',(-0.749999999999999,0.5,-2.5));
#706=CARTESIAN_POINT('',(-0.749999999999999,0.5,-1.25));
#707=CARTESIAN_POINT('Origin',(0.750000000000001,0.5,2.5));
#708=CARTESIAN_POINT('',(0.750000000000001,0.5,2.5));
#709=CARTESIAN_POINT('',(0.750000000000001,0.5,2.5));
#710=CARTESIAN_POINT('',(0.750000000000001,0.5,1.25));
#711=CARTESIAN_POINT('Origin',(-0.749999999999999,0.5,2.));
#712=CARTESIAN_POINT('',(-0.749999999999999,0.5,2.5));
#713=CARTESIAN_POINT('',(-0.75,0.5,1.));
#714=CARTESIAN_POINT('',(-0.749999999999999,0.5,2.5));
#715=CARTESIAN_POINT('Origin',(-0.999999999999999,0.,2.5));
#716=CARTESIAN_POINT('',(-0.999999999999999,0.5,2.5));
#717=CARTESIAN_POINT('',(-0.999999999999999,0.5,2.5));
#718=CARTESIAN_POINT('',(-0.999999999999999,0.,2.5));
#719=CARTESIAN_POINT('',(-0.999999999999999,0.,2.5));
#720=CARTESIAN_POINT('',(1.,0.,2.5));
#721=CARTESIAN_POINT('',(-0.999999999999999,0.,2.5));
#722=CARTESIAN_POINT('',(1.,0.5,2.5));
#723=CARTESIAN_POINT('',(1.,0.,2.5));
#724=CARTESIAN_POINT('',(-0.999999999999999,0.5,2.5));
#725=CARTESIAN_POINT('Origin',(-1.,0.,-2.5));
#726=CARTESIAN_POINT('',(-1.,0.,-2.5));
#727=CARTESIAN_POINT('',(-1.,0.,-2.5));
#728=CARTESIAN_POINT('',(-1.,0.5,-2.5));
#729=CARTESIAN_POINT('',(-1.,0.5,-2.5));
#730=CARTESIAN_POINT('',(-1.,0.,-2.5));
#731=CARTESIAN_POINT('Origin',(0.999999999999999,0.,-2.5));
#732=CARTESIAN_POINT('',(0.999999999999999,0.5,-2.5));
#733=CARTESIAN_POINT('',(0.999999999999999,0.5,-2.5));
#734=CARTESIAN_POINT('',(0.999999999999999,0.,-2.5));
#735=CARTESIAN_POINT('',(0.999999999999999,0.,-2.5));
#736=CARTESIAN_POINT('',(0.999999999999999,0.,-2.5));
#737=CARTESIAN_POINT('',(0.999999999999999,0.5,-2.5));
#738=CARTESIAN_POINT('Origin',(1.,0.,2.5));
#739=CARTESIAN_POINT('',(1.,0.,2.5));
#740=CARTESIAN_POINT('',(1.,0.5,2.5));
#741=CARTESIAN_POINT('Origin',(-2.22044604925031E-16,0.5,-4.44089209850063E-16));
#742=CARTESIAN_POINT('Origin',(-2.22044604925031E-16,0.,-2.22044604925031E-16));
#743=UNCERTAINTY_MEASURE_WITH_UNIT(LENGTH_MEASURE(0.001),#747,
'DISTANCE_ACCURACY_VALUE',
'Maximum model space distance between geometric entities at asserted c
onnectivities');
#744=UNCERTAINTY_MEASURE_WITH_UNIT(LENGTH_MEASURE(0.001),#747,
'DISTANCE_ACCURACY_VALUE',
'Maximum model space distance between geometric entities at asserted c
onnectivities');
#745=(
GEOMETRIC_REPRESENTATION_CONTEXT(3)
GLOBAL_UNCERTAINTY_ASSIGNED_CONTEXT((#743))
GLOBAL_UNIT_ASSIGNED_CONTEXT((#747,#748,#749))
REPRESENTATION_CONTEXT('','3D')
);
#746=(
GEOMETRIC_REPRESENTATION_CONTEXT(3)
GLOBAL_UNCERTAINTY_ASSIGNED_CONTEXT((#744))
GLOBAL_UNIT_ASSIGNED_CONTEXT((#747,#748,#749))
REPRESENTATION_CONTEXT('','3D')
);
#747=(
LENGTH_UNIT()
NAMED_UNIT(*)
SI_UNIT(.CENTI.,.METRE.)
);
#748=(
NAMED_UNIT(*)
PLANE_ANGLE_UNIT()
SI_UNIT($,.RADIAN.)
);
#749=(
NAMED_UNIT(*)
SI_UNIT($,.STERADIAN.)
SOLID_ANGLE_UNIT()
);
#750=SHAPE_DEFINITION_REPRESENTATION(#751,#752);
#751=PRODUCT_DEFINITION_SHAPE('',$,#754);
#752=SHAPE_REPRESENTATION('',(#459),#745);
#753=PRODUCT_DEFINITION_CONTEXT('part definition',#758,'design');
#754=PRODUCT_DEFINITION('sensor_cover_ultrasonic_3',
'sensor_cover_ultrasonic_3',#755,#753);
#755=PRODUCT_DEFINITION_FORMATION('',$,#760);
#756=PRODUCT_RELATED_PRODUCT_CATEGORY('sensor_cover_ultrasonic_3',
'sensor_cover_ultrasonic_3',(#760));
#757=APPLICATION_PROTOCOL_DEFINITION('international standard',
'automotive_design',2009,#758);
#758=APPLICATION_CONTEXT(
'Core Data for Automotive Mechanical Design Process');
#759=PRODUCT_CONTEXT('part definition',#758,'mechanical');
#760=PRODUCT('sensor_cover_ultrasonic_3','sensor_cover_ultrasonic_3',$,
(#759));
#761=PRESENTATION_STYLE_ASSIGNMENT((#762));
#762=SURFACE_STYLE_USAGE(.BOTH.,#765);
#763=SURFACE_STYLE_RENDERING_WITH_PROPERTIES($,#769,(#764));
#764=SURFACE_STYLE_TRANSPARENT(0.);
#765=SURFACE_SIDE_STYLE('',(#766,#763));
#766=SURFACE_STYLE_FILL_AREA(#767);
#767=FILL_AREA_STYLE('',(#768));
#768=FILL_AREA_STYLE_COLOUR('',#769);
#769=COLOUR_RGB('',0.749019607843137,0.749019607843137,0.749019607843137);
ENDSEC;
END-ISO-10303-21;
