ISO-10303-21;
HEADER;
/* Generated by software containing ST-Developer
 * from STEP Tools, Inc. (www.steptools.com) 
 */

FILE_DESCRIPTION(
/* description */ (''),
/* implementation_level */ '2;1');

FILE_NAME(
/* name */ 'sensor_cover_ultrasonic.stp',
/* time_stamp */ '2026-04-09T00:26:00+05:30',
/* author */ ('Kartik'),
/* organization */ (''),
/* preprocessor_version */ 'ST-DEVELOPER v20.1',
/* originating_system */ 'Autodesk Inventor 2026',
/* authorisation */ '');

FILE_SCHEMA (('AUTOMOTIVE_DESIGN { 1 0 10303 214 3 1 1 }'));
ENDSEC;

DATA;
#10=MECHANICAL_DESIGN_GEOMETRIC_PRESENTATION_REPRESENTATION('',(#13),#1060);
#11=SHAPE_REPRESENTATION_RELATIONSHIP('SRR','None',#1066,#12);
#12=ADVANCED_BREP_SHAPE_REPRESENTATION('',(#14),#1059);
#13=STYLED_ITEM('',(#1075),#14);
#14=MANIFOLD_SOLID_BREP('Solid1',#609);
#15=CYLINDRICAL_SURFACE('',#662,0.7);
#16=CYLINDRICAL_SURFACE('',#664,0.7);
#17=CYLINDRICAL_SURFACE('',#667,0.7);
#18=CYLINDRICAL_SURFACE('',#670,0.7);
#19=CYLINDRICAL_SURFACE('',#678,1.);
#20=CYLINDRICAL_SURFACE('',#686,1.);
#21=CYLINDRICAL_SURFACE('',#688,1.);
#22=CYLINDRICAL_SURFACE('',#689,1.);
#23=CYLINDRICAL_SURFACE('',#690,0.8);
#24=CYLINDRICAL_SURFACE('',#691,0.8);
#25=FACE_BOUND('',#192,.T.);
#26=FACE_BOUND('',#193,.T.);
#27=FACE_BOUND('',#194,.T.);
#28=FACE_BOUND('',#195,.T.);
#29=FACE_BOUND('',#199,.T.);
#30=FACE_BOUND('',#205,.T.);
#31=FACE_BOUND('',#221,.T.);
#32=FACE_BOUND('',#222,.T.);
#33=PLANE('',#633);
#34=PLANE('',#641);
#35=PLANE('',#645);
#36=PLANE('',#652);
#37=PLANE('',#656);
#38=PLANE('',#657);
#39=PLANE('',#658);
#40=PLANE('',#659);
#41=PLANE('',#660);
#42=PLANE('',#661);
#43=PLANE('',#666);
#44=PLANE('',#669);
#45=PLANE('',#672);
#46=PLANE('',#673);
#47=PLANE('',#680);
#48=PLANE('',#687);
#49=PLANE('',#692);
#50=PLANE('',#693);
#51=LINE('',#893,#101);
#52=LINE('',#900,#102);
#53=LINE('',#904,#103);
#54=LINE('',#908,#104);
#55=LINE('',#911,#105);
#56=LINE('',#924,#106);
#57=LINE('',#934,#107);
#58=LINE('',#942,#108);
#59=LINE('',#947,#109);
#60=LINE('',#949,#110);
#61=LINE('',#951,#111);
#62=LINE('',#952,#112);
#63=LINE('',#955,#113);
#64=LINE('',#957,#114);
#65=LINE('',#958,#115);
#66=LINE('',#961,#116);
#67=LINE('',#963,#117);
#68=LINE('',#964,#118);
#69=LINE('',#968,#119);
#70=LINE('',#969,#120);
#71=LINE('',#970,#121);
#72=LINE('',#973,#122);
#73=LINE('',#975,#123);
#74=LINE('',#977,#124);
#75=LINE('',#979,#125);
#76=LINE('',#980,#126);
#77=LINE('',#983,#127);
#78=LINE('',#988,#128);
#79=LINE('',#991,#129);
#80=LINE('',#992,#130);
#81=LINE('',#996,#131);
#82=LINE('',#999,#132);
#83=LINE('',#1000,#133);
#84=LINE('',#1001,#134);
#85=LINE('',#1005,#135);
#86=LINE('',#1007,#136);
#87=LINE('',#1012,#137);
#88=LINE('',#1016,#138);
#89=LINE('',#1020,#139);
#90=LINE('',#1024,#140);
#91=LINE('',#1028,#141);
#92=LINE('',#1032,#142);
#93=LINE('',#1036,#143);
#94=LINE('',#1043,#144);
#95=LINE('',#1044,#145);
#96=LINE('',#1046,#146);
#97=LINE('',#1048,#147);
#98=LINE('',#1050,#148);
#99=LINE('',#1052,#149);
#100=LINE('',#1054,#150);
#101=VECTOR('',#708,0.341031904152804);
#102=VECTOR('',#715,1.);
#103=VECTOR('',#718,1.);
#104=VECTOR('',#721,1.);
#105=VECTOR('',#724,1.);
#106=VECTOR('',#739,0.129490298709344);
#107=VECTOR('',#752,0.341031904152804);
#108=VECTOR('',#763,0.129490298709344);
#109=VECTOR('',#768,1.);
#110=VECTOR('',#769,1.);
#111=VECTOR('',#770,1.);
#112=VECTOR('',#771,1.);
#113=VECTOR('',#774,1.);
#114=VECTOR('',#775,1.);
#115=VECTOR('',#776,1.);
#116=VECTOR('',#779,1.);
#117=VECTOR('',#780,1.);
#118=VECTOR('',#781,1.);
#119=VECTOR('',#784,1.);
#120=VECTOR('',#785,1.);
#121=VECTOR('',#786,1.);
#122=VECTOR('',#789,1.);
#123=VECTOR('',#790,1.);
#124=VECTOR('',#791,1.);
#125=VECTOR('',#792,1.);
#126=VECTOR('',#793,1.);
#127=VECTOR('',#796,1.);
#128=VECTOR('',#803,1.);
#129=VECTOR('',#806,1.);
#130=VECTOR('',#807,1.);
#131=VECTOR('',#812,1.);
#132=VECTOR('',#815,1.);
#133=VECTOR('',#816,1.);
#134=VECTOR('',#817,1.);
#135=VECTOR('',#822,1.);
#136=VECTOR('',#825,1.);
#137=VECTOR('',#830,1.);
#138=VECTOR('',#833,1.);
#139=VECTOR('',#836,1.);
#140=VECTOR('',#841,1.);
#141=VECTOR('',#846,1.);
#142=VECTOR('',#849,1.);
#143=VECTOR('',#852,1.);
#144=VECTOR('',#861,1.);
#145=VECTOR('',#862,1.);
#146=VECTOR('',#865,1.);
#147=VECTOR('',#868,1.);
#148=VECTOR('',#871,1.);
#149=VECTOR('',#874,0.8);
#150=VECTOR('',#877,0.8);
#151=CONICAL_SURFACE('',#631,0.341031904152804,0.0349065850398866);
#152=CONICAL_SURFACE('',#643,0.129490298709344,0.0174532925199433);
#153=CONICAL_SURFACE('',#650,0.341031904152804,0.0349065850398866);
#154=CONICAL_SURFACE('',#654,0.129490298709344,0.0174532925199433);
#155=FACE_OUTER_BOUND('',#189,.T.);
#156=FACE_OUTER_BOUND('',#190,.T.);
#157=FACE_OUTER_BOUND('',#191,.T.);
#158=FACE_OUTER_BOUND('',#196,.T.);
#159=FACE_OUTER_BOUND('',#197,.T.);
#160=FACE_OUTER_BOUND('',#198,.T.);
#161=FACE_OUTER_BOUND('',#200,.T.);
#162=FACE_OUTER_BOUND('',#201,.T.);
#163=FACE_OUTER_BOUND('',#202,.T.);
#164=FACE_OUTER_BOUND('',#203,.T.);
#165=FACE_OUTER_BOUND('',#204,.T.);
#166=FACE_OUTER_BOUND('',#206,.T.);
#167=FACE_OUTER_BOUND('',#207,.T.);
#168=FACE_OUTER_BOUND('',#208,.T.);
#169=FACE_OUTER_BOUND('',#209,.T.);
#170=FACE_OUTER_BOUND('',#210,.T.);
#171=FACE_OUTER_BOUND('',#211,.T.);
#172=FACE_OUTER_BOUND('',#212,.T.);
#173=FACE_OUTER_BOUND('',#213,.T.);
#174=FACE_OUTER_BOUND('',#214,.T.);
#175=FACE_OUTER_BOUND('',#215,.T.);
#176=FACE_OUTER_BOUND('',#216,.T.);
#177=FACE_OUTER_BOUND('',#217,.T.);
#178=FACE_OUTER_BOUND('',#218,.T.);
#179=FACE_OUTER_BOUND('',#219,.T.);
#180=FACE_OUTER_BOUND('',#220,.T.);
#181=FACE_OUTER_BOUND('',#223,.T.);
#182=FACE_OUTER_BOUND('',#224,.T.);
#183=FACE_OUTER_BOUND('',#225,.T.);
#184=FACE_OUTER_BOUND('',#226,.T.);
#185=FACE_OUTER_BOUND('',#227,.T.);
#186=FACE_OUTER_BOUND('',#228,.T.);
#187=FACE_OUTER_BOUND('',#229,.T.);
#188=FACE_OUTER_BOUND('',#230,.T.);
#189=EDGE_LOOP('',(#405,#406,#407,#408,#409));
#190=EDGE_LOOP('',(#410,#411,#412,#413,#414));
#191=EDGE_LOOP('',(#415,#416,#417,#418,#419,#420,#421,#422));
#192=EDGE_LOOP('',(#423));
#193=EDGE_LOOP('',(#424));
#194=EDGE_LOOP('',(#425));
#195=EDGE_LOOP('',(#426));
#196=EDGE_LOOP('',(#427));
#197=EDGE_LOOP('',(#428,#429,#430,#431));
#198=EDGE_LOOP('',(#432));
#199=EDGE_LOOP('',(#433));
#200=EDGE_LOOP('',(#434,#435,#436,#437,#438));
#201=EDGE_LOOP('',(#439,#440,#441,#442,#443));
#202=EDGE_LOOP('',(#444));
#203=EDGE_LOOP('',(#445,#446,#447,#448));
#204=EDGE_LOOP('',(#449));
#205=EDGE_LOOP('',(#450));
#206=EDGE_LOOP('',(#451,#452,#453,#454));
#207=EDGE_LOOP('',(#455,#456,#457,#458));
#208=EDGE_LOOP('',(#459,#460,#461,#462));
#209=EDGE_LOOP('',(#463,#464,#465,#466));
#210=EDGE_LOOP('',(#467,#468,#469,#470,#471,#472,#473,#474));
#211=EDGE_LOOP('',(#475,#476,#477,#478));
#212=EDGE_LOOP('',(#479,#480,#481,#482));
#213=EDGE_LOOP('',(#483,#484,#485,#486));
#214=EDGE_LOOP('',(#487,#488,#489,#490));
#215=EDGE_LOOP('',(#491,#492,#493,#494,#495,#496,#497,#498));
#216=EDGE_LOOP('',(#499,#500,#501,#502));
#217=EDGE_LOOP('',(#503,#504,#505,#506));
#218=EDGE_LOOP('',(#507,#508,#509,#510,#511,#512,#513,#514,#515,#516,#517,
#518,#519,#520,#521,#522,#523,#524,#525,#526));
#219=EDGE_LOOP('',(#527,#528,#529,#530));
#220=EDGE_LOOP('',(#531,#532,#533,#534,#535,#536,#537,#538));
#221=EDGE_LOOP('',(#539));
#222=EDGE_LOOP('',(#540));
#223=EDGE_LOOP('',(#541,#542,#543,#544));
#224=EDGE_LOOP('',(#545,#546,#547,#548));
#225=EDGE_LOOP('',(#549,#550,#551,#552));
#226=EDGE_LOOP('',(#553,#554,#555,#556));
#227=EDGE_LOOP('',(#557,#558,#559,#560));
#228=EDGE_LOOP('',(#561,#562,#563,#564));
#229=EDGE_LOOP('',(#565,#566,#567,#568));
#230=EDGE_LOOP('',(#569,#570,#571,#572));
#231=CIRCLE('',#627,0.326312448846783);
#232=CIRCLE('',#628,0.1);
#233=CIRCLE('',#629,0.426251531548693);
#234=CIRCLE('',#630,0.326312448846783);
#235=CIRCLE('',#632,0.3);
#236=CIRCLE('',#634,0.7);
#237=CIRCLE('',#635,0.7);
#238=CIRCLE('',#636,0.7);
#239=CIRCLE('',#637,0.7);
#240=CIRCLE('',#638,0.426251531548693);
#241=CIRCLE('',#639,0.8);
#242=CIRCLE('',#640,0.8);
#243=CIRCLE('',#642,0.135163194811015);
#244=CIRCLE('',#644,0.15);
#245=CIRCLE('',#647,0.326312448846783);
#246=CIRCLE('',#648,0.1);
#247=CIRCLE('',#649,0.326312448846783);
#248=CIRCLE('',#651,0.3);
#249=CIRCLE('',#653,0.135163194811015);
#250=CIRCLE('',#655,0.15);
#251=CIRCLE('',#663,0.7);
#252=CIRCLE('',#665,0.7);
#253=CIRCLE('',#668,0.7);
#254=CIRCLE('',#671,0.7);
#255=CIRCLE('',#674,1.);
#256=CIRCLE('',#675,1.);
#257=CIRCLE('',#676,1.);
#258=CIRCLE('',#677,1.);
#259=CIRCLE('',#679,1.);
#260=CIRCLE('',#681,1.);
#261=CIRCLE('',#682,1.);
#262=CIRCLE('',#683,1.);
#263=CIRCLE('',#684,0.8);
#264=CIRCLE('',#685,0.8);
#265=VERTEX_POINT('',#884);
#266=VERTEX_POINT('',#885);
#267=VERTEX_POINT('',#887);
#268=VERTEX_POINT('',#892);
#269=VERTEX_POINT('',#896);
#270=VERTEX_POINT('',#897);
#271=VERTEX_POINT('',#899);
#272=VERTEX_POINT('',#901);
#273=VERTEX_POINT('',#903);
#274=VERTEX_POINT('',#905);
#275=VERTEX_POINT('',#907);
#276=VERTEX_POINT('',#909);
#277=VERTEX_POINT('',#912);
#278=VERTEX_POINT('',#914);
#279=VERTEX_POINT('',#916);
#280=VERTEX_POINT('',#919);
#281=VERTEX_POINT('',#922);
#282=VERTEX_POINT('',#927);
#283=VERTEX_POINT('',#928);
#284=VERTEX_POINT('',#933);
#285=VERTEX_POINT('',#937);
#286=VERTEX_POINT('',#940);
#287=VERTEX_POINT('',#945);
#288=VERTEX_POINT('',#946);
#289=VERTEX_POINT('',#948);
#290=VERTEX_POINT('',#950);
#291=VERTEX_POINT('',#954);
#292=VERTEX_POINT('',#956);
#293=VERTEX_POINT('',#960);
#294=VERTEX_POINT('',#962);
#295=VERTEX_POINT('',#966);
#296=VERTEX_POINT('',#967);
#297=VERTEX_POINT('',#972);
#298=VERTEX_POINT('',#974);
#299=VERTEX_POINT('',#976);
#300=VERTEX_POINT('',#978);
#301=VERTEX_POINT('',#982);
#302=VERTEX_POINT('',#986);
#303=VERTEX_POINT('',#990);
#304=VERTEX_POINT('',#994);
#305=VERTEX_POINT('',#998);
#306=VERTEX_POINT('',#1003);
#307=VERTEX_POINT('',#1009);
#308=VERTEX_POINT('',#1011);
#309=VERTEX_POINT('',#1013);
#310=VERTEX_POINT('',#1015);
#311=VERTEX_POINT('',#1017);
#312=VERTEX_POINT('',#1019);
#313=VERTEX_POINT('',#1023);
#314=VERTEX_POINT('',#1027);
#315=VERTEX_POINT('',#1029);
#316=VERTEX_POINT('',#1031);
#317=VERTEX_POINT('',#1033);
#318=VERTEX_POINT('',#1035);
#319=VERTEX_POINT('',#1038);
#320=VERTEX_POINT('',#1040);
#321=EDGE_CURVE('',#265,#266,#231,.T.);
#322=EDGE_CURVE('',#266,#267,#232,.T.);
#323=EDGE_CURVE('',#267,#267,#233,.T.);
#324=EDGE_CURVE('',#266,#265,#234,.T.);
#325=EDGE_CURVE('',#265,#268,#51,.T.);
#326=EDGE_CURVE('',#268,#268,#235,.T.);
#327=EDGE_CURVE('',#269,#270,#236,.T.);
#328=EDGE_CURVE('',#270,#271,#52,.T.);
#329=EDGE_CURVE('',#271,#272,#237,.T.);
#330=EDGE_CURVE('',#272,#273,#53,.T.);
#331=EDGE_CURVE('',#273,#274,#238,.T.);
#332=EDGE_CURVE('',#274,#275,#54,.T.);
#333=EDGE_CURVE('',#275,#276,#239,.T.);
#334=EDGE_CURVE('',#276,#269,#55,.T.);
#335=EDGE_CURVE('',#277,#277,#240,.T.);
#336=EDGE_CURVE('',#278,#278,#241,.T.);
#337=EDGE_CURVE('',#279,#279,#242,.T.);
#338=EDGE_CURVE('',#280,#280,#243,.T.);
#339=EDGE_CURVE('',#281,#281,#244,.T.);
#340=EDGE_CURVE('',#281,#280,#56,.T.);
#341=EDGE_CURVE('',#282,#283,#245,.T.);
#342=EDGE_CURVE('',#283,#277,#246,.T.);
#343=EDGE_CURVE('',#283,#282,#247,.T.);
#344=EDGE_CURVE('',#282,#284,#57,.T.);
#345=EDGE_CURVE('',#284,#284,#248,.T.);
#346=EDGE_CURVE('',#285,#285,#249,.T.);
#347=EDGE_CURVE('',#286,#286,#250,.T.);
#348=EDGE_CURVE('',#286,#285,#58,.T.);
#349=EDGE_CURVE('',#287,#288,#59,.T.);
#350=EDGE_CURVE('',#289,#287,#60,.T.);
#351=EDGE_CURVE('',#290,#289,#61,.T.);
#352=EDGE_CURVE('',#290,#288,#62,.T.);
#353=EDGE_CURVE('',#288,#291,#63,.T.);
#354=EDGE_CURVE('',#292,#290,#64,.T.);
#355=EDGE_CURVE('',#291,#292,#65,.T.);
#356=EDGE_CURVE('',#293,#287,#66,.T.);
#357=EDGE_CURVE('',#294,#293,#67,.T.);
#358=EDGE_CURVE('',#289,#294,#68,.T.);
#359=EDGE_CURVE('',#295,#296,#69,.T.);
#360=EDGE_CURVE('',#271,#295,#70,.T.);
#361=EDGE_CURVE('',#270,#296,#71,.T.);
#362=EDGE_CURVE('',#297,#291,#72,.T.);
#363=EDGE_CURVE('',#298,#297,#73,.T.);
#364=EDGE_CURVE('',#298,#299,#74,.T.);
#365=EDGE_CURVE('',#300,#299,#75,.T.);
#366=EDGE_CURVE('',#293,#300,#76,.T.);
#367=EDGE_CURVE('',#269,#301,#77,.T.);
#368=EDGE_CURVE('',#296,#301,#251,.T.);
#369=EDGE_CURVE('',#302,#295,#252,.T.);
#370=EDGE_CURVE('',#272,#302,#78,.T.);
#371=EDGE_CURVE('',#303,#302,#79,.T.);
#372=EDGE_CURVE('',#273,#303,#80,.T.);
#373=EDGE_CURVE('',#304,#303,#253,.T.);
#374=EDGE_CURVE('',#274,#304,#81,.T.);
#375=EDGE_CURVE('',#305,#294,#82,.T.);
#376=EDGE_CURVE('',#275,#305,#83,.T.);
#377=EDGE_CURVE('',#292,#304,#84,.T.);
#378=EDGE_CURVE('',#306,#305,#254,.T.);
#379=EDGE_CURVE('',#276,#306,#85,.T.);
#380=EDGE_CURVE('',#301,#306,#86,.T.);
#381=EDGE_CURVE('',#300,#307,#255,.T.);
#382=EDGE_CURVE('',#307,#308,#87,.T.);
#383=EDGE_CURVE('',#308,#309,#256,.T.);
#384=EDGE_CURVE('',#309,#310,#88,.T.);
#385=EDGE_CURVE('',#310,#311,#257,.T.);
#386=EDGE_CURVE('',#311,#312,#89,.T.);
#387=EDGE_CURVE('',#312,#297,#258,.T.);
#388=EDGE_CURVE('',#312,#313,#90,.T.);
#389=EDGE_CURVE('',#313,#298,#259,.T.);
#390=EDGE_CURVE('',#314,#313,#91,.T.);
#391=EDGE_CURVE('',#315,#314,#260,.T.);
#392=EDGE_CURVE('',#316,#315,#92,.T.);
#393=EDGE_CURVE('',#317,#316,#261,.T.);
#394=EDGE_CURVE('',#318,#317,#93,.T.);
#395=EDGE_CURVE('',#299,#318,#262,.T.);
#396=EDGE_CURVE('',#319,#319,#263,.T.);
#397=EDGE_CURVE('',#320,#320,#264,.T.);
#398=EDGE_CURVE('',#310,#315,#94,.T.);
#399=EDGE_CURVE('',#314,#311,#95,.T.);
#400=EDGE_CURVE('',#316,#309,#96,.T.);
#401=EDGE_CURVE('',#308,#317,#97,.T.);
#402=EDGE_CURVE('',#318,#307,#98,.T.);
#403=EDGE_CURVE('',#278,#319,#99,.T.);
#404=EDGE_CURVE('',#279,#320,#100,.T.);
#405=ORIENTED_EDGE('',*,*,#321,.T.);
#406=ORIENTED_EDGE('',*,*,#322,.T.);
#407=ORIENTED_EDGE('',*,*,#323,.T.);
#408=ORIENTED_EDGE('',*,*,#322,.F.);
#409=ORIENTED_EDGE('',*,*,#324,.T.);
#410=ORIENTED_EDGE('',*,*,#321,.F.);
#411=ORIENTED_EDGE('',*,*,#325,.T.);
#412=ORIENTED_EDGE('',*,*,#326,.T.);
#413=ORIENTED_EDGE('',*,*,#325,.F.);
#414=ORIENTED_EDGE('',*,*,#324,.F.);
#415=ORIENTED_EDGE('',*,*,#327,.T.);
#416=ORIENTED_EDGE('',*,*,#328,.T.);
#417=ORIENTED_EDGE('',*,*,#329,.T.);
#418=ORIENTED_EDGE('',*,*,#330,.T.);
#419=ORIENTED_EDGE('',*,*,#331,.T.);
#420=ORIENTED_EDGE('',*,*,#332,.T.);
#421=ORIENTED_EDGE('',*,*,#333,.T.);
#422=ORIENTED_EDGE('',*,*,#334,.T.);
#423=ORIENTED_EDGE('',*,*,#335,.F.);
#424=ORIENTED_EDGE('',*,*,#336,.T.);
#425=ORIENTED_EDGE('',*,*,#337,.T.);
#426=ORIENTED_EDGE('',*,*,#323,.F.);
#427=ORIENTED_EDGE('',*,*,#338,.T.);
#428=ORIENTED_EDGE('',*,*,#339,.F.);
#429=ORIENTED_EDGE('',*,*,#340,.T.);
#430=ORIENTED_EDGE('',*,*,#338,.F.);
#431=ORIENTED_EDGE('',*,*,#340,.F.);
#432=ORIENTED_EDGE('',*,*,#326,.F.);
#433=ORIENTED_EDGE('',*,*,#339,.T.);
#434=ORIENTED_EDGE('',*,*,#341,.T.);
#435=ORIENTED_EDGE('',*,*,#342,.T.);
#436=ORIENTED_EDGE('',*,*,#335,.T.);
#437=ORIENTED_EDGE('',*,*,#342,.F.);
#438=ORIENTED_EDGE('',*,*,#343,.T.);
#439=ORIENTED_EDGE('',*,*,#341,.F.);
#440=ORIENTED_EDGE('',*,*,#344,.T.);
#441=ORIENTED_EDGE('',*,*,#345,.T.);
#442=ORIENTED_EDGE('',*,*,#344,.F.);
#443=ORIENTED_EDGE('',*,*,#343,.F.);
#444=ORIENTED_EDGE('',*,*,#346,.T.);
#445=ORIENTED_EDGE('',*,*,#347,.F.);
#446=ORIENTED_EDGE('',*,*,#348,.T.);
#447=ORIENTED_EDGE('',*,*,#346,.F.);
#448=ORIENTED_EDGE('',*,*,#348,.F.);
#449=ORIENTED_EDGE('',*,*,#345,.F.);
#450=ORIENTED_EDGE('',*,*,#347,.T.);
#451=ORIENTED_EDGE('',*,*,#349,.F.);
#452=ORIENTED_EDGE('',*,*,#350,.F.);
#453=ORIENTED_EDGE('',*,*,#351,.F.);
#454=ORIENTED_EDGE('',*,*,#352,.T.);
#455=ORIENTED_EDGE('',*,*,#353,.F.);
#456=ORIENTED_EDGE('',*,*,#352,.F.);
#457=ORIENTED_EDGE('',*,*,#354,.F.);
#458=ORIENTED_EDGE('',*,*,#355,.F.);
#459=ORIENTED_EDGE('',*,*,#356,.F.);
#460=ORIENTED_EDGE('',*,*,#357,.F.);
#461=ORIENTED_EDGE('',*,*,#358,.F.);
#462=ORIENTED_EDGE('',*,*,#350,.T.);
#463=ORIENTED_EDGE('',*,*,#359,.F.);
#464=ORIENTED_EDGE('',*,*,#360,.F.);
#465=ORIENTED_EDGE('',*,*,#328,.F.);
#466=ORIENTED_EDGE('',*,*,#361,.T.);
#467=ORIENTED_EDGE('',*,*,#356,.T.);
#468=ORIENTED_EDGE('',*,*,#349,.T.);
#469=ORIENTED_EDGE('',*,*,#353,.T.);
#470=ORIENTED_EDGE('',*,*,#362,.F.);
#471=ORIENTED_EDGE('',*,*,#363,.F.);
#472=ORIENTED_EDGE('',*,*,#364,.T.);
#473=ORIENTED_EDGE('',*,*,#365,.F.);
#474=ORIENTED_EDGE('',*,*,#366,.F.);
#475=ORIENTED_EDGE('',*,*,#327,.F.);
#476=ORIENTED_EDGE('',*,*,#367,.T.);
#477=ORIENTED_EDGE('',*,*,#368,.F.);
#478=ORIENTED_EDGE('',*,*,#361,.F.);
#479=ORIENTED_EDGE('',*,*,#329,.F.);
#480=ORIENTED_EDGE('',*,*,#360,.T.);
#481=ORIENTED_EDGE('',*,*,#369,.F.);
#482=ORIENTED_EDGE('',*,*,#370,.F.);
#483=ORIENTED_EDGE('',*,*,#330,.F.);
#484=ORIENTED_EDGE('',*,*,#370,.T.);
#485=ORIENTED_EDGE('',*,*,#371,.F.);
#486=ORIENTED_EDGE('',*,*,#372,.F.);
#487=ORIENTED_EDGE('',*,*,#331,.F.);
#488=ORIENTED_EDGE('',*,*,#372,.T.);
#489=ORIENTED_EDGE('',*,*,#373,.F.);
#490=ORIENTED_EDGE('',*,*,#374,.F.);
#491=ORIENTED_EDGE('',*,*,#358,.T.);
#492=ORIENTED_EDGE('',*,*,#375,.F.);
#493=ORIENTED_EDGE('',*,*,#376,.F.);
#494=ORIENTED_EDGE('',*,*,#332,.F.);
#495=ORIENTED_EDGE('',*,*,#374,.T.);
#496=ORIENTED_EDGE('',*,*,#377,.F.);
#497=ORIENTED_EDGE('',*,*,#354,.T.);
#498=ORIENTED_EDGE('',*,*,#351,.T.);
#499=ORIENTED_EDGE('',*,*,#333,.F.);
#500=ORIENTED_EDGE('',*,*,#376,.T.);
#501=ORIENTED_EDGE('',*,*,#378,.F.);
#502=ORIENTED_EDGE('',*,*,#379,.F.);
#503=ORIENTED_EDGE('',*,*,#334,.F.);
#504=ORIENTED_EDGE('',*,*,#379,.T.);
#505=ORIENTED_EDGE('',*,*,#380,.F.);
#506=ORIENTED_EDGE('',*,*,#367,.F.);
#507=ORIENTED_EDGE('',*,*,#357,.T.);
#508=ORIENTED_EDGE('',*,*,#366,.T.);
#509=ORIENTED_EDGE('',*,*,#381,.T.);
#510=ORIENTED_EDGE('',*,*,#382,.T.);
#511=ORIENTED_EDGE('',*,*,#383,.T.);
#512=ORIENTED_EDGE('',*,*,#384,.T.);
#513=ORIENTED_EDGE('',*,*,#385,.T.);
#514=ORIENTED_EDGE('',*,*,#386,.T.);
#515=ORIENTED_EDGE('',*,*,#387,.T.);
#516=ORIENTED_EDGE('',*,*,#362,.T.);
#517=ORIENTED_EDGE('',*,*,#355,.T.);
#518=ORIENTED_EDGE('',*,*,#377,.T.);
#519=ORIENTED_EDGE('',*,*,#373,.T.);
#520=ORIENTED_EDGE('',*,*,#371,.T.);
#521=ORIENTED_EDGE('',*,*,#369,.T.);
#522=ORIENTED_EDGE('',*,*,#359,.T.);
#523=ORIENTED_EDGE('',*,*,#368,.T.);
#524=ORIENTED_EDGE('',*,*,#380,.T.);
#525=ORIENTED_EDGE('',*,*,#378,.T.);
#526=ORIENTED_EDGE('',*,*,#375,.T.);
#527=ORIENTED_EDGE('',*,*,#388,.T.);
#528=ORIENTED_EDGE('',*,*,#389,.T.);
#529=ORIENTED_EDGE('',*,*,#363,.T.);
#530=ORIENTED_EDGE('',*,*,#387,.F.);
#531=ORIENTED_EDGE('',*,*,#389,.F.);
#532=ORIENTED_EDGE('',*,*,#390,.F.);
#533=ORIENTED_EDGE('',*,*,#391,.F.);
#534=ORIENTED_EDGE('',*,*,#392,.F.);
#535=ORIENTED_EDGE('',*,*,#393,.F.);
#536=ORIENTED_EDGE('',*,*,#394,.F.);
#537=ORIENTED_EDGE('',*,*,#395,.F.);
#538=ORIENTED_EDGE('',*,*,#364,.F.);
#539=ORIENTED_EDGE('',*,*,#396,.T.);
#540=ORIENTED_EDGE('',*,*,#397,.T.);
#541=ORIENTED_EDGE('',*,*,#398,.T.);
#542=ORIENTED_EDGE('',*,*,#391,.T.);
#543=ORIENTED_EDGE('',*,*,#399,.T.);
#544=ORIENTED_EDGE('',*,*,#385,.F.);
#545=ORIENTED_EDGE('',*,*,#398,.F.);
#546=ORIENTED_EDGE('',*,*,#384,.F.);
#547=ORIENTED_EDGE('',*,*,#400,.F.);
#548=ORIENTED_EDGE('',*,*,#392,.T.);
#549=ORIENTED_EDGE('',*,*,#401,.T.);
#550=ORIENTED_EDGE('',*,*,#393,.T.);
#551=ORIENTED_EDGE('',*,*,#400,.T.);
#552=ORIENTED_EDGE('',*,*,#383,.F.);
#553=ORIENTED_EDGE('',*,*,#365,.T.);
#554=ORIENTED_EDGE('',*,*,#395,.T.);
#555=ORIENTED_EDGE('',*,*,#402,.T.);
#556=ORIENTED_EDGE('',*,*,#381,.F.);
#557=ORIENTED_EDGE('',*,*,#336,.F.);
#558=ORIENTED_EDGE('',*,*,#403,.T.);
#559=ORIENTED_EDGE('',*,*,#396,.F.);
#560=ORIENTED_EDGE('',*,*,#403,.F.);
#561=ORIENTED_EDGE('',*,*,#337,.F.);
#562=ORIENTED_EDGE('',*,*,#404,.T.);
#563=ORIENTED_EDGE('',*,*,#397,.F.);
#564=ORIENTED_EDGE('',*,*,#404,.F.);
#565=ORIENTED_EDGE('',*,*,#401,.F.);
#566=ORIENTED_EDGE('',*,*,#382,.F.);
#567=ORIENTED_EDGE('',*,*,#402,.F.);
#568=ORIENTED_EDGE('',*,*,#394,.T.);
#569=ORIENTED_EDGE('',*,*,#388,.F.);
#570=ORIENTED_EDGE('',*,*,#386,.F.);
#571=ORIENTED_EDGE('',*,*,#399,.F.);
#572=ORIENTED_EDGE('',*,*,#390,.T.);
#573=TOROIDAL_SURFACE('',#626,0.426251531548693,0.1);
#574=TOROIDAL_SURFACE('',#646,0.426251531548693,0.1);
#575=ADVANCED_FACE('',(#155),#573,.F.);
#576=ADVANCED_FACE('',(#156),#151,.T.);
#577=ADVANCED_FACE('',(#157,#25,#26,#27,#28),#33,.T.);
#578=ADVANCED_FACE('',(#158),#34,.T.);
#579=ADVANCED_FACE('',(#159),#152,.F.);
#580=ADVANCED_FACE('',(#160,#29),#35,.T.);
#581=ADVANCED_FACE('',(#161),#574,.F.);
#582=ADVANCED_FACE('',(#162),#153,.T.);
#583=ADVANCED_FACE('',(#163),#36,.T.);
#584=ADVANCED_FACE('',(#164),#154,.F.);
#585=ADVANCED_FACE('',(#165,#30),#37,.T.);
#586=ADVANCED_FACE('',(#166),#38,.F.);
#587=ADVANCED_FACE('',(#167),#39,.F.);
#588=ADVANCED_FACE('',(#168),#40,.F.);
#589=ADVANCED_FACE('',(#169),#41,.T.);
#590=ADVANCED_FACE('',(#170),#42,.T.);
#591=ADVANCED_FACE('',(#171),#15,.F.);
#592=ADVANCED_FACE('',(#172),#16,.F.);
#593=ADVANCED_FACE('',(#173),#43,.T.);
#594=ADVANCED_FACE('',(#174),#17,.F.);
#595=ADVANCED_FACE('',(#175),#44,.T.);
#596=ADVANCED_FACE('',(#176),#18,.F.);
#597=ADVANCED_FACE('',(#177),#45,.T.);
#598=ADVANCED_FACE('',(#178),#46,.T.);
#599=ADVANCED_FACE('',(#179),#19,.T.);
#600=ADVANCED_FACE('',(#180,#31,#32),#47,.F.);
#601=ADVANCED_FACE('',(#181),#20,.T.);
#602=ADVANCED_FACE('',(#182),#48,.T.);
#603=ADVANCED_FACE('',(#183),#21,.T.);
#604=ADVANCED_FACE('',(#184),#22,.T.);
#605=ADVANCED_FACE('',(#185),#23,.F.);
#606=ADVANCED_FACE('',(#186),#24,.F.);
#607=ADVANCED_FACE('',(#187),#49,.T.);
#608=ADVANCED_FACE('',(#188),#50,.T.);
#609=CLOSED_SHELL('',(#575,#576,#577,#578,#579,#580,#581,#582,#583,#584,
#585,#586,#587,#588,#589,#590,#591,#592,#593,#594,#595,#596,#597,#598,#599,
#600,#601,#602,#603,#604,#605,#606,#607,#608));
#610=DERIVED_UNIT_ELEMENT(#613,1.);
#611=DERIVED_UNIT_ELEMENT(#1061,-3.);
#612=DIMENSIONAL_EXPONENTS(0.,1.,0.,0.,0.,0.,0.);
#613=(
CONVERSION_BASED_UNIT('gram',#615)
MASS_UNIT()
NAMED_UNIT(#612)
);
#614=(
MASS_UNIT()
NAMED_UNIT(*)
SI_UNIT(.KILO.,.GRAM.)
);
#615=MASS_MEASURE_WITH_UNIT(MASS_MEASURE(0.001),#614);
#616=DERIVED_UNIT((#610,#611));
#617=MEASURE_REPRESENTATION_ITEM('density measure',
POSITIVE_RATIO_MEASURE(1.),#616);
#618=PROPERTY_DEFINITION_REPRESENTATION(#623,#620);
#619=PROPERTY_DEFINITION_REPRESENTATION(#624,#621);
#620=REPRESENTATION('material name',(#622),#1059);
#621=REPRESENTATION('density',(#617),#1059);
#622=DESCRIPTIVE_REPRESENTATION_ITEM('Generic','Generic');
#623=PROPERTY_DEFINITION('material property','material name',#1068);
#624=PROPERTY_DEFINITION('material property','density of part',#1068);
#625=AXIS2_PLACEMENT_3D('',#882,#694,#695);
#626=AXIS2_PLACEMENT_3D('',#883,#696,#697);
#627=AXIS2_PLACEMENT_3D('',#886,#698,#699);
#628=AXIS2_PLACEMENT_3D('',#888,#700,#701);
#629=AXIS2_PLACEMENT_3D('',#889,#702,#703);
#630=AXIS2_PLACEMENT_3D('',#890,#704,#705);
#631=AXIS2_PLACEMENT_3D('',#891,#706,#707);
#632=AXIS2_PLACEMENT_3D('',#894,#709,#710);
#633=AXIS2_PLACEMENT_3D('',#895,#711,#712);
#634=AXIS2_PLACEMENT_3D('',#898,#713,#714);
#635=AXIS2_PLACEMENT_3D('',#902,#716,#717);
#636=AXIS2_PLACEMENT_3D('',#906,#719,#720);
#637=AXIS2_PLACEMENT_3D('',#910,#722,#723);
#638=AXIS2_PLACEMENT_3D('',#913,#725,#726);
#639=AXIS2_PLACEMENT_3D('',#915,#727,#728);
#640=AXIS2_PLACEMENT_3D('',#917,#729,#730);
#641=AXIS2_PLACEMENT_3D('',#918,#731,#732);
#642=AXIS2_PLACEMENT_3D('',#920,#733,#734);
#643=AXIS2_PLACEMENT_3D('',#921,#735,#736);
#644=AXIS2_PLACEMENT_3D('',#923,#737,#738);
#645=AXIS2_PLACEMENT_3D('',#925,#740,#741);
#646=AXIS2_PLACEMENT_3D('',#926,#742,#743);
#647=AXIS2_PLACEMENT_3D('',#929,#744,#745);
#648=AXIS2_PLACEMENT_3D('',#930,#746,#747);
#649=AXIS2_PLACEMENT_3D('',#931,#748,#749);
#650=AXIS2_PLACEMENT_3D('',#932,#750,#751);
#651=AXIS2_PLACEMENT_3D('',#935,#753,#754);
#652=AXIS2_PLACEMENT_3D('',#936,#755,#756);
#653=AXIS2_PLACEMENT_3D('',#938,#757,#758);
#654=AXIS2_PLACEMENT_3D('',#939,#759,#760);
#655=AXIS2_PLACEMENT_3D('',#941,#761,#762);
#656=AXIS2_PLACEMENT_3D('',#943,#764,#765);
#657=AXIS2_PLACEMENT_3D('',#944,#766,#767);
#658=AXIS2_PLACEMENT_3D('',#953,#772,#773);
#659=AXIS2_PLACEMENT_3D('',#959,#777,#778);
#660=AXIS2_PLACEMENT_3D('',#965,#782,#783);
#661=AXIS2_PLACEMENT_3D('',#971,#787,#788);
#662=AXIS2_PLACEMENT_3D('',#981,#794,#795);
#663=AXIS2_PLACEMENT_3D('',#984,#797,#798);
#664=AXIS2_PLACEMENT_3D('',#985,#799,#800);
#665=AXIS2_PLACEMENT_3D('',#987,#801,#802);
#666=AXIS2_PLACEMENT_3D('',#989,#804,#805);
#667=AXIS2_PLACEMENT_3D('',#993,#808,#809);
#668=AXIS2_PLACEMENT_3D('',#995,#810,#811);
#669=AXIS2_PLACEMENT_3D('',#997,#813,#814);
#670=AXIS2_PLACEMENT_3D('',#1002,#818,#819);
#671=AXIS2_PLACEMENT_3D('',#1004,#820,#821);
#672=AXIS2_PLACEMENT_3D('',#1006,#823,#824);
#673=AXIS2_PLACEMENT_3D('',#1008,#826,#827);
#674=AXIS2_PLACEMENT_3D('',#1010,#828,#829);
#675=AXIS2_PLACEMENT_3D('',#1014,#831,#832);
#676=AXIS2_PLACEMENT_3D('',#1018,#834,#835);
#677=AXIS2_PLACEMENT_3D('',#1021,#837,#838);
#678=AXIS2_PLACEMENT_3D('',#1022,#839,#840);
#679=AXIS2_PLACEMENT_3D('',#1025,#842,#843);
#680=AXIS2_PLACEMENT_3D('',#1026,#844,#845);
#681=AXIS2_PLACEMENT_3D('',#1030,#847,#848);
#682=AXIS2_PLACEMENT_3D('',#1034,#850,#851);
#683=AXIS2_PLACEMENT_3D('',#1037,#853,#854);
#684=AXIS2_PLACEMENT_3D('',#1039,#855,#856);
#685=AXIS2_PLACEMENT_3D('',#1041,#857,#858);
#686=AXIS2_PLACEMENT_3D('',#1042,#859,#860);
#687=AXIS2_PLACEMENT_3D('',#1045,#863,#864);
#688=AXIS2_PLACEMENT_3D('',#1047,#866,#867);
#689=AXIS2_PLACEMENT_3D('',#1049,#869,#870);
#690=AXIS2_PLACEMENT_3D('',#1051,#872,#873);
#691=AXIS2_PLACEMENT_3D('',#1053,#875,#876);
#692=AXIS2_PLACEMENT_3D('',#1055,#878,#879);
#693=AXIS2_PLACEMENT_3D('',#1056,#880,#881);
#694=DIRECTION('axis',(0.,0.,1.));
#695=DIRECTION('refdir',(1.,0.,0.));
#696=DIRECTION('center_axis',(0.,0.,-1.));
#697=DIRECTION('ref_axis',(-1.,0.,0.));
#698=DIRECTION('center_axis',(0.,0.,-1.));
#699=DIRECTION('ref_axis',(0.,1.,0.));
#700=DIRECTION('center_axis',(-1.22464679914735E-16,-1.,0.));
#701=DIRECTION('ref_axis',(1.,-1.22464679914735E-16,0.));
#702=DIRECTION('center_axis',(0.,0.,1.));
#703=DIRECTION('ref_axis',(0.,1.,0.));
#704=DIRECTION('center_axis',(0.,0.,-1.));
#705=DIRECTION('ref_axis',(0.,1.,0.));
#706=DIRECTION('center_axis',(0.,0.,-1.));
#707=DIRECTION('ref_axis',(0.,1.,0.));
#708=DIRECTION('',(4.27395569285714E-18,0.034899496702501,0.999390827019096));
#709=DIRECTION('center_axis',(0.,0.,-1.));
#710=DIRECTION('ref_axis',(0.,1.,0.));
#711=DIRECTION('center_axis',(0.,0.,1.));
#712=DIRECTION('ref_axis',(1.,0.,0.));
#713=DIRECTION('center_axis',(0.,0.,1.));
#714=DIRECTION('ref_axis',(1.,3.17206578464331E-16,0.));
#715=DIRECTION('',(1.,8.88178419700125E-17,0.));
#716=DIRECTION('center_axis',(0.,0.,1.));
#717=DIRECTION('ref_axis',(-1.26882631385732E-15,1.,0.));
#718=DIRECTION('',(4.44089209850063E-16,1.,0.));
#719=DIRECTION('center_axis',(0.,0.,1.));
#720=DIRECTION('ref_axis',(-1.,-2.37904933848248E-16,0.));
#721=DIRECTION('',(-1.,4.44089209850063E-17,0.));
#722=DIRECTION('center_axis',(0.,0.,1.));
#723=DIRECTION('ref_axis',(-6.34413156928661E-16,-1.,0.));
#724=DIRECTION('',(4.44089209850063E-16,-1.,0.));
#725=DIRECTION('center_axis',(0.,0.,1.));
#726=DIRECTION('ref_axis',(0.,1.,0.));
#727=DIRECTION('center_axis',(0.,0.,-1.));
#728=DIRECTION('ref_axis',(1.,0.,0.));
#729=DIRECTION('center_axis',(0.,0.,-1.));
#730=DIRECTION('ref_axis',(1.,0.,0.));
#731=DIRECTION('center_axis',(0.,0.,1.));
#732=DIRECTION('ref_axis',(1.,0.,0.));
#733=DIRECTION('center_axis',(0.,0.,1.));
#734=DIRECTION('ref_axis',(0.,1.,0.));
#735=DIRECTION('center_axis',(0.,0.,1.));
#736=DIRECTION('ref_axis',(0.,1.,0.));
#737=DIRECTION('center_axis',(0.,0.,-1.));
#738=DIRECTION('ref_axis',(0.,1.,0.));
#739=DIRECTION('',(2.13730336808379E-18,0.0174524064372835,-0.999847695156391));
#740=DIRECTION('center_axis',(0.,0.,1.));
#741=DIRECTION('ref_axis',(0.,-1.,0.));
#742=DIRECTION('center_axis',(0.,0.,-1.));
#743=DIRECTION('ref_axis',(-1.,0.,0.));
#744=DIRECTION('center_axis',(0.,0.,-1.));
#745=DIRECTION('ref_axis',(0.,1.,0.));
#746=DIRECTION('center_axis',(-1.22464679914735E-16,-1.,0.));
#747=DIRECTION('ref_axis',(1.,-1.22464679914735E-16,0.));
#748=DIRECTION('center_axis',(0.,0.,-1.));
#749=DIRECTION('ref_axis',(0.,1.,0.));
#750=DIRECTION('center_axis',(0.,0.,-1.));
#751=DIRECTION('ref_axis',(0.,1.,0.));
#752=DIRECTION('',(4.27395569285714E-18,0.034899496702501,0.999390827019096));
#753=DIRECTION('center_axis',(0.,0.,-1.));
#754=DIRECTION('ref_axis',(0.,1.,0.));
#755=DIRECTION('center_axis',(0.,0.,1.));
#756=DIRECTION('ref_axis',(1.,0.,0.));
#757=DIRECTION('center_axis',(0.,0.,1.));
#758=DIRECTION('ref_axis',(0.,1.,0.));
#759=DIRECTION('center_axis',(0.,0.,1.));
#760=DIRECTION('ref_axis',(0.,1.,0.));
#761=DIRECTION('center_axis',(0.,0.,-1.));
#762=DIRECTION('ref_axis',(0.,1.,0.));
#763=DIRECTION('',(2.13730336808379E-18,0.0174524064372835,-0.999847695156391));
#764=DIRECTION('center_axis',(0.,0.,1.));
#765=DIRECTION('ref_axis',(0.,-1.,0.));
#766=DIRECTION('center_axis',(8.32667268468867E-17,6.84775091337684E-33,
-1.));
#767=DIRECTION('ref_axis',(-1.,-8.88178419700125E-17,-8.32667268468867E-17));
#768=DIRECTION('',(1.,-3.1720657846433E-17,8.32667268468867E-17));
#769=DIRECTION('',(-8.22387425648264E-17,1.,0.));
#770=DIRECTION('',(-1.,4.44089209850063E-17,-8.32667268468867E-17));
#771=DIRECTION('',(-8.22387425648264E-17,1.,0.));
#772=DIRECTION('center_axis',(1.,8.22387425648264E-17,0.));
#773=DIRECTION('ref_axis',(0.,0.,-1.));
#774=DIRECTION('',(0.,0.,1.));
#775=DIRECTION('',(0.,0.,-1.));
#776=DIRECTION('',(8.22387425648264E-17,-1.,0.));
#777=DIRECTION('center_axis',(-1.,-8.22387425648264E-17,-4.44089209850063E-16));
#778=DIRECTION('ref_axis',(-4.44089209850063E-16,-3.94430452610506E-32,
1.));
#779=DIRECTION('',(4.44089209850063E-16,-1.40868018789466E-32,-1.));
#780=DIRECTION('',(-8.22387425648264E-17,1.,0.));
#781=DIRECTION('',(-4.44089209850063E-16,1.97215226305253E-32,1.));
#782=DIRECTION('center_axis',(-8.88178419700125E-17,1.,0.));
#783=DIRECTION('ref_axis',(-1.,-8.88178419700125E-17,0.));
#784=DIRECTION('',(-1.,-8.88178419700125E-17,0.));
#785=DIRECTION('',(0.,0.,1.));
#786=DIRECTION('',(0.,0.,1.));
#787=DIRECTION('center_axis',(3.1720657846433E-17,1.,0.));
#788=DIRECTION('ref_axis',(-1.,3.1720657846433E-17,0.));
#789=DIRECTION('',(-1.,4.44089209850063E-17,0.));
#790=DIRECTION('',(0.,0.,1.));
#791=DIRECTION('',(-1.,3.1720657846433E-17,0.));
#792=DIRECTION('',(0.,0.,-1.));
#793=DIRECTION('',(-1.,4.44089209850063E-17,0.));
#794=DIRECTION('center_axis',(0.,0.,1.));
#795=DIRECTION('ref_axis',(1.,3.17206578464331E-16,0.));
#796=DIRECTION('',(0.,0.,1.));
#797=DIRECTION('center_axis',(0.,0.,-1.));
#798=DIRECTION('ref_axis',(1.,3.17206578464331E-16,0.));
#799=DIRECTION('center_axis',(0.,0.,1.));
#800=DIRECTION('ref_axis',(-1.26882631385732E-15,1.,0.));
#801=DIRECTION('center_axis',(0.,0.,-1.));
#802=DIRECTION('ref_axis',(-1.26882631385732E-15,1.,0.));
#803=DIRECTION('',(0.,0.,1.));
#804=DIRECTION('center_axis',(-1.,4.44089209850063E-16,0.));
#805=DIRECTION('ref_axis',(-4.44089209850063E-16,-1.,0.));
#806=DIRECTION('',(-4.44089209850063E-16,-1.,0.));
#807=DIRECTION('',(0.,0.,1.));
#808=DIRECTION('center_axis',(0.,0.,1.));
#809=DIRECTION('ref_axis',(-1.,-2.37904933848248E-16,0.));
#810=DIRECTION('center_axis',(0.,0.,-1.));
#811=DIRECTION('ref_axis',(-1.,-2.37904933848248E-16,0.));
#812=DIRECTION('',(0.,0.,1.));
#813=DIRECTION('center_axis',(-4.44089209850063E-17,-1.,0.));
#814=DIRECTION('ref_axis',(1.,-4.44089209850063E-17,0.));
#815=DIRECTION('',(1.,-4.44089209850063E-17,0.));
#816=DIRECTION('',(0.,0.,1.));
#817=DIRECTION('',(1.,-4.44089209850063E-17,0.));
#818=DIRECTION('center_axis',(0.,0.,1.));
#819=DIRECTION('ref_axis',(-6.34413156928661E-16,-1.,0.));
#820=DIRECTION('center_axis',(0.,0.,-1.));
#821=DIRECTION('ref_axis',(-6.34413156928661E-16,-1.,0.));
#822=DIRECTION('',(0.,0.,1.));
#823=DIRECTION('center_axis',(1.,4.44089209850063E-16,0.));
#824=DIRECTION('ref_axis',(-4.44089209850063E-16,1.,0.));
#825=DIRECTION('',(-4.44089209850063E-16,1.,0.));
#826=DIRECTION('center_axis',(0.,0.,1.));
#827=DIRECTION('ref_axis',(1.,0.,0.));
#828=DIRECTION('center_axis',(0.,0.,1.));
#829=DIRECTION('ref_axis',(0.,1.,0.));
#830=DIRECTION('',(4.44089209850063E-16,-1.,0.));
#831=DIRECTION('center_axis',(0.,0.,1.));
#832=DIRECTION('ref_axis',(-1.,-2.22044604925031E-16,0.));
#833=DIRECTION('',(1.,8.88178419700125E-17,0.));
#834=DIRECTION('center_axis',(0.,0.,1.));
#835=DIRECTION('ref_axis',(0.,-1.,0.));
#836=DIRECTION('',(4.44089209850063E-16,1.,0.));
#837=DIRECTION('center_axis',(0.,0.,1.));
#838=DIRECTION('ref_axis',(1.,-5.55111512312578E-17,0.));
#839=DIRECTION('center_axis',(0.,0.,1.));
#840=DIRECTION('ref_axis',(0.707106781186548,0.707106781186547,0.));
#841=DIRECTION('',(0.,0.,-1.));
#842=DIRECTION('center_axis',(0.,0.,1.));
#843=DIRECTION('ref_axis',(0.707106781186548,0.707106781186547,0.));
#844=DIRECTION('center_axis',(0.,0.,1.));
#845=DIRECTION('ref_axis',(1.,0.,0.));
#846=DIRECTION('',(1.48029736616688E-16,1.,0.));
#847=DIRECTION('center_axis',(0.,0.,1.));
#848=DIRECTION('ref_axis',(0.707106781186547,-0.707106781186548,0.));
#849=DIRECTION('',(1.,1.26882631385732E-16,0.));
#850=DIRECTION('center_axis',(0.,0.,1.));
#851=DIRECTION('ref_axis',(-0.707106781186547,-0.707106781186548,0.));
#852=DIRECTION('',(1.48029736616688E-16,-1.,0.));
#853=DIRECTION('center_axis',(0.,0.,1.));
#854=DIRECTION('ref_axis',(-0.707106781186548,0.707106781186547,0.));
#855=DIRECTION('center_axis',(0.,0.,1.));
#856=DIRECTION('ref_axis',(1.,0.,0.));
#857=DIRECTION('center_axis',(0.,0.,1.));
#858=DIRECTION('ref_axis',(1.,0.,0.));
#859=DIRECTION('center_axis',(0.,0.,1.));
#860=DIRECTION('ref_axis',(0.707106781186547,-0.707106781186548,0.));
#861=DIRECTION('',(0.,0.,-1.));
#862=DIRECTION('',(0.,0.,1.));
#863=DIRECTION('center_axis',(1.26882631385732E-16,-1.,0.));
#864=DIRECTION('ref_axis',(1.,1.26882631385732E-16,0.));
#865=DIRECTION('',(0.,0.,1.));
#866=DIRECTION('center_axis',(0.,0.,1.));
#867=DIRECTION('ref_axis',(-0.707106781186547,-0.707106781186548,0.));
#868=DIRECTION('',(0.,0.,-1.));
#869=DIRECTION('center_axis',(0.,0.,1.));
#870=DIRECTION('ref_axis',(-0.707106781186548,0.707106781186547,0.));
#871=DIRECTION('',(0.,0.,1.));
#872=DIRECTION('center_axis',(0.,0.,-1.));
#873=DIRECTION('ref_axis',(1.,0.,0.));
#874=DIRECTION('',(0.,0.,-1.));
#875=DIRECTION('center_axis',(0.,0.,-1.));
#876=DIRECTION('ref_axis',(1.,0.,0.));
#877=DIRECTION('',(0.,0.,-1.));
#878=DIRECTION('center_axis',(-1.,-1.48029736616688E-16,0.));
#879=DIRECTION('ref_axis',(1.48029736616688E-16,-1.,0.));
#880=DIRECTION('center_axis',(1.,-1.48029736616688E-16,0.));
#881=DIRECTION('ref_axis',(1.48029736616688E-16,1.,0.));
#882=CARTESIAN_POINT('',(0.,0.,0.));
#883=CARTESIAN_POINT('Origin',(-2.7,0.,0.4));
#884=CARTESIAN_POINT('',(-2.7,-0.326312448846783,0.39651005032975));
#885=CARTESIAN_POINT('',(-2.37368755115322,-3.99617496002148E-17,0.39651005032975));
#886=CARTESIAN_POINT('Origin',(-2.7,0.,0.39651005032975));
#887=CARTESIAN_POINT('',(-2.27374846845131,-5.22007573742764E-17,0.3));
#888=CARTESIAN_POINT('Origin',(-2.27374846845131,-5.22007573742764E-17,
0.4));
#889=CARTESIAN_POINT('Origin',(-2.7,0.,0.3));
#890=CARTESIAN_POINT('Origin',(-2.7,0.,0.39651005032975));
#891=CARTESIAN_POINT('Origin',(-2.7,0.,-0.0250000000000001));
#892=CARTESIAN_POINT('',(-2.7,-0.3,1.15));
#893=CARTESIAN_POINT('',(-2.7,-0.341031904152804,-0.0250000000000001));
#894=CARTESIAN_POINT('Origin',(-2.7,0.,1.15));
#895=CARTESIAN_POINT('Origin',(-4.44089209850063E-16,0.,0.3));
#896=CARTESIAN_POINT('',(-3.2,-0.5,0.3));
#897=CARTESIAN_POINT('',(-2.5,-1.2,0.3));
#898=CARTESIAN_POINT('Origin',(-2.5,-0.5,0.3));
#899=CARTESIAN_POINT('',(2.5,-1.2,0.3));
#900=CARTESIAN_POINT('',(1.25,-1.2,0.3));
#901=CARTESIAN_POINT('',(3.2,-0.5,0.3));
#902=CARTESIAN_POINT('Origin',(2.5,-0.499999999999999,0.3));
#903=CARTESIAN_POINT('',(3.2,0.5,0.3));
#904=CARTESIAN_POINT('',(3.2,0.249999999999999,0.3));
#905=CARTESIAN_POINT('',(2.5,1.2,0.3));
#906=CARTESIAN_POINT('Origin',(2.5,0.5,0.3));
#907=CARTESIAN_POINT('',(-2.5,1.2,0.3));
#908=CARTESIAN_POINT('',(-1.25,1.2,0.3));
#909=CARTESIAN_POINT('',(-3.2,0.5,0.3));
#910=CARTESIAN_POINT('Origin',(-2.5,0.5,0.3));
#911=CARTESIAN_POINT('',(-3.2,-0.250000000000001,0.3));
#912=CARTESIAN_POINT('',(3.12625153154869,-5.22007573742764E-17,0.3));
#913=CARTESIAN_POINT('Origin',(2.7,0.,0.3));
#914=CARTESIAN_POINT('',(0.45,4.24605927005304E-17,0.3));
#915=CARTESIAN_POINT('Origin',(1.25,-5.55111512312578E-17,0.3));
#916=CARTESIAN_POINT('',(-2.05,1.53482895163046E-16,0.3));
#917=CARTESIAN_POINT('Origin',(-1.25,5.55111512312578E-17,0.3));
#918=CARTESIAN_POINT('Origin',(-4.44089209850063E-16,0.,0.3));
#919=CARTESIAN_POINT('',(-2.7,-0.135163194811015,0.3));
#920=CARTESIAN_POINT('Origin',(-2.7,0.,0.3));
#921=CARTESIAN_POINT('Origin',(-2.7,0.,-0.0250000000000001));
#922=CARTESIAN_POINT('',(-2.7,-0.15,1.15));
#923=CARTESIAN_POINT('Origin',(-2.7,0.,1.15));
#924=CARTESIAN_POINT('',(-2.7,-0.129490298709344,-0.0250000000000001));
#925=CARTESIAN_POINT('Origin',(-2.7,0.15,1.15));
#926=CARTESIAN_POINT('Origin',(2.7,0.,0.4));
#927=CARTESIAN_POINT('',(2.7,-0.326312448846783,0.39651005032975));
#928=CARTESIAN_POINT('',(3.02631244884678,-3.99617496002148E-17,0.39651005032975));
#929=CARTESIAN_POINT('Origin',(2.7,0.,0.39651005032975));
#930=CARTESIAN_POINT('Origin',(3.12625153154869,-5.22007573742764E-17,0.4));
#931=CARTESIAN_POINT('Origin',(2.7,0.,0.39651005032975));
#932=CARTESIAN_POINT('Origin',(2.7,0.,-0.0250000000000001));
#933=CARTESIAN_POINT('',(2.7,-0.3,1.15));
#934=CARTESIAN_POINT('',(2.7,-0.341031904152804,-0.0250000000000001));
#935=CARTESIAN_POINT('Origin',(2.7,0.,1.15));
#936=CARTESIAN_POINT('Origin',(-4.44089209850063E-16,0.,0.3));
#937=CARTESIAN_POINT('',(2.7,-0.135163194811015,0.3));
#938=CARTESIAN_POINT('Origin',(2.7,0.,0.3));
#939=CARTESIAN_POINT('Origin',(2.7,0.,-0.0250000000000001));
#940=CARTESIAN_POINT('',(2.7,-0.15,1.15));
#941=CARTESIAN_POINT('Origin',(2.7,0.,1.15));
#942=CARTESIAN_POINT('',(2.7,-0.129490298709344,-0.0250000000000001));
#943=CARTESIAN_POINT('Origin',(2.7,0.15,1.15));
#944=CARTESIAN_POINT('Origin',(1.,-1.2,0.8));
#945=CARTESIAN_POINT('',(-1.,1.5,0.8));
#946=CARTESIAN_POINT('',(1.,1.5,0.8));
#947=CARTESIAN_POINT('',(2.25,1.5,0.8));
#948=CARTESIAN_POINT('',(-1.,1.2,0.8));
#949=CARTESIAN_POINT('',(-1.,-1.2,0.8));
#950=CARTESIAN_POINT('',(1.,1.2,0.8));
#951=CARTESIAN_POINT('',(-0.75,1.2,0.8));
#952=CARTESIAN_POINT('',(1.,-1.2,0.8));
#953=CARTESIAN_POINT('Origin',(1.,-1.2,1.3));
#954=CARTESIAN_POINT('',(1.,1.5,1.3));
#955=CARTESIAN_POINT('',(1.,1.5,0.65));
#956=CARTESIAN_POINT('',(1.,1.2,1.3));
#957=CARTESIAN_POINT('',(1.,1.2,0.8));
#958=CARTESIAN_POINT('',(1.,-0.6,1.3));
#959=CARTESIAN_POINT('Origin',(-1.,-1.2,0.8));
#960=CARTESIAN_POINT('',(-1.,1.5,1.3));
#961=CARTESIAN_POINT('',(-1.,1.5,0.399999999999999));
#962=CARTESIAN_POINT('',(-1.,1.2,1.3));
#963=CARTESIAN_POINT('',(-1.,-0.6,1.3));
#964=CARTESIAN_POINT('',(-1.,1.2,0.55));
#965=CARTESIAN_POINT('Origin',(2.5,-1.2,0.3));
#966=CARTESIAN_POINT('',(2.5,-1.2,1.3));
#967=CARTESIAN_POINT('',(-2.5,-1.2,1.3));
#968=CARTESIAN_POINT('',(2.5,-1.2,1.3));
#969=CARTESIAN_POINT('',(2.5,-1.2,0.3));
#970=CARTESIAN_POINT('',(-2.5,-1.2,0.3));
#971=CARTESIAN_POINT('Origin',(3.5,1.5,0.));
#972=CARTESIAN_POINT('',(2.5,1.5,1.3));
#973=CARTESIAN_POINT('',(2.5,1.5,1.3));
#974=CARTESIAN_POINT('',(2.5,1.5,0.));
#975=CARTESIAN_POINT('',(2.5,1.5,0.));
#976=CARTESIAN_POINT('',(-2.5,1.5,0.));
#977=CARTESIAN_POINT('',(3.5,1.5,0.));
#978=CARTESIAN_POINT('',(-2.5,1.5,1.3));
#979=CARTESIAN_POINT('',(-2.5,1.5,0.));
#980=CARTESIAN_POINT('',(2.5,1.5,1.3));
#981=CARTESIAN_POINT('Origin',(-2.5,-0.5,0.3));
#982=CARTESIAN_POINT('',(-3.2,-0.5,1.3));
#983=CARTESIAN_POINT('',(-3.2,-0.5,0.3));
#984=CARTESIAN_POINT('Origin',(-2.5,-0.5,1.3));
#985=CARTESIAN_POINT('Origin',(2.5,-0.499999999999999,0.3));
#986=CARTESIAN_POINT('',(3.2,-0.5,1.3));
#987=CARTESIAN_POINT('Origin',(2.5,-0.499999999999999,1.3));
#988=CARTESIAN_POINT('',(3.2,-0.5,0.3));
#989=CARTESIAN_POINT('Origin',(3.2,0.5,0.3));
#990=CARTESIAN_POINT('',(3.2,0.5,1.3));
#991=CARTESIAN_POINT('',(3.2,0.5,1.3));
#992=CARTESIAN_POINT('',(3.2,0.5,0.3));
#993=CARTESIAN_POINT('Origin',(2.5,0.5,0.3));
#994=CARTESIAN_POINT('',(2.5,1.2,1.3));
#995=CARTESIAN_POINT('Origin',(2.5,0.5,1.3));
#996=CARTESIAN_POINT('',(2.5,1.2,0.3));
#997=CARTESIAN_POINT('Origin',(-2.5,1.2,0.3));
#998=CARTESIAN_POINT('',(-2.5,1.2,1.3));
#999=CARTESIAN_POINT('',(-2.5,1.2,1.3));
#1000=CARTESIAN_POINT('',(-2.5,1.2,0.3));
#1001=CARTESIAN_POINT('',(-2.5,1.2,1.3));
#1002=CARTESIAN_POINT('Origin',(-2.5,0.5,0.3));
#1003=CARTESIAN_POINT('',(-3.2,0.5,1.3));
#1004=CARTESIAN_POINT('Origin',(-2.5,0.5,1.3));
#1005=CARTESIAN_POINT('',(-3.2,0.5,0.3));
#1006=CARTESIAN_POINT('Origin',(-3.2,-0.5,0.3));
#1007=CARTESIAN_POINT('',(-3.2,-0.5,1.3));
#1008=CARTESIAN_POINT('Origin',(-4.44089209850063E-16,1.11022302462516E-16,
1.3));
#1009=CARTESIAN_POINT('',(-3.5,0.5,1.3));
#1010=CARTESIAN_POINT('Origin',(-2.5,0.5,1.3));
#1011=CARTESIAN_POINT('',(-3.5,-0.5,1.3));
#1012=CARTESIAN_POINT('',(-3.5,0.5,1.3));
#1013=CARTESIAN_POINT('',(-2.5,-1.5,1.3));
#1014=CARTESIAN_POINT('Origin',(-2.5,-0.5,1.3));
#1015=CARTESIAN_POINT('',(2.5,-1.5,1.3));
#1016=CARTESIAN_POINT('',(-2.5,-1.5,1.3));
#1017=CARTESIAN_POINT('',(3.5,-0.499999999999999,1.3));
#1018=CARTESIAN_POINT('Origin',(2.5,-0.499999999999999,1.3));
#1019=CARTESIAN_POINT('',(3.5,0.5,1.3));
#1020=CARTESIAN_POINT('',(3.5,-0.499999999999999,1.3));
#1021=CARTESIAN_POINT('Origin',(2.5,0.5,1.3));
#1022=CARTESIAN_POINT('Origin',(2.5,0.5,0.));
#1023=CARTESIAN_POINT('',(3.5,0.5,0.));
#1024=CARTESIAN_POINT('',(3.5,0.5,0.));
#1025=CARTESIAN_POINT('Origin',(2.5,0.5,0.));
#1026=CARTESIAN_POINT('Origin',(-4.44089209850063E-16,0.,0.));
#1027=CARTESIAN_POINT('',(3.5,-0.499999999999999,0.));
#1028=CARTESIAN_POINT('',(3.5,-1.5,0.));
#1029=CARTESIAN_POINT('',(2.5,-1.5,0.));
#1030=CARTESIAN_POINT('Origin',(2.5,-0.499999999999999,0.));
#1031=CARTESIAN_POINT('',(-2.5,-1.5,0.));
#1032=CARTESIAN_POINT('',(-3.5,-1.5,0.));
#1033=CARTESIAN_POINT('',(-3.5,-0.5,0.));
#1034=CARTESIAN_POINT('Origin',(-2.5,-0.5,0.));
#1035=CARTESIAN_POINT('',(-3.5,0.5,0.));
#1036=CARTESIAN_POINT('',(-3.5,1.5,0.));
#1037=CARTESIAN_POINT('Origin',(-2.5,0.5,0.));
#1038=CARTESIAN_POINT('',(0.45,4.24605927005304E-17,0.));
#1039=CARTESIAN_POINT('Origin',(1.25,-5.55111512312578E-17,0.));
#1040=CARTESIAN_POINT('',(-2.05,1.53482895163046E-16,0.));
#1041=CARTESIAN_POINT('Origin',(-1.25,5.55111512312578E-17,0.));
#1042=CARTESIAN_POINT('Origin',(2.5,-0.499999999999999,0.));
#1043=CARTESIAN_POINT('',(2.5,-1.5,0.));
#1044=CARTESIAN_POINT('',(3.5,-0.499999999999999,0.));
#1045=CARTESIAN_POINT('Origin',(-3.5,-1.5,0.));
#1046=CARTESIAN_POINT('',(-2.5,-1.5,0.));
#1047=CARTESIAN_POINT('Origin',(-2.5,-0.5,0.));
#1048=CARTESIAN_POINT('',(-3.5,-0.5,0.));
#1049=CARTESIAN_POINT('Origin',(-2.5,0.5,0.));
#1050=CARTESIAN_POINT('',(-3.5,0.5,0.));
#1051=CARTESIAN_POINT('Origin',(1.25,-5.55111512312578E-17,0.3));
#1052=CARTESIAN_POINT('',(0.45,4.24605927005304E-17,0.3));
#1053=CARTESIAN_POINT('Origin',(-1.25,5.55111512312578E-17,0.3));
#1054=CARTESIAN_POINT('',(-2.05,1.53482895163046E-16,0.3));
#1055=CARTESIAN_POINT('Origin',(-3.5,1.5,0.));
#1056=CARTESIAN_POINT('Origin',(3.5,-1.5,0.));
#1057=UNCERTAINTY_MEASURE_WITH_UNIT(LENGTH_MEASURE(0.001),#1061,
'DISTANCE_ACCURACY_VALUE',
'Maximum model space distance between geometric entities at asserted c
onnectivities');
#1058=UNCERTAINTY_MEASURE_WITH_UNIT(LENGTH_MEASURE(0.001),#1061,
'DISTANCE_ACCURACY_VALUE',
'Maximum model space distance between geometric entities at asserted c
onnectivities');
#1059=(
GEOMETRIC_REPRESENTATION_CONTEXT(3)
GLOBAL_UNCERTAINTY_ASSIGNED_CONTEXT((#1057))
GLOBAL_UNIT_ASSIGNED_CONTEXT((#1061,#1062,#1063))
REPRESENTATION_CONTEXT('','3D')
);
#1060=(
GEOMETRIC_REPRESENTATION_CONTEXT(3)
GLOBAL_UNCERTAINTY_ASSIGNED_CONTEXT((#1058))
GLOBAL_UNIT_ASSIGNED_CONTEXT((#1061,#1062,#1063))
REPRESENTATION_CONTEXT('','3D')
);
#1061=(
LENGTH_UNIT()
NAMED_UNIT(*)
SI_UNIT(.CENTI.,.METRE.)
);
#1062=(
NAMED_UNIT(*)
PLANE_ANGLE_UNIT()
SI_UNIT($,.RADIAN.)
);
#1063=(
NAMED_UNIT(*)
SI_UNIT($,.STERADIAN.)
SOLID_ANGLE_UNIT()
);
#1064=SHAPE_DEFINITION_REPRESENTATION(#1065,#1066);
#1065=PRODUCT_DEFINITION_SHAPE('',$,#1068);
#1066=SHAPE_REPRESENTATION('',(#625),#1059);
#1067=PRODUCT_DEFINITION_CONTEXT('part definition',#1072,'design');
#1068=PRODUCT_DEFINITION('sensor_cover_ultrasonic',
'sensor_cover_ultrasonic',#1069,#1067);
#1069=PRODUCT_DEFINITION_FORMATION('',$,#1074);
#1070=PRODUCT_RELATED_PRODUCT_CATEGORY('sensor_cover_ultrasonic',
'sensor_cover_ultrasonic',(#1074));
#1071=APPLICATION_PROTOCOL_DEFINITION('international standard',
'automotive_design',2009,#1072);
#1072=APPLICATION_CONTEXT(
'Core Data for Automotive Mechanical Design Process');
#1073=PRODUCT_CONTEXT('part definition',#1072,'mechanical');
#1074=PRODUCT('sensor_cover_ultrasonic','sensor_cover_ultrasonic',$,(#1073));
#1075=PRESENTATION_STYLE_ASSIGNMENT((#1076));
#1076=SURFACE_STYLE_USAGE(.BOTH.,#1079);
#1077=SURFACE_STYLE_RENDERING_WITH_PROPERTIES($,#1083,(#1078));
#1078=SURFACE_STYLE_TRANSPARENT(0.);
#1079=SURFACE_SIDE_STYLE('',(#1080,#1077));
#1080=SURFACE_STYLE_FILL_AREA(#1081);
#1081=FILL_AREA_STYLE('',(#1082));
#1082=FILL_AREA_STYLE_COLOUR('',#1083);
#1083=COLOUR_RGB('',0.749019607843137,0.749019607843137,0.749019607843137);
ENDSEC;
END-ISO-10303-21;
