ISO-10303-21;
HEADER;
/* Generated by software containing ST-Developer
 * from STEP Tools, Inc. (www.steptools.com) 
 */

FILE_DESCRIPTION(
/* description */ (''),
/* implementation_level */ '2;1');

FILE_NAME(
/* name */ 'sensor_cover_ultrasonic_2.stp',
/* time_stamp */ '2026-04-09T00:26:15+05:30',
/* author */ ('Kartik'),
/* organization */ (''),
/* preprocessor_version */ 'ST-DEVELOPER v20.1',
/* originating_system */ 'Autodesk Inventor 2026',
/* authorisation */ '');

FILE_SCHEMA (('AUTOMOTIVE_DESIGN { 1 0 10303 214 3 1 1 }'));
ENDSEC;

DATA;
#10=MECHANICAL_DESIGN_GEOMETRIC_PRESENTATION_REPRESENTATION('',(#13),#1188);
#11=SHAPE_REPRESENTATION_RELATIONSHIP('SRR','None',#1194,#12);
#12=ADVANCED_BREP_SHAPE_REPRESENTATION('',(#14),#1187);
#13=STYLED_ITEM('',(#1203),#14);
#14=MANIFOLD_SOLID_BREP('Solid1',#697);
#15=FACE_BOUND('',#86,.T.);
#16=FACE_BOUND('',#91,.T.);
#17=FACE_BOUND('',#98,.T.);
#18=FACE_BOUND('',#101,.T.);
#19=FACE_BOUND('',#115,.T.);
#20=FACE_BOUND('',#122,.T.);
#21=FACE_BOUND('',#123,.T.);
#22=FACE_BOUND('',#124,.T.);
#23=FACE_BOUND('',#125,.T.);
#24=FACE_BOUND('',#130,.T.);
#25=FACE_BOUND('',#131,.T.);
#26=PLANE('',#717);
#27=PLANE('',#720);
#28=PLANE('',#726);
#29=PLANE('',#729);
#30=PLANE('',#736);
#31=PLANE('',#737);
#32=PLANE('',#738);
#33=PLANE('',#739);
#34=PLANE('',#740);
#35=PLANE('',#741);
#36=PLANE('',#751);
#37=PLANE('',#755);
#38=PLANE('',#759);
#39=PLANE('',#763);
#40=PLANE('',#764);
#41=PLANE('',#771);
#42=PLANE('',#774);
#43=PLANE('',#777);
#44=PLANE('',#780);
#45=PLANE('',#781);
#46=PLANE('',#782);
#47=FACE_OUTER_BOUND('',#84,.T.);
#48=FACE_OUTER_BOUND('',#85,.T.);
#49=FACE_OUTER_BOUND('',#87,.T.);
#50=FACE_OUTER_BOUND('',#88,.T.);
#51=FACE_OUTER_BOUND('',#89,.T.);
#52=FACE_OUTER_BOUND('',#90,.T.);
#53=FACE_OUTER_BOUND('',#92,.T.);
#54=FACE_OUTER_BOUND('',#93,.T.);
#55=FACE_OUTER_BOUND('',#94,.T.);
#56=FACE_OUTER_BOUND('',#95,.T.);
#57=FACE_OUTER_BOUND('',#96,.T.);
#58=FACE_OUTER_BOUND('',#97,.T.);
#59=FACE_OUTER_BOUND('',#99,.T.);
#60=FACE_OUTER_BOUND('',#100,.T.);
#61=FACE_OUTER_BOUND('',#102,.T.);
#62=FACE_OUTER_BOUND('',#103,.T.);
#63=FACE_OUTER_BOUND('',#104,.T.);
#64=FACE_OUTER_BOUND('',#105,.T.);
#65=FACE_OUTER_BOUND('',#106,.T.);
#66=FACE_OUTER_BOUND('',#107,.T.);
#67=FACE_OUTER_BOUND('',#108,.T.);
#68=FACE_OUTER_BOUND('',#109,.T.);
#69=FACE_OUTER_BOUND('',#110,.T.);
#70=FACE_OUTER_BOUND('',#111,.T.);
#71=FACE_OUTER_BOUND('',#112,.T.);
#72=FACE_OUTER_BOUND('',#113,.T.);
#73=FACE_OUTER_BOUND('',#114,.T.);
#74=FACE_OUTER_BOUND('',#116,.T.);
#75=FACE_OUTER_BOUND('',#117,.T.);
#76=FACE_OUTER_BOUND('',#118,.T.);
#77=FACE_OUTER_BOUND('',#119,.T.);
#78=FACE_OUTER_BOUND('',#120,.T.);
#79=FACE_OUTER_BOUND('',#121,.T.);
#80=FACE_OUTER_BOUND('',#126,.T.);
#81=FACE_OUTER_BOUND('',#127,.T.);
#82=FACE_OUTER_BOUND('',#128,.T.);
#83=FACE_OUTER_BOUND('',#129,.T.);
#84=EDGE_LOOP('',(#452,#453,#454,#455));
#85=EDGE_LOOP('',(#456,#457,#458,#459,#460,#461));
#86=EDGE_LOOP('',(#462));
#87=EDGE_LOOP('',(#463,#464,#465,#466));
#88=EDGE_LOOP('',(#467,#468,#469,#470));
#89=EDGE_LOOP('',(#471,#472,#473,#474));
#90=EDGE_LOOP('',(#475,#476,#477,#478,#479,#480));
#91=EDGE_LOOP('',(#481));
#92=EDGE_LOOP('',(#482,#483,#484,#485));
#93=EDGE_LOOP('',(#486,#487,#488,#489));
#94=EDGE_LOOP('',(#490,#491,#492,#493));
#95=EDGE_LOOP('',(#494,#495,#496,#497));
#96=EDGE_LOOP('',(#498,#499,#500,#501));
#97=EDGE_LOOP('',(#502,#503,#504,#505,#506,#507));
#98=EDGE_LOOP('',(#508));
#99=EDGE_LOOP('',(#509,#510,#511,#512));
#100=EDGE_LOOP('',(#513,#514,#515,#516,#517,#518));
#101=EDGE_LOOP('',(#519));
#102=EDGE_LOOP('',(#520,#521,#522,#523));
#103=EDGE_LOOP('',(#524,#525,#526,#527));
#104=EDGE_LOOP('',(#528,#529,#530,#531));
#105=EDGE_LOOP('',(#532,#533,#534,#535));
#106=EDGE_LOOP('',(#536,#537,#538,#539));
#107=EDGE_LOOP('',(#540,#541,#542,#543));
#108=EDGE_LOOP('',(#544,#545,#546,#547));
#109=EDGE_LOOP('',(#548,#549,#550,#551));
#110=EDGE_LOOP('',(#552,#553,#554,#555));
#111=EDGE_LOOP('',(#556,#557,#558,#559));
#112=EDGE_LOOP('',(#560,#561,#562,#563));
#113=EDGE_LOOP('',(#564,#565,#566,#567));
#114=EDGE_LOOP('',(#568,#569,#570,#571,#572,#573,#574,#575));
#115=EDGE_LOOP('',(#576,#577,#578,#579,#580,#581,#582,#583));
#116=EDGE_LOOP('',(#584,#585,#586,#587));
#117=EDGE_LOOP('',(#588,#589,#590,#591));
#118=EDGE_LOOP('',(#592,#593,#594,#595));
#119=EDGE_LOOP('',(#596,#597,#598,#599));
#120=EDGE_LOOP('',(#600,#601,#602,#603));
#121=EDGE_LOOP('',(#604,#605,#606,#607,#608,#609,#610,#611));
#122=EDGE_LOOP('',(#612,#613,#614,#615));
#123=EDGE_LOOP('',(#616,#617,#618,#619));
#124=EDGE_LOOP('',(#620));
#125=EDGE_LOOP('',(#621));
#126=EDGE_LOOP('',(#622,#623,#624,#625));
#127=EDGE_LOOP('',(#626,#627,#628,#629));
#128=EDGE_LOOP('',(#630,#631,#632,#633));
#129=EDGE_LOOP('',(#634,#635,#636,#637,#638,#639,#640,#641));
#130=EDGE_LOOP('',(#642));
#131=EDGE_LOOP('',(#643));
#132=LINE('',#993,#196);
#133=LINE('',#996,#197);
#134=LINE('',#999,#198);
#135=LINE('',#1003,#199);
#136=LINE('',#1005,#200);
#137=LINE('',#1006,#201);
#138=LINE('',#1011,#202);
#139=LINE('',#1012,#203);
#140=LINE('',#1016,#204);
#141=LINE('',#1022,#205);
#142=LINE('',#1025,#206);
#143=LINE('',#1028,#207);
#144=LINE('',#1032,#208);
#145=LINE('',#1034,#209);
#146=LINE('',#1035,#210);
#147=LINE('',#1040,#211);
#148=LINE('',#1041,#212);
#149=LINE('',#1045,#213);
#150=LINE('',#1049,#214);
#151=LINE('',#1052,#215);
#152=LINE('',#1056,#216);
#153=LINE('',#1057,#217);
#154=LINE('',#1060,#218);
#155=LINE('',#1061,#219);
#156=LINE('',#1063,#220);
#157=LINE('',#1066,#221);
#158=LINE('',#1068,#222);
#159=LINE('',#1069,#223);
#160=LINE('',#1071,#224);
#161=LINE('',#1073,#225);
#162=LINE('',#1078,#226);
#163=LINE('',#1084,#227);
#164=LINE('',#1091,#228);
#165=LINE('',#1094,#229);
#166=LINE('',#1097,#230);
#167=LINE('',#1099,#231);
#168=LINE('',#1100,#232);
#169=LINE('',#1105,#233);
#170=LINE('',#1109,#234);
#171=LINE('',#1111,#235);
#172=LINE('',#1112,#236);
#173=LINE('',#1117,#237);
#174=LINE('',#1121,#238);
#175=LINE('',#1123,#239);
#176=LINE('',#1124,#240);
#177=LINE('',#1129,#241);
#178=LINE('',#1132,#242);
#179=LINE('',#1133,#243);
#180=LINE('',#1137,#244);
#181=LINE('',#1141,#245);
#182=LINE('',#1145,#246);
#183=LINE('',#1149,#247);
#184=LINE('',#1153,#248);
#185=LINE('',#1156,#249);
#186=LINE('',#1159,#250);
#187=LINE('',#1160,#251);
#188=LINE('',#1163,#252);
#189=LINE('',#1167,#253);
#190=LINE('',#1168,#254);
#191=LINE('',#1171,#255);
#192=LINE('',#1175,#256);
#193=LINE('',#1178,#257);
#194=LINE('',#1180,#258);
#195=LINE('',#1181,#259);
#196=VECTOR('',#789,1.);
#197=VECTOR('',#792,1.);
#198=VECTOR('',#795,1.);
#199=VECTOR('',#798,1.);
#200=VECTOR('',#799,1.);
#201=VECTOR('',#800,1.);
#202=VECTOR('',#805,1.);
#203=VECTOR('',#806,1.);
#204=VECTOR('',#811,1.);
#205=VECTOR('',#816,1.);
#206=VECTOR('',#819,1.);
#207=VECTOR('',#822,1.);
#208=VECTOR('',#825,1.);
#209=VECTOR('',#826,1.);
#210=VECTOR('',#827,1.);
#211=VECTOR('',#832,1.);
#212=VECTOR('',#833,1.);
#213=VECTOR('',#838,1.);
#214=VECTOR('',#843,0.3);
#215=VECTOR('',#846,0.3);
#216=VECTOR('',#851,1.);
#217=VECTOR('',#852,1.);
#218=VECTOR('',#855,1.);
#219=VECTOR('',#856,1.);
#220=VECTOR('',#859,1.);
#221=VECTOR('',#862,1.);
#222=VECTOR('',#863,1.);
#223=VECTOR('',#864,1.);
#224=VECTOR('',#867,1.);
#225=VECTOR('',#870,1.);
#226=VECTOR('',#875,0.16);
#227=VECTOR('',#882,0.16);
#228=VECTOR('',#889,1.);
#229=VECTOR('',#892,1.);
#230=VECTOR('',#895,1.);
#231=VECTOR('',#896,1.);
#232=VECTOR('',#897,1.);
#233=VECTOR('',#902,1.);
#234=VECTOR('',#907,1.);
#235=VECTOR('',#908,1.);
#236=VECTOR('',#909,1.);
#237=VECTOR('',#914,1.);
#238=VECTOR('',#919,1.);
#239=VECTOR('',#920,1.);
#240=VECTOR('',#921,1.);
#241=VECTOR('',#926,1.);
#242=VECTOR('',#931,1.);
#243=VECTOR('',#932,1.);
#244=VECTOR('',#935,1.);
#245=VECTOR('',#938,1.);
#246=VECTOR('',#941,1.);
#247=VECTOR('',#944,1.);
#248=VECTOR('',#949,1.);
#249=VECTOR('',#952,1.);
#250=VECTOR('',#955,1.);
#251=VECTOR('',#956,1.);
#252=VECTOR('',#959,1.);
#253=VECTOR('',#964,1.);
#254=VECTOR('',#965,1.);
#255=VECTOR('',#968,1.);
#256=VECTOR('',#973,1.);
#257=VECTOR('',#976,1.);
#258=VECTOR('',#979,1.);
#259=VECTOR('',#980,1.);
#260=CIRCLE('',#715,0.5);
#261=CIRCLE('',#716,0.5);
#262=CIRCLE('',#718,0.5);
#263=CIRCLE('',#719,0.3);
#264=CIRCLE('',#722,0.5);
#265=CIRCLE('',#724,0.5);
#266=CIRCLE('',#725,0.5);
#267=CIRCLE('',#727,0.5);
#268=CIRCLE('',#728,0.3);
#269=CIRCLE('',#731,0.5);
#270=CIRCLE('',#733,0.3);
#271=CIRCLE('',#735,0.3);
#272=CIRCLE('',#743,0.16);
#273=CIRCLE('',#744,0.16);
#274=CIRCLE('',#746,0.16);
#275=CIRCLE('',#747,0.16);
#276=CIRCLE('',#749,0.7);
#277=CIRCLE('',#750,0.7);
#278=CIRCLE('',#753,0.7);
#279=CIRCLE('',#754,0.7);
#280=CIRCLE('',#757,0.7);
#281=CIRCLE('',#758,0.7);
#282=CIRCLE('',#761,0.7);
#283=CIRCLE('',#762,0.7);
#284=CIRCLE('',#765,1.);
#285=CIRCLE('',#766,1.);
#286=CIRCLE('',#767,1.);
#287=CIRCLE('',#768,1.);
#288=CIRCLE('',#770,1.);
#289=CIRCLE('',#773,1.);
#290=CIRCLE('',#776,1.);
#291=CIRCLE('',#778,1.);
#292=VERTEX_POINT('',#989);
#293=VERTEX_POINT('',#990);
#294=VERTEX_POINT('',#992);
#295=VERTEX_POINT('',#994);
#296=VERTEX_POINT('',#998);
#297=VERTEX_POINT('',#1000);
#298=VERTEX_POINT('',#1002);
#299=VERTEX_POINT('',#1004);
#300=VERTEX_POINT('',#1007);
#301=VERTEX_POINT('',#1010);
#302=VERTEX_POINT('',#1014);
#303=VERTEX_POINT('',#1018);
#304=VERTEX_POINT('',#1019);
#305=VERTEX_POINT('',#1021);
#306=VERTEX_POINT('',#1023);
#307=VERTEX_POINT('',#1027);
#308=VERTEX_POINT('',#1029);
#309=VERTEX_POINT('',#1031);
#310=VERTEX_POINT('',#1033);
#311=VERTEX_POINT('',#1036);
#312=VERTEX_POINT('',#1039);
#313=VERTEX_POINT('',#1043);
#314=VERTEX_POINT('',#1047);
#315=VERTEX_POINT('',#1051);
#316=VERTEX_POINT('',#1055);
#317=VERTEX_POINT('',#1059);
#318=VERTEX_POINT('',#1065);
#319=VERTEX_POINT('',#1067);
#320=VERTEX_POINT('',#1075);
#321=VERTEX_POINT('',#1077);
#322=VERTEX_POINT('',#1081);
#323=VERTEX_POINT('',#1083);
#324=VERTEX_POINT('',#1087);
#325=VERTEX_POINT('',#1088);
#326=VERTEX_POINT('',#1090);
#327=VERTEX_POINT('',#1092);
#328=VERTEX_POINT('',#1096);
#329=VERTEX_POINT('',#1098);
#330=VERTEX_POINT('',#1102);
#331=VERTEX_POINT('',#1104);
#332=VERTEX_POINT('',#1108);
#333=VERTEX_POINT('',#1110);
#334=VERTEX_POINT('',#1114);
#335=VERTEX_POINT('',#1116);
#336=VERTEX_POINT('',#1120);
#337=VERTEX_POINT('',#1122);
#338=VERTEX_POINT('',#1126);
#339=VERTEX_POINT('',#1128);
#340=VERTEX_POINT('',#1135);
#341=VERTEX_POINT('',#1136);
#342=VERTEX_POINT('',#1138);
#343=VERTEX_POINT('',#1140);
#344=VERTEX_POINT('',#1142);
#345=VERTEX_POINT('',#1144);
#346=VERTEX_POINT('',#1146);
#347=VERTEX_POINT('',#1148);
#348=VERTEX_POINT('',#1152);
#349=VERTEX_POINT('',#1154);
#350=VERTEX_POINT('',#1158);
#351=VERTEX_POINT('',#1162);
#352=VERTEX_POINT('',#1166);
#353=VERTEX_POINT('',#1170);
#354=VERTEX_POINT('',#1174);
#355=VERTEX_POINT('',#1176);
#356=EDGE_CURVE('',#292,#293,#260,.T.);
#357=EDGE_CURVE('',#293,#294,#132,.T.);
#358=EDGE_CURVE('',#294,#295,#261,.T.);
#359=EDGE_CURVE('',#295,#292,#133,.T.);
#360=EDGE_CURVE('',#296,#294,#134,.T.);
#361=EDGE_CURVE('',#297,#296,#262,.T.);
#362=EDGE_CURVE('',#298,#297,#135,.T.);
#363=EDGE_CURVE('',#299,#298,#136,.T.);
#364=EDGE_CURVE('',#299,#295,#137,.T.);
#365=EDGE_CURVE('',#300,#300,#263,.T.);
#366=EDGE_CURVE('',#293,#301,#138,.T.);
#367=EDGE_CURVE('',#296,#301,#139,.T.);
#368=EDGE_CURVE('',#301,#302,#264,.T.);
#369=EDGE_CURVE('',#302,#297,#140,.T.);
#370=EDGE_CURVE('',#303,#304,#265,.T.);
#371=EDGE_CURVE('',#304,#305,#141,.T.);
#372=EDGE_CURVE('',#305,#306,#266,.T.);
#373=EDGE_CURVE('',#306,#303,#142,.T.);
#374=EDGE_CURVE('',#307,#305,#143,.T.);
#375=EDGE_CURVE('',#308,#307,#267,.T.);
#376=EDGE_CURVE('',#309,#308,#144,.T.);
#377=EDGE_CURVE('',#310,#309,#145,.T.);
#378=EDGE_CURVE('',#310,#306,#146,.T.);
#379=EDGE_CURVE('',#311,#311,#268,.T.);
#380=EDGE_CURVE('',#304,#312,#147,.T.);
#381=EDGE_CURVE('',#307,#312,#148,.T.);
#382=EDGE_CURVE('',#312,#313,#269,.T.);
#383=EDGE_CURVE('',#313,#308,#149,.T.);
#384=EDGE_CURVE('',#314,#314,#270,.T.);
#385=EDGE_CURVE('',#314,#311,#150,.T.);
#386=EDGE_CURVE('',#300,#315,#151,.T.);
#387=EDGE_CURVE('',#315,#315,#271,.T.);
#388=EDGE_CURVE('',#316,#302,#152,.T.);
#389=EDGE_CURVE('',#298,#316,#153,.T.);
#390=EDGE_CURVE('',#317,#292,#154,.T.);
#391=EDGE_CURVE('',#316,#317,#155,.T.);
#392=EDGE_CURVE('',#317,#299,#156,.T.);
#393=EDGE_CURVE('',#318,#303,#157,.T.);
#394=EDGE_CURVE('',#319,#318,#158,.T.);
#395=EDGE_CURVE('',#319,#313,#159,.T.);
#396=EDGE_CURVE('',#318,#310,#160,.T.);
#397=EDGE_CURVE('',#309,#319,#161,.T.);
#398=EDGE_CURVE('',#320,#320,#272,.T.);
#399=EDGE_CURVE('',#320,#321,#162,.T.);
#400=EDGE_CURVE('',#321,#321,#273,.T.);
#401=EDGE_CURVE('',#322,#322,#274,.T.);
#402=EDGE_CURVE('',#322,#323,#163,.T.);
#403=EDGE_CURVE('',#323,#323,#275,.T.);
#404=EDGE_CURVE('',#324,#325,#276,.T.);
#405=EDGE_CURVE('',#324,#326,#164,.T.);
#406=EDGE_CURVE('',#326,#327,#277,.T.);
#407=EDGE_CURVE('',#325,#327,#165,.T.);
#408=EDGE_CURVE('',#328,#324,#166,.T.);
#409=EDGE_CURVE('',#328,#329,#167,.T.);
#410=EDGE_CURVE('',#329,#326,#168,.T.);
#411=EDGE_CURVE('',#330,#328,#278,.T.);
#412=EDGE_CURVE('',#330,#331,#169,.T.);
#413=EDGE_CURVE('',#331,#329,#279,.T.);
#414=EDGE_CURVE('',#332,#330,#170,.T.);
#415=EDGE_CURVE('',#332,#333,#171,.T.);
#416=EDGE_CURVE('',#333,#331,#172,.T.);
#417=EDGE_CURVE('',#334,#332,#280,.T.);
#418=EDGE_CURVE('',#334,#335,#173,.T.);
#419=EDGE_CURVE('',#335,#333,#281,.T.);
#420=EDGE_CURVE('',#336,#334,#174,.T.);
#421=EDGE_CURVE('',#336,#337,#175,.T.);
#422=EDGE_CURVE('',#337,#335,#176,.T.);
#423=EDGE_CURVE('',#338,#336,#282,.T.);
#424=EDGE_CURVE('',#338,#339,#177,.T.);
#425=EDGE_CURVE('',#339,#337,#283,.T.);
#426=EDGE_CURVE('',#325,#338,#178,.T.);
#427=EDGE_CURVE('',#327,#339,#179,.T.);
#428=EDGE_CURVE('',#340,#341,#180,.T.);
#429=EDGE_CURVE('',#342,#340,#284,.T.);
#430=EDGE_CURVE('',#343,#342,#181,.T.);
#431=EDGE_CURVE('',#344,#343,#285,.T.);
#432=EDGE_CURVE('',#345,#344,#182,.T.);
#433=EDGE_CURVE('',#346,#345,#286,.T.);
#434=EDGE_CURVE('',#347,#346,#183,.T.);
#435=EDGE_CURVE('',#341,#347,#287,.T.);
#436=EDGE_CURVE('',#343,#348,#184,.T.);
#437=EDGE_CURVE('',#348,#349,#288,.T.);
#438=EDGE_CURVE('',#349,#344,#185,.T.);
#439=EDGE_CURVE('',#350,#342,#186,.T.);
#440=EDGE_CURVE('',#350,#348,#187,.T.);
#441=EDGE_CURVE('',#340,#351,#188,.T.);
#442=EDGE_CURVE('',#351,#350,#289,.T.);
#443=EDGE_CURVE('',#352,#341,#189,.T.);
#444=EDGE_CURVE('',#352,#351,#190,.T.);
#445=EDGE_CURVE('',#347,#353,#191,.T.);
#446=EDGE_CURVE('',#353,#352,#290,.T.);
#447=EDGE_CURVE('',#354,#353,#192,.T.);
#448=EDGE_CURVE('',#355,#354,#291,.T.);
#449=EDGE_CURVE('',#349,#355,#193,.T.);
#450=EDGE_CURVE('',#345,#355,#194,.T.);
#451=EDGE_CURVE('',#354,#346,#195,.T.);
#452=ORIENTED_EDGE('',*,*,#356,.T.);
#453=ORIENTED_EDGE('',*,*,#357,.T.);
#454=ORIENTED_EDGE('',*,*,#358,.T.);
#455=ORIENTED_EDGE('',*,*,#359,.T.);
#456=ORIENTED_EDGE('',*,*,#358,.F.);
#457=ORIENTED_EDGE('',*,*,#360,.F.);
#458=ORIENTED_EDGE('',*,*,#361,.F.);
#459=ORIENTED_EDGE('',*,*,#362,.F.);
#460=ORIENTED_EDGE('',*,*,#363,.F.);
#461=ORIENTED_EDGE('',*,*,#364,.T.);
#462=ORIENTED_EDGE('',*,*,#365,.T.);
#463=ORIENTED_EDGE('',*,*,#357,.F.);
#464=ORIENTED_EDGE('',*,*,#366,.T.);
#465=ORIENTED_EDGE('',*,*,#367,.F.);
#466=ORIENTED_EDGE('',*,*,#360,.T.);
#467=ORIENTED_EDGE('',*,*,#361,.T.);
#468=ORIENTED_EDGE('',*,*,#367,.T.);
#469=ORIENTED_EDGE('',*,*,#368,.T.);
#470=ORIENTED_EDGE('',*,*,#369,.T.);
#471=ORIENTED_EDGE('',*,*,#370,.T.);
#472=ORIENTED_EDGE('',*,*,#371,.T.);
#473=ORIENTED_EDGE('',*,*,#372,.T.);
#474=ORIENTED_EDGE('',*,*,#373,.T.);
#475=ORIENTED_EDGE('',*,*,#372,.F.);
#476=ORIENTED_EDGE('',*,*,#374,.F.);
#477=ORIENTED_EDGE('',*,*,#375,.F.);
#478=ORIENTED_EDGE('',*,*,#376,.F.);
#479=ORIENTED_EDGE('',*,*,#377,.F.);
#480=ORIENTED_EDGE('',*,*,#378,.T.);
#481=ORIENTED_EDGE('',*,*,#379,.T.);
#482=ORIENTED_EDGE('',*,*,#371,.F.);
#483=ORIENTED_EDGE('',*,*,#380,.T.);
#484=ORIENTED_EDGE('',*,*,#381,.F.);
#485=ORIENTED_EDGE('',*,*,#374,.T.);
#486=ORIENTED_EDGE('',*,*,#375,.T.);
#487=ORIENTED_EDGE('',*,*,#381,.T.);
#488=ORIENTED_EDGE('',*,*,#382,.T.);
#489=ORIENTED_EDGE('',*,*,#383,.T.);
#490=ORIENTED_EDGE('',*,*,#384,.F.);
#491=ORIENTED_EDGE('',*,*,#385,.T.);
#492=ORIENTED_EDGE('',*,*,#379,.F.);
#493=ORIENTED_EDGE('',*,*,#385,.F.);
#494=ORIENTED_EDGE('',*,*,#365,.F.);
#495=ORIENTED_EDGE('',*,*,#386,.T.);
#496=ORIENTED_EDGE('',*,*,#387,.F.);
#497=ORIENTED_EDGE('',*,*,#386,.F.);
#498=ORIENTED_EDGE('',*,*,#369,.F.);
#499=ORIENTED_EDGE('',*,*,#388,.F.);
#500=ORIENTED_EDGE('',*,*,#389,.F.);
#501=ORIENTED_EDGE('',*,*,#362,.T.);
#502=ORIENTED_EDGE('',*,*,#356,.F.);
#503=ORIENTED_EDGE('',*,*,#390,.F.);
#504=ORIENTED_EDGE('',*,*,#391,.F.);
#505=ORIENTED_EDGE('',*,*,#388,.T.);
#506=ORIENTED_EDGE('',*,*,#368,.F.);
#507=ORIENTED_EDGE('',*,*,#366,.F.);
#508=ORIENTED_EDGE('',*,*,#387,.T.);
#509=ORIENTED_EDGE('',*,*,#359,.F.);
#510=ORIENTED_EDGE('',*,*,#364,.F.);
#511=ORIENTED_EDGE('',*,*,#392,.F.);
#512=ORIENTED_EDGE('',*,*,#390,.T.);
#513=ORIENTED_EDGE('',*,*,#370,.F.);
#514=ORIENTED_EDGE('',*,*,#393,.F.);
#515=ORIENTED_EDGE('',*,*,#394,.F.);
#516=ORIENTED_EDGE('',*,*,#395,.T.);
#517=ORIENTED_EDGE('',*,*,#382,.F.);
#518=ORIENTED_EDGE('',*,*,#380,.F.);
#519=ORIENTED_EDGE('',*,*,#384,.T.);
#520=ORIENTED_EDGE('',*,*,#373,.F.);
#521=ORIENTED_EDGE('',*,*,#378,.F.);
#522=ORIENTED_EDGE('',*,*,#396,.F.);
#523=ORIENTED_EDGE('',*,*,#393,.T.);
#524=ORIENTED_EDGE('',*,*,#383,.F.);
#525=ORIENTED_EDGE('',*,*,#395,.F.);
#526=ORIENTED_EDGE('',*,*,#397,.F.);
#527=ORIENTED_EDGE('',*,*,#376,.T.);
#528=ORIENTED_EDGE('',*,*,#398,.F.);
#529=ORIENTED_EDGE('',*,*,#399,.T.);
#530=ORIENTED_EDGE('',*,*,#400,.F.);
#531=ORIENTED_EDGE('',*,*,#399,.F.);
#532=ORIENTED_EDGE('',*,*,#401,.F.);
#533=ORIENTED_EDGE('',*,*,#402,.T.);
#534=ORIENTED_EDGE('',*,*,#403,.F.);
#535=ORIENTED_EDGE('',*,*,#402,.F.);
#536=ORIENTED_EDGE('',*,*,#404,.F.);
#537=ORIENTED_EDGE('',*,*,#405,.T.);
#538=ORIENTED_EDGE('',*,*,#406,.T.);
#539=ORIENTED_EDGE('',*,*,#407,.F.);
#540=ORIENTED_EDGE('',*,*,#408,.F.);
#541=ORIENTED_EDGE('',*,*,#409,.T.);
#542=ORIENTED_EDGE('',*,*,#410,.T.);
#543=ORIENTED_EDGE('',*,*,#405,.F.);
#544=ORIENTED_EDGE('',*,*,#411,.F.);
#545=ORIENTED_EDGE('',*,*,#412,.T.);
#546=ORIENTED_EDGE('',*,*,#413,.T.);
#547=ORIENTED_EDGE('',*,*,#409,.F.);
#548=ORIENTED_EDGE('',*,*,#414,.F.);
#549=ORIENTED_EDGE('',*,*,#415,.T.);
#550=ORIENTED_EDGE('',*,*,#416,.T.);
#551=ORIENTED_EDGE('',*,*,#412,.F.);
#552=ORIENTED_EDGE('',*,*,#417,.F.);
#553=ORIENTED_EDGE('',*,*,#418,.T.);
#554=ORIENTED_EDGE('',*,*,#419,.T.);
#555=ORIENTED_EDGE('',*,*,#415,.F.);
#556=ORIENTED_EDGE('',*,*,#420,.F.);
#557=ORIENTED_EDGE('',*,*,#421,.T.);
#558=ORIENTED_EDGE('',*,*,#422,.T.);
#559=ORIENTED_EDGE('',*,*,#418,.F.);
#560=ORIENTED_EDGE('',*,*,#423,.F.);
#561=ORIENTED_EDGE('',*,*,#424,.T.);
#562=ORIENTED_EDGE('',*,*,#425,.T.);
#563=ORIENTED_EDGE('',*,*,#421,.F.);
#564=ORIENTED_EDGE('',*,*,#426,.F.);
#565=ORIENTED_EDGE('',*,*,#407,.T.);
#566=ORIENTED_EDGE('',*,*,#427,.T.);
#567=ORIENTED_EDGE('',*,*,#424,.F.);
#568=ORIENTED_EDGE('',*,*,#428,.F.);
#569=ORIENTED_EDGE('',*,*,#429,.F.);
#570=ORIENTED_EDGE('',*,*,#430,.F.);
#571=ORIENTED_EDGE('',*,*,#431,.F.);
#572=ORIENTED_EDGE('',*,*,#432,.F.);
#573=ORIENTED_EDGE('',*,*,#433,.F.);
#574=ORIENTED_EDGE('',*,*,#434,.F.);
#575=ORIENTED_EDGE('',*,*,#435,.F.);
#576=ORIENTED_EDGE('',*,*,#427,.F.);
#577=ORIENTED_EDGE('',*,*,#406,.F.);
#578=ORIENTED_EDGE('',*,*,#410,.F.);
#579=ORIENTED_EDGE('',*,*,#413,.F.);
#580=ORIENTED_EDGE('',*,*,#416,.F.);
#581=ORIENTED_EDGE('',*,*,#419,.F.);
#582=ORIENTED_EDGE('',*,*,#422,.F.);
#583=ORIENTED_EDGE('',*,*,#425,.F.);
#584=ORIENTED_EDGE('',*,*,#431,.T.);
#585=ORIENTED_EDGE('',*,*,#436,.T.);
#586=ORIENTED_EDGE('',*,*,#437,.T.);
#587=ORIENTED_EDGE('',*,*,#438,.T.);
#588=ORIENTED_EDGE('',*,*,#430,.T.);
#589=ORIENTED_EDGE('',*,*,#439,.F.);
#590=ORIENTED_EDGE('',*,*,#440,.T.);
#591=ORIENTED_EDGE('',*,*,#436,.F.);
#592=ORIENTED_EDGE('',*,*,#429,.T.);
#593=ORIENTED_EDGE('',*,*,#441,.T.);
#594=ORIENTED_EDGE('',*,*,#442,.T.);
#595=ORIENTED_EDGE('',*,*,#439,.T.);
#596=ORIENTED_EDGE('',*,*,#428,.T.);
#597=ORIENTED_EDGE('',*,*,#443,.F.);
#598=ORIENTED_EDGE('',*,*,#444,.T.);
#599=ORIENTED_EDGE('',*,*,#441,.F.);
#600=ORIENTED_EDGE('',*,*,#435,.T.);
#601=ORIENTED_EDGE('',*,*,#445,.T.);
#602=ORIENTED_EDGE('',*,*,#446,.T.);
#603=ORIENTED_EDGE('',*,*,#443,.T.);
#604=ORIENTED_EDGE('',*,*,#446,.F.);
#605=ORIENTED_EDGE('',*,*,#447,.F.);
#606=ORIENTED_EDGE('',*,*,#448,.F.);
#607=ORIENTED_EDGE('',*,*,#449,.F.);
#608=ORIENTED_EDGE('',*,*,#437,.F.);
#609=ORIENTED_EDGE('',*,*,#440,.F.);
#610=ORIENTED_EDGE('',*,*,#442,.F.);
#611=ORIENTED_EDGE('',*,*,#444,.F.);
#612=ORIENTED_EDGE('',*,*,#363,.T.);
#613=ORIENTED_EDGE('',*,*,#389,.T.);
#614=ORIENTED_EDGE('',*,*,#391,.T.);
#615=ORIENTED_EDGE('',*,*,#392,.T.);
#616=ORIENTED_EDGE('',*,*,#394,.T.);
#617=ORIENTED_EDGE('',*,*,#396,.T.);
#618=ORIENTED_EDGE('',*,*,#377,.T.);
#619=ORIENTED_EDGE('',*,*,#397,.T.);
#620=ORIENTED_EDGE('',*,*,#400,.T.);
#621=ORIENTED_EDGE('',*,*,#403,.T.);
#622=ORIENTED_EDGE('',*,*,#433,.T.);
#623=ORIENTED_EDGE('',*,*,#450,.T.);
#624=ORIENTED_EDGE('',*,*,#448,.T.);
#625=ORIENTED_EDGE('',*,*,#451,.T.);
#626=ORIENTED_EDGE('',*,*,#432,.T.);
#627=ORIENTED_EDGE('',*,*,#438,.F.);
#628=ORIENTED_EDGE('',*,*,#449,.T.);
#629=ORIENTED_EDGE('',*,*,#450,.F.);
#630=ORIENTED_EDGE('',*,*,#434,.T.);
#631=ORIENTED_EDGE('',*,*,#451,.F.);
#632=ORIENTED_EDGE('',*,*,#447,.T.);
#633=ORIENTED_EDGE('',*,*,#445,.F.);
#634=ORIENTED_EDGE('',*,*,#404,.T.);
#635=ORIENTED_EDGE('',*,*,#426,.T.);
#636=ORIENTED_EDGE('',*,*,#423,.T.);
#637=ORIENTED_EDGE('',*,*,#420,.T.);
#638=ORIENTED_EDGE('',*,*,#417,.T.);
#639=ORIENTED_EDGE('',*,*,#414,.T.);
#640=ORIENTED_EDGE('',*,*,#411,.T.);
#641=ORIENTED_EDGE('',*,*,#408,.T.);
#642=ORIENTED_EDGE('',*,*,#398,.T.);
#643=ORIENTED_EDGE('',*,*,#401,.T.);
#644=CYLINDRICAL_SURFACE('',#714,0.5);
#645=CYLINDRICAL_SURFACE('',#721,0.5);
#646=CYLINDRICAL_SURFACE('',#723,0.5);
#647=CYLINDRICAL_SURFACE('',#730,0.5);
#648=CYLINDRICAL_SURFACE('',#732,0.3);
#649=CYLINDRICAL_SURFACE('',#734,0.3);
#650=CYLINDRICAL_SURFACE('',#742,0.16);
#651=CYLINDRICAL_SURFACE('',#745,0.16);
#652=CYLINDRICAL_SURFACE('',#748,0.7);
#653=CYLINDRICAL_SURFACE('',#752,0.7);
#654=CYLINDRICAL_SURFACE('',#756,0.7);
#655=CYLINDRICAL_SURFACE('',#760,0.7);
#656=CYLINDRICAL_SURFACE('',#769,1.);
#657=CYLINDRICAL_SURFACE('',#772,1.);
#658=CYLINDRICAL_SURFACE('',#775,1.);
#659=CYLINDRICAL_SURFACE('',#779,1.);
#660=ADVANCED_FACE('',(#47),#644,.T.);
#661=ADVANCED_FACE('',(#48,#15),#26,.T.);
#662=ADVANCED_FACE('',(#49),#27,.T.);
#663=ADVANCED_FACE('',(#50),#645,.T.);
#664=ADVANCED_FACE('',(#51),#646,.T.);
#665=ADVANCED_FACE('',(#52,#16),#28,.T.);
#666=ADVANCED_FACE('',(#53),#29,.T.);
#667=ADVANCED_FACE('',(#54),#647,.T.);
#668=ADVANCED_FACE('',(#55),#648,.F.);
#669=ADVANCED_FACE('',(#56),#649,.F.);
#670=ADVANCED_FACE('',(#57),#30,.T.);
#671=ADVANCED_FACE('',(#58,#17),#31,.T.);
#672=ADVANCED_FACE('',(#59),#32,.T.);
#673=ADVANCED_FACE('',(#60,#18),#33,.T.);
#674=ADVANCED_FACE('',(#61),#34,.T.);
#675=ADVANCED_FACE('',(#62),#35,.T.);
#676=ADVANCED_FACE('',(#63),#650,.F.);
#677=ADVANCED_FACE('',(#64),#651,.F.);
#678=ADVANCED_FACE('',(#65),#652,.T.);
#679=ADVANCED_FACE('',(#66),#36,.F.);
#680=ADVANCED_FACE('',(#67),#653,.T.);
#681=ADVANCED_FACE('',(#68),#37,.F.);
#682=ADVANCED_FACE('',(#69),#654,.T.);
#683=ADVANCED_FACE('',(#70),#38,.F.);
#684=ADVANCED_FACE('',(#71),#655,.T.);
#685=ADVANCED_FACE('',(#72),#39,.F.);
#686=ADVANCED_FACE('',(#73,#19),#40,.T.);
#687=ADVANCED_FACE('',(#74),#656,.T.);
#688=ADVANCED_FACE('',(#75),#41,.T.);
#689=ADVANCED_FACE('',(#76),#657,.T.);
#690=ADVANCED_FACE('',(#77),#42,.T.);
#691=ADVANCED_FACE('',(#78),#658,.T.);
#692=ADVANCED_FACE('',(#79,#20,#21,#22,#23),#43,.F.);
#693=ADVANCED_FACE('',(#80),#659,.T.);
#694=ADVANCED_FACE('',(#81),#44,.T.);
#695=ADVANCED_FACE('',(#82),#45,.T.);
#696=ADVANCED_FACE('',(#83,#24,#25),#46,.T.);
#697=CLOSED_SHELL('',(#660,#661,#662,#663,#664,#665,#666,#667,#668,#669,
#670,#671,#672,#673,#674,#675,#676,#677,#678,#679,#680,#681,#682,#683,#684,
#685,#686,#687,#688,#689,#690,#691,#692,#693,#694,#695,#696));
#698=DERIVED_UNIT_ELEMENT(#701,1.);
#699=DERIVED_UNIT_ELEMENT(#1189,-3.);
#700=DIMENSIONAL_EXPONENTS(0.,1.,0.,0.,0.,0.,0.);
#701=(
CONVERSION_BASED_UNIT('gram',#703)
MASS_UNIT()
NAMED_UNIT(#700)
);
#702=(
MASS_UNIT()
NAMED_UNIT(*)
SI_UNIT(.KILO.,.GRAM.)
);
#703=MASS_MEASURE_WITH_UNIT(MASS_MEASURE(0.001),#702);
#704=DERIVED_UNIT((#698,#699));
#705=MEASURE_REPRESENTATION_ITEM('density measure',
POSITIVE_RATIO_MEASURE(1.),#704);
#706=PROPERTY_DEFINITION_REPRESENTATION(#711,#708);
#707=PROPERTY_DEFINITION_REPRESENTATION(#712,#709);
#708=REPRESENTATION('material name',(#710),#1187);
#709=REPRESENTATION('density',(#705),#1187);
#710=DESCRIPTIVE_REPRESENTATION_ITEM('Generic','Generic');
#711=PROPERTY_DEFINITION('material property','material name',#1196);
#712=PROPERTY_DEFINITION('material property','density of part',#1196);
#713=AXIS2_PLACEMENT_3D('',#987,#783,#784);
#714=AXIS2_PLACEMENT_3D('',#988,#785,#786);
#715=AXIS2_PLACEMENT_3D('',#991,#787,#788);
#716=AXIS2_PLACEMENT_3D('',#995,#790,#791);
#717=AXIS2_PLACEMENT_3D('',#997,#793,#794);
#718=AXIS2_PLACEMENT_3D('',#1001,#796,#797);
#719=AXIS2_PLACEMENT_3D('',#1008,#801,#802);
#720=AXIS2_PLACEMENT_3D('',#1009,#803,#804);
#721=AXIS2_PLACEMENT_3D('',#1013,#807,#808);
#722=AXIS2_PLACEMENT_3D('',#1015,#809,#810);
#723=AXIS2_PLACEMENT_3D('',#1017,#812,#813);
#724=AXIS2_PLACEMENT_3D('',#1020,#814,#815);
#725=AXIS2_PLACEMENT_3D('',#1024,#817,#818);
#726=AXIS2_PLACEMENT_3D('',#1026,#820,#821);
#727=AXIS2_PLACEMENT_3D('',#1030,#823,#824);
#728=AXIS2_PLACEMENT_3D('',#1037,#828,#829);
#729=AXIS2_PLACEMENT_3D('',#1038,#830,#831);
#730=AXIS2_PLACEMENT_3D('',#1042,#834,#835);
#731=AXIS2_PLACEMENT_3D('',#1044,#836,#837);
#732=AXIS2_PLACEMENT_3D('',#1046,#839,#840);
#733=AXIS2_PLACEMENT_3D('',#1048,#841,#842);
#734=AXIS2_PLACEMENT_3D('',#1050,#844,#845);
#735=AXIS2_PLACEMENT_3D('',#1053,#847,#848);
#736=AXIS2_PLACEMENT_3D('',#1054,#849,#850);
#737=AXIS2_PLACEMENT_3D('',#1058,#853,#854);
#738=AXIS2_PLACEMENT_3D('',#1062,#857,#858);
#739=AXIS2_PLACEMENT_3D('',#1064,#860,#861);
#740=AXIS2_PLACEMENT_3D('',#1070,#865,#866);
#741=AXIS2_PLACEMENT_3D('',#1072,#868,#869);
#742=AXIS2_PLACEMENT_3D('',#1074,#871,#872);
#743=AXIS2_PLACEMENT_3D('',#1076,#873,#874);
#744=AXIS2_PLACEMENT_3D('',#1079,#876,#877);
#745=AXIS2_PLACEMENT_3D('',#1080,#878,#879);
#746=AXIS2_PLACEMENT_3D('',#1082,#880,#881);
#747=AXIS2_PLACEMENT_3D('',#1085,#883,#884);
#748=AXIS2_PLACEMENT_3D('',#1086,#885,#886);
#749=AXIS2_PLACEMENT_3D('',#1089,#887,#888);
#750=AXIS2_PLACEMENT_3D('',#1093,#890,#891);
#751=AXIS2_PLACEMENT_3D('',#1095,#893,#894);
#752=AXIS2_PLACEMENT_3D('',#1101,#898,#899);
#753=AXIS2_PLACEMENT_3D('',#1103,#900,#901);
#754=AXIS2_PLACEMENT_3D('',#1106,#903,#904);
#755=AXIS2_PLACEMENT_3D('',#1107,#905,#906);
#756=AXIS2_PLACEMENT_3D('',#1113,#910,#911);
#757=AXIS2_PLACEMENT_3D('',#1115,#912,#913);
#758=AXIS2_PLACEMENT_3D('',#1118,#915,#916);
#759=AXIS2_PLACEMENT_3D('',#1119,#917,#918);
#760=AXIS2_PLACEMENT_3D('',#1125,#922,#923);
#761=AXIS2_PLACEMENT_3D('',#1127,#924,#925);
#762=AXIS2_PLACEMENT_3D('',#1130,#927,#928);
#763=AXIS2_PLACEMENT_3D('',#1131,#929,#930);
#764=AXIS2_PLACEMENT_3D('',#1134,#933,#934);
#765=AXIS2_PLACEMENT_3D('',#1139,#936,#937);
#766=AXIS2_PLACEMENT_3D('',#1143,#939,#940);
#767=AXIS2_PLACEMENT_3D('',#1147,#942,#943);
#768=AXIS2_PLACEMENT_3D('',#1150,#945,#946);
#769=AXIS2_PLACEMENT_3D('',#1151,#947,#948);
#770=AXIS2_PLACEMENT_3D('',#1155,#950,#951);
#771=AXIS2_PLACEMENT_3D('',#1157,#953,#954);
#772=AXIS2_PLACEMENT_3D('',#1161,#957,#958);
#773=AXIS2_PLACEMENT_3D('',#1164,#960,#961);
#774=AXIS2_PLACEMENT_3D('',#1165,#962,#963);
#775=AXIS2_PLACEMENT_3D('',#1169,#966,#967);
#776=AXIS2_PLACEMENT_3D('',#1172,#969,#970);
#777=AXIS2_PLACEMENT_3D('',#1173,#971,#972);
#778=AXIS2_PLACEMENT_3D('',#1177,#974,#975);
#779=AXIS2_PLACEMENT_3D('',#1179,#977,#978);
#780=AXIS2_PLACEMENT_3D('',#1182,#981,#982);
#781=AXIS2_PLACEMENT_3D('',#1183,#983,#984);
#782=AXIS2_PLACEMENT_3D('',#1184,#985,#986);
#783=DIRECTION('axis',(0.,0.,1.));
#784=DIRECTION('refdir',(1.,0.,0.));
#785=DIRECTION('center_axis',(-1.,1.8503717077086E-16,0.));
#786=DIRECTION('ref_axis',(0.,-0.707106781186548,-0.707106781186548));
#787=DIRECTION('center_axis',(1.,0.,0.));
#788=DIRECTION('ref_axis',(0.,-0.707106781186548,-0.707106781186548));
#789=DIRECTION('',(1.,-1.8503717077086E-16,0.));
#790=DIRECTION('center_axis',(-1.,2.22044604925031E-16,0.));
#791=DIRECTION('ref_axis',(0.,-0.707106781186548,-0.707106781186548));
#792=DIRECTION('',(-1.,1.8503717077086E-16,0.));
#793=DIRECTION('center_axis',(1.,-2.22044604925031E-16,0.));
#794=DIRECTION('ref_axis',(-2.22044604925031E-16,-1.,0.));
#795=DIRECTION('',(-2.22044604925031E-16,-1.,0.));
#796=DIRECTION('center_axis',(-1.,2.22044604925031E-16,0.));
#797=DIRECTION('ref_axis',(0.,0.707106781186548,-0.707106781186548));
#798=DIRECTION('',(0.,0.,-1.));
#799=DIRECTION('',(2.22044604925031E-16,1.,0.));
#800=DIRECTION('',(0.,0.,-1.));
#801=DIRECTION('center_axis',(-1.,2.22044604925031E-16,0.));
#802=DIRECTION('ref_axis',(0.,0.,-1.));
#803=DIRECTION('center_axis',(0.,0.,-1.));
#804=DIRECTION('ref_axis',(-1.,0.,0.));
#805=DIRECTION('',(0.,1.,0.));
#806=DIRECTION('',(-1.,0.,0.));
#807=DIRECTION('center_axis',(1.,0.,0.));
#808=DIRECTION('ref_axis',(0.,0.707106781186548,-0.707106781186548));
#809=DIRECTION('center_axis',(1.,0.,0.));
#810=DIRECTION('ref_axis',(0.,0.707106781186548,-0.707106781186548));
#811=DIRECTION('',(1.,0.,0.));
#812=DIRECTION('center_axis',(1.,3.70074341541719E-16,0.));
#813=DIRECTION('ref_axis',(0.,0.707106781186548,-0.707106781186548));
#814=DIRECTION('center_axis',(-1.,2.22044604925031E-16,0.));
#815=DIRECTION('ref_axis',(0.,0.707106781186548,-0.707106781186548));
#816=DIRECTION('',(-1.,-3.70074341541719E-16,0.));
#817=DIRECTION('center_axis',(1.,0.,0.));
#818=DIRECTION('ref_axis',(0.,0.707106781186548,-0.707106781186548));
#819=DIRECTION('',(1.,3.70074341541719E-16,0.));
#820=DIRECTION('center_axis',(-1.,0.,0.));
#821=DIRECTION('ref_axis',(0.,1.,0.));
#822=DIRECTION('',(0.,1.,0.));
#823=DIRECTION('center_axis',(1.,0.,0.));
#824=DIRECTION('ref_axis',(0.,-0.707106781186548,-0.707106781186548));
#825=DIRECTION('',(0.,0.,-1.));
#826=DIRECTION('',(0.,-1.,0.));
#827=DIRECTION('',(0.,0.,-1.));
#828=DIRECTION('center_axis',(1.,0.,0.));
#829=DIRECTION('ref_axis',(0.,0.,-1.));
#830=DIRECTION('center_axis',(0.,0.,-1.));
#831=DIRECTION('ref_axis',(-1.,0.,0.));
#832=DIRECTION('',(-2.22044604925031E-16,-1.,0.));
#833=DIRECTION('',(1.,-1.8503717077086E-16,0.));
#834=DIRECTION('center_axis',(-1.,1.8503717077086E-16,0.));
#835=DIRECTION('ref_axis',(0.,-0.707106781186548,-0.707106781186548));
#836=DIRECTION('center_axis',(-1.,2.22044604925031E-16,0.));
#837=DIRECTION('ref_axis',(0.,-0.707106781186548,-0.707106781186548));
#838=DIRECTION('',(-1.,1.8503717077086E-16,0.));
#839=DIRECTION('center_axis',(-1.,2.22044604925031E-16,0.));
#840=DIRECTION('ref_axis',(0.,0.,-1.));
#841=DIRECTION('center_axis',(-1.,2.22044604925031E-16,0.));
#842=DIRECTION('ref_axis',(0.,0.,-1.));
#843=DIRECTION('',(-1.,2.22044604925031E-16,0.));
#844=DIRECTION('center_axis',(-1.,2.22044604925031E-16,0.));
#845=DIRECTION('ref_axis',(0.,0.,-1.));
#846=DIRECTION('',(-1.,2.22044604925031E-16,0.));
#847=DIRECTION('center_axis',(1.,0.,0.));
#848=DIRECTION('ref_axis',(0.,0.,-1.));
#849=DIRECTION('center_axis',(0.,1.,0.));
#850=DIRECTION('ref_axis',(1.,0.,0.));
#851=DIRECTION('',(0.,0.,-1.));
#852=DIRECTION('',(-1.,0.,0.));
#853=DIRECTION('center_axis',(-1.,0.,0.));
#854=DIRECTION('ref_axis',(0.,1.,0.));
#855=DIRECTION('',(0.,0.,-1.));
#856=DIRECTION('',(0.,-1.,0.));
#857=DIRECTION('center_axis',(-1.8503717077086E-16,-1.,0.));
#858=DIRECTION('ref_axis',(-1.,1.8503717077086E-16,0.));
#859=DIRECTION('',(1.,-1.8503717077086E-16,0.));
#860=DIRECTION('center_axis',(1.,-2.22044604925031E-16,0.));
#861=DIRECTION('ref_axis',(-2.22044604925031E-16,-1.,0.));
#862=DIRECTION('',(0.,0.,-1.));
#863=DIRECTION('',(2.22044604925031E-16,1.,0.));
#864=DIRECTION('',(0.,0.,-1.));
#865=DIRECTION('center_axis',(-3.70074341541719E-16,1.,0.));
#866=DIRECTION('ref_axis',(1.,3.70074341541719E-16,0.));
#867=DIRECTION('',(-1.,-3.70074341541719E-16,0.));
#868=DIRECTION('center_axis',(-1.8503717077086E-16,-1.,0.));
#869=DIRECTION('ref_axis',(-1.,1.8503717077086E-16,0.));
#870=DIRECTION('',(1.,-1.8503717077086E-16,0.));
#871=DIRECTION('center_axis',(0.,0.,-1.));
#872=DIRECTION('ref_axis',(1.,0.,0.));
#873=DIRECTION('center_axis',(0.,0.,-1.));
#874=DIRECTION('ref_axis',(1.,0.,0.));
#875=DIRECTION('',(0.,0.,-1.));
#876=DIRECTION('center_axis',(0.,0.,1.));
#877=DIRECTION('ref_axis',(1.,0.,0.));
#878=DIRECTION('center_axis',(0.,0.,-1.));
#879=DIRECTION('ref_axis',(1.,0.,0.));
#880=DIRECTION('center_axis',(0.,0.,-1.));
#881=DIRECTION('ref_axis',(1.,0.,0.));
#882=DIRECTION('',(0.,0.,-1.));
#883=DIRECTION('center_axis',(0.,0.,1.));
#884=DIRECTION('ref_axis',(1.,0.,0.));
#885=DIRECTION('center_axis',(0.,0.,-1.));
#886=DIRECTION('ref_axis',(-1.26882631385732E-15,1.,0.));
#887=DIRECTION('center_axis',(0.,0.,1.));
#888=DIRECTION('ref_axis',(-1.26882631385732E-15,1.,0.));
#889=DIRECTION('',(0.,0.,-1.));
#890=DIRECTION('center_axis',(0.,0.,1.));
#891=DIRECTION('ref_axis',(-1.26882631385732E-15,1.,0.));
#892=DIRECTION('',(0.,0.,-1.));
#893=DIRECTION('center_axis',(-8.88178419700125E-17,1.,0.));
#894=DIRECTION('ref_axis',(1.,8.88178419700125E-17,0.));
#895=DIRECTION('',(1.,8.88178419700125E-17,0.));
#896=DIRECTION('',(0.,0.,-1.));
#897=DIRECTION('',(1.,8.88178419700125E-17,0.));
#898=DIRECTION('center_axis',(0.,0.,-1.));
#899=DIRECTION('ref_axis',(1.,3.17206578464331E-16,0.));
#900=DIRECTION('center_axis',(0.,0.,1.));
#901=DIRECTION('ref_axis',(1.,3.17206578464331E-16,0.));
#902=DIRECTION('',(0.,0.,-1.));
#903=DIRECTION('center_axis',(0.,0.,1.));
#904=DIRECTION('ref_axis',(1.,3.17206578464331E-16,0.));
#905=DIRECTION('center_axis',(1.,4.44089209850063E-16,0.));
#906=DIRECTION('ref_axis',(4.44089209850063E-16,-1.,0.));
#907=DIRECTION('',(4.44089209850063E-16,-1.,0.));
#908=DIRECTION('',(0.,0.,-1.));
#909=DIRECTION('',(4.44089209850063E-16,-1.,0.));
#910=DIRECTION('center_axis',(0.,0.,-1.));
#911=DIRECTION('ref_axis',(-6.34413156928661E-16,-1.,0.));
#912=DIRECTION('center_axis',(0.,0.,1.));
#913=DIRECTION('ref_axis',(-6.34413156928661E-16,-1.,0.));
#914=DIRECTION('',(0.,0.,-1.));
#915=DIRECTION('center_axis',(0.,0.,1.));
#916=DIRECTION('ref_axis',(-6.34413156928661E-16,-1.,0.));
#917=DIRECTION('center_axis',(-4.44089209850063E-17,-1.,0.));
#918=DIRECTION('ref_axis',(-1.,4.44089209850063E-17,0.));
#919=DIRECTION('',(-1.,4.44089209850063E-17,0.));
#920=DIRECTION('',(0.,0.,-1.));
#921=DIRECTION('',(-1.,4.44089209850063E-17,0.));
#922=DIRECTION('center_axis',(0.,0.,-1.));
#923=DIRECTION('ref_axis',(-1.,-2.37904933848248E-16,0.));
#924=DIRECTION('center_axis',(0.,0.,1.));
#925=DIRECTION('ref_axis',(-1.,-2.37904933848248E-16,0.));
#926=DIRECTION('',(0.,0.,-1.));
#927=DIRECTION('center_axis',(0.,0.,1.));
#928=DIRECTION('ref_axis',(-1.,-2.37904933848248E-16,0.));
#929=DIRECTION('center_axis',(-1.,4.44089209850063E-16,0.));
#930=DIRECTION('ref_axis',(4.44089209850063E-16,1.,0.));
#931=DIRECTION('',(4.44089209850063E-16,1.,0.));
#932=DIRECTION('',(4.44089209850063E-16,1.,0.));
#933=DIRECTION('center_axis',(0.,0.,1.));
#934=DIRECTION('ref_axis',(1.,0.,0.));
#935=DIRECTION('',(1.,-3.1720657846433E-17,0.));
#936=DIRECTION('center_axis',(0.,0.,-1.));
#937=DIRECTION('ref_axis',(-0.707106781186548,0.707106781186547,0.));
#938=DIRECTION('',(-1.48029736616688E-16,1.,0.));
#939=DIRECTION('center_axis',(0.,0.,-1.));
#940=DIRECTION('ref_axis',(-0.707106781186547,-0.707106781186548,0.));
#941=DIRECTION('',(-1.,-1.26882631385732E-16,0.));
#942=DIRECTION('center_axis',(0.,0.,-1.));
#943=DIRECTION('ref_axis',(0.707106781186547,-0.707106781186548,0.));
#944=DIRECTION('',(-1.48029736616688E-16,-1.,0.));
#945=DIRECTION('center_axis',(0.,0.,-1.));
#946=DIRECTION('ref_axis',(0.707106781186548,0.707106781186547,0.));
#947=DIRECTION('center_axis',(0.,0.,1.));
#948=DIRECTION('ref_axis',(-0.707106781186547,-0.707106781186548,0.));
#949=DIRECTION('',(0.,0.,-1.));
#950=DIRECTION('center_axis',(0.,0.,1.));
#951=DIRECTION('ref_axis',(-0.707106781186547,-0.707106781186548,0.));
#952=DIRECTION('',(0.,0.,1.));
#953=DIRECTION('center_axis',(-1.,-1.48029736616688E-16,0.));
#954=DIRECTION('ref_axis',(1.48029736616688E-16,-1.,0.));
#955=DIRECTION('',(0.,0.,1.));
#956=DIRECTION('',(1.48029736616688E-16,-1.,0.));
#957=DIRECTION('center_axis',(0.,0.,1.));
#958=DIRECTION('ref_axis',(-0.707106781186548,0.707106781186547,0.));
#959=DIRECTION('',(0.,0.,-1.));
#960=DIRECTION('center_axis',(0.,0.,1.));
#961=DIRECTION('ref_axis',(-0.707106781186548,0.707106781186547,0.));
#962=DIRECTION('center_axis',(3.1720657846433E-17,1.,0.));
#963=DIRECTION('ref_axis',(-1.,3.1720657846433E-17,0.));
#964=DIRECTION('',(0.,0.,1.));
#965=DIRECTION('',(-1.,3.1720657846433E-17,0.));
#966=DIRECTION('center_axis',(0.,0.,1.));
#967=DIRECTION('ref_axis',(0.707106781186548,0.707106781186547,0.));
#968=DIRECTION('',(0.,0.,-1.));
#969=DIRECTION('center_axis',(0.,0.,1.));
#970=DIRECTION('ref_axis',(0.707106781186548,0.707106781186547,0.));
#971=DIRECTION('center_axis',(0.,0.,1.));
#972=DIRECTION('ref_axis',(1.,0.,0.));
#973=DIRECTION('',(1.48029736616688E-16,1.,0.));
#974=DIRECTION('center_axis',(0.,0.,1.));
#975=DIRECTION('ref_axis',(0.707106781186547,-0.707106781186548,0.));
#976=DIRECTION('',(1.,1.26882631385732E-16,0.));
#977=DIRECTION('center_axis',(0.,0.,1.));
#978=DIRECTION('ref_axis',(0.707106781186547,-0.707106781186548,0.));
#979=DIRECTION('',(0.,0.,-1.));
#980=DIRECTION('',(0.,0.,1.));
#981=DIRECTION('center_axis',(1.26882631385732E-16,-1.,0.));
#982=DIRECTION('ref_axis',(1.,1.26882631385732E-16,0.));
#983=DIRECTION('center_axis',(1.,-1.48029736616688E-16,0.));
#984=DIRECTION('ref_axis',(1.48029736616688E-16,1.,0.));
#985=DIRECTION('center_axis',(0.,0.,1.));
#986=DIRECTION('ref_axis',(1.,0.,0.));
#987=CARTESIAN_POINT('',(0.,0.,0.));
#988=CARTESIAN_POINT('Origin',(-1.55,-0.443469785575048,-2.5));
#989=CARTESIAN_POINT('',(-2.,-0.943469785575048,-2.5));
#990=CARTESIAN_POINT('',(-2.,-0.443469785575048,-3.));
#991=CARTESIAN_POINT('Origin',(-2.,-0.443469785575048,-2.5));
#992=CARTESIAN_POINT('',(-1.4,-0.443469785575048,-3.));
#993=CARTESIAN_POINT('',(-1.55,-0.443469785575048,-3.));
#994=CARTESIAN_POINT('',(-1.4,-0.943469785575048,-2.5));
#995=CARTESIAN_POINT('Origin',(-1.4,-0.443469785575048,-2.5));
#996=CARTESIAN_POINT('',(-1.55,-0.943469785575048,-2.5));
#997=CARTESIAN_POINT('Origin',(-1.4,1.05653021442495,0.));
#998=CARTESIAN_POINT('',(-1.4,0.556530214424952,-3.));
#999=CARTESIAN_POINT('',(-1.4,1.05653021442495,-3.));
#1000=CARTESIAN_POINT('',(-1.4,1.05653021442495,-2.5));
#1001=CARTESIAN_POINT('Origin',(-1.4,0.556530214424952,-2.5));
#1002=CARTESIAN_POINT('',(-1.4,1.05653021442495,0.));
#1003=CARTESIAN_POINT('',(-1.4,1.05653021442495,0.));
#1004=CARTESIAN_POINT('',(-1.4,-0.943469785575048,0.));
#1005=CARTESIAN_POINT('',(-1.4,0.528265107212476,0.));
#1006=CARTESIAN_POINT('',(-1.4,-0.943469785575048,0.));
#1007=CARTESIAN_POINT('',(-1.4,0.0565302144249523,-1.9));
#1008=CARTESIAN_POINT('Origin',(-1.4,0.0565302144249523,-2.2));
#1009=CARTESIAN_POINT('Origin',(-1.7,0.0565302144249517,-3.));
#1010=CARTESIAN_POINT('',(-2.,0.556530214424952,-3.));
#1011=CARTESIAN_POINT('',(-2.,-0.943469785575048,-3.));
#1012=CARTESIAN_POINT('',(-1.85,0.556530214424952,-3.));
#1013=CARTESIAN_POINT('Origin',(-1.85,0.556530214424952,-2.5));
#1014=CARTESIAN_POINT('',(-2.,1.05653021442495,-2.5));
#1015=CARTESIAN_POINT('Origin',(-2.,0.556530214424952,-2.5));
#1016=CARTESIAN_POINT('',(-1.85,1.05653021442495,-2.5));
#1017=CARTESIAN_POINT('Origin',(1.55,0.556530214424951,-2.5));
#1018=CARTESIAN_POINT('',(2.,1.05653021442495,-2.5));
#1019=CARTESIAN_POINT('',(2.,0.556530214424952,-3.));
#1020=CARTESIAN_POINT('Origin',(2.,0.556530214424952,-2.5));
#1021=CARTESIAN_POINT('',(1.4,0.556530214424951,-3.));
#1022=CARTESIAN_POINT('',(1.55,0.556530214424951,-3.));
#1023=CARTESIAN_POINT('',(1.4,1.05653021442495,-2.5));
#1024=CARTESIAN_POINT('Origin',(1.4,0.556530214424951,-2.5));
#1025=CARTESIAN_POINT('',(1.55,1.05653021442495,-2.5));
#1026=CARTESIAN_POINT('Origin',(1.4,-0.943469785575048,0.));
#1027=CARTESIAN_POINT('',(1.4,-0.443469785575048,-3.));
#1028=CARTESIAN_POINT('',(1.4,-0.943469785575048,-3.));
#1029=CARTESIAN_POINT('',(1.4,-0.943469785575048,-2.5));
#1030=CARTESIAN_POINT('Origin',(1.4,-0.443469785575048,-2.5));
#1031=CARTESIAN_POINT('',(1.4,-0.943469785575048,0.));
#1032=CARTESIAN_POINT('',(1.4,-0.943469785575048,0.));
#1033=CARTESIAN_POINT('',(1.4,1.05653021442495,0.));
#1034=CARTESIAN_POINT('',(1.4,-0.471734892787524,0.));
#1035=CARTESIAN_POINT('',(1.4,1.05653021442495,0.));
#1036=CARTESIAN_POINT('',(1.4,0.0565302144249516,-1.9));
#1037=CARTESIAN_POINT('Origin',(1.4,0.0565302144249517,-2.2));
#1038=CARTESIAN_POINT('Origin',(1.7,0.0565302144249515,-3.));
#1039=CARTESIAN_POINT('',(2.,-0.443469785575048,-3.));
#1040=CARTESIAN_POINT('',(2.,1.05653021442495,-3.));
#1041=CARTESIAN_POINT('',(1.85,-0.443469785575048,-3.));
#1042=CARTESIAN_POINT('Origin',(1.85,-0.443469785575048,-2.5));
#1043=CARTESIAN_POINT('',(2.,-0.943469785575048,-2.5));
#1044=CARTESIAN_POINT('Origin',(2.,-0.443469785575048,-2.5));
#1045=CARTESIAN_POINT('',(1.85,-0.943469785575048,-2.5));
#1046=CARTESIAN_POINT('Origin',(2.,0.0565302144249515,-2.2));
#1047=CARTESIAN_POINT('',(2.,0.0565302144249516,-1.9));
#1048=CARTESIAN_POINT('Origin',(2.,0.0565302144249515,-2.2));
#1049=CARTESIAN_POINT('',(2.,0.0565302144249516,-1.9));
#1050=CARTESIAN_POINT('Origin',(2.,0.0565302144249515,-2.2));
#1051=CARTESIAN_POINT('',(-2.,0.0565302144249524,-1.9));
#1052=CARTESIAN_POINT('',(2.,0.0565302144249516,-1.9));
#1053=CARTESIAN_POINT('Origin',(-2.,0.0565302144249524,-2.2));
#1054=CARTESIAN_POINT('Origin',(-2.,1.05653021442495,0.));
#1055=CARTESIAN_POINT('',(-2.,1.05653021442495,0.));
#1056=CARTESIAN_POINT('',(-2.,1.05653021442495,0.));
#1057=CARTESIAN_POINT('',(-1.,1.05653021442495,0.));
#1058=CARTESIAN_POINT('Origin',(-2.,-0.943469785575048,0.));
#1059=CARTESIAN_POINT('',(-2.,-0.943469785575048,0.));
#1060=CARTESIAN_POINT('',(-2.,-0.943469785575048,0.));
#1061=CARTESIAN_POINT('',(-2.,-0.471734892787524,0.));
#1062=CARTESIAN_POINT('Origin',(-1.4,-0.943469785575048,0.));
#1063=CARTESIAN_POINT('',(-0.700000000000001,-0.943469785575048,0.));
#1064=CARTESIAN_POINT('Origin',(2.,1.05653021442495,0.));
#1065=CARTESIAN_POINT('',(2.,1.05653021442495,0.));
#1066=CARTESIAN_POINT('',(2.,1.05653021442495,0.));
#1067=CARTESIAN_POINT('',(2.,-0.943469785575048,0.));
#1068=CARTESIAN_POINT('',(2.,0.528265107212476,0.));
#1069=CARTESIAN_POINT('',(2.,-0.943469785575048,0.));
#1070=CARTESIAN_POINT('Origin',(1.4,1.05653021442495,0.));
#1071=CARTESIAN_POINT('',(0.699999999999999,1.05653021442495,0.));
#1072=CARTESIAN_POINT('Origin',(2.,-0.943469785575048,0.));
#1073=CARTESIAN_POINT('',(0.999999999999999,-0.943469785575048,0.));
#1074=CARTESIAN_POINT('Origin',(2.7,-2.10344209699665E-16,0.3));
#1075=CARTESIAN_POINT('',(2.54,-1.90749860913308E-16,0.3));
#1076=CARTESIAN_POINT('Origin',(2.7,-2.10344209699665E-16,0.3));
#1077=CARTESIAN_POINT('',(2.54,-2.29938558486023E-16,0.));
#1078=CARTESIAN_POINT('',(2.54,-1.90749860913308E-16,0.3));
#1079=CARTESIAN_POINT('Origin',(2.7,-2.10344209699665E-16,0.));
#1080=CARTESIAN_POINT('Origin',(-2.7,1.38852366675366E-16,0.3));
#1081=CARTESIAN_POINT('',(-2.86,1.58446715461724E-16,0.3));
#1082=CARTESIAN_POINT('Origin',(-2.7,1.38852366675366E-16,0.3));
#1083=CARTESIAN_POINT('',(-2.86,1.19258017889009E-16,0.));
#1084=CARTESIAN_POINT('',(-2.86,1.58446715461724E-16,0.3));
#1085=CARTESIAN_POINT('Origin',(-2.7,1.38852366675366E-16,0.));
#1086=CARTESIAN_POINT('Origin',(2.5,-0.499999999999999,0.3));
#1087=CARTESIAN_POINT('',(2.5,-1.2,0.3));
#1088=CARTESIAN_POINT('',(3.2,-0.5,0.3));
#1089=CARTESIAN_POINT('Origin',(2.5,-0.499999999999999,0.3));
#1090=CARTESIAN_POINT('',(2.5,-1.2,0.15));
#1091=CARTESIAN_POINT('',(2.5,-1.2,0.3));
#1092=CARTESIAN_POINT('',(3.2,-0.5,0.15));
#1093=CARTESIAN_POINT('Origin',(2.5,-0.499999999999999,0.15));
#1094=CARTESIAN_POINT('',(3.2,-0.5,0.3));
#1095=CARTESIAN_POINT('Origin',(-2.5,-1.2,0.3));
#1096=CARTESIAN_POINT('',(-2.5,-1.2,0.3));
#1097=CARTESIAN_POINT('',(-1.25,-1.2,0.3));
#1098=CARTESIAN_POINT('',(-2.5,-1.2,0.15));
#1099=CARTESIAN_POINT('',(-2.5,-1.2,0.3));
#1100=CARTESIAN_POINT('',(2.5,-1.2,0.15));
#1101=CARTESIAN_POINT('Origin',(-2.5,-0.5,0.3));
#1102=CARTESIAN_POINT('',(-3.2,-0.5,0.3));
#1103=CARTESIAN_POINT('Origin',(-2.5,-0.5,0.3));
#1104=CARTESIAN_POINT('',(-3.2,-0.5,0.15));
#1105=CARTESIAN_POINT('',(-3.2,-0.5,0.3));
#1106=CARTESIAN_POINT('Origin',(-2.5,-0.5,0.15));
#1107=CARTESIAN_POINT('Origin',(-3.2,0.5,0.3));
#1108=CARTESIAN_POINT('',(-3.2,0.5,0.3));
#1109=CARTESIAN_POINT('',(-3.2,0.249999999999999,0.3));
#1110=CARTESIAN_POINT('',(-3.2,0.5,0.15));
#1111=CARTESIAN_POINT('',(-3.2,0.5,0.3));
#1112=CARTESIAN_POINT('',(-3.2,-0.5,0.15));
#1113=CARTESIAN_POINT('Origin',(-2.5,0.5,0.3));
#1114=CARTESIAN_POINT('',(-2.5,1.2,0.3));
#1115=CARTESIAN_POINT('Origin',(-2.5,0.5,0.3));
#1116=CARTESIAN_POINT('',(-2.5,1.2,0.15));
#1117=CARTESIAN_POINT('',(-2.5,1.2,0.3));
#1118=CARTESIAN_POINT('Origin',(-2.5,0.5,0.15));
#1119=CARTESIAN_POINT('Origin',(2.5,1.2,0.3));
#1120=CARTESIAN_POINT('',(2.5,1.2,0.3));
#1121=CARTESIAN_POINT('',(1.25,1.2,0.3));
#1122=CARTESIAN_POINT('',(2.5,1.2,0.15));
#1123=CARTESIAN_POINT('',(2.5,1.2,0.3));
#1124=CARTESIAN_POINT('',(-2.5,1.2,0.15));
#1125=CARTESIAN_POINT('Origin',(2.5,0.5,0.3));
#1126=CARTESIAN_POINT('',(3.2,0.5,0.3));
#1127=CARTESIAN_POINT('Origin',(2.5,0.5,0.3));
#1128=CARTESIAN_POINT('',(3.2,0.5,0.15));
#1129=CARTESIAN_POINT('',(3.2,0.5,0.3));
#1130=CARTESIAN_POINT('Origin',(2.5,0.5,0.15));
#1131=CARTESIAN_POINT('Origin',(3.2,-0.5,0.3));
#1132=CARTESIAN_POINT('',(3.2,-0.250000000000001,0.3));
#1133=CARTESIAN_POINT('',(3.2,0.5,0.15));
#1134=CARTESIAN_POINT('Origin',(-4.44089209850063E-16,1.11022302462516E-16,
0.15));
#1135=CARTESIAN_POINT('',(-2.5,1.5,0.15));
#1136=CARTESIAN_POINT('',(2.5,1.5,0.15));
#1137=CARTESIAN_POINT('',(1.75,1.5,0.15));
#1138=CARTESIAN_POINT('',(-3.5,0.5,0.15));
#1139=CARTESIAN_POINT('Origin',(-2.5,0.5,0.15));
#1140=CARTESIAN_POINT('',(-3.5,-0.5,0.15));
#1141=CARTESIAN_POINT('',(-3.5,0.75,0.15));
#1142=CARTESIAN_POINT('',(-2.5,-1.5,0.15));
#1143=CARTESIAN_POINT('Origin',(-2.5,-0.5,0.15));
#1144=CARTESIAN_POINT('',(2.5,-1.5,0.15));
#1145=CARTESIAN_POINT('',(-1.75,-1.5,0.15));
#1146=CARTESIAN_POINT('',(3.5,-0.499999999999999,0.15));
#1147=CARTESIAN_POINT('Origin',(2.5,-0.499999999999999,0.15));
#1148=CARTESIAN_POINT('',(3.5,0.5,0.15));
#1149=CARTESIAN_POINT('',(3.5,-0.75,0.15));
#1150=CARTESIAN_POINT('Origin',(2.5,0.5,0.15));
#1151=CARTESIAN_POINT('Origin',(-2.5,-0.5,0.));
#1152=CARTESIAN_POINT('',(-3.5,-0.5,0.));
#1153=CARTESIAN_POINT('',(-3.5,-0.5,0.));
#1154=CARTESIAN_POINT('',(-2.5,-1.5,0.));
#1155=CARTESIAN_POINT('Origin',(-2.5,-0.5,0.));
#1156=CARTESIAN_POINT('',(-2.5,-1.5,0.));
#1157=CARTESIAN_POINT('Origin',(-3.5,1.5,0.));
#1158=CARTESIAN_POINT('',(-3.5,0.5,0.));
#1159=CARTESIAN_POINT('',(-3.5,0.5,0.));
#1160=CARTESIAN_POINT('',(-3.5,1.5,0.));
#1161=CARTESIAN_POINT('Origin',(-2.5,0.5,0.));
#1162=CARTESIAN_POINT('',(-2.5,1.5,0.));
#1163=CARTESIAN_POINT('',(-2.5,1.5,0.));
#1164=CARTESIAN_POINT('Origin',(-2.5,0.5,0.));
#1165=CARTESIAN_POINT('Origin',(3.5,1.5,0.));
#1166=CARTESIAN_POINT('',(2.5,1.5,0.));
#1167=CARTESIAN_POINT('',(2.5,1.5,0.));
#1168=CARTESIAN_POINT('',(3.5,1.5,0.));
#1169=CARTESIAN_POINT('Origin',(2.5,0.5,0.));
#1170=CARTESIAN_POINT('',(3.5,0.5,0.));
#1171=CARTESIAN_POINT('',(3.5,0.5,0.));
#1172=CARTESIAN_POINT('Origin',(2.5,0.5,0.));
#1173=CARTESIAN_POINT('Origin',(-4.44089209850063E-16,0.,0.));
#1174=CARTESIAN_POINT('',(3.5,-0.499999999999999,0.));
#1175=CARTESIAN_POINT('',(3.5,-1.5,0.));
#1176=CARTESIAN_POINT('',(2.5,-1.5,0.));
#1177=CARTESIAN_POINT('Origin',(2.5,-0.499999999999999,0.));
#1178=CARTESIAN_POINT('',(-3.5,-1.5,0.));
#1179=CARTESIAN_POINT('Origin',(2.5,-0.499999999999999,0.));
#1180=CARTESIAN_POINT('',(2.5,-1.5,0.));
#1181=CARTESIAN_POINT('',(3.5,-0.499999999999999,0.));
#1182=CARTESIAN_POINT('Origin',(-3.5,-1.5,0.));
#1183=CARTESIAN_POINT('Origin',(3.5,-1.5,0.));
#1184=CARTESIAN_POINT('Origin',(-4.44089209850063E-16,0.,0.3));
#1185=UNCERTAINTY_MEASURE_WITH_UNIT(LENGTH_MEASURE(0.001),#1189,
'DISTANCE_ACCURACY_VALUE',
'Maximum model space distance between geometric entities at asserted c
onnectivities');
#1186=UNCERTAINTY_MEASURE_WITH_UNIT(LENGTH_MEASURE(0.001),#1189,
'DISTANCE_ACCURACY_VALUE',
'Maximum model space distance between geometric entities at asserted c
onnectivities');
#1187=(
GEOMETRIC_REPRESENTATION_CONTEXT(3)
GLOBAL_UNCERTAINTY_ASSIGNED_CONTEXT((#1185))
GLOBAL_UNIT_ASSIGNED_CONTEXT((#1189,#1190,#1191))
REPRESENTATION_CONTEXT('','3D')
);
#1188=(
GEOMETRIC_REPRESENTATION_CONTEXT(3)
GLOBAL_UNCERTAINTY_ASSIGNED_CONTEXT((#1186))
GLOBAL_UNIT_ASSIGNED_CONTEXT((#1189,#1190,#1191))
REPRESENTATION_CONTEXT('','3D')
);
#1189=(
LENGTH_UNIT()
NAMED_UNIT(*)
SI_UNIT(.CENTI.,.METRE.)
);
#1190=(
NAMED_UNIT(*)
PLANE_ANGLE_UNIT()
SI_UNIT($,.RADIAN.)
);
#1191=(
NAMED_UNIT(*)
SI_UNIT($,.STERADIAN.)
SOLID_ANGLE_UNIT()
);
#1192=SHAPE_DEFINITION_REPRESENTATION(#1193,#1194);
#1193=PRODUCT_DEFINITION_SHAPE('',$,#1196);
#1194=SHAPE_REPRESENTATION('',(#713),#1187);
#1195=PRODUCT_DEFINITION_CONTEXT('part definition',#1200,'design');
#1196=PRODUCT_DEFINITION('sensor_cover_ultrasonic_2',
'sensor_cover_ultrasonic_2',#1197,#1195);
#1197=PRODUCT_DEFINITION_FORMATION('',$,#1202);
#1198=PRODUCT_RELATED_PRODUCT_CATEGORY('sensor_cover_ultrasonic_2',
'sensor_cover_ultrasonic_2',(#1202));
#1199=APPLICATION_PROTOCOL_DEFINITION('international standard',
'automotive_design',2009,#1200);
#1200=APPLICATION_CONTEXT(
'Core Data for Automotive Mechanical Design Process');
#1201=PRODUCT_CONTEXT('part definition',#1200,'mechanical');
#1202=PRODUCT('sensor_cover_ultrasonic_2','sensor_cover_ultrasonic_2',$,
(#1201));
#1203=PRESENTATION_STYLE_ASSIGNMENT((#1204));
#1204=SURFACE_STYLE_USAGE(.BOTH.,#1207);
#1205=SURFACE_STYLE_RENDERING_WITH_PROPERTIES($,#1211,(#1206));
#1206=SURFACE_STYLE_TRANSPARENT(0.);
#1207=SURFACE_SIDE_STYLE('',(#1208,#1205));
#1208=SURFACE_STYLE_FILL_AREA(#1209);
#1209=FILL_AREA_STYLE('',(#1210));
#1210=FILL_AREA_STYLE_COLOUR('',#1211);
#1211=COLOUR_RGB('',0.749019607843137,0.749019607843137,0.749019607843137);
ENDSEC;
END-ISO-10303-21;
